
<svg xmlns="http://www.w3.org/2000/svg" version="1.1" xmlns:xlink="http://www.w3.org/1999/xlink" preserveAspectRatio="none" x="0px" y="0px" width="100px" height="100px" viewBox="0 0 100 100">
<defs>
<g id="addTree_0_Layer3_0_FILL">
<path fill="#FFFFFF" stroke="none" d="
M 46.5 -39.75
Q 46.5 -44.75 41.5 -44.75
L -39.75 -44.75
Q -44.75 -44.75 -44.75 -39.75
L -44.75 41.5
Q -44.75 46.5 -39.75 46.5
L 41.5 46.5
Q 46.5 46.5 46.5 41.5
L 46.5 -39.75 Z"/>
</g>

<g id="add_0_Layer3_0_FILL">
<path fill="#000000" stroke="none" d="
M 23.6 8.45
Q 21.8 8.45 20.4 9.65 19.05 10.8 18.7 12.6 18.1 12.5 17.6 12.5 15.5 12.5 14 13.95 12.55 15.45 12.55 17.5 12.55 19.45 13.8 20.85 12.35 21.4 11.45 22.65 10.55 23.95 10.55 25.55 10.55 27.7 11.9 29.1 13.35 30.6 15.55 30.6
L 16.6 30.6 20.6 37.65 20.6 42.65
Q 20.6 43.45 21.2 44.05 21.85 44.65 22.6 44.65
L 24.6 44.65
Q 25.4 44.65 26 44.05 26.65 43.4 26.65 42.65
L 26.65 37.65 30.65 30.6 32.1 30.6
Q 34 30.6 35.35 29.1 36.7 27.6 36.7 25.55 36.7 24.9357421875 36.55 24.35
L 36.45 25.1 36.45 25.15
Q 36.6 27.35 32.55 27.35 31.15 27.35 30.55 27.05 28.4 26.15 29 24.3
L 29.7 20.4 26.1 20.4
Q 23.45 20.95 23.45 16.65 23.45 12.5 26.1 13.05
L 31 13.05 31.05 12.65
Q 30.394921875 12.5 29.65 12.5 29.15 12.5 28.5 12.6 28.2 10.8 26.85 9.65 25.45 8.45 23.6 8.45
M 43.2 16.25
Q 43.2 14.6 42.6 14.6
L 36.45 14.6 37.5 8.2
Q 37.6 7.55 35.85 7.55 34.1 7.55 34 8.15
L 33 14.6 26.4 14.6
Q 25.75 14.6 25.75 16.25 25.75 17.95 26.4 17.95
L 32.35 17.95 31.25 24.25
Q 31.1 24.95 32.85 24.95 34.65 24.95 34.75 24.35
L 35.8 17.95 42.6 17.95
Q 43.2 17.95 43.2 16.25 Z"/>
</g>

<path id="add_0_Layer2_0_1_STROKES" stroke="#454545" stroke-width="4" stroke-linejoin="round" stroke-linecap="round" fill="none" d="
M 49 24.5
Q 49 34.65 41.8 41.8 34.65 49 24.5 49 14.35 49 7.15 41.8 0 34.65 0 24.5 0 14.35 7.15 7.15 14.35 0 24.5 0 34.65 0 41.8 7.15 49 14.35 49 24.5 Z"/>
</defs>

<g id="addTree" transform="matrix( 1, 0, 0, 1, 50.15,50.55) ">
<g transform="matrix( 1, 0, 0, 1, 0,0) ">
<use xlink:href="#addTree_0_Layer3_0_FILL"/>
</g>

<g transform="matrix( 1.4596099853515625, 0, 0, 1.4596099853515625, -35.5,-33.25) ">
<g transform="matrix( 1, 0, 0, 1, 0,0) ">
<use xlink:href="#add_0_Layer3_0_FILL"/>
</g>

<g transform="matrix( 1, 0, 0, 1, 0,0) ">
<use xlink:href="#add_0_Layer2_0_1_STROKES"/>
</g>
</g>
</g>
</svg>
