
<svg xmlns="http://www.w3.org/2000/svg" version="1.1" xmlns:xlink="http://www.w3.org/1999/xlink" preserveAspectRatio="none" x="0px" y="0px" width="50px" height="50px" viewBox="0 0 50 50">
<defs>
<g id="close_0_Layer1_0_FILL">
<path fill="#000000" fill-opacity="0.00392156862745098" stroke="none" d="
M -3.05 -4.5
L -3.05 41.75 41.2 41.75 41.2 -4.5 -3.05 -4.5 Z"/>
</g>

<g id="close_0_Layer0_0_FILL">
<path fill="#00CCCC" stroke="none" d="
M 29.25 -2.25
Q 28.98515625 -2.4330078125 28.65 -2.45 28.3251953125 -2.462109375 28.05 -2.3 27.78203125 -2.1009765625 27.65 -1.8 27.559765625 -1.49140625 27.65 -1.2
L 28.75 2.75
Q 23.66015625 10.2326171875 19.75 16
L 13.9 2.75 16.55 -0.85
Q 16.7552734375 -1.1306640625 16.75 -1.5 16.740625 -1.812890625 16.5 -2.1 16.3080078125 -2.3427734375 15.95 -2.45 15.640234375 -2.49765625 15.3 -2.35
L 3.95 2.8
Q 3.680859375 2.936328125 3.5 3.2 3.360546875 3.5064453125 3.4 3.8 3.443359375 4.155859375 3.65 4.4 3.9037109375 4.6302734375 4.2 4.65
L 8.25 5.35
Q 13.05859375 13.8408203125 16.8 20.3 11.5583984375 27.991015625 8.9 31.9 7.527734375 33.9177734375 6.85 34.9 6.5 35.43984375 6.3 35.7 6.2390625 35.833984375 6.2 35.9 6.1662109375 35.95 6.15 35.95 5.2359375 37.5474609375 7 37.5 7.22109375 37.4966796875 7.4 37.4 7.62890625 37.3119140625 7.75 37.15
L 18.9 24
Q 23.36484375 31.844140625 25.7 35.9 26.9615234375 38.0884765625 27.6 39.15 27.91640625 39.726953125 28.05 40 28.1716796875 40.1509765625 28.2 40.2
L 28.2 40.2
Q 28.2470703125 40.292578125 28.25 40.3 29.18125 41.5736328125 29.8 40.45 30.0177734375 40.2294921875 30.05 39.9 30.141015625 39.6279296875 30 39.35
L 21.75 20.6 33.55 6.65 38 7.45
Q 38.3521484375 7.534375 38.65 7.35 38.9548828125 7.2251953125 39.1 6.9 39.2470703125 6.611328125 39.15 6.25 39.1052734375 5.94296875 38.85 5.7
L 29.25 -2.25 Z"/>
</g>
</defs>

<g id="close" transform="matrix( 1, 0, 0, 1, 5.55,6) ">
<g transform="matrix( 1, 0, 0, 1, 0,0) ">
<use xlink:href="#close_0_Layer1_0_FILL"/>
</g>

<g transform="matrix( 1, 0, 0, 1, 0,0) ">
<use xlink:href="#close_0_Layer0_0_FILL"/>
</g>
</g>
</svg>
