
<svg xmlns="http://www.w3.org/2000/svg" version="1.1" xmlns:xlink="http://www.w3.org/1999/xlink" preserveAspectRatio="none" x="0px" y="0px" width="50px" height="50px" viewBox="0 0 50 50">
<defs>
<g id="Layer0_0_FILL">
<path fill="#000000" fill-opacity="0.9686274509803922" stroke="none" d="
M 40.8 25.15
L 44.35 21.6
Q 45.3 20.65 45.3 19.3 45.3 17.9 44.35 17
L 44.35 17.05
Q 43.9 16.5 43.2 16.25 43.05 16.2 42.9 16.2 42.8 16.25 42.65 16.35
L 37.75 21.25
Q 37.6 21.4 37.6 21.6 37.6 21.7 37.6 21.75 37.6 21.9 37.6 22.05 37.5 22.9 36.85 23.55
L 32.65 27.8 32.6 27.8
Q 32.05 28.45 31.25 28.55
L 31.2 28.55
Q 31.15 28.55 31.1 28.55
L 31.05 28.55
Q 30.9 28.55 30.75 28.55 30.65 28.55 30.5 28.55 30.4 28.6 30.35 28.7
L 26.85 32.2
Q 26.25 32.8 25.3 32.8 25.25 32.8 25.2 32.8 25.15 32.8 25.05 32.8
L 24.95 32.8
Q 24 32.8 23.4 32.2
L 19.9 28.7
Q 19.75 28.55 19.55 28.55 19.35 28.55 19.15 28.55 19.1 28.55 19.05 28.55 18.25 28.45 17.6 27.8
L 13.4 23.55
Q 12.75 22.9 12.65 22.1
L 12.65 22.05
Q 12.65 21.9 12.65 21.75 12.65 21.7 12.65 21.6 12.65 21.4 12.5 21.25
L 7.6 16.35
Q 7.5 16.25 7.35 16.2 7.2 16.2 7.05 16.25 6.4 16.55 5.9 17
L 5.85 17.05
Q 4.95 17.95 4.95 19.3 4.95 20.65 5.9 21.6
L 9.45 25.15
Q 9.6 25.3 9.75 25.3 10.65 25.4 11.3 26.05
L 15.5 30.3 15.45 30.3
Q 16.05 30.9 16.15 31.7 16.15 31.9 16.3 32
L 22.95 38.65
Q 23.8 39.5 25 39.55
L 25.05 39.55
Q 25.15 39.55 25.2 39.55 26.45 39.5 27.3 38.65
L 33.95 32
Q 34.1 31.85 34.1 31.7 34.2 30.9 34.75 30.3
L 38.95 26.05
Q 39.6 25.4 40.5 25.3 40.65 25.3 40.8 25.15 Z"/>
</g>
</defs>

<g transform="matrix( 1, 0, 0, 1, 0,0) ">
<use xlink:href="#Layer0_0_FILL"/>
</g>
</svg>
