
<svg xmlns="http://www.w3.org/2000/svg" version="1.1" xmlns:xlink="http://www.w3.org/1999/xlink" preserveAspectRatio="none" x="0px" y="0px" width="50px" height="50px" viewBox="0 0 50 50">
<defs>
<g id="echo_0_Layer1_0_FILL">
<path fill="#000000" fill-opacity="0.00392156862745098" stroke="none" d="
M -3.05 -4.5
L -3.05 41.75 41.2 41.75 41.2 -4.5 -3.05 -4.5 Z"/>
</g>

<g id="echo_0_Layer0_0_FILL">
<path fill="#00CCCC" stroke="none" d="
M 43 19.8
Q 43 17.25 41.1 15.35 39.25 13.5 36.6 13.5 36.2 13.5 35.8 13.55 35.1 12.55 34.2 11.75
L 34.3 11.75
Q 30.8 8.2 25.75 8.2 23.85 8.2 22.2 8.75 21.85 8.35 21.45 7.95 16.9 3.4 10.55 3.4 4.1 3.4 -0.5 7.95 -5 12.55 -5 19 -5 25.4 -0.5 29.95 4.1 34.55 10.55 34.55 16.2 34.55 20.45 30.85 22.85 32.05 25.75 32.05 30.75 32.05 34.2 28.6 35.35 27.45 36.2 26.2 36.35 26.2 36.6 26.2 39.35 26.2 41.15 24.3
L 41.1 24.3
Q 43 22.4 43 19.8
M 23.8 10.9
Q 24.75 10.75 25.75 10.75 29.65 10.75 32.45 13.5
L 32.5 13.55
Q 32.95 13.95 33.35 14.45 32.7 14.85 32.2 15.35 30.35 17.25 30.35 19.8 30.35 22.4 32.2 24.3 32.85 25 33.65 25.45 33.15 26.15 32.45 26.85 29.75 29.55 25.75 29.55 23.95 29.55 22.4 29 26.05 24.75 26.05 19 26.05 14.5 23.8 10.9
M 37.05 16.1
Q 38.4 16.15 39.35 17.1 40.45 18.25 40.45 19.8 40.45 21.4 39.35 22.55 38.45 23.4 37.3 23.6 37.75 21.95 37.75 20.2 37.75 18 37.05 16.1
M 33.95 17.1
Q 34.2 16.85 34.6 16.65 35.25 18.25 35.25 20.2 35.25 21.8 34.8 23.15 34.35 22.9 33.95 22.55
L 34.05 22.55
Q 32.9 21.4 32.9 19.8 32.9 18.25 34.05 17.1
L 33.95 17.1
M 21.4 11.8
Q 23.55 14.95 23.55 19 23.55 24.05 20.15 27.7 19.55 27.25 19.05 26.85
L 19.15 26.85
Q 16.35 24.05 16.35 20.15 16.35 16.2 19.05 13.5 20.15 12.45 21.4 11.8
M 1.3 9.7
Q 5.15 5.95 10.55 5.95 15.9 5.95 19.7 9.7 19.75 9.8 19.8 9.85 18.5 10.6 17.3 11.75 13.8 15.2 13.8 20.15 13.8 25.05 17.3 28.6
L 17.35 28.65
Q 17.8 29.05 18.25 29.4 14.9 32 10.55 32 5.1 32 1.25 28.15
L 1.3 28.15
Q -2.45 24.35 -2.45 19 -2.45 13.65 1.25 9.8
L 1.3 9.7 Z"/>
</g>
</defs>

<g id="echo" transform="matrix( 1, 0, 0, 1, 5.55,6) ">
<g transform="matrix( 1, 0, 0, 1, 0,0) ">
<use xlink:href="#echo_0_Layer1_0_FILL"/>
</g>

<g transform="matrix( 1, 0, 0, 1, 0,0) ">
<use xlink:href="#echo_0_Layer0_0_FILL"/>
</g>
</g>
</svg>
