
<svg xmlns="http://www.w3.org/2000/svg" version="1.1" xmlns:xlink="http://www.w3.org/1999/xlink" preserveAspectRatio="none" x="0px" y="0px" width="50px" height="50px" viewBox="0 0 50 50">
<defs>
<g id="tweet_0_Layer0_0_FILL">
<path fill="#020202" stroke="none" d="
M 40.6 -2.25
L 4.35 -2.25
Q -0.65 -2.25 -0.65 2.75
L -0.65 31
Q -0.65 36 4.35 36
L 40.6 36
Q 45.6 36 45.6 31
L 45.6 2.75
Q 45.6 -2.25 40.6 -2.25
M 40.7 3.4
Q 40.7 3.65 40.6 3.9 40.45 4.2 40.1 4.45
L 40.1 4.4 23.85 16.3 23.9 16.3
Q 23.3904296875 16.6822265625 22.7 16.75 22.578125 16.75 22.45 16.75 21.6 16.75 21.05 16.3
L 4.55 4.2 4.55 4.25
Q 3.95 3.8 3.95 3.2
L 3.95 3.15
Q 4 2.55 4.55 2.15 4.95 1.9 5.4 1.8 5.6 1.75 5.85 1.75 5.9 1.75 5.95 1.75
L 38.75 1.75
Q 39.5236328125 1.765625 40.1 2.15
L 40.15 2.15
Q 40.7 2.6 40.7 3.2
L 40.7 3.4 Z"/>
</g>
</defs>

<g id="email" transform="matrix( 1, 0, 0, 1, 2.65,7.75) ">
<g transform="matrix( 1, 0, 0, 1, 0,0) ">
<use xlink:href="#tweet_0_Layer0_0_FILL"/>
</g>
</g>
</svg>
