
<svg xmlns="http://www.w3.org/2000/svg" version="1.1" xmlns:xlink="http://www.w3.org/1999/xlink" preserveAspectRatio="none" x="0px" y="0px" width="50px" height="50px" viewBox="0 0 50 50">
<defs>
<g id="Layer2_0_FILL">
<path fill="#999999" stroke="none" d="
M 33.55 24
Q 33.5470703125 20.4900390625 31.05 18 28.5599609375 15.5029296875 25.05 15.5 21.5400390625 15.5029296875 19.05 18 16.5529296875 20.4900390625 16.55 24 16.5529296875 27.5099609375 19.05 30 21.5400390625 32.4970703125 25.05 32.5 28.5599609375 32.4970703125 31.05 30 33.5470703125 27.5099609375 33.55 24
M 29.65 19.4
Q 31.553125 21.31015625 31.55 24 31.553125 26.68984375 29.65 28.6 27.73984375 30.503125 25.05 30.5 22.36015625 30.503125 20.45 28.6 18.546875 26.68984375 18.55 24 18.546875 21.31015625 20.45 19.4 22.36015625 17.496875 25.05 17.5 27.73984375 17.496875 29.65 19.4 Z"/>
</g>

<g id="Layer1_0_FILL">
<path fill="#999999" stroke="none" d="
M 24.5 28
Q 24.203515625 28.2892578125 24.2 28.7
L 24.2 37.65
Q 24.203515625 38.0607421875 24.5 38.35 24.7892578125 38.646484375 25.2 38.65 25.6107421875 38.646484375 25.9 38.35 26.196484375 38.0607421875 26.2 37.65
L 26.2 28.7
Q 26.196484375 28.2892578125 25.9 28 25.6107421875 27.703515625 25.2 27.7 24.7892578125 27.703515625 24.5 28
M 29.05 23.45
Q 28.753515625 23.7392578125 28.75 24.15 28.753515625 24.5607421875 29.05 24.85 29.3392578125 25.146484375 29.75 25.15
L 38.7 25.15
Q 39.1107421875 25.146484375 39.4 24.85 39.696484375 24.5607421875 39.7 24.15 39.696484375 23.7392578125 39.4 23.45 39.1107421875 23.153515625 38.7 23.15
L 29.75 23.15
Q 29.3392578125 23.153515625 29.05 23.45
M 21.15 24.6
Q 21.446484375 24.3107421875 21.45 23.9 21.446484375 23.4892578125 21.15 23.2 20.8607421875 22.903515625 20.45 22.9
L 11.5 22.9
Q 11.0892578125 22.903515625 10.8 23.2 10.503515625 23.4892578125 10.5 23.9 10.503515625 24.3107421875 10.8 24.6 11.0892578125 24.896484375 11.5 24.9
L 20.45 24.9
Q 20.8607421875 24.896484375 21.15 24.6
M 24.35 9.85
Q 24.053515625 10.1392578125 24.05 10.55
L 24.05 19.5
Q 24.053515625 19.9107421875 24.35 20.2 24.6392578125 20.496484375 25.05 20.5 25.4607421875 20.496484375 25.75 20.2 26.046484375 19.9107421875 26.05 19.5
L 26.05 10.55
Q 26.046484375 10.1392578125 25.75 9.85 25.4607421875 9.553515625 25.05 9.55 24.6392578125 9.553515625 24.35 9.85 Z"/>
</g>

<g id="Layer0_0_FILL">
<path fill="#FF9900" stroke="none" d="
M 26.65 25.55
Q 27.3 24.95 27.3 24.05 27.3 23.15 26.65 22.5 26.05 21.9 25.15 21.9 24.25 21.9 23.6 22.5 23 23.15 23 24.05 23 24.95 23.6 25.55 24.25 26.2 25.15 26.2 26.05 26.2 26.65 25.55 Z"/>
</g>
</defs>

<g transform="matrix( 1, 0, 0, 1, 0,0) ">
<use xlink:href="#Layer2_0_FILL"/>
</g>

<g transform="matrix( 1, 0, 0, 1, 0,0) ">
<use xlink:href="#Layer1_0_FILL"/>
</g>

<g transform="matrix( 1, 0, 0, 1, 0,0) ">
<use xlink:href="#Layer0_0_FILL"/>
</g>
</svg>
