
<svg xmlns="http://www.w3.org/2000/svg" version="1.1" xmlns:xlink="http://www.w3.org/1999/xlink" preserveAspectRatio="none" x="0px" y="0px" width="50px" height="50px" viewBox="0 0 50 50">
<defs>
<g id="Layer0_0_FILL">
<path fill="#000000" fill-opacity="0.9686274509803922" stroke="none" d="
M 1.75 19.4
Q 1.75 19.65 1.75 19.9 1.75 28.1 1.75 36.2 1.75 36.45 1.95 36.7 2.15 36.9 2.45 36.9 2.7 36.9 2.95 36.9 11.1 36.9 19.2 36.9 19.55 36.9 19.7 36.7 19.95 36.45 19.95 36.2 19.95 35.55 19.55 35.25 11.35 27.05 2.95 18.95 2.7 18.7 2.45 18.7 2.15 18.7 1.95 18.95 1.75 19.1 1.75 19.4
M 24.55 -1.1
Q 24.35 -0.95 24.35 -0.65 24.35 -0.05 24.75 0.25 32.9 8.5 41.35 16.65 41.6 16.8 41.85 16.8 42.15 16.8 42.3 16.65 42.55 16.4 42.55 16.15 42.55 15.85 42.55 15.65 42.55 7.5 42.55 -0.65 42.55 -0.95 42.3 -1.1 42.15 -1.35 41.85 -1.35 41.6 -1.35 41.35 -1.35 33.15 -1.35 25.05 -1.35 24.8 -1.35 24.55 -1.1 Z"/>
</g>
</defs>

<g transform="matrix( 1, 0, 0, 1, 2.85,7.4) ">
<g transform="matrix( 1, 0, 0, 1, 0,0) ">
<use xlink:href="#Layer0_0_FILL"/>
</g>
</g>
</svg>
