
<svg xmlns="http://www.w3.org/2000/svg" version="1.1" xmlns:xlink="http://www.w3.org/1999/xlink" preserveAspectRatio="none" x="0px" y="0px" width="50px" height="50px" viewBox="0 0 50 50">
<defs>
<g id="Layer0_0_FILL">
<path fill="#000000" stroke="none" d="
M 33.3 18.45
Q 34.55 18.45 35.4 17.55 36.3 16.7 36.3 15.45 36.3 14.2 35.4 13.3 34.55 12.45 33.3 12.45
L 17.8 12.45
Q 16.55 12.45 15.65 13.3 14.8 14.2 14.8 15.45 14.8 16.7 15.65 17.55 16.55 18.45 17.8 18.45
L 33.3 18.45
M 29.45 22.05
Q 28.65 22.9 28.65 24.1 28.65 25.3 29.45 26.1 30.3 26.95 31.5 26.95 32.7 26.95 33.5 26.1 34.35 25.3 34.35 24.1 34.35 22.9 33.5 22.05 32.7 21.25 31.5 21.25 30.3 21.25 29.45 22.05
M 22.7 24.1
Q 22.7 22.9 21.85 22.05 21.05 21.25 19.85 21.25 18.7 21.25 17.8 22.05 17 22.9 17 24.1 17 25.3 17.8 26.1 18.7 26.95 19.85 26.95 21.05 26.95 21.85 26.1 22.7 25.3 22.7 24.1
M 14.9 33.15
Q 14.9 34.4 15.75 35.25 16.65 36.15 17.9 36.15
L 33.4 36.15
Q 34.65 36.15 35.5 35.25 36.4 34.4 36.4 33.15 36.4 31.9 35.5 31 34.65 30.15 33.4 30.15
L 17.9 30.15
Q 16.65 30.15 15.75 31 14.9 31.9 14.9 33.15 Z"/>
</g>

<path id="Layer0_0_1_STROKES" stroke="#000000" stroke-width="4" stroke-linejoin="round" stroke-linecap="round" fill="none" d="
M 5.45 5.85
L 44.95 5.85 44.95 43.65 5.45 43.65 5.45 5.85 Z"/>
</defs>

<g transform="matrix( 1, 0, 0, 1, 0,0) ">
<use xlink:href="#Layer0_0_FILL"/>

<use xlink:href="#Layer0_0_1_STROKES"/>
</g>
</svg>
