
<svg xmlns="http://www.w3.org/2000/svg" version="1.1" xmlns:xlink="http://www.w3.org/1999/xlink" preserveAspectRatio="none" x="0px" y="0px" width="100px" height="100px" viewBox="0 0 100 100">
<defs>
<g id="game_0_Layer1_0_FILL">
<path fill="#FFFFFF" stroke="none" d="
M 46.5 -39.75
Q 46.5 -44.75 41.5 -44.75
L -39.75 -44.75
Q -44.75 -44.75 -44.75 -39.75
L -44.75 41.5
Q -44.75 46.5 -39.75 46.5
L 41.5 46.5
Q 46.5 46.5 46.5 41.5
L 46.5 -39.75 Z"/>
</g>

<g id="game_icon_0_Layer0_0_FILL">
<path fill="#000000" fill-opacity="0.3764705882352941" stroke="none" d="
M -19.1 27.2
Q -19.5 27.55 -19.75 27.8 -19.95 27.95 -20.1 28.1
L -19.85 28.2
Q -18.7 27.8 -19.1 27.2
M 12 -7.15
Q 11.5 -6.75 10.95 -6.25 10.8 -6.1 10.65 -5.95 10.8 -5.75 10.95 -5.7 11.1 -5.85 11.35 -6 11.75 -6.5 12.3 -6.9 12.05 -7.1 12 -7.15 Z"/>

<path fill="#000000" fill-opacity="0.4745098039215686" stroke="none" d="
M -23.85 26.25
Q -24.4 26.8 -25.05 27.45 -25.25 27.6 -25.4 27.8 -25.15 27.95 -25.05 28.1 -24.8 27.95 -24.65 27.8 -23.6 26.95 -23.85 26.25
M 12 -12.9
Q 11.75 -12.65 11.55 -12.55 11.5 -12.45 11.35 -12.2 11.4 -12.05 11.65 -11.9 11.75 -12.05 12 -12.2 12.15 -12.4 12.3 -12.55 12.05 -12.7 12 -12.9 Z"/>

<path fill="#000000" fill-opacity="0.47843137254901963" stroke="none" d="
M -23.25 25.55
Q -23 25.4 -23 25.25 -22.85 25 -22.85 24.65 -23.15 25 -23.25 25.4 -23.35 25.4 -23.25 25.55 Z"/>

<path fill="#000000" fill-opacity="0.6901960784313725" stroke="none" d="
M -22.2 24.1
Q -22.1 23.9 -22 23.7 -22 23.45 -21.95 23.15 -22.25 23.45 -22.45 23.8 -22.45 23.9 -22.2 24.1
M 34.95 -21.7
Q 34.85 -21.85 34.6 -21.95 34.45 -22.1 34.35 -22.25 34.2 -22.1 34 -21.95 34.1 -21.85 34.35 -21.75 34.7 -21.6 34.95 -21.7 Z"/>

<path fill="#000000" fill-opacity="0.6666666666666666" stroke="none" d="
M -21.4 22.5
Q -21.3 22.25 -21.3 21.9 -21.6 22.25 -21.8 22.55 -21.8 22.75 -21.6 22.9 -21.55 22.75 -21.4 22.5 Z"/>

<path fill="#000000" fill-opacity="0.5843137254901961" stroke="none" d="
M -21.15 21.25
Q -21.15 21.5 -21.1 21.6 -20.9 21.5 -20.75 21.25 -20.75 20.9 -20.75 20.65 -21 20.9 -21.15 21.25 Z"/>

<path fill="#000000" fill-opacity="0.07058823529411765" stroke="none" d="
M -9.15 12.8
Q -9.3 12.95 -9.5 13.1 -9.65 13.3 -9.75 13.5 -9.65 13.65 -9.55 13.55 -9.15 13.5 -8.9 13.1 -9 12.95 -9.15 12.8
M -9.8 9
Q -9.65 8.9 -9.5 8.85 -9.65 8.6 -9.8 8.4 -9.95 8.6 -10.15 8.75 -10.3 8.85 -10.45 9.1 -10.3 9.25 -10.15 9.4 -9.95 9.25 -9.8 9 Z"/>

<path fill="#000000" fill-opacity="0.17254901960784313" stroke="none" d="
M -8.6 12.85
Q -8.5 12.6 -8.25 12.45 -8.4 12.3 -8.6 12.2 -8.65 12.3 -8.9 12.45 -9.05 12.7 -9.15 12.8 -9 12.95 -8.9 13.1 -8.75 12.95 -8.6 12.85 Z"/>

<path fill="#000000" fill-opacity="0.48627450980392156" stroke="none" d="
M -18.05 22.55
Q -18.05 22.75 -17.85 22.8 -17.7 22.75 -17.7 22.5 -17.55 22.25 -17.6 21.9 -17.85 22.15 -18.05 22.55 Z"/>

<path fill="#000000" fill-opacity="0.7764705882352941" stroke="none" d="
M -20.1 19.45
Q -19.95 19.6 -19.75 19.7 -19.6 19.5 -19.5 19.45 -19.5 19.1 -19.5 18.8 -19.7 18.95 -19.75 19.05 -19.95 19.2 -20.1 19.45 Z"/>

<path fill="#000000" fill-opacity="0.396078431372549" stroke="none" d="
M -20.1 20
Q -19.95 19.85 -19.75 19.7 -19.95 19.6 -20.1 19.45 -20.4 19.7 -20.5 20 -20.6 20.2 -20.35 20.35 -20.15 20.2 -20.1 20 Z"/>

<path fill="#000000" fill-opacity="0.6352941176470588" stroke="none" d="
M -16.65 20.25
Q -16.95 20.65 -17.05 20.9 -17.15 21.1 -17.05 21.25 -16.9 21.1 -16.7 21 -16.55 20.75 -16.4 20.65 -16.45 20.45 -16.65 20.25 Z"/>

<path fill="#000000" fill-opacity="0.1411764705882353" stroke="none" d="
M -15.45 19.05
Q -15.45 19.3 -15.6 19.35 -15.85 19.5 -15.95 19.7 -15.85 19.85 -15.7 20 -15.55 19.85 -15.45 19.7 -15.35 19.45 -15.45 19.05 Z"/>

<path fill="#000000" fill-opacity="0.3607843137254902" stroke="none" d="
M -15.95 19.7
Q -16.15 19.85 -16.3 20 -16.45 20.2 -16.65 20.25 -16.45 20.45 -16.4 20.65 -16.25 20.45 -16 20.25 -15.85 20.2 -15.7 20 -15.85 19.85 -15.95 19.7 Z"/>

<path fill="#000000" fill-opacity="0.5411764705882353" stroke="none" d="
M -16.7 15.95
Q -16.8 15.8 -17.05 15.6 -17.3 15.95 -17.7 16.2 -17.8 16.35 -17.95 16.5 -17.8 16.7 -17.6 16.75 -17.45 16.7 -17.3 16.6 -17.05 16.2 -16.7 15.95
M 19 -14.5
Q 19.2 -14.55 19.35 -14.75 19.25 -14.9 19 -15 18.95 -14.9 18.7 -14.8 18.6 -14.55 18.45 -14.5 18.7 -14.3 18.75 -14.15 18.95 -14.3 19 -14.5 Z"/>

<path fill="#000000" fill-opacity="0.6745098039215687" stroke="none" d="
M -17.05 15.6
Q -16.8 15.8 -16.7 15.95 -16.45 15.8 -16.4 15.6 -14.8 14.15 -13.3 12.45 -13.4 12.3 -13.65 12.1 -15.1 13.8 -16.7 15.3 -16.9 15.45 -17.05 15.6 Z"/>

<path fill="#000000" fill-opacity="0.21176470588235294" stroke="none" d="
M -18.55 17.75
Q -18.35 17.6 -18.2 17.5 -18.35 17.35 -18.55 17.2 -18.95 17.45 -19 17.75 -19 17.9 -18.85 18.1 -18.7 18 -18.55 17.75 Z"/>

<path fill="#000000" fill-opacity="0.4117647058823529" stroke="none" d="
M -17.95 16.5
Q -18.1 16.7 -18.3 16.85 -18.35 16.95 -18.55 17.2 -18.35 17.35 -18.2 17.5 -18.1 17.25 -17.85 17.2 -17.7 17 -17.6 16.75 -17.8 16.7 -17.95 16.5 Z"/>

<path fill="#000000" fill-opacity="0.8274509803921568" stroke="none" d="
M -13.8 17.45
Q -14.05 17.25 -14.15 17.2 -14.8 17.75 -15.2 18.5 -15.2 18.6 -15.05 18.8 -14.85 18.6 -14.8 18.4 -14.3 17.9 -13.8 17.45 Z"/>

<path fill="#000000" fill-opacity="0.7647058823529411" stroke="none" d="
M -13.8 17.45
Q -13.65 17.35 -13.55 17.2 -13 16.5 -12.3 15.95 -12.5 15.8 -12.65 15.55 -13.3 16.2 -13.8 16.85 -13.95 16.95 -14.15 17.2 -14.05 17.25 -13.8 17.45 Z"/>

<path fill="#000000" fill-opacity="0.8156862745098039" stroke="none" d="
M -11.1 14.65
Q -11.35 14.55 -11.4 14.4 -11.85 14.8 -12.3 15.3 -12.5 15.45 -12.65 15.55 -12.5 15.8 -12.3 15.95 -12.15 15.8 -12 15.55 -11.5 15.1 -11.1 14.65
M -5.85 9.35
Q -5.85 9.55 -6.05 9.65 -5.95 9.8 -5.8 10.05 -5.6 9.8 -5.55 9.65 -5.35 9.5 -5.2 9.4 -5.35 9.25 -5.45 9.1 -5.6 9.25 -5.85 9.35 Z"/>

<path fill="#000000" fill-opacity="0.9019607843137255" stroke="none" d="
M -10.4 14.15
Q -10.65 13.9 -10.75 13.75 -10.9 13.9 -11.1 14.15 -11.25 14.2 -11.4 14.4 -11.35 14.55 -11.1 14.65 -10.9 14.55 -10.75 14.4 -10.55 14.2 -10.4 14.15 Z"/>

<path fill="#000000" fill-opacity="0.49411764705882355" stroke="none" d="
M -12.4 10.95
Q -12.55 11.05 -12.65 11.2 -12.8 11.45 -13 11.55 -12.8 11.7 -12.65 11.9 -12.5 11.7 -12.4 11.55 -12.15 11.4 -12 11.2 -12.15 11.05 -12.4 10.95 Z"/>

<path fill="#000000" fill-opacity="0.4" stroke="none" d="
M -11.75 10.25
Q -11.9 10.5 -12 10.65 -12.15 10.7 -12.4 10.95 -12.15 11.05 -12 11.2 -11.9 11.05 -11.75 10.9 -11.6 10.8 -11.35 10.65 -11.6 10.5 -11.75 10.25 Z"/>

<path fill="#000000" fill-opacity="0.2823529411764706" stroke="none" d="
M -10.75 10
Q -10.9 9.8 -11.15 9.65 -11.35 9.8 -11.5 10.05 -11.6 10.15 -11.75 10.25 -11.6 10.5 -11.35 10.65 -11.35 10.5 -11.15 10.3 -10.9 10.15 -10.75 10 Z"/>

<path fill="#000000" fill-opacity="0.17647058823529413" stroke="none" d="
M -10.45 9.65
Q -10.3 9.5 -10.15 9.4 -10.3 9.25 -10.45 9.1 -10.65 9.25 -10.85 9.35 -10.9 9.55 -11.15 9.65 -10.9 9.8 -10.75 10 -10.65 9.8 -10.45 9.65 Z"/>

<path fill="#000000" fill-opacity="0.5725490196078431" stroke="none" d="
M -13 11.55
Q -13.2 11.65 -13.3 11.9 -13.45 12.05 -13.65 12.1 -13.4 12.3 -13.3 12.45 -13.15 12.35 -13 12.2 -12.8 12.05 -12.65 11.9 -12.8 11.7 -13 11.55 Z"/>

<path fill="#000000" fill-opacity="0.10196078431372549" stroke="none" d="
M -4.25 8.4
Q -4.1 8.6 -4 8.6 -3.6 8.4 -3.25 8.1 -3.45 7.95 -3.6 7.75 -3.75 8 -3.95 8.1 -4.1 8.25 -4.25 8.4 Z"/>

<path fill="#000000" fill-opacity="0.23529411764705882" stroke="none" d="
M -2.6 7.5
Q -2.8 7.3 -2.95 7.15 -3.2 7.3 -3.35 7.5 -3.45 7.55 -3.6 7.75 -3.45 7.95 -3.25 8.1 -3.2 8 -2.95 7.75 -2.8 7.55 -2.6 7.5 Z"/>

<path fill="#000000" fill-opacity="0.3803921568627451" stroke="none" d="
M -2.05 6.8
Q -2.2 6.75 -2.35 6.55 -2.55 6.65 -2.7 6.8 -2.8 7 -2.95 7.15 -2.8 7.3 -2.6 7.5 -2.55 7.3 -2.35 7.15 -2.1 7 -2.05 6.8
M 9.15 -3.85
Q 9 -3.95 8.8 -4.1 8.1 -3.3 7.25 -2.5 7.1 -2.45 7 -2.2 7.1 -2 7.25 -1.95 7.5 -2.1 7.65 -2.25 8.4 -3 9.15 -3.85
M 1.7 -1.85
Q 1.55 -1.8 1.45 -1.6 1.55 -1.45 1.6 -1.3 1.8 -1.45 1.95 -1.55 2.55 -2.2 3.2 -2.85 3 -3 2.95 -3.2 2.3 -2.5 1.7 -1.85 Z"/>

<path fill="#000000" fill-opacity="0.5490196078431373" stroke="none" d="
M -6.7 10.25
Q -6.85 10.5 -6.95 10.65 -7.1 10.7 -7.25 10.95 -7.1 11.05 -7 11.2 -6.85 11.05 -6.7 10.95 -6.6 10.8 -6.45 10.65 -6.6 10.5 -6.7 10.25 Z"/>

<path fill="#000000" fill-opacity="0.6980392156862745" stroke="none" d="
M -5.8 10.05
Q -5.95 9.8 -6.05 9.65 -6.25 9.8 -6.35 10.05 -6.5 10.15 -6.7 10.25 -6.6 10.5 -6.45 10.65 -6.25 10.5 -6.1 10.3 -5.95 10.15 -5.8 10.05 Z"/>

<path fill="#000000" fill-opacity="0.4235294117647059" stroke="none" d="
M -7.9 11.55
Q -7.75 11.7 -7.65 11.9 -7.5 11.65 -7.35 11.55 -7.2 11.45 -7 11.2 -7.1 11.05 -7.25 10.95 -7.45 11.05 -7.6 11.2 -7.75 11.4 -7.9 11.55 Z"/>

<path fill="#000000" fill-opacity="0.2901960784313726" stroke="none" d="
M -7.9 11.55
Q -8.1 11.65 -8.25 11.9 -8.4 12.05 -8.6 12.2 -8.4 12.3 -8.25 12.45 -8.1 12.35 -7.9 12.1 -7.85 12.05 -7.65 11.9 -7.75 11.7 -7.9 11.55
M 26.05 -15.95
Q 25.9 -16.4 25.65 -16.6 25.65 -16.2 25.8 -16.05 25.8 -15.9 25.95 -15.7 26.05 -15.8 26.05 -15.95 Z"/>

<path fill="#000000" fill-opacity="0.8941176470588236" stroke="none" d="
M -9.15 8.4
Q -9.05 8.6 -8.9 8.5 -8.6 8.4 -8.25 8.15 -8.5 8 -8.6 7.85 -8.75 8 -8.9 8.1 -9.05 8.35 -9.15 8.4
M 17.3 -12.55
Q 17.1 -12.7 16.9 -12.9 16.7 -12.55 16.45 -12.15 16.5 -12.05 16.7 -11.9 16.9 -12.05 16.95 -12.2 17.1 -12.4 17.3 -12.55 Z"/>

<path fill="#000000" fill-opacity="0.7725490196078432" stroke="none" d="
M -7.9 7.15
Q -8.1 7.4 -8.25 7.5 -8.4 7.55 -8.6 7.85 -8.5 8 -8.25 8.15 -8.1 8 -7.9 7.75 -7.75 7.65 -7.65 7.5 -7.85 7.3 -7.9 7.15 Z"/>

<path fill="#000000" fill-opacity="0.9294117647058824" stroke="none" d="
M -5.2 8.75
Q -5.3 8.85 -5.45 9.1 -5.35 9.25 -5.2 9.4 -5 9.25 -4.85 9 -4.65 8.9 -4.6 8.75 -4.75 8.6 -4.85 8.4 -5 8.6 -5.2 8.75 Z"/>

<path fill="#000000" fill-opacity="0.6549019607843137" stroke="none" d="
M -7 6.8
Q -7.2 6.75 -7.25 6.55 -7.5 6.65 -7.65 6.8 -7.85 7 -7.9 7.15 -7.85 7.3 -7.65 7.5 -7.5 7.3 -7.25 7.15 -7.1 7 -7 6.8 Z"/>

<path fill="#000000" fill-opacity="0.3215686274509804" stroke="none" d="
M -5.2 5
Q -5.35 4.85 -5.55 4.7 -5.6 4.85 -5.85 5 -6.05 5.15 -6.2 5.35 -6.05 5.4 -5.85 5.5 -5.6 5.4 -5.45 5.35 -5.35 5.1 -5.2 5 Z"/>

<path fill="#000000" fill-opacity="0.5294117647058824" stroke="none" d="
M -6.7 5.9
Q -6.85 6.1 -7.1 6.15 -7.2 6.3 -7.25 6.55 -7.2 6.75 -7 6.8 -6.85 6.75 -6.7 6.55 -6.5 6.3 -6.45 6.25 -6.6 6.1 -6.7 5.9
M 15.6 -17.85
Q 15.85 -17.95 15.85 -18.2 16 -18.5 15.95 -18.75 15.6 -18.45 15.5 -18.1 15.45 -18 15.6 -17.85 Z"/>

<path fill="#000000" fill-opacity="0.40784313725490196" stroke="none" d="
M -6.45 5.6
Q -6.6 5.75 -6.7 5.9 -6.6 6.1 -6.45 6.25 -6.25 6.1 -6.1 5.9 -6.05 5.75 -5.85 5.5 -6.05 5.4 -6.2 5.35 -6.25 5.4 -6.45 5.6 Z"/>

<path fill="#000000" fill-opacity="0.49019607843137253" stroke="none" d="
M -1.45 6.15
Q -1.55 6 -1.7 5.9 -1.95 6.1 -2.1 6.15 -2.3 6.3 -2.35 6.55 -2.2 6.75 -2.05 6.8 -1.95 6.65 -1.7 6.55 -1.55 6.3 -1.45 6.15 Z"/>

<path fill="#000000" fill-opacity="0.6078431372549019" stroke="none" d="
M -1.45 5.6
Q -1.65 5.75 -1.7 5.9 -1.55 6 -1.45 6.15 -1.3 6.1 -1.15 5.9 -0.95 5.75 -0.8 5.6 -0.65 5.4 -0.5 5.25 -0.65 5.1 -0.8 4.95 -0.95 5.1 -1.05 5.15 -1.2 5.35 -1.45 5.6 Z"/>

<path fill="#000000" fill-opacity="0.25098039215686274" stroke="none" d="
M -4.6 4.45
Q -4.75 4.25 -4.9 4.1 -5 4.25 -5.2 4.35 -5.35 4.5 -5.55 4.7 -5.35 4.85 -5.2 5 -5 4.95 -4.85 4.7 -4.65 4.5 -4.6 4.45
M 33.45 -22.6
Q 33.6 -22.75 33.7 -22.9 33.6 -23.1 33.45 -23.25 32.6 -24 31.85 -24.8 31.7 -24.55 31.6 -24.5 32.25 -23.65 33.1 -22.9 33.2 -22.75 33.45 -22.6
M 22.5 -30.25
Q 22.2 -30.05 21.8 -29.7 21.65 -29.55 21.55 -29.35 21.65 -29.3 21.8 -29.1 22 -29.2 22.2 -29.45 22.5 -29.7 22.85 -30.05 22.6 -30.25 22.5 -30.25 Z"/>

<path fill="#000000" fill-opacity="0.19215686274509805" stroke="none" d="
M -4.9 4.1
Q -4.75 4.25 -4.6 4.45 -4.4 4.2 -4.25 4.1 -4.1 3.95 -3.95 3.7 -4.2 3.6 -4.25 3.45 -4.4 3.6 -4.6 3.75 -4.75 3.95 -4.9 4.1 Z"/>

<path fill="#000000" fill-opacity="0.13333333333333333" stroke="none" d="
M -3.6 2.85
L -3.7 2.85
Q -3.75 3.05 -3.95 3.1 -4.1 3.3 -4.25 3.45 -4.2 3.6 -3.95 3.7 -3.75 3.6 -3.6 3.55 -3.45 3.3 -3.25 3.1 -3.5 2.95 -3.6 2.85 Z"/>

<path fill="#000000" fill-opacity="0.8784313725490196" stroke="none" d="
M -1.45 1.85
Q -1.65 1.7 -1.7 1.6 -1.95 1.7 -2.05 1.85 -2.2 2 -2.35 2.15 -2.2 2.4 -2.1 2.3 -1.8 2.15 -1.45 1.85
M 9.7 -10
Q 9.9 -9.85 10.05 -9.65 10.15 -9.9 10.3 -10.1 10.3 -10.35 10.3 -10.65 10.15 -10.5 10.05 -10.35 9.9 -10.25 9.7 -10 Z"/>

<path fill="#000000" fill-opacity="0.8117647058823529" stroke="none" d="
M -1.15 1.5
Q -0.95 1.45 -0.8 1.25 -0.95 1.1 -1.15 0.95 -1.3 1.1 -1.4 1.2 -1.55 1.45 -1.7 1.6 -1.65 1.7 -1.45 1.85 -1.3 1.75 -1.15 1.5 Z"/>

<path fill="#221E1F" stroke="none" d="
M -0.65 0.35
L -0.65 0.45 -0.55 0.35 -0.65 0.35
M -18.2 -10.65
L -18.2 -10.6 -18.1 -10.6 -18.1 -10.65 -18.2 -10.65
M -15.3 -22.65
L -15.3 -22.6 -15.2 -22.65 -15.2 -22.75 -15.3 -22.65
M -15.85 -24.7
Q -15.95 -24.7 -16 -24.7
L -16 -24.65 -15.85 -24.7
M -30.35 -8.3
L -30.35 -8.15 -30.3 -8.25 -30.35 -8.3
M -25.05 -12.2
L -25.15 -12 -25.05 -12.05 -25.05 -12.2
M -33.95 -1.8
L -33.95 -1.7 -33.85 -1.7 -33.85 -1.8 -33.95 -1.8
M -32.65 -4.45
L -32.65 -4.3 -32.45 -4.3 -32.65 -4.45
M -31.6 -4.8
L -31.6 -4.85 -31.7 -4.85
Q -31.6 -4.8533203125 -31.6 -4.95
L -31.7 -4.95
Q -31.75 -4.95 -31.85 -5.05
L -32 -4.95
Q -32 -5.05 -32 -5.1
L -32.2 -5.1 -32.2 -5.05
Q -32.2 -4.95 -32.25 -4.95
L -32.35 -4.85
Q -32.45 -4.85 -32.35 -4.8
L -32.35 -4.7
Q -32.25 -4.55 -32.45 -4.55
L -32.45 -4.3
Q -32.65 -4.1 -32.7 -4.1
L -32.8 -4.1 -32.8 -4.05 -32.7 -4.05
Q -32.55 -3.95 -32.7 -3.95
L -32.7 -3.85 -32.9 -3.85 -32.9 -3.8
Q -32.8 -3.7 -32.9 -3.65
L -32.95 -3.65 -33.05 -3.55 -33.05 -3.45 -33.15 -3.4 -33.05 -3.4
Q -32.9 -3.3 -33.2 -3.3
L -33.2 -2.95 -33.3 -2.95 -33.3 -2.75 -33.35 -2.6 -33.35 -2.5
Q -33.45 -2.5 -33.45 -2.45 -33.45 -2.35 -33.55 -2.45
L -33.6 -2.45 -33.6 -2.35
Q -33.6 -2.25 -33.6 -2.2 -33.55 -2.2 -33.6 -2.1
L -33.7 -2.1 -33.7 -2 -33.6 -2
Q -33.45 -2 -33.6 -1.95 -33.7 -1.85 -33.8 -1.85
L -33.85 -1.85 -33.8 -1.8
Q -33.7 -1.7 -33.85 -1.7 -33.85 -1.6 -33.85 -1.55
L -33.95 -1.6 -34.05 -1.6 -33.95 -1.45 -34.05 -1.35 -34.05 -1.3 -34.1 -1.3
Q -34.1 -1.2 -34.2 -1.2 -34.05 -1.1 -34.3 -1.05
L -34.2 -1.05
Q -34.1 -0.85 -34.2 -0.8 -34.2 -0.95 -34.3 -1.05
L -34.35 -1.05 -34.3 -0.85 -34.35 -0.8 -34.3 -0.8
Q -34.3 -0.7 -34.35 -0.65
L -34.45 -0.65 -34.45 -0.55
Q -34.35 -0.4 -34.45 -0.4 -34.5 -0.4 -34.6 -0.4
L -34.6 -0.3
Q -34.5 -0.2 -34.6 -0.2
L -34.7 -0.15
Q -34.5 -0.05 -34.7 -0.05
L -34.7 0.05 -34.75 0.05 -34.75 -0.15 -34.85 -0.15 -34.85 -0.05
Q -34.75 0.05 -34.85 0.05 -34.85 0.1 -34.85 0.2
L -34.95 0.2
Q -34.85 0.3 -35 0.3
L -35 0.35
Q -34.95 0.35 -34.95 0.45
L -35.1 0.45 -35.1 0.6
Q -34.95 0.6 -35.1 0.7
L -35.2 0.6 -35.2 0.7
Q -35.2 0.75 -35.25 0.75
L -35.25 0.95
Q -35.35 0.95 -35.35 1
L -35.45 1 -35.45 1.1 -35.35 1.2 -35.45 1.2 -35.45 1.45 -35.6 1.45 -35.6 1.5
Q -35.5 1.6 -35.6 1.7 -35.5 1.75 -35.7 1.85
L -35.7 2
Q -35.7 2.1 -35.75 2.1
L -35.75 2.15
Q -35.7 2.3 -35.85 2.3
L -35.9 2.4 -35.9 2.3 -36 2.4 -36.1 2.4 -36.1 2.45 -36 2.45
Q -35.9 2.55 -36.1 2.6
L -36 2.8
Q -36 2.85 -36.1 2.85
L -36.1 2.95
Q -36.1 3.0966796875 -36.25 3.1
L -36.15 3.1
Q -36.25 3.2 -36.35 3.2
L -36.35 3.1 -36.5 3.1 -36.4 3.35 -36.35 3.35
Q -36.25 3.35 -36.35 3.55
L -36.25 3.55 -36.25 3.35
Q -36.25 3.3 -36.1 3.35
L -36.1 3.2 -35.9 3.05 -35.7 3.1 -35.7 2.85
Q -35.7 2.8 -35.6 2.8
L -35.7 2.7 -35.6 2.7 -35.5 2.6
Q -35.5 2.55 -35.5 2.45
L -35.45 2.45 -35.45 2.4 -35.5 2.4
Q -35.45 2.3 -35.35 2.3 -35.35 2.15 -35.25 2.15
L -35.35 2.1 -35.25 2.1 -35.25 1.9 -35.2 1.85
Q -35.2 1.6 -35.1 1.85
L -35.1 1.9
Q -35 1.9 -35 1.85
L -34.95 1.85 -34.95 1.7
Q -34.85 1.7 -34.85 1.6
L -34.85 1.45 -34.7 1.45 -34.7 1.2 -34.6 1.2
Q -34.6 1.1 -34.5 1.1
L -34.6 1
Q -34.6 0.95 -34.6 0.85
L -34.5 0.85
Q -34.45 0.95 -34.45 0.85
L -34.35 0.85 -34.35 0.75
Q -34.35 0.7 -34.3 0.7
L -34.3 0.6
Q -34.3 0.55 -34.3 0.45
L -34.3 0.3
Q -34.3 0.2 -34.2 0.2 -34.1 0.05 -34.1 0.2
L -34.05 0.2 -34.05 0.05 -33.95 0.05 -34.05 -0.05 -33.95 -0.05
Q -34.05 -0.2 -33.85 -0.15
L -33.85 -0.2 -33.8 -0.15 -33.8 -0.2 -33.7 -0.2 -33.7 -0.3
Q -33.6 -0.3 -33.6 -0.4
L -33.6 -0.45 -33.55 -0.55 -33.6 -0.55 -33.6 -0.65
Q -33.6 -0.8 -33.55 -0.65
L -33.45 -0.65 -33.45 -0.8 -33.35 -0.95 -33.3 -0.95 -33.3 -1.05 -33.35 -1.2 -33.3 -1.2 -33.2 -1.3
Q -33.2 -1.45 -33.15 -1.35
L -33.05 -1.3 -33.05 -1.6
Q -33.05 -1.8 -33.05 -1.85
L -32.95 -1.85
Q -32.95 -1.95 -32.9 -1.95 -32.9 -2 -32.8 -2
L -32.8 -2.1 -32.7 -2.1 -32.65 -2 -32.65 -2.2 -32.55 -2.2
Q -32.55 -2.35 -32.55 -2.45
L -32.45 -2.35 -32.45 -2.45
Q -32.55 -2.6 -32.45 -2.6
L -32.35 -2.6
Q -32.25 -2.7 -32.2 -2.7
L -32.2 -3 -32.1 -3 -32.1 -3.1 -32.2 -3.1 -32.2 -3.2 -32.1 -3.2
Q -32.1 -3.4 -32 -3.3
L -32 -3.45
Q -31.95 -3.55 -31.85 -3.7
L -31.75 -3.65
Q -31.75 -3.8 -31.95 -3.7
L -31.85 -3.8
Q -31.75 -3.85 -31.7 -3.7
L -31.7 -3.8
Q -31.6 -3.8 -31.6 -3.85
L -31.6 -4.1 -31.85 -4.1 -31.75 -4.3 -31.7 -4.3
Q -31.6 -4.35 -31.7 -4.55
L -31.7 -4.6 -31.75 -4.6 -31.75 -4.7 -31.7 -4.8 -31.6 -4.8
M -32.65 -2.45
L -32.65 -2.35 -32.7 -2.2 -32.7 -2.25 -32.8 -2.25
Q -32.9 -2.45 -32.65 -2.45
M -30.95 -5.6
L -30.85 -5.7 -30.95 -5.7 -30.95 -5.6
M -27.1 -13.45
L -27.1 -13.35 -27 -13.45 -27.1 -13.45
M -15.2 -25.25
L -15.3 -25.25 -15.3 -25.15
Q -15.35 -25.15 -15.45 -25.15
L -15.55 -25.1 -15.6 -25.1 -15.55 -24.9 -15.6 -25 -15.6 -24.9 -15.7 -24.9 -15.7 -24.8
Q -15.85 -24.8 -15.85 -24.7 -15.85 -24.55 -15.95 -24.55
L -15.95 -24.5
Q -15.85 -24.5 -16 -24.3
L -16 -24.4
Q -16.15 -24.3 -16.25 -24.3
L -16.15 -24.4 -16.25 -24.4 -16.3 -24.3
Q -16.3 -24.15 -16.45 -24.25
L -16.45 -24.15
Q -16.4533203125 -24.25 -16.55 -24.25
L -16.55 -24.05 -16.45 -24.05
Q -16.45 -24 -16.7 -24.05
L -16.8 -24 -16.9 -24 -16.9 -23.9
Q -16.9 -23.8 -17.05 -23.9
L -17.15 -23.9 -17.05 -23.75 -17.3 -23.75 -17.3 -23.65 -17.4 -23.55
Q -17.4 -23.5 -17.45 -23.5
L -17.45 -23.4 -17.6 -23.4 -17.6 -23.3
Q -17.6966796875 -23.3 -17.7 -23.4
L -17.7 -23.3 -17.8 -23.3 -17.7 -23.15 -17.95 -23.1 -17.85 -23.1 -17.85 -23 -17.95 -23 -18.05 -22.9 -18.3 -22.9 -18.3 -22.85 -18.2 -22.85
Q -18.1 -22.75 -18.2 -22.65
L -18.45 -22.65 -18.35 -22.5 -18.3 -22.5
Q -18.2 -22.5 -18.1 -22.5
L -18.1 -22.6
Q -18.05 -22.65 -18.05 -22.5
L -17.95 -22.5
Q -17.95 -22.4 -17.85 -22.35
L -17.85 -22.25
Q -17.7 -22.1 -17.85 -21.95
L -17.85 -21.85 -17.95 -21.85 -17.95 -21.95 -18.1 -21.95
Q -18.1 -22.1 -18.2 -22.25
L -18.3 -22.15
Q -18.35 -22.25 -18.45 -22.25
L -18.55 -22.25
Q -18.35 -22.4 -18.55 -22.5
L -18.55 -22.4 -18.7 -22.4
Q -18.6 -22.25 -18.7 -22.25
L -18.75 -22.15 -18.95 -22.15 -18.95 -22.1 -18.85 -22.1
Q -18.75 -22.15 -18.7 -22.1 -18.6 -21.85 -18.7 -21.75
L -18.55 -21.85 -18.3 -21.85
Q -18.2 -21.5 -18.3 -21.5
L -18.35 -21.5
Q -18.55 -21.5 -18.6 -21.45
L -18.75 -21.45 -18.7 -21.5
Q -18.75 -21.5 -18.75 -21.6
L -18.95 -21.6 -18.95 -21.7 -19 -21.75
Q -18.95 -21.75 -19 -21.85
L -19.1 -21.85
Q -19.1 -21.7 -19.25 -21.7
L -19.25 -21.75 -19.45 -21.75 -19.45 -21.7 -19.5 -21.7 -19.45 -21.5 -19.5 -21.45 -19.5 -21.5
Q -19.6 -21.45 -19.7 -21.45
L -19.7 -21.35 -19.85 -21.45 -19.85 -21.35 -19.75 -21.35 -19.75 -21.25 -19.85 -21.25 -19.85 -21.2
Q -19.85 -21.1 -19.95 -21.1
L -19.95 -21 -20 -21 -20 -21.1 -20.1 -21.1 -20.1 -21 -20.15 -20.95 -20.25 -20.95 -20.25 -20.7
Q -20.35 -20.6 -20.5 -20.6
L -20.5 -20.55 -20.65 -20.55 -20.65 -20.45 -20.75 -20.45 -20.75 -20.55 -20.85 -20.55 -20.85 -20.6 -20.9 -20.6 -21.1 -20.55
Q -21 -20.7 -20.9 -20.7
L -20.9 -20.75 -21 -20.75 -21 -20.85 -21.25 -20.85 -21.25 -20.95 -21.3 -20.95 -21.3 -21 -21.55 -21
Q -21.6 -20.95 -21.7 -20.85
L -21.8 -20.85
Q -21.6 -20.7 -21.7 -20.7
L -21.8 -20.75 -21.8 -20.85 -22 -20.85 -22 -20.75
Q -21.95 -20.7 -22 -20.7 -22 -20.6 -22.1 -20.55
L -22.1 -20.6 -22.2 -20.6 -22.2 -20.45 -22.25 -20.45
Q -22.2 -20.35 -22.25 -20.3
L -22.25 -20.35 -22.35 -20.35 -22.35 -20.3 -22.6 -20.3 -22.6 -20.1 -22.5 -20.2
Q -22.45 -20.05 -22.5 -20.05
L -22.6 -20.1 -22.6 -20.05
Q -22.6 -19.95 -22.75 -19.95
L -22.7 -20.05 -22.75 -20.05 -22.85 -19.85
Q -22.85 -19.8 -22.95 -19.8
L -23 -19.8 -23 -19.55 -23.1 -19.55 -23.25 -19.6 -23.25 -19.4
Q -23.246875 -19.5453125 -23.15 -19.4
L -23.25 -19.35 -23.25 -19.4 -23.35 -19.4 -23.4 -19.35 -23.35 -19.35
Q -23.4 -19.1 -23.6 -19
L -23.6 -19.1 -23.65 -19.1 -23.65 -19
Q -23.6 -18.85 -23.65 -18.85 -23.75 -18.75 -23.85 -18.75
L -23.9 -18.75
Q -23.9 -18.7 -24 -18.7
L -24 -18.6
Q -24 -18.5 -24.1 -18.45 -24.1 -18.35 -24.25 -18.35 -24.25 -18.25 -24.35 -18.25
L -24.4 -18.2 -24.5 -18.2 -24.55 -18.25 -24.55 -18.2 -24.65 -18.2 -24.55 -18.1
Q -24.4 -18.2 -24.4 -18.1 -24.35 -18 -24.4 -17.95
L -24.75 -17.95
Q -24.65 -17.85 -24.75 -17.85
L -24.8 -17.75
Q -24.8 -17.7 -24.9 -17.7
L -24.9 -17.6 -25.05 -17.6 -25.05 -17.55 -25 -17.55
Q -24.9 -17.45 -25.05 -17.45
L -25.05 -17.35
Q -25.05 -17.3 -25.05 -17.2
L -25.15 -17.2 -25.3 -17.05
Q -25.3 -16.95 -25.4 -16.95 -25.4 -16.85 -25.4 -16.8
L -25.3 -16.8
Q -25.25 -16.8 -25.3 -16.7
L -25.4 -16.7 -25.3 -16.6 -25.3 -16.55 -24.9 -16.55 -24.9 -16.4 -24.8 -16.4 -24.8 -16.15
Q -24.9 -15.9 -25.05 -15.9 -25.05 -15.8 -25.05 -15.7
L -25.4 -15.7 -25.5 -15.55 -25.5 -15.45
Q -25.4 -15.4 -25.55 -15.3
L -25.9 -15.3 -25.8 -15.2 -25.65 -15.2
Q -25.65 -15.05 -25.7 -15.05
L -25.8 -15 -25.8 -15.15 -25.9 -15.15 -25.9 -15 -25.95 -15 -25.95 -14.9
Q -25.9 -14.75 -26.05 -14.75
L -26.05 -14.55 -26.2 -14.55
Q -26.15 -14.4 -26.3 -14.3
L -26.3 -14.4
Q -26.4 -14.3 -26.45 -14.3 -26.45 -14.25 -26.55 -14.3
L -26.55 -14.25 -26.45 -14.15 -26.45 -14.25 -26.4 -14.25
Q -26.4 -14.15 -26.45 -14.15
L -26.65 -14.15 -26.65 -13.95
Q -26.55 -13.85 -26.65 -13.85
L -26.7 -13.85
Q -26.8 -13.85 -26.9 -13.8
L -26.9 -13.7 -26.8 -13.8
Q -26.7 -13.7 -26.9 -13.55
L -26.8 -13.45 -26.9 -13.45
Q -27 -13.35 -27.1 -13.35
L -27.1 -13.3 -27.25 -13.35
Q -27.25 -13.3 -27.35 -13.3
L -27.35 -13.2 -27.25 -13.3
Q -27.1 -13.15 -27.35 -13.05 -27.1 -12.95 -27.35 -12.95 -27.25 -12.9 -27.35 -12.9
L -27.4 -12.8
Q -27.5 -12.65 -27.55 -12.65
L -27.55 -12.55
Q -27.65 -12.55 -27.75 -12.45
L -27.65 -12.45
Q -27.65 -12.3 -27.75 -12.2
L -27.9 -12.2 -27.8 -12.15 -27.8 -12.05 -27.9 -12.15 -27.9 -12.05
Q -27.9 -12 -28 -12 -28.05 -11.9 -28.15 -11.9
L -28.25 -11.8 -28.25 -11.75 -28.15 -11.75
Q -28.05 -11.75 -28.15 -11.65
L -28.3 -11.65 -28.3 -11.55
Q -28.25 -11.5 -28.3 -11.5
L -28.4 -11.5 -28.5 -11.4 -28.4 -11.3 -28.3 -11.3
Q -28.3 -11.25 -28.4 -11.25
L -28.55 -11.25 -28.55 -11.05 -28.65 -11.05
Q -28.55 -11 -28.65 -11 -28.75 -10.9 -28.65 -10.8 -28.55 -10.75 -28.75 -10.75
L -28.75 -10.65
Q -28.75 -10.6 -28.95 -10.5
L -28.9 -10.65 -28.95 -10.65 -28.95 -10.6 -29.05 -10.4 -28.95 -10.4
Q -28.9 -10.4 -28.95 -10.35
L -29.05 -10.25 -29.15 -10.25 -29.15 -10.15
Q -29.05 -10.1 -29.15 -10.1
L -29.15 -10 -29.3 -10 -29.2 -9.9 -29.3 -9.85
Q -29.4 -9.75 -29.4 -9.6
L -29.45 -9.6
Q -29.45 -9.5 -29.55 -9.5 -29.55 -9.45 -29.65 -9.5
L -29.65 -9.35
Q -29.55 -9.25 -29.65 -9.25 -29.65 -9.2 -29.7 -9.2
L -29.8 -9.2 -29.8 -9.1
Q -29.65 -9 -29.8 -9
L -30.05 -9 -30.05 -8.95
Q -30.05 -8.75 -30.1 -8.75
L -30.2 -8.75 -30.1 -8.55 -30.1 -8.4 -30.2 -8.3 -30.2 -8.25 -30.35 -8.15
Q -30.2 -8 -30.35 -8
L -30.6 -8 -30.6 -7.75 -30.55 -7.75
Q -30.6 -7.65 -30.7 -7.65
L -30.7 -7.6
Q -30.6 -7.6 -30.7 -7.5 -30.7 -7.4 -30.8 -7.4
L -30.8 -7.35
Q -30.8 -7.25 -30.85 -7.35
L -30.95 -7.35 -30.95 -7.15 -31.05 -7.15
Q -31.1 -7.15 -31.1 -7
L -31.05 -7
Q -31.05 -7.1 -30.95 -7.1 -30.95 -7 -31.05 -6.9
L -31.1 -6.75 -31.2 -6.75 -31.2 -6.65
Q -31.1 -6.5 -31.3 -6.6
L -31.35 -6.6 -31.35 -6.5 -31.45 -6.5 -31.35 -6.4
Q -31.3 -6.4 -31.3 -6.35
L -31.2 -6.35 -31.2 -6.25
Q -31.2 -6.1 -31.1 -6.1
L -31.05 -6.1
Q -31.05 -6 -30.95 -6
L -30.95 -5.95 -30.85 -5.95 -30.85 -5.85 -30.8 -5.85 -30.8 -5.7
Q -30.85 -5.6 -30.95 -5.6
L -30.95 -5.5 -31.05 -5.5 -30.95 -5.35
Q -30.8515625 -5.4484375 -30.85 -5.5
L -30.7 -5.5 -30.7 -5.6
Q -30.6 -5.7 -30.55 -5.7
L -30.35 -5.7 -30.35 -5.75
Q -30.55 -5.95 -30.35 -5.95 -30.35 -6 -30.35 -6.1
L -30.3 -6.1
Q -30.3 -6.35 -30.1 -6.35 -30.1 -6.4 -29.95 -6.4
L -29.95 -6.5 -29.8 -6.5 -29.9 -6.85 -29.8 -6.75 -29.8 -6.85 -29.95 -6.9 -29.9 -6.9
Q -29.7 -7 -29.55 -7.1
L -29.55 -7.25 -29.45 -7.25 -29.45 -7.35 -29.4 -7.35 -29.4 -7.6 -29.15 -7.6 -29.15 -7.65
Q -29.15 -7.75 -29.15 -7.8 -29.15 -8 -29.05 -7.9
L -29.05 -7.8 -28.95 -7.8 -28.95 -7.9 -28.9 -7.9 -28.9 -8.05 -28.95 -8.05
Q -28.95 -8.15 -28.9 -8.15
L -28.75 -8.15 -28.75 -8.3
Q -28.75 -8.5 -28.65 -8.55 -28.55 -8.7 -28.5 -8.5 -28.5 -8.55 -28.4 -8.5
L -28.4 -8.7
Q -28.4 -8.75 -28.3 -8.75
L -28.3 -8.7 -28.25 -8.75
Q -28.3 -8.95 -28.25 -8.95
L -28.15 -8.85 -28.05 -8.85 -28.15 -9 -28.05 -9 -28.05 -9.2
Q -28 -9.2 -27.9 -9.2 -27.9 -9.25 -27.9 -9.35 -27.8 -9.45 -27.75 -9.45
L -27.75 -9.5
Q -27.65 -9.6 -27.55 -9.6
L -27.4 -9.6 -27.35 -9.65 -27.35 -9.85 -27.15 -9.85 -27.1 -9.9 -27.1 -10 -26.9 -10 -26.9 -10.4 -26.8 -10.4
Q -26.8 -10.5 -26.7 -10.4
L -26.7 -10.35 -26.65 -10.4 -26.65 -10.5 -26.45 -10.5 -26.45 -10.75
Q -26.45 -10.8 -26.4 -10.8
L -26.3 -10.75 -26.3 -10.9
Q -26.2 -10.9 -26.2 -11
L -26.15 -11.05
Q -26.0515625 -11.05 -26.05 -11
L -26.05 -11.05 -25.9 -11.15 -25.9 -11.25 -25.95 -11.25 -25.95 -11.3 -25.8 -11.3 -25.7 -11.5
Q -25.7 -11.65 -25.65 -11.55
L -25.55 -11.5 -25.55 -11.65 -25.65 -11.75 -25.55 -11.8 -25.5 -11.8
Q -25.5 -11.9 -25.4 -11.9 -25.3 -12.05 -25.25 -12.05 -25.25 -12.15 -25.05 -12.2
L -25 -12.2 -25 -12.45
Q -25.15 -12.55 -25 -12.55 -24.75 -12.55 -24.8 -12.45
L -24.8 -12.4 -24.75 -12.4 -24.65 -12.45 -24.65 -12.65 -24.55 -12.65
Q -24.55 -12.7 -24.5 -12.7 -24.5 -12.9 -24.4 -12.9
L -24.25 -12.8 -24.25 -12.95
Q -24.25 -13.05 -24.15 -13.05
L -24 -13.05 -24 -13.3 -23.85 -13.3 -23.75 -13.35
Q -23.85 -13.45 -23.75 -13.45
L -23.75 -13.55 -23.85 -13.55
Q -23.75 -13.6 -23.65 -13.6
L -23.6 -13.55
Q -23.6 -13.7 -23.4 -13.6
L -23.35 -13.6 -23.35 -13.7
Q -23.35 -13.8 -23.25 -13.85 -23.15 -13.85 -23.1 -13.85
L -23 -13.85 -22.95 -13.8 -22.95 -13.7
Q -22.9466796875 -13.8 -22.85 -13.8
L -22.75 -13.8 -22.75 -13.85
Q -22.75 -13.95 -22.7 -13.85
L -22.7 -13.7 -22.6 -13.7 -22.6 -13.6 -22.5 -13.6 -22.5 -13.7
Q -22.5 -13.8 -22.45 -13.7 -22.35 -13.7 -22.35 -13.6
L -22.45 -13.55 -22.35 -13.45 -22.35 -13.35 -22 -13.35 -22 -13.3 -21.95 -13.3 -21.95 -13.15 -21.85 -13.15
Q -21.8 -13.15 -21.8 -13.05
L -21.8 -12.95 -21.7 -13.05
Q -21.6 -13.15 -21.6 -13.05
L -21.55 -12.95
Q -21.4 -12.95 -21.55 -12.9 -21.4 -12.9 -21.4 -12.8 -21.3 -12.9 -21.3 -12.7 -21.3 -12.65 -21.4 -12.65
L -21.3 -12.55 -21.25 -12.55
Q -21.1533203125 -12.55 -21.15 -12.45
L -21.15 -12.55
Q -21.15 -12.65 -21.1 -12.65
L -21 -12.65
Q -21 -12.7 -20.9 -12.65
L -20.9 -12.7
Q -20.9 -12.8 -20.75 -12.65
L -20.85 -12.8 -20.75 -12.9 -20.75 -12.7 -20.65 -12.7
Q -20.6 -12.8 -20.5 -12.7
L -20.5 -12.8 -20.4 -12.8
Q -20.35 -12.7 -20.5 -12.7
L -20.5 -12.65 -20.4 -12.65
Q -20.35 -12.65 -20.35 -12.55
L -20.25 -12.55
Q -20.25 -12.7 -20.15 -12.55 -20.1 -12.45 -20.15 -12.4
L -20.15 -12.3 -20 -12.3 -20 -12.2 -19.95 -12.2 -19.95 -12.3
Q -19.75 -12.4 -19.85 -12.15
L -19.75 -12.15 -19.85 -12.05 -19.75 -12.05
Q -19.75 -12 -19.75 -11.9
L -19.7 -11.9
Q -19.6 -11.8 -19.5 -11.8
L -19.5 -11.75 -19.45 -11.8 -19.45 -11.75 -19.35 -11.75 -19.35 -11.8
Q -19.25 -11.8 -19.25 -11.75
L -19.25 -11.65 -19.35 -11.5 -19.2 -11.5 -19.1 -11.4 -19.1 -11.3 -18.95 -11.3 -18.95 -11.4
Q -18.95 -11.55 -18.85 -11.5
L -18.85 -11.4
Q -18.85 -11.3 -18.95 -11.3
L -18.95 -11.25 -18.7 -11.25
Q -18.55 -11.15 -18.7 -11.05
L -18.7 -11 -18.45 -10.9
Q -18.45 -11.05 -18.35 -10.9
L -18.45 -10.8
Q -18.3 -10.8 -18.35 -10.75
L -18.35 -10.65 -18.3 -10.65 -18.3 -10.75 -18.2 -10.75
Q -18.1 -10.8 -18.1 -10.65
L -18.05 -10.65
Q -17.95 -10.6 -18.05 -10.6
L -17.95 -10.5
Q -17.8515625 -10.5 -17.85 -10.4 -17.84921875 -10.5015625 -17.8 -10.6
L -17.8 -10.5 -17.7 -10.4 -17.7 -10.25
Q -17.696875 -10.3984375 -17.6 -10.35
L -17.6 -10.25 -17.55 -10.25
Q -17.45 -10.15 -17.7 -10.25
L -17.7 -10.15 -17.6 -10.15
Q -17.55 -10.15 -17.45 -10
L -17.45 -9.9 -17.4 -9.9
Q -17.4 -9.85 -17.3 -9.85
L -17.3 -9.75 -17.15 -9.75 -17.05 -9.6 -16.9 -9.6
Q -16.95 -9.75 -16.8 -9.6 -16.9 -9.5 -16.9 -9.45
L -16.9 -9.35 -16.7 -9.35
Q -16.8 -9.45 -16.7 -9.5
L -16.7 -9.45 -16.65 -9.35 -16.55 -9.35
Q -16.45 -9.2 -16.4 -9.1
L -16.3 -9 -16.3 -8.95
Q -16.2515625 -8.95 -16.25 -8.85 -16.2478515625 -8.9990234375 -16.15 -8.95
L -16.25 -8.75 -16.15 -8.85 -16 -8.75 -16 -8.7
Q -15.85 -8.7 -15.95 -8.55
L -15.85 -8.55
Q -15.7 -8.55 -15.6 -8.4 -15.55 -8.3 -15.6 -8.3
L -15.75 -8.3 -15.6 -8.25 -15.6 -8.15 -15.55 -8.15 -15.6 -8.05 -15.55 -8.05
Q -15.453125 -8.146875 -15.45 -8.25
L -15.45 -8.05
Q -15.35 -8.05 -15.45 -8
L -15.2 -8 -15.2 -8.05
Q -15.05 -8 -15.1 -7.9
L -15.05 -7.9 -14.95 -7.8
Q -14.85 -7.8 -14.85 -7.75
L -14.8 -7.75 -14.8 -7.6 -14.6 -7.6
Q -14.6 -7.5 -14.6 -7.4
L -14.35 -7.35
Q -14.2 -7.25 -14.35 -7.15
L -14.35 -7.1 -14.3 -7.1
Q -14.3 -7.15 -14.2 -7.15
L -14.2 -7 -14.15 -7 -14.05 -6.9
Q -13.95 -6.9 -13.9 -6.9
L -13.8 -6.9
Q -13.8 -6.85 -13.8 -6.75
L -13.7 -6.75
Q -13.7 -6.65 -13.65 -6.65
L -13.65 -6.4 -13.55 -6.4 -13.55 -6.35
Q -13.45 -6.35 -13.4 -6.25
L -13.4 -6.35
Q -13.4 -6.4 -13.3 -6.35 -13.2 -6.35 -13.3 -6.25
L -13.4 -6.25 -13.4 -6.2
Q -13.3 -6.2 -13.4 -6.1
L -13.3 -6.1 -13.3 -6 -13.2 -6.1
Q -13.2 -6.2 -13.05 -6.1
L -13 -6 -13 -6.1
Q -12.75 -6 -12.8 -5.95
L -12.8 -5.7
Q -12.75 -5.85 -12.55 -5.7 -12.5 -5.6 -12.55 -5.5
L -12.55 -5.35 -12.5 -5.35 -12.5 -5.45
Q -12.5 -5.6 -12.4 -5.5
L -12.4 -5.45
Q -12.15 -5.45 -12.4 -5.35
L -12.4 -5.25 -12.3 -5.25
Q -12.3 -5.35 -12.25 -5.35
L -12.15 -5.35 -12.15 -5.25
Q -12.05 -5.25 -12.05 -5.2
L -12 -5.2
Q -12 -5.25 -11.9 -5.2 -11.75 -5.1 -11.85 -4.95
L -11.75 -4.95
Q -11.65 -4.95 -11.65 -4.85
L -11.75 -4.8 -11.85 -4.8 -11.85 -4.7 -11.75 -4.7 -11.65 -4.6 -11.6 -4.6
Q -11.6 -4.8 -11.4 -4.6 -11.35 -4.6 -11.35 -4.55 -11.35 -4.45 -11.35 -4.35
L -11.35 -4.3
Q -11.15 -4.45 -11.1 -4.3 -10.9 -4.3 -11 -4.1
L -10.9 -4.1
Q -10.85 -4.1 -10.75 -4.1 -10.75 -3.95 -10.85 -3.95
L -10.85 -3.85 -10.65 -3.85
Q -10.65 -3.8 -10.55 -3.7
L -10.3 -3.7
Q -10.3 -3.65 -10.2 -3.55
L -10.15 -3.55
Q -10.15 -3.45 -10.15 -3.4
L -10.15 -3.3 -10.05 -3.3 -10.05 -3.2
Q -9.95 -3.2 -9.9 -3.2
L -9.8 -3.2
Q -9.75 -3.3 -9.75 -3
L -9.75 -2.85 -9.5 -2.85 -9.5 -2.75
Q -9.4 -2.7 -9.5 -2.7
L -9.5 -2.6 -9.15 -2.6 -9.05 -2.45
Q -9 -2.45 -9 -2.35
L -9 -2.25 -9.05 -2.25 -9.05 -2.2 -8.9 -2.2
Q -8.8 -2.2 -8.9 -2.1
L -8.9 -2 -8.75 -2
Q -8.65 -2 -8.65 -1.85
L -8.5 -1.95 -8.5 -1.85
Q -8.4974609375 -1.9482421875 -8.35 -1.85 -8.25 -1.7 -8.35 -1.7
L -8.35 -1.6 -8.25 -1.6 -8.15 -1.45 -8.1 -1.45 -8.15 -1.35 -8.1 -1.35 -8.1 -1.3 -7.9 -1.35
Q -7.9 -1.45 -7.85 -1.45
L -7.85 -1.35 -7.9 -1.35 -7.9 -1.2 -7.65 -1.2
Q -7.5 -1.1 -7.75 -1.1
L -7.85 -1.1
Q -7.75 -1.05 -7.65 -1.05
L -7.6 -0.85 -7.5 -0.95
Q -7.25 -0.95 -7.45 -0.8
L -7.35 -0.8 -7.45 -0.7 -7.45 -0.65 -7.35 -0.65 -7.35 -0.7
Q -7.25 -0.8 -7.2 -0.8
L -7.2 -0.55 -7.1 -0.45 -7.1 -0.4 -6.95 -0.45 -6.95 -0.3 -6.85 -0.2
Q -6.85 -0.4 -6.75 -0.3
L -6.75 -0.2 -6.85 -0.2 -6.75 -0.15 -6.5 -0.15
Q -6.45 -0.05 -6.7 0.05
L -6.7 0.1 -6.6 0.1 -6.5 0.2 -6.45 0.1
Q -6.2041015625 0.1982421875 -6.3 0.2
L -6.25 0.2
Q -6.2015625 0.296875 -6.2 0.45 -6.196875 0.3015625 -6.1 0.35
L -6.05 0.35 -6.05 0.7 -5.85 0.6 -5.8 0.75 -5.8 0.85 -5.6 0.85
Q -5.55 0.85 -5.55 0.95
L -5.45 1
Q -5.3 1 -5.45 1.1
L -5.45 1.2 -5.2 1.2
Q -4.9 1.25 -5.2 1.35
L -5.1 1.35
Q -5.0015625 1.35 -5 1.45 -4.9984375 1.3515625 -4.9 1.45
L -4.85 1.6
Q -4.85 1.7 -4.75 1.7
L -4.75 1.75 -4.6 1.75 -4.6 1.9 -4.5 1.9
Q -4.5 1.85 -4.4 1.85 -4.4 2 -4.5 2
L -4.4 2.15 -4.35 2.1
Q -4.2 2.1 -4.2 2.15
L -4.2 2.3 -4.1 2.3 -4.2 2.4 -4.2 2.45 -4.1 2.45 -4.1 2.4 -3.95 2.55 -3.75 2.55
Q -3.7 2.6 -3.6 2.7 -3.7 2.8 -3.75 2.8
L -3.75 2.85 -3.7 2.85 -3.6 2.85
Q -3.5 2.8 -3.5 2.85
L -3.45 2.85
Q -3.35 2.85 -3.35 2.95
L -3.25 3.05
Q -3.25 3.098828125 -3.2 3.1 -3.1 3.05 -2.95 2.8 -2.6 2.55 -2.35 2.15 -2.2 2 -2.05 1.85 -1.95 1.7 -1.7 1.6 -1.55 1.45 -1.4 1.2 -1.3 1.1 -1.15 0.95 -0.95 0.75 -0.8 0.6 -0.7 0.55 -0.65 0.45
L -0.7 0.45 -0.7 0.2
Q -0.8 0.2 -0.9 0.2
L -0.95 0.2
Q -1.05 0.1 -0.95 0.1
L -0.95 -0.05 -1.05 -0.05 -1.05 0.05 -1.15 0.05 -1.15 -0.05 -1.3 -0.05 -1.3 -0.15 -1.4 -0.2 -1.4 -0.4 -1.55 -0.4
Q -1.65 -0.4 -1.55 -0.45
L -1.55 -0.55 -1.65 -0.55 -1.65 -0.65 -1.8 -0.65 -1.8 -0.7 -1.7 -0.7 -1.8 -0.8 -1.95 -0.8 -1.95 -0.85 -2.1 -0.85
Q -2.05 -0.95 -2.05 -1.05 -2.05 -1.1 -2.1 -1.1 -2.1 -1.05 -2.2 -1.05 -2.3 -1.2 -2.35 -1.1
L -2.35 -1.35 -2.55 -1.35 -2.55 -1.45 -2.6 -1.45
Q -2.8 -1.45 -2.7 -1.55
L -2.6 -1.6 -2.7 -1.6 -2.85 -1.7 -2.8 -1.8 -2.8 -1.85 -2.85 -1.95 -2.85 -1.85 -2.95 -1.85 -2.95 -1.95 -3.05 -1.95 -3.05 -2.1 -3.1 -2.1 -3.1 -2.2 -3.2 -2.1 -3.2 -2.2 -3.45 -2.2 -3.35 -2.25 -3.45 -2.25 -3.45 -2.45 -3.6 -2.45
Q -3.5 -2.6 -3.6 -2.6
L -3.7 -2.6
Q -3.75 -2.6 -3.75 -2.7
L -3.75 -2.75 -3.85 -2.75 -3.85 -2.85 -4 -2.85 -3.95 -3 -4 -3 -4.1 -3.2 -4.2 -3.2 -4.2 -3.1
Q -4.203125 -3.20625 -4.25 -3.3
L -4.35 -3.3 -4.35 -3.4 -4.4 -3.4 -4.4 -3.45 -4.6 -3.45 -4.65 -3.55
Q -4.65 -3.65 -4.6 -3.7
L -4.85 -3.7 -4.75 -3.8 -4.75 -3.85 -4.85 -4.05 -5 -4.05
Q -4.99765625 -3.9484375 -4.85 -3.85
L -5 -3.85 -5 -4.05 -5.1 -4.05
Q -5.1 -4.1 -5.2 -4.1
L -5.2 -4.2
Q -5.3 -4.3 -5.35 -4.3
L -5.45 -4.3
Q -5.35 -4.35 -5.45 -4.35
L -5.45 -4.45 -5.55 -4.45 -5.55 -4.6 -5.45 -4.7 -5.7 -4.7
Q -5.7 -4.6 -5.8 -4.6 -5.8 -4.8 -5.85 -4.85
L -5.85 -4.95 -6.05 -4.95 -6.05 -5.05 -5.95 -5.1 -6.1 -5.1 -6.1 -5.05 -6.2 -5.05 -6.2 -5.2 -6.25 -5.2 -6.25 -5.25 -6.35 -5.25
Q -6.45 -5.25 -6.45 -5.45
L -6.45 -5.5 -6.6 -5.5 -6.6 -5.6 -6.7 -5.5
Q -6.7 -5.6 -6.7 -5.7
L -6.7 -5.85 -6.95 -5.75
Q -6.85 -5.85 -6.85 -5.95
L -7.1 -5.95 -7.1 -6.1 -7.2 -6.2 -7.25 -6.35 -7.5 -6.35 -7.5 -6.6
Q -7.5 -6.65 -7.65 -6.75
L -7.65 -6.65
Q -7.6533203125 -6.75 -7.75 -6.75
L -7.75 -6.85 -7.9 -6.9
Q -8.1 -7 -8 -7.15
L -8.1 -7.15 -8.1 -7.25 -8.25 -7.25 -8.25 -7.35 -8.35 -7.35 -8.35 -7.5 -8.5 -7.5 -8.65 -7.6 -8.6 -7.75 -8.65 -7.75
Q -8.75 -7.65 -8.8 -7.65 -8.8 -7.75 -8.75 -7.75 -8.8 -7.8 -8.8 -7.9
L -8.9 -7.8 -8.9 -7.9 -8.75 -8 -8.75 -8.05 -8.9 -8
Q -9 -8 -9.05 -8
L -9.05 -8.05 -9.15 -8.05 -9.15 -8.15 -9.05 -8.15 -9.05 -8.25 -9.15 -8.25
Q -9.25 -8.25 -9.3 -8.25 -9.3 -8.3 -9.25 -8.3
L -9.25 -8.4 -9.3 -8.5 -9.3 -8.4
Q -9.4 -8.3 -9.5 -8.3
L -9.5 -8.55 -9.55 -8.55 -9.55 -8.7 -9.75 -8.7
Q -9.75 -8.75 -9.9 -8.85 -9.9 -8.95 -9.9 -9
L -9.9 -9.1
Q -9.95 -9 -10.05 -9 -10.15 -9.1 -10.05 -9.2
L -10.15 -9.2 -10.15 -9.25 -10.2 -9.25 -10.2 -9.35 -10.15 -9.45 -10.45 -9.45
Q -10.55 -9.5 -10.55 -9.6 -10.65 -9.6 -10.65 -9.65
L -10.55 -9.85 -10.55 -9.9 -10.65 -9.85
Q -10.7466796875 -9.85 -10.75 -9.75
L -10.75 -9.85 -10.85 -10 -10.9 -10 -10.9 -10.1
Q -10.9033203125 -10 -11 -10
L -11 -10.15 -11.1 -10.15 -11.1 -10.25 -11.35 -10.25 -11.35 -10.4 -11.25 -10.5 -11.35 -10.5 -11.35 -10.6 -11.4 -10.5 -11.6 -10.6
Q -11.6 -10.65 -11.65 -10.8
L -11.75 -10.9 -11.85 -10.8 -11.9 -10.9 -11.9 -11 -12 -11
Q -12 -11.05 -12.05 -11
L -12 -11.25 -12.25 -11.25 -12.4 -11.3 -12.4 -11.4 -12.3 -11.5 -12.5 -11.5 -12.5 -11.65 -12.55 -11.5
Q -12.55 -11.65 -12.75 -11.65
L -12.65 -11.8 -12.8 -11.8 -12.8 -12.15 -12.9 -12.15 -12.9 -12.05 -13 -12.05 -13.05 -12.15
Q -13.15 -12.15 -13.2 -12.15 -13.2 -12.2 -13.3 -12.3
L -13.2 -12.3 -13.2 -12.4 -13.3 -12.4 -13.3 -12.45 -13.4 -12.45 -13.45 -12.65
Q -13.55 -12.65 -13.45 -12.55
L -13.55 -12.45 -13.65 -12.55 -13.65 -12.65
Q -13.7 -12.7 -13.7 -12.8
L -13.65 -12.8 -13.65 -12.9 -13.8 -12.9 -13.8 -12.95 -13.9 -13.15 -14.05 -13.15 -13.95 -13.3 -14.05 -13.3 -14.05 -13.2 -14.15 -13.05
Q -14.05 -13.3 -14.15 -13.2
L -14.2 -13.2 -14.2 -13.3
Q -14.3 -13.3 -14.35 -13.3 -14.35 -13.35 -14.3 -13.35
L -14.3 -13.45 -14.35 -13.45
Q -14.35 -13.55 -14.35 -13.6
L -14.35 -13.7 -14.45 -13.7
Q -14.45 -13.6 -14.55 -13.7
L -14.6 -13.7 -14.6 -13.95 -14.8 -13.8 -14.8 -14.05 -14.85 -14.05 -14.95 -13.95
Q -15.05 -14.15 -15.2 -14.3
L -15.35 -14.3
Q -15.35 -14.5 -15.45 -14.5
L -15.45 -14.55 -15.35 -14.55 -15.35 -14.65 -15.45 -14.65 -15.45 -14.75
Q -15.45 -14.8 -15.55 -14.8
L -15.55 -14.75 -15.6 -14.75 -15.6 -14.9
Q -15.7 -14.9 -15.75 -14.9
L -15.75 -15 -15.85 -15 -15.85 -14.9
Q -15.95 -14.9 -16 -15 -16 -15.05 -15.95 -15.15
L -15.85 -15.2 -16 -15.3 -16.25 -15.3 -16.25 -15.4 -16.3 -15.4 -16.3 -15.55 -16.45 -15.55
Q -16.6400390625 -15.6451171875 -16.5 -15.65
L -16.55 -15.65 -16.55 -15.7 -16.65 -15.7
Q -16.7 -15.8 -16.7 -15.9
L -16.7 -15.95 -16.8 -15.95
Q -16.8 -16.05 -16.9 -16.05 -16.95 -16.15 -16.9 -16.2
L -17.15 -16.15
Q -17.15 -16.2 -17.05 -16.2
L -17.15 -16.4 -17.3 -16.4 -17.3 -16.45
Q -17.3 -16.55 -17.2 -16.55 -17.15 -16.55 -17.15 -16.6
L -17.2 -16.6 -17.2 -16.7 -17.15 -16.7
Q -17.15 -16.8 -17.05 -16.95
L -17.05 -17.1 -16.95 -17.1 -16.95 -17.3 -17.05 -17.3 -17.15 -17.35 -17.3 -17.3 -17.2 -17.35 -17.3 -17.35 -17.3 -17.6 -17.45 -17.6 -17.45 -17.7 -17.55 -17.7 -17.7 -17.75 -17.6 -17.75 -17.6 -17.85 -17.7 -17.85
Q -17.7 -17.75 -17.8 -17.75 -17.85 -17.85 -17.8 -17.85 -17.8 -17.95 -17.8 -18
L -17.7 -18 -17.8 -18.2 -17.95 -18.2 -17.95 -18.35 -18.1 -18.35 -18.2 -18.45
Q -18.3 -18.5 -18.2 -18.5
L -18.2 -18.6 -18.3 -18.6
Q -18.4 -18.7 -18.35 -18.7 -18.3 -18.75 -18.3 -18.85
L -18.2 -18.85
Q -18.2 -18.9 -18.3 -18.9 -18.3 -19 -18.2 -19
L -18.1 -19 -18.1 -19.15 -18.2 -19.15
Q -18.1 -19.25 -18.1 -19.35 -18.05 -19.4 -17.95 -19.4
L -17.95 -19.55 -17.85 -19.55 -17.95 -19.6 -18.05 -19.6 -18.05 -19.7
Q -17.95 -19.8 -17.85 -19.85
L -17.85 -19.95 -17.7 -19.95 -17.7 -20.05 -17.55 -20.05
Q -17.6 -20.1 -17.55 -20.2
L -17.45 -20.2 -17.45 -20.35 -17.3 -20.35 -17.3 -20.45 -17.15 -20.45 -17.15 -20.75 -17.05 -20.7 -16.95 -20.75 -16.95 -20.95
Q -16.95 -21 -16.9 -20.95
L -16.9 -21
Q -16.95 -21.25 -16.7 -21.2 -16.7 -21.1125 -16.7 -21.05 -16.6966796875 -21.2 -16.65 -21.2
L -16.65 -21.25
Q -16.55 -21.35 -16.45 -21.35
L -16.45 -21.45
Q -16.45 -21.5 -16.4 -21.5
L -16.4 -21.45 -16.3 -21.45 -16.3 -21.6 -16.45 -21.6 -16.3 -21.7 -16.3 -21.75 -16.25 -21.75
Q -16.25 -21.85 -16 -21.85 -15.95 -21.85 -16 -22
L -16 -22.1 -15.95 -22.1
Q -15.85 -22.1 -15.95 -22.15
L -15.85 -22.15
Q -15.85 -22.35 -15.6 -22.25
L -15.6 -22.35
Q -15.55 -22.4 -15.45 -22.4
L -15.35 -22.5 -15.45 -22.6
Q -15.45 -22.75 -15.3 -22.65 -15.2 -22.9 -15.1 -22.85
L -15.05 -22.85 -15.05 -22.9 -14.85 -22.9 -14.6 -23.15 -14.6 -23.3
Q -14.6 -23.5 -14.55 -23.4
L -14.35 -23.4 -14.35 -23.5
Q -14.35 -23.55 -14.3 -23.5
L -14.2 -23.5 -14.2 -23.65 -14.3 -23.55
Q -14.35 -23.75 -14.3 -23.75
L -14.2 -23.75 -14.05 -23.65 -14.15 -23.75 -14.05 -23.75 -13.95 -23.9 -13.9 -23.9
Q -13.95 -24 -13.8 -24.05
L -13.8 -24 -13.65 -24 -13.65 -24.3 -13.45 -24.3
Q -13.45 -24.4 -13.4 -24.4 -13.3 -24.5 -13.2 -24.5
L -13.05 -24.5 -13.05 -24.55 -12.9 -24.55 -12.8 -24.65 -12.8 -24.9
Q -12.9 -25.1 -12.75 -24.9
L -12.65 -24.9
Q -12.65 -25.1 -12.55 -24.9
L -12.55 -25.1
Q -12.5 -25.15 -12.4 -25.25
L -12.4 -25.15
Q -12.3 -25.15 -12.25 -25.15
L -12.15 -25.15 -12.15 -25.25
Q -12.15 -25.35 -12.05 -25.35 -12.15 -25.5 -12 -25.4
L -12 -25.35 -11.85 -25.35 -11.85 -25.4 -11.75 -25.4 -11.85 -25.6 -11.75 -25.6 -11.75 -25.65 -11.65 -25.65 -11.65 -25.75
Q -11.6 -25.75 -11.6 -25.65
L -11.5 -25.75 -11.5 -25.85
Q -11.5 -26 -11.4 -25.9
L -11.4 -25.85 -11.35 -25.85 -11.35 -26
Q -11.25 -26 -11.15 -26.1
L -11.1 -26.1
Q -11.1 -26.25 -10.9 -26.35
L -10.9 -26.25 -10.85 -26.25 -10.85 -26.15 -10.75 -26.25 -10.75 -26.35 -10.65 -26.4 -10.55 -26.4
Q -10.55 -26.5 -10.45 -26.5
L -10.3 -26.5 -10.3 -26.55 -10.2 -26.55 -10.2 -26.65 -10.3 -26.65 -10.3 -26.75
Q -10.2 -26.8 -10.15 -26.8
L -9.95 -26.8 -9.95 -26.9 -9.9 -26.8 -9.9 -27
Q -9.9 -27.05 -9.8 -27.05
L -9.75 -27.05 -9.75 -27.15 -9.55 -27.25 -9.4 -27.25 -9.4 -27.3 -9.3 -27.3
Q -9.4 -27.4 -9.5 -27.4 -9.5 -27.5 -9.3 -27.5 -9.3 -27.55 -9.25 -27.5
L -9.3 -27.4 -9.15 -27.5 -9.05 -27.55
Q -9.05 -27.8 -8.9 -27.65 -8.9 -27.7 -8.8 -27.7
L -8.8 -27.8 -8.75 -27.8
Q -8.75 -27.95 -8.5 -27.9
L -8.5 -27.8 -8.4 -27.9 -8.5 -27.95 -8.4 -27.95
Q -8.4 -28.05 -8.4 -28.15
L -8.35 -28.15 -8.35 -28.05 -8.25 -28.05 -8.25 -28.2
Q -8.15 -28.3 -8.1 -28.3
L -8 -28.3 -8 -28.4 -7.75 -28.4 -7.85 -28.55 -7.75 -28.65
Q -7.75 -28.7 -7.65 -28.65
L -7.5 -28.65 -7.5 -28.8 -7.35 -28.8
Q -7.253125 -28.9453125 -7.25 -28.8
L -7.25 -29.05
Q -7.2 -29.05 -7.2 -28.95
L -7.1 -28.95 -7 -29.05 -6.85 -29.1 -6.85 -29.2
Q -6.85 -29.35 -6.75 -29.2
L -6.7 -29.2 -6.7 -29.3 -6.6 -29.3 -6.6 -29.35
Q -6.7 -29.45 -6.5 -29.45
L -6.45 -29.45
Q -6.35 -29.55 -6.25 -29.45
L -6.25 -29.55 -6.2 -29.55 -6.25 -29.6 -6.25 -29.7
Q -6.1 -29.8 -6.1 -29.6
L -6.05 -29.6 -6.05 -29.7
Q -6.05 -29.85 -5.95 -29.85
L -5.8 -29.85 -5.8 -29.95 -5.85 -30.05
Q -5.85 -30.1 -5.8 -30.05
L -5.6 -30.05 -5.6 -30.1 -5.55 -30.1
Q -5.6 -30.35 -5.45 -30.35
L -5.1 -30.35 -5 -30.5 -5 -30.55
Q -5 -30.65 -4.9 -30.75
L -4.85 -30.75 -4.75 -30.8
Q -4.75 -30.95 -4.6 -30.95
L -4.4 -30.95 -4.4 -31.05
Q -4.35 -31.3 -4.35 -31.15
L -4.35 -31.05 -4.25 -31.05 -4.2 -31.3 -4.1 -31.3 -4.1 -31.2
Q -4 -31.2 -4 -31.3
L -4 -31.4
Q -4.1 -31.55 -3.95 -31.65
L -3.95 -31.55
Q -3.85 -31.8 -3.75 -31.7
L -3.7 -31.7
Q -3.6 -31.9 -3.5 -31.9
L -3.5 -31.8
Q -3.45 -31.8 -3.45 -31.9
L -3.35 -31.95
Q -3.45 -32.1 -3.35 -32.1 -3.35 -32.2 -3.25 -32.2 -3.25 -32.3 -3.2 -32.3 -3.1 -32.35 -3.05 -32.3
L -2.85 -32.3 -2.85 -32.45 -2.8 -32.45 -2.8 -32.55 -3.1 -32.55 -3.2 -32.7 -3.25 -32.6 -3.2 -32.45
Q -3.25 -32.45 -3.35 -32.45
L -3.35 -32.35 -3.45 -32.3 -3.45 -32.35 -3.7 -32.3 -3.6 -32.3 -3.6 -32.2
Q -3.7 -32.1 -3.85 -32.2
L -3.85 -32.3 -3.95 -32.3 -3.95 -32.1 -4 -32.1
Q -4.1 -32.1 -4.2 -32.05
L -4.25 -32.05
Q -4.35 -32.05 -4.4 -32.05
L -4.4 -31.95 -4.35 -31.95
Q -4.2 -31.9 -4.35 -31.9
L -4.5 -31.9
Q -4.6 -31.8 -4.65 -31.8
L -4.65 -31.7 -5 -31.7 -5.1 -31.65 -5.1 -31.55
Q -5.1 -31.45 -5.2 -31.45 -5.3 -31.45 -5.35 -31.4
L -5.35 -31.45 -5.45 -31.45
Q -5.45 -31.4 -5.55 -31.3 -5.55 -31.4 -5.6 -31.4
L -5.7 -31.3
Q -5.8 -31.3 -5.85 -31.3
L -5.85 -31.2 -5.95 -31.15 -6.05 -31.15 -6.05 -31.05 -6.1 -30.95 -6.1 -31.05 -6.25 -31.05
Q -6.35 -31.05 -6.45 -31.05
L -6.45 -30.9 -6.5 -30.8 -6.5 -30.9 -6.7 -30.9 -6.7 -30.8
Q -6.5 -30.75 -6.7 -30.75 -6.7 -30.651171875 -6.85 -30.65 -6.7515625 -30.6484375 -6.85 -30.55
L -6.85 -30.5 -6.95 -30.5 -6.95 -30.55 -7 -30.5 -7 -30.55 -7.2 -30.55 -7.2 -30.35
Q -7.25 -30.25 -7.35 -30.35
L -7.25 -30.5 -7.45 -30.5 -7.5 -30.35
Q -7.35 -30.35 -7.5 -30.25
L -7.6 -30.25 -7.65 -30.2 -7.65 -30.05
Q -7.6515625 -30.1 -7.75 -30.1
L -7.85 -30.1
Q -7.85 -30.05 -7.9 -30.05
L -7.95 -30.05
Q -7.8525390625 -30.0482421875 -8 -29.95
L -8.1 -30.05 -8.15 -30.05 -8.15 -29.95 -8.35 -29.95 -8.25 -29.85
Q -8.25 -29.6 -8.35 -29.7
L -8.4 -29.7 -8.4 -29.8 -8.5 -29.7
Q -8.5 -29.6 -8.6 -29.7
L -8.65 -29.8 -8.65 -29.6
Q -8.6 -29.45 -8.65 -29.45
L -8.8 -29.45 -8.8 -29.6 -8.9 -29.6 -8.9 -29.55 -9 -29.45
Q -8.8 -29.35 -8.9 -29.3
L -9 -29.35
Q -9.046875 -29.35 -9.05 -29.45
L -9.05 -29.2
Q -9.15 -29.2 -9.25 -29.2
L -9.5 -29.2 -9.5 -29.1
Q -9.5 -29.053125 -9.5 -28.95 -9.503125 -29.05 -9.55 -29.05
L -9.75 -29.05 -9.75 -28.95
Q -9.8 -28.9 -9.9 -28.9
L -9.95 -28.8 -9.9 -28.8
Q -9.9 -28.7 -10.05 -28.8
L -10.05 -28.7
Q -10.15 -28.8 -10.15 -28.7
L -10.2 -28.65 -10.2 -28.7 -10.3 -28.65 -10.55 -28.65 -10.55 -28.55
Q -10.55 -28.4 -10.65 -28.45
L -10.65 -28.4 -10.75 -28.45 -10.75 -28.4
Q -10.55 -28.3 -10.75 -28.3
L -10.9 -28.2
Q -11 -28.2 -11.1 -28.2
L -11.1 -28.15 -11.25 -28.05 -11.25 -27.95 -11.35 -27.9 -11.35 -27.8
Q -11.4 -27.9 -11.5 -27.9
L -11.5 -27.8 -11.6 -27.8 -11.6 -27.55
Q -11.65 -27.65 -11.65 -27.8
L -11.75 -27.7
Q -11.75 -27.55 -11.9 -27.55
L -12 -27.55
Q -11.85 -27.5 -12 -27.5
L -12.15 -27.55 -12.15 -27.5
Q -12.05 -27.5 -12.15 -27.4 -12.05 -27.3 -12.15 -27.3 -12.3 -27.4 -12.4 -27.3
L -12.5 -27.3 -12.5 -27.25 -12.4 -27.25
Q -12.5015625 -27.246875 -12.55 -27.15
L -12.75 -27.05
Q -12.796875 -27.05 -12.8 -27.15
L -12.8 -27 -12.75 -27
Q -12.65 -26.8 -12.8 -26.9 -12.9 -26.8 -13 -26.8
L -13.15 -26.65 -13.05 -26.8 -13.2 -26.8 -13.2 -26.65 -13.2 -26.55 -13.3 -26.55 -13.2 -26.65 -13.4 -26.65 -13.4 -26.55
Q -13.3 -26.5 -13.4 -26.5
L -13.4 -26.4
Q -13.45 -26.4 -13.55 -26.5
L -13.65 -26.4
Q -13.65 -26.35 -13.7 -26.35
L -13.65 -26.25
Q -13.7 -26.25 -13.8 -26.25
L -14.05 -26.25 -14.05 -26.15
Q -14.05 -26.1 -14.15 -26
L -14.2 -26.1 -14.2 -25.9
Q -14.3 -25.9 -14.35 -25.9
L -14.55 -25.9 -14.55 -25.75 -14.6 -25.65 -14.6 -25.6 -14.8 -25.6 -14.8 -25.5
Q -14.7 -25.4 -14.8 -25.35 -14.85 -25.4 -14.85 -25.5
L -14.85 -25.6 -15.05 -25.6 -15.05 -25.5
Q -15.05 -25.4 -15.05 -25.35
L -15.2 -25.35 -15.2 -25.25 -15.1 -25.25 -15.2 -25.15 -15.2 -25.25
M -25.55 -13.95
L -25.55 -14.05
Q -25.5 -14.05 -25.5 -13.95 -25.4 -13.8 -25.5 -13.7
L -25.4 -13.6 -25.3 -13.6
Q -25.25 -13.7 -25.05 -13.6
L -25 -13.6
Q -25 -13.45 -25.05 -13.35 -25.15 -13.45 -25.25 -13.45 -25.4 -13.35 -25.5 -13.35
L -25.55 -13.35 -25.55 -13.45 -25.65 -13.55 -25.65 -13.6
Q -25.7 -13.7 -25.7 -13.8
L -25.7 -13.85 -25.65 -13.95 -25.55 -13.95
M -26.55 -13.8
Q -26.45 -13.7 -26.55 -13.7 -26.65 -13.8 -26.55 -13.85
L -26.55 -13.8
M -24.8 -14.5
Q -24.75 -14.5 -24.75 -14.4
L -24.65 -14.4
Q -24.65 -14.3 -24.5 -14.3
L -24.4 -14.3 -24.5 -14.25
Q -24.4 -13.95 -24.5 -13.85
L -24.4 -13.8
Q -24.5 -13.8 -24.55 -13.8
L -24.65 -13.85 -24.8 -13.85 -24.75 -13.8 -24.8 -13.8
Q -25 -13.8 -24.8 -13.85
L -24.8 -14.15
Q -25 -14.15 -25.05 -14.15
L -25.15 -14.15
Q -25.25 -14.4 -25.15 -14.5
L -25.05 -14.4
Q -25 -14.4 -24.8 -14.5
M 26.05 31.95
L 26.05 32.1 26.15 32.1 26.05 31.95
M 28.45 29.25
L 28.45 29.35 28.55 29.25 28.55 29.2 28.4 29.25 28.45 29.25
M 20.35 20
L 20.4 20 20.4 19.95 20.35 19.95 20.35 19.85
Q 20.346875 19.9515625 20.25 20
L 20.15 19.85
Q 20.15 19.75 20 19.75
L 20 19.7 19.9 19.7 20 19.6 19.85 19.5 19.85 19.45 19.75 19.45 19.65 19.5 19.65 19.45 19.6 19.45
Q 19.5 19.35 19.35 19.3
L 19.35 19.1 19.25 19.1 19.2 19.05 19 19.05 19 18.95 19.1 18.95 19.1 18.85 18.95 18.85 18.95 18.8 19 18.8 19 18.7 18.95 18.7 18.85 18.6 18.85 18.5 18.75 18.5
Q 18.7 18.5 18.7 18.4
L 18.6 18.4 18.6 18.5 18.5 18.6 18.5 18.4 18.6 18.35 18.7 18.15 18.5 18.25 18.5 18.35 18.45 18.35 18.5 18.25 18.45 18.15
Q 18.35 18.25 18.3 18.25
L 18.3 18.1 18.2 18.1 18.1 18 18.1 17.9 17.95 18
Q 17.95 17.9 17.85 17.9
L 17.85 17.85 17.7 17.75 17.6 17.65 17.7 17.65 17.7 17.6 17.6 17.6 17.7 17.5 17.6 17.5 17.6 17.45 17.55 17.45
Q 17.55 17.5 17.45 17.5
L 17.45 17.35 17.3 17.35 17.2 17.25 17.1 17.25 17.1 17.2 16.95 17.2 16.95 17.1 17.05 17 16.9 16.95 16.7 16.95
Q 16.7 16.85 16.8 16.85
L 16.8 16.75 16.7 16.75 16.7 16.7 16.65 16.7
Q 16.65 16.75 16.5 16.75
L 16.5 16.6 16.45 16.6 16.45 16.45 16.35 16.35 16.25 16.35 16.25 16.5 16.1 16.35 16.25 16.35 16.25 16.3 16.2 16.3
Q 16.1 16.3 16 16.3
L 16 16.2 15.85 16.2
Q 15.9474609375 16.1974609375 15.85 16.1
L 15.85 15.95 15.75 15.95 15.7 15.85 15.6 15.95 15.6 15.85 15.45 15.8 15.45 15.7 15.25 15.6 15.35 15.55 15.25 15.55 15.25 15.35 15.2 15.35
Q 15.1 15.55 15.05 15.55
L 15.05 15.35 14.85 15.35 14.85 15.2 14.8 15.2 14.8 15.1 14.7 15.1 14.7 15.05 14.6 15.05 14.6 14.95 14.45 14.95
Q 14.45 14.9 14.35 14.9
L 14.35 14.8
Q 14.3 14.7 14.2 14.65 14.1 14.55 14.2 14.55
L 14.2 14.45 14.1 14.45
Q 14.05 14.45 14.05 14.55 13.95 14.55 13.9 14.55 13.9 14.45 13.95 14.4
L 13.95 14.3 13.9 14.3 13.8 14.4 13.8 14.3 13.7 14.3 13.7 14.15 13.55 14.15 13.55 14.05 13.45 14.05
Q 13.45 13.95 13.45 13.9
L 13.4 13.9 13.4 13.95
Q 13.3984375 13.9 13.3 13.9
L 13.2 13.75 13.15 13.75 13.15 13.65
Q 13.05 13.65 13.05 13.75
L 12.95 13.75 12.95 13.55 12.9 13.65 12.9 13.55 12.8 13.55 12.9 13.5 12.9 13.4 12.95 13.3 12.65 13.3 12.55 13.1 12.55 13.05 12.4 13.05 12.4 12.85 12.3 12.95 12.3 12.85 12.25 12.85 12.15 12.8
Q 12.05 12.8 12.15 12.7
L 12.15 12.6 12.05 12.6 12.05 12.55 12 12.55 12 12.45 11.9 12.45 11.9 12.35 11.8 12.3 11.55 12.3 11.55 12.2 11.4 12.2 11.4 12.1 11.35 12.1 11.35 11.9 11.05 11.9
Q 11.05 11.8 10.95 11.8
L 10.95 11.7
Q 10.95 11.65 10.85 11.7
L 10.85 11.55 10.8 11.55 10.8 11.45 10.55 11.45 10.6 11.4
Q 10.55234375 11.4453125 10.5 11.45 10.55 11.44375 10.55 11.4
L 10.55 11.2 10.3 11.2 10.3 11.05 10.15 11.05
Q 10.05 11.05 10.05 10.95
L 10.05 10.8 9.9 10.8 9.95 10.65 9.9 10.65 9.9 10.7 9.7 10.8 9.8 10.65 9.7 10.55 9.65 10.55 9.65 10.5 9.7 10.5 9.7 10.4 9.55 10.4 9.55 10.3 9.4 10.4 9.4 10.5 9.3 10.5 9.3 10.4
Q 9.3 10.25 9.05 10.05 9.15 10.05 9.05 10
L 9 9.9
Q 8.9 9.9 8.9 9.8
L 8.9 9.75 8.8 9.75
Q 8.8 9.8 8.75 9.8 8.65 9.65 8.55 9.5
L 8.55 9.4 8.3 9.4
Q 8.4 9.35 8.4 9.25
L 8.3 9.15 8.1 9.15
Q 8.15 9.1 8.1 9.1 8 9.1 7.9 9.1
L 7.9 8.9
Q 7.9 8.85 7.85 8.85
L 7.65 8.85
Q 7.65 8.75 7.65 8.65
L 7.6 8.65 7.6 8.75 7.5 8.65
Q 7.4 8.5 7.6 8.65
L 7.6 8.5 7.5 8.4 7.4 8.4 7.35 8.15 7.25 8.15 7.25 8.1 7.15 8.15 7.1 8.15 7.1 7.95 6.85 7.95 6.85 8
Q 6.75 7.75 6.85 7.85
L 6.85 7.75 6.75 7.65 6.75 7.55 6.5 7.55
Q 6.45 7.55 6.45 7.5
L 6.45 7.4 6.2 7.4
Q 6.25 7.3984375 6.25 7.3
L 6.25 7.15 6 7.15 6 7 5.95 7
Q 5.85 7 5.85 6.9
L 5.75 6.9
Q 5.65 6.8 5.65 6.75
L 5.55 6.75
Q 5.55 6.65 5.5 6.65
L 5.55 6.55 5.55 6.5
Q 5.548828125 6.55 5.5 6.55
L 5.5 6.5 5.4 6.55 5.3 6.5 5.4 6.5 5.4 6.4 5.3 6.4 5.3 6.3
Q 5.2982421875 6.3966796875 5.25 6.3 5.1 6.25 5 6.1
L 5 6 4.9 5.9
Q 4.85 6 4.9 6.1
L 4.85 6.1 4.85 6 4.75 6 4.85 5.85 4.75 5.9 4.75 5.85 4.65 5.85 4.6 5.75 4.6 5.6 4.4 5.5 4.35 5.5 4.35 5.35 4.25 5.4
Q 4.25 5.35 4.15 5.35
L 4.15 5.25 4.1 5.25
Q 4 5.15 4.1 5.1
L 4 5 4 4.95 3.9 4.95 3.9 4.85
Q 3.85 4.85 3.75 4.75
L 3.75 4.7 3.45 4.7 3.5 4.5 3.35 4.5
Q 3.35 4.45 3.35 4.35
L 3.35 4.25 3.2 4.25
Q 3.2 4.35 3.1 4.25
L 3 4.25 3 4.2 2.95 4.2 2.95 4 2.85 3.95 2.75 3.95 2.75 3.85 2.7 3.85 2.6 3.7 2.55 3.75 2.55 3.7 2.35 3.7
Q 2.35 3.6 2.35 3.55
L 2.1 3.3
Q 1.95 3.3 2.1 3.2
L 2.1 2.85 2.05 2.95
Q 2.05 3.05 1.95 3.05
L 1.95 2.85
Q 1.7 3.2 1.45 3.55 1.3 3.6 1.15 3.75 0.95 3.95 0.8 4.1 0.65 4.25 0.45 4.35 0.1 4.7 -0.15 4.95 -0.3 5.1 -0.5 5.25 -0.65 5.4 -0.8 5.6
L -0.7 5.6
Q -0.7 5.5 -0.65 5.5
L -0.55 5.5
Q -0.5 5.65 -0.55 5.65 -0.65 5.65 -0.7 5.75 -0.65 5.75 -0.55 5.75
L -0.55 5.85 -0.5 5.85
Q -0.4 5.85 -0.4 5.9
L -0.3 6 -0.3 5.9
Q -0.25 5.9 -0.25 6
L -0.15 5.9
Q -0.15 6 -0.15 6.1
L -0.05 6.1 0 6.15 0.1 6.15
Q 0.2 6.25 0.1 6.25
L 0 6.15 -0.15 6.15 -0.15 6.25 -0.05 6.25
Q 0 6.25 0 6.3
L 0.2 6.3 0.2 6.4
Q 0.3 6.4 0.3 6.55 0.4 6.55 0.45 6.65
L 0.55 6.55
Q 0.65 6.55 0.7 6.75 0.8 6.8 0.65 6.8
L 0.65 7 0.7 7
Q 0.7 6.75 0.8 6.9
L 0.8 7 0.95 7
Q 1.15 7 0.95 7.05
L 0.95 7.3 1.15 7.25
Q 1.3 7.25 1.3 7.3 1.55 7.5 1.35 7.5
L 1.3 7.55 1.35 7.55
Q 1.35 7.65 1.35 7.75
L 1.45 7.75
Q 1.55 7.75 1.55 7.85
L 1.55 7.95 1.6 7.85
Q 1.6 7.95 1.7 8
L 1.85 8
Q 1.8 7.85 1.95 8 2.05 8.15 1.95 8.15
L 1.95 8.35 2.05 8.35 2.1 8.4 2.3 8.4 2.3 8.6 2.45 8.6
Q 2.35 8.4 2.55 8.5
L 2.55 8.6 2.6 8.65
Q 2.75 8.75 2.55 8.75
L 2.55 8.85 2.75 8.9 2.7 9 2.75 9
Q 2.85 9 2.95 9
L 2.95 9.1
Q 2.85 9.1 2.75 9.1 2.75 9.15 2.85 9.15 2.85 9.25 2.95 9.25 3 9.25 3 9.35
L 3.1 9.35 3.2 9.4 3.35 9.35 3.35 9.4
Q 3.45 9.4 3.45 9.5
L 3.5 9.5 3.45 9.55
Q 3.5 9.55 3.5 9.65 3.6 9.65 3.6 9.75
L 3.7 9.8 3.75 9.8 3.75 9.9
Q 3.9 9.9 4 10 4.1 10.05 4 10.05
L 4 10.3
Q 4.1 10.3 4.1 10.4
L 4.1 10.5 4.35 10.5
Q 4.4 10.5 4.35 10.55
L 4.35 10.65 4.4 10.55
Q 4.5 10.55 4.6 10.65
L 4.6 10.7
Q 4.601171875 10.651171875 4.65 10.7
L 4.85 10.8 4.75 11.05 4.85 11.05 4.85 11.15 4.9 11.2 5 11.2 4.9 11.15 5 11.05 5.1 11.15 5.15 11.15 5.15 11.2 5.25 11.2
Q 5.4 11.2 5.25 11.4
L 5.3 11.4
Q 5.4 11.45 5.25 11.45
L 5.25 11.55 5.3 11.55
Q 5.39921875 11.55 5.4 11.65 5.401171875 11.55078125 5.55 11.65 5.85 11.65 5.55 11.7
L 5.55 11.9 5.65 11.95 5.85 11.95
Q 6 11.95 5.95 12.05
L 5.95 12.2 6 12.2 6 12.3 6.1 12.3
Q 6.2 12.2 6.2 12.3
L 6.25 12.3 6.25 12.35
Q 6.45 12.45 6.45 12.55
L 6.5 12.55 6.6 12.6
Q 6.7 12.7 6.6 12.7 6.6 12.8 6.6 12.85
L 6.7 12.85
Q 6.7 12.7 6.85 12.7 6.85 12.8 6.85 12.85
L 6.85 12.95
Q 6.85 13.05 6.85 13.1
L 6.95 13.1
Q 7 13.1 7 13.25
L 7 13.3 7.1 13.4 7.25 13.4
Q 7.5 13.4 7.35 13.55
L 7.25 13.75 7.35 13.75
Q 7.5 13.75 7.4 13.8
L 7.5 13.8 7.5 13.75 7.6 13.75
Q 7.65 13.75 7.65 13.8
L 7.75 13.9 7.75 13.95
Q 7.85 13.95 7.85 14.05
L 7.9 13.95
Q 8 14.05 7.9 14.15
L 7.9 14.2 8 14.15 8.1 14.2 8.1 14.4
Q 8.15 14.3 8.15 14.55
L 8.25 14.55
Q 8.3 14.55 8.4 14.7
L 8.3 14.7 8.4 14.95 8.55 14.95 8.5 15.1 8.55 15.05 8.55 15.1 8.65 15.1 8.65 15.2
Q 8.75 15.2 8.75 15.35
L 8.9 15.35 8.9 15.45 9 15.45 9 15.55 9.05 15.55
Q 9.15 15.55 9.15 15.7 9.25 15.8 9.25 15.85
L 9.3 15.85
Q 9.3 15.8 9.4 15.85
L 9.4 15.95
Q 9.5 15.95 9.5 16.05 9.55 16.05 9.55 16.1 9.65 16.1 9.7 16.2
L 9.7 16.3
Q 9.7 16.35 9.7 16.45 9.8 16.45 9.8 16.5
L 9.8 16.6 9.95 16.6 9.95 16.75 10.05 16.75
Q 10.15 16.75 10.15 16.85
L 10.15 16.95
Q 10.2 16.95 10.3 16.95 10.3 17 10.3 17.1 10.4 17.1 10.4 17.2
L 10.55 17.2 10.55 17.25
Q 10.6466796875 17.3466796875 10.55 17.35
L 10.65 17.35
Q 10.6974609375 17.4447265625 10.7 17.55 10.703125 17.3546875 10.8 17.5
L 10.8 17.6 10.85 17.5
Q 10.95 17.5 10.95 17.65
L 11.05 17.65
Q 11.1 17.75 10.95 17.85
L 10.95 18 11.05 18
Q 11.1 17.9 11.1 18
L 11.1 18.15 11.35 18.15
Q 11.4 18.1 11.4 18.15
L 11.4 18.4 11.5 18.4 11.5 18.35 11.55 18.35 11.55 18.4 11.65 18.4 11.65 18.5
Q 11.75 18.6 11.65 18.6
L 11.65 18.8 11.75 18.8 11.75 18.85 11.8 18.85 11.9 18.8
Q 12.15 18.8 12.15 18.95 12.25 19.1 12.3 19.2 12.3 19.35 12.15 19.45
L 12.4 19.45
Q 12.5 19.45 12.55 19.45
L 12.55 19.6
Q 12.55 19.7 12.55 19.75
L 12.65 19.7 12.7 19.7 12.7 19.75
Q 12.7 19.85 12.8 19.85
L 12.8 20
Q 12.8 20.0970703125 12.8 20.2 12.803125 20.103125 12.9 20.2 12.95 20.25 12.9 20.25
L 12.9 20.35 12.95 20.35 12.95 20.45 13.05 20.45 13.05 20.5
Q 13.15 20.5 13.05 20.6
L 13.2 20.6 13.2 20.65 13.3 20.6
Q 13.3 20.5 13.4 20.5 13.45 20.65 13.4 20.65 13.55 20.75 13.55 20.85
L 13.65 20.85 13.65 21
Q 13.7 21.1 13.65 21.1
L 13.65 21.15
Q 13.6984375 21.1015625 13.7 21.25 13.703125 21.1015625 13.8 21.15
L 13.8 21.25
Q 13.8 21.35 13.8 21.4
L 13.8 21.5 13.9 21.4 13.9 21.35
Q 13.9 21.25 13.95 21.35
L 14.05 21.35
Q 14.1 21.5 14.05 21.5
L 14.05 21.65 14.2 21.65 14.3 21.75 14.3 21.65
Q 14.45 21.65 14.35 21.85
L 14.35 21.9
Q 14.35 22 14.3 22
L 14.3 22.05 14.55 22.05 14.6 22.25
Q 14.6 22.05 14.8 22.3 14.8 22.4 14.85 22.5
L 14.95 22.5 14.95 22.55 15.05 22.55 15.05 22.75
Q 15.1 22.8 15.05 22.8
L 15.05 22.9
Q 15.1 22.9 15.2 22.8
L 15.2 22.9
Q 15.25 22.9 15.25 23
L 15.25 23.05
Q 15.35 23.05 15.45 23.15 15.5 23.2 15.5 23.3
L 15.6 23.2
Q 15.7 23.2 15.6 23.4
L 15.7 23.45 15.75 23.65 15.85 23.65 15.85 23.9
Q 15.95 23.9 15.85 23.95
L 15.95 23.95 15.95 23.9
Q 15.95 23.8 16 23.9 16.1 23.9 16.1 23.95 16.25 23.95 16.1 24.15 16.2 24.15 16.2 24.25
L 16.2 24.35 16.25 24.25 16.25 24.35
Q 16.25 24.4 16.25 24.5
L 16.35 24.5 16.35 24.35
Q 16.65 24.4 16.65 24.6 16.7 24.65 16.65 24.75
L 16.7 24.75 16.7 25
Q 16.8 25 16.9 25
L 16.9 25.05 16.95 25.05
Q 16.9 24.9 17.05 25.05
L 17.05 25.25 17.1 25.25 17.1 25.4 17.2 25.4
Q 17.3 25.4 17.3 25.55 17.45 25.5 17.3 25.65
L 17.35 25.65
Q 17.35 25.75 17.35 25.8
L 17.45 25.75 17.6 25.75
Q 17.7 25.75 17.6 25.8
L 17.7 25.9 17.7 26 17.8 26 17.7 26.05 17.85 26.05
Q 18.1 26.05 17.95 26.25
L 18.05 26.25 18.2 26.4 18.3 26.4
Q 18.35 26.45 18.3 26.55
L 18.3 26.8 18.45 26.9 18.5 26.9 18.5 26.8 18.6 26.9 18.6 26.95
Q 18.7 26.95 18.7 27.05
L 18.7 27.15
Q 18.75 26.95 18.75 27.15
L 18.75 27.2 18.7 27.2 18.75 27.3 18.95 27.3 18.95 27.6 19 27.6 19 27.7 19.1 27.7 19.1 27.6 19.2 27.6
Q 19.35 27.6 19.25 27.7 19.5 27.8 19.5 27.95 19.35 27.8 19.35 28.05
L 19.5 28.05 19.5 28.2 19.6 28.2 19.6 28.3 19.65 28.3 19.65 28.2 19.75 28.2
Q 19.85 28.2 19.9 28.3
L 19.9 28.55
Q 19.903125 28.45 20 28.45
L 20 28.55 20.1 28.55
Q 20.25 28.6 20.15 28.7
L 20.25 28.8 20.15 28.85 20.15 28.95
Q 20.1533203125 28.85 20.25 28.85
L 20.5 28.85
Q 20.5 28.95 20.5 29
L 20.6 29.1 20.6 29.25 20.75 29.25 20.75 29.35 20.65 29.45 20.75 29.45
Q 20.8 29.55 20.8 29.65
L 20.9 29.65
Q 21.05 29.7 20.9 29.9 21 29.9 21 29.95
L 21.05 29.95
Q 21.05 29.8 21.15 29.9
L 21.15 29.95 21.25 29.95
Q 21.3 29.95 21.3 30.05
L 21.3 30.15 21.5 30.15
Q 21.5 30.2 21.3 30.3
L 21.3 30.4 21.65 30.4
Q 21.65 30.45 21.75 30.45 21.75 30.55 21.8 30.65
L 21.8 30.8 21.9 30.8
Q 22 30.7 22.1 30.8
L 22 30.85 22.2 30.85
Q 22.25 31.05 22.2 31.05
L 22.2 31.1
Q 22.25 31.2 22.25 31.3
L 22.35 31.3
Q 22.45 31.3 22.45 31.45
L 22.6 31.55 22.5 31.6 22.6 31.6
Q 22.7 31.55 22.75 31.55 22.85 31.6 22.7 31.7
L 22.7 31.8 22.75 31.7
Q 23 31.7 22.85 31.85
L 22.9 31.95 23 31.95
Q 23 32 23 32.1
L 23.1 32.1 23.15 32.25 23.1 32.35 23.4 32.35 23.4 32.45
Q 23.5 32.45 23.5 32.5
L 23.65 32.5 23.65 32.6
Q 23.85 32.6 23.65 32.7
L 23.85 32.7
Q 23.9 32.6 24 32.6
L 24 32.5
Q 24.05 32.5 24.05 32.6
L 24.15 32.7 24.25 32.7
Q 24.5 32.5 24.3 32.7
L 24.4 32.7 24.4 32.6 24.5 32.6
Q 24.5 32.45 24.65 32.6
L 24.65 32.5 24.75 32.5 24.75 32.6 24.8 32.5
Q 24.8 32.45 24.9 32.5
L 25 32.5
Q 25.05 32.35 25.15 32.45 25.2 32.45 25.2 32.5
L 25.3 32.5
Q 25.3 32.45 25.3 32.35
L 25.4 32.35
Q 25.45 32.1 25.45 32.35
L 25.55 32.25 25.65 32.25 25.65 32.2
Q 25.7 32.1 25.7 32.2
L 25.9 32.1 25.9 32
Q 25.9 31.95 26.05 31.95 26.05 31.8 26.2 31.85
L 26.3 31.8 26.3 31.7
Q 26.4 31.7 26.45 31.6 26.45 31.55 26.55 31.55
L 26.6 31.55
Q 26.6 31.35 26.7 31.55
L 26.8 31.45
Q 26.8 31.35 26.8 31.3
L 26.85 31.3 26.85 31.2
Q 26.95 31.1 27.05 31.1 27.05 30.95 27.2 30.95 27.3 30.95 27.3 30.85 27.2 30.8 27.3 30.7
L 27.35 30.85 27.45 30.85
Q 27.3 30.7 27.35 30.7
L 27.65 30.65 27.65 30.55 27.55 30.65
Q 27.55 30.55 27.55 30.45
L 27.65 30.45
Q 27.75 30.45 27.75 30.4 27.65 30.3 27.65 30.2 27.75 30.05 27.8 30.15
L 27.9 30.2 27.9 30.15 28 30.15
Q 28 29.95 28.05 29.9
L 28.15 29.9 28.15 29.95 28.25 29.9
Q 28.3 29.9 28.3 29.8
L 28.3 29.65
Q 28.25 29.45 28.3 29.45
L 28.3 29.35
Q 28.3 29.25 28.4 29.25 28.4 29.1 28.55 29.1
L 28.7 29.1 28.7 29 28.65 29 28.65 28.95 28.55 28.95 28.65 28.85 28.7 28.85 28.7 28.8 28.8 28.85 28.8 28.8 28.7 28.7
Q 28.55 28.45 28.65 28.45
L 28.7 28.35 28.7 28.2 28.55 28.05 28.45 28.05 28.55 27.95 28.65 27.95 28.65 27.85 28.45 27.85
Q 28.4 27.85 28.4 27.8
L 28.3 27.8
Q 28.4 27.7 28.3 27.6
L 28.3 27.7
Q 28.25 27.8 28.15 27.8
L 28.15 27.85 28.05 27.85
Q 28 27.85 28 27.95
L 27.9 27.95 27.9 28.05
Q 27.8 27.95 27.9 27.85
L 27.9 27.8 27.8 27.85 27.9 27.7 27.8 27.8 27.75 27.7 27.8 27.6
Q 27.9 27.45 28.05 27.55
L 28.05 27.45
Q 28.05 27.3 28.15 27.4
L 28.15 27.3 28.05 27.3 28.05 27.2 27.9 27.2 27.9 27.15 27.75 27.15 27.8 27.05 27.75 27.05 27.75 26.95 27.65 26.95 27.65 26.9 27.55 26.9 27.45 26.8 27.35 26.8 27.35 26.7 27.3 26.7
Q 27.3 26.65 27.3 26.55
L 27.1 26.55 27.05 26.45 27.1 26.4 27.1 26.25 27.05 26.25 27.05 26.05 26.85 26.05 26.85 26
Q 26.8 26 26.7 26
L 26.7 25.9 26.6 25.9 26.55 25.8 26.45 25.8 26.45 25.4 26.3 25.4 26.3 25.5 26.2 25.5 26.2 25.4 26.15 25.4 26.15 25.3 26.05 25.3 26.05 25.4 25.95 25.4 25.95 25.15 25.9 25.25 25.9 25.15
Q 25.95 25.05 25.95 25
L 25.9 25.05 25.9 25 25.7 25 25.65 24.9
Q 25.55 24.85 25.55 24.75
L 25.45 24.75 25.45 24.6 25.2 24.65 25.2 24.5 25.15 24.5 25.2 24.4
Q 25.146875 24.5 25.05 24.5 24.9 24.4 24.75 24.5
L 24.65 24.5 24.75 24.4
Q 24.65 24.35 24.55 24.25
L 24.5 24.25
Q 24.5 24.1 24.4 23.9
L 24.4 23.8
Q 24.55 23.7 24.55 23.8
L 24.65 23.7 24.55 23.7 24.55 23.65 24.5 23.65 24.4 23.7
Q 24.3 23.65 24.3 23.55
L 24.25 23.45 24 23.45
Q 24 23.4 24 23.3
L 23.85 23.3
Q 23.85 23.2 23.9 23.2
L 24 23.2 23.9 23.15 23.75 23.15 23.75 23 23.65 23.05 23.65 23 23.75 22.9 23.6 22.9
Q 23.5 22.8 23.5 22.75
L 23.4 22.65 23.4 22.55 23.15 22.55 23.15 22.5 23 22.55 23 22.3 22.9 22.3 22.9 22.25 22.7 22.15 22.7 22.05 22.75 22.05 22.75 22 22.6 22 22.6 21.9 22.5 22 22.5 21.9 22.45 21.9 22.45 21.85 22.35 21.85
Q 22.25 21.75 22.25 21.65
L 22.2 21.65 22.2 21.6 22.1 21.6 22.1 21.5 22 21.5 21.9 21.25 21.8 21.25 21.9 21.35
Q 21.8 21.35 21.75 21.35
L 21.75 21.25 21.65 21.25 21.65 21.15 21.55 21.15 21.55 21.25
Q 21.5 21.1 21.55 21.1
L 21.55 20.85 21.15 20.85 21.15 20.6 21 20.6 21 20.5 20.9 20.5 20.9 20.45 20.75 20.45 20.65 20.35 20.75 20.25 20.6 20.2
Q 20.5021484375 20.004296875 20.35 20 Z"/>

<path fill="#000000" fill-opacity="0.7333333333333333" stroke="none" d="
M -0.3 0.75
Q -0.25 0.6 -0.15 0.6 -0.3 0.45 -0.5 0.3 -0.5 0.35 -0.55 0.35
L -0.65 0.45
Q -0.7 0.55 -0.8 0.6 -0.95 0.75 -1.15 0.95 -0.95 1.1 -0.8 1.25 -0.7 1 -0.55 0.95 -0.4 0.85 -0.3 0.75 Z"/>

<path fill="#252122" stroke="none" d="
M -31.05 -5.5
L -31.1 -5.5 -31.05 -5.45
Q -31.1 -5.35 -31.2 -5.45
L -31.2 -5.25
Q -31.3 -5.25 -31.35 -5.25
L -31.35 -5.2 -31.45 -5.1 -31.6 -5.1 -31.6 -4.95
Q -31.6 -4.8533203125 -31.7 -4.85
L -31.6 -4.85
Q -31.6 -4.95 -31.45 -4.95
L -31.45 -4.85
Q -31.35 -4.85 -31.35 -4.8
L -31.05 -4.8
Q -31.05 -4.85 -30.95 -4.85
L -30.95 -5.1
Q -30.85 -5.1 -30.8 -5.1 -30.8 -5.2 -30.8 -5.25
L -30.85 -5.25 -30.85 -5.5
Q -30.8515625 -5.4484375 -30.95 -5.35
L -31.05 -5.5 Z"/>

<path fill="#000000" stroke="none" d="
M -31.35 -5.7
L -31.6 -5.7 -31.6 -5.5 -31.45 -5.5
Q -31.45 -5.6 -31.35 -5.7
M -31.5 -6.25
L -31.5 -6.2 -31.35 -6 -31.3 -6 -31.3 -5.95 -31.2 -5.95
Q -31.2 -5.85 -31.2 -5.75
L -31.2 -5.7 -31.3 -5.7 -31.45 -5.5 -31.5 -5.45 -31.45 -5.35 -31.6 -5.35 -31.6 -5.25
Q -31.6 -5.2 -31.6 -5.1
L -31.45 -5.1 -31.35 -5.2 -31.35 -5.25
Q -31.3 -5.25 -31.2 -5.25
L -31.2 -5.45 -31.2 -5.5 -31.1 -5.5 -31.05 -5.5 -30.95 -5.5 -30.95 -5.6 -30.95 -5.7
Q -31.05 -5.7 -30.95 -5.85
L -30.95 -5.95 -30.95 -6 -31.1 -5.95 -31.1 -6.1
Q -31.2 -6.1 -31.2 -6.25
L -31.35 -6.25 -31.3 -6.35 -31.35 -6.35 -31.5 -6.25 Z"/>

<path fill="#000000" fill-opacity="0.7294117647058823" stroke="none" d="
M 0.45 4.35
Q 0.3 4.2 0.1 4.1 -0.25 4.35 -0.5 4.7 -0.65 4.75 -0.8 4.95 -0.65 5.1 -0.5 5.25 -0.3 5.1 -0.15 4.95 0.1 4.7 0.45 4.35 Z"/>

<path fill="#000000" fill-opacity="0.8235294117647058" stroke="none" d="
M 0.45 4.35
Q 0.65 4.25 0.8 4.1 0.95 3.95 1.15 3.75 0.95 3.6 0.7 3.45 0.65 3.7 0.45 3.75 0.3 3.95 0.1 4.1 0.3 4.2 0.45 4.35 Z"/>

<path fill="#000000" fill-opacity="0.9137254901960784" stroke="none" d="
M 2.05 2.8
Q 1.95 2.7 1.7 2.45 1.7 2.55 1.6 2.6 1.6 2.7 1.55 2.7 1.35 2.95 1.15 3.1 0.95 3.3 0.7 3.45 0.95 3.6 1.15 3.75 1.3 3.6 1.45 3.55 1.7 3.2 1.95 2.85
L 2.05 2.8 Z"/>

<path fill="#000000" fill-opacity="0.611764705882353" stroke="none" d="
M 0.1 0.35
Q 0.3 0.1 0.45 0.05 0.3 -0.2 0.1 -0.3 -0.05 -0.2 -0.25 0.05 -0.3 0.2 -0.5 0.3 -0.3 0.45 -0.15 0.6 -0.15 0.45 0.1 0.35 Z"/>

<path fill="#000000" fill-opacity="0.06274509803921569" stroke="none" d="
M 2.95 1.85
Q 2.75 2 2.55 2.15 2.75 2.4 2.85 2.3 3.2 2.1 3.6 1.85 3.35 1.75 3.2 1.6 3.1 1.7 2.95 1.85 Z"/>

<path fill="#000000" fill-opacity="0.12156862745098039" stroke="none" d="
M 4.15 1.2
Q 4 1 3.85 0.85 3.7 1.1 3.6 1.2 3.35 1.35 3.2 1.6 3.35 1.75 3.6 1.85 3.75 1.6 3.85 1.45 4 1.35 4.15 1.2 Z"/>

<path fill="#000000" fill-opacity="0.19607843137254902" stroke="none" d="
M 4.15 1.2
Q 4.35 1 4.5 0.85 4.85 0.55 5.1 0.2 4.9 0.1 4.75 -0.05 4.4 0.3 4.15 0.6 4 0.75 3.85 0.85 4 1 4.15 1.2
M 15.1 -9.85
Q 14.85 -9.9 14.8 -10.1 14.45 -9.75 14.1 -9.45 13.95 -9.25 13.8 -9.2 13.95 -9 14.1 -8.85 14.3 -9 14.45 -9.2 14.8 -9.45 15.1 -9.85
M 18.1 -22.25
Q 18.3 -22.35 18.45 -22.5 18.6 -22.65 18.75 -22.85 18.6 -23 18.45 -23.15 18.1 -22.85 17.95 -22.5 18.05 -22.4 18.1 -22.25 Z"/>

<path fill="#000000" fill-opacity="0.5372549019607843" stroke="none" d="
M 31.2 -12.3
Q 31.1 -12.15 30.95 -12 31 -11.8 31.2 -11.8 31.6 -12 31.95 -12.3 31.7 -12.45 31.6 -12.65 31.35 -12.45 31.2 -12.3 Z"/>

<path fill="#000000" fill-opacity="0.30196078431372547" stroke="none" d="
M 27.45 -11.05
Q 27.3 -11.25 27.1 -11.3 26.6 -10.8 27.55 -10.6 27.65 -10.6 27.8 -10.65 27.65 -10.8 27.45 -11.05 Z"/>

<path fill="#000000" fill-opacity="0.7843137254901961" stroke="none" d="
M 29.7 -11.3
Q 29.85 -11.25 29.95 -11.25 30.35 -11.4 30.6 -11.65 30.45 -11.8 30.3 -12.05 30.1 -11.8 29.95 -11.65 29.85 -11.55 29.7 -11.3 Z"/>

<path fill="#000000" fill-opacity="0.26666666666666666" stroke="none" d="
M 20.9 -16.3
Q 21.75 -17.05 22.5 -17.85 22.45 -17.95 22.2 -18.2 21.3 -17.35 20.6 -16.6 20.5 -16.4 20.35 -16.3 20.5 -16.15 20.65 -15.95 20.8 -16.15 20.9 -16.3
M 12.8 -8.15
Q 12.95 -8 13.2 -7.9 13.4 -8 13.45 -8.15 13.8 -8.5 14.1 -8.85 13.95 -9 13.8 -9.2 13.45 -8.75 13.2 -8.4 12.95 -8.3 12.8 -8.15
M 6 -0.7
Q 5.85 -0.8 5.75 -1.05 5.4 -0.65 5.1 -0.3 4.9 -0.2 4.75 -0.05 4.9 0.1 5.1 0.2 5.25 0.05 5.4 -0.05 5.75 -0.4 6 -0.7 Z"/>

<path fill="#000000" fill-opacity="0.3686274509803922" stroke="none" d="
M 22.85 -18.1
Q 23 -18.35 23.15 -18.45 23 -18.6 22.85 -18.75 22.7 -18.6 22.5 -18.45 22.45 -18.25 22.2 -18.2 22.45 -17.95 22.5 -17.85 22.7 -17.95 22.85 -18.1 Z"/>

<path fill="#000000" fill-opacity="0.4823529411764706" stroke="none" d="
M 24.75 -17.6
Q 24.8 -17.35 25 -17.2 25.2 -17.1 25.3 -16.95 25.45 -17.05 25.45 -17.2 25.3 -17.55 25.05 -17.85 24.8 -17.7 24.75 -17.6 Z"/>

<path fill="#000000" fill-opacity="0.14901960784313725" stroke="none" d="
M 24.4 -18.45
Q 24.4 -18.2 24.5 -17.95 24.5 -17.75 24.75 -17.6 24.8 -17.7 25.05 -17.85 24.8 -17.95 24.65 -18.2 24.55 -18.35 24.4 -18.45 Z"/>

<path fill="#000000" fill-opacity="0.4666666666666667" stroke="none" d="
M 23.4 -18.75
Q 23.65 -18.9 23.75 -19 23.65 -19.15 23.4 -19.4 23.25 -19.15 23.1 -19.1 22.9 -18.9 22.85 -18.75 23 -18.6 23.15 -18.45 23.25 -18.6 23.4 -18.75 Z"/>

<path fill="#000000" fill-opacity="0.9411764705882353" stroke="none" d="
M 24.05 -18.75
L 24.25 -19
Q 24.05 -19.4 23.75 -19.7 23.6 -19.6 23.4 -19.4 23.65 -19.15 23.75 -19 23.9 -18.9 24.05 -18.75 Z"/>

<path fill="#000000" fill-opacity="0.8392156862745098" stroke="none" d="
M 36.25 -16.7
Q 36.4 -16.85 36.5 -16.95 36.65 -17.2 36.9 -17.3 36.65 -17.45 36.5 -17.6 36.25 -17.35 36.1 -16.85
L 36.25 -16.7 Z"/>

<path fill="#000000" fill-opacity="0.5333333333333333" stroke="none" d="
M 37.05 -18.25
Q 36.9 -18 36.8 -17.95 36.65 -17.75 36.5 -17.6 36.65 -17.45 36.9 -17.3 37.05 -17.45 37.05 -17.6 37.05 -17.85 37.05 -18.25 Z"/>

<path fill="#000000" fill-opacity="0.10980392156862745" stroke="none" d="
M 33.8 -13.55
Q 33.6 -13.7 33.45 -13.85 33.3 -13.7 33.1 -13.55 33.05 -13.35 32.85 -13.3
L 33.05 -13.05
Q 33.45 -13.2 33.8 -13.55
M 34.7 -15.15
Q 34.85 -15 34.95 -14.9 35.1 -15 35.25 -15.05 36.1 -15.55 35.6 -16.15 35.25 -15.7 35 -15.45 34.85 -15.3 34.7 -15.15 Z"/>

<path fill="#000000" fill-opacity="0.18823529411764706" stroke="none" d="
M 34.95 -14.9
Q 34.85 -15 34.7 -15.15 34.25 -14.75 33.8 -14.25 33.6 -14.05 33.45 -13.85 33.6 -13.7 33.8 -13.55 33.85 -13.7 34 -13.85 34.5 -14.4 34.95 -14.9 Z"/>

<path fill="#000000" fill-opacity="0.8196078431372549" stroke="none" d="
M 32.6 -12.9
Q 32.35 -13.05 32.15 -13.3 32 -13.05 31.85 -12.9 31.75 -12.8 31.6 -12.65 31.7 -12.45 31.95 -12.3 32 -12.45 32.15 -12.65 32.4 -12.8 32.6 -12.9 Z"/>

<path fill="#000000" fill-opacity="0.4549019607843137" stroke="none" d="
M 33.7 -22.9
Q 33.6 -22.75 33.45 -22.6 33.6 -22.5 33.7 -22.25 33.85 -22.1 34 -21.95 34.2 -22.1 34.35 -22.25 34.2 -22.5 34 -22.6 33.85 -22.75 33.7 -22.9 Z"/>

<path fill="#000000" fill-opacity="0.12941176470588237" stroke="none" d="
M 35.9 -20.75
Q 36.1 -20.85 36.15 -21 36.1 -21.2 35.9 -21.35 35.65 -21.5 35.6 -21.7 35.4 -21.5 35.25 -21.45 35.4 -21.25 35.5 -21 35.75 -20.85 35.9 -20.75
M 15.7 -10.4
Q 15.45 -10.5 15.35 -10.65 15.2 -10.6 15.05 -10.35 14.85 -10.25 14.8 -10.1 14.85 -9.9 15.1 -9.85 15.2 -9.9 15.35 -10.1 15.5 -10.25 15.7 -10.4 Z"/>

<path fill="#000000" fill-opacity="0.3843137254901961" stroke="none" d="
M 37.15 -19.4
Q 37.3 -19.35 37.4 -19.15
L 37.55 -19.35
Q 37 -20.3 36.15 -21 36.1 -20.85 35.9 -20.75 36.5 -20.1 37.15 -19.4 Z"/>

<path fill="#000000" fill-opacity="0.3176470588235294" stroke="none" d="
M 12.3 -6.9
Q 12.4 -7.1 12.55 -7.25 12.9 -7.6 13.2 -7.9 12.95 -8 12.8 -8.15 12.55 -7.8 12.25 -7.5 12.15 -7.35 12 -7.15 12.05 -7.1 12.3 -6.9
M 3.2 -3.45
Q 3.1 -3.3 2.95 -3.2 3 -3 3.2 -2.85 3.35 -3 3.5 -3.2 4.4 -4.1 5.4 -5.05 5.15 -5.2 5.1 -5.25 4.15 -4.45 3.2 -3.45 Z"/>

<path fill="#000000" fill-opacity="0.2549019607843137" stroke="none" d="
M 10.95 -11.25
Q 11.1 -11.5 11.35 -11.65 11.5 -11.8 11.65 -11.9 11.4 -12.05 11.35 -12.2 10.95 -12 10.8 -11.55 10.7 -11.5 10.95 -11.25 Z"/>

<path fill="#000000" fill-opacity="0.07450980392156863" stroke="none" d="
M 16 -11.25
Q 15.85 -11.15 15.7 -11 15.5 -10.8 15.35 -10.65 15.45 -10.5 15.7 -10.4 15.85 -10.6 15.95 -10.75 16 -11 16 -11.25 Z"/>

<path fill="#000000" fill-opacity="0.3254901960784314" stroke="none" d="
M 7.25 -1.95
Q 7.1 -2 7 -2.2 6.5 -1.7 6 -1.2 5.95 -1.1 5.75 -1.05 5.85 -0.8 6 -0.7 6.25 -0.85 6.45 -1.05 6.85 -1.45 7.25 -1.95 Z"/>

<path fill="#000000" fill-opacity="0.4392156862745098" stroke="none" d="
M 9.15 -3.85
Q 9.3 -3.95 9.5 -4.2 10.2 -4.95 10.95 -5.7 10.8 -5.75 10.65 -5.95 9.9 -5.1 9.15 -4.45 9 -4.3 8.8 -4.1 9 -3.95 9.15 -3.85
M 6.7 -6.9
Q 6.85 -6.75 6.95 -6.5 7.1 -6.75 7.25 -6.85 7.6 -7.15 7.9 -7.5 7.75 -7.65 7.65 -7.8 7.25 -7.5 7 -7.15 6.85 -7 6.7 -6.9
M 19 -15
Q 19.25 -14.9 19.35 -14.75 19.5 -14.9 19.65 -15 19.85 -15.15 20 -15.3 19.85 -15.55 19.65 -15.7 19.5 -15.45 19.35 -15.3 19.2 -15.2 19 -15 Z"/>

<path fill="#000000" fill-opacity="0.45098039215686275" stroke="none" d="
M 1.45 -1.6
Q 0.95 -1.1 0.45 -0.65 0.3 -0.45 0.1 -0.3 0.3 -0.2 0.45 0.05 0.55 -0.15 0.7 -0.4 1.2 -0.8 1.6 -1.3 1.55 -1.45 1.45 -1.6 Z"/>

<path fill="#000000" fill-opacity="0.5019607843137255" stroke="none" d="
M 8.25 -8.4
Q 8.1 -8.3 7.9 -8.15 7.75 -8 7.65 -7.8 7.75 -7.65 7.9 -7.5 8.1 -7.65 8.25 -7.75 8.4 -8 8.5 -8.15 8.3 -8.3 8.25 -8.4 Z"/>

<path fill="#000000" fill-opacity="0.592156862745098" stroke="none" d="
M 9.05 -8.75
Q 9 -8.95 8.9 -9.1 8.65 -8.95 8.5 -8.75 8.3 -8.55 8.25 -8.4 8.3 -8.3 8.5 -8.15 8.65 -8.25 8.8 -8.4 9 -8.55 9.05 -8.75 Z"/>

<path fill="#000000" fill-opacity="0.37254901960784315" stroke="none" d="
M 6.95 -6.5
Q 6.85 -6.75 6.7 -6.9 6 -6.2 5.4 -5.6 5.25 -5.5 5.1 -5.25 5.15 -5.2 5.4 -5.05 5.55 -5.1 5.65 -5.25 6.25 -5.95 6.95 -6.5 Z"/>

<path fill="#000000" fill-opacity="0.7254901960784313" stroke="none" d="
M 10.05 -9.65
Q 9.9 -9.85 9.7 -10 9.4 -9.75 9.15 -9.45 9 -9.25 8.9 -9.1 9 -8.95 9.05 -8.75 9.3 -9 9.4 -9.1 9.7 -9.45 10.05 -9.65 Z"/>

<path fill="#000000" fill-opacity="0.6431372549019608" stroke="none" d="
M 18.75 -14.15
Q 18.7 -14.3 18.45 -14.5 18.3 -14.3 18.1 -14.15 17.95 -13.95 17.8 -13.85 18.05 -13.7 18.1 -13.45 18.3 -13.6 18.5 -13.8 18.6 -13.95 18.75 -14.15
M 16.65 -19.4
Q 16.7 -19.6 16.7 -19.8 16.9 -20.05 16.9 -20.35 16.7 -20.05 16.45 -19.6
L 16.65 -19.4 Z"/>

<path fill="#000000" fill-opacity="0.7686274509803922" stroke="none" d="
M 17.3 -13.15
Q 17.1 -13.05 16.9 -12.9 17.1 -12.7 17.3 -12.55 17.35 -12.65 17.45 -12.9 17.85 -13.15 18.1 -13.45 18.05 -13.7 17.8 -13.85 17.45 -13.45 17.3 -13.15 Z"/>

<path fill="#000000" fill-opacity="0.33725490196078434" stroke="none" d="
M 20 -15.95
Q 19.85 -15.8 19.65 -15.7 19.85 -15.55 20 -15.3 20.15 -15.55 20.35 -15.65 20.5 -15.8 20.65 -15.95 20.5 -16.15 20.35 -16.3 20.15 -16.15 20 -15.95 Z"/>

<path fill="#000000" fill-opacity="0.3568627450980392" stroke="none" d="
M 13.45 -14.4
Q 13.65 -14.55 13.8 -14.75 13.65 -14.9 13.45 -15 13.15 -14.75 12.95 -14.3 12.95 -14.25 13.2 -14.15 13.4 -14.25 13.45 -14.4 Z"/>

<path fill="#000000" fill-opacity="0.7372549019607844" stroke="none" d="
M 13.8 -14.75
Q 13.95 -14.9 14.05 -15.05 14.1 -15.3 14.05 -15.65 13.9 -15.45 13.8 -15.3 13.65 -15.2 13.45 -15 13.65 -14.9 13.8 -14.75 Z"/>

<path fill="#000000" fill-opacity="0.7490196078431373" stroke="none" d="
M 12.5 -12.9
Q 12.5 -13.2 12.55 -13.45 12.4 -13.35 12.15 -13.15 12.05 -13.05 12 -12.9 12.05 -12.7 12.3 -12.55 12.4 -12.7 12.5 -12.9 Z"/>

<path fill="#000000" fill-opacity="0.5529411764705883" stroke="none" d="
M 14.95 -16.55
Q 15.05 -16.95 15.05 -17.2 14.7 -16.95 14.6 -16.55 14.55 -16.45 14.7 -16.3 14.85 -16.4 14.95 -16.55 Z"/>

<path fill="#000000" fill-opacity="0.41568627450980394" stroke="none" d="
M 17.1 -20.95
Q 16.95 -20.85 17.2 -20.7 17.3 -20.85 17.45 -21 17.7 -21.1 17.85 -21.25 17.6 -21.45 17.45 -21.7 17.2 -21.25 17.1 -20.95 Z"/>

<path fill="#000000" fill-opacity="0.4196078431372549" stroke="none" d="
M 18.75 -22.85
Q 18.95 -23 18.95 -23.15 19.1 -23.5 19 -23.75 18.85 -23.55 18.7 -23.5 18.5 -23.3 18.45 -23.15 18.6 -23 18.75 -22.85 Z"/>

<path fill="#000000" fill-opacity="0.8431372549019608" stroke="none" d="
M 18.05 -21.7
Q 18.1 -21.95 18.1 -22.25 17.95 -22.1 17.8 -21.85 17.7 -21.75 17.45 -21.7 17.6 -21.45 17.85 -21.25 17.95 -21.45 18.05 -21.7 Z"/>

<path fill="#000000" fill-opacity="0.6509803921568628" stroke="none" d="
M 30.95 -25.75
Q 30.8 -25.85 30.55 -26 30.55 -25.6 30.6 -25.35 30.8 -25.25 30.85 -25.1 31 -25.15 31.2 -25.4 31 -25.6 30.95 -25.75 Z"/>

<path fill="#000000" fill-opacity="0.42745098039215684" stroke="none" d="
M 31.85 -24.8
Q 31.7 -24.9 31.5 -25.1 31.35 -25.25 31.2 -25.4 31 -25.15 30.85 -25.1 31.1 -24.9 31.2 -24.7 31.35 -24.65 31.6 -24.5 31.7 -24.55 31.85 -24.8 Z"/>

<path fill="#000000" fill-opacity="0.7019607843137254" stroke="none" d="
M 29.6 -27.55
Q 29.55 -27.7 29.4 -27.8 29.15 -27.95 29.05 -28.15 28.95 -27.9 29.15 -27.55 29.15 -27.4 29.4 -27.25 29.45 -27.4 29.6 -27.55 Z"/>

<path fill="#000000" fill-opacity="0.34901960784313724" stroke="none" d="
M 29.4 -27.25
Q 29.55 -27.15 29.6 -27 29.8 -26.8 29.95 -26.55 30.1 -26.8 30.1 -26.9 29.95 -27.25 29.6 -27.55 29.45 -27.4 29.4 -27.25 Z"/>

<path fill="#000000" fill-opacity="0.35294117647058826" stroke="none" d="
M 27.45 -29.7
Q 27.65 -29.95 27.8 -30.05 27.65 -30.25 27.45 -30.35 27.3 -30.55 27.1 -30.65 27.05 -30.55 26.85 -30.25 26.95 -30.2 27.1 -30.05 27.3 -29.85 27.45 -29.7 Z"/>

<path fill="#000000" fill-opacity="0.27058823529411763" stroke="none" d="
M 28.7 -29.1
Q 28.55 -29.2 28.4 -29.45 28.05 -29.7 27.8 -30.05 27.65 -29.95 27.45 -29.7 27.75 -29.45 28.15 -29.05 28.25 -28.9 28.4 -28.8 28.55 -28.95 28.7 -29.1 Z"/>

<path fill="#000000" fill-opacity="0.5137254901960784" stroke="none" d="
M 21.8 -29.1
Q 21.65 -29.3 21.55 -29.35 20.35 -28.15 19.2 -26.8
L 19.35 -26.65
Q 19.5 -26.8 19.65 -26.9 20.75 -28.05 21.8 -29.1 Z"/>

<path fill="#000000" fill-opacity="0.47058823529411764" stroke="none" d="
M 24 -31.4
Q 23.9 -31.15 23.75 -31.05 23.65 -30.9 23.4 -30.65
L 23.65 -30.55
Q 24 -30.75 24.25 -31.05 24.15 -31.2 24 -31.4 Z"/>

<path fill="#000000" fill-opacity="0.996078431372549" stroke="none" d="
M 26.2 -30.95
Q 26.05 -31.15 25.9 -31.3 25.2 -30.9 24.55 -31.15 24.4 -31.2 24.25 -31.05 24 -30.75 23.65 -30.55
L 23.4 -30.65
Q 23.35 -30.55 23.15 -30.5 23 -30.2 22.85 -30.05 22.5 -29.7 22.2 -29.45 22 -29.2 21.8 -29.1 20.75 -28.05 19.65 -26.9 19.5 -26.8 19.35 -26.65 18.3 -25.35 19.2 -24 19.2 -23.9 19 -23.75 19.1 -23.5 18.95 -23.15 18.95 -23 18.75 -22.85 18.6 -22.65 18.45 -22.5 18.3 -22.35 18.1 -22.25 18.1 -21.95 18.05 -21.7 17.95 -21.45 17.85 -21.25 17.7 -21.1 17.45 -21 17.3 -20.85 17.2 -20.7 17.1 -20.55 16.9 -20.35 16.9 -20.05 16.7 -19.8 16.7 -19.6 16.65 -19.4 16.45 -19.25 16.25 -19.15 16.1 -18.9 15.95 -18.75 16 -18.5 15.85 -18.2 15.85 -17.95 15.6 -17.85 15.5 -17.7 15.35 -17.6 15.2 -17.35 15.05 -17.2 15.05 -16.95 14.95 -16.55 14.85 -16.4 14.7 -16.3 14.55 -16.15 14.35 -15.95 14.2 -15.8 14.05 -15.65 14.1 -15.3 14.05 -15.05 13.95 -14.9 13.8 -14.75 13.65 -14.55 13.45 -14.4 13.4 -14.25 13.2 -14.15 12.95 -13.95 12.8 -13.8 12.7 -13.6 12.55 -13.45 12.5 -13.2 12.5 -12.9 12.4 -12.7 12.3 -12.55 12.15 -12.4 12 -12.2 11.75 -12.05 11.65 -11.9 11.5 -11.8 11.35 -11.65 11.1 -11.5 10.95 -11.25 10.8 -11.15 10.65 -11 10.55 -10.8 10.3 -10.65 10.3 -10.35 10.3 -10.1 10.15 -9.9 10.05 -9.65 9.7 -9.45 9.4 -9.1 9.3 -9 9.05 -8.75 9 -8.55 8.8 -8.4 8.65 -8.25 8.5 -8.15 8.4 -8 8.25 -7.75 8.1 -7.65 7.9 -7.5 7.6 -7.15 7.25 -6.85 7.1 -6.75 6.95 -6.5 6.25 -5.95 5.65 -5.25 5.55 -5.1 5.4 -5.05 4.4 -4.1 3.5 -3.2 3.35 -3 3.2 -2.85 2.55 -2.2 1.95 -1.55 1.8 -1.45 1.6 -1.3 1.2 -0.8 0.7 -0.4 0.55 -0.15 0.45 0.05 0.3 0.1 0.1 0.35 -0.15 0.45 -0.15 0.6 -0.25 0.6 -0.3 0.75 -0.4 0.85 -0.55 0.95 -0.7 1 -0.8 1.25 -0.95 1.45 -1.15 1.5 -1.3 1.75 -1.45 1.85 -1.8 2.15 -2.1 2.3 -2.2 2.4 -2.35 2.15 -2.6 2.55 -2.95 2.8 -3.1 3.05 -3.2 3.1
L -3.25 3.1
Q -3.45 3.3 -3.6 3.55 -3.75 3.6 -3.95 3.7 -4.1 3.95 -4.25 4.1 -4.4 4.2 -4.6 4.45 -4.65 4.5 -4.85 4.7 -5 4.95 -5.2 5 -5.35 5.1 -5.45 5.35 -5.6 5.4 -5.85 5.5 -6.05 5.75 -6.1 5.9 -6.25 6.1 -6.45 6.25 -6.5 6.3 -6.7 6.55 -6.85 6.75 -7 6.8 -7.1 7 -7.25 7.15 -7.5 7.3 -7.65 7.5 -7.75 7.65 -7.9 7.75 -8.1 8 -8.25 8.15 -8.6 8.4 -8.9 8.5 -9.05 8.6 -9.15 8.4 -9.3 8.6 -9.5 8.85 -9.65 8.9 -9.8 9 -9.95 9.25 -10.15 9.4 -10.3 9.5 -10.45 9.65 -10.65 9.8 -10.75 10 -10.9 10.15 -11.15 10.3 -11.35 10.5 -11.35 10.65 -11.6 10.8 -11.75 10.9 -11.9 11.05 -12 11.2 -12.15 11.4 -12.4 11.55 -12.5 11.7 -12.65 11.9 -12.8 12.05 -13 12.2 -13.15 12.35 -13.3 12.45 -14.8 14.15 -16.4 15.6 -16.45 15.8 -16.7 15.95 -17.05 16.2 -17.3 16.6 -17.45 16.7 -17.6 16.75 -17.7 17 -17.85 17.2 -18.1 17.25 -18.2 17.5 -18.35 17.6 -18.55 17.75 -18.7 18 -18.85 18.1 -19 18.15 -19.2 18.4 -19.35 18.6 -19.5 18.8 -19.5 19.1 -19.5 19.45 -19.6 19.5 -19.75 19.7 -19.95 19.85 -20.1 20 -20.15 20.2 -20.35 20.35 -20.5 20.45 -20.75 20.65 -20.75 20.9 -20.75 21.25 -20.9 21.5 -21.1 21.6 -21.25 21.75 -21.3 21.9 -21.3 22.25 -21.4 22.5 -21.55 22.75 -21.6 22.9 -21.8 23 -21.95 23.15 -22 23.45 -22 23.7 -22.1 23.9 -22.2 24.1 -22.45 24.25 -22.6 24.4 -22.7 24.6 -22.85 24.65 -22.85 25 -23 25.25 -23 25.4 -23.25 25.55 -23.35 25.8 -23.5 25.9 -23.65 26 -23.85 26.25 -23.6 26.95 -24.65 27.8 -24.8 27.95 -25.05 28.1 -24.9 28.2 -24.65 28.45 -24.55 28.6 -24.4 28.8
L -24.25 28.6
Q -22 29.65 -20.1 28.1 -19.95 27.95 -19.75 27.8 -19.5 27.55 -19.1 27.2 -19 26.95 -19 26.8 -19.25 24.75 -17.85 22.8 -18.05 22.75 -18.05 22.55 -17.85 22.15 -17.6 21.9 -17.45 21.65 -17.3 21.6 -17.15 21.5 -17.05 21.25 -17.15 21.1 -17.05 20.9 -16.95 20.65 -16.65 20.25 -16.45 20.2 -16.3 20 -16.15 19.85 -15.95 19.7 -15.85 19.5 -15.6 19.35 -15.45 19.3 -15.45 19.05 -15.2 18.85 -15.05 18.8 -15.2 18.6 -15.2 18.5 -14.8 17.75 -14.15 17.2 -13.95 16.95 -13.8 16.85 -13.3 16.2 -12.65 15.55 -12.5 15.45 -12.3 15.3 -11.85 14.8 -11.4 14.4 -11.25 14.2 -11.1 14.15 -10.9 13.9 -10.75 13.75 -10.65 13.9 -10.4 14.15 -10.3 13.9 -10.15 13.75 -9.9 13.65 -9.75 13.5 -9.65 13.3 -9.5 13.1 -9.3 12.95 -9.15 12.8 -9.05 12.7 -8.9 12.45 -8.65 12.3 -8.6 12.2 -8.4 12.05 -8.25 11.9 -8.1 11.65 -7.9 11.55 -7.75 11.4 -7.6 11.2 -7.45 11.05 -7.25 10.95 -7.1 10.7 -6.95 10.65 -6.85 10.5 -6.7 10.25 -6.5 10.15 -6.35 10.05 -6.25 9.8 -6.05 9.65 -5.85 9.55 -5.85 9.35 -5.6 9.25 -5.45 9.1 -5.3 8.85 -5.2 8.75 -5 8.6 -4.85 8.4 -4.75 8.6 -4.6 8.75 -4.4 8.6 -4.25 8.4 -4.1 8.25 -3.95 8.1 -3.75 8 -3.6 7.75 -3.45 7.55 -3.35 7.5 -3.2 7.3 -2.95 7.15 -2.8 7 -2.7 6.8 -2.55 6.65 -2.35 6.55 -2.3 6.3 -2.1 6.15 -1.95 6.1 -1.7 5.9 -1.65 5.75 -1.45 5.6 -1.2 5.35 -1.05 5.15 -0.95 5.1 -0.8 4.95 -0.65 4.75 -0.5 4.7 -0.25 4.35 0.1 4.1 0.3 3.95 0.45 3.75 0.65 3.7 0.7 3.45 0.95 3.3 1.15 3.1 1.35 2.95 1.55 2.7 1.6 2.7 1.6 2.6 1.7 2.55 1.7 2.45 1.95 2.7 2.05 2.8 2.1 2.7 2.3 2.55 2.45 2.4 2.55 2.15 2.75 2 2.95 1.85 3.1 1.7 3.2 1.6 3.35 1.35 3.6 1.2 3.7 1.1 3.85 0.85 4 0.75 4.15 0.6 4.4 0.3 4.75 -0.05 4.9 -0.2 5.1 -0.3 5.4 -0.65 5.75 -1.05 5.95 -1.1 6 -1.2 6.5 -1.7 7 -2.2 7.1 -2.45 7.25 -2.5 8.1 -3.3 8.8 -4.1 9 -4.3 9.15 -4.45 9.9 -5.1 10.65 -5.95 10.8 -6.1 10.95 -6.25 11.5 -6.75 12 -7.15 12.15 -7.35 12.25 -7.5 12.55 -7.8 12.8 -8.15 12.95 -8.3 13.2 -8.4 13.45 -8.75 13.8 -9.2 13.95 -9.25 14.1 -9.45 14.45 -9.75 14.8 -10.1 14.85 -10.25 15.05 -10.35 15.2 -10.6 15.35 -10.65 15.5 -10.8 15.7 -11 15.85 -11.15 16 -11.25 16.2 -11.5 16.25 -11.65 16.45 -11.75 16.7 -11.9 16.5 -12.05 16.45 -12.15 16.7 -12.55 16.9 -12.9 17.1 -13.05 17.3 -13.15 17.45 -13.45 17.8 -13.85 17.95 -13.95 18.1 -14.15 18.3 -14.3 18.45 -14.5 18.6 -14.55 18.7 -14.8 18.95 -14.9 19 -15 19.2 -15.2 19.35 -15.3 19.5 -15.45 19.65 -15.7 19.85 -15.8 20 -15.95 20.15 -16.15 20.35 -16.3 20.5 -16.4 20.6 -16.6 21.3 -17.35 22.2 -18.2 22.45 -18.25 22.5 -18.45 22.7 -18.6 22.85 -18.75 22.9 -18.9 23.1 -19.1 23.25 -19.15 23.4 -19.4 23.6 -19.6 23.75 -19.7 24.05 -19.4 24.25 -19
L 24.05 -18.75
Q 24.25 -18.6 24.4 -18.45 24.55 -18.35 24.65 -18.2 24.8 -17.95 25.05 -17.85 25.3 -17.55 25.45 -17.2 25.45 -17.05 25.3 -16.95 25.45 -16.8 25.65 -16.6 25.9 -16.4 26.05 -15.95 26.05 -15.8 25.95 -15.7 27.3 -13.7 27.05 -11.65 26.95 -11.5 27.1 -11.3 27.3 -11.25 27.45 -11.05 27.65 -10.8 27.8 -10.65 27.9 -10.6 28.05 -10.65 28.95 -10.9 29.7 -11.3 29.85 -11.55 29.95 -11.65 30.1 -11.8 30.3 -12.05 30.45 -11.8 30.6 -11.65 30.8 -11.8 30.95 -12 31.1 -12.15 31.2 -12.3 31.35 -12.45 31.6 -12.65 31.75 -12.8 31.85 -12.9 32 -13.05 32.15 -13.3 32.35 -13.05 32.6 -12.9 32.65 -13.05 32.85 -13.3 33.05 -13.35 33.1 -13.55 33.3 -13.7 33.45 -13.85 33.6 -14.05 33.8 -14.25 34.25 -14.75 34.7 -15.15 34.85 -15.3 35 -15.45 35.25 -15.7 35.6 -16.15 35.75 -16.2 35.9 -16.4 36.1 -16.55 36.25 -16.7
L 36.1 -16.85
Q 36.25 -17.35 36.5 -17.6 36.65 -17.75 36.8 -17.95 36.9 -18 37.05 -18.25 37.3 -18.35 37.3 -18.6 37.5 -18.75 37.4 -19.15 37.3 -19.35 37.15 -19.4 36.5 -20.1 35.9 -20.75 35.75 -20.85 35.5 -21 35.4 -21.25 35.25 -21.45 35.1 -21.5 34.95 -21.7 34.7 -21.6 34.35 -21.75 34.1 -21.85 34 -21.95 33.85 -22.1 33.7 -22.25 33.6 -22.5 33.45 -22.6 33.2 -22.75 33.1 -22.9 32.25 -23.65 31.6 -24.5 31.35 -24.65 31.2 -24.7 31.1 -24.9 30.85 -25.1 30.8 -25.25 30.6 -25.35 30.55 -25.6 30.55 -26 30.45 -26.15 30.3 -26.35 30.1 -26.5 29.95 -26.55 29.8 -26.8 29.6 -27 29.55 -27.15 29.4 -27.25 29.15 -27.4 29.15 -27.55 28.95 -27.9 29.05 -28.15 28.9 -28.3 28.7 -28.4 28.55 -28.65 28.4 -28.8 28.25 -28.9 28.15 -29.05 27.75 -29.45 27.45 -29.7 27.3 -29.85 27.1 -30.05 26.95 -30.2 26.85 -30.25 26.7 -30.5 26.45 -30.65 26.4 -30.8 26.2 -30.95 Z"/>

<path fill="#000000" fill-opacity="0.1803921568627451" stroke="none" d="
M 26.45 -31.3
Q 26.3 -31.15 26.2 -30.95 26.4 -30.8 26.45 -30.65 26.7 -30.5 26.85 -30.25 27.05 -30.55 27.1 -30.65 26.95 -30.9 26.85 -30.95 26.7 -31.15 26.45 -31.3 Z"/>
</g>
</defs>

<g id="game" transform="matrix( 1, 0, 0, 1, 50.15,50.55) ">
<g transform="matrix( 1, 0, 0, 1, 0,0) ">
<use xlink:href="#game_0_Layer1_0_FILL"/>
</g>

<g transform="matrix( 1, 0, 0, 1, 1.5,-0.95) ">
<g transform="matrix( 1, 0, 0, 1, 0,0) ">
<use xlink:href="#game_icon_0_Layer0_0_FILL"/>
</g>
</g>
</g>
</svg>
