
<svg xmlns="http://www.w3.org/2000/svg" version="1.1" xmlns:xlink="http://www.w3.org/1999/xlink" preserveAspectRatio="none" x="0px" y="0px" width="30px" height="30px" viewBox="0 0 30 30">
<defs>
<g id="Layer2_0_FILL">
<path fill="#FFFFFF" stroke="none" d="
M 29.3 15
Q 29.3 9 25.05 4.75 20.8 0.5 14.8 0.5 8.8 0.5 4.55 4.75 0.3 9 0.3 15 0.3 21 4.55 25.25 8.8 29.5 14.8 29.5 20.8 29.5 25.05 25.25 29.3 21 29.3 15 Z"/>
</g>

<g id="Layer1_0_FILL">
<path fill="#613E00" stroke="none" d="
M 7.7 26.25
L 9.25 26.25 9.25 19.05 20.75 19.05 20.75 26.25 22.3 26.25 22.3 17.6 7.7 17.6 7.7 26.25
M 22.3 5.1
L 22.3 4.25 7.7 4.25 7.7 5.1 22.3 5.1 Z"/>

<path fill="#996600" stroke="none" d="
M 22.3 17.6
L 22.3 5.1 7.7 5.1 7.7 17.6 22.3 17.6 Z"/>
</g>

<g id="Layer0_0_FILL">
<path fill="#000000" stroke="none" d="
M 20.65 8.75
L 20.65 8.7
Q 20.63203125 7.68203125 19.9 6.95 19.875 6.925 19.85 6.9 19.11484375 6.2 18.1 6.2
L 18.05 6.2
Q 17.03203125 6.21796875 16.3 6.95 16.2748046875 6.9751953125 16.25 7 15.55 7.73515625 15.55 8.75
L 15.55 8.8
Q 15.55 9.85 16.3 10.6 16.844921875 11.10859375 17.55 11.25 17.7875 11.275 18 11.3 18.0671875 11.3 18.1 11.3 19.15 11.25 19.9 10.5 20.63203125 9.76796875 20.65 8.75 Z"/>
</g>

<path id="Layer0_0_1_STROKES" stroke="#613E00" stroke-width="1" stroke-linejoin="round" stroke-linecap="round" fill="none" d="
M 20.65 8.7
L 20.65 8.75
Q 20.63203125 9.76796875 19.9 10.5 19.15 11.25 18.1 11.3 18.0671875 11.3 18.025 11.3 17.7875 11.275 17.55 11.25 16.844921875 11.10859375 16.3 10.6 15.55 9.85 15.55 8.8
L 15.55 8.75
Q 15.55 7.73515625 16.25 7 16.2748046875 6.9751953125 16.3 6.95 17.03203125 6.21796875 18.05 6.2
L 18.1 6.2
Q 19.11484375 6.2 19.85 6.9 19.875 6.925 19.9 6.95 20.63203125 7.68203125 20.65 8.7 Z"/>
</defs>

<g transform="matrix( 1, 0, 0, 1, 0,0) ">
<use xlink:href="#Layer2_0_FILL"/>
</g>

<g transform="matrix( 1, 0, 0, 1, 0,0) ">
<use xlink:href="#Layer1_0_FILL"/>
</g>

<g transform="matrix( 1, 0, 0, 1, 0,0) ">
<use xlink:href="#Layer0_0_FILL"/>

<use xlink:href="#Layer0_0_1_STROKES"/>
</g>
</svg>
