
<svg xmlns="http://www.w3.org/2000/svg" version="1.1" xmlns:xlink="http://www.w3.org/1999/xlink" preserveAspectRatio="none" x="0px" y="0px" width="100px" height="100px" viewBox="0 0 100 100">
<defs>
<g id="hive_0_Layer3_0_FILL">
<path fill="#FFFFFF" stroke="none" d="
M 46.5 -39.75
Q 46.5 -44.75 41.5 -44.75
L -39.75 -44.75
Q -44.75 -44.75 -44.75 -39.75
L -44.75 41.5
Q -44.75 46.5 -39.75 46.5
L 41.5 46.5
Q 46.5 46.5 46.5 41.5
L 46.5 -39.75 Z"/>
</g>

<g id="hiveGroup_0_Layer3_0_FILL">
<path fill="#000000" stroke="none" d="
M 28.6 8.9
Q 26.8 8.2 24.15 8.2 21.45 8.2 19.6 8.9 17.75 9.6 17.75 10.6 17.75 11.6 19.6 12.3 20.15 12.5 20.85 12.65 19.15 12.85 17.85 13.25 15.4 14 15.4 15.05 15.4 16.1 17.85 16.85 18.4 17.05 19.1 17.2 17.9 17.4 16.9 17.7 13.9 18.7 13.9 20.1 13.9 21.5 16.9 22.45 17.4 22.6 18.05 22.8 17.15 22.95 16.35 23.15 13 24.15 13 25.55 13 27 16.35 27.95 16.45 27.95 16.5 28 15.65 28.15 14.9 28.4 10.8 29.6 10.8 31.3 10.8 33.05 14.9 34.25 16.5 34.75 18.45 35.05 18.05 35.1 17.7 35.2 14.7 36.05 14.7 37.2 14.7 38.4 17.7 39.2 20.7 40.05 24.95 40.05 29.25 40.05 32.25 39.2 35.25 38.4 35.25 37.2 35.25 36.05 32.25 35.2 31.75 35.1 31.35 35 33 34.7 34.55 34.25 38.6 33.05 38.6 31.35 38.6 29.6 34.55 28.4 33.7 28.15 32.9 27.95 36.3 27 36.3 25.6 36.3 24.15 32.9 23.15 31.85 22.85 30.7 22.65 31 22.55 31.35 22.45 34.35 21.5 34.35 20.1 34.35 18.7 31.35 17.7 30.2 17.35 28.95 17.15 29.45 17 29.95 16.85 32.45 16.1 32.45 15.05 32.45 14 29.95 13.25 28.75 12.9 27.3 12.7 28 12.55 28.6 12.3 30.5 11.6 30.5 10.6 30.5 9.6 28.6 8.9 Z"/>
</g>

<path id="hiveGroup_0_Layer2_0_1_STROKES" stroke="#454545" stroke-width="4" stroke-linejoin="round" stroke-linecap="round" fill="none" d="
M 49 24.5
Q 49 34.65 41.8 41.8 34.65 49 24.5 49 14.35 49 7.15 41.8 0 34.65 0 24.5 0 14.35 7.15 7.15 14.35 0 24.5 0 34.65 0 41.8 7.15 49 14.35 49 24.5 Z"/>
</defs>

<g id="hive" transform="matrix( 1, 0, 0, 1, 50.15,50.55) ">
<g transform="matrix( 1, 0, 0, 1, 0,0) ">
<use xlink:href="#hive_0_Layer3_0_FILL"/>
</g>

<g transform="matrix( 1.4596099853515625, 0, 0, 1.4596099853515625, -35.5,-33.25) ">
<g transform="matrix( 1, 0, 0, 1, 0,0) ">
<use xlink:href="#hiveGroup_0_Layer3_0_FILL"/>
</g>

<g transform="matrix( 1, 0, 0, 1, 0,0) ">
<use xlink:href="#hiveGroup_0_Layer2_0_1_STROKES"/>
</g>
</g>
</g>
</svg>
