
<svg xmlns="http://www.w3.org/2000/svg" version="1.1" xmlns:xlink="http://www.w3.org/1999/xlink" preserveAspectRatio="none" x="0px" y="0px" width="50px" height="50px" viewBox="0 0 50 50">
<defs>
<g id="imageOption_0_Layer1_0_FILL">
<path fill="#000000" fill-opacity="0.00392156862745098" stroke="none" d="
M 41.2 -4.5
L -3.05 -4.5 -3.05 41.75 41.2 41.75 41.2 -4.5 Z"/>
</g>

<g id="imageOption_0_Layer0_0_FILL">
<path fill="#009999" stroke="none" d="
M 21.1 3.55
L 21 3.25 19.35 3.65 19.3 3.65 17.65 3.25 17.55 3.55 15.3 4.6 15.65 5.25 15.7 5.4 15.55 5.65 12.7 7.25 13.4 9 14.55 9 17.25 11.6 19.1 11.95 19.55 11.95 21.35 11.6 24.1 9 25.25 9 25.9 7.25 23.05 5.65 22.9 5.4 22.95 5.25 23.35 4.6 21.1 3.55
M 22.05 9.55
L 21 11 20 11.25 19.85 10.3 21.55 6.6 22.05 9.55
M 16.6 9.55
L 17.05 6.6 18.75 10.3 18.6 11.25 17.65 11 16.6 9.55 Z"/>

<path fill="#00BC9C" stroke="none" d="
M 17.05 6.6
L 16.6 9.55 17.65 11 18.6 11.25 18.75 10.3 17.05 6.6
M 21 11
L 22.05 9.55 21.55 6.6 19.85 10.3 20 11.25 21 11 Z"/>

<path fill="#015F5C" stroke="none" d="
M 36.5 -0.5
L 2.2 -0.5
Q 1.1 -0.1 0.55 0.6 -0.55 2.05 2.45 3.75 2.95 3.4 3.45 3 4.5 2.25 4.7 2.25
L 8.2 4 11.2 4
Q 11.25 4 13.9 5.65 14.18046875 5.8037109375 14.45 5.95
L 15.65 5.25 15.3 4.6 17.55 3.55 17.65 3.25 19.3 3.65 19.35 3.65 21 3.25 21.1 3.55 23.35 4.6 22.95 5.25 24.2 5.95
Q 24.50234375 5.81328125 24.8 5.65 27.45 4 27.5 4
L 30.5 4 34 2.25
Q 34.2 2.25 35.25 3 35.75 3.4 36.25 3.75 39.25 2.05 38.15 0.6 37.6 -0.1 36.5 -0.5 Z"/>
</g>
</defs>

<g id="imageOption" transform="matrix( 1, 0, 0, 1, 5.55,6) ">
<g transform="matrix( 1, 0, 0, 1, 0,0) ">
<use xlink:href="#imageOption_0_Layer1_0_FILL"/>
</g>

<g transform="matrix( 1, 0, 0, 1, 0,0) ">
<use xlink:href="#imageOption_0_Layer0_0_FILL"/>
</g>
</g>
</svg>
