
<svg xmlns="http://www.w3.org/2000/svg" version="1.1" xmlns:xlink="http://www.w3.org/1999/xlink" preserveAspectRatio="none" x="0px" y="0px" width="50px" height="50px" viewBox="0 0 50 50">
<defs>
<g id="pin_0_Layer0_0_FILL">
<path fill="#000000" fill-opacity="0.984313725490196" stroke="none" d="
M 27.3 20.7
Q 30.5 15.35 35.75 11.9 35.75 11.7 35.65 11.55 31.35 4.15 23.85 0 21.85 1.2 20.65 3.45 17.45 9.75 8.9 10.55 4.6 10.95 2.15 12.75 1.45 12.7 1.95 13.45 5.25 18.8 9.8 22.95 9.6 22.95 9.5 23.05 4.95 29.35 0 35.3
L 0 35.5
Q 6.7 31.15 13.2 26.35 13.4 26.35 13.5 26.45 17 31.5 23 34.05 24.6 33.5 24.65 31.05 24.75 24.9 27.3 20.7 Z"/>
</g>
</defs>

<g transform="matrix( 1, 0, 0, 1, 9,7) ">
<g transform="matrix( 1, 0, 0, 1, 0,0) ">
<use xlink:href="#pin_0_Layer0_0_FILL"/>
</g>
</g>
</svg>
