
<svg xmlns="http://www.w3.org/2000/svg" version="1.1" xmlns:xlink="http://www.w3.org/1999/xlink" preserveAspectRatio="none" x="0px" y="0px" width="100px" height="100px" viewBox="0 0 100 100">
<defs>
<g id="signout_mc_0_Layer1_0_FILL">
<path fill="#FFFFFF" stroke="none" d="
M 44.65 -39.15
Q 44.65 -44.15 39.65 -44.15
L -41.6 -44.15
Q -46.6 -44.15 -46.6 -39.15
L -46.6 42.1
Q -46.6 47.1 -41.6 47.1
L 39.65 47.1
Q 44.65 47.1 44.65 42.1
L 44.65 -39.15 Z"/>
</g>

<g id="signout_mc_0_Layer0_0_FILL">
<path fill="#000000" stroke="none" d="
M 37.55 -9.4
Q 38.2 -11.05 37.55 -12.65 34.55 -19.9 28.65 -25.9 16.9 -37.65 0.25 -37.65 -16.4 -37.65 -28.15 -25.9 -39.9 -14.15 -39.9 2.5 -39.9 19.15 -28.15 30.9 -16.4 42.65 0.25 42.65 16.9 42.65 28.6 30.9
L 28.65 30.85
Q 34.65 24.85 37.65 17.6 38.3 15.95 37.65 14.25 36.9 12.6 35.2 11.9 33.55 11.2 31.85 11.9 30.2 12.6 29.5 14.35 27.2 19.95 22.45 24.7 13.25 33.9 0.25 33.9 -12.75 33.9 -21.95 24.7 -31.1 15.5 -31.1 2.5 -31.1 -10.5 -22 -19.7
L -21.95 -19.75
Q -12.75 -28.85 0.25 -28.85 13.25 -28.85 22.45 -19.7 27.1 -15.1 29.45 -9.4 30.1 -7.7 31.8 -7 33.45 -6.3 35.15 -7 36.8 -7.7 37.55 -9.3
L 37.55 -9.4
M 14.65 -0.85
Q 14.15 -0.85 13.75 -0.55 12.6 0.05 12.6 3.1 12.6 7.7 15.05 7.35
L 40.9 7.35
Q 43.3 7.7 43.3 3.1 43.3 0.1 42.3 -0.5 41.85 -0.85 41.35 -0.85
L 14.65 -0.85 Z"/>
</g>
</defs>

<g id="signout" transform="matrix( 1, 0, 0, 1, 51.15,49.45) ">
<g transform="matrix( 1, 0, 0, 1, 0,0) ">
<use xlink:href="#signout_mc_0_Layer1_0_FILL"/>
</g>

<g transform="matrix( 1, 0, 0, 1, 0,0) ">
<use xlink:href="#signout_mc_0_Layer0_0_FILL"/>
</g>
</g>
</svg>
