
<svg xmlns="http://www.w3.org/2000/svg" version="1.1" xmlns:xlink="http://www.w3.org/1999/xlink" preserveAspectRatio="none" x="0px" y="0px" width="50px" height="50px" viewBox="0 0 50 50">
<defs>
<g id="tweet_0_Layer1_0_FILL">
<path fill="#000000" fill-opacity="0.00392156862745098" stroke="none" d="
M 43.2 -5.5
L -1.05 -5.5 -1.05 40.75 43.2 40.75 43.2 -5.5 Z"/>
</g>

<g id="tweet_0_Layer0_0_FILL">
<path fill="#011017" stroke="none" d="
M 41 3.55
Q 42.05 2.2 42.55 0.65 39.85 2.25 36.85 2.85 35.6 1.5 33.95 0.75 32.2 0 30.3 0 26.6 0 23.95 2.65 21.35 5.25 21.35 9 21.35 10.05 21.55 11 16.05 10.75 11.15 8.25 6.45 5.8 3.05 1.65 1.85 3.75 1.85 6.15 1.85 8.45 2.9 10.45 4 12.45 5.8 13.65 3.7 13.6 1.75 12.5
L 1.75 12.65
Q 1.75 15.9 3.8 18.35 5.85 20.8 8.95 21.45 7.8 21.75 6.6 21.75 5.75 21.75 4.9 21.6 5.8 24.3 8.05 26 10.4 27.8 13.3 27.8 10.95 29.7 8.15 30.65 5.25 31.65 2.15 31.65 1 31.65 0 31.55 3 33.5 6.45 34.5 10 35.55 13.75 35.55 19.7 35.55 24.7 33.25 29.3 31.15 32.75 27.25 35.9 23.65 37.65 19.05 39.3 14.55 39.3 10.05 39.3 9.45 39.3 8.85 41.95 6.95 43.75 4.2 41.3 5.3 38.6 5.65 40 4.8 41 3.55 Z"/>
</g>
</defs>

<g id="tweet" transform="matrix( 1, 0, 0, 1, 2.65,7.75) ">
<g transform="matrix( 1, 0, 0, 1, 0,0) ">
<use xlink:href="#tweet_0_Layer1_0_FILL"/>
</g>

<g transform="matrix( 1, 0, 0, 1, 0,0) ">
<use xlink:href="#tweet_0_Layer0_0_FILL"/>
</g>
</g>
</svg>
