
<svg xmlns="http://www.w3.org/2000/svg" version="1.1" xmlns:xlink="http://www.w3.org/1999/xlink" preserveAspectRatio="none" x="0px" y="0px" width="320px" height="320px" viewBox="0 0 320 320">
<defs>
<g id="Mask_5_MASK_0_FILL">
<path fill="#FFFFFF" stroke="none" d="
M 268.05 164.8
Q 268.05 119.65 236.15 87.75 204.25 55.9 159.1 55.9 114 55.9 82.1 87.75 50.2 119.65 50.2 164.8 50.2 209.9 82.1 241.8 114 273.75 159.1 273.75 204.25 273.75 236.15 241.8 268.05 209.9 268.05 164.8 Z"/>
</g>

<g id="Layer5_0_FILL">
<path fill="#5D7632" stroke="none" d="
M 280.7 197.75
Q 280.3 197.65 279.9 197.6 278.95 197.4 278.2 197.55 277.75 199.0728515625 277.15 200.5 276.8923828125 201.1345703125 276.6 201.75 275.05 204.9 273.5 208 272.65 209.75 271.15 211.1 269.65 212.45 268.25 213.95 266.55 215.75 265.15 217.85 264.1 219.45 262.7 220.65 259.1 223.85 255.95 227.5 253.4 230.55 250.2 232.8 247.45 234.85 244.65 236.75 242.95 237.9 241.2 238.95 234.15 243.1 226.9 246.9 224.9 248 222.75 248.7 218.7 250.05 214.6 251 210.9 251.9 207.25 252.8 200.3 254.5 193.3 255.7 185.3 257.1 177.25 258.35 174.15 258.85 171.05 259.05 163.7 259.5 156.3 260.15 154.25 260.3 152.2 260.35 146.65 260.5 141.1 260.65 133.25 260.8 125.5 260 122.2 259.7 118.9 259.3 112.25 258.55 105.75 257.4 98.15 256.05 90.55 254.4 88.3 253.95 86.15 253.25 84.4 252.7 82.75 251.95 79.3 250.45 76.1 248.7 69.8 245.3 63.9 241.2 62.45 240.15 60.9 239.25 56.65 236.8 52.85 233.35 47.8 228.85 43.75 223.45 43.65 223.35 43.65 223.25 43.3 222.8 42.95 222.4 43.8 230.1 47 237.15 48.7 240.85 50.95 244.2 51.55 245.1 52.1 246.1 55.6 252.6 60.2 258.45 61 259.5 61.8 260.55 63.65 263.05 65.15 265.8 67.45 270 71.65 272.9 73.25 274 75 274.8 77 275.65 78.75 276.75 79.7 277.35 80.75 277.55 82.5 277.9 84.1 278.8 86.6 280.2 89.3 280.8 91.65 281.3 93.9 282.2 94.7 282.5 95.45 282.8 100.55 284.8 105.8 286.7 108.55 287.7 111.5 288.25 113.55 288.65 115.65 289.1 118.5 289.65 121.4 290.15 125.75 290.9 130.1 291.8 131.65 292.15 133.3 292.25 140.65 292.7 148.05 292.6 155.25 292.4 162.45 291.95 169.9 291.5 177.2 290.3 180.55 289.8 183.9 289.15 185.65 288.85 187.45 288.65 195.25 287.75 202.65 285.45 205.95 284.45 209.05 283.15 211.55 282.05 214.15 281.35 221.65 279.25 228.15 275.3 230.15 274.1 232.15 273.05 233.3 272.4 234.4 271.7 240.45 267.75 245.7 262.85 246.85 261.75 247.95 260.6 253.4 254.9 259.05 249.5 260 248.6 260.9 247.65 266.3 242.05 272 236.55 273.35 235.25 274.6 233.85 280 228 284.25 221.35 285.05 220.05 285.65 218.6 287.45 214.55 287.05 210 286.9 207.95 287 205.9 287.1 204.05 286.65 202.9 286.3 202.2 286.05 201.35 285.923828125 200.8453125 285.65 200.5 285.471484375 200.29765625 285.25 200.15
L 284.85 200.55
Q 284.7939453125 200.5263671875 284.7 200.5 283.8322265625 200.079296875 282.75 198.95 281.95 198.05 280.7 197.75 Z"/>

<path fill="#5E8053" stroke="none" d="
M 258.95 193.15
Q 258.55 194.15 257.95 195
L 257.7 194.95
Q 256.9 194.8 256.1 194.85 249.1677734375 195.3947265625 244.35 200.5 244.296875 200.549609375 244.25 200.6 243.75 201.15 243.2 201.55 242.95 201.75 242.6 201.65 240.2 200.75 237.6 201.05 237.3 201.1 236.95 201.2 233.35 201.85 230.75 204.35 230 205.05 229.25 205.65 229 205.9 228.6 205.75 227.95 205.45 227.3 205.2 226.5 204.85 225.7 204.9 219.35 205.25 213.35 207.4 212.05 207.85 211 208.45 208 210.15 206.35 213.25 205.8 214.3 204.95 215.1
L 204.7 215
Q 202.6 214 200.15 213.95 199.75 213.15 198.95 212.5 198.4 212.05 197.75 211.9 196.15 211.65 194.5 211.65 193.25 211.65 192.15 211.25 191.25 210.95 190.8 209.55 190.6 208.95 190.25 208.9 187.65 208.4 185.05 209.15 184.2 209.4 184.05 208.8 184 208.55 183.8 208.35 181.95 206.15 178.45 206.75 176.1 207.1 175.2 208.4 174.45 209.55 173.85 210.3 173.25 211.05 171.9 211.1 168.8 211.2 165.75 211.4 165.1 211.4 164.95 211.85 164.3 213.35 164.25 214.9 163.05 214.1 161.95 213.45 161.65 213.25 161.2 213.25 159.65 213 158.6 213.95 158.15 214.3 157.5 214.5 155.55 215.1 154.95 216.65 153.15 217 151.4 217.85 150.35 218.4 149.2 218.55 148.55 218.65 148.1 218.15 147.65 217.6 147.1 217.15 145.7 216.1 144.15 215.55 141.05 214.35 137.3 215.2 137.15 215.25 137 215.3 135.95 215.55 135.2 216.1 133.75 217.3 132.55 215.7 132.25 215.3 131.95 215.05 131.45 214.5 131.05 213.95 130.25 212.8 128.75 212.65 127.15 212.45 125.5 212.3 121.85 211.95 119 214.2 117.95 215.05 117.5 214.15 116.95 213.2 116.1 211.95 115.65 211.2 115 210.55 113.75 209.25 112.35 208.45 109.2 206.8 105.35 207.9 104.55 208.15 103.7 208.2 102.7 208.35 102.05 207.1 100.25 203.9 97.2 202 96.75 201.75 96.25 201.5 94.5 200.6 92.65 201.3 92 201.55 91.45 201.5 90.45 201.3 89.65 200.15 88.95 199.15 88 198.75 87.1 198.3 86.05 198.35 84 198.5 82 198.25 77.7 197.75 75.3 200.9 74.95 201.35 74.45 201.5 74.35 201.55 74.15 201.35 73.3 200.55 72.95 199.55 72.35 197.9 70.95 197.1 69.85 196.45 68.7 196.05 67.35 195.6 65.95 195.5 63.05 195.3 61.35 197.6 60.8 198.3 60.05 198.75 59.75 198.9 59.5 198.7 59.15 198.5 58.9 198.1 57.05 195.55 54.45 194.95 53.1 194.6 51.55 194.85 50.55 195 49.75 195.55 46.85 197.6 43.75 199.15 43.75 199.2 43.75 199.3 43.75 200.55 43.75 201.75 43.75 203.7 43.75 205.65 43.75 210.85 43.75 216.05 43.85 215.7 43.9 215.35 44.4 213.5 46.3 212.65 47.65 212.05 49.15 211.8 53.55 210.95 56.9 213.7 57.6 214.2 57.7 215.75 57.7 216.15 57.7 216.55 58.75 214.85 60.65 212.95 61.95 211.65 63.9 211.85 65.5 212.05 67.15 212.1 70.1 212.25 69.85 215.3 69.85 215.75 69.9 216.2 70.05 217.15 70 218.2 70 218.85 70.85 218.7 73.5 218.15 74.7 220.15 75.2 221.05 74.95 222.7 74.8 223.9 76.2 223.5 77.75 223.05 79.5 222.8 81.95 222.45 82.9 224.75 83 225 83.2 225.2 83.9 225 84.1 223.95 84.55 221.25 87.25 219.75 87.8 219.45 88.7 218.9 89.15 218.6 89.7 218.45 92.55 217.55 95.45 218.75 95.7 218.8 95.9 219 96.1 219.25 96.3 219.45 99.55 214.1 105.75 214.8 106.8 214.9 107.75 215.2 108.85 215.55 109.85 216.2 110.6 216.7 111.15 216.8 112.15 216.95 113.15 216.9 118.15 216.55 120.95 220.3 121.95 221.65 122 223.55 122 224.35 122.1 225.2 122.2 225.8 122.5 226.2 122.6 226.4 123 226.35 125.2 226.15 127.05 227 127.75 227.3 127.75 228.05 127.75 228.9 127.85 229.7 127.95 230.5 127.95 231.35 130.15 231.4 131.75 229.8 133.1 228.55 134.95 228.55 137.05 228.6 137.95 230.45 138.7 231.9 139.85 232.55 140.45 231.85 141.4 230.85 141.9 230.3 142.45 229.8 143.9 228.45 145.95 229.1 146.65 229.3 147.2 229.75 148.45 230.75 149.4 231.2 150.15 231.6 150.35 230.95 150.55 230.1 151.1 229.4 153.75 226.05 157.55 225.3 159.25 225 160.85 225.45 162.9 226 164.55 227.2 165.3 227.7 165.3 228.45 166.25 228.15 166.9 227.05 167.4 226.2 168.3 225.75 169.9 224.85 171.9 225.1 176.7 225.7 179.6 229 182.25 232.05 182.55 235.85 183.75 234.55 185.9 233.95 187.85 233.45 189.05 235.1 190.15 236.7 191.3 237.15 191.6 237.3 191.95 237 192.45 236.5 193 236.15 193.45 235.85 194.05 235.85 196 235.9 197.75 236.7 198.5 236.4 198.25 235.05 197.9 232.8 198.45 230.9 198.6 230.3 198.65 229.7 198.65 229.2 199.35 228.8 202.35 226.9 205.55 229.35 206.7 230.25 206.95 229.35 208.7 224.05 213.4 221.9 213.8 221.7 214.2 221.7 215.45 221.65 216.2 220.6 217.6 218.7 219.95 219 221.8 219.25 223.6 219.6 226.75 220.25 229 222.7 229.6 222.25 230.4 221.15 231.3 219.8 233.15 220.1 235.55 220.45 237.45 222 237.6 222.1 238 222.05 239.55 221.95 240.95 221.75 242.55 221.5 244.2 221.6 245 221.7 245.75 221.55 246.05 221.5 246.05 221.05 246.05 218.75 248.2 217.65 250 216.7 252 217.05 252.6 217.15 253.2 217.15 253.4 217.15 253.65 216.95 254.45 216.1 255.7 215.35 258.15 213.95 261.45 213.9
L 261.6 213.3
Q 261.85 212.45 262.1 211.6 262.25 211 262.55 210.55 262.85 210 263.4 209.5 265.95 207.25 269.2 206.75 269.45 206.7 269.5 206.25 270.2 202.85 272.9 201.3 273.15 201.15 273.4 201.05 273.972265625 200.8865234375 274.5 200.5 274.9404296875 200.177734375 275.35 199.7 275.8 199.1 276.3 198.55 277.1 197.75 278.2 197.55 278.5 196.4 278.7 195.2 279.6 189.75 278.85 184.5 278.7 183.5 278.7 182.45 278.7 181.75 278.7 181 278.55 180.8 278.4 180.65 278 180.15 277.6 179.5 277.25 178.85 276.9 178.5 276.8 178.4 276.65 178.3 276.2 177.95 275.95 177.45 275.85 177.35 275.8 177.25 275.65 177.3 275.5 177.35 270.2 180.05 267.5 185.3 267.2 185.95 266.65 186.1 264.9 186.45 263.5 187.45 260.45 189.55 258.95 193.15 Z"/>

<path fill="#C7C35E" stroke="none" d="
M 166.15 185.6
Q 164.55 185.7 164.85 184.1 164.9 183.7 164.7 183.55 162.8 181.85 159.95 182.8 158.3 183.35 158.05 182 157.95 181.45 157.7 180.95 157.5 180.6 157.25 180.35 156.9 180 156.6 179.9 153.6 179.25 151.4 180.85 151.15 181.05 151 181 150.05 180.9 149.65 180.05 149.5 179.8 149.25 179.7 145.25 178.05 142.3 180.8 142.1 181.05 141.85 181.05 140.8 181.3 140.55 180.45 140.5 180.2 140.25 180.05 139.35 179.55 138.2 179.45 136.5 179.3 135.65 179.9 135.35 180.2 135.2 180.55 134.3 182.4 133.3 184.1 133.15 183.2 132.05 183.35 131.05 183.5 130 183.65 129.6 183.7 129.45 183.9 128 185.75 128.5 189 128.55 189.25 128.8 189.35 131.6 190.35 134.1 191.9 133.7 191.9 133.35 192 132.9 192.1 132.45 192.3 131.6 192.55 131.45 193.6 131.2 195.1 130.8 196.45 130.6 196.25 130.4 196 130.2 195.8 129.95 195.75 128.75 195.6 127.55 195.5 126.55 195.35 126 196.1 125.2 197.25 125.35 198.9 125.45 199.7 124.2 199.45 122.65 199.1 121.45 199.85 120.95 200.15 120.45 200.35 119.35 200.85 119.75 202.45 119.55 201.9 118.9 201.8 116.9 201.55 115.7 202.15 116.05 201.7 115.95 200.95 115.85 199.55 114.95 198.35 113.9 196.95 112.35 196.45 112.9 196.1 113.7 195.3 114 195 114.05 194.7 114.6 193.15 114.05 192.3 113.05 190.5 110.3 190.7 110.5 190.5 110.65 190.25 110.9 189.85 111.25 189.65 111.5 189.45 111.7 189.25 112.5 188.2 112.2 186.6 112.15 186.35 112.15 186.15 112.1 184.75 111.5 184.15 110.85 183.5 110.3 183.45 108.65 183.3 107 183.45 105.7 183.6 105.4 182.9 105.1 182.1 104.85 181.3 104.75 181.05 104.5 181 103.3 180.8 102.05 180.75 101.15 180.7 100.95 179.95 100.85 179.6 100.7 179.55 99.8 179.2 98.8 179.05 96.95 178.85 95.55 179.65 95.3 179.8 95.05 179.9 94.7 180 94.6 179.85 94.2 178.95 93.45 178.9 92.4 178.75 91.4 178.75 91 178.75 90.65 178.95 88.3 180 88.1 182.05 87.7 181.85 87.35 181.55 87.1 181.25 86.75 180.95 85.2 179.5 82.75 180 79.9 180.55 79.05 182.9 78.65 182.45 78.25 182.05 78.05 181.85 77.8 181.8
L 77.75 181.8
Q 76.15 181.6 74.95 182.4 74 182.9 73.8 184.1 73.75 184.5 73.55 184.8 72.5 186.25 72.9 188.2 71.6 185.75 68.8 186.2 68 186.35 67.15 186.45 64.35 186.8 63.45 189.05 63.45 188.85 63.45 188.65 63.25 188.2 62.95 187.95 62.65 187.6 62.45 187.25 61.8 186.1 60.6 186.1 58.15 186.15 55.65 186.35 55.05 186.35 54.95 186.7 54.25 190.1 54.85 193.55
L 54.45 194.95
Q 57.05 195.55 58.9 198.1 59.15 198.5 59.5 198.7 59.75 198.9 60.05 198.75 60.8 198.3 61.35 197.6 63.05 195.3 65.95 195.5 67.35 195.6 68.7 196.05 69.85 196.45 70.95 197.1 72.35 197.9 72.95 199.55 73.3 200.55 74.15 201.35 74.35 201.55 74.45 201.5 74.95 201.35 75.3 200.9 77.7 197.75 82 198.25 84 198.5 86.05 198.35 87.1 198.3 88 198.75 88.95 199.15 89.65 200.15 90.45 201.3 91.45 201.5 92 201.55 92.65 201.3 94.5 200.6 96.25 201.5 96.75 201.75 97.2 202 100.25 203.9 102.05 207.1 102.7 208.35 103.7 208.2 104.55 208.15 105.35 207.9 109.2 206.8 112.35 208.45 113.75 209.25 115 210.55 115.65 211.2 116.1 211.95 116.95 213.2 117.5 214.15 117.95 215.05 119 214.2 121.85 211.95 125.5 212.3 127.15 212.45 128.75 212.65 130.25 212.8 131.05 213.95 131.45 214.5 131.95 215.05 132.25 215.3 132.55 215.7 133.75 217.3 135.2 216.1 135.95 215.55 137 215.3 137.15 215.25 137.3 215.2 141.05 214.35 144.15 215.55 145.7 216.1 147.1 217.15 147.65 217.6 148.1 218.15 148.55 218.65 149.2 218.55 150.35 218.4 151.4 217.85 153.15 217 154.95 216.65 155.55 215.1 157.5 214.5 158.15 214.3 158.6 213.95 159.65 213 161.2 213.25 161.65 213.25 161.95 213.45 163.05 214.1 164.25 214.9 164.3 213.35 164.95 211.85 165.1 211.4 165.75 211.4 168.8 211.2 171.9 211.1 173.25 211.05 173.85 210.3 174.45 209.55 175.2 208.4 176.1 207.1 178.45 206.75 181.95 206.15 183.8 208.35 184 208.55 184.05 208.8 184.2 209.4 185.05 209.15 187.65 208.4 190.25 208.9 190.6 208.95 190.8 209.55 191.25 210.95 192.15 211.25 193.25 211.65 194.5 211.65 196.15 211.65 197.75 211.9 198.4 212.05 198.95 212.5 199.75 213.15 200.15 213.95 202.6 214 204.7 215
L 204.95 215.1
Q 205.8 214.3 206.35 213.25 208 210.15 211 208.45 212.05 207.85 213.35 207.4 219.35 205.25 225.7 204.9 226.5 204.85 227.3 205.2 227.95 205.45 228.6 205.75 229 205.9 229.25 205.65 230 205.05 230.75 204.35 233.35 201.85 236.95 201.2 237.3 201.1 237.6 201.05 240.2 200.75 242.6 201.65 242.95 201.75 243.2 201.55 243.75 201.15 244.25 200.6 244.296875 200.549609375 244.35 200.5 249.1677734375 195.3947265625 256.1 194.85 256.9 194.8 257.7 194.95
L 257.95 195
Q 258.55 194.15 258.95 193.15 260.45 189.55 263.5 187.45 264.9 186.45 266.65 186.1 267.2 185.95 267.5 185.3 270.2 180.05 275.5 177.35 275.65 177.3 275.8 177.25 274.55 175.45 272.5 174.7 271.3 174.25 270 173.95 266 173.1 262.65 175.05 262.25 175.3 261.85 175.3 261.65 175.3 261.4 175.15 259 173.9 257 175.55 255.95 176.35 255.25 176.65 253.85 177.1 253.85 175.9 253.85 175.7 253.65 175.5 251.646875 173.7244140625 249 174.6 248.9458984375 174.6091796875 248.9 174.6 248.7830078125 174.9056640625 248.5 175 248.3857421875 174.9384765625 248.25 174.85 247.9115234375 174.99921875 247.55 175.2 246.65 175.7 246.15 176.5 245.35 177.8 243.8 177.4 243.55 177.35 243.3 177.3 242.75 177.15 242.15 177.05 237.3 176.45 235.05 180.35 234.95 180.6 234.75 180.6 234.55 180.6 234.3 180.6 229.75 179.8 228.45 184.05 228.35 184.3 228.1 184.35 227.55 184.5 226.95 184.7 226.75 184.75 226.5 184.75 225.65 184.7 225.65 185.35 225.65 186.1 225.7 186.9 225.7 187.95 225.7 189.05 225.5 188.85 225.25 188.8 224.25 188.65 223.25 188.65 222.8 188.65 222.55 188.85 221.5 189.55 220.35 189.85 221.2 188.35 221.2 186.55 221.2 186.15 221 185.85 220.75 185.25 220.4 184.85 219.5 183.9 217.9 184.05 217.5 184.1 217.45 184 217 182.9 216.15 182.2
L 215.25 182.2 215.25 181.6
Q 215 181.45 214.75 181.35 214.5 181.3 214.25 181.25 213.45 181.05 212.55 181.05 211.85 181.1 211.9 180.4 212 179.1 211.3 178.9 209.9 178.5 208.95 179.3 207.9 180.15 207.65 179.2 207.6 178.95 207.45 178.8 207.15 178.5 206.4 178.5 205.55 178.55 204.65 178.6 204.5 178.6 204.35 178.6 203.25 178.7 202.7 179.2 202.05 179.8 201.45 179.9 201.05 180 201.05 179.9 200.8 178.8 199.45 179.3 198.75 179.6 198.15 179.95 198.1 180 198.05 180.05
L 198 182.2 196.15 182.2
Q 196.15 182.24921875 196.1 182.35 195.9 182.8 195.7 183.3 194.65 182.15 192.45 182.4 191.6 182.45 191.3 182.95 191 183.5 190.65 183.6 189.6 183.8 188.3 183.6 186.45 183.35 185.7 184.85 185 186.35 184.5 187.75 184.4 188 184.2 188 183.8 188 183.4 187.95 181.6 187.85 180.1 188.65 179.7 188.85 179.25 188.9 178.65 189.05 178.3 189.35 177.4 190.05 177.85 191.4 178.05 192.1 178.3 192.8 178.9 194.55 180.5 195.2 179.3 195.2 178.05 195.35 177.65 195.4 177.35 195.75 177.05 196 176.7 196.25 176.15 196.55 176 197.25 176 197.05 176 196.85 176.15 194.4 173.95 194.8 172.975 194.9345703125 172 195.05 171.525 195.1345703125 171.05 195.2 171.05 194.4 170.9 193.6 170.85 193.35 170.8 193.1 170.65 192.75 170.45 192.45 170.25 192.1 170.1 191.8 169.45 190.65 168.2 190.7 168.4 190.5 168.6 190.25 169 189.85 169.15 189.35 170 186.4 167.4 185.7 166.75 185.55 166.15 185.6
M 210.9 182.5
Q 212.55 182.45 212.55 184 212.55 184.55 212.15 185.15 211.65 185.75 210.9 185.75 209.9 185.75 209.5 184.95 209.25 184.5 209.25 184 209.25 182.6 210.9 182.5
M 212.35 190.25
Q 212.15 189.8 212.15 189.35 212.15 187.55 213.8 187.7 215.45 187.95 215.45 189.35 215.45 190 215 190.5 214.55 191.1 213.8 191.1 212.75 191.1 212.35 190.25
M 233.9 195.6
Q 234.2 193 237.1 191.95 237.2 193.55 237.05 194.75 237 195 236.9 195.25 236.8 195.6 236.6 195.95 236.45 196.35 235.95 196.5 235.5 196.7 234.75 196.6 233.85 196.5 233.9 195.6
M 246.85 180.8
Q 246.65 180.35 246.65 179.9 246.65 178.5 248.3 178.4 249.95 178.35 249.95 179.9 249.95 180.55 249.5 181.05 249.05 181.65 248.3 181.65 247.25 181.65 246.85 180.8
M 162.85 187.35
Q 164.5 187.5 164.5 188.9 164.5 189.5 164.1 190.05 163.6 190.7 162.85 190.7 161.85 190.7 161.4 189.85 161.2 189.45 161.2 188.9 161.2 187.15 162.85 187.35
M 77.45 193.6
Q 79.05 193.55 79.05 195.1 79.05 195.65 78.65 196.25 78.15 196.85 77.45 196.85 76.4 196.85 76 196 75.8 195.6 75.8 195.1 75.8 193.7 77.45 193.6
M 93.05 184.4
Q 93.05 185 92.65 185.55 92.15 186.15 91.4 186.15 90.35 186.15 89.95 185.35 89.75 184.95 89.75 184.4 89.75 182.65 91.4 182.8 93.05 183 93.05 184.4
M 88.3 196.45
Q 88.3 196 88.35 195.65 87.9 195.2 87.6 194.85 86.7 194 86.45 192.75 86.2 191.65 87.3 191.8 88.3 191.9 89.35 192.1 89.75 192.1 90.15 192.1 92.55 192 94.25 193.6 94.7 193.95 94.85 194.45 95.15 195.4 95 196 94.85 196.55 94.25 196.75 91.9 197.45 89.35 197.25 88.8 197.2 88.55 197 88.25 196.8 88.3 196.45
M 98 197
Q 99.5 196.85 100.8 197.4 101.05 197.45 101.25 197.5 102.9 197.65 102.55 199.7 102.5 200.15 102.35 200.15 100.15 200.85 98.8 199.7 98.6 199.5 98.5 199.25 98.2 198.15 98 197
M 105.75 190.3
Q 107.4 190.25 107.4 191.8 107.4 192.45 107 192.95 106.55 193.55 105.75 193.55 104.75 193.55 104.35 192.75 104.15 192.3 104.15 191.8 104.15 190.35 105.75 190.3
M 139.65 187.4
Q 139.45 186.95 139.45 186.45 139.45 184.7 141.1 184.9 142.75 185.05 142.75 186.45 142.75 187.05 142.3 187.6 141.85 188.2 141.1 188.2 140.05 188.2 139.65 187.4
M 159 202.95
Q 158.95 203.2 158.7 203.35 155.95 204.75 153.4 202.6 153.2 202.4 153.15 202.15 153 201.55 152.9 200.95 152.4 197.95 154.95 198.75 155.2 198.75 155.5 198.75 156.6 198.85 157.5 199.4 157.75 199.5 157.95 199.65 159.5 200.45 159 202.95
M 156.7 207.75
Q 156.7 207.5 156.9 207.25 157.15 206.8 157.5 206.7 158.1 206.95 158.35 207.5 157.95 208.2 157.5 208.35 156.95 208.15 156.7 207.75
M 151.75 202.9
Q 151.75 203.55 151.35 204.05 150.9 204.65 150.15 204.65 149.1 204.65 148.7 203.8 148.5 203.4 148.5 202.9 148.5 201.45 150.15 201.4 151.75 201.35 151.75 202.9
M 151.75 207.1
Q 151.2 206.9 150.95 206.55 150.95 206.3 151.15 206 151.4 205.6 151.75 205.45 152.35 205.7 152.6 206.3 152.2 206.95 151.75 207.1
M 132.45 207.15
Q 134.1 207.1 134.1 208.65 134.1 209.2 133.7 209.8 133.2 210.4 132.45 210.4 131.45 210.4 131.05 209.55 130.8 209.1 130.8 208.65 130.8 207.25 132.45 207.15
M 115.65 202.15
L 115.65 202.2
Q 115.4 202.4 115.2 202.6 114.65 202.6 115.65 202.15
M 199.2 200.5
Q 199.7271484375 200.714453125 200.2 201.05 201.85 202.1 201.45 204.65 201.1 207.35 198.6 207.15 198.2 207.1 198.2 207.05 197.85 205.45 197.95 203.9 197.3 204 197.35 203.4 197.35 203 197.15 202.7 196.4544921875 201.656640625 196.5 200.5 196.523828125 200.3263671875 196.55 200.15 198.009375 200.0109375 199.2 200.5 Z"/>

<path fill="#5E7632" stroke="none" d="
M 200.2 201.05
Q 199.7271484375 200.714453125 199.2 200.5 198.009375 200.0109375 196.55 200.15 196.523828125 200.3263671875 196.5 200.5 196.4544921875 201.656640625 197.15 202.7 197.35 203 197.35 203.4 197.3 204 197.95 203.9 197.85 205.45 198.2 207.05 198.2 207.1 198.6 207.15 201.1 207.35 201.45 204.65 201.85 202.1 200.2 201.05
M 134.1 208.65
Q 134.1 207.1 132.45 207.15 130.8 207.25 130.8 208.65 130.8 209.1 131.05 209.55 131.45 210.4 132.45 210.4 133.2 210.4 133.7 209.8 134.1 209.2 134.1 208.65
M 150.95 206.55
Q 151.2 206.9 151.75 207.1 152.2 206.95 152.6 206.3 152.35 205.7 151.75 205.45 151.4 205.6 151.15 206 150.95 206.3 150.95 206.55
M 151.35 204.05
Q 151.75 203.55 151.75 202.9 151.75 201.35 150.15 201.4 148.5 201.45 148.5 202.9 148.5 203.4 148.7 203.8 149.1 204.65 150.15 204.65 150.9 204.65 151.35 204.05
M 156.9 207.25
Q 156.7 207.5 156.7 207.75 156.95 208.15 157.5 208.35 157.95 208.2 158.35 207.5 158.1 206.95 157.5 206.7 157.15 206.8 156.9 207.25
M 158.7 203.35
Q 158.95 203.2 159 202.95 159.5 200.45 157.95 199.65 157.75 199.5 157.5 199.4 156.6 198.85 155.5 198.75 155.2 198.75 154.95 198.75 152.4 197.95 152.9 200.95 153 201.55 153.15 202.15 153.2 202.4 153.4 202.6 155.95 204.75 158.7 203.35
M 139.45 186.45
Q 139.45 186.95 139.65 187.4 140.05 188.2 141.1 188.2 141.85 188.2 142.3 187.6 142.75 187.05 142.75 186.45 142.75 185.05 141.1 184.9 139.45 184.7 139.45 186.45
M 107.4 191.8
Q 107.4 190.25 105.75 190.3 104.15 190.35 104.15 191.8 104.15 192.3 104.35 192.75 104.75 193.55 105.75 193.55 106.55 193.55 107 192.95 107.4 192.45 107.4 191.8
M 100.8 197.4
Q 99.5 196.85 98 197 98.2 198.15 98.5 199.25 98.6 199.5 98.8 199.7 100.15 200.85 102.35 200.15 102.5 200.15 102.55 199.7 102.9 197.65 101.25 197.5 101.05 197.45 100.8 197.4
M 88.35 195.65
Q 88.3 196 88.3 196.45 88.25 196.8 88.55 197 88.8 197.2 89.35 197.25 91.9 197.45 94.25 196.75 94.85 196.55 95 196 95.15 195.4 94.85 194.45 94.7 193.95 94.25 193.6 92.55 192 90.15 192.1 89.75 192.1 89.35 192.1 88.3 191.9 87.3 191.8 86.2 191.65 86.45 192.75 86.7 194 87.6 194.85 87.9 195.2 88.35 195.65
M 92.65 185.55
Q 93.05 185 93.05 184.4 93.05 183 91.4 182.8 89.75 182.65 89.75 184.4 89.75 184.95 89.95 185.35 90.35 186.15 91.4 186.15 92.15 186.15 92.65 185.55
M 79.05 195.1
Q 79.05 193.55 77.45 193.6 75.8 193.7 75.8 195.1 75.8 195.6 76 196 76.4 196.85 77.45 196.85 78.15 196.85 78.65 196.25 79.05 195.65 79.05 195.1
M 164.5 188.9
Q 164.5 187.5 162.85 187.35 161.2 187.15 161.2 188.9 161.2 189.45 161.4 189.85 161.85 190.7 162.85 190.7 163.6 190.7 164.1 190.05 164.5 189.5 164.5 188.9
M 246.65 179.9
Q 246.65 180.35 246.85 180.8 247.25 181.65 248.3 181.65 249.05 181.65 249.5 181.05 249.95 180.55 249.95 179.9 249.95 178.35 248.3 178.4 246.65 178.5 246.65 179.9
M 237.1 191.95
Q 234.2 193 233.9 195.6 233.85 196.5 234.75 196.6 235.5 196.7 235.95 196.5 236.45 196.35 236.6 195.95 236.8 195.6 236.9 195.25 237 195 237.05 194.75 237.2 193.55 237.1 191.95
M 212.15 189.35
Q 212.15 189.8 212.35 190.25 212.75 191.1 213.8 191.1 214.55 191.1 215 190.5 215.45 190 215.45 189.35 215.45 187.95 213.8 187.7 212.15 187.55 212.15 189.35
M 212.55 184
Q 212.55 182.45 210.9 182.5 209.25 182.6 209.25 184 209.25 184.5 209.5 184.95 209.9 185.75 210.9 185.75 211.65 185.75 212.15 185.15 212.55 184.55 212.55 184 Z"/>

<path fill="#C4E99C" stroke="none" d="
M 170.5 95.05
Q 170.4 95.2 170.2 95.35 169.3 96.15 168.6 96.85 168.65 97.1 169 97.2 169.9 97.5 170.45 98.05 170.85 98.4 170.85 98.9 170.85 99 170.85 99.1 168.45 99.45 165.95 99.8 165.85 99.85 165.8 99.9 165 101.1 164.95 102.6 164.9 103.2 164.6 103.75 164.2 104.45 163.7 105.1 163.05 106 162.35 106.8 162.15 107.1 161.9 107.35 161.8 107.45 161.65 107.55 160.7 108.5 160.2 109.55 161 109.75 162 110.25 162.25 110.4 162.35 110.65 162.45 111 162.4 111.4 162.25 113.2 161.85 114.9 161.65 115.6 162.25 115.65 163.4 115.75 164.5 115.95 165.25 116.15 165.95 116.35 166.25 116.4 166.35 116.9 166.45 118 166.7 119 166.95 120.05 167.25 121 167.55 121.9 168.4 122.1 170.65 122.65 172.9 123.05 173.35 123.1 173.7 123.35 175.45 124.45 177.35 125.15 177.95 125.4 178.5 125.75 178.6 125.8 178.65 125.8 178.65 126.3 178.1 126.5 176.45 127.05 175 128.15 172.95 129.65 170.55 130.55 169.65 130.9 168.85 131.6 167.4 132.8 165.9 133.95 164.35 135.25 163 136.75 162.6 137.2 162.2 137.7 162.05 137.9 161.95 138.15 161.85 138.45 161.8 138.75 161.75 139.05 161.6 139.35 161.55 139.45 161.5 139.55 161.35 140.2 162 140.45 164.15 141.15 166.55 141.1 166.95 141.1 167.2 141.35 167.4 141.5 167.3 141.8 166.95 143.35 165.7 144.25 165.45 144.5 165.4 144.9 165.35 145.45 165.3 145.75 165.1 146.25 165.05 146.75 164.7 148.85 165.35 150.8 165.45 150.95 165.55 150.95 166.45 151.05 167.4 151 168.1 150.95 168.8 150.75 168.95 150.75 169 150.65 168.9 153.15 170 155.3 170.05 155.35 170.25 155.4 171.112109375 155.6154296875 172 155.7 172.348046875 155.7359375 172.7 155.75
L 172.7 156
Q 172.7 157.35 172.2 158.55 172.0904296875 158.8509765625 172 159.15 171.758984375 159.9921875 171.65 160.9 171.55 161.75 171.2 162.5 170.72421875 163.4994140625 170.8 164.65 170.86796875 164.7138671875 170.9 164.75 172 166.1 172 166.55
L 172 166.95
Q 171.9 166.95 171.85 167 171.65 167.2 171.5 167.25 171.2537109375 166.9544921875 171.05 166.7
L 170.85 166.65
Q 170.85 166.55390625 170.85 166.45 170.34296875 165.8125 170.05 165.4 168.958203125 164.76875 167.4 164.95 166.75 165 166.15 165.15 165.55 165.2 165.05 164.95 162.5 163.8 161.35 161.05 160.55 159.2 159.15 157.8 158.1 156.75 157.45 155.8 156.3 154.15 155.85 152.05 155.65 151.45 155.65 150.85 155.6 149.5 154.25 149.4 154.05 149.4 153.8 149.25 149.95 146.8 148.2 142.95 147.85 142.2 147.4 141.6 146.15 140 145.15 138.95 144.8 138.5 144.6 138.05 144.15 137.1 143.8 136.1 143.55 135.45 143.45 134.8 142.8 131.6 139.85 131.55 139.45 131.55 139.4 131.45 139.05 129.9 138.85 128.25 138.85 128.05 138.65 127.85 137.3 126.2 135.9 124.85 135.55 124.55 135.35 124.15 134.25 121.85 133.65 120.05 132.8 117.3 132.5 114.35 132.45 114.05 132.45 113.75 132.3 111.8 132.45 109.75 132.45 108.95 132.7 108.2 133.8 104.6 133.7 100.75
L 133.3 100.7
Q 133.2 101.1 133.1 101.45 133.075 101.5 133.05 101.55 132.9 103.05 132.1 103.65 131.85 103.8 131.75 104.05 131.65 104.45 131.45 104.7 130.15 106.15 128.75 108.1 128.55 108.35 128.3 108.4 127.95 108.55 127.85 108.7 127.4 109.45 126.3 109.5 126.1 109.55 125.85 109.75 124.3 110.65 122.9 112.1 122.6 112.45 122.35 112.75 122 113.25 121.6 113.75 120.75 114.8 119.85 115.65 119.25 116.2 118.65 116.65 117.65 117.5 116.85 118 114 119.75 112.2 123.15 111.85 123.8 111.5 124.55 110.5 126.95 109.05 128.25 108.85 128.45 108.6 128.55 108.25 128.65 108.05 128.85 105.35 131.3 103.8 134.85 103.4 135.8 102.75 136.75 100.4 140.15 96.8 142.7 96.3 143.05 96.05 143.55 93.3 147.75 89.35 150.85 88.45 151.6 87.35 152.15 87.1 152.3 86.9 152.55 85.95 153.8 85.5 155.3 85.25 156.2 85.1 157.05 84.8 159.85 82.75 161.95 81.75 162.95 80.65 163.9 80.1 164.4 79.4 164.6 77.75 165.1 76.55 166.4 76.2 166.85 75.7 166.95 74.15 167.25 74.7 169.3 74.75 169.55 74.8 169.8 75.1 171.4 75.5 173 75.6 173.25 75.65 173.45 75.8 173.85 75.95 174.15 76.2 174.65 76.3 175.15 77.15 178.35 77.75 181.8
L 77.8 181.8
Q 78.05 181.85 78.25 182.05 78.65 182.45 79.05 182.9 79.9 180.55 82.75 180 85.2 179.5 86.75 180.95 87.1 181.25 87.35 181.55 87.7 181.85 88.1 182.05 88.3 180 90.65 178.95 91 178.75 91.4 178.75 92.4 178.75 93.45 178.9 94.2 178.95 94.6 179.85 94.7 180 95.05 179.9 95.3 179.8 95.55 179.65 96.95 178.85 98.8 179.05 99.8 179.2 100.7 179.55 100.85 179.6 100.95 179.95 101.15 180.7 102.05 180.75 103.3 180.8 104.5 181 104.75 181.05 104.85 181.3 105.1 182.1 105.4 182.9 105.7 183.6 107 183.45 108.65 183.3 110.3 183.45 110.85 183.5 111.5 184.15 112.1 184.75 112.15 186.15 112.15 186.35 112.2 186.6 112.5 188.2 111.7 189.25 111.5 189.45 111.25 189.65 110.9 189.85 110.65 190.25 110.5 190.5 110.3 190.7 113.05 190.5 114.05 192.3 114.6 193.15 114.05 194.7 114 195 113.7 195.3 112.9 196.1 112.35 196.45 113.9 196.95 114.95 198.35 115.85 199.55 115.95 200.95 116.05 201.7 115.7 202.15 116.9 201.55 118.9 201.8 119.55 201.9 119.75 202.45 119.35 200.85 120.45 200.35 120.95 200.15 121.45 199.85 122.65 199.1 124.2 199.45 125.45 199.7 125.35 198.9 125.2 197.25 126 196.1 126.55 195.35 127.55 195.5 128.75 195.6 129.95 195.75 130.2 195.8 130.4 196 130.6 196.25 130.8 196.45 131.2 195.1 131.45 193.6 131.6 192.55 132.45 192.3 132.9 192.1 133.35 192 133.7 191.9 134.1 191.9 131.6 190.35 128.8 189.35 128.55 189.25 128.5 189 128 185.75 129.45 183.9 129.6 183.7 130 183.65 131.05 183.5 132.05 183.35 133.15 183.2 133.3 184.1 134.3 182.4 135.2 180.55 135.35 180.2 135.65 179.9 136.5 179.3 138.2 179.45 139.35 179.55 140.25 180.05 140.5 180.2 140.55 180.45 140.8 181.3 141.85 181.05 142.1 181.05 142.3 180.8 145.25 178.05 149.25 179.7 149.5 179.8 149.65 180.05 150.05 180.9 151 181 151.15 181.05 151.4 180.85 153.6 179.25 156.6 179.9 156.9 180 157.25 180.35 157.5 180.6 157.7 180.95 157.95 181.45 158.05 182 158.3 183.35 159.95 182.8 162.8 181.85 164.7 183.55 164.9 183.7 164.85 184.1 164.55 185.7 166.15 185.6 166.75 185.55 167.4 185.7 170 186.4 169.15 189.35 169 189.85 168.6 190.25 168.4 190.5 168.2 190.7 169.45 190.65 170.1 191.8 170.25 192.1 170.45 192.45 170.65 192.75 170.8 193.1 170.85 193.35 170.9 193.6 171.05 194.4 171.05 195.2 171.525 195.1345703125 172 195.05 172.975 194.9345703125 173.95 194.8 176.15 194.4 176 196.85 176 197.05 176 197.25 176.15 196.55 176.7 196.25 177.05 196 177.35 195.75 177.65 195.4 178.05 195.35 179.3 195.2 180.5 195.2 178.9 194.55 178.3 192.8 178.05 192.1 177.85 191.4 177.4 190.05 178.3 189.35 178.65 189.05 179.25 188.9 179.7 188.85 180.1 188.65 181.6 187.85 183.4 187.95 183.8 188 184.2 188 184.4 188 184.5 187.75 185 186.35 185.7 184.85 186.45 183.35 188.3 183.6 189.6 183.8 190.65 183.6 191 183.5 191.3 182.95 191.6 182.45 192.45 182.4 194.65 182.15 195.7 183.3 195.9 182.8 196.1 182.35 196.15 182.24921875 196.15 182.2
L 198 182.2 198.05 180.05
Q 198.1 180 198.15 179.95 198.75 179.6 199.45 179.3 200.8 178.8 201.05 179.9 201.05 180 201.45 179.9 202.05 179.8 202.7 179.2 203.25 178.7 204.35 178.6 204.5 178.6 204.65 178.6 205.55 178.55 206.4 178.5 207.15 178.5 207.45 178.8 207.6 178.95 207.65 179.2 207.9 180.15 208.95 179.3 209.9 178.5 211.3 178.9 212 179.1 211.9 180.4 211.85 181.1 212.55 181.05 213.45 181.05 214.25 181.25 214.5 181.3 214.75 181.35 215 181.45 215.25 181.6
L 215.25 182.2 216.15 182.2
Q 217 182.9 217.45 184 217.5 184.1 217.9 184.05 219.5 183.9 220.4 184.85 220.75 185.25 221 185.85 221.2 186.15 221.2 186.55 221.2 188.35 220.35 189.85 221.5 189.55 222.55 188.85 222.8 188.65 223.25 188.65 224.25 188.65 225.25 188.8 225.5 188.85 225.7 189.05 225.7 187.95 225.7 186.9 225.65 186.1 225.65 185.35 225.65 184.7 226.5 184.75 226.75 184.75 226.95 184.7 227.55 184.5 228.1 184.35 228.35 184.3 228.45 184.05 229.75 179.8 234.3 180.6 234.55 180.6 234.75 180.6 234.95 180.6 235.05 180.35 237.3 176.45 242.15 177.05 242.75 177.15 243.3 177.3 243.55 177.35 243.8 177.4 245.35 177.8 246.15 176.5 246.65 175.7 247.55 175.2 247.9115234375 174.99921875 248.25 174.85 247.74453125 174.509375 247.25 173.85 246.75 173.05 246.75 172.65 246.75 172.36875 246.75 172.25 244.7955078125 170.2859375 242.4 167.8 242.15 167.5 241.95 167.15 240.55 164.05 238.45 162.3 238 161.95 237.55 161.8 233.65 160.95 229.8 159.9 230.6 158.5 231.8 156.55 232.5 155.45 232.35 154.75 232.15 154 231.05 153.7 229.4 153.3 228.35 152.3 227.7 151.6 228.1 150.4 228.4 149.25 228.5 147.95 228.55 146.55 228.75 145.1 228.9 143.75 228.1 143.55 227.35 143.45 226.9 143.1 225.75 142.3 225.4 141.35
L 225.4 137.45 223.45 137.45
Q 223.35 137.35 223.3 137.25 223.05 136.9 222.7 136.75 221 136.2 219.15 135.95 218.35 135.8 217.5 135.7 217.05 135.65 216.75 135.5 215.571875 134.8890625 215.7 133.25 215.70546875 133.0109375 215.75 132.75 215.85 132.35 215.7 132.05 215.3 131.4 214.65 130.9 213.95 130.45 213 130.2 212.75 130.1 212.6 129.85 212.35 129.5 212.2 129.05 211.6 127.45 211.2 125.85 211.1 125.6 211 125.35 210.2 123.95 208.95 123.15 207.8 122.45 207.55 121.25
L 207.55 121.2
Q 207.5 121 207.5 120.85 207.4 120.05 207.05 119.3 206.2 117.55 204.4 117.05 204.15 116.95 203.95 116.7 202.45 114.5 201.75 111.85 201.65 111.6 201.45 111.5 199.45 110.55 197.3 109.9 196.95 109.75 196.9 109.65 196.15 107.1 195.45 104.4 195.3 104 195.1 103.75 193.95 102 192.75 100.8 192.45 100.55 192 100.5 190.5 100.3 189.9 99.6 188.95 98.45 189.25 96.2 189.45 95.1 188.75 95 187.6 94.8 186.3 93.7 185.65 93.15 184.95 93 183.9 92.85 184.1 91.7 184.2 91.1 184.5 90.65 184.7 90.4 185.1 89.7 186.3 87.2 187.8 84.8
L 187.3 84.5
Q 183.95 86.35 180.55 88.1 179.9 88.4 179.25 88.8 178.8 89.05 178.35 89.3 177.85 89.65 177.45 90.05 175.9 91.65 173.8 92.3 173.45 92.45 173.15 92.75 172.35 93.4 171.55 94 171.05 94.4 170.8 94.7 170.65 94.9 170.5 95.05
M 124.45 139.65
Q 124.95 140.7 125.55 142.2 125.7 142.4 125.8 142.65 126.45 144.1 127.65 144.95 128.85 145.75 130 146.75 130.2 146.95 130.25 147.15 130.4 149 130.25 150.85 130 153.1 131.1 153.9 132.35 154.75 134.2 155.6 136 156.45 137.05 158.2 137.4 158.85 137.95 159.3 138.8 160 139.15 160.6 140.1 162.4 140.85 163.5 141.5 164.5 141.65 165.65 141.7 166.2 142.45 166.7 143.85 167.7 144.25 169.35 144.85 171.55 143.5 173 142.85 173.75 142.65 174.75 142.3 173.85 142.3 173 142.3 172.6 142.1 172.3 141.9 172 141.6 171.7 140.55 170.7 138.65 170.45 138.2 170.35 138.2 170.05 137.8 168.3 137.8 166.45 137.8 166.05 137.6 165.85 137 165.4 136.5 164.85 135.9 164.25 135.8 163.15 135.75 162.75 135.6 162.65 132.6 161.15 129.2 159.75 128.55 159.45 128.45 158.95 128 156.6 127.95 154.2 127.95 153.95 127.95 153.7 127.95 153.3 127.85 153.25 124.65 152.55 123.4 150.9 123.25 150.65 123.25 150.45 123 143.85 122.95 137.3 122.95 135.75 123.85 135.25 123.85 136.45 124 137.7 124.05 138.1 124.15 138.55 124.25 139.15 124.45 139.65
M 228.55 109.05
L 227.75 108.95
Q 227 109.65 226.5 110.6 225.1 113.05 222.8 115.05 222 115.75 221.1 116.2 220.75 116.35 220.55 116.55 220.05 117.05 219.7 118.05 218.95 119.85 219.1 122.1 219.15 123.55 218.9 124.95 218.85 125.55 219 125.85 219.15 126.2 219.55 126.2 223.7 123.75 228.55 123.15 229.45 123.1 229.55 123.7 229.8 125.35 229.95 127 230 127.65 230.05 128.25 230.1 130.4 231.8 131.3 232.25 131.55 232.75 131.8 233.5 132.15 234.3 132.5 235.35 133 236.45 133.2 236.546484375 133.2234375 236.65 133.25 238.3025390625 133.7333984375 238.35 135.25 238.45 137.35 237.65 139.35 236 143.5 237.3 147.95 237.4 148.4 237.75 148.7 238 149 238.15 149.3 238.75 150.95 239.3 152.75 239.3 152.8 239.35 152.9 239.6 153.9 239.85 154.9 240.05 156 240.3 157.05 240.65 158.45 241.4 159.85 242.8 162.6 243.85 164.75 244.3 165.7 244.7 166.8 245 167.5 245.25 168.15 245.973046875 170.22890625 246.95 172.25 248.1025390625 172.4580078125 249 174.3 249 174.48984375 249 174.6 251.646875 173.7244140625 253.65 175.5 253.85 175.7 253.85 175.9 253.85 177.1 255.25 176.65 255.95 176.35 257 175.55 259 173.9 261.4 175.15 261.65 175.3 261.85 175.3 262.25 175.3 262.65 175.05 266 173.1 270 173.95 271.3 174.25 272.5 174.7 274.55 175.45 275.8 177.25 276.2 177.15 276.65 177.15 278.05 177.15 279.6 177.3 280.3 176.9 281.55 176.9 281.75 176.9 282 176.85 283.2 176.45 283.9 175.4 284.25 174.85 284.55 174.3 285.75 172.1 286.65 169.8 286.9 169.1 287.15 168.45 287.45 167.5 287.55 166.45 287.65 165.55 287.65 164.7 287.65 163.5 287.55 162.35 287.5 161.95 287.25 161.9 285.55 161.65 284.8 160.75 284.45 160.3 283.95 160.1 281.3 159.2 278.7 157.8 277.85 157.4 277.25 156.8 275.2 154.75 272.9 152.95 272.3 152.5 271.65 152.3 267.35 151.35 265.15 148.8 264.9 148.6 264.8 148.35 264.4 147.45 264 147.05 263.15 146.1 261.8 144.7 259.4 142.35 257.05 138.05 256.7 137.5 256.35 136.95 254.94375 134.86484375 252.95 133.25 252.9119140625 133.1998046875 252.85 133.15 250.4 131.15 247.9 129.8 247.65 129.7 247.6 129.45 246.6 126.3 245.35 123.35 245.2 123.1 244.95 123.1 244.4 122.9 243.8 122.8 242.35 122.5 240.85 122.35 239.55 122.2 238.45 121.6 237.55 121 237.25 120.4 235.9 117.35 233.55 115.5 233.3 115.3 233.05 115.2 230.85 114.25 229.45 113.45 229.2 113.25 229.05 113 228.05 111.35 228.55 109.05 Z"/>

<path fill="#BBD591" stroke="none" d="
M 125.55 142.2
Q 124.95 140.7 124.45 139.65 124.25 139.15 124.15 138.55 124.05 138.1 124 137.7 123.85 136.45 123.85 135.25 122.95 135.75 122.95 137.3 123 143.85 123.25 150.45 123.25 150.65 123.4 150.9 124.65 152.55 127.85 153.25 127.95 153.3 127.95 153.7 127.95 153.95 127.95 154.2 128 156.6 128.45 158.95 128.55 159.45 129.2 159.75 132.6 161.15 135.6 162.65 135.75 162.75 135.8 163.15 135.9 164.25 136.5 164.85 137 165.4 137.6 165.85 137.8 166.05 137.8 166.45 137.8 168.3 138.2 170.05 138.2 170.35 138.65 170.45 140.55 170.7 141.6 171.7 141.9 172 142.1 172.3 142.3 172.6 142.3 173 142.3 173.85 142.65 174.75 142.85 173.75 143.5 173 144.85 171.55 144.25 169.35 143.85 167.7 142.45 166.7 141.7 166.2 141.65 165.65 141.5 164.5 140.85 163.5 140.1 162.4 139.15 160.6 138.8 160 137.95 159.3 137.4 158.85 137.05 158.2 136 156.45 134.2 155.6 132.35 154.75 131.1 153.9 130 153.1 130.25 150.85 130.4 149 130.25 147.15 130.2 146.95 130 146.75 128.85 145.75 127.65 144.95 126.45 144.1 125.8 142.65 125.7 142.4 125.55 142.2
M 70.2 145.45
Q 69.1 145.45 68 145.5 66.75 145.5 65.7 145.9 64.1 146.55 62.5 147.35 61.4 147.95 60.2 148.5
L 60.2 148.55
Q 58.15 149.4 56.05 149.65 53.45 149.95 50.7 149.3 49.3 149 47.85 148.9 45.8 148.8 43.9 149.3 43.35 149.4 42.9 150 41 152.25 38 151.6 37.2 151.45 36.4 151.15 34.7 150.45 33 149.8 32.6 149.65 32.15 149.65 32 149.6 31.85 149.6 31.7 159.25 31.45 168.9 31.45 170.55 31.3 172.2 30.8 178.95 30.8 185.75 30.8 187.6 30.45 189.4 30 191.45 30.3 193.5 30.4 193.95 30.7 194.3 34.1 198.05 37.95 201 38.4 201.35 38.8 201.75 41.05 204.1 43.75 205.65 43.75 203.7 43.75 201.75 43.75 200.55 43.75 199.3 43.75 199.2 43.75 199.15 46.85 197.6 49.75 195.55 50.55 195 51.55 194.85 53.1 194.6 54.45 194.95
L 54.85 193.55
Q 54.25 190.1 54.95 186.7 55.05 186.35 55.65 186.35 58.15 186.15 60.6 186.1 61.8 186.1 62.45 187.25 62.65 187.6 62.95 187.95 63.25 188.2 63.45 188.65 63.45 188.85 63.45 189.05 64.35 186.8 67.15 186.45 68 186.35 68.8 186.2 71.6 185.75 72.9 188.2 72.5 186.25 73.55 184.8 73.75 184.5 73.8 184.1 74 182.9 74.95 182.4 76.15 181.6 77.75 181.8 77.15 178.35 76.3 175.15 76.2 174.65 75.95 174.15 75.8 173.85 75.65 173.45 75.6 173.25 75.5 173 75.1 171.4 74.8 169.8 74.75 169.55 74.7 169.3 74.15 167.25 75.7 166.95 76.2 166.85 76.55 166.4 77.75 165.1 79.4 164.6 80.1 164.4 80.65 163.9 81.75 162.95 82.75 161.95 84.8 159.85 85.1 157.05 85.25 156.2 85.5 155.3 85.95 153.8 86.9 152.55 87.1 152.3 87.35 152.15 88.45 151.6 89.35 150.85 93.3 147.75 96.05 143.55 96.3 143.05 96.8 142.7 100.4 140.15 102.75 136.75 103.4 135.8 103.8 134.85 105.35 131.3 108.05 128.85 108.25 128.65 108.6 128.55 108.85 128.45 109.05 128.25 110.5 126.95 111.5 124.55 111.85 123.8 112.2 123.15 114 119.75 116.85 118 117.65 117.5 118.65 116.65 119.25 116.2 119.85 115.65 120.75 114.8 121.6 113.75 122 113.25 122.35 112.75 122.6 112.45 122.9 112.1 124.3 110.65 125.85 109.75 126.1 109.55 126.3 109.5 127.4 109.45 127.85 108.7 127.95 108.55 128.3 108.4 128.55 108.35 128.75 108.1 130.15 106.15 131.45 104.7 131.65 104.45 131.75 104.05 131.85 103.8 132.1 103.65 132.9 103.05 133.05 101.55 132.85625 101.88125 132.55 102.1 131.75 102.75 131.1 103.5 130.8 103.8 130.4 104 129.4 104.6 128.3 105.6 125.6 108.15 121 109.45 117.6 110.4 114.45 111.6 112.55 112.3 110.75 113.15 107.9 114.4 106.3 116.05 106 116.35 105.7 116.7 104.45 118.4 103.5 119.9 103.3 120.25 103.1 120.55 102.9 120.85 102.7 121.15 102.5 121.5 102.2 121.8 101.3 122.8 100.4 123.7 100.05 124 99.75 124.25 99.2 124.75 98.65 125.25 94.9 128.6 91.05 131.6 88.45 133.55 85.75 135.35 84.05 136.5 82.3 138.5 79 142.2 76.6 144.7 76.2 145.1 75.4 145.15 72.8 145.35 70.2 145.45
M 226.5 110.6
Q 227 109.65 227.75 108.95 221.9 109.95 217.35 114.6 217 114.95 216.25 115.5 211.85 118.65 207.7 121.15 207.65 121.2 207.6 121.25
L 207.55 121.25
Q 207.8 122.45 208.95 123.15 210.2 123.95 211 125.35 211.1 125.6 211.2 125.85 211.6 127.45 212.2 129.05 212.35 129.5 212.6 129.85 212.75 130.1 213 130.2 213.95 130.45 214.65 130.9 215.3 131.4 215.7 132.05 215.85 132.35 215.75 132.75 215.70546875 133.0109375 215.7 133.25 215.571875 134.8890625 216.75 135.5 217.05 135.65 217.5 135.7 218.35 135.8 219.15 135.95 221 136.2 222.7 136.75 223.05 136.9 223.3 137.25 223.35 137.35 223.45 137.45
L 225.4 137.45 225.4 141.35
Q 225.75 142.3 226.9 143.1 227.35 143.45 228.1 143.55 228.9 143.75 228.75 145.1 228.55 146.55 228.5 147.95 228.4 149.25 228.1 150.4 227.7 151.6 228.35 152.3 229.4 153.3 231.05 153.7 232.15 154 232.35 154.75 232.5 155.45 231.8 156.55 230.6 158.5 229.8 159.9 233.65 160.95 237.55 161.8 238 161.95 238.45 162.3 240.55 164.05 241.95 167.15 242.15 167.5 242.4 167.8 244.7955078125 170.2859375 246.75 172.25 246.75 172.36875 246.75 172.65 246.75 173.05 247.25 173.85 247.74453125 174.509375 248.25 174.85 248.3857421875 174.9384765625 248.5 175 248.7830078125 174.9056640625 248.9 174.6 248.9458984375 174.6091796875 249 174.6 249 174.48984375 249 174.3 248.1025390625 172.4580078125 246.95 172.25 245.973046875 170.22890625 245.25 168.15 245 167.5 244.7 166.8 244.3 165.7 243.85 164.75 242.8 162.6 241.4 159.85 240.65 158.45 240.3 157.05 240.05 156 239.85 154.9 239.6 153.9 239.35 152.9 239.3 152.8 239.3 152.75 238.75 150.95 238.15 149.3 238 149 237.75 148.7 237.4 148.4 237.3 147.95 236 143.5 237.65 139.35 238.45 137.35 238.35 135.25 238.3025390625 133.7333984375 236.65 133.25 236.546484375 133.2234375 236.45 133.2 235.35 133 234.3 132.5 233.5 132.15 232.75 131.8 232.25 131.55 231.8 131.3 230.1 130.4 230.05 128.25 230 127.65 229.95 127 229.8 125.35 229.55 123.7 229.45 123.1 228.55 123.15 223.7 123.75 219.55 126.2 219.15 126.2 219 125.85 218.85 125.55 218.9 124.95 219.15 123.55 219.1 122.1 218.95 119.85 219.7 118.05 220.05 117.05 220.55 116.55 220.75 116.35 221.1 116.2 222 115.75 222.8 115.05 225.1 113.05 226.5 110.6
M 178.45 86.5
Q 178.25 86.55 178.1 86.55 175.85 86.3 174.25 87.45 173.75 87.8 173.35 88.2 172.2 89.3 171 90.4 168.3 92.8 166.15 95 165.75 95.4 165.3 95.4 161.95 95.45 160.85 98.25 160.6 98.9 160.3 99.45 159.6 100.95 158.45 102.1 157.95 102.6 157.4 103.1 156.4 104 155.15 104.6 153 105.7 150.55 106.05 150.15 106.05 149.85 106.3 149.5 106.5 149.2 106.85 148.9 107.3 148.75 107.8 148.05 110.8 146 113.05 145.8 113.25 145.6 113.25 144.6 113.2 144.1 113.95 143.2 115.3 141.95 116.4 141.3 116.95 140.95 117.7 140.5 118.7 139.85 118.7 138.65 118.7 137.7 118.4 134.6 117.55 132.5 114.35 132.8 117.3 133.65 120.05 134.25 121.85 135.35 124.15 135.55 124.55 135.9 124.85 137.3 126.2 138.65 127.85 138.85 128.05 138.85 128.25 139.05 129.9 139.4 131.45 139.45 131.55 139.85 131.55 142.8 131.6 143.45 134.8 143.55 135.45 143.8 136.1 144.15 137.1 144.6 138.05 144.8 138.5 145.15 138.95 146.15 140 147.4 141.6 147.85 142.2 148.2 142.95 149.95 146.8 153.8 149.25 154.05 149.4 154.25 149.4 155.6 149.5 155.65 150.85 155.65 151.45 155.85 152.05 156.3 154.15 157.45 155.8 158.1 156.75 159.15 157.8 160.55 159.2 161.35 161.05 162.5 163.8 165.05 164.95 165.55 165.2 166.15 165.15 166.75 165 167.4 164.95 168.958203125 164.76875 170.05 165.4 170.34296875 165.8125 170.85 166.45 170.9421875 166.5669921875 171.05 166.7 171.2537109375 166.9544921875 171.5 167.25 171.65 167.2 171.85 167 171.9 166.95 172 166.95
L 172 166.55
Q 172 166.1 170.9 164.75 170.86796875 164.7138671875 170.8 164.65 170.72421875 163.4994140625 171.2 162.5 171.55 161.75 171.65 160.9 171.758984375 159.9921875 172 159.15 172.0904296875 158.8509765625 172.2 158.55 172.7 157.35 172.7 156
L 172.7 155.75
Q 172.348046875 155.7359375 172 155.7 171.112109375 155.6154296875 170.25 155.4 170.05 155.35 170 155.3 168.9 153.15 169 150.65 168.95 150.75 168.8 150.75 168.1 150.95 167.4 151 166.45 151.05 165.55 150.95 165.45 150.95 165.35 150.8 164.7 148.85 165.05 146.75 165.1 146.25 165.3 145.75 165.35 145.45 165.4 144.9 165.45 144.5 165.7 144.25 166.95 143.35 167.3 141.8 167.4 141.5 167.2 141.35 166.95 141.1 166.55 141.1 164.15 141.15 162 140.45 161.35 140.2 161.5 139.55 161.55 139.45 161.6 139.35 161.75 139.05 161.8 138.75 161.85 138.45 161.95 138.15 162.05 137.9 162.2 137.7 162.6 137.2 163 136.75 164.35 135.25 165.9 133.95 167.4 132.8 168.85 131.6 169.65 130.9 170.55 130.55 172.95 129.65 175 128.15 176.45 127.05 178.1 126.5 178.65 126.3 178.65 125.8 178.6 125.8 178.5 125.75 177.95 125.4 177.35 125.15 175.45 124.45 173.7 123.35 173.35 123.1 172.9 123.05 170.65 122.65 168.4 122.1 167.55 121.9 167.25 121 166.95 120.05 166.7 119 166.45 118 166.35 116.9 166.25 116.4 165.95 116.35 165.25 116.15 164.5 115.95 163.4 115.75 162.25 115.65 161.65 115.6 161.85 114.9 162.25 113.2 162.4 111.4 162.45 111 162.35 110.65 162.25 110.4 162 110.25 161 109.75 160.2 109.55 160.7 108.5 161.65 107.55 161.8 107.45 161.9 107.35 162.15 107.1 162.35 106.8 163.05 106 163.7 105.1 164.2 104.45 164.6 103.75 164.9 103.2 164.95 102.6 165 101.1 165.8 99.9 165.85 99.85 165.95 99.8 168.45 99.45 170.85 99.1 170.85 99 170.85 98.9 170.85 98.4 170.45 98.05 169.9 97.5 169 97.2 168.65 97.1 168.6 96.85 169.3 96.15 170.2 95.35 170.4 95.2 170.5 95.05 170.65 94.9 170.8 94.7 171.05 94.4 171.55 94 172.35 93.4 173.15 92.75 173.45 92.45 173.8 92.3 175.9 91.65 177.45 90.05 177.85 89.65 178.35 89.3 178.8 89.05 179.25 88.8 179.9 88.4 180.55 88.1 183.95 86.35 187.3 84.5
L 187.8 84.8
Q 188.05 84.35 188.3 83.9 187.5 83.9 186.7 83.9 185 83.95 183.4 84.2 183 84.3 182.65 84.45 181.6 85 180.95 85.55 179.85 86.4 178.45 86.5 Z"/>

<path fill="#C4E6C7" stroke="none" d="
M 256.45 76.95
Q 255.05 75.7 253.85 74.25 249 68.15 242.5 63.4 240.5 61.9 238.7 60.2 235.9 57.55 232.3 56.3 224.65 53.65 217.45 49.9 211.55 46.85 205.15 44.9 198 42.7 190.8 40.85 188.1 40.15 185.4 39.95 180.3 39.55 175.2 39.4 167.95 39.25 160.8 39.8 155.9 40.15 150.95 40.55 144.4 41.1 137.8 41.4 129.75 41.7 121.8 43.2 113.9 44.7 106.2 46.9 103.9 47.55 101.75 48.35 94.5 51.05 87.3 53.9 80.75 56.5 74.95 60.5 68.85 64.75 63.1 69.55 57.45 74.3 52.3 79.7 49.7 82.45 47.15 85.25 42.05 90.9 37.75 97.15 37 98.25 36.5 99.55 35.95 100.95 35.35 102.3 32.1 109.5 31.9 117.55 31.85 118.8 31.65 120 30.2 127.5 30.55 135.65 30.6 137.9 30.4 140.15 30 145.25 32.15 149.65 32.6 149.65 33 149.8 34.7 150.45 36.4 151.15 37.2 151.45 38 151.6 41 152.25 42.9 150 43.35 149.4 43.9 149.3 45.8 148.8 47.85 148.9 49.3 149 50.7 149.3 53.45 149.95 56.05 149.65 58.15 149.4 60.2 148.55
L 60.2 148.5
Q 61.4 147.95 62.5 147.35 64.1 146.55 65.7 145.9 66.75 145.5 68 145.5 69.1 145.45 70.2 145.45 72.8 145.35 75.4 145.15 76.2 145.1 76.6 144.7 79 142.2 82.3 138.5 84.05 136.5 85.75 135.35 88.45 133.55 91.05 131.6 94.9 128.6 98.65 125.25 99.2 124.75 99.75 124.25 100.05 124 100.4 123.7 101.3 122.8 102.2 121.8 102.5 121.5 102.7 121.15 102.9 120.85 103.1 120.55 103.3 120.25 103.5 119.9 104.45 118.4 105.7 116.7 106 116.35 106.3 116.05 107.9 114.4 110.75 113.15 112.55 112.3 114.45 111.6 117.6 110.4 121 109.45 125.6 108.15 128.3 105.6 129.4 104.6 130.4 104 130.8 103.8 131.1 103.5 131.75 102.75 132.55 102.1 132.85625 101.88125 133.05 101.55 133.075 101.5 133.1 101.45 133.1 101.05 133.2 100.7 133.3 100.3 133.3 99.9 133.35 100.3 133.3 100.7
L 133.7 100.75
Q 133.8 104.6 132.7 108.2 132.45 108.95 132.45 109.75 132.3 111.8 132.45 113.75 132.45 114.05 132.5 114.35 134.6 117.55 137.7 118.4 138.65 118.7 139.85 118.7 140.5 118.7 140.95 117.7 141.3 116.95 141.95 116.4 143.2 115.3 144.1 113.95 144.6 113.2 145.6 113.25 145.8 113.25 146 113.05 148.05 110.8 148.75 107.8 148.9 107.3 149.2 106.85 149.5 106.5 149.85 106.3 150.15 106.05 150.55 106.05 153 105.7 155.15 104.6 156.4 104 157.4 103.1 157.95 102.6 158.45 102.1 159.6 100.95 160.3 99.45 160.6 98.9 160.85 98.25 161.95 95.45 165.3 95.4 165.75 95.4 166.15 95 168.3 92.8 171 90.4 172.2 89.3 173.35 88.2 173.75 87.8 174.25 87.45 175.85 86.3 178.1 86.55 178.25 86.55 178.45 86.5 179.85 86.4 180.95 85.55 181.6 85 182.65 84.45 183 84.3 183.4 84.2 185 83.95 186.7 83.9 187.5 83.9 188.3 83.9 188.05 84.35 187.8 84.8 186.3 87.2 185.1 89.7 184.7 90.4 184.5 90.65 184.2 91.1 184.1 91.7 183.9 92.85 184.95 93 185.65 93.15 186.3 93.7 187.6 94.8 188.75 95 189.45 95.1 189.25 96.2 188.95 98.45 189.9 99.6 190.5 100.3 192 100.5 192.45 100.55 192.75 100.8 193.95 102 195.1 103.75 195.3 104 195.45 104.4 196.15 107.1 196.9 109.65 196.95 109.75 197.3 109.9 199.45 110.55 201.45 111.5 201.65 111.6 201.75 111.85 202.45 114.5 203.95 116.7 204.15 116.95 204.4 117.05 206.2 117.55 207.05 119.3 207.4 120.05 207.5 120.85 207.5 121 207.55 121.2
L 207.55 121.25 207.6 121.25
Q 207.65 121.2 207.7 121.15 211.85 118.65 216.25 115.5 217 114.95 217.35 114.6 221.9 109.95 227.75 108.95
L 228.55 109.05
Q 228.05 111.35 229.05 113 229.2 113.25 229.45 113.45 230.85 114.25 233.05 115.2 233.3 115.3 233.55 115.5 235.9 117.35 237.25 120.4 237.55 121 238.45 121.6 239.55 122.2 240.85 122.35 242.35 122.5 243.8 122.8 244.4 122.9 244.95 123.1 245.2 123.1 245.35 123.35 246.6 126.3 247.6 129.45 247.65 129.7 247.9 129.8 250.4 131.15 252.85 133.15 252.9119140625 133.1998046875 252.95 133.25 254.94375 134.86484375 256.35 136.95 256.7 137.5 257.05 138.05 259.4 142.35 261.8 144.7 263.15 146.1 264 147.05 264.4 147.45 264.8 148.35 264.9 148.6 265.15 148.8 267.35 151.35 271.65 152.3 272.3 152.5 272.9 152.95 275.2 154.75 277.25 156.8 277.85 157.4 278.7 157.8 281.3 159.2 283.95 160.1 284.45 160.3 284.8 160.75 285.55 161.65 287.25 161.9 287.5 161.95 287.55 162.35 287.65 163.5 287.65 164.7 287.9 164.45 288.15 164.05 288.7 163.35 289.1 162.65 292 157.75 291.9 152.05 291.8 144.25 290.55 136.45 290.2859375 134.8439453125 289.95 133.25 288.876953125 127.5990234375 287.2 122.1 286.05 118.2 284.95 114.25 283.1 107.6 279.9 101.5 278.85 99.5 277.55 97.65 273.4 91.95 268.45 87.1 265.45 84.2 262.15 81.6 260.6 80.4 259.1 79.2 257.75 78.15 256.45 76.95 Z"/>
</g>

<g id="Layer5_1_FILL">
<path fill="#5E7632" stroke="none" d="
M 248 244.85
Q 248 243.15 245.75 242.9 243.5 242.7 243.5 244.85 243.5 245.55 243.75 246 244.25 247 245.75 247 246.4 247 247.05 246.55 248 245.95 248 244.85 Z"/>
</g>

<g id="Layer5_2_FILL">
<path fill="#5E7632" stroke="none" d="
M 256 246.85
Q 256 245.15 254 244.95 252 244.7 252 246.85 252 247.45 252.25 248 252.75 249 254 249 254.95 249 255.5 248.25 256 247.65 256 246.85 Z"/>
</g>

<g id="Layer5_3_FILL">
<path fill="#5E7632" stroke="none" d="
M 313.5 241.85
Q 313.5 240 311.5 240.05 309.5 240.1 309.5 241.85 309.5 242.5 309.75 243 310.25 244 311.5 244 312.45 244 313 243.25 313.5 242.65 313.5 241.85 Z"/>
</g>

<g id="Layer5_4_FILL">
<path fill="#5E7632" stroke="none" d="
M 310 247.35
Q 310 245.65 308 245.45 306 245.2 306 247.35 306 247.95 306.25 248.5 306.75 249.5 308 249.5 308.9 249.5 309.5 248.75 310 248.05 310 247.35 Z"/>
</g>

<g id="Layer5_5_FILL">
<path fill="#5E7632" stroke="none" d="
M 356.5 229.85
Q 356.5 228.15 354.5 227.9 352.5 227.7 352.5 229.85 352.5 230.45 352.75 231 353.25 232 354.5 232 355.45 232 356 231.25 356.5 230.65 356.5 229.85 Z"/>
</g>

<g id="Layer5_6_FILL">
<path fill="#5E7632" stroke="none" d="
M 356 233.85
Q 356 232.15 354 231.95 352 231.7 352 233.85 352 234.5 352.25 235 352.75 236 354 236 354.9 236 355.5 235.25 356 234.55 356 233.85 Z"/>
</g>

<g id="Layer5_7_FILL">
<path fill="#5E7632" stroke="none" d="
M 386.5 210.85
Q 386.5 209.05 384.25 209 382 208.95 382 211.1 382 211.2 382.05 212.4 382.45 213.5 384 213.5 384.65 213.5 385.55 212.55 386.5 211.6 386.5 210.85 Z"/>
</g>

<g id="Layer5_8_FILL">
<path fill="#5E7632" stroke="none" d="
M 381 212.85
Q 381 211 379 211.05 377 211.15 377 212.85 377 213.5 377.25 214 377.75 215 379 215 379.9 215 380.5 214.25 381 213.55 381 212.85 Z"/>
</g>

<g id="Layer5_9_FILL">
<path fill="#5E7632" stroke="none" d="
M 161.5 230.35
Q 161.5 231 161.75 231.5 162.25 232.5 163.5 232.5 164.4 232.5 165 231.75 165.5 231.1 165.5 230.35 165.5 228.65 163.5 228.45 161.5 228.2 161.5 230.35 Z"/>
</g>

<g id="cabin_modern_0_Layer0_0_FILL">
<path fill="#5A2E05" stroke="none" d="
M 9.35 81.5
L 0 81.5 0 112.4 7.6 112.4 7.85 84.3 46.7 84.3 46.7 83.25 46.7 84.3 53.35 84.3 54.45 112.4 62.05 112.4 62.05 81.5 53.35 81.5 46.7 81.5 39.35 81.5 39.35 82.15 39.35 81.5 32.05 81.5 23.75 81.5 15.45 81.5 15.45 82.3 15.45 81.5 9.35 81.5 9.35 82.3 9.35 81.5 Z"/>

<path fill="#71511F" stroke="none" d="
M 53.35 0.15
L 53.35 1.4 53.35 81.5 62.05 81.5 62.05 0 53.35 0.15
M 39.35 81.5
L 46.7 81.5 46.7 1.4 39.35 0.15 39.35 81.5
M 32.05 0.15
Q 31.5 0.15 31.1 0.15
L 0 0 0 81.5 9.35 81.5 9.35 64.35 7.35 64.35 7.35 61.8 7.35 57.05 7.35 45.5 7.35 32.45 7.35 20.65 7.35 16.3 7.35 10.9 9.35 10.9 9.35 1.4 9.35 10.9 13.85 10.9 14.95 10.9 14.95 9.65 14.95 1.4 23.75 1.4 23.75 81.5 32.05 81.5 32.05 2.45 32.05 0.15 Z"/>

<path fill="#715F1B" stroke="none" d="
M 15.45 64.35
L 9.35 64.35 9.35 81.5 15.45 81.5 15.45 64.35
M 14.95 1.4
L 14.95 9.65 14.95 10.9 18.2 10.9 18.2 15.75 18.2 22.15 18.2 35.05 18.2 49.3 18.2 57.05 18.2 64.35 15.45 64.35 15.45 81.5 23.75 81.5 23.75 1.4 14.95 1.4
M 32.05 0.15
L 32.05 2.45 32.05 81.5 39.35 81.5 39.35 0.15
Q 35.7 0.15 32.05 0.15
M 53.35 1.4
L 53.35 0.15 46.15 0.15
Q 42.6 0.15 39.35 0.15
L 46.7 1.4 46.7 81.5 53.35 81.5 53.35 1.4 Z"/>

<path fill="#9292B7" stroke="none" d="
M 7.35 64.35
L 9.35 64.35 15.45 64.35 18.2 64.35 18.2 57.05 7.35 61.8 7.35 64.35
M 18.2 49.3
L 18.2 35.05 7.35 45.5 7.35 57.05 18.2 49.3
M 18.2 22.15
L 18.2 15.75 7.35 20.65 7.35 32.45 18.2 22.15
M 9.35 10.9
L 7.35 10.9 7.35 16.3 13.85 10.9 9.35 10.9 Z"/>

<path fill="#929FBA" stroke="none" d="
M 7.35 57.05
L 7.35 61.8 18.2 57.05 18.2 49.3 7.35 57.05
M 7.35 32.45
L 7.35 45.5 18.2 35.05 18.2 22.15 7.35 32.45
M 14.95 10.9
L 13.85 10.9 7.35 16.3 7.35 20.65 18.2 15.75 18.2 10.9 14.95 10.9 Z"/>
</g>

<g id="Layer3_0_FILL">
<path fill="#5E8053" stroke="none" d="
M 257.7 194.95
Q 256.9 194.8 256.1 194.85 249.1677734375 195.3947265625 244.35 200.5 244.296875 200.549609375 244.25 200.6 243.75 201.15 243.2 201.55 242.95 201.75 242.6 201.65 240.2 200.75 237.6 201.05 237.3 201.1 236.95 201.2 233.35 201.85 230.75 204.35 230 205.05 229.25 205.65 229 205.9 228.6 205.75 227.95 205.45 227.3 205.2 226.5 204.85 225.7 204.9 219.35 205.25 213.35 207.4 212.05 207.85 211 208.45 208 210.15 206.35 213.25 205.8 214.3 204.95 215.1
L 204.7 215
Q 202.6 214 200.15 213.95 199.75 213.15 198.95 212.5 198.4 212.05 197.75 211.9 196.15 211.65 194.5 211.65 193.25 211.65 192.15 211.25 191.25 210.95 190.8 209.55 190.6 208.95 190.25 208.9 187.65 208.4 185.05 209.15 184.2 209.4 184.05 208.8 184 208.55 183.8 208.35 181.95 206.15 178.45 206.75 176.1 207.1 175.2 208.4 174.45 209.55 173.85 210.3 173.25 211.05 171.9 211.1 168.8 211.2 165.75 211.4 165.1 211.4 164.95 211.85 164.3 213.35 164.25 214.9 163.05 214.1 161.95 213.45 161.65 213.25 161.2 213.25 159.65 213 158.6 213.95 158.15 214.3 157.5 214.5 155.55 215.1 154.95 216.65 153.15 217 151.4 217.85 150.35 218.4 149.2 218.55 148.55 218.65 148.1 218.15 147.65 217.6 147.1 217.15 145.7 216.1 144.15 215.55 141.05 214.35 137.3 215.2 137.15 215.25 137 215.3 135.95 215.55 135.2 216.1 133.75 217.3 132.55 215.7 132.25 215.3 131.95 215.05 131.45 214.5 131.05 213.95 130.25 212.8 128.75 212.65 127.15 212.45 125.5 212.3 121.85 211.95 119 214.2 117.95 215.05 117.5 214.15 116.95 213.2 116.1 211.95 115.65 211.2 115 210.55 113.75 209.25 112.35 208.45 109.2 206.8 105.35 207.9 104.55 208.15 103.7 208.2 102.7 208.35 102.05 207.1 100.25 203.9 97.2 202 96.75 201.75 96.25 201.5 94.5 200.6 92.65 201.3 92 201.55 91.45 201.5 90.45 201.3 89.65 200.15 88.95 199.15 88 198.75 87.1 198.3 86.05 198.35 84 198.5 82 198.25 77.7 197.75 75.3 200.9 74.95 201.35 74.45 201.5 74.35 201.55 74.15 201.35 73.3 200.55 72.95 199.55 72.35 197.9 70.95 197.1 69.85 196.45 68.7 196.05 67.35 195.6 65.95 195.5 63.05 195.3 61.35 197.6 60.8 198.3 60.05 198.75 59.75 198.9 59.5 198.7 59.15 198.5 58.9 198.1 57.05 195.55 54.45 194.95 53.1 194.6 51.55 194.85 50.55 195 49.75 195.55 46.85 197.6 43.75 199.15 43.75 199.2 43.75 199.3 43.75 200.55 43.75 201.75 43.75 203.7 43.75 205.65 43.75 210.85 43.75 216.05 43.85 215.7 43.9 215.35 44.4 213.5 46.3 212.65 47.65 212.05 49.15 211.8 53.55 210.95 56.9 213.7 57.6 214.2 57.7 215.75 57.7 216.15 57.7 216.55 58.75 214.85 60.65 212.95 61.95 211.65 63.9 211.85 65.5 212.05 67.15 212.1 70.1 212.25 69.85 215.3 69.85 215.75 69.9 216.2 70.05 217.15 70 218.2 70 218.85 70.85 218.7 73.5 218.15 74.7 220.15 75.2 221.05 74.95 222.7 74.8 223.9 76.2 223.5 77.75 223.05 79.5 222.8 81.95 222.45 82.9 224.75 83 225 83.2 225.2 83.9 225 84.1 223.95 84.55 221.25 87.25 219.75 87.8 219.45 88.7 218.9 89.15 218.6 89.7 218.45 92.55 217.55 95.45 218.75 95.7 218.8 95.9 219 96.1 219.25 96.3 219.45 99.55 214.1 105.75 214.8 106.8 214.9 107.75 215.2 108.85 215.55 109.85 216.2 110.6 216.7 111.15 216.8 112.15 216.95 113.15 216.9 118.15 216.55 120.95 220.3 121.95 221.65 122 223.55 122 224.35 122.1 225.2 122.2 225.8 122.5 226.2 122.6 226.4 123 226.35 125.2 226.15 127.05 227 127.75 227.3 127.75 228.05 127.75 228.9 127.85 229.7 127.95 230.5 127.95 231.35 130.15 231.4 131.75 229.8 133.1 228.55 134.95 228.55 137.05 228.6 137.95 230.45 138.7 231.9 139.85 232.55 140.45 231.85 141.4 230.85 141.9 230.3 142.45 229.8 143.9 228.45 145.95 229.1 146.65 229.3 147.2 229.75 148.45 230.75 149.4 231.2 150.15 231.6 150.35 230.95 150.55 230.1 151.1 229.4 153.75 226.05 157.55 225.3 159.25 225 160.85 225.45 162.9 226 164.55 227.2 165.3 227.7 165.3 228.45 166.25 228.15 166.9 227.05 167.4 226.2 168.3 225.75 169.9 224.85 171.9 225.1 176.7 225.7 179.6 229 182.25 232.05 182.55 235.85 183.75 234.55 185.9 233.95 187.85 233.45 189.05 235.1 190.15 236.7 191.3 237.15 191.6 237.3 191.95 237 192.45 236.5 193 236.15 193.45 235.85 194.05 235.85 196 235.9 197.75 236.7 198.5 236.4 198.25 235.05 197.9 232.8 198.45 230.9 198.6 230.3 198.65 229.7 198.65 229.2 199.35 228.8 202.35 226.9 205.55 229.35 206.7 230.25 206.95 229.35 208.7 224.05 213.4 221.9 213.8 221.7 214.2 221.7 215.45 221.65 216.2 220.6 217.6 218.7 219.95 219 221.8 219.25 223.6 219.6 226.75 220.25 229 222.7 229.6 222.25 230.4 221.15 231.3 219.8 233.15 220.1 235.55 220.45 237.45 222 237.6 222.1 238 222.05 239.55 221.95 240.95 221.75 242.55 221.5 244.2 221.6 245 221.7 245.75 221.55 246.05 221.5 246.05 221.05 246.05 218.75 248.2 217.65 250 216.7 252 217.05 252.6 217.15 253.2 217.15 253.4 217.15 253.65 216.95 254.45 216.1 255.7 215.35 258.15 213.95 261.45 213.9
L 261.6 213.3
Q 261.85 212.45 262.1 211.6 262.25 211 262.55 210.55 262.85 210 263.4 209.5 265.95 207.25 269.2 206.75 269.45 206.7 269.5 206.25 270.2 202.85 272.9 201.3 273.15 201.15 273.4 201.05 273.972265625 200.8865234375 274.5 200.5 274.9404296875 200.177734375 275.35 199.7 275.8 199.1 276.3 198.55 277.1 197.75 278.2 197.55 278.5 196.4 278.7 195.2 279.6 189.75 278.85 184.5 278.7 183.5 278.7 182.45 278.7 181.75 278.7 181 278.55 180.8 278.4 180.65 278 180.15 277.6 179.5 277.25 178.85 276.9 178.5 276.8 178.4 276.65 178.3 276.2 177.95 275.95 177.45 275.85 177.35 275.8 177.25 275.65 177.3 275.5 177.35 270.2 180.05 267.5 185.3 267.2 185.95 266.65 186.1 264.9 186.45 263.5 187.45 260.45 189.55 258.95 193.15 258.55 194.15 257.95 195
L 257.7 194.95 Z"/>
</g>

<g id="Layer2_0_FILL">
<path fill="#5E7632" stroke="none" d="
M 134.95 228.55
Q 133.1 228.55 131.75 229.8 130.15 231.4 127.95 231.35 127.95 230.5 127.85 229.7 127.75 228.9 127.75 228.05 127.75 227.3 127.05 227 125.2 226.15 123 226.35 122.6 226.4 122.5 226.2 122.2 225.8 122.1 225.2 122 224.35 122 223.55 121.95 221.65 120.95 220.3 118.15 216.55 113.15 216.9 112.15 216.95 111.15 216.8 110.6 216.7 109.85 216.2 108.85 215.55 107.75 215.2 106.8 214.9 105.75 214.8 99.55 214.1 96.3 219.45 96.1 219.25 95.9 219 95.7 218.8 95.45 218.75 92.55 217.55 89.7 218.45 89.15 218.6 88.7 218.9 87.8 219.45 87.25 219.75 84.55 221.25 84.1 223.95 83.9 225 83.2 225.2 83 225 82.9 224.75 81.95 222.45 79.5 222.8 77.75 223.05 76.2 223.5 74.8 223.9 74.95 222.7 75.2 221.05 74.7 220.15 73.5 218.15 70.85 218.7 70 218.85 70 218.2 70.05 217.15 69.9 216.2 69.85 215.75 69.85 215.3 70.1 212.25 67.15 212.1 65.5 212.05 63.9 211.85 61.95 211.65 60.65 212.95 58.75 214.85 57.7 216.55 57.7 216.15 57.7 215.75 57.6 214.2 56.9 213.7 53.55 210.95 49.15 211.8 47.65 212.05 46.3 212.65 44.4 213.5 43.9 215.35 43.85 215.7 43.75 216.05 43.75 216.5 43.75 216.95 43.75 220.05 43.75 223.15 43.75 223.3 43.75 223.45 47.8 228.85 52.85 233.35 56.65 236.8 60.9 239.25 62.45 240.15 63.9 241.2 69.8 245.3 76.1 248.7 79.3 250.45 82.75 251.95 84.4 252.7 86.15 253.25 88.3 253.95 90.55 254.4 98.15 256.05 105.75 257.4 112.25 258.55 118.9 259.3 122.2 259.7 125.5 260 133.25 260.8 141.1 260.65 146.65 260.5 152.2 260.35 154.25 260.3 156.3 260.15 163.7 259.5 171.05 259.05 174.15 258.85 177.25 258.35 185.3 257.1 193.3 255.7 200.3 254.5 207.25 252.8 210.9 251.9 214.6 251 218.7 250.05 222.75 248.7 224.9 248 226.9 246.9 234.15 243.1 241.2 238.95 242.95 237.9 244.65 236.75 247.45 234.85 250.2 232.8 253.4 230.55 255.95 227.5 259.1 223.85 262.7 220.65 264.1 219.45 265.15 217.85 266.55 215.75 268.25 213.95 269.65 212.45 271.15 211.1 272.65 209.75 273.5 208 275.05 204.9 276.6 201.75 276.8923828125 201.1345703125 277.15 200.5 277.75 199.0728515625 278.2 197.55 277.1 197.75 276.3 198.55 275.8 199.1 275.35 199.7 274.9404296875 200.177734375 274.5 200.5 273.972265625 200.8865234375 273.4 201.05 273.15 201.15 272.9 201.3 270.2 202.85 269.5 206.25 269.45 206.7 269.2 206.75 265.95 207.25 263.4 209.5 262.85 210 262.55 210.55 262.25 211 262.1 211.6 261.85 212.45 261.6 213.3
L 261.45 213.9
Q 258.15 213.95 255.7 215.35 254.45 216.1 253.65 216.95 253.4 217.15 253.2 217.15 252.6 217.15 252 217.05 250 216.7 248.2 217.65 246.05 218.75 246.05 221.05 246.05 221.5 245.75 221.55 245 221.7 244.2 221.6 242.55 221.5 240.95 221.75 239.55 221.95 238 222.05 237.6 222.1 237.45 222 235.55 220.45 233.15 220.1 231.3 219.8 230.4 221.15 229.6 222.25 229 222.7 226.75 220.25 223.6 219.6 221.8 219.25 219.95 219 217.6 218.7 216.2 220.6 215.45 221.65 214.2 221.7 213.8 221.7 213.4 221.9 208.7 224.05 206.95 229.35 206.7 230.25 205.55 229.35 202.35 226.9 199.35 228.8 198.65 229.2 198.65 229.7 198.6 230.3 198.45 230.9 197.9 232.8 198.25 235.05 198.5 236.4 197.75 236.7 196 235.9 194.05 235.85 193.45 235.85 193 236.15 192.45 236.5 191.95 237 191.6 237.3 191.3 237.15 190.15 236.7 189.05 235.1 187.85 233.45 185.9 233.95 183.75 234.55 182.55 235.85 182.25 232.05 179.6 229 176.7 225.7 171.9 225.1 169.9 224.85 168.3 225.75 167.4 226.2 166.9 227.05 166.25 228.15 165.3 228.45 165.3 227.7 164.55 227.2 162.9 226 160.85 225.45 159.25 225 157.55 225.3 153.75 226.05 151.1 229.4 150.55 230.1 150.35 230.95 150.15 231.6 149.4 231.2 148.45 230.75 147.2 229.75 146.65 229.3 145.95 229.1 143.9 228.45 142.45 229.8 141.9 230.3 141.4 230.85 140.45 231.85 139.85 232.55 138.7 231.9 137.95 230.45 137.05 228.6 134.95 228.55 Z"/>
</g>

<g id="Layer0_0_FILL">
<path fill="#BBD591" stroke="none" d="
M 298 163.95
Q 298 106.75 257.55 66.35 217.15 25.95 160 25.95 102.8 25.95 62.4 66.35 22 106.75 22 163.95 22 221.1 62.4 261.55 102.8 301.95 160 301.95 217.15 301.95 257.55 261.55 298 221.1 298 163.95
M 236.15 87.75
Q 268.05 119.65 268.05 164.8 268.05 209.9 236.15 241.8 204.25 273.75 159.1 273.75 114 273.75 82.1 241.8 50.2 209.9 50.2 164.8 50.2 119.65 82.1 87.75 114 55.9 159.1 55.9 204.25 55.9 236.15 87.75 Z"/>
</g>

<path id="cabin_modern_0_Layer0_0_1_STROKES" stroke="#000000" stroke-width="1" stroke-linejoin="round" stroke-linecap="round" fill="none" d="
M 9.35 64.35
L 7.35 64.35 7.35 61.8 7.35 57.05 7.35 45.5 7.35 32.45 7.35 20.65 7.35 16.3 7.35 10.9 9.35 10.9
M 14.95 10.9
L 18.2 10.9 18.2 15.75 18.2 22.15 18.2 35.05 18.2 49.3 18.2 57.05 18.2 64.35 15.45 64.35
M 14.95 10.9
L 13.85 10.9 9.35 10.9
M 15.45 64.35
L 9.35 64.35"/>

<path id="cabin_modern_0_Layer0_0_2_STROKES" stroke="#000000" stroke-width="1" stroke-linejoin="round" stroke-linecap="round" fill="none" d="
M 53.35 1.4
L 53.35 81.5
M 46.7 1.4
L 46.7 81.5
M 9.35 64.35
L 9.35 81.5
M 9.35 1.4
L 9.35 10.9
M 32.05 2.45
L 32.05 81.5
M 39.35 0.15
L 39.35 81.5
M 14.95 1.4
L 14.95 9.65
M 15.45 64.35
L 15.45 81.5
M 23.75 1.4
L 23.75 81.5
M 15.45 81.5
L 15.45 82.3
M 9.35 81.5
L 9.35 82.3
M 39.35 81.5
L 39.35 82.15
M 46.7 83.25
L 46.7 84.3"/>
</defs>

<mask id="Mask_Mask_1">
<g transform="matrix( 1, 0, 0, 1, 0,0) ">
<use xlink:href="#Mask_5_MASK_0_FILL"/>
</g>
</mask>

<g mask="url(#Mask_Mask_1)">
<g transform="matrix( 1, 0, 0, 1, 0,0) ">
<use xlink:href="#Layer5_0_FILL"/>
</g>

<g transform="matrix( 0.8214111328125, 0, 0, 0.8214111328125, -50.3,5.45) ">
<use xlink:href="#Layer5_1_FILL"/>
</g>

<g transform="matrix( 0.8214111328125, 0, 0, 0.8214111328125, -50.3,5.45) ">
<use xlink:href="#Layer5_2_FILL"/>
</g>

<g transform="matrix( 0.8214111328125, 0, 0, 0.8214111328125, -50.3,5.45) ">
<use xlink:href="#Layer5_3_FILL"/>
</g>

<g transform="matrix( 0.8214111328125, 0, 0, 0.8214111328125, -50.3,5.45) ">
<use xlink:href="#Layer5_4_FILL"/>
</g>

<g transform="matrix( 0.8214111328125, 0, 0, 0.8214111328125, -50.3,5.45) ">
<use xlink:href="#Layer5_5_FILL"/>
</g>

<g transform="matrix( 0.8214111328125, 0, 0, 0.8214111328125, -50.3,5.45) ">
<use xlink:href="#Layer5_6_FILL"/>
</g>

<g transform="matrix( 0.8214111328125, 0, 0, 0.8214111328125, -50.3,5.45) ">
<use xlink:href="#Layer5_7_FILL"/>
</g>

<g transform="matrix( 0.8214111328125, 0, 0, 0.8214111328125, -50.3,5.45) ">
<use xlink:href="#Layer5_8_FILL"/>
</g>

<g transform="matrix( 0.8214111328125, 0, 0, 0.8214111328125, -50.3,5.45) ">
<use xlink:href="#Layer5_9_FILL"/>
</g>
</g>

<g mask="url(#Mask_Mask_1)">
<g id="modern" transform="matrix( 1, 0, 0, 1, 160.95,112.75) ">
<g transform="matrix( 1, 0, 0, 1, 0,0) ">
<use xlink:href="#cabin_modern_0_Layer0_0_FILL"/>

<use xlink:href="#cabin_modern_0_Layer0_0_1_STROKES"/>

<use xlink:href="#cabin_modern_0_Layer0_0_2_STROKES"/>
</g>
</g>
</g>

<g mask="url(#Mask_Mask_1)">
<g transform="matrix( 1, 0, 0, 1, 0,0) ">
<use xlink:href="#Layer3_0_FILL"/>
</g>
</g>

<g mask="url(#Mask_Mask_1)">
<g transform="matrix( 1, 0, 0, 1, 0,0) ">
<use xlink:href="#Layer2_0_FILL"/>
</g>
</g>

<g transform="matrix( 1, 0, 0, 1, 0,0) ">
<use xlink:href="#Layer0_0_FILL"/>
</g>
</svg>
