
<svg xmlns="http://www.w3.org/2000/svg" version="1.1" xmlns:xlink="http://www.w3.org/1999/xlink" preserveAspectRatio="none" x="0px" y="0px" width="250px" height="100px" viewBox="0 0 250 100">
<defs>
<g id="drone_mc_0_Layer0_0_FILL">
<path fill="#2D9480" stroke="none" d="
M -336.6 20
L -337.1 20 -337.1 78.35 -328.1 93.25
Q -328.931640625 86.216015625 -329.35 77.95 -329.71796875 70.6095703125 -329.75 62.3 -329.7515625 51.7376953125 -329.2 39.65 -328.2265625 18.3052734375 -325.3 -3.05
L -336.6 20
M -302 -120.85
L -300.3 -104.85
Q -298.663671875 -109.41640625 -296.95 -114 -290.507421875 -131.198046875 -282.55 -147.4
L -292.25 -143.25 -302 -120.85 Z"/>

<path fill="#101010" stroke="none" d="
M -162.25 -4.65
Q -162.13671875 -4.61484375 -162.05 -4.6 -161.7740234375 -4.50234375 -161.55 -4.45 -161.3099609375 -4.35625 -161.1 -4.3 -139.4607421875 2.7392578125 -122.1 20.1 -120.13046875 22.06953125 -118.3 24.1 -103.1427734375 40.7978515625 -97.05 61.25 -96.02578125 64.68515625 -95.25 68.2 -92.95 78.8599609375 -92.95 90.45 -92.95 93.9693359375 -93.2 97.4 -94.179296875 113.6912109375 -100 128
L -86.95 128 -86.95 121.7
Q -85.7298828125 109.2619140625 -85.95 97.7 -85.955859375 97.399609375 -86 97.1 -86.04609375 93.485546875 -86.3 89.95 -86.27265625 89.9375 -86.3 89.9 -87.03828125 77.962109375 -89.4 67.15 -89.4166015625 67.13828125 -89.45 67.1
L -89.45 67.05
Q -89.4431640625 67.013671875 -89.45 66.95 -89.476953125 66.862890625 -89.5 66.75 -90.336328125 63.071484375 -91.35 59.5 -91.3783203125 59.426171875 -91.4 59.3 -97.9568359375 36.6529296875 -112.3 19.5 -112.535546875 19.211328125 -112.8 18.9 -114.5421875 16.8525390625 -116.4 14.9 -116.5021484375 14.7650390625 -116.65 14.6 -133.37578125 -3.029296875 -157.85 -12.65 -158.2228515625 -12.7796875 -158.6 -12.95 -158.749609375 -12.987890625 -158.9 -13.05 -159 -13.087109375 -159.1 -13.15 -159.2240234375 -13.1771484375 -159.35 -13.25 -159.438671875 -13.259375 -159.55 -13.3 -159.70078125 -13.359765625 -159.9 -13.45 -160.012890625 -13.4734375 -160.15 -13.55 -160.3255859375 -13.5857421875 -160.5 -13.65 -175.05 -19 -185.95 -20 -238.85 -20 -267.45 4.85 -290.35 24.7 -296.7 59.5 -300.178515625 78.7083984375 -298.5 100.85 -298.485546875 101.0123046875 -298.5 101.15 -298.469140625 101.225390625 -298.5 101.3 -297.961328125 107.605859375 -297.05 114.15 -295.983984375 121.7134765625 -294.7 128
L -284.95 128
Q -287.9751953125 120.462890625 -289.7 112.35 -290.937109375 106.603125 -291.5 100.55 -291.95 95.5943359375 -291.95 90.45 -291.95 75.258203125 -288 61.7 -287.9861328125 61.662890625 -288 61.6 -281.1712890625 38.4712890625 -262.8 20.1 -233.65 -9.05 -192.45 -9.05 -177.0025390625 -9.05 -163.25 -4.95 -163.1857421875 -4.930859375 -163.15 -4.9 -162.935546875 -4.85625 -162.75 -4.8 -162.613671875 -4.75859375 -162.5 -4.75 -162.363671875 -4.68359375 -162.25 -4.65
M 440.5 -25
L 419.75 -25
Q 413.900390625 -23.8900390625 406.7 -21.7 382.75 -14.3 364.1 1 363.9005859375 1.1634765625 363.7 1.3 357.1630859375 6.735546875 351.5 12.95 351.4541015625 13.0283203125 351.35 13.1 342.322265625 23.1447265625 335.6 35.25 333.5521484375 38.9771484375 331.7 42.85 331.7119140625 42.899609375 331.7 42.9 331.660546875 42.9990234375 331.6 43.05 330.6146484375 45.21953125 329.65 47.4 329.6048828125 47.5892578125 329.5 47.75 327.6876953125 52.1111328125 326.1 56.7 321.2322265625 70.824609375 318.9 86.85 316.1279296875 106.061328125 316.95 128
L 335.55 128
Q 327.5 109.6462890625 327.5 87.95 327.5 67.353125 334.75 49.75 335.6876953125 47.5740234375 336.7 45.4 338.518359375 41.655859375 340.65 38 347.0857421875 27.1642578125 356.65 17.6 362.4634765625 11.7865234375 368.75 7.1 394.0166015625 -11.55 427 -11.55 468.2 -11.55 497.35 17.6 511.9314453125 32.1814453125 519.2 49.75 519.2552734375 49.848046875 519.25 49.9 522.870703125 58.6427734375 524.65 68.1 525.13125 70.487109375 525.45 72.9 526.5 80.2236328125 526.5 87.95 526.5 109.33515625 518.65 127.45 518.5359375 127.7380859375 518.4 128
L 534.45 128
Q 537.8337890625 97.1369140625 534.2 72
L 534.2 71.95
Q 534.1966796875 71.937890625 534.2 71.9 534.17578125 71.72578125 534.15 71.55
L 534.15 71.5
Q 533.794140625 69.1109375 533.35 66.75 533.333203125 66.51328125 533.3 66.25 531.5181640625 56.396484375 528.6 47.45 528.44140625 46.96015625 528.25 46.45 528.2662109375 46.448828125 528.25 46.4 517.2958984375 13.5078125 491.35 -5.25 472.5 -18.85 447.85 -23.75 444.138671875 -24.4970703125 440.5 -25 Z"/>

<path fill="#4BB5A0" stroke="none" d="
M -296.95 -114
Q -298.663671875 -109.41640625 -300.3 -104.85 -318.331640625 -53.9091796875 -325.3 -3.05 -328.2265625 18.3052734375 -329.2 39.65 -329.7515625 51.7376953125 -329.75 62.3 -329.71796875 70.6095703125 -329.35 77.95 -328.931640625 86.216015625 -328.1 93.25 -327.587890625 97.3326171875 -326.95 101
L -319.9 100.2
Q -326.389453125 28.8142578125 -284.95 -75.75 -268.85 -116.4 -247.3 -157.25 -244.5900390625 -162.3814453125 -242.1 -167
L -272.1 -167
Q -277.513671875 -157.5291015625 -282.4 -147.7 -282.448828125 -147.5296875 -282.55 -147.4 -290.507421875 -131.198046875 -296.95 -114 Z"/>

<path fill="#376E6D" stroke="none" d="
M -175 -215
L -238.8 -215
Q -244.025 -208.6833984375 -249 -202.05 -261.589453125 -185.2359375 -272.1 -167
L -242.1 -167 -207.45 -167 -188.05 -171.35
Q -168.6576171875 -194.6251953125 -155.3 -215
L -175 -215
M 453.3 -131.9
Q 462.55 -121.45 472.05 -109.75 502.55 -72.3 524.35 -36.15 527.744140625 -30.5134765625 530.85 -25 536.4091796875 -15.233203125 541.1 -5.85 557.563671875 27.081640625 563.65 55.3 572.5701171875 96.6572265625 558.65 125.95
L 560.85 126.9
Q 598.09609375 118.4453125 617.45 92.1 624.462890625 50.88046875 612.6 7.9 610.1505859375 -1.022265625 606.9 -9.95 598.8482421875 -32.1560546875 585.9 -54.25 582.1318359375 -60.6810546875 577.95 -67.1 560.6 -93.75 538.05 -117.55 531 -124.95 524.25 -131.25
L 520.05 -135 505.1 -135 450.5 -134.95 453.3 -131.9
M 566.2 -53.75
Q 565.05 -57.3943359375 565.05 -60 565.05 -61 567.05 -63.5 569.1 -66 570.05 -66 572.5626953125 -66 575.4 -63.6 579.245703125 -60.4044921875 583.7 -52.95 584.8005859375 -51.080078125 585.95 -48.95 590.65 -40.2 595.1 -29.5 600 -20.7 603.35 -8.7 606.064453125 1.03046875 606.5 8.25 606.6 9.6736328125 606.6 11 606.6 14.3 606.1 15.5 605.25 17.5 602.6 17.5 600.9 17.5 600.65 17.35 600.35625 17.1630859375 599.75 16.35 599.21875 15.7048828125 598.45 14.55 596.9009765625 11.6580078125 594.95 6.6 591.4 -2.75 588.1 -9.5 585.15 -15.5 580.35 -23.35 580.098828125 -23.759765625 579.85 -24.15 579.5203125 -24.7029296875 579.2 -25.25 577.313671875 -30.6126953125 570.9 -42.95 567.6556640625 -49.1615234375 566.2 -53.75
M 606.15 65.15
Q 606.2443359375 59.5875 604.75 54.6 604.8267578125 54.313671875 604.9 54.05 604.9826171875 53.7345703125 605.1 53.5 608.15 53.25 608.85 56.75 609.1 57.95 609.1 63.75 609.1 70.5 608.6 73
L 606.6 73
Q 606.05 71.15 606.15 65.15
M 293.4 -123.6
L 292.65 -129.95
Q 292.5119140625 -131.075390625 292.35 -132.15
L 292 -132.15 -102.65 -136.9
Q -101.4833984375 -126.9958984375 -98.6 -112.45 -91.9 -78.55 -80.1 -47 -75.85859375 -35.6384765625 -71.1 -25 -57.3537109375 5.746875 -39.3 30.45 -10.0396484375 70.4421875 28.95 92.3 68.3294921875 94.336328125 112.65 96.15 198.9029296875 99.645703125 245.05 99.55
L 245 99
Q 270.8 88.7 284 49.8 294.0787109375 20.089453125 296.45 -25 296.55625 -27.1076171875 296.65 -29.25 298.1 -63.45 295.2 -102.65 294.3 -114.45 293.4 -123.6
M 237 -104
Q 239.5 -104 241.25 -102.25 243 -100.5 243 -98 243 -95.5 241.25 -93.75 239.5 -92 237 -92
L -37.95 -92
Q -40.45 -92 -42.2 -93.75 -43.95 -95.5 -43.95 -98 -43.95 -100.5 -42.2 -102.25 -40.45 -104 -37.95 -104
L 237 -104 Z"/>

<path fill="#3AC4AD" stroke="none" d="
M -152.7 -219
Q -129.5671875 -255.337890625 -126.05 -282.1 -124.6412109375 -293.1294921875 -126.75 -301.4 -151.1169921875 -290.0798828125 -173.45 -274.75 -207.9384765625 -251.09375 -235.4 -219
L -152.7 -219
M 241.25 -102.25
Q 239.5 -104 237 -104
L -37.95 -104
Q -40.45 -104 -42.2 -102.25 -43.95 -100.5 -43.95 -98 -43.95 -95.5 -42.2 -93.75 -40.45 -92 -37.95 -92
L 237 -92
Q 239.5 -92 241.25 -93.75 243 -95.5 243 -98 243 -100.5 241.25 -102.25 Z"/>

<path fill="#33839E" stroke="none" d="
M -155.3 -215
Q -153.953125 -217.0138671875 -152.7 -219
L -235.4 -219
Q -237.1041015625 -217.016015625 -238.8 -215
L -175 -215 -155.3 -215 Z"/>

<path fill="#993333" stroke="none" d="
M 604.75 54.6
Q 606.2443359375 59.5875 606.15 65.15 606.05 71.15 606.6 73
L 608.6 73
Q 609.1 70.5 609.1 63.75 609.1 57.95 608.85 56.75 608.15 53.25 605.1 53.5 604.9826171875 53.7345703125 604.9 54.05 604.8267578125 54.313671875 604.75 54.6
M 565.05 -60
Q 565.05 -57.3943359375 566.2 -53.75 567.6556640625 -49.1615234375 570.9 -42.95 577.313671875 -30.6126953125 579.2 -25.25 579.5203125 -24.7029296875 579.85 -24.15 580.098828125 -23.759765625 580.35 -23.35 585.15 -15.5 588.1 -9.5 591.4 -2.75 594.95 6.6 596.9009765625 11.6580078125 598.45 14.55 599.21875 15.7048828125 599.75 16.35 600.35625 17.1630859375 600.65 17.35 600.9 17.5 602.6 17.5 605.25 17.5 606.1 15.5 606.6 14.3 606.6 11 606.6 9.6736328125 606.5 8.25 606.064453125 1.03046875 603.35 -8.7 600 -20.7 595.1 -29.5 590.65 -40.2 585.95 -48.95 584.8005859375 -51.080078125 583.7 -52.95 579.245703125 -60.4044921875 575.4 -63.6 572.5626953125 -66 570.05 -66 569.1 -66 567.05 -63.5 565.05 -61 565.05 -60 Z"/>

<path fill="#4E4E4C" stroke="none" d="
M 272.65 -296.45
L 253.85 -304.35 242.7 -299.1
Q 246.1845703125 -297.60625 249.8 -295.95 301.604296875 -271.7701171875 379.85 -208.4 383.0140625 -205.830078125 386.2 -203.2
L 386.25 -203.2
Q 391.08203125 -199.2421875 396 -195.15 426.7046875 -169.5970703125 451.45 -147.05 461.2224609375 -143.199609375 475.7 -140.15 477.75 -139.7 505.1 -135
L 505.75 -135.6
Q 442.4603515625 -204.9224609375 341.1 -261.9 307.05 -281.05 272.65 -296.45 Z"/>

<path fill="#434445" stroke="none" d="
M 237.1 -296.5
L 239.05 -292.3
Q 279.0640625 -270.8224609375 323.6 -240.85 352.83984375 -221.1767578125 375.5 -203 378.7416015625 -200.3962890625 381.85 -197.85 423.20625 -163.5921875 440.65 -134.8
L 440.95 -134.95 450.5 -134.95 505.1 -135
Q 477.75 -139.7 475.7 -140.15 461.2224609375 -143.199609375 451.45 -147.05 426.7046875 -169.5970703125 396 -195.15 391.08203125 -199.2421875 386.25 -203.2
L 386.2 -203.2
Q 383.0140625 -205.830078125 379.85 -208.4 301.604296875 -271.7701171875 249.8 -295.95 246.1845703125 -297.60625 242.7 -299.1
L 237.1 -296.5 Z"/>

<path fill="#2E9480" stroke="none" d="
M 253.85 -304.35
L 260.9 -307.65
Q 253.3095703125 -311.2583984375 247.5 -313.8 247.214453125 -313.827734375 246.9 -313.9 150.3412109375 -331.6931640625 64 -331.1
L 63.95 -331.1
Q 16.83671875 -330.7677734375 -27.25 -324.95 -68.2 -319.55 -101.55 -309.95 -118.2 -305.1 -126.7 -301.4
L -126.75 -301.4
Q -124.6412109375 -293.1294921875 -126.05 -282.1 -129.5671875 -255.337890625 -152.7 -219 -153.953125 -217.0138671875 -155.3 -215 -168.6576171875 -194.6251953125 -188.05 -171.35
L -207.45 -167 -242.1 -167
Q -244.5900390625 -162.3814453125 -247.3 -157.25 -268.85 -116.4 -284.95 -75.75 -326.389453125 28.8142578125 -319.9 100.2 -319.5177734375 104.5494140625 -318.95 108.75
L -293.95 133 -293.6 132.95
Q -294.148828125 130.5830078125 -294.7 128 -295.983984375 121.7134765625 -297.05 114.15 -297.961328125 107.605859375 -298.5 101.3 -298.469140625 101.225390625 -298.5 101.15 -298.485546875 101.0123046875 -298.5 100.85 -300.178515625 78.7083984375 -296.7 59.5 -290.35 24.7 -267.45 4.85 -238.85 -20 -185.95 -20 -175.05 -19 -160.5 -13.65 -160.3255859375 -13.5857421875 -160.15 -13.55 -160.012890625 -13.4734375 -159.9 -13.45 -159.70078125 -13.359765625 -159.55 -13.3 -159.438671875 -13.259375 -159.35 -13.25 -159.2240234375 -13.1771484375 -159.1 -13.15 -159 -13.087109375 -158.9 -13.05 -158.749609375 -12.987890625 -158.6 -12.95 -158.2228515625 -12.7796875 -157.85 -12.65 -133.37578125 -3.029296875 -116.65 14.6 -116.5021484375 14.7650390625 -116.4 14.9 -114.5421875 16.8525390625 -112.8 18.9 -112.535546875 19.211328125 -112.3 19.5 -97.9568359375 36.6529296875 -91.4 59.3 -91.3783203125 59.426171875 -91.35 59.5 -90.336328125 63.071484375 -89.5 66.75 -89.476953125 66.862890625 -89.45 66.95 -89.4431640625 67.013671875 -89.45 67.05
L -89.45 67.1
Q -89.4166015625 67.13828125 -89.4 67.15 -87.03828125 77.962109375 -86.3 89.9 -86.27265625 89.9375 -86.3 89.95 -86.04609375 93.485546875 -86 97.1 -85.955859375 97.399609375 -85.95 97.7 -85.7298828125 109.2619140625 -86.95 121.7
L -86.95 128 -86.95 141 -65.95 141 -65.95 142 317.85 142
Q 317.2517578125 134.865234375 316.95 128 316.1279296875 106.061328125 318.9 86.85 321.2322265625 70.824609375 326.1 56.7 327.6876953125 52.1111328125 329.5 47.75 329.6048828125 47.5892578125 329.65 47.4 330.6146484375 45.21953125 331.6 43.05 331.660546875 42.9990234375 331.7 42.9 331.7119140625 42.899609375 331.7 42.85 333.5521484375 38.9771484375 335.6 35.25 342.322265625 23.1447265625 351.35 13.1 351.4541015625 13.0283203125 351.5 12.95 357.1630859375 6.735546875 363.7 1.3 363.9005859375 1.1634765625 364.1 1 382.75 -14.3 406.7 -21.7 413.900390625 -23.8900390625 419.75 -25 423.650390625 -25.7400390625 426.95 -26
L 432.75 -25.8
Q 436.5833984375 -25.541015625 440.5 -25 444.138671875 -24.4970703125 447.85 -23.75 472.5 -18.85 491.35 -5.25 517.2958984375 13.5078125 528.25 46.4 528.2662109375 46.448828125 528.25 46.45 528.44140625 46.96015625 528.6 47.45 531.5181640625 56.396484375 533.3 66.25 533.333203125 66.51328125 533.35 66.75 533.794140625 69.1109375 534.15 71.5
L 534.15 71.55
Q 534.17578125 71.72578125 534.2 71.9 534.1966796875 71.937890625 534.2 71.95
L 534.2 72
Q 537.8337890625 97.1369140625 534.45 128 534.3474609375 129.046484375 534.2 130.1
L 534.2 130.15 534.75 130.15
Q 546.5607421875 129.79609375 557.9 127.5 558.2931640625 126.740625 558.65 125.95 572.5701171875 96.6572265625 563.65 55.3 557.563671875 27.081640625 541.1 -5.85 536.4091796875 -15.233203125 530.85 -25 527.744140625 -30.5134765625 524.35 -36.15 502.55 -72.3 472.05 -109.75 462.55 -121.45 453.3 -131.9
L 450.5 -134.95 440.95 -134.95 440.65 -134.8
Q 423.20625 -163.5921875 381.85 -197.85 378.7416015625 -200.3962890625 375.5 -203 352.83984375 -221.1767578125 323.6 -240.85 279.0640625 -270.8224609375 239.05 -292.3 236.5029296875 -293.65546875 233.95 -295
L 237.1 -296.5 242.7 -299.1 253.85 -304.35
M 173.8 -287.75
Q 212.35 -278.4 232.75 -259.75 247.85 -245.95 260.6 -217.85 267.75 -201.3 271.8 -192.3 276.45 -181.95 292 -135
L 292.55 -132.15 292.65 -129.95 293.4 -123.6
Q 294.3 -114.45 295.2 -102.65 298.1 -63.45 296.65 -29.25 296.55625 -27.1076171875 296.45 -25 294.0787109375 20.089453125 284 49.8 270.8 88.7 245 99
L 245.05 99.55
Q 198.9029296875 99.645703125 112.65 96.15 68.3294921875 94.336328125 28.95 92.3 -10.0396484375 70.4421875 -39.3 30.45 -57.3537109375 5.746875 -71.1 -25 -75.85859375 -35.6384765625 -80.1 -47 -91.9 -78.55 -98.6 -112.45 -101.4833984375 -126.9958984375 -102.65 -136.9 -102.8107421875 -138.51640625 -102.95 -140
L -104.8 -147.1
Q -106.9 -156.1 -107.95 -165.7 -111.3 -196.5 -103.1 -221.85 -91.65 -257.4 -58.7 -277.1 -17.55 -301.7 55 -300 130.75 -298.2 173.8 -287.75 Z"/>

<path fill="#30302D" stroke="none" d="
M 232.75 -259.75
Q 212.35 -278.4 173.8 -287.75 130.75 -298.2 55 -300 -17.55 -301.7 -58.7 -277.1 -91.65 -257.4 -103.1 -221.85 -111.3 -196.5 -107.95 -165.7 -106.9 -156.1 -104.8 -147.1
L -102.95 -140
Q -102.8107421875 -138.51640625 -102.65 -136.9
L 292 -132.15 292 -135
Q 276.45 -181.95 271.8 -192.3 267.75 -201.3 260.6 -217.85 247.85 -245.95 232.75 -259.75
M 203 -253.25
Q 217.9 -241.85 227.75 -215.55 234.43984375 -197.790625 247 -147
L 220.95 -147 2.75 -147 -30 -147 -31.1 -153.1
Q -32.3 -160.9 -32.85 -169.15 -34.5 -195.6 -28.6 -217 -20.4 -246.95 1.65 -262.6 29.2 -282.1 77 -278 140.25 -272.55 158 -269.55 188.4 -264.45 203 -253.25 Z"/>

<path fill="#505050" stroke="none" d="
M 227.75 -215.55
Q 217.9 -241.85 203 -253.25 188.4 -264.45 158 -269.55 140.25 -272.55 77 -278 29.2 -282.1 1.65 -262.6 -20.4 -246.95 -28.6 -217 -34.5 -195.6 -32.85 -169.15 -32.3 -160.9 -31.1 -153.1
L -30 -147 2.75 -147 1.85 -151.05
Q 0.55 -157.45 -0.25 -164.3 -2.8 -186.2 0.9 -204 6 -228.95 22.85 -242.2 43.85 -258.75 82 -256 134.5 -252.2 147.45 -250.3 172.7 -246.5 185 -237.25 197.85 -227.55 206.05 -205.1 212.1833984375 -188.1150390625 220.95 -147
L 247 -147
Q 234.43984375 -197.790625 227.75 -215.55 Z"/>
</g>

<g id="wheel_0_Layer0_0_FILL">
<path fill="#010606" stroke="none" d="
M 173.65 33.15
Q 171.8 31.1 169.85 29.15 152.5 11.8 130.85 4.8 130.65 4.7 130.45 4.65 130.2 4.55 129.95 4.5 129.8 4.45 129.7 4.4 129.6 4.35 129.5 4.35 129.35 4.3 129.2 4.25 129 4.2 128.85 4.15 128.75 4.1 128.7 4.1 114.95 0 99.5 0 58.3 0 29.15 29.15 10.8 47.5 4 70.7 3.95 70.7 3.95 70.75 0 84.3 0 99.5 0 104.65 0.45 109.6 1 115.65 2.25 121.45 3.95 129.5 7.05 137.05 14.3 155 29.15 169.85 58.3 199 99.5 199 140.7 199 169.85 169.85 184.7 155 192 137.05 197.75 122.75 198.8 106.45 199 103 199 99.5 199 87.9 196.7 77.3 195.9 73.75 194.9 70.3 188.8 49.85 173.65 33.15
M 99.5 42.05
Q 124.55 42.05 142.25 59.75 160 77.5 160 102.55 160 122 149.3 137.05 146.2 141.35 142.25 145.3 124.55 163.05 99.5 163.05 74.45 163.05 56.7 145.3 52.75 141.35 49.7 137.05 39 122 39 102.55 39 77.5 56.7 59.75 74.45 42.05 99.5 42.05 Z"/>

<path fill="#376E6D" stroke="none" d="
M 142.25 59.75
Q 124.55 42.05 99.5 42.05 74.45 42.05 56.7 59.75 39 77.5 39 102.55 39 122 49.7 137.05 52.75 141.35 56.7 145.3 74.45 163.05 99.5 163.05 124.55 163.05 142.25 145.3 146.2 141.35 149.3 137.05 160 122 160 102.55 160 77.5 142.25 59.75 Z"/>
</g>

<g id="Layer0_0_FILL">
<path fill="#0A2827" stroke="none" d="
M 245.75 24.4
L 245.75 12.7 238.4 4.3 145.5 4.3 145.5 17.9 151.45 24.75 245.75 24.75
Q 245.75 24.6 245.75 24.4
M 246.25 30.1
L 246.25 29.6 179.75 29.6 187.25 37.1 187.05 51.9 198.5 63.35 240.65 63.35 240.65 35.7 246.25 30.1 Z"/>
</g>
</defs>

<g id="drone" transform="matrix( 0.117340087890625, 0, 0, 0.117340087890625, 65.8,66.45) ">
<g transform="matrix( 1, 0, 0, 1, 0,0) ">
<use xlink:href="#drone_mc_0_Layer0_0_FILL"/>
</g>

<g transform="matrix( 1, 0, 0, 1, -291.95,-9.05) ">
<g transform="matrix( 1, 0, 0, 1, 0,0) ">
<use xlink:href="#wheel_0_Layer0_0_FILL"/>
</g>
</g>

<g transform="matrix( 1.0381927490234375, 0, 0, 1.0381927490234375, 322.55,-15.4) ">
<g transform="matrix( 1, 0, 0, 1, 0,0) ">
<use xlink:href="#wheel_0_Layer0_0_FILL"/>
</g>
</g>
</g>

<g transform="matrix( 1, 0, 0, 1, 0,0) ">
<use xlink:href="#Layer0_0_FILL"/>
</g>
</svg>
