
<svg xmlns="http://www.w3.org/2000/svg" version="1.1" xmlns:xlink="http://www.w3.org/1999/xlink" preserveAspectRatio="none" x="0px" y="0px" width="600px" height="600px" viewBox="0 0 600 600">
<defs>
<g id="hiker_mc_0_Layer0_0_FILL" opacity="1">
<path fill="#432715" stroke="none" d="
M 9.95 20.25
L 9.95 21 9.95 26.5 15.95 26.5 17.2 26.5 17.2 24.25 17.2 20.25 9.95 20.25
M 15.2 -1.5
L 9.45 -1.5 9.45 1 6.2 1 6.2 5.75 9.2 5.75 10.45 5.75 10.45 8 14.2 8 14.2 5.75 15.45 5.75 18.2 5.75 18.2 1 15.2 1 15.2 -1.5 Z"/>

<path fill="#5B2F21" stroke="none" d="
M 4.95 24
L 4.95 24.25 7.95 24.25 7.95 36.5 15.95 36.5 15.95 26.5 9.95 26.5 9.95 21 8.2 21 8.2 24 4.95 24
M 8.7 10.5
L 8.2 10.5 8.2 11.75 9.2 11.75 9.2 10.5 8.7 10.5
M 15.45 10.5
L 15.45 11.75 15.45 13.5 8.2 13.5 8.2 19.5 9.95 19.5 9.95 20.25 17.2 20.25 17.2 24.25 18.7 24.25 18.7 10.5 15.45 10.5 Z"/>

<path fill="#CCCCCC" stroke="none" d="
M 9.2 10.5
L 9.2 10.2
Q 8.945703125 10.3421875 8.7 10.5
L 9.2 10.5 Z"/>

<path fill="#006666" stroke="none" d="
M 8.2 10.5
L 8.2 8.75 0.95 8.75 0.95 24 4.95 24 8.2 24 8.2 21 9.95 21 9.95 20.25 9.95 19.5 8.2 19.5 8.2 13.5 15.45 13.5 15.45 11.75 9.2 11.75 8.2 11.75 8.2 10.5 Z"/>

<path fill="#E1B5DF" stroke="none" d="
M 14.2 8
L 10.45 8 10.45 5.75 9.2 5.75 9.2 10.2 9.2 10.5 9.2 11.75 15.45 11.75 15.45 10.5 15.45 5.75 14.2 5.75 14.2 8 Z"/>
</g>


</defs>

<g id="camp" transform="matrix( 1, 0, 0, 1, 0,0) ">
<g id="bg" transform="matrix( 1, 0, 0, 1, 97,146) ">
<g transform="matrix( 1, 0, 0, 1, 0,0) ">
<path id="track" stroke="#FF00FF" stroke-width="5.8" stroke-linejoin="round" stroke-linecap="round" fill="none" d="
M -9 151
Q 3.25 152.5 16.75 153.65 43.75 155.9 50 154 52.55 153.25 67.25 153.85 86.4 154.7 96.65 154.4 137.8 153.15 147 136 156.7 117.9 189.15 105 208.5 97.3 235 92 241.35 90.75 254.55 93.2 262.35 94.7 280.4 98.75 297 102.15 308.3 102.4 323.45 102.75 334 98 352.45 89.65 361.1 81.25 363.25 79.15 366.15 75.8 368.55 73.2 370.95 72 373.6 70.7 389.85 70.05 396.35 69.8 424.45 69.25 474.45 68.25 480.95 65 484.4 63.3 488.6 63.35 493.65 63.4 495.1 63 502.5 60.9 512.95 40
L 516.05 40.65
Q 519.85 41.25 523.45 41.25 534.95 41.25 539.95 35 545.7 27.85 557.85 26.25 568.8 24.8 583.95 28 602.95 32 620.95 34
L 648.95 48 757.95 47 777.95 28 811.95 20 830.95 8 855.95 -6 878.95 -3 897.95 -8 918.95 1"/>
</g>
</g>

<g id="hiker" transform="matrix( 1, 0, 0, 1, 103.3,254) ">
<g transform="matrix( 1, 0, 0, 1, 0,0) ">
<use xlink:href="#hiker_mc_0_Layer0_0_FILL"/>
</g>
</g>
</g>
</svg>
