
<svg xmlns="http://www.w3.org/2000/svg" version="1.1" xmlns:xlink="http://www.w3.org/1999/xlink" preserveAspectRatio="none" x="0px" y="0px" width="250px" height="100px" viewBox="0 0 250 100">
<defs>
<g id="drone_mc_0_Layer0_0_FILL">
<path fill="#101010" stroke="none" d="
M 63.25 11
Q 62.9 10.95 62.4 10.9
L 59.7 10.9
Q 58.95 11 57.95 11.3 54.8 12.3 52.45 14.3 52.4 14.3 52.3 14.35 51.55 15 50.75 15.8 50.15 16.55 49.65 17.2 49.15 18 48.75 18.75 48.4 19.2 48.25 19.7
L 48.25 19.75 48.15 19.75
Q 48 19.95 48 20.3
L 47.95 20.35
Q 47.65 20.9 47.5 21.5 46.85 23.4 46.5 25.45 46.2 28 46.3 30.8
L 48.75 30.8
Q 47.6 28.45 47.6 25.55 47.6 22.95 48.6 20.65 48.8 20.3 48.85 20.05 49.1 19.55 49.35 19.15 49.5 18.85 49.65 18.7 50.4 17.5 51.45 16.45 52.25 15.65 53.1 15.05 56.3 12.6 60.6 12.6 66 12.6 69.8 16.45 71.7 18.3 72.7 20.65
L 72.7 20.7
Q 73.1 21.8 73.4 23 73.45 23.35 73.5 23.7 73.55 24.6 73.55 25.55 73.55 28.45 72.6 30.75
L 72.55 30.8 74.65 30.8
Q 75.05 26.8 74.6 23.5
L 74.6 23.45
Q 74.55 23.15 74.5 22.85 74.5 22.8 74.45 22.8 74.3 21.5 73.9 20.3
L 73.85 20.2
Q 72.35 15.9 69.05 13.45 66.55 11.7 63.25 11
M -15.95 12.35
Q -17.9 11.7 -19.3 11.5 -26.2 11.5 -29.95 14.85 -32.95 17.35 -33.75 21.9 -34.2 24.4 -34 27.3
L -34 27.35
Q -33.85 28.15 -33.8 29 -33.65 30.05 -33.5 30.8
L -32.15 30.8
Q -32.6 29.8 -32.85 28.8 -33 28.05 -33.05 27.2 -33.1 26.6 -33.1 25.95 -33.1 23.9 -32.6 22.2
L -32.55 22.2
Q -31.65 19.15 -29.35 16.75 -25.5 12.95 -20.15 12.95 -18.1 12.95 -16.4 13.5 -16.35 13.5 -16.25 13.55
L -16.15 13.55 -16.1 13.6 -16.05 13.6
Q -13.25 14.45 -10.95 16.75 -10.75 17 -10.45 17.25 -8.55 19.5 -7.75 22.15 -7.6 22.55 -7.4 23 -7.15 24.4 -7.15 25.95 -7.15 26.4 -7.2 26.85 -7.3 28.95 -8.1 30.8
L -6.35 30.8 -6.35 30.05
Q -6.2 28.4 -6.2 26.9 -6.2 26.85 -6.2 26.8 -6.25 26.35 -6.25 25.9
L -6.25 25.85
Q -6.45 24.25 -6.7 22.9
L -6.7 22.85
Q -6.85 22.35 -7 21.9 -7.8 18.9 -9.7 16.7 -9.7 16.65 -9.75 16.6 -9.95 16.3 -10.25 16.1
L -10.25 16.05
Q -12.45 13.7 -15.6 12.45 -15.65 12.45 -15.7 12.45
L -15.85 12.45 -15.85 12.4 -15.95 12.4 -15.95 12.35 Z"/>

<path fill="#2D9480" stroke="none" d="
M -38.95 16.75
L -39 16.75 -39 24.35 -37.85 26.3
Q -37.95 25.4 -38 24.3 -38.05 23.35 -38.05 22.3 -38.05 20.85 -37.95 19.3 -37.85 16.55 -37.45 13.7
L -38.95 16.75
M -33.15 -4.55
L -34.4 -1.65 -34.2 0.45
Q -34.05 -0.1 -33.75 -0.7 -32.95 -3 -31.85 -5.1
L -33.15 -4.55 Z"/>

<path fill="#3AC4AD" stroke="none" d="
M -14.95 -14.45
Q -11.95 -19.2 -11.5 -22.6 -11.25 -24.05 -11.65 -25.2 -14.8 -23.65 -17.65 -21.7 -22.2 -18.6 -25.75 -14.45
L -14.95 -14.45
M -0.8 1.35
Q -0.8 1.65 -0.55 1.9 -0.3 2.1 0 2.1
L 35.85 2.1
Q 36.15 2.1 36.45 1.9 36.6 1.65 36.6 1.35 36.6 1.05 36.45 0.8 36.15 0.55 35.85 0.55
L 0 0.55
Q -0.3 0.55 -0.55 0.8 -0.8 1.05 -0.8 1.35 Z"/>

<path fill="#376E6D" stroke="none" d="
M -26.55 -7.65
L -22.1 -7.65 -19.55 -8.2
Q -17.05 -11.25 -15.3 -13.9
L -17.9 -13.9 -26.2 -13.9
Q -26.9 -13.05 -27.5 -12.2 -29.15 -10 -30.5 -7.65
L -26.55 -7.65
M 64.1 -3.05
Q 65.25 -1.7 66.5 -0.15 70.45 4.65 73.35 9.4 73.8 10.2 74.15 10.9 74.9 12.1 75.5 13.35 77.65 17.65 78.45 21.35 79.6 26.7 77.8 30.55
L 78.1 30.65
Q 82.9 29.6 85.45 26.15 86.35 20.75 84.85 15.2 84.5 14.05 84.05 12.85 83 9.95 81.35 7.1 80.85 6.2 80.3 5.4 78.05 1.9 75.1 -1.2 74.25 -2.15 73.3 -3
L 72.75 -3.45 70.8 -3.45 63.7 -3.45 64.1 -3.05
M 81.35 7.75
Q 81.95 8.9 82.55 10.3 83.2 11.45 83.65 13 83.95 14.3 84.05 15.2 84.05 15.4 84.05 15.6 84.05 16 83.95 16.15 83.85 16.4 83.5 16.4
L 83.3 16.4
Q 83.25 16.4 83.15 16.25 83.1 16.15 82.95 16.05 82.8 15.65 82.55 15 82.1 13.8 81.65 12.9 81.25 12.1 80.6 11.05
L 80.6 11
Q 80.55 10.9 80.5 10.9 80.2 10.15 79.35 8.5 79 7.75 78.75 7.15 78.6 6.65 78.6 6.3 78.6 6.2 78.85 5.85 79.15 5.5 79.25 5.5 79.6 5.5 80 5.8 80.5 6.25 81.05 7.2 81.2 7.45 81.35 7.75
M 84.05 23.7
Q 83.95 23.4 84 22.65 84 21.9 83.8 21.25
L 83.8 21.15
Q 84.25 21.1 84.35 21.5 84.35 21.7 84.35 22.45 84.35 23.35 84.3 23.7
L 84.05 23.7
M 43.1 -3.1
L 43.05 -3.1 -8.4 -3.7
Q -8.25 -2.45 -7.85 -0.5 -7 3.9 -5.5 8 -4.95 9.45 -4.35 10.9 -2.55 14.85 -0.2 18.1 3.65 23.35 8.75 26.2 13.85 26.45 19.65 26.65 30.9 27.1 36.95 27.1
L 36.95 27.05
Q 40.25 25.75 42.05 20.65 43.3 16.75 43.65 10.9 43.65 10.6 43.7 10.3 43.8 5.85 43.4 0.8 43.3 -0.85 43.25 -2
L 43.1 -3.1
M -0.55 1.9
Q -0.8 1.65 -0.8 1.35 -0.8 1.05 -0.55 0.8 -0.3 0.55 0 0.55
L 35.85 0.55
Q 36.15 0.55 36.45 0.8 36.6 1.05 36.6 1.35 36.6 1.65 36.45 1.9 36.15 2.1 35.85 2.1
L 0 2.1
Q -0.3 2.1 -0.55 1.9 Z"/>

<path fill="#4BB5A0" stroke="none" d="
M -30.5 -7.65
Q -31.25 -6.4 -31.85 -5.15
L -31.85 -5.1
Q -32.95 -3 -33.75 -0.7 -34.05 -0.1 -34.2 0.45 -36.6 7.15 -37.45 13.7 -37.85 16.55 -37.95 19.3 -38.05 20.85 -38.05 22.3 -38.05 23.35 -38 24.3 -37.95 25.4 -37.85 26.3 -37.75 26.85 -37.65 27.35
L -36.75 27.2
Q -37.65 17.85 -32.2 4.2 -30.1 -1.05 -27.35 -6.35 -26.95 -7 -26.55 -7.65
L -30.5 -7.65 Z"/>

<path fill="#33839E" stroke="none" d="
M -25.75 -14.45
Q -25.95 -14.15 -26.2 -13.9
L -17.9 -13.9 -15.3 -13.9
Q -15.1 -14.15 -14.95 -14.45
L -25.75 -14.45 Z"/>

<path fill="#993333" stroke="none" d="
M 84 22.65
Q 83.95 23.4 84.05 23.7
L 84.3 23.7
Q 84.35 23.35 84.35 22.45 84.35 21.7 84.35 21.5 84.25 21.1 83.8 21.15
L 83.8 21.25
Q 84 21.9 84 22.65
M 82.55 10.3
Q 81.95 8.9 81.35 7.75 81.2 7.45 81.05 7.2 80.5 6.25 80 5.8 79.6 5.5 79.25 5.5 79.15 5.5 78.85 5.85 78.6 6.2 78.6 6.3 78.6 6.65 78.75 7.15 79 7.75 79.35 8.5 80.2 10.15 80.5 10.9 80.55 10.9 80.6 11
L 80.6 11.05
Q 81.25 12.1 81.65 12.9 82.1 13.8 82.55 15 82.8 15.65 82.95 16.05 83.1 16.15 83.15 16.25 83.25 16.4 83.3 16.4
L 83.5 16.4
Q 83.85 16.4 83.95 16.15 84.05 16 84.05 15.6 84.05 15.4 84.05 15.2 83.95 14.3 83.65 13 83.2 11.45 82.55 10.3 Z"/>

<path fill="#434445" stroke="none" d="
M 35.85 -24.5
L 36.1 -23.95
Q 41.3 -21.2 47.1 -17.25 48.4 -16.35 49.65 -15.55 51.95 -13.9 53.95 -12.35 54.3 -11.95 54.75 -11.6 60.2 -7.2 62.45 -3.45
L 63.7 -3.45 70.8 -3.45
Q 67.2 -4.05 67 -4.15 65.05 -4.55 63.75 -5.05 60.55 -7.95 56.6 -11.35 55.9 -11.85 55.3 -12.35
L 55.3 -12.4
Q 54.85 -12.7 54.5 -13.05 51.95 -15.05 49.65 -16.8 42.6 -22.05 37.5 -24.4 37 -24.65 36.6 -24.85
L 35.85 -24.5 Z"/>

<path fill="#4E4E4C" stroke="none" d="
M 38.1 -25.6
L 36.6 -24.85
Q 37 -24.65 37.5 -24.4 42.6 -22.05 49.65 -16.8 51.95 -15.05 54.5 -13.05 54.85 -12.7 55.3 -12.4
L 55.3 -12.35
Q 55.9 -11.85 56.6 -11.35 60.55 -7.95 63.75 -5.05 65.05 -4.55 67 -4.15 67.2 -4.05 70.8 -3.45
L 70.9 -3.55
Q 62.7 -12.5 49.65 -19.9 49.55 -19.95 49.45 -20 45 -22.5 40.55 -24.5
L 38.1 -25.6 Z"/>

<path fill="#2E9480" stroke="none" d="
M 39 -26
Q 38 -26.45 37.2 -26.75
L 37.15 -26.75
Q 24.55 -29.1 13.3 -29.05 7.15 -29.05 1.35 -28.2 -3.95 -27.55 -8.25 -26.25 -10.45 -25.6 -11.65 -25.2 -11.25 -24.05 -11.5 -22.6 -11.95 -19.2 -14.95 -14.45 -15.1 -14.15 -15.3 -13.9 -17.05 -11.25 -19.55 -8.2
L -22.1 -7.65 -26.55 -7.65
Q -26.95 -7 -27.35 -6.35 -30.1 -1.05 -32.2 4.2 -37.65 17.85 -36.75 27.2 -36.75 27.75 -36.65 28.35
L -33.35 31.5 -33.3 31.5
Q -33.35 31.15 -33.5 30.8 -33.65 30.05 -33.8 29 -33.85 28.15 -34 27.35
L -34 27.3
Q -34.2 24.4 -33.75 21.9 -32.95 17.35 -29.95 14.85 -26.2 11.5 -19.3 11.5 -17.9 11.7 -15.95 12.35
L -15.95 12.4 -15.85 12.4 -15.85 12.45 -15.7 12.45
Q -15.65 12.45 -15.6 12.45 -12.45 13.7 -10.25 16.05
L -10.25 16.1
Q -9.95 16.3 -9.75 16.6 -9.7 16.65 -9.7 16.7 -7.8 18.9 -7 21.9 -6.85 22.35 -6.7 22.85
L -6.7 22.9
Q -6.45 24.25 -6.25 25.85
L -6.25 25.9
Q -6.25 26.35 -6.2 26.8 -6.2 26.85 -6.2 26.9 -6.2 28.4 -6.35 30.05
L -6.35 30.8 -6.35 32.5 -3.65 32.5 -3.65 32.65 46.4 32.65
Q 46.4 32.4 46.35 32.2 46.3 31.5 46.3 30.8 46.2 28 46.5 25.45 46.85 23.4 47.5 21.5 47.65 20.9 47.95 20.35
L 48 20.3
Q 48 19.95 48.15 19.75
L 48.25 19.75 48.25 19.7
Q 48.4 19.2 48.75 18.75 49.15 18 49.65 17.2 50.15 16.55 50.75 15.8 51.55 15 52.3 14.35 52.4 14.3 52.45 14.3 54.8 12.3 57.95 11.3 58.95 11 59.7 10.9 60.2 10.8 60.6 10.75
L 61.35 10.8
Q 61.9 10.8 62.4 10.9 62.9 10.95 63.25 11 66.55 11.7 69.05 13.45 72.35 15.9 73.85 20.2
L 73.9 20.3
Q 74.3 21.5 74.45 22.8 74.5 22.8 74.5 22.85 74.55 23.15 74.6 23.45
L 74.6 23.5
Q 75.05 26.8 74.65 30.8 74.65 31 74.6 31.1
L 74.65 31.1
Q 76.2 31.05 77.7 30.75 77.75 30.65 77.8 30.55 79.6 26.7 78.45 21.35 77.65 17.65 75.5 13.35 74.9 12.1 74.15 10.9 73.8 10.2 73.35 9.4 70.45 4.65 66.5 -0.15 65.25 -1.7 64.1 -3.05
L 63.7 -3.45 62.45 -3.45
Q 60.2 -7.2 54.75 -11.6 54.3 -11.95 53.95 -12.35 51.95 -13.9 49.65 -15.55 48.4 -16.35 47.1 -17.25 41.3 -21.2 36.1 -23.95 35.8 -24.15 35.45 -24.35
L 35.85 -24.5 36.6 -24.85 38.1 -25.6 39 -26
M 35.3 -19.7
Q 37.25 -17.9 39 -14.25 39.85 -12.1 40.35 -10.95 41 -9.55 43.05 -3.45
L 43.1 -3.1 43.25 -2
Q 43.3 -0.85 43.4 0.8 43.8 5.85 43.7 10.3 43.65 10.6 43.65 10.9 43.3 16.75 42.05 20.65 40.25 25.75 36.95 27.05
L 36.95 27.1
Q 30.9 27.1 19.65 26.65 13.85 26.45 8.75 26.2 3.65 23.35 -0.2 18.1 -2.55 14.85 -4.35 10.9 -4.95 9.45 -5.5 8 -7 3.9 -7.85 -0.5 -8.25 -2.45 -8.4 -3.7 -8.45 -3.9 -8.45 -4.1
L -8.7 -5.1
Q -8.95 -6.25 -9.1 -7.45 -9.55 -11.5 -8.55 -14.8 -7 -19.4 -2.7 -22 2.65 -25.2 12.15 -25 22 -24.8 27.6 -23.4 32.7 -22.2 35.3 -19.7 Z"/>

<path fill="#30302D" stroke="none" d="
M 39 -14.25
Q 37.25 -17.9 35.3 -19.7 32.7 -22.2 27.6 -23.4 22 -24.8 12.15 -25 2.65 -25.2 -2.7 -22 -7 -19.4 -8.55 -14.8 -9.55 -11.5 -9.1 -7.45 -8.95 -6.25 -8.7 -5.1
L -8.45 -4.1
Q -8.45 -3.9 -8.4 -3.7
L 43.05 -3.1 43.05 -3.45
Q 41 -9.55 40.35 -10.95 39.85 -12.1 39 -14.25
M 1.2 -14.15
Q 2.3 -18.1 5.2 -20.1 8.75 -22.6 15.05 -22.1 23.3 -21.35 25.55 -20.95 29.55 -20.35 31.4 -18.9 33.4 -17.35 34.65 -14 35.5 -11.6 37.15 -5.05
L 33.8 -5.05 5.3 -5.05 1.05 -5.05 0.95 -5.85
Q 0.7 -6.85 0.7 -7.9 0.5 -11.4 1.2 -14.15 Z"/>

<path fill="#505050" stroke="none" d="
M 5.2 -20.1
Q 2.3 -18.1 1.2 -14.15 0.5 -11.4 0.7 -7.9 0.7 -6.85 0.95 -5.85
L 1.05 -5.05 5.3 -5.05 5.25 -5.6
Q 5 -6.4 4.9 -7.3 4.6 -10.2 5.1 -12.45 5.75 -15.75 7.95 -17.4 10.65 -19.65 15.65 -19.25 22.5 -18.75 24.15 -18.55 27.5 -18 29.1 -16.8 30.75 -15.55 31.8 -12.6 32.7 -10.35 33.8 -5.05
L 37.15 -5.05
Q 35.5 -11.6 34.65 -14 33.4 -17.35 31.4 -18.9 29.55 -20.35 25.55 -20.95 23.3 -21.35 15.05 -22.1 8.75 -22.6 5.2 -20.1 Z"/>
</g>

<g id="wheel_0_Layer0_0_FILL">
<path fill="#010606" stroke="none" d="
M 173.65 33.15
Q 171.8 31.1 169.85 29.15 152.5 11.8 130.85 4.8 130.65 4.7 130.45 4.65 130.2 4.55 129.95 4.5 129.8 4.45 129.7 4.4 129.6 4.35 129.5 4.35 129.35 4.3 129.2 4.25 129 4.2 128.85 4.15 128.75 4.1 128.7 4.1 114.95 0 99.5 0 58.3 0 29.15 29.15 10.8 47.5 4 70.7 3.95 70.7 3.95 70.75 0 84.3 0 99.5 0 104.65 0.45 109.6 1 115.65 2.25 121.45 3.95 129.5 7.05 137.05 14.3 155 29.15 169.85 58.3 199 99.5 199 140.7 199 169.85 169.85 184.7 155 192 137.05 197.75 122.75 198.8 106.45 199 103 199 99.5 199 87.9 196.7 77.3 195.9 73.75 194.9 70.3 188.8 49.85 173.65 33.15
M 99.5 42.05
Q 124.55 42.05 142.25 59.75 160 77.5 160 102.55 160 122 149.3 137.05 146.2 141.35 142.25 145.3 124.55 163.05 99.5 163.05 74.45 163.05 56.7 145.3 52.75 141.35 49.7 137.05 39 122 39 102.55 39 77.5 56.7 59.75 74.45 42.05 99.5 42.05 Z"/>

<path fill="#376E6D" stroke="none" d="
M 142.25 59.75
Q 124.55 42.05 99.5 42.05 74.45 42.05 56.7 59.75 39 77.5 39 102.55 39 122 49.7 137.05 52.75 141.35 56.7 145.3 74.45 163.05 99.5 163.05 124.55 163.05 142.25 145.3 146.2 141.35 149.3 137.05 160 122 160 102.55 160 77.5 142.25 59.75 Z"/>
</g>

<g id="Layer0_0_FILL">
<path fill="#0A2827" stroke="none" d="
M 245.75 24.75
Q 245.75 24.6 245.75 24.4
L 245.75 12.7 238.4 4.3 145.5 4.3 145.5 17.9 151.45 24.75 245.75 24.75
M 246.25 30.1
L 246.25 29.6 179.75 29.6 187.25 37.1 187.05 51.9 198.5 63.35 240.65 63.35 240.65 35.7 246.25 30.1 Z"/>
</g>
</defs>

<g id="drone" transform="matrix( 1, 0, 0, 1, 59.3,51.55) ">
<g transform="matrix( 1, 0, 0, 1, 0,0) ">
<use xlink:href="#drone_mc_0_Layer0_0_FILL"/>
</g>

<g transform="matrix( 0.1303863525390625, 0, 0, 0.1303863525390625, -33.15,12.95) ">
<g transform="matrix( 1, 0, 0, 1, 0,0) ">
<use xlink:href="#wheel_0_Layer0_0_FILL"/>
</g>
</g>

<g transform="matrix( 0.1353759765625, 0, 0, 0.1353759765625, 47,12.1) ">
<g transform="matrix( 1, 0, 0, 1, 0,0) ">
<use xlink:href="#wheel_0_Layer0_0_FILL"/>
</g>
</g>
</g>

<g transform="matrix( 1, 0, 0, 1, 0,0) ">
<use xlink:href="#Layer0_0_FILL"/>
</g>
</svg>
