
<svg xmlns="http://www.w3.org/2000/svg" version="1.1" xmlns:xlink="http://www.w3.org/1999/xlink" preserveAspectRatio="none" x="0px" y="0px" width="2200px" height="600px" viewBox="0 0 2200 600">
<defs>
<filter id="Filter_1" x="-20%" y="-20%" width="140%" height="140%" color-interpolation-filters="sRGB">
<feColorMatrix in="SourceGraphic" type="matrix" values="1 0 0 0 0 0 1 0 0 0 0 0 1 0 0 0 0 0 0 0" result="result1"/>
</filter>

<g id="city_0_Layer0_0_FILL">
<path fill="#2C5952" stroke="none" d="
M 528.1 107.05
L 364.05 107.05 364.05 280.05 528.1 280.05 528.1 107.05
M 702.15 280.05
L 702.15 107.05 540.1 107.05 540.1 280.05 702.15 280.05
M 352.05 280.05
L 352.05 179.1 194 179.1 194 280.05 352.05 280.05
M 182.05 280.05
L 182.05 211.1 -46 211.1 -46 280.05 182.05 280.05
M 1557.4 121.05
L 1329.35 121.05 1329.35 279.1 1557.4 279.1 1557.4 121.05
M 1050.25 280.05
L 1318.3 280.05 1318.3 -128.05 1050.25 -128.05 1050.25 280.05
M 1038.25 280.05
L 1038.25 3.95 908.2 3.95 908.2 280.05 1038.25 280.05 Z"/>
</g>

<g id="shop_0_Layer0_0_FILL">
<path fill="#2C5952" stroke="none" d="
M 42.5 19.85
L 12.5 19.85 12.5 90.85 42.5 90.85 42.5 19.85 Z"/>

<path fill="#10463D" stroke="none" d="
M 12.5 19.85
L 42.5 19.85 42.5 90.85 163.5 90.85 163.5 -113.15 -7.5 -113.15 -7.5 90.85 12.5 90.85 12.5 19.85 Z"/>

<path fill="#0A5448" stroke="none" d="
M 163.5 -113.15
L 163.5 -120.15 -7.5 -120.15 -7.5 -113.15 163.5 -113.15 Z"/>
</g>

<g id="hipster_0_Layer0_0_FILL">
<path fill="#432715" stroke="none" d="
M 9.95 20.25
L 9.95 21 9.95 26.5 15.95 26.5 17.2 26.5 17.2 24.25 17.2 20.25 9.95 20.25
M 15.2 -1.5
L 9.45 -1.5 9.45 1 6.2 1 6.2 5.75 9.2 5.75 10.45 5.75 10.45 8 14.2 8 14.2 5.75 15.45 5.75 18.2 5.75 18.2 1 15.2 1 15.2 -1.5 Z"/>

<path fill="#5B2F21" stroke="none" d="
M 4.95 24
L 4.95 24.25 7.95 24.25 7.95 36.5 15.95 36.5 15.95 26.5 9.95 26.5 9.95 21 8.2 21 8.2 24 4.95 24
M 8.2 11.75
L 9.2 11.75 9.2 10.5 8.7 10.5 8.2 10.5 8.2 11.75
M 15.45 10.5
L 15.45 11.75 15.45 13.5 8.2 13.5 8.2 19.5 9.95 19.5 9.95 20.25 17.2 20.25 17.2 24.25 18.7 24.25 18.7 10.5 15.45 10.5 Z"/>

<path fill="#006666" stroke="none" d="
M 9.2 11.75
L 8.2 11.75 8.2 10.5 8.2 8.75 0.95 8.75 0.95 24 4.95 24 8.2 24 8.2 21 9.95 21 9.95 20.25 9.95 19.5 8.2 19.5 8.2 13.5 15.45 13.5 15.45 11.75 9.2 11.75 Z"/>

<path fill="#CCCCCC" stroke="none" d="
M 9.2 10.5
L 9.2 10.2
Q 8.945703125 10.3421875 8.7 10.5
L 9.2 10.5 Z"/>

<path fill="#E1B5DF" stroke="none" d="
M 14.2 8
L 10.45 8 10.45 5.75 9.2 5.75 9.2 10.2 9.2 10.5 9.2 11.75 15.45 11.75 15.45 10.5 15.45 5.75 14.2 5.75 14.2 8 Z"/>
</g>

<path id="path_0_Layer0_0_1_STROKES" stroke="#FF00FF" stroke-width="5.8" stroke-linejoin="round" stroke-linecap="round" fill="none" d="
M -5 89
L 995.95 89"/>
</defs>

<g id="camp" transform="matrix( 1, 0, 0, 1, 0,0) ">
<g id="bg" transform="matrix( 1, 0, 0, 1, 0,0) ">
<g id="path" transform="matrix( 1, 0, 0, 1, 11,340.05) ">
<g transform="matrix( 1, 0, 0, 1, 0,0) ">
<use filter="url(#Filter_1)" xlink:href="#path_0_Layer0_0_1_STROKES"/>
</g>
</g>

<g id="woods" transform="matrix( 1, 0, 0, 1, -6,73) ">
<g transform="matrix( 1, 0, 0, 1, 64,70) ">
<g transform="matrix( 1, 0, 0, 1, 0,0) ">
<use xlink:href="#city_0_Layer0_0_FILL"/>
</g>
</g>

<g id="destination" transform="matrix( 1, 0, 0, 1, 790.5,260.15) ">
<g transform="matrix( 1, 0, 0, 1, 0,0) ">
<use xlink:href="#shop_0_Layer0_0_FILL"/>
</g>
</g>
</g>
</g>

<g id="hiker" transform="matrix( 1, 0, 0, 1, 0,393.1) ">
<g transform="matrix( 1, 0, 0, 1, 0,0) ">
<use xlink:href="#hipster_0_Layer0_0_FILL"/>
</g>
</g>
</g>
</svg>
