<?xml version="1.0" encoding="utf-8"?>
<!-- Generator: Adobe Illustrator 16.0.0, SVG Export Plug-In . SVG Version: 6.00 Build 0)  -->
<!DOCTYPE svg PUBLIC "-//W3C//DTD SVG 1.1//EN" "http://www.w3.org/Graphics/SVG/1.1/DTD/svg11.dtd">
<svg version="1.1" xmlns="http://www.w3.org/2000/svg" xmlns:xlink="http://www.w3.org/1999/xlink" x="0px" y="0px"
	 width="421.95px" height="155px" viewBox="0 0 421.95 155" enable-background="new 0 0 421.95 155" xml:space="preserve">
<g id="fill">
	<path fill-rule="evenodd" clip-rule="evenodd" fill="#FFFFFF" d="M409.95,2c6.667,0,10,3.333,10,10v131c0,6.667-3.333,10-10,10H12
		c-6.667,0-10-3.333-10-10V12C2,5.333,5.333,2,12,2H409.95z"/>
</g>
<g id="stroke">
	
		<path fill-rule="evenodd" clip-rule="evenodd" fill="none" stroke="#000000" stroke-width="4" stroke-linecap="square" stroke-miterlimit="3" d="
		M409.95,2H12C5.333,2,2,5.333,2,12v131c0,6.667,3.333,10,10,10h397.95c6.667,0,10-3.333,10-10V12C419.95,5.333,416.617,2,409.95,2z
		"/>
</g>
</svg>
