
<svg xmlns="http://www.w3.org/2000/svg" version="1.1" xmlns:xlink="http://www.w3.org/1999/xlink" preserveAspectRatio="none" x="0px" y="0px" width="300px" height="300px" viewBox="0 0 300 300">
<defs>
<filter id="Filter_1" x="-20%" y="-20%" width="140%" height="140%" color-interpolation-filters="sRGB">
<feColorMatrix in="SourceGraphic" type="matrix" values="1 0 0 0 0 0 1 0 0 0 0 0 1 0 0 0 0 0 0.67 0" result="result1"/>
</filter>

<filter id="Filter_2" x="-20%" y="-20%" width="140%" height="140%" color-interpolation-filters="sRGB">
<feColorMatrix in="SourceGraphic" type="matrix" values="1 0 0 0 0 0 1 0 0 0 0 0 1 0 0 0 0 0 0.57 0" result="result1"/>
</filter>

<filter id="Filter_3" x="-20%" y="-20%" width="140%" height="140%" color-interpolation-filters="sRGB">
<feColorMatrix in="SourceGraphic" type="matrix" values="1 0 0 0 0 0 1 0 0 0 0 0 1 0 0 0 0 0 0.83 0" result="result1"/>
</filter>

<g id="Mask_3_MASK_0_FILL">
<path fill="#FFFFFF" stroke="none" d="
M 260.95 149.5
Q 260.95 91.7 228.55 50.85 196.2 10 150.45 10 104.7 10 72.3 50.85 39.95 91.7 39.95 149.5 39.95 207.25 72.3 248.15 104.7 289 150.45 289 196.2 289 228.55 248.15 260.95 207.25 260.95 149.5 Z"/>
</g>

<g id="bg_0_Layer2_0_FILL">
<path fill="#CCCCCC" stroke="none" d="
M 339.55 475.4
L 339.55 347.45 -7.4 347.45 -7.4 475.4 339.55 475.4 Z"/>
</g>

<g id="bg_0_Layer1_0_FILL">
<path fill="#999999" stroke="none" d="
M 23.75 437.1
Q 23.35 437.35 23 437.55 21.9 438.1 20.15 437.85 20.15 438.55 21.2 439.3 21.75 439.7 22.3 439.95 23.45 439.95 23.7 438.8 23.75 438.5 23.75 437.1
M 39.65 424.7
Q 39.7 424.45 39.7 424.2 38.8 424.4 38.05 424.8 37.25 425.25 36.65 425.25 36.05 425.25 36 425.25 35.45 425 34.35 424.65 34.05 425 34.05 425.45 34 425.75 34 426.1
L 34 427.4
Q 34.5 427.4 36.55 426.65 38.55 425.95 39.35 426.1 39.5 425.65 39.65 424.7
M 20.15 413.85
Q 20.15 413.55 20.15 413.3 18.2 413.3 16.8 413.1 16.75 413.25 16.75 413.4 16.75 414.4 17.4 414.8 17.75 415 18.15 415 19.15 415 19.7 414.6 20.15 414.25 20.15 413.85
M 77.5 432.9
Q 77.35 432.75 77.2 432.6 76.6 432.7 76.05 433.05 75.6 433.3 75.35 433.55 75.35 433.25 75.25 433.1 75.1 432.9 74.95 432.9
L 74.1 434 74.1 433.55 72.15 433.55
Q 72.15 433.65 72.15 433.8 72.15 434.85 72.5 435.2 73.55 436.2 77.5 436.35
L 77.5 432.9
M 48.15 442.55
Q 49.15 444.85 50.55 444.85 51.25 444.85 51.45 443.65 51.7 442.35 52.55 442.1 53.2 441.95 53.4 441.8 53.7 441.6 53.8 441
L 53 441
Q 53 441.15 52.9 441.45 52.75 441.75 52.75 441.9 52.3 441.9 51.8 441.55 51.35 441.25 50.85 441.25 50.45 441.65 50.25 442.25 49.85 442.65 48.15 442.55
M 74.75 416.3
Q 74.6 416.25 74.5 416.2 74.15 415.9 74.1 415.85 74.05 415.9 73.45 416.95 73.2 416.95 72.9 416.8 72.6 416.6 72.4 416.5
L 71.3 416.5 71.3 417.8
Q 71.9 417.8 72.25 417.9 72.95 418.15 73.65 419.05 73.9 418.8 74.3 417.75 74.75 416.7 74.75 416.4 74.75 416.35 74.75 416.3
M 93.7 449.35
Q 93.5 449.35 93.3 449.35 92.9 450.25 92.55 450.3 91.5 450.2 90.25 450.15 89.8 450.5 89.65 450.6 90.1 451.35 90.85 451.6 91.15 451.7 91.8 451.7 93.2 451.7 93.25 451.6 93.25 451.1 93.7 450.2
L 93.7 449.35
M 85.4 420.55
Q 85.05 420.55 84.85 420.25 84.65 419.9 84.45 419.9 84.15 419.9 83.95 420 83.85 420.05 83.75 420.1 83.3 420.55 83.05 420.9 83.05 420.95 83.05 421
L 83 421
Q 82.6 421.45 82.6 421.6 82.6 421.8 85.25 423.35 87.8 424.8 87.95 424.8 89.05 424.8 89.25 423.4 89.25 422 89.25 421.95 89.25 420.9 88.65 419.9 88.25 419.9 87.6 420.15 86.9 420.35 86.65 420.35 86.4 420.35 86.2 420.15 86 419.9 85.8 419.9 85.95 420.45 85.75 420.55 85.7 420.55 85.4 420.55
M 110.95 415.35
Q 110.5 415 110.35 415
L 108.65 415.85
Q 108.65 415.8 108.45 415.55 108.15 415.2 107.85 414.7
L 107.85 414.75
Q 106.8 415.25 106.2 416.05 105.4 417.15 105.2 418.65 105.85 418.85 108.95 418.85 110.45 418.85 112.25 418.85 113.3 418.55 113.3 416.2 113.3 415.9 113.3 415.65 111.7 415.65 110.95 415.35
M 126.35 420
Q 126.1 419.7 125.7 419.7 125.7 420.6 124.85 421.4 124.55 420.9 124.45 420.85 124.3 420.75 123.15 420.6 123.1 420.75 123.1 421 123.1 421.2 124.2 422.5 125.25 423.75 125.45 423.75 125.85 423.75 126.55 422.9 127.15 422.1 127.15 421.85 127.15 421 126.9 420.3 126.55 420.25 126.35 420
M 223.9 448.3
Q 224.2 448.1 224.3 447.5
L 223.5 447.5
Q 223.5 447.65 223.4 447.95 223.25 448.25 223.25 448.4 222.8 448.4 222.3 448.05 221.85 447.75 221.35 447.75 220.95 448.15 220.75 448.75 220.35 449.15 218.65 449.05 219.65 451.35 221.05 451.35 221.75 451.35 221.95 450.15 222.2 448.85 223.05 448.6 223.7 448.45 223.9 448.3
M 194.2 445.3
Q 194.25 445 194.25 443.6 193.85 443.85 193.5 444.05 192.4 444.6 190.65 444.35 190.65 445.05 191.7 445.8 192.25 446.2 192.8 446.45 193.95 446.45 194.2 445.3
M 190.65 420.35
Q 190.65 420.05 190.65 419.8 188.7 419.8 187.3 419.6 187.25 419.75 187.25 419.9 187.25 420.9 187.9 421.3 188.25 421.5 188.65 421.5 189.65 421.5 190.2 421.1 190.65 420.75 190.65 420.35
M 207.15 431.75
Q 206.55 431.75 206.5 431.75 205.95 431.5 204.85 431.15 204.55 431.5 204.55 431.95 204.5 432.25 204.5 432.6
L 204.5 433.9
Q 205 433.9 207.05 433.15 209.05 432.45 209.85 432.6 210 432.15 210.15 431.2 210.2 430.95 210.2 430.7 209.3 430.9 208.55 431.3 207.75 431.75 207.15 431.75
M 264.2 455.85
Q 264 455.85 263.8 455.85 263.4 456.75 263.05 456.8 262 456.7 260.75 456.65 260.3 457 260.15 457.1 260.6 457.85 261.35 458.1 261.65 458.2 262.3 458.2 263.7 458.2 263.75 458.1 263.75 457.6 264.2 456.7
L 264.2 455.85
M 248 442.85
L 248 439.4
Q 247.85 439.25 247.7 439.1 247.1 439.2 246.55 439.55 246.1 439.8 245.85 440.05 245.85 439.75 245.75 439.6 245.6 439.4 245.45 439.4
L 244.6 440.5 244.6 440.05 242.65 440.05
Q 242.65 440.15 242.65 440.3 242.65 441.35 243 441.7 244.05 442.7 248 442.85
M 245.25 422.9
Q 245.25 422.85 245.25 422.8 245.1 422.75 245 422.7 244.65 422.4 244.6 422.35 244.55 422.4 243.95 423.45 243.7 423.45 243.4 423.3 243.1 423.1 242.9 423
L 241.8 423 241.8 424.3
Q 242.4 424.3 242.75 424.4 243.45 424.65 244.15 425.55 244.4 425.3 244.8 424.25 245.25 423.2 245.25 422.9
M 258.1 426.65
Q 257.4 426.85 257.15 426.85 256.9 426.85 256.7 426.65 256.5 426.4 256.3 426.4 256.45 426.95 256.25 427.05 256.2 427.05 255.9 427.05 255.55 427.05 255.35 426.75 255.15 426.4 254.95 426.4 254.65 426.4 254.45 426.5 254.35 426.55 254.25 426.6 253.8 427.05 253.55 427.4 253.55 427.45 253.55 427.5
L 253.5 427.5
Q 253.1 427.95 253.1 428.1 253.1 428.3 255.75 429.85 258.3 431.3 258.45 431.3 259.55 431.3 259.75 429.9 259.75 428.5 259.75 428.45 259.75 427.4 259.15 426.4 258.75 426.4 258.1 426.65
M 283.8 422.7
Q 283.8 422.4 283.8 422.15 282.2 422.15 281.45 421.85 281 421.5 280.85 421.5
L 279.15 422.35
Q 279.15 422.3 278.95 422.05 278.65 421.7 278.35 421.2
L 278.35 421.25
Q 277.3 421.75 276.7 422.55 275.9 423.65 275.7 425.15 276.35 425.35 279.45 425.35 280.95 425.35 282.75 425.35 283.8 425.05 283.8 422.7
M 296.85 426.5
Q 296.6 426.2 296.2 426.2 296.2 427.1 295.35 427.9 295.05 427.4 294.95 427.35 294.8 427.25 293.65 427.1 293.6 427.25 293.6 427.5 293.6 427.7 294.7 429 295.75 430.25 295.95 430.25 296.35 430.25 297.05 429.4 297.65 428.6 297.65 428.35 297.65 427.5 297.4 426.8 297.05 426.75 296.85 426.5
M 285.85 358.7
L 285.85 358.75
Q 284.8 359.25 284.2 360.05 283.4 361.15 283.2 362.65 283.85 362.85 286.95 362.85 288.45 362.85 290.25 362.85 291.3 362.55 291.3 360.2 291.3 359.9 291.3 359.65 289.7 359.65 288.95 359.35 288.5 359 288.35 359
L 286.65 359.85
Q 286.65 359.8 286.45 359.55 286.15 359.2 285.85 358.7
M 304.9 364.3
Q 304.55 364.25 304.35 364 304.1 363.7 303.7 363.7 303.7 364.6 302.85 365.4 302.55 364.9 302.45 364.85 302.3 364.75 301.15 364.6 301.1 364.75 301.1 365 301.1 365.2 302.2 366.5 303.25 367.75 303.45 367.75 303.85 367.75 304.55 366.9 305.15 366.1 305.15 365.85 305.15 365 304.9 364.3
M 268.25 394.15
Q 267.8 394.5 267.65 394.6 268.1 395.35 268.85 395.6 269.15 395.7 269.8 395.7 271.2 395.7 271.25 395.6 271.25 395.1 271.7 394.2
L 271.7 393.35
Q 271.5 393.35 271.3 393.35 270.9 394.25 270.55 394.3 269.5 394.2 268.25 394.15
M 255.5 376.9
Q 255.35 376.75 255.2 376.6 254.6 376.7 254.05 377.05 253.6 377.3 253.35 377.55 253.35 377.25 253.25 377.1 253.1 376.9 252.95 376.9
L 252.1 378 252.1 377.55 250.15 377.55
Q 250.15 377.65 250.15 377.8 250.15 378.85 250.5 379.2 251.55 380.2 255.5 380.35
L 255.5 376.9
M 252.75 360.4
Q 252.75 360.35 252.75 360.3 252.6 360.25 252.5 360.2 252.15 359.9 252.1 359.85 252.05 359.9 251.45 360.95 251.2 360.95 250.9 360.8 250.6 360.6 250.4 360.5
L 249.3 360.5 249.3 361.8
Q 249.9 361.8 250.25 361.9 250.95 362.15 251.65 363.05 251.9 362.8 252.3 361.75 252.75 360.7 252.75 360.4
M 266.65 363.9
Q 266.25 363.9 265.6 364.15 264.9 364.35 264.65 364.35 264.4 364.35 264.2 364.15 264 363.9 263.8 363.9 263.95 364.45 263.75 364.55 263.7 364.55 263.4 364.55 263.05 364.55 262.85 364.25 262.65 363.9 262.45 363.9 262.15 363.9 261.95 364 261.85 364.05 261.75 364.1 261.3 364.55 261.05 364.9 261.05 364.95 261.05 365
L 261 365
Q 260.6 365.45 260.6 365.6 260.6 365.8 263.25 367.35 265.8 368.8 265.95 368.8 267.05 368.8 267.25 367.4 267.25 366 267.25 365.95 267.25 364.9 266.65 363.9
M 230.9 385.45
Q 230.75 385.75 230.75 385.9 230.3 385.9 229.8 385.55 229.35 385.25 228.85 385.25 228.45 385.65 228.25 386.25 227.85 386.65 226.15 386.55 227.15 388.85 228.55 388.85 229.25 388.85 229.45 387.65 229.7 386.35 230.55 386.1 231.2 385.95 231.4 385.8 231.7 385.6 231.8 385
L 231 385
Q 231 385.15 230.9 385.45
M 212.05 369.45
Q 212 369.75 212 370.1
L 212 371.4
Q 212.5 371.4 214.55 370.65 216.55 369.95 217.35 370.1 217.5 369.65 217.65 368.7 217.7 368.45 217.7 368.2 216.8 368.4 216.05 368.8 215.25 369.25 214.65 369.25 214.05 369.25 214 369.25 213.45 369 212.35 368.65 212.05 369 212.05 369.45
M 198.15 381.85
Q 198.15 382.55 199.2 383.3 199.75 383.7 200.3 383.95 201.45 383.95 201.7 382.8 201.75 382.5 201.75 381.1 201.35 381.35 201 381.55 199.9 382.1 198.15 381.85
M 194.8 357.1
Q 194.75 357.25 194.75 357.4 194.75 358.4 195.4 358.8 195.75 359 196.15 359 197.15 359 197.7 358.6 198.15 358.25 198.15 357.85 198.15 357.55 198.15 357.3 196.2 357.3 194.8 357.1
M 136 367.05
Q 135.65 366.95 135.45 366.75 135.2 366.4 134.8 366.4 134.8 367.3 133.95 368.1 133.7 367.65 133.55 367.55 133.4 367.45 132.25 367.3 132.25 367.5 132.25 367.7 132.25 367.9 133.3 369.2 134.35 370.45 134.55 370.45 134.95 370.45 135.65 369.6 136.3 368.8 136.3 368.55 136.3 367.7 136 367.05
M 102.8 396.9
L 102.8 396.05
Q 102.6 396.05 102.4 396.05 102 396.95 101.65 397 100.6 396.9 99.35 396.9 98.9 397.2 98.75 397.35 99.2 398.05 99.95 398.3 100.25 398.4 100.9 398.4 102.3 398.4 102.35 398.35 102.35 397.8 102.8 396.9
M 84.35 379.8
Q 84.2 379.65 84.05 379.65
L 83.2 380.7 83.2 380.25 81.25 380.25
Q 81.25 380.4 81.25 380.5 81.25 381.55 81.6 381.9 82.65 382.9 86.6 383.05
L 86.6 379.65
Q 86.45 379.45 86.3 379.3 85.7 379.4 85.15 379.75 84.75 380 84.45 380.25 84.45 379.95 84.35 379.8
M 95.75 367.05
Q 95.5 367.05 95.3 366.85 95.1 366.6 94.9 366.6 95.05 367.15 94.85 367.25 94.8 367.25 94.5 367.25 94.15 367.25 93.95 366.95 93.75 366.6 93.55 366.6 93.25 366.6 93.05 366.7 92.95 366.75 92.85 366.8 92.4 367.25 92.15 367.6 92.15 367.65 92.15 367.7
L 92.1 367.7
Q 91.7 368.15 91.7 368.35 91.7 368.5 94.35 370.05 96.9 371.55 97.05 371.55 98.15 371.55 98.35 370.1 98.35 368.7 98.35 368.65 98.35 367.6 97.75 366.6 97.35 366.6 96.7 366.85 96.05 367.05 95.75 367.05
M 120.05 362.05
Q 119.6 361.7 119.45 361.7
L 117.75 362.55
Q 117.75 362.5 117.55 362.25 117.25 361.9 116.95 361.4
L 116.95 361.45
Q 115.9 361.95 115.3 362.75 114.5 363.85 114.3 365.35 114.95 365.55 118.05 365.55 119.55 365.55 121.35 365.55 122.4 365.25 122.4 362.9 122.4 362.6 122.4 362.35 120.8 362.35 120.05 362.05
M 59.95 387.95
Q 59.55 388.35 59.35 388.95 58.95 389.35 57.25 389.25 58.25 391.55 59.65 391.55 60.35 391.55 60.55 390.35 60.8 389.05 61.65 388.8 62.3 388.65 62.5 388.5 62.8 388.3 62.9 387.75
L 62.1 387.75
Q 62.1 387.85 62 388.15 61.85 388.5 61.85 388.6 61.4 388.6 60.9 388.25 60.45 387.95 59.95 387.95
M 48.45 372.8
Q 48.6 372.35 48.75 371.4 48.8 371.15 48.8 370.95 47.9 371.1 47.15 371.55 46.35 371.95 45.75 371.95 45.15 371.95 45.1 371.95 44.55 371.7 43.45 371.35 43.15 371.7 43.15 372.15 43.1 372.45 43.1 372.8
L 43.1 374.1
Q 43.6 374.1 45.65 373.35 47.65 372.7 48.45 372.8
M 80.4 363.2
L 80.4 364.5
Q 81 364.5 81.35 364.6 82.05 364.9 82.75 365.75 83 365.5 83.45 364.45 83.85 363.45 83.85 363.1 83.85 363.05 83.85 363 83.7 362.95 83.6 362.9 83.25 362.6 83.2 362.55 83.15 362.6 82.55 363.65 82.3 363.65 82 363.5 81.7 363.3 81.5 363.2
L 80.4 363.2
M 29.25 384.6
Q 29.25 385.25 30.3 386.05 30.85 386.4 31.4 386.65 32.55 386.65 32.8 385.5 32.9 385.2 32.9 383.8 32.45 384.05 32.1 384.25 31 384.8 29.25 384.6
M 29.25 360.55
Q 29.25 360.25 29.25 360 27.3 360 25.9 359.8 25.85 359.95 25.85 360.1 25.85 361.1 26.5 361.5 26.85 361.7 27.25 361.7 28.25 361.7 28.8 361.3 29.25 360.95 29.25 360.55 Z"/>

<path fill="#CCCCCC" stroke="none" d="
M 23.75 436.1
Q 23.75 436.05 23.75 436 23.05 436.1 22.45 436.25 21.95 436.4 21.45 436.65 20.15 437.2 20.15 437.85 21.9 438.1 23 437.55 23.35 437.35 23.75 437.1 23.75 436.950390625 23.75 436.8 23.751171875 436.85078125 23.9 436.95
L 23.9 437
Q 23.95 436.95 24 436.95
L 24 436.75
Q 24 436.45 23.75 436.1
M 39.75 423.35
Q 39.3 423.35 39.15 423.35 35.45 423.35 34.4 424.5 34.35 424.6 34.35 424.65 35.45 425 36 425.25 36.05 425.25 36.65 425.25 37.25 425.25 38.05 424.8 38.8 424.4 39.7 424.2 39.75 423.75 39.75 423.35
M 16.8 413.1
Q 18.2 413.3 20.15 413.3 20 412.6 19.65 412.4 19.45 412.25 18.85 412.3 18.45 412.3 17.85 412.4 17.5 412.5 17.25 412.65 16.95 412.85 16.8 413.1
M 75.2 431.55
Q 73 431.85 72.45 432.5 72.2 432.75 72.15 433.55
L 74.1 433.55 74.1 434 74.95 432.9
Q 75.1 432.9 75.25 433.1 75.35 433.25 75.35 433.55 75.6 433.3 76.05 433.05 76.6 432.7 77.2 432.6 76.55 432.05 75.45 431.6 75.3 431.6 75.2 431.55
M 50.4 441.3
Q 48.4 441.9 48.1 442.3 48.1 442.4 48.15 442.55 49.85 442.65 50.25 442.25 50.45 441.65 50.85 441.25 51.35 441.25 51.8 441.55 52.3 441.9 52.75 441.9 52.75 441.75 52.9 441.45 53 441.15 53 441
L 53.8 441
Q 53.85 440.9 53.85 440.8 53.2 440.8 52.75 440.4 52.75 440.6 52.85 440.7 52.9 440.75 53.05 440.8 52.25 440.75 50.4 441.3
M 74.75 416.3
Q 74.7 415.85 74.5 415.65
L 72.8 415.65
Q 71.95 415.85 71.3 415.85
L 71.3 416.5 72.4 416.5
Q 72.6 416.6 72.9 416.8 73.2 416.95 73.45 416.95 74.05 415.9 74.1 415.85 74.15 415.9 74.5 416.2 74.6 416.25 74.75 416.3
M 93.3 449.35
Q 93.5 449.35 93.7 449.35
L 93.7 448.25 92.2 448.25
Q 91.1 448.45 91 449.65 90.95 449.7 90.9 449.75 90.55 450 90.25 450.15 91.5 450.2 92.55 450.3 92.9 450.25 93.3 449.35
M 107.1 430.65
Q 106.8 430.85 106.45 431.05 106.15 431.2 105.85 431.2
L 105.85 432.7
Q 107.35 433.7 108.2 433.95 108.5 434 108.65 434.4
L 109.7 434.4
Q 110.1 433.15 110.1 432.6 110.1 432.55 110.1 432.5 110.1 431.45 109.1 431.05 108.5 430.85 107.1 430.65
M 83.2 419
Q 83.05 419.45 83.05 420.6 83.45 420.25 83.75 420.1 83.85 420.05 83.95 420 84.15 419.9 84.45 419.9 84.65 419.9 84.85 420.25 85.05 420.55 85.4 420.55 85.7 420.55 85.75 420.55 85.95 420.45 85.8 419.9 86 419.9 86.2 420.15 86.4 420.35 86.65 420.35 86.9 420.35 87.6 420.15 88.25 419.9 88.65 419.9 88.65 419.8 88.6 419.75 87.45 417.8 84.75 417.8 83.55 417.8 83.2 419
M 110.35 415
Q 110.5 415 110.95 415.35 111.7 415.65 113.3 415.65 113.15 414.4 112.4 413.85 112.35 413.8 112.25 413.75 109.5 413.9 107.85 414.7 108.15 415.2 108.45 415.55 108.65 415.8 108.65 415.85
L 110.35 415
M 126.9 420.3
Q 126.65 419.75 126.25 419.3
L 124.6 419.3
Q 123.5 419.45 123.25 420 123.15 420.15 123.15 420.6 124.3 420.75 124.45 420.85 124.55 420.9 124.85 421.4 125.7 420.6 125.7 419.7 126.1 419.7 126.35 420 126.55 420.25 126.9 420.3
M 223.35 447.2
Q 223.4 447.25 223.55 447.3 222.75 447.25 220.9 447.8 218.9 448.4 218.6 448.8 218.6 448.9 218.65 449.05 220.35 449.15 220.75 448.75 220.95 448.15 221.35 447.75 221.85 447.75 222.3 448.05 222.8 448.4 223.25 448.4 223.25 448.25 223.4 447.95 223.5 447.65 223.5 447.5
L 224.3 447.5
Q 224.35 447.4 224.35 447.3 223.7 447.3 223.25 446.9 223.25 447.1 223.35 447.2
M 191.95 443.15
Q 190.65 443.7 190.65 444.35 192.4 444.6 193.5 444.05 193.85 443.85 194.25 443.6 194.25 443.450390625 194.25 443.3 194.251171875 443.35078125 194.4 443.45
L 194.4 443.5
Q 194.45 443.45 194.5 443.45
L 194.5 443.25
Q 194.5 442.95 194.25 442.6 194.25 442.55 194.25 442.5 193.55 442.6 192.95 442.75 192.45 442.9 191.95 443.15
M 187.3 419.6
Q 188.7 419.8 190.65 419.8 190.5 419.1 190.15 418.9 189.95 418.75 189.35 418.8 188.95 418.8 188.35 418.9 188 419 187.75 419.15 187.45 419.35 187.3 419.6
M 206.5 431.75
Q 206.55 431.75 207.15 431.75 207.75 431.75 208.55 431.3 209.3 430.9 210.2 430.7 210.25 430.25 210.25 429.85 209.8 429.85 209.65 429.85 205.95 429.85 204.9 431 204.85 431.1 204.85 431.15 205.95 431.5 206.5 431.75
M 264.2 455.85
L 264.2 454.75 262.7 454.75
Q 261.6 454.95 261.5 456.15 261.45 456.2 261.4 456.25 261.05 456.5 260.75 456.65 262 456.7 263.05 456.8 263.4 456.75 263.8 455.85 264 455.85 264.2 455.85
M 280.6 439.1
Q 280.6 439.05 280.6 439 280.6 437.95 279.6 437.55 279 437.35 277.6 437.15 277.3 437.35 276.95 437.55 276.65 437.7 276.35 437.7
L 276.35 439.2
Q 277.85 440.2 278.7 440.45 279 440.5 279.15 440.9
L 280.2 440.9
Q 280.6 439.65 280.6 439.1
M 247.7 439.1
Q 247.05 438.55 245.95 438.1 245.8 438.1 245.7 438.05 243.5 438.35 242.95 439 242.7 439.25 242.65 440.05
L 244.6 440.05 244.6 440.5 245.45 439.4
Q 245.6 439.4 245.75 439.6 245.85 439.75 245.85 440.05 246.1 439.8 246.55 439.55 247.1 439.2 247.7 439.1
M 245 422.15
L 243.3 422.15
Q 242.45 422.35 241.8 422.35
L 241.8 423 242.9 423
Q 243.1 423.1 243.4 423.3 243.7 423.45 243.95 423.45 244.55 422.4 244.6 422.35 244.65 422.4 245 422.7 245.1 422.75 245.25 422.8 245.2 422.35 245 422.15
M 259.15 426.4
Q 259.15 426.3 259.1 426.25 257.95 424.3 255.25 424.3 254.05 424.3 253.7 425.5 253.55 425.95 253.55 427.1 253.95 426.75 254.25 426.6 254.35 426.55 254.45 426.5 254.65 426.4 254.95 426.4 255.15 426.4 255.35 426.75 255.55 427.05 255.9 427.05 256.2 427.05 256.25 427.05 256.45 426.95 256.3 426.4 256.5 426.4 256.7 426.65 256.9 426.85 257.15 426.85 257.4 426.85 258.1 426.65 258.75 426.4 259.15 426.4
M 282.9 420.35
Q 282.85 420.3 282.75 420.25 280 420.4 278.35 421.2 278.65 421.7 278.95 422.05 279.15 422.3 279.15 422.35
L 280.85 421.5
Q 281 421.5 281.45 421.85 282.2 422.15 283.8 422.15 283.65 420.9 282.9 420.35
M 297.4 426.8
Q 297.15 426.25 296.75 425.8
L 295.1 425.8
Q 294 425.95 293.75 426.5 293.65 426.65 293.65 427.1 294.8 427.25 294.95 427.35 295.05 427.4 295.35 427.9 296.2 427.1 296.2 426.2 296.6 426.2 296.85 426.5 297.05 426.75 297.4 426.8
M 285.1 374.65
Q 284.8 374.85 284.45 375.05 284.15 375.2 283.85 375.2
L 283.85 376.7
Q 285.35 377.7 286.2 377.95 286.5 378 286.65 378.4
L 287.7 378.4
Q 288.1 377.15 288.1 376.6 288.1 376.55 288.1 376.5 288.1 375.45 287.1 375.05 286.5 374.85 285.1 374.65
M 290.25 357.75
Q 287.5 357.9 285.85 358.7 286.15 359.2 286.45 359.55 286.65 359.8 286.65 359.85
L 288.35 359
Q 288.5 359 288.95 359.35 289.7 359.65 291.3 359.65 291.15 358.4 290.4 357.85 290.35 357.8 290.25 357.75
M 304.9 364.3
Q 304.65 363.75 304.25 363.3
L 302.6 363.3
Q 301.5 363.45 301.25 364 301.15 364.15 301.15 364.6 302.3 364.75 302.45 364.85 302.55 364.9 302.85 365.4 303.7 364.6 303.7 363.7 304.1 363.7 304.35 364 304.55 364.25 304.9 364.3
M 269 393.65
Q 268.95 393.7 268.9 393.75 268.55 394 268.25 394.15 269.5 394.2 270.55 394.3 270.9 394.25 271.3 393.35 271.5 393.35 271.7 393.35
L 271.7 392.25 270.2 392.25
Q 269.1 392.45 269 393.65
M 254.05 377.05
Q 254.6 376.7 255.2 376.6 254.55 376.05 253.45 375.6 253.3 375.6 253.2 375.55 251 375.85 250.45 376.5 250.2 376.75 250.15 377.55
L 252.1 377.55 252.1 378 252.95 376.9
Q 253.1 376.9 253.25 377.1 253.35 377.25 253.35 377.55 253.6 377.3 254.05 377.05
M 252.5 360.2
Q 252.6 360.25 252.75 360.3 252.7 359.85 252.5 359.65
L 250.8 359.65
Q 249.95 359.85 249.3 359.85
L 249.3 360.5 250.4 360.5
Q 250.6 360.6 250.9 360.8 251.2 360.95 251.45 360.95 252.05 359.9 252.1 359.85 252.15 359.9 252.5 360.2
M 265.6 364.15
Q 266.25 363.9 266.65 363.9 266.65 363.8 266.6 363.75 265.45 361.8 262.75 361.8 261.55 361.8 261.2 363 261.05 363.45 261.05 364.6 261.45 364.25 261.75 364.1 261.85 364.05 261.95 364 262.15 363.9 262.45 363.9 262.65 363.9 262.85 364.25 263.05 364.55 263.4 364.55 263.7 364.55 263.75 364.55 263.95 364.45 263.8 363.9 264 363.9 264.2 364.15 264.4 364.35 264.65 364.35 264.9 364.35 265.6 364.15
M 231.8 385
Q 231.85 384.9 231.85 384.8 231.2 384.8 230.75 384.4 230.75 384.6 230.85 384.7 230.9 384.75 231.05 384.8 230.25 384.75 228.4 385.3 226.4 385.9 226.1 386.3 226.1 386.4 226.15 386.55 227.85 386.65 228.25 386.25 228.45 385.65 228.85 385.25 229.35 385.25 229.8 385.55 230.3 385.9 230.75 385.9 230.75 385.75 230.9 385.45 231 385.15 231 385
L 231.8 385
M 212.4 368.5
Q 212.35 368.6 212.35 368.65 213.45 369 214 369.25 214.05 369.25 214.65 369.25 215.25 369.25 216.05 368.8 216.8 368.4 217.7 368.2 217.75 367.75 217.75 367.35 217.3 367.35 217.15 367.35 213.45 367.35 212.4 368.5
M 201.75 380.1
Q 201.75 380.05 201.75 380 201.05 380.1 200.45 380.25 199.95 380.4 199.45 380.65 198.15 381.2 198.15 381.85 199.9 382.1 201 381.55 201.35 381.35 201.75 381.1 201.75 380.950390625 201.75 380.8 201.751171875 380.85078125 201.9 380.95
L 201.9 381
Q 201.95 380.95 202 380.95
L 202 380.75
Q 202 380.45 201.75 380.1
M 196.85 356.3
Q 196.45 356.3 195.85 356.4 195.5 356.5 195.25 356.65 194.95 356.85 194.8 357.1 196.2 357.3 198.15 357.3 198 356.6 197.65 356.4 197.45 356.25 196.85 356.3
M 135.45 366.75
Q 135.65 366.95 136 367.05 135.75 366.45 135.35 366
L 133.7 366
Q 132.6 366.15 132.35 366.75 132.25 366.9 132.25 367.3 133.4 367.45 133.55 367.55 133.7 367.65 133.95 368.1 134.8 367.3 134.8 366.4 135.2 366.4 135.45 366.75
M 102.8 395
L 101.3 395
Q 100.2 395.15 100.1 396.35 100.05 396.4 100 396.45 99.65 396.7 99.35 396.9 100.6 396.9 101.65 397 102 396.95 102.4 396.05 102.6 396.05 102.8 396.05
L 102.8 395
M 114.95 377.9
L 114.95 379.4
Q 116.45 380.4 117.3 380.65 117.6 380.7 117.75 381.1
L 118.8 381.1
Q 119.2 379.85 119.2 379.3 119.2 379.25 119.2 379.2 119.2 378.2 118.2 377.75 117.6 377.55 116.2 377.35 115.9 377.55 115.6 377.75 115.25 377.9 114.95 377.9
M 84.05 379.65
Q 84.2 379.65 84.35 379.8 84.45 379.95 84.45 380.25 84.75 380 85.15 379.75 85.7 379.4 86.3 379.3 85.65 378.8 84.55 378.35 84.4 378.3 84.3 378.25 82.15 378.55 81.55 379.2 81.3 379.45 81.25 380.25
L 83.2 380.25 83.2 380.7 84.05 379.65
M 95.3 366.85
Q 95.5 367.05 95.75 367.05 96.05 367.05 96.7 366.85 97.35 366.6 97.75 366.6 97.75 366.5 97.7 366.45 96.55 364.5 93.85 364.5 92.65 364.5 92.3 365.7 92.15 366.15 92.15 367.3 92.55 366.95 92.85 366.8 92.95 366.75 93.05 366.7 93.25 366.6 93.55 366.6 93.75 366.6 93.95 366.95 94.15 367.25 94.5 367.25 94.8 367.25 94.85 367.25 95.05 367.15 94.9 366.6 95.1 366.6 95.3 366.85
M 121.35 360.45
Q 118.6 360.6 116.95 361.4 117.25 361.9 117.55 362.25 117.75 362.5 117.75 362.55
L 119.45 361.7
Q 119.6 361.7 120.05 362.05 120.8 362.35 122.4 362.35 122.25 361.1 121.55 360.55 121.45 360.5 121.35 360.45
M 57.2 389
Q 57.2 389.1 57.25 389.25 58.95 389.35 59.35 388.95 59.55 388.35 59.95 387.95 60.45 387.95 60.9 388.25 61.4 388.6 61.85 388.6 61.85 388.5 62 388.15 62.1 387.85 62.1 387.75
L 62.9 387.75
Q 62.95 387.6 62.95 387.5 62.3 387.5 61.85 387.1 61.85 387.3 61.95 387.4 61.9984375 387.496875 62.15 387.5 61.3396484375 387.503125 59.5 388.05 57.5 388.65 57.2 389
M 48.8 370.95
Q 48.85 370.45 48.85 370.1 48.4 370.05 48.25 370.05 44.55 370.05 43.5 371.25 43.45 371.3 43.45 371.35 44.55 371.7 45.1 371.95 45.15 371.95 45.75 371.95 46.35 371.95 47.15 371.55 47.9 371.1 48.8 370.95
M 80.4 362.55
L 80.4 363.2 81.5 363.2
Q 81.7 363.3 82 363.5 82.3 363.65 82.55 363.65 83.15 362.6 83.2 362.55 83.25 362.6 83.6 362.9 83.7 362.95 83.85 363 83.8 362.55 83.6 362.35
L 81.9 362.35
Q 81.05 362.55 80.4 362.55
M 33.1 383.45
Q 33.1 383.15 32.9 382.8 32.85 382.75 32.85 382.7 32.15 382.8 31.55 383 31.05 383.1 30.55 383.35 29.25 383.9 29.25 384.55
L 29.25 384.6
Q 31 384.8 32.1 384.25 32.45 384.05 32.9 383.8 32.9 383.65078125 32.9 383.5 32.9015625 383.55234375 33 383.7 33.05 383.7 33.1 383.65
L 33.1 383.45
M 28.75 359.1
Q 28.55 358.95 27.95 359 27.55 359 26.95 359.1 26.6 359.2 26.35 359.4 26.05 359.55 25.9 359.8 27.3 360 29.25 360 29.1 359.3 28.75 359.1 Z"/>
</g>

<g id="bg_0_Layer0_0_FILL">
<path fill="#B6D898" stroke="none" d="
M 326.8 348.45
L 326.8 153.35 268.1 153.35 247.4 185.35 247.4 158.05 242.4 158.05 242.4 147.35 237.8 147.35 237.8 158.05 233.45 158.05 233.45 206.9 224.25 221.2 229.55 221.2 229.55 274.15 213.5 274.15 213.5 234.15 222.6 230.65 203.4 205.95 203.15 172.3 177.4 172.3 164.25 155.35 153.5 155.35 136.9 180.4 136.9 165 132.1 165 132.1 183.1 127.5 183.1 127.5 151.7 122.1 151.7 122.1 202.75 105.55 227.75 112.5 231.85 112.9 264.1 95.05 263.45 95.7 222.25
Q 97.75 221.65 100.7 219.55
L 63.6 150.4 0.4 150.4 0.4 348.45 326.8 348.45 Z"/>
</g>

<g id="bg_0_Layer0_1_FILL">
<path fill="#2B3E1D" stroke="none" d="
M 324 267.4
L 324 259.8 320.7 256.15 317 259.8 317 267.4 312.4 267.4 312.4 259.5 309.05 255.8 305.4 259.5 305.4 267.4 300.4 267.4 300.4 259.5 297.05 255.8 293.45 259.5 293.45 267.4 289.1 267.4 289.1 259.5 285.8 255.8 282.1 259.5 282.1 267.4 277.1 267.4 277.1 259.5 273.8 255.8 270.15 259.5 270.15 267.4 265.8 267.4 265.8 260.15 262.5 256.45 258.8 260.15 258.8 267.4 253.85 267.4 253.85 260.15 250.5 256.45 246.9 260.15 246.9 267.4 242.55 267.4 242.55 260.15 239.2 256.45 235.55 260.15 235.55 267.4 230.55 267.4 230.55 260.15 227.25 256.45 223.55 260.15 223.55 267.4 218.9 267.4 218.9 259.8 215.6 256.15 211.9 259.8 211.9 267.4 206.9 267.4 206.9 259.8 203.6 256.15 199.95 259.8 199.95 267.4 195.65 267.4 195.65 259.8 192.3 256.15 188.65 259.8 188.65 267.4 183.65 267.4 183.65 259.8 180.3 256.15 176.7 259.8 176.7 267.4 172.95 267.4 172.95 260.75 169.6 257.05 165.95 260.75 165.95 267.4 160.95 267.4 160.95 260.75 157.65 257.05 153.95 260.75 153.95 267.4 149.6 267.4 149.6 260.75 146.35 257.05 142.65 260.75 142.65 267.4 137.65 267.4 137.65 260.75 134.35 257.05 130.65 260.75 130.65 267.4 126.05 267.4 126.05 260.4 122.7 256.75 119.05 260.4 119.05 267.4 114.05 267.4 114.05 260.4 110.7 256.75 107.1 260.4 107.1 267.4 102.75 267.4 102.75 260.4 99.45 256.75 95.75 260.4 95.75 267.4 90.75 267.4 90.75 260.4 87.45 256.75 83.75 260.4 83.75 267.4 79.5 267.4 79.5 261.05 76.15 257.4 72.45 261.05 72.45 267.4 67.5 267.4 67.5 261.05 64.15 257.4 60.55 261.05 60.55 267.4 56.2 267.4 56.2 261.05 52.85 257.4 49.2 261.05 49.2 267.4 44.2 267.4 44.2 261.05 40.9 257.4 37.2 261.05 37.2 267.4 32.55 267.4 32.55 260.75 29.25 257.05 25.55 260.75 25.55 267.4 20.55 267.4 20.55 260.75 17.25 257.05 13.6 260.75 13.6 267.4 9.3 267.4 9.3 260.75 5.95 257.05 2.3 260.75 2.3 267.4 0.8 267.4 0.8 298.8 2.3 298.8 2.3 305.8 0.8 305.8 0.8 337.2 2.3 337.2 2.3 345.55 9.3 345.55 9.3 337.2 13.6 337.2 13.6 345.55 20.55 345.55 20.55 337.2 25.55 337.2 25.55 345.55 32.55 345.55 32.55 337.2 37.2 337.2 37.2 345.9 44.2 345.9 44.2 337.2 49.2 337.2 49.2 345.9 56.2 345.9 56.2 337.2 60.55 337.2 60.55 345.9 67.5 345.9 67.5 337.2 72.45 337.2 72.45 345.9 79.5 345.9 79.5 337.2 83.75 337.2 83.75 345.25 90.75 345.25 90.75 337.2 95.75 337.2 95.75 345.25 102.75 345.25 102.75 337.2 107.1 337.2 107.1 345.25 114.05 345.25 114.05 337.2 119.05 337.2 119.05 345.25 126.05 345.25 126.05 337.2 130.65 337.2 130.65 345.55 137.65 345.55 137.65 337.2 142.65 337.2 142.65 345.55 149.6 345.55 149.6 337.2 153.95 337.2 153.95 345.55 160.95 345.55 160.95 337.2 165.95 337.2 165.95 345.55 172.95 345.55 172.95 337.2 176.7 337.2 176.7 344.65 183.65 344.65 183.65 337.2 188.65 337.2 188.65 344.65 195.65 344.65 195.65 337.2 199.95 337.2 199.95 344.65 206.9 344.65 206.9 337.2 211.9 337.2 211.9 344.65 218.9 344.65 218.9 337.2 223.55 337.2 223.55 344.95 230.55 344.95 230.55 337.2 235.55 337.2 235.55 344.95 242.55 344.95 242.55 337.2 246.9 337.2 246.9 344.95 253.85 344.95 253.85 337.2 258.8 337.2 258.8 344.95 265.8 344.95 265.8 337.2 270.15 337.2 270.15 344.3 277.1 344.3 277.1 337.2 282.1 337.2 282.1 344.3 289.1 344.3 289.1 337.2 293.45 337.2 293.45 344.3 300.4 344.3 300.4 337.2 305.4 337.2 305.4 344.3 312.4 344.3 312.4 337.2 317 337.2 317 344.65 324 344.65 324 337.2 327.2 337.2 327.2 305.8 324 305.8 324 298.8 327.2 298.8 327.2 267.4 324 267.4
M 79.5 305.8
L 79.5 298.8 83.75 298.8 83.75 305.8 79.5 305.8
M 72.45 298.8
L 72.45 305.8 67.5 305.8 67.5 298.8 72.45 298.8
M 49.2 298.8
L 49.2 305.8 44.2 305.8 44.2 298.8 49.2 298.8
M 60.55 298.8
L 60.55 305.8 56.2 305.8 56.2 298.8 60.55 298.8
M 37.2 298.8
L 37.2 305.8 32.55 305.8 32.55 298.8 37.2 298.8
M 25.55 298.8
L 25.55 305.8 20.55 305.8 20.55 298.8 25.55 298.8
M 13.6 298.8
L 13.6 305.8 9.3 305.8 9.3 298.8 13.6 298.8
M 142.65 298.8
L 142.65 305.8 137.65 305.8 137.65 298.8 142.65 298.8
M 153.95 298.8
L 153.95 305.8 149.6 305.8 149.6 298.8 153.95 298.8
M 160.95 305.8
L 160.95 298.8 165.95 298.8 165.95 305.8 160.95 305.8
M 130.65 298.8
L 130.65 305.8 126.05 305.8 126.05 298.8 130.65 298.8
M 107.1 298.8
L 107.1 305.8 102.75 305.8 102.75 298.8 107.1 298.8
M 119.05 298.8
L 119.05 305.8 114.05 305.8 114.05 298.8 119.05 298.8
M 95.75 298.8
L 95.75 305.8 90.75 305.8 90.75 298.8 95.75 298.8
M 223.55 298.8
L 223.55 305.8 218.9 305.8 218.9 298.8 223.55 298.8
M 242.55 305.8
L 242.55 298.8 246.9 298.8 246.9 305.8 242.55 305.8
M 235.55 298.8
L 235.55 305.8 230.55 305.8 230.55 298.8 235.55 298.8
M 211.9 298.8
L 211.9 305.8 206.9 305.8 206.9 298.8 211.9 298.8
M 188.65 298.8
L 188.65 305.8 183.65 305.8 183.65 298.8 188.65 298.8
M 199.95 298.8
L 199.95 305.8 195.65 305.8 195.65 298.8 199.95 298.8
M 176.7 298.8
L 176.7 305.8 172.95 305.8 172.95 298.8 176.7 298.8
M 305.4 298.8
L 305.4 305.8 300.4 305.8 300.4 298.8 305.4 298.8
M 317 298.8
L 317 305.8 312.4 305.8 312.4 298.8 317 298.8
M 293.45 298.8
L 293.45 305.8 289.1 305.8 289.1 298.8 293.45 298.8
M 270.15 298.8
L 270.15 305.8 265.8 305.8 265.8 298.8 270.15 298.8
M 282.1 298.8
L 282.1 305.8 277.1 305.8 277.1 298.8 282.1 298.8
M 258.8 298.8
L 258.8 305.8 253.85 305.8 253.85 298.8 258.8 298.8 Z"/>
</g>

<g id="bg_0_Layer0_2_FILL">
<path fill="#151F02" stroke="none" d="
M 306.4 417.05
L 295.4 410.45 244.85 453.35 248.15 456.6 247.9 526.25 306.4 526.05 306.4 417.05 Z"/>
</g>

<g id="bg_0_Layer0_3_FILL">
<path fill="#151F02" stroke="none" d="
M 71.5 286.35
Q 65.3 273.65 58.25 273.3
L 58.25 453.9 59.25 455.75
Q 60.9 458.8 66.7 465.8 70.95 470.95 72.05 475.9 73.25 481.45 70.5 488 68.75 492.2 62.95 503.55 60.5 509.05 58.25 517.9
L 58.25 538.25 103.75 538.25
Q 102.5 534 99.7 531.2 93.5 525 91.4 521.9 86.85 515.35 86.85 508.1 86.7 504.15 86.65 502.1 86.5 498.5 87 495.75 88.25 488.05 95.35 479.85 102.25 471.95 110.05 463.35
L 118 454.7 119.3 454.45
Q 122.75 453.9 125.1 451.7
L 126.8 449.65 128.7 449.9
Q 131 450.15 132.85 450.15 136.7 450.15 143.1 445.65 144.9 444.35 146.5 443.6 148.5 442.65 149.4 442.95 150.95 443.45 153.75 442.7 157.2 441.75 159.1 441.75 162.8 441.75 163.55 441.45 164.95 440.9 167.35 437.8 168.55 436.25 168.15 434.1
L 167.45 432.25
Q 169.75 432.25 171.55 431 173.65 429.5 174 426.9 174.55 423.05 172.6 421.05 170.1 419.4 169.25 418.65 168.2 417.7 166.25 417.1
L 164.5 416.65
Q 165.3 415.15 165.8 413.2 166.85 409.4 165.45 407.5 162.45 403.3 158.3 402.75 154.8791015625 402.3533203125 152.6 404.25 155.00234375 402.136328125 155.3 400.4 155.45 399.45 154.85 398 154.05 396.2 151.4 395.15 149.1 394.25 149.15 394 150.45 391.2 150.8 390 151.35 388.1 149.45 386.1 146.15 382.6 144.05 382.6 143.05 382.75 142.65 382.75 141.95 382.8 141.3 382.25 139.7 380.85 135.85 381.5 132.5 382.05 132.4 381.3 133.85 379.95 134.05 377.45 134.5 372.55 128.2 367 125.9 365 120.45 363.45 116.6 362.35 116.6 359.85 116.6 355.05 111.7 355.05
L 106.75 356
Q 108.5 347.65 105 343.55 103.2 341.8 102.55 341.1 101.55 339.9 102 338.5 104.55 330.5 99.8 326.45 97.2 324.6 96.15 323.85 94.35 322.5 94.35 321.2 94.35 312.65 89.2 310.3 84 309.35 84 308 84.8 306.05 85.3 304.1 86.3 300.2 84.75 297.7 80.8 291.25 76.65 290.1 74.3 289.45 73.9 289.25 72.55 288.5 71.5 286.35
M 94.7 465.6
Q 87.2 469.5 84 468.5 77.75 466.6 74.4 463.3 70.45 458.55 66.7 454.8 65.8 453.95 64.4 452.35 66.7 452.9 68.2 452 69.55 450.65 70.15 450.1
L 72.05 451.7
Q 74.35 453.3 76.05 453.3 77.2 453.3 80.95 452.45 84.7 451.6 87.3 451.6 89.7 451.6 91.3 452.65 93.5 454.15 96.9 454.95 102.85 456.4 108.55 456.3 101.55 462.05 94.7 465.6 Z"/>
</g>

<g id="bg_0_Layer0_4_FILL">
<path fill="#151F02" stroke="none" d="
M 208.7 515.55
L 206.6 521.85 193.7 515.9 193.25 524 184.2 514.65 169.5 519.95 170.25 513.35 157.2 521.75 144.35 515.45 139.55 522.7 134.55 517.75 120.4 525.35 111.4 515.85 99.15 524.5 88.9 516.9 77.05 521.95 73.55 516.65 61.95 522.45 61.9 511.05 58.25 516.1 58.25 538.25 306.1 538.25 306.1 521.35 304.15 519.2 293.2 524.5 292.25 514.65 283.45 518.7 277.4 514.65 274.45 524.4 270.4 518.95 257.4 523.75 259.05 516.15 249.95 524.5 243.1 517.15 232.75 526.25 224.55 517.3 218.75 521.35 208.7 515.55 Z"/>
</g>

<g id="rooster_0_Layer0_1_FILL">
<path fill="#F59331" stroke="none" d="
M 678.3 486.1
Q 676.95 486.9 677 487.85
L 680.9 525.7
Q 670.3 528 665.3 533.3 661.9 536.85 661.2 541.65 661 543.2 661.15 543.6 661.5 544.6 663.2 544.45 664.9 544.35 665.25 543.05 665.35 541.5 665.45 540.85 665.6 539.7 669.1 536.65 674.1 532.35 681.4 530.25
L 684.8 540.05
Q 685 541.75 685.3 542.35 686 543.7 687.7 543.45 689.45 543.25 689.85 541.6 690.05 540.75 689.85 539.1
L 691.15 529
Q 698.3 529.2 703.2 532.2 706.55 534.25 706.85 535.45 707.4 537.3 707.7 537.75 708.6 539.1 710.4 538.85 712.15 538.6 712.3 537.9 712.3 537.75 711.9 536.3 708.45 523.7 690.65 524.4
L 686.75 486.6
Q 686.7 485.65 685.2 485.2 683.7 484.75 681.65 485 679.65 485.25 678.3 486.1 Z"/>
</g>

<g id="chickens_ai_Layer_1__Path__65_0_Layer0_0_FILL">
<path fill="#BF2932" stroke="none" d="
M 1.75 20
Q 7.15 16.4 11.3 16.85
L 9.75 1.7
Q 9.65 0.75 8.15 0.3 6.7 -0.15 4.65 0.1 2.6 0.35 1.3 1.2 -0.05 2 0 2.95
L 1.75 20 Z"/>
</g>

<g id="rooster_0_Layer0_3_FILL">
<path fill="#F59331" stroke="none" d="
M 604.2 485.9
Q 602.65 486.45 602.5 487.35
L 595.95 525.05
Q 578.05 525.4 573.6 538.05 573.05 539.45 573.1 539.65 573.2 540.35 574.95 540.5 576.8 540.65 577.8 539.25 578.1 538.8 578.8 536.9 579.15 535.75 582.7 533.5 587.9 530.25 595.15 529.6
L 595.7 539.55
Q 595.4 541.25 595.55 542.05 595.85 543.6 597.6 543.75 599.35 543.9 600.1 542.5 600.45 541.95 600.8 540.2
L 604.95 530.3
Q 612.2 531.95 616.95 535.95 620.2 538.65 620.35 539.9 620.4 540.5 620.4 542.05 620.65 543.25 622.35 543.3 624.1 543.35 624.55 542.35 624.7 541.85 624.6 540.4 624.25 535.7 621 532.35 616.3 527.45 605.7 525.75
L 612.3 488
Q 612.45 487.1 611.1 486.35 609.75 485.6 607.75 485.5 605.75 485.35 604.2 485.9 Z"/>
</g>

<g id="chickens_ai_Layer_1__Path__63_0_Layer0_0_FILL">
<path fill="#BF2932" stroke="none" d="
M 0 17
Q 4.1 16.3 9.45 19.6
L 12.4 2.55
Q 12.55 1.65 11.25 0.9 9.9 0.15 7.9 0.05 5.9 -0.1 4.3 0.45 2.75 1 2.6 1.9
L 0 17 Z"/>
</g>

<g id="rooster_0_Layer0_5_FILL">
<path fill="#2E4621" stroke="none" d="
M 793.75 292.8
Q 793.6 291.85 792.2 290.45 789.4 287.6 783.2 285.35 750.75 273.5 725.2 283 704.7 290.6 689.5 311.45 678.65 326.35 671.55 346.4 668 356.4 666.6 363.45 650.15 382.85 655.1 403.2 659.05 419.5 676.45 435.65 688.85 447.15 706.7 457.45 715.65 462.6 722.1 465.45 742.35 458.2 753.9 447 762.85 438.35 767.55 426 769.15 421.8 770.8 415.7 773.25 406.95 773.45 406.25 776.55 396 781.85 391.7 789.95 385.15 802.85 381.25 818.4 376.55 827.35 381.45 834.75 385.5 834.35 390.9 834.15 393.75 834.15 393.85 834.5 394.95 836.85 394.95 841.4 394.95 844.55 390.45 846.15 388.2 846.85 385.95 850.25 380.8 845.15 371.85 843.55 369.05 841.3 366.25
L 834.85 358.95
Q 838.1 355.7 836.9 346.5 835.85 338.6 832.5 331.35 830.05 326.1 823.35 320.5
L 817.1 315.95
Q 817.1 304.95 809.1 298.4 802.35 292.8 793.75 292.8 Z"/>
</g>

<g id="rooster_0_Layer0_6_FILL">
<path fill="#6E9C38" stroke="none" d="
M 566.6 356.95
L 554.6 346.45
Q 547.65 351.5 540.7 364.05 526.8 389.25 526.8 426.95 526.8 432.25 532.2 439.2 536.95 445.35 544.45 451.1 551.65 456.55 557.85 459 564.45 461.65 566.6 459.45 570.35 455.7 568.85 405.95
L 566.6 356.95 Z"/>
</g>

<g id="rooster_0_Layer0_7_FILL">
<path fill="#FDC130" stroke="none" d="
M 656.55 292.3
Q 657.35 273.5 657.35 269.15 657.3 253.35 654.8 236.3 649.85 202.75 625 195.85 617.2 193.7 608.4 194.45
L 601.1 195.65
Q 590.75 198.9 583.6 208.35 569.25 227.25 585.1 258.3 589 265.9 583.75 282.35 579 297.05 573.45 302.65 570.75 305.35 565.35 314.45 559.05 325.05 553.75 336.85 538.95 369.75 541.1 390.95 544.4 423.15 552.95 444.2 565.15 474.35 589.1 486.3
L 595.5 489.6
Q 604.1 493.3 615.15 495.25 650.65 501.4 697.7 487.55 717.3 481.8 726.95 466.15 735.35 452.6 735.4 433.35 735.45 416.4 729.25 399.55 723.4 383.55 714.8 374.95 709.35 369.5 686.2 352.85 667.05 339.1 664.1 332.95 658.8 321.75 657.2 311.6 656.05 304.05 656.55 292.3 Z"/>
</g>

<g id="rooster_0_Layer0_8_FILL">
<path fill="#BF2932" stroke="none" d="
M 602.15 249.8
L 594.1 247.95
Q 590.15 252.9 585.85 259.75 577.25 273.45 575.65 282.9 574.15 291.8 575.1 297.6 575.6 300.7 577.2 303.9 579 307.45 584.75 310.3 591.15 313.4 593.65 309.75 595 307.75 597.8 295.45 600.5 283.4 600.95 282.95 602.15 281.8 602.15 249.8 Z"/>
</g>

<g id="rooster_0_Layer0_9_FILL">
<path fill="#F07384" stroke="none" d="
M 598.05 218.5
Q 596.15 216.3 593.1 215.1
L 590.45 214.3 580.6 213.05
Q 576.95 220.05 576.9 228.75 578.1 226.95 579.9 226.75 582.2 226.4 584.2 228.55 586.25 230.75 586.75 234.15 587.25 237.55 585.95 240.2 584.65 242.85 582.35 243.2 580.45 243.5 578.7 242 580.2 247.8 583.25 254.4 588.85 252.6 596.1 239.65 604.05 225.5 598.05 218.5 Z"/>
</g>

<g id="rooster_0_Layer0_10_FILL">
<path fill="#EB212E" stroke="none" d="
M 649.6 194.95
Q 652.35 180.2 648.35 176.2 646.7 174.55 643.3 169.7 641.45 167.1 639.25 167.1 638.05 167.1 636.75 169.85 635.45 172.55 634.05 172.55 632.65 172.55 631.9 169.1 630.95 164.8 629.35 163.2 625.35 159.2 622.1 159.2 620.35 159.2 620.3 160.5 620.3 161.45 620.6 165.45 620.6 170.45 617.1 170.45 615.4 170.45 614.25 168.25 613.25 166.35 613.25 164.35 613.25 160.7 613.1 159.95 612.75 157.95 611.1 157.95 609.15 157.95 605.8 163.55 602.4 169.25 601.85 173.95 600.75 183.8 599.2 186.25 598.7 187 598.25 186.9
L 597.85 186.7
Q 597.6 186.45 597.35 185.65 596.9 184.05 597.1 181.45 597.85 176.6 597.75 176 597.65 175.45 595.1 176.95 591.75 179 589.35 187.45 587.9 192.75 587.9 197.7 587.9 199.05 586.55 198 585.2 196.95 584.6 194.95 584.15 192.85 583.85 191.95 583.25 190.3 582.35 191.2 578.9 194.65 578.05 199.5 577 205.55 579.65 215.1 580.3 217.45 584.3 222.6 588.35 227.85 589.55 231.9 590.95 236.7 593.6 244.95
L 599.1 244.95 601.1 238.45
Q 600.6 229.9 602.35 220.65 605.9 202.2 617.1 198.65 624.9 196.2 632.3 199.1 636 200.55 638.1 202.5
L 643.6 200.25
Q 649.15 197.45 649.6 194.95 Z"/>
</g>

<g id="rooster_0_Layer0_11_FILL">
<path fill="#F07384" stroke="none" d="
M 608.45 242.65
Q 610.3 242.85 612.9 244.6 616.05 246.65 617.3 247.1 622.95 249.15 631.1 240.95 636.55 235.55 636.7 226.7 636.75 223.95 636.3 221.15
L 635.8 218.95
Q 635.05 214.9 631.55 211.35 624.55 204.25 610.8 206.95 597.05 209.65 595.2 224.95 594.3 232.55 596.1 239.65 597.55 239.65 601.95 241 606.8 242.45 608.45 242.65 Z"/>
</g>

<g id="rooster_0_Layer0_12_FILL">
<path fill="#EB212E" stroke="none" d="
M 608.9 242.8
L 609.8 239.3 600.7 244.05 595.4 256.4
Q 592.8 262.5 590.85 269.15 584.7 290.45 587.8 309.3 589.35 318.95 596.65 318.15 600.35 317.8 604.15 315.15 609.75 310.85 612.35 307.55 615.35 303.8 615.8 299.65 616.7 291.85 616.5 287.8 616.1 279.55 612.65 270.95 609.25 262.55 608.3 255.7 607.95 253.2 607.95 248.3 607.95 246.65 608.9 242.8 Z"/>
</g>

<g id="rooster_0_Layer0_13_FILL">
<path fill="#064947" stroke="none" d="
M 576.9 228.75
Q 576.8 235 578.7 242 580.45 243.5 582.35 243.2 584.65 242.85 585.95 240.2 587.25 237.55 586.75 234.15 586.25 230.75 584.2 228.55 582.2 226.4 579.9 226.75 578.1 226.95 576.9 228.75 Z"/>
</g>

<g id="rooster_0_Layer0_14_FILL">
<path fill="#007070" stroke="none" d="
M 622.25 222
Q 622.25 218.5 619.85 216 617.5 213.5 614.1 213.5 610.75 213.5 608.35 216 605.95 218.5 605.95 222 605.95 225.55 608.35 228 610.75 230.5 614.1 230.5 617.5 230.5 619.85 228 622.25 225.55 622.25 222 Z"/>
</g>

<g id="rooster_0_Layer0_15_FILL">
<path fill="#3C5B2E" stroke="none" d="
M 792.2 290.45
Q 789.4 287.6 783.2 285.35 749.5 273 723.25 283.75 702.5 292.2 687.4 314.5 688.3 319.15 692.55 320.9 697.25 322.75 702.8 319.3 711.85 313.7 721.85 311.6 726.9 310.55 730.1 310.65 727.45 311.05 723.4 312.45 715.35 315.35 708.45 320.65 705.6 322.85 707.2 325.15 708.6 327.15 712.95 328.75 723.05 332.35 730.45 329.95 743.6 325.8 755.5 324.8 761.45 324.3 764.8 324.65 761.35 324.65 756.75 325.8 747.6 328.05 741.8 333.65 739.55 335.8 740.95 338.15 742.25 340.2 745.95 341.85 754.45 345.65 761.3 343.45 775.2 339 787.9 340 794.25 340.55 797.8 341.95 793.2 341.65 789.35 342.95 781.75 345.65 785.8 353.95 787.25 356.95 795.05 357.8 799.75 358.3 812.15 359.35 837.7 362.95 847.95 383.45 849.15 378.3 844.4 370.6
L 839.35 363.95 834.85 358.95
Q 838.1 355.7 836.9 346.5 835.85 338.6 832.5 331.35 830.05 326.1 823.35 320.5
L 817.1 315.95
Q 817.1 304.95 809.1 298.4 802.35 292.8 793.75 292.8 793.6 291.85 792.2 290.45 Z"/>
</g>

<g id="rooster_0_Layer0_16_FILL">
<path fill="#3C5B2E" stroke="none" d="
M 664.1 332.95
Q 658.9 321.9 657.35 312.15 648.7 357.4 631 384.6 608.45 419.1 576.45 413.65 552.4 409.55 547.6 386.35 544 369.1 551.2 342.7 539.2 371.85 541.1 390.95 544.4 423.15 552.95 444.2 565.15 474.35 589.1 486.3
L 595.5 489.6
Q 604.1 493.3 615.15 495.25 650.65 501.4 697.7 487.55 717.3 481.8 726.95 466.15 735.35 452.6 735.4 433.35 735.45 416.4 729.25 399.55 723.4 383.55 714.8 374.95 709.35 369.5 686.2 352.85 667.05 339.1 664.1 332.95 Z"/>
</g>

<g id="rooster_0_Layer0_17_FILL">
<path fill="#F07384" stroke="none" d="
M 650.75 185.1
Q 650.8 178.65 648.35 176.2 646.7 174.55 643.3 169.7 641.45 167.1 639.25 167.1 638.05 167.1 636.75 169.85 635.45 172.55 634.05 172.55 632.65 172.55 631.9 169.1 630.95 164.8 629.35 163.2 625.35 159.2 622.1 159.2 620.35 159.2 620.3 160.5 620.3 161.45 620.6 165.45 620.6 170.45 617.1 170.45 615.4 170.45 614.25 168.25 613.25 166.35 613.25 164.35 613.25 160.7 613.1 159.95 612.75 157.95 611.1 157.95 609.15 157.95 605.8 163.55 602.4 169.25 601.85 173.95 600.75 183.8 599.2 186.25 598.7 187 598.25 186.9
L 597.85 186.7
Q 597.6 186.45 597.35 185.65 596.9 184.05 597.1 181.45 597.85 176.6 597.75 176 597.65 175.45 595.1 176.95 591.75 179 589.35 187.45 587.9 192.75 587.9 197.7 587.9 199.05 586.55 198 585.2 196.95 584.6 194.95 584.15 192.85 583.85 191.95 583.25 190.3 582.35 191.2
L 582.1 191.5
Q 580.7 203.05 583.85 208 585.05 210.05 587.1 210.95 592.2 213.25 595.05 207.85 596.7 204.15 597.65 202 599.5 198.1 601.5 195.55 608.25 186.95 622.45 186.95 640.6 186.95 649.65 194.8 650.7 188.9 650.75 185.1 Z"/>
</g>

<g id="rooster_0_Layer0_18_FILL">
<path fill="#F07384" stroke="none" d="
M 608.9 242.8
L 609.8 239.3 602 243.35
Q 598.4 255.6 597.3 265.3 595.65 279.35 599.6 285.45 602.55 290 605.55 289.65 608.1 289.4 610.2 285.7 612.1 282.45 612.8 278 613.55 273.6 612.65 270.95 609.25 262.55 608.3 255.7 607.95 253.2 607.95 248.3 607.95 246.65 608.9 242.8 Z"/>
</g>

<g id="rooster_0_Layer0_19_FILL">
<path fill="#6E9C38" stroke="none" d="
M 676.2 344
Q 663.4 335.6 661.7 327.45
L 660.15 330.45
Q 658.2 334.4 656.55 338.95 651.15 353.55 650 369.1 648.6 388.5 653.05 408.75 657.7 430.05 666.1 438.5 669.4 441.8 682.3 438.95 688.8 437.55 694.6 435.45
L 699.05 439.15
Q 704.75 443.45 711.15 446.5 713.45 447.6 719.85 444.8 726.1 442.05 732.75 437.2 749.6 424.85 748.25 415.85 745.3 396.55 731.8 381.6 721.9 370.7 703.7 359.9 683.9 349.05 676.2 344 Z"/>
</g>

<g id="rooster_0_Layer0_20_FILL">
<path fill="#FDC130" stroke="none" d="
M 614.6 239.95
Q 614.25 238.05 612.05 238.05 608.3 237.5 605.3 237.2 599.65 236.65 594.45 237.95 592.85 239.1 590.95 240.9 587.25 244.55 586.1 247.95 585.3 250.5 590.75 251.5 595.8 252.4 599.1 251.3 602.25 250.25 606.9 245.8 611.1 241.8 612.6 241.8 614.95 241.8 614.6 239.95 Z"/>
</g>

<g id="rooster_0_Layer0_21_FILL">
<path fill="#F59331" stroke="none" d="
M 614.4 241.05
Q 614.85 240.35 614.45 239.5 610.4 240.3 605.85 243 602.55 244.9 600.95 246.45 599.4 248 598 248.65 595.75 249.65 592.95 249.15 591.25 248.85 589.2 248.9 587 248.95 586.05 248.8 586.45 250.85 591.5 251.6 596.2 252.25 599.15 251.3 602.3 250.25 606.95 245.8 611.15 241.8 612.65 241.8 613.9 241.8 614.4 241.05 Z"/>
</g>

<g id="chickens_ai_Layer_1__Path__5_0_Layer0_0_FILL">
<path fill="#FFFFFF" stroke="none" d="
M 12.15 0.1
Q 7.3 -0.25 2.8 0.85 -2.2 8.8 1.6 9.75 5 10.6 7.1 8.95 8.3 8 9.8 5.9 10.8 4.95 12.7 3.85 13.85 3.25 16.15 2.1 17.05 1.55 18.65 0.9 14.85 0.25 12.15 0.1 Z"/>
</g>

<g id="chickens_ai_Layer_1__Path__4_0_Layer0_0_FILL">
<path fill="#FFFFFF" stroke="none" d="
M 8.3 3.55
Q 8.15 1.9 6.8 0.9 5.5 -0.15 3.75 0.05 2.05 0.25 0.95 1.5 -0.15 2.8 0.05 4.4 0.2 6 1.55 7.05 2.9 8.1 4.6 7.9 6.3 7.7 7.4 6.45 8.5 5.15 8.3 3.55 Z"/>
</g>

<g id="chickens_ai_Layer_1__Path__3_0_Layer0_0_FILL">
<path fill="#FFFFFF" stroke="none" d="
M 3 1.35
Q 3 0.8 2.55 0.4 2.15 0 1.5 0 0.9 0 0.45 0.4 0 0.8 0 1.35 0 1.9 0.45 2.25 0.9 2.65 1.5 2.65 2.15 2.65 2.55 2.25 3 1.9 3 1.35 Z"/>
</g>

<g id="chickens_ai_Layer_1__Path__2_0_Layer0_0_FILL">
<path fill="#FFFFFF" stroke="none" d="
M 6.7 2.85
Q 6.55 1.55 5.5 0.7 4.4 -0.15 3.05 0 1.65 0.15 0.8 1.15 -0.1 2.2 0.05 3.5 0.15 4.8 1.25 5.65 2.3 6.45 3.7 6.35 5.05 6.2 5.95 5.15 6.8 4.15 6.7 2.85 Z"/>
</g>

<g id="chickens_ai_Layer_1__Path__1_0_Layer0_0_FILL">
<path fill="#FFFFFF" stroke="none" d="
M 2.4 1.05
Q 2.4 0.65 2.05 0.3 1.7 0 1.2 0 0.7 0 0.35 0.3 0 0.65 0 1.05 0 1.5 0.35 1.85 0.7 2.15 1.2 2.15 1.7 2.15 2.05 1.85 2.4 1.5 2.4 1.05 Z"/>
</g>

<g id="Layer0_0_FILL">
<path fill="#141F01" stroke="none" d="
M 265.45 149.5
Q 265.4537109375 89.87265625 231.95 47.75 198.025 4.880859375 149.95 5 101.8765625 4.8818359375 67.85 47.75 34.447265625 89.871875 34.45 149.5 34.4482421875 209.07578125 67.85 251.25 101.8765625 294.1181640625 149.95 294 198.025 294.1189453125 231.95 251.25 265.452734375 209.0751953125 265.45 149.5
M 224.1 53.95
Q 255.44609375 93.52734375 255.45 149.5 255.4470703125 205.4248046875 224.1 245.05 193.3744140625 283.8814453125 149.95 284 106.5232421875 283.8818359375 75.7 245.05 44.4515625 205.425 44.45 149.5 44.4525390625 93.526953125 75.7 53.95 106.5232421875 15.1181640625 149.95 15 193.3744140625 15.118359375 224.1 53.95 Z"/>
</g>

<path id="chickens_ai_Layer_1__Compound_Path__0_Layer0_0_1_STROKES" stroke="#CBD93E" stroke-width="9" stroke-linejoin="miter" stroke-linecap="butt" stroke-miterlimit="4" fill="none" d="
M 114.5 48
L 115.85 49.05 121.3 46.8
Q 126.9 44 127.35 41.5
L 127.35 41.35 128.4 33.05 128.4 32.2 128.45 31.7 128.45 30.8 128.25 28.2 127.65 25.45 127.25 24.45 126.7 23.55
Q 126.65 23.4 126.1 22.75 124.4 21.05 121 16.25 119.2 13.65 116.95 13.65 115.75 13.65 114.45 16.4 113.15 19.1 111.75 19.1 110.35 19.1 109.6 15.65 108.7 11.35 107.1 9.75 103.1 5.75 99.85 5.75 98.1 5.75 98.05 7.05 98.05 8 98.35 12 98.35 17 94.85 17 93.15 17 91.95 14.8 90.95 12.9 90.95 10.9 90.95 7.15 90.85 6.5 90.5 4.5 88.85 4.5 86.9 4.5 83.55 10.1 80.1 15.85 79.6 20.5 78.5 30.35 76.95 32.8 76.45 33.55 76 33.45
L 75.6 33.25
Q 75.3 33 75.1 32.2 74.6 30.6 74.85 28 75.55 23.15 75.45 22.55 75.35 22 72.85 23.5 69.4 25.55 67.1 34 65.6 39.4 65.6 44.25 65.6 45.6 64.25 44.55 62.9 43.5 62.35 41.5 61.9 39.4 61.6 38.5 61 36.85 60.1 37.75
L 59.8 38.05
Q 56.5 41.5 55.75 46.3 54.75 52.35 57.35 61.65
L 56.85 62.9 56.8 62.95 55.65 66.6 55.65 66.7 55.2 68.65 55.2 68.8 54.9 70.7 54.9 70.8
Q 54.7 72.2 54.7 72.9
L 54.65 73.1 54.65 78 54.75 79.6 55.9 86.55 59.55 97.75 60.85 100.8 60.95 100.95 63.5 106.4
Q 54.9 120.1 53.35 129.45 51.5 140.15 53.3 146.5 52.1 148.25 51.15 149.2 47.1 153.25 39.3 167.55 29.9 184.8 24.4 201.4
L 24.35 201.45
Q 16.3 212.05 11.35 226.9 4.5 247.4 4.5 273.5 4.5 282.1 17.25 293.55 29.05 304.2 38.65 306.6 49.8 324.4 66.85 332.85
L 69.95 334.65
Q 74.1 336.75 79.4 338.5
L 73.65 371.6
Q 55.75 371.95 51.3 384.6 50.8 386.1 50.8 386.2 50.9 386.9 52.65 387.05 54.5 387.2 55.5 385.8 55.8 385.35 56.5 383.45 56.85 382.3 60.4 380.05 65.6 376.8 72.85 376.15
L 73.45 386.1
Q 72.6 390.1 75.3 390.3 77.05 390.45 77.8 389.05 78.15 388.5 78.5 386.75
L 82.65 376.85
Q 89.9 378.5 94.65 382.5 98.05 385.35 98.05 386.45 98.1 387.05 98.1 388.6 98.35 389.8 100.05 389.85 101.8 389.9 102.25 388.9 102.4 388.4 102.3 386.95 101.95 382.25 98.75 378.9 94 374 83.45 372.3
L 88.9 341
Q 117.45 347.15 155.2 339.2
L 156.45 351.4 156.5 351.4 158.6 372.25
Q 148 374.55 143 379.85 139.6 383.45 138.95 388.2 138.7 389.7 138.85 390.15 139.2 391.15 140.95 391 142.65 390.9 142.95 389.6 143.05 388.05 143.15 387.4 143.3 386.2 146.8 383.2 151.8 378.9 159.1 376.8
L 162.5 386.6
Q 162.7 388.3 163 388.9 163.7 390.25 165.4 390 167.15 389.8 167.55 388.15 167.75 387.4 167.6 385.65
L 168.85 375.5
Q 176 375.7 180.9 378.75 184.25 380.8 184.55 382 185.1 383.85 185.4 384.3 186.3 385.65 188.1 385.4 189.85 385.15 190 384.45 190 384.3 189.6 382.85 186.15 370.25 168.35 370.95
L 164.85 337
Q 170.2 335.7 175.45 334.1 197.1 327.75 206.55 309.4 224 302 234 291.1 241.65 282.75 245.9 270.85 249.6 257.75 251.4 252.1 254.45 242.45 259.6 238.25 267.7 231.7 280.6 227.8 296.15 223.1 305.1 228 312.5 232.05 312.1 237.45 311.9 240.3 311.9 240.4 312.25 241.5 314.6 241.5 319.15 241.5 322.3 237 323.9 234.75 324.6 232.5 325.35 231.4 325.65 230
L 325.7 229.85 325.9 228.4 325.85 226.7 325.55 224.95 324.75 222.45
Q 324.25 221.1 323.5 219.6
L 323.4 219.4 323.05 218.85 322.95 218.6 322.2 217.3 322 217.05 320.3 214.5 320.25 214.4 319.15 213 319.05 212.85 318.45 212.1 318.3 211.95 318 211.55 317.8 211.35 317.7 211.2 317.45 210.95 317.35 210.8 317.2 210.65 317.15 210.55 317.1 210.55 317.1 210.5 312.6 205.5
Q 315.9 202.25 314.65 193.05 313.6 185.15 310.2 177.9 307.8 172.65 301.1 167.05
L 294.85 162.5
Q 294.85 159.85 294.25 156.95 292.35 148.55 285.05 143.6 278.75 139.35 271.45 139.35 271.4 138.95 270.95 138.25 270.05 136.9 268.2 135.55 265.45 133.55 260.9 131.9
L 260.8 131.85 248.4 128.05 240.4 126.4 232.7 125.5 232.15 125.5
Q 230.6 125.35 229 125.35
L 228.5 125.35
Q 226.9 125.3 225.4 125.35
L 224.95 125.35
Q 223.4 125.35 221.9 125.5
L 221.5 125.5 218.45 125.8 215.15 126.25 209.05 127.6 208.7 127.65 206.1 128.45 205.65 128.55 197.6 131.75 192.3 134.55 186.7 138.2 179.85 143.75 174.8 148.8 169.6 154.85 169.35 155.2
Q 158.4 169.2 150.95 188.5 145 184.25 142.2 180.2
L 139.4 173.95 139.3 173.8 138.35 171.25 138.3 171.05 136.65 166.05 136.65 165.95 136 163.55 136 163.5 135.5 161.1 135.45 161.1 135.05 158.7
Q 134 152.35 134.15 144.2 134.15 143.2 134.8 128.45 135.8 105.25 132.5 82.85 129.1 59.65 115.85 49.05"/>

<path id="rooster_0_Layer0_13_1_STROKES" stroke="#14918C" stroke-width="1" stroke-linejoin="round" stroke-linecap="round" fill="none" d="
M 35.63824615478518 57.72929077148437
Q 36.83995590209963 58.7593276977539 38.14466934204103 58.55332031249999 39.724059295654286 58.31297836303709 40.61675796508791 56.49324645996093 41.509456634521484 54.67351455688477 41.16611099243164 52.33876419067384 40.8227653503418 50.00401382446289 39.41504821777346 48.49329299926758 38.041665649414085 47.016906738281264 36.46227569580077 47.25724868774414 35.226231384277355 47.39458694458007 34.40220184326171 48.63063125610351 34.33353271484373 52.92245178222656 35.63824615478518 57.72929077148437 Z"/>

<path id="rooster_0_Layer0_14_1_STROKES" stroke="#14918C" stroke-width="1" stroke-linejoin="round" stroke-linecap="round" fill="none" d="
M 65.54365158081055 43.99546508789062
Q 65.54365158081055 46.43321914672852 63.89559249877931 48.11561279296875 62.28186798095703 49.832341003417966 59.947117614746105 49.832341003417966 57.64670181274414 49.832341003417966 55.9986427307129 48.11561279296875 54.35058364868166 46.43321914672852 54.35058364868166 43.99546508789062 54.35058364868166 41.592045593261716 55.9986427307129 39.8753173828125 57.64670181274414 38.15858917236328 59.947117614746105 38.15858917236328 62.28186798095703 38.15858917236328 63.89559249877931 39.8753173828125 65.54365158081055 41.592045593261716 65.54365158081055 43.99546508789062 Z"/>
</defs>

<mask id="Mask_Mask_1">
<g transform="matrix( 1, 0, 0, 1, 0,0) ">
<use xlink:href="#Mask_3_MASK_0_FILL"/>
</g>
</mask>

<g mask="url(#Mask_Mask_1)">
<g transform="matrix( 1, 0, 0, 1, -10.6,-167.45) ">
<g transform="matrix( 1, 0, 0, 1, 0,0) ">
<use xlink:href="#bg_0_Layer2_0_FILL"/>
</g>

<g transform="matrix( 1, 0, 0, 1, 0,0) ">
<use xlink:href="#bg_0_Layer1_0_FILL"/>
</g>

<g transform="matrix( 1, 0, 0, 1, 0,0) ">
<use xlink:href="#bg_0_Layer0_0_FILL"/>
</g>

<g transform="matrix( 1, 0, 0, 1, 0,0) ">
<use xlink:href="#bg_0_Layer0_1_FILL"/>
</g>

<g transform="matrix( 1.316986083984375, 0, 0, 1.316986083984375, -76.7,-359.95) ">
<use xlink:href="#bg_0_Layer0_2_FILL"/>
</g>

<g transform="matrix( 1.316986083984375, 0, 0, 1.316986083984375, -76.7,-359.95) ">
<use xlink:href="#bg_0_Layer0_3_FILL"/>
</g>

<g transform="matrix( 1.316986083984375, 0, 0, 1.316986083984375, -76.7,-359.95) ">
<use xlink:href="#bg_0_Layer0_4_FILL"/>
</g>
</g>
</g>

<g mask="url(#Mask_Mask_1)">
<g transform="matrix( 1, 0, 0, 1, 55.65,47.2) ">
<g transform="matrix( 0.6866912841796875, 0, 0, 0.6866912841796875, -3.1,-3.05) ">
<g transform="matrix( 1, 0, 0, 1, 0,0) ">
<use filter="url(#Filter_1)" xlink:href="#chickens_ai_Layer_1__Compound_Path__0_Layer0_0_1_STROKES"/>
</g>
</g>

<g transform="matrix( 0.6866912841796875, 0, 0, 0.6866912841796875, -361.75,-108.45) ">
<use xlink:href="#rooster_0_Layer0_1_FILL"/>
</g>

<g transform="matrix( 0.6866912841796875, 0, 0, 0.6866912841796875, 103.1,224.5) ">
<g transform="matrix( 1, 0, 0, 1, 0,0) ">
<use filter="url(#Filter_1)" xlink:href="#chickens_ai_Layer_1__Path__65_0_Layer0_0_FILL"/>
</g>
</g>

<g transform="matrix( 0.6866912841796875, 0, 0, 0.6866912841796875, -361.75,-108.45) ">
<use xlink:href="#rooster_0_Layer0_3_FILL"/>
</g>

<g transform="matrix( 0.6866912841796875, 0, 0, 0.6866912841796875, 50.15,224.9) ">
<g transform="matrix( 1, 0, 0, 1, 0,0) ">
<use filter="url(#Filter_1)" xlink:href="#chickens_ai_Layer_1__Path__63_0_Layer0_0_FILL"/>
</g>
</g>

<g transform="matrix( 0.6866912841796875, 0, 0, 0.6866912841796875, -361.75,-108.45) ">
<use xlink:href="#rooster_0_Layer0_5_FILL"/>
</g>

<g transform="matrix( 0.6866912841796875, 0, 0, 0.6866912841796875, -361.75,-108.45) ">
<use xlink:href="#rooster_0_Layer0_6_FILL"/>
</g>

<g transform="matrix( 0.6866912841796875, 0, 0, 0.6866912841796875, -361.75,-108.45) ">
<use xlink:href="#rooster_0_Layer0_7_FILL"/>
</g>

<g transform="matrix( 0.6866912841796875, 0, 0, 0.6866912841796875, -361.75,-108.45) ">
<use xlink:href="#rooster_0_Layer0_8_FILL"/>
</g>

<g transform="matrix( 0.6866912841796875, 0, 0, 0.6866912841796875, -361.75,-108.45) ">
<use xlink:href="#rooster_0_Layer0_9_FILL"/>
</g>

<g transform="matrix( 0.6866912841796875, 0, 0, 0.6866912841796875, -361.75,-108.45) ">
<use xlink:href="#rooster_0_Layer0_10_FILL"/>
</g>

<g transform="matrix( 0.6866912841796875, 0, 0, 0.6866912841796875, -361.75,-108.45) ">
<use xlink:href="#rooster_0_Layer0_11_FILL"/>
</g>

<g transform="matrix( 0.6866912841796875, 0, 0, 0.6866912841796875, -361.75,-108.45) ">
<use xlink:href="#rooster_0_Layer0_12_FILL"/>
</g>

<g transform="matrix( 0.6866912841796875, 0, 0, 0.6866912841796875, -361.75,-108.45) ">
<use xlink:href="#rooster_0_Layer0_13_FILL"/>

<use xlink:href="#rooster_0_Layer0_13_1_STROKES" transform="matrix( 1.4562530517578125, 0, 0, 1.4562530517578125, 526.8,157.95) "/>
</g>

<g transform="matrix( 0.6866912841796875, 0, 0, 0.6866912841796875, -361.75,-108.45) ">
<use xlink:href="#rooster_0_Layer0_14_FILL"/>

<use xlink:href="#rooster_0_Layer0_14_1_STROKES" transform="matrix( 1.4562530517578125, 0, 0, 1.4562530517578125, 526.8,157.95) "/>
</g>

<g transform="matrix( 0.6866912841796875, 0, 0, 0.6866912841796875, -361.75,-108.45) ">
<use xlink:href="#rooster_0_Layer0_15_FILL"/>
</g>

<g transform="matrix( 0.6866912841796875, 0, 0, 0.6866912841796875, -361.75,-108.45) ">
<use xlink:href="#rooster_0_Layer0_16_FILL"/>
</g>

<g transform="matrix( 0.6866912841796875, 0, 0, 0.6866912841796875, -361.75,-108.45) ">
<use xlink:href="#rooster_0_Layer0_17_FILL"/>
</g>

<g transform="matrix( 0.6866912841796875, 0, 0, 0.6866912841796875, -361.75,-108.45) ">
<use xlink:href="#rooster_0_Layer0_18_FILL"/>
</g>

<g transform="matrix( 0.6866912841796875, 0, 0, 0.6866912841796875, -361.75,-108.45) ">
<use xlink:href="#rooster_0_Layer0_19_FILL"/>
</g>

<g transform="matrix( 0.6866912841796875, 0, 0, 0.6866912841796875, -361.75,-108.45) ">
<use xlink:href="#rooster_0_Layer0_20_FILL"/>
</g>

<g transform="matrix( 0.6866912841796875, 0, 0, 0.6866912841796875, -361.75,-108.45) ">
<use xlink:href="#rooster_0_Layer0_21_FILL"/>
</g>

<g transform="matrix( 0.6866912841796875, 0, 0, 0.6866912841796875, 44.75,54.35) ">
<g transform="matrix( 1, 0, 0, 1, 0,0) ">
<use filter="url(#Filter_2)" xlink:href="#chickens_ai_Layer_1__Path__5_0_Layer0_0_FILL"/>
</g>
</g>

<g transform="matrix( 0.6866912841796875, 0, 0, 0.6866912841796875, 58.6,39.7) ">
<g transform="matrix( 1, 0, 0, 1, 0,0) ">
<use filter="url(#Filter_3)" xlink:href="#chickens_ai_Layer_1__Path__4_0_Layer0_0_FILL"/>
</g>
</g>

<g transform="matrix( 0.6866912841796875, 0, 0, 0.6866912841796875, 59.4,46.1) ">
<g transform="matrix( 1, 0, 0, 1, 0,0) ">
<use filter="url(#Filter_3)" xlink:href="#chickens_ai_Layer_1__Path__3_0_Layer0_0_FILL"/>
</g>
</g>

<g transform="matrix( 0.6866912841796875, 0, 0, 0.6866912841796875, 35.3,50.5) ">
<g transform="matrix( 1, 0, 0, 1, 0,0) ">
<use filter="url(#Filter_3)" xlink:href="#chickens_ai_Layer_1__Path__2_0_Layer0_0_FILL"/>
</g>
</g>

<g transform="matrix( 0.6866912841796875, 0, 0, 0.6866912841796875, 35.9,55.6) ">
<g transform="matrix( 1, 0, 0, 1, 0,0) ">
<use filter="url(#Filter_3)" xlink:href="#chickens_ai_Layer_1__Path__1_0_Layer0_0_FILL"/>
</g>
</g>
</g>
</g>

<g transform="matrix( 1, 0, 0, 1, 0,0) ">
<use xlink:href="#Layer0_0_FILL"/>
</g>
</svg>
