
<svg xmlns="http://www.w3.org/2000/svg" version="1.1" xmlns:xlink="http://www.w3.org/1999/xlink" preserveAspectRatio="none" x="0px" y="0px" width="150px" height="150px" viewBox="0 0 150 150">
<defs>
<g id="skinArchitecture_0_Layer1_0_FILL">
<path fill="#663300" stroke="none" d="
M 52.7 90.5
Q 52.75 90.5 52.8 90.5 52.8 90.4 52.8 90.3 52.8 90.25 52.35 87.95 52.4 88.8 52.55 89.8 52.65 90.15 52.7 90.5
M 22.45 47.6
Q 22.5 47.65 22.5 47.8
L 22.5 47.85
Q 22.6 47.85 22.75 47.85
L 22.8 47.85 22.8 48.05
Q 22.8 48.3 22.5 48.3
L 22.5 48.4
Q 22.45 48.4 22.4 48.45
L 22.2 48.45 22.25 48.5
Q 22.6 48.5 23.1 48.45 23.3 48.5 23.3 48.6 25 48.5 25.95 48.15 26.95 47.75 27.5 47.7 27.5 47.75 27.55 47.75 27.6 47.75 27.6 47.95 27.6 48.1 26.1 48.55 25.15 48.85 24.45 49 25.85 48.8 28.45 48.35 29.65 48.15 30.5 48 30.45 47.95 30.4 47.9 30.75 47.4 31 47.2 31.45 46.8 33.1 46.8 34.2 46.8 34.6 47 34.85 47.1 34.85 47.25 34.4 47.65 33.4 47.5
L 33.25 47.6
Q 33.45 47.6 34 47.65 34.55 47.75 34.85 48.05 34.75 48.2 34.05 48.25 34.3 48.3 34.5 48.35
L 34.2 48.35
Q 34.4 48.45 34.6 48.5 35.05 48.65 35.6 48.8 39.75 49.9 40.05 50 40.75 50.3 41.4 50.5 42.65 50.8 43.9 50.95 43.95 50.55 44.45 50.3 44.7 50.2 45 50.15 45.05 50.15 45.1 50.15 45.05 50 45 49.85 44.75 49.75 44.45 49.7 42.75 49.3 40.5 49.3 39.7 49.25 37.45 48.2 35.4 47.15 34.2 46.55 33.85 46.4 33.6 46.25 33.5 46.45 33.45 46.6 32.35 46.5 31.7 46.45
L 31.65 46.45
Q 31.65 46.7 28.8 47.1 25.7 47.6 22.45 47.6
M 46.1 51.25
Q 46.15 51.3 46.25 51.4
L 46.3 51.5
Q 46.35 51.4 46.4 51.3 46.35 51.2 46.2 51.1 46.15 51.1 46.15 51.05 46.1 51.15 46.1 51.25
M 45.6 10.65
Q 46.1 7.75 46.1 5.95 46.1 5.55 46 5.45 45.9 5.3 45.6 5.05 45.1 6.65 44.6 8.35 44.25 9.65 44.05 10.75 43.6 12.75 43.6 14 43.6 14.4 43.7 15.1
L 43.7 15.15
Q 43.85 16.5 44.35 19.15 45 22.85 45.05 24.55 45.05 24.65 45.05 24.75 45.05 26.8 46.1 29.35 46.5 30.3 46.75 31.2 47.15 32.55 47.15 33.7 47.15 34.3 47.1 34.95 47.05 36.1 46.85 37.15 46.65 38.2 46.3 39.1 45.4 41.7 45.1 45.65 45.1 45.8 45.25 45.85 45.4 46.2 45.45 46.6 45.45 47.05 45.35 47.95 45.55 47.65 45.65 47.35
L 45.85 47.3
Q 46.35 47.3 46.2 48.8 46.2 49.3 46.2 49.7 46.8 49.3 47.15 49.2 47.45 49.45 47.85 49.6 48.1 49.7 48.1 50.1 48.1 50.45 47.5 51.65 46.85 52.95 46.75 52.45 46.65 52.55 46.5 53.15 46.45 53.35 46.4 53.45 46.35 53.75 46.3 54.05
L 47.15 54.05
Q 47 54.7 45.95 55.25 45.3 55.55 45.05 55.95 44.85 56.7 44.65 57.55 44.6 57.6 44.6 57.65 44.55 57.9 44.5 58.1 43.9 60.65 43.9 64 43.9 64.45 43.95 65 43.95 65.65 44 66.5 44.05 67 44.1 67.35 44.15 67.25 44.25 67.2 44.45 67.3 44.45 67.6
L 44.45 68.05
Q 44.55 67.95 44.65 67.6
L 44.85 67.5
Q 45.05 67.55 45.05 67.8 45.05 68.1 44.75 68.85 44.45 69.7 44 70.2 43.536328125 69.875390625 43.5 69.25 43.5 69.9 43.55 70.55 43.75 73.4 44.75 75.55 45.95 77.95 46.6 80.6
L 46.5 80.6
Q 46.75 81.3 46.85 82.1 46.9 82.5 46.9 82.9 46.9 82.95 46.9 83.05 46.9 83.8 46.7 85.4 46.7 85.6 46.7 85.9 46.65 87.3 46.5 87.95
L 46.5 88.65
Q 46.2 89.45 45.85 89.85 45.75 90 45.4 90.25 45.25 90.4 44.9 90.6 45.35 90.6 45.5 90.45
L 45.8 90.45
Q 46 90.35 46.05 90.25 46.6 90.3 47.35 90.35 47.65 90.35 47.7 90.15 47.8 90.15 47.9 90.2 48.8 90.3 50.2 90.4
L 49.85 89.6
Q 49.85 89.5 50.4 89.3 50.95 89.05 50.95 88.75 50.95 88.7 50.3 87.2 49.7 85.65 49.6 85.45 49.9 85.4 50.1 85.15 50.35 84.8 50.35 84.25 50.35 84 50.3 83.8 50.2 83.6 50.2 83.25 50.2 83.2 50.5 83.05 50.8 82.85 50.95 82.7 51 82.7 51.05 82.65 51.15 82.5 51.2 82.4
L 51.1 82.35
Q 51.05 81.7 50.25 80.5 50.55 80.25 51.1 80.2
L 51.1 79.95
Q 51.1 79.25 50.65 78.95 50.1 78.65 50.05 78.3 49.95 77.85 49.6 77.55 49.15 77.25 49 76.85 48.9 76.6 49 76.15 49.1 75.6 49.1 75.5 49.1 75.15 48.55 74.85 47.95 74.6 47.95 74.4 47.95 73.85 48.6 73.8 49.2 73.7 49.2 73.25 49.2 72.5 48.5 72.2 47.35 71.8 46.3 70.4 47.8 70.4 49 70.05 48.95 69.25 48.85 68.3
L 48.85 68.2
Q 48.85 68.05 48.85 67.85 48.75 67.15 48.7 66.8 48.55 66.7 48.35 66.5 48.2 66.35 47.65 66.35
L 46.4 66.45
Q 46.4 66.25 46.25 65.7 46.1 65.1 46 65
L 46 64.35
Q 47.95 64.2 47.95 62.8 48.4 62.7 48.95 62.6 49.05 62.6 49.15 62.6 49.85 62.45 50.75 62.2 52.2 61.9 53.85 61.7
L 53.75 62.1
Q 54.8 62.1 58.45 62.75
L 62.05 63.45
Q 62.1 63.45 63.35 63.1 63.5 63.1 63.65 63.05 64.1 62.95 64.45 62.9 64.95 62.7 65.4 62.3 65.85 61.95 66.7 61.15 66.55 61.2 64.75 62 63.4 62.6 62.1 62.6 61.85 62.6 54 60.85 53.65 60.8 53.3 60.75 52.25 60.75 50.7 61.35 49.1 61.95 49 61.95 49.05 61.25 49.1 60.4
L 49.55 55.65
Q 49.35 54.45 49.35 54.05 49.35 53.9 49.35 53.85 49.35 52.9 49.35 52.6 49.4 52.45 49.4 52.35 49.4 51.05 49.45 50.1 49.35 50.65 49.2 51.5 48.9 53.05 48.8 53.25 48.5 53.05 48.4 52.6 48.4 52.2 48.4 52.15 48.4 51.3 48.65 50.25 48.85 49.55 49.1 48.75 49.3 48.85 49.4 49 49.446875 48.953125 49.45 48.85
L 49.45 49.05
Q 49.55 49.2 49.55 49.45 49.55 49.65 49.45 50.1 49.55 49.75 49.65 49.3 49.75 48.85 49.75 47.05 49.7 46.6 49.7 46.15 49.75 46.05 49.8 45.95 49.85 45.7 49.85 44.2 49.65 42.45 49.65 41.8 49.55 39.9 49.05 38.95 48.6 38.35 48.6 38.15 48.65 37.8 48.7 37.55 48.7 37.5 48.75 37.45 49.45 33.95 49.45 33.15 49.45 31.2 48.7 29.4 47.4 26.2 46.95 24.5 46.8 24 46.65 23.5 46.55 23.15 46.5 22.85 46.85 22.6 47.2 22.25 47.6 21.75 48.05 21.1 48.15 20.95 48.25 20.8 48.6 20.3 48.8 19.85 48.8 19.4 48.7 19.1 48.45 18.35 47.45 19.2 46.8 19.7 45.95 20.75 45.05 17 45.05 14.95 45.05 13.55 45.6 10.65
M 63.55 16.6
Q 63.35 16.4 63.05 16.4 62.6 16.4 60.25 17.7 57.85 18.95 56.2 19.1
L 56.3 20
Q 59.25 19.35 61.75 18.45 67.1 16.6 68.35 16.2
L 67.75 16.2
Q 66.55 16.2 65.65 16.5 64.7 16.8 64 16.8 63.75 16.8 63.55 16.6 Z"/>

<path fill="#008A00" stroke="none" d="
M 40.75 91.35
L 40.75 91.4 41.95 91.4 42 91.35 42.05 91.35
Q 42.7 91.35 42.9 91.4 43.2 91.5 43.3 91.5
L 43.45 91.5 43.45 91.4
Q 42.9 91.3 42.75 91.3 42.5 91.25 42.3 91.25
L 40.8 91.25
Q 40.75 91.25 40.75 91.35
M 39.75 91.05
L 39.55 91.05 39.55 91.15
Q 39.8 91.2 40.05 91.25 40.25 91.3 40.35 91.3 40.4 91.3 40.4 91.25
L 40.4 91.2
Q 40.2 91.05 39.75 91.05
M 39.85 90.8
Q 39.75 90.75 39.7 90.75
L 39.3 90.75
Q 39.2 90.8 39.2 90.85
L 39.3 90.85
Q 39.5 90.85 39.65 90.9 39.95 90.9 40.15 91 40.5 91.1 40.65 91.1
L 40.75 91.1 40.75 91
Q 40.3 90.95 39.85 90.8 Z"/>

<path fill="#007400" stroke="none" d="
M 42.4 90.75
Q 42.25 90.7 42.15 90.7
L 42.15 90.75 42.4 90.75
M 46.95 91.95
Q 47.4 92 47.9 92.05
L 49.05 92.05
Q 49.2 92.05 49.3 92.05 49.75 92.05 49.8 92.05
L 51.65 92.05
Q 52.05 92 52.75 92
L 52.8 91.95
Q 53.2 91.9 53.4 91.85
L 54.45 91.85
Q 54.7 91.85 55.05 91.8 54.05 91.8 52.9 91.85 50.25 91.85 46.95 91.95
M 39.4 90.9
Q 39.45 90.95 39.5 91 39.25 91 38.95 91
L 38.95 91.05 39.35 91.3 39.6 91.3
Q 39.55 91.35 39.45 91.4
L 39.55 91.45
Q 42.8 91.55 42.9 91.55 43.2 91.55 43.4 91.55
L 43.45 91.6
Q 43.85 91.8 44.25 91.8
L 44.6 91.75
Q 45 91.8 45.55 91.85 45.1 91.75 44.65 91.65 43.9 91.5 43.45 91.4
L 43.45 91.5 43.3 91.5
Q 43.2 91.5 42.9 91.4 42.7 91.35 42.05 91.35
L 42 91.35 41.95 91.4 40.75 91.4 40.75 91.35
Q 40.75 91.25 40.8 91.25
L 42.3 91.25
Q 40.95 91 40.5 90.8 40.3 90.75 40.05 90.7 39.95 90.7 39.85 90.8 40.3 90.95 40.75 91
L 40.75 91.1 40.65 91.1
Q 40.5 91.1 40.15 91 39.95 90.9 39.65 90.9 39.55 90.9 39.4 90.9
M 39.55 91.05
L 39.75 91.05
Q 40.2 91.05 40.4 91.2
L 40.4 91.25
Q 40.4 91.3 40.35 91.3 40.25 91.3 40.05 91.25 39.8 91.2 39.55 91.15
L 39.55 91.05 Z"/>

<path fill="#4E3300" stroke="none" d="
M 52.25 80.85
L 52.05 81.55 52.05 81.6
Q 52.05 81.65 52 81.7
L 51.4 81.6
Q 51.4 81.7 51.4 81.8 51.3 82.25 51.25 82.35 51.2 82.35 51.2 82.4 51.15 82.5 51.05 82.65 51 82.7 50.95 82.7 50.8 82.85 50.5 83.05 50.2 83.2 50.2 83.25 50.2 83.6 50.3 83.8 50.35 84 50.35 84.25 50.35 84.8 50.1 85.15 49.9 85.4 49.6 85.45 49.7 85.65 50.3 87.2 50.95 88.7 50.95 88.75 50.95 89.05 50.4 89.3 49.85 89.5 49.85 89.6
L 50.2 90.4
Q 51.3 90.45 52.7 90.5 52.65 90.15 52.55 89.8 52.4 88.8 52.35 87.95 52.3 87.45 52.3 87 52.3 86.4 52.7 85.15 53.05 83.95 53.05 83.9
L 52.95 82.85
Q 52.95 82.8 52.95 82.7
L 52.55 82.7
Q 52.55 81.7 52.55 80.8 52.45 80.8 52.25 80.85
M 51.5 83.6
L 51.45 83.55
Q 51.4984375 83.5015625 51.55 83.45 51.5 83.503125 51.5 83.6 Z"/>

<path fill="#4E3200" stroke="none" d="
M 49 70.2
Q 49 70.15 49 70.05 47.8 70.4 46.3 70.4 47.35 71.8 48.5 72.2 49.2 72.5 49.2 73.25 49.2 73.7 48.6 73.8 47.95 73.85 47.95 74.4 47.95 74.6 48.55 74.85 49.1 75.15 49.1 75.5 49.1 75.6 49 76.15 48.9 76.6 49 76.85 49.15 77.25 49.6 77.55 49.95 77.85 50.05 78.3 50.1 78.65 50.65 78.95 51.1 79.25 51.1 79.95
L 51.1 80.2
Q 50.55 80.25 50.25 80.5 51.05 81.7 51.1 82.35
L 51.2 82.4
Q 51.2 82.35 51.25 82.35 51.3 82.25 51.4 81.8 51.4 81.7 51.4 81.6
L 52 81.7
Q 52.0484375 81.6029296875 52.05 81.55
L 52.25 80.85
Q 52.45 80.8 52.55 80.8 52.55 80.7 52.55 80.6 52.5 79.55 52.4 78.7 52.05 75.75 50.35 73.1 49.6 72.1 49.4 71.75 49.05 71.2 49 70.2
M 44.25 67.2
Q 44.15 67.25 44.1 67.35 43.85 67.6 43.7 68.05 43.5 68.6 43.5 69.05 43.5 69.1 43.5 69.15 43.5 69.2 43.5 69.25 43.536328125 69.875390625 44 70.2 44.45 69.7 44.75 68.85 45.05 68.1 45.05 67.8 45.05 67.55 44.85 67.5
L 44.65 67.6
Q 44.55 67.95 44.45 68.05
L 44.45 67.6
Q 44.45 67.3 44.25 67.2
M 49.15 62.6
Q 49.05 62.6 48.95 62.6 48.4 62.7 47.95 62.8 47.95 64.2 46 64.35
L 46 65
Q 46.1 65.1 46.25 65.7 46.4 66.25 46.4 66.45
L 47.65 66.35
Q 48.2 66.35 48.35 66.5 48.55 66.7 48.7 66.8 48.7 66.55 48.7 66.45 48.7 66 48.8 64.9 49.45 63.95 51.3 63.05 53.2 62.1 53.75 62.1
L 53.85 61.7
Q 52.2 61.9 50.75 62.2 49.85 62.45 49.15 62.6
M 30.4 47.9
Q 30.45 47.95 30.5 48 30.55 48 30.6 48.05 32.2 48.1 33.75 48.25 33.95 48.25 34.05 48.25 34.75 48.2 34.85 48.05 34.55 47.75 34 47.65 33.45 47.6 33.25 47.6
L 33.4 47.5
Q 34.4 47.65 34.85 47.25 34.85 47.1 34.6 47 34.2 46.8 33.1 46.8 31.45 46.8 31 47.2 30.75 47.4 30.4 47.9
M 20.1 47.35
Q 18.85 46.95 18.7 47.05
L 18.7 47.1
Q 18.5 47.05 18.35 47.05 17.7 46.95 17.7 47.35 17.7 47.5 17.75 47.55 17.8 47.6 17.9 47.6 18.3 47.4 18.8 47.45 19.05 47.75 19.7 47.95 19.8 48 19.9 48.05 20.6 49.05 21 49.05 21.1 49.05 21.5 48.95 21.65 48.95 21.8 49 22.3 49.05 23.3 49.05
L 23.4 49.05
Q 23.45 49.05 23.55 49.05 23.9 49.05 24.45 49 25.15 48.85 26.1 48.55 27.6 48.1 27.6 47.95 27.6 47.75 27.55 47.75 27.5 47.75 27.5 47.7 26.95 47.75 25.95 48.15 25 48.5 23.3 48.6 23.3 48.5 23.1 48.45 22.6 48.5 22.25 48.5
L 22.2 48.45 22.4 48.45
Q 22.45 48.4 22.5 48.4
L 22.5 48.3
Q 22.8 48.3 22.8 48.05
L 22.8 47.85 22.75 47.85
Q 22.6 47.85 22.5 47.85
L 22.5 47.8
Q 22.5 47.65 22.45 47.6
L 22.4 47.55
Q 21.2 47.45 20.1 47.35
M 49.55 49.45
Q 49.55 49.2 49.45 49.05 49.4484375 49 49.4 49 49.3 48.85 49.1 48.75 48.85 49.55 48.65 50.25 48.4 51.3 48.4 52.15 48.4 52.2 48.4 52.6 48.5 53.05 48.8 53.25 48.9 53.05 49.2 51.5 49.35 50.65 49.45 50.1 49.55 49.65 49.55 49.45
M 45.35 47.95
Q 45.45 47.05 45.45 46.6 45.4 46.2 45.25 45.85 45.1 45.8 45.1 45.65 44.95 45.45 44.75 45.35 44.55 45.5 44.55 45.8 44.55 46.95 44.9 49.05 44.95 49.45 45 49.85 45.05 50 45.1 50.15 45.05 50.15 45 50.15 44.7 50.2 44.45 50.3 43.95 50.55 43.9 50.95 42.65 50.8 41.4 50.5 42.7 50.95 44 51.2
L 44 51.25 44.25 51.25
Q 44.3 51.25 44.35 51.25 45.05 51.45 45.25 52.3 45.35 52.65 45.35 53.2 45.35 54.3 45.05 55.95 45.3 55.55 45.95 55.25 47 54.7 47.15 54.05
L 46.3 54.05
Q 46.35 53.75 46.4 53.45 46.45 53.35 46.5 53.15 46.65 52.55 46.75 52.45 46.85 52.95 47.5 51.65 48.1 50.45 48.1 50.1 48.1 49.7 47.85 49.6 47.45 49.45 47.15 49.2 46.8 49.3 46.2 49.7 46.2 49.3 46.2 48.8 46.35 47.3 45.85 47.3
L 45.65 47.35
Q 45.55 47.65 45.35 47.95
M 46.25 51.4
Q 46.15 51.3 46.1 51.25 46.1 51.15 46.15 51.05 46.15 51.1 46.2 51.1 46.35 51.2 46.4 51.3 46.35 51.4 46.3 51.5
L 46.25 51.4
M 46.75 31.2
Q 45.45 31.2 44.05 30.75 42.65 30.35 41.85 30.35 41.3 30.35 40.05 30.65 38.8 30.95 38.4 30.95 38 30.95 36.65 30.55 35.35 30.15 34.85 29.95
L 31.75 29.95
Q 31.75 30.05 31.85 30.15 31.95 30.25 31.95 30.35 33.55 30.8 35.4 31.45 36.9 31.9 38.6 32 41.15 32.2 43.4 32 44.75 32.2 47.1 34.95 47.15 34.3 47.15 33.7 47.15 32.55 46.75 31.2
M 47.2 22.25
Q 46.85 22.6 46.5 22.85 46.55 23.15 46.65 23.5 46.9 23 47.2 22.25
M 48.8 19.85
Q 48.6 20.3 48.25 20.8 48.5 20.65 48.8 20.55 49.7 20.35 51.9 20.4 54.2 20.4 55.45 20.15 55.9 20.05 56.3 20
L 56.2 19.1
Q 56.15 19.1 56.1 19.1 54.75 19.2 52.55 19.2 49.75 19.15 48.7 19.1 48.8 19.4 48.8 19.85 Z"/>

<path fill="#005801" stroke="none" d="
M 40.3 90.6
Q 40.35 90.75 40.45 90.75
L 40.5 90.8
Q 40.95 91 42.3 91.25 42.5 91.25 42.75 91.3 42.9 91.3 43.45 91.4 43.9 91.5 44.65 91.65 45.1 91.75 45.55 91.85 46.3 91.95 46.9 91.95
L 46.95 91.95
Q 50.25 91.85 52.9 91.85 54.05 91.8 55.05 91.8 55.55 91.8 56 91.8 56.1 91.8 56.2 91.8 57.7 91.8 64.1 91.3
L 64.1 91.25
Q 63.25 91.1 58.8 90.8 54.6 90.5 52.85 90.5
L 52.8 90.5
Q 52.75 90.5 52.7 90.5 51.3 90.45 50.2 90.4 48.8 90.3 47.9 90.2 47.8 90.15 47.7 90.15 47.65 90.35 47.35 90.35 46.6 90.3 46.05 90.25 46 90.35 45.8 90.45
L 45.5 90.45
Q 45.35 90.6 44.9 90.6 44.85 90.6 44.8 90.6 44.6 90.65 44.1 90.75
L 42.4 90.75 42.15 90.75 41.75 90.75
Q 41.55 90.75 40.3 90.6 Z"/>
</g>

<g id="skinArchitecture_0_Layer0_0_FILL">
<path fill="#006600" stroke="none" d="
M 32.8 50.4
L 32.75 50.4 32.8 50.45 32.8 50.4
M 35.5 49.9
Q 35.65 50.05 35.8 50.15
L 35.8 50.1
Q 35.85 49.85 35.8 49.75 35.7 49.8 35.5 49.9
M 36.75 49.5
L 37.05 49.5
Q 36.95 49.45 36.75 49.4 36.45 49.5 36.4 49.9
L 36.45 49.85
Q 36.6 49.55 36.75 49.5
M 37.7 50.2
Q 37.75 49.85 37.75 49.7 37.4 49.7 37.3 49.6 37.3 49.75 37.4 50.05 37.5 50.55 37.55 50.75
L 37.8 50.65
Q 37.85 50.55 37.9 50.5 37.7 50.4 37.7 50.2
M 38.3 49.8
Q 38.5 49.8 39.2 50 39.25 50.05 39.3 50.05 39.2 50 39.15 49.9 39.15 49.55 39.15 49.5
L 39.2 49.45
Q 39.05 49.55 38.3 49.65 38.3 49.7 38.3 49.8
M 39.9 49.55
Q 39.85 49.6 39.75 49.7 39.95 49.75 40.05 49.8
L 40.05 49.5
Q 40.05 49.4 39.95 49.3 39.95 49.45 39.9 49.55
M 25.9 48.65
Q 26 48.55 26.1 48.45
L 26 48.45
Q 25.9 48.55 25.9 48.65
M 27.5 47.85
Q 27.25 47.75 27.05 47.7 26.4 48.1 26.1 48.45
L 26.15 48.45
Q 26.25 48.3 26.55 48.2
L 27.5 47.85
M 36.2 49.15
Q 36.2 49.1 36.1 49.15
L 35.85 49.2
Q 36.2 49.2 36.2 49.15
M 20.2 43.05
Q 19.9 42.75 19.75 42.5 19.4 42 19.45 41.75
L 19.45 41.15
Q 18.65 41.35 18.5 41.8 18.25 42.6 17.8 43.05
L 17.8 41.8 15.5 41.8
Q 15.5 41.95 15.95 43.15 16.35 44.3 16.35 44.5 16.3 44.5 16.2 44.6 16.1 44.7 15.85 44.7 15.3 44.7 15.7 44.3
L 15.1 44.3
Q 15.1 45.2 15.5 46.2 15.55 46.3 15.6 46.4 15.75 46.3 15.9 46.25 16.25 46.1 16.4 46.1 16.6 46.2 16.85 46.2 16.9 46.2 16.95 46.15
L 16.95 46.35
Q 17.1 46.45 17.2 46.6 17.05 45.8 18 45.3 18.7 44.9 19.25 44.9 19.25 45.55 19.45 45.55
L 19.55 45.2
Q 19.55 45.1 19.9 45.1 20.15 45.1 20.75 44.9 20.8 44.9 20.9 44.85 20.65 44.75 20.4 44.7
L 18.7 44.1
Q 18.55 44.25 18 44.75
L 17.45 45.2
Q 17.2 45.2 17.2 45.15 17.2 44.85 17.6 44.2
L 17.6 44.15
Q 17.6 44.1 17.6 44.05 17.6 43.9 18 43.65 18.15 43.45 18.3 43.45 18.85 43.45 19 43.65 19.2 43.95 21.85 44.2 22.05 44.35 22.2 44.75 22.4 45.1 22.55 45.25 25.1 45.4 25.6 45.6 25.95 45.75 26.65 45.75
L 26.7 45.75
Q 26.75 45.8 26.75 45.95 26.75 46.1 26.6 46.2 26.45 46.25 26.35 46.25 26.2 46.25 24.7 46.05 23.25 45.85 22.3 45.85 22.05 45.45 21.55 45.2 21.5 46.15 21.85 46.45 22.1 46.65 22.6 46.8 22.8 46.55 22.9 46.4 23.1 46.15 23.4 46.15 23.75 46.15 23.8 46.25
L 23.85 46.35 23.85 47.2
Q 25.25 46.9 26 47.2 26.4 47.4 26.55 47.6 26.75 47.6 27.05 47.7 27.2 47.6 27.4 47.45 27.6 47.35 27.75 47.3
L 30.5 48.65 30.3 49.05
Q 29.2 49.75 26.85 50.3 26.9 50.3 26.95 50.3 27.75 50.3 30.7 49.5 31.4 49.3 31.95 49.15 32.4 49 32.8 48.95 32.8 49.2 32.8 49.4 33.55 49.25 34.55 49.05 35.55 48.95 36.2 48.95 36.65 48.95 37.95 49.15
L 38.7 49.1
Q 38.8 48.95 38.9 48.95
L 39.75 48.95
Q 39.8 49 39.85 49.05 39.75 48.8 39.65 48.45 39.5 47.85 39.15 47.7 38.9 47.6 38.4 47.35 37.85 46.95 37.65 46.9 36.95 47.5 35.95 48 34.9 48.55 34.45 48.55 34.05 48.55 33.95 48.45
L 33.95 47.95 33.7 47.95 32.8 48.45
Q 32.8 48.4 32.8 48.35 32.8 46.75 32.65 46.5 32.35 45.85 30.7 45.95 30.55 45.4 30.55 45.3 30.5 44.95 30.5 44.3 29.65 44.3 28.85 44.7 28.7 44.45 28.65 43.85
L 28.6 43.05
Q 27.65 43.4 27.05 44 26.75 44.25 26.65 44.5 25.9 44.5 24.85 44.2 23.45 43.75 22.6 43.45 21.3 43 20.3 42.7
L 20.2 43.05
M 29.6 45.25
Q 29.65 45.15 30.1 45 30.4 45.2 30.6 45.85 30.7 46.25 30.7 46.6 30.7 46.75 30.6 46.85 30.55 46.85 30.45 46.95 30.6 46.95 31.2 46.95 31.8 47.05 32.05 47.35 32.05 47.4 32 47.55 31.95 47.6 31.8 47.6 31 47.45 29.2 47.35
L 29.15 47.25
Q 29.25 47.1 29.5 46.95 29.85 46.8 29.95 46.75 29.85 46.35 29.65 46.1 29.55 45.9 29.55 45.6 29.55 45.3 29.6 45.25
M 17.6 25.9
Q 17.6 26 17.55 26.1 17.55 26.35 17.5 26.6 17.4 26.6 17.4 26.65
L 17.4 27 17.4 27.1
Q 17.45 27.2 17.5 27.25 18.05 27.9 19.15 28.85 18.75 28.85 18.65 29 18.6 29.1 18.65 29.15 18.75 29.25 18.75 29.3 19.45 29.4 19.7 29.4 19.8 29.4 20.4 29.3
L 20.5 29.3
Q 21.2 29.15 21.3 29.15 21.45 29.15 21.95 29.35
L 22.5 29.5
Q 23 29.5 23 29.6 22.7 29.7 22.7 30.15 22.7 30.2 23.05 30.4 23 30.4 22.9 30.45 23.75 31.15 24.9 31.4 25.85 31.6 26.4 32.45 26.85 33.25 27.4 33.25 28.65 33.2 29.45 32.45 29.95 33.2 30.5 33.5 30.8 33.7 31 33.7 31.5 33.7 32.7 32.75 33.95 31.85 34.45 31.8 35.5 31.75 36.45 31.4 37.8 30.9 37.8 30.05 37.8 28.3 36.1 28 35.15 27.85 34.65 27.75 34.4 27.75 34.2 27.65 33.85 27.7 33.6 27.75 33.5 27.75 33.4 27.8 32.9 27.85 32.7 27.85 32.3 27.85 29.95 27.35 27.6 26.8 27.5 26.8 27.15 26.8 26 27.45 25.95 27.45 24.15 26.2 24.05 26.1 23.85 26 23.9 26.1 23.9 26.3 24 26.65 24.1 27.2 24.15 27.25 24.15 27.35 25.9 27.65 26 28
L 26.95 28
Q 26.95 27.8 27.15 27.75 28.6 27.7 29.15 27.65 29.25 27.65 30.5 27.65 31.75 27.8 32.15 28.5 32.3 28.7 32.25 28.85
L 33.1 28.85
Q 33.15 28.85 33.65 28.75 34.1 28.6 34.25 28.6 34.55 28.6 34.65 28.8 34.2 29 33 29.3
L 32.05 29.3
Q 31.85 29.2 31.85 28.9 31.85 28.85 31.9 28.75
L 31.95 28.7
Q 31.9 28.7 31.85 28.7 31.35 28.7 31.25 28.65 30.9 28.55 30.2 28.35 29.85 28.25 29.65 28.2 29.35 28.1 29.15 28.1
L 28.1 28.2
Q 28 28.25 27.8 28.3 27.8 28.35 28 28.6
L 28 28.65
Q 27.2 28.45 25.95 28.25 23.05 27.7 22.8 27.6 23.1 27.35 23.1 27.15 23.1 27 22.95 26.9 22.65 26.65 22.6 26.6 22.8 26.2 22.8 25.9
L 22.8 25.85
Q 22.8 25.8 22.8 25.75 22.7966796875 25.65 22.75 25.65 22.7 25.6 22.6 25.55 22.45 25.65 22.3 25.9 22.1 26.25 21.95 26.35
L 20.3 26.35
Q 19.35 26.35 18.25 25.45 17.5 24.85 17.5 25.25 17.5 25.65 17.6 25.9
M 19.5 27.4
L 19.55 27.35
Q 19.65 27.35 20.2 27.6 20.8 27.85 21.15 28.1
L 20.95 28.1
Q 20.7 27.95 20.1 27.75 19.7 27.55 19.55 27.5 19.55 27.45 19.5 27.4
M 19.8 28.05
Q 19.85 28.05 19.95 28.1 20.1 28.2 20.15 28.25
L 19.8 28.25 19.8 28.05
M 30.8 30.95
Q 30.85 30.95 30.75 31.05 30.65 31.2 30.8 31.35 30.8 31.4 30.75 31.5 30.7 31.6 30.55 31.6 30.4 31.6 30.3 31.5 30.25 31.45 30.25 31.4
L 27.7 31.4
Q 27.55 31.35 27.5 31.25
L 27.5 31.2
Q 27 31 26.4 30.8 25.75 30.5 25.25 30.35 25.15 30.35 25.05 30.35 25.4 30.5 25.75 30.65 25.75 30.7 25.8 30.7
L 25.8 30.85
Q 25.8 31 25.65 31.1 25.55 31.15 25.45 31.2 25.5 31.2 25.5 31.25 25.45 31.4 25.2 31.4 25.05 31.35 24.9 31.3 24.95 31.25 25 31.25
L 25.1 31.2 25.1 30.95
Q 25 30.75 24.5 30.45 23.9 30.1 23.8 29.95
L 23.9 29.95
Q 24.65 30.2 24.8 30.1 25.05 29.9 25.7 29.85
L 25.7 29.9
Q 25.75 29.95 25.8 30 26.75 30.3 27.85 30.95
L 30.8 30.95
M 21.8 27.05
L 21.75 27
Q 22.2 27.05 22.45 27.1
L 22.6 27.1
Q 22.4 27.35 22.4 27.6
L 21.85 27.5
Q 22 27.4 21.95 27.3 21.95 27.15 21.8 27.05
M 21.75 28.6
L 21.65 28.55 21.65 28.45
Q 22.0365234375 28.594921875 22.25 28.6
L 21.75 28.6
M 47.8 52.55
Q 47.75 52.55 47.7 52.55 47.4 52.8 47.25 52.8 47.1 52.8 46.7 52.7 46.75 52.75 46.75 52.85 46.8 53 46.95 53.05 47.25 52.85 47.8 52.55
M 48.3 51.95
Q 48.4 52.05 48.4 52.15 48.7 52.15 49.2 51.8 49.65 51.5 49.95 51.5 49.95 51.55 50 51.6
L 50.05 51.55 50.05 51.25
Q 49 51.4 48.3 51.95
M 51.15 51.7
Q 51.05 51.5 51.1 51.15 50.75 51.15 50.45 51.2 50.7 51.35 51.1 51.65
L 51.15 51.7
M 52.05 51.95
L 52.05 51.9
Q 51.95 52 51.85 52.1 51.9953125 52.1484375 52.2 52.25 52.1 52.196875 52.1 52.15 52.05 52.1 52.05 51.95
M 55.9 50.55
Q 55.9 50.4 55.9 50.3 55.35 50.3 54.35 50.7 54.6 50.65 54.65 50.65 54.9 50.65 54.95 50.8 55 50.9 54.95 51.05 55.65 51.05 55.75 50.85 55.85 50.65 55.9 50.55
M 39.35 56.7
L 39.35 56.35
Q 39.3 56.4 39.25 56.4 39.3 56.55 39.35 56.7
M 58.9 49.4
Q 58.75 49.05 58.25 49.05 57.75 49.05 57 49.55 56.1779296875 50.0357421875 56.2 50.7 56.19296875 50.744140625 56.2 50.8 56.223828125 50.9693359375 56.3 51.15
L 56.3 51.35
Q 56.2 51.3 56.15 51.1 56.05 51.3 55.8 51.35 54.7 51.55 53.9 51.9 52.4 52.8 52.15 52.8 52.05 52.8 51.55 52.6 51.1 52.35 50.95 52.35 51 52.55 50.95 52.7 51 52.8 50.7 52.8 50.45 52.8 50.3 52.65 50.2 52.5 50.2 52.4 49.7 52.65 48.95 53 47.4 53.7 46.9 53.75 46.7 53.8 46.5 53.85 46.4 53.85 46.35 53.8 46.3 53.8 46.3 53.65 44.05 53 43.7 52.7
L 43.7 52.45 43.75 52.45
Q 43.8 52.4 43.95 52.4 44.25 52.4 44.6 52.6 45 52.75 45.1 52.75 45.25 52.75 45.65 52.65 45.9 52.55 46.05 52.55 45.85 52.45 45.65 52.4
L 44.45 52
Q 42.3 52.4 41.75 52.4 41.1 52.4 39.9 51.9 38.75 51.35 38.7 51.35 38.3 51.35 38.1 51.9 37.9 52.4 37.35 52.4 37.15 52.4 36.75 52 36.25 51.45 36.1 51.35 35.3 52.15 34.7 53.4 34.2 54.1 33 53.65
L 32.9 53.85 32.95 53.9
Q 33.1 54.05 33.2 54.15 33.35 54.2 33.85 54.3
L 33.85 54.7
Q 34.05 54.7 35.5 54.6
L 35.5 55.65 36 55.65
Q 36.35 55.5 38.85 54.9 39.15 54.85 39.4 54.75 39.55 54.65 39.65 54.5 39.85 54.25 39.75 53.85
L 39.85 53.85
Q 39.95 54 40.15 54.15 40.3 54.15 40.45 54.2
L 40.5 54.45
Q 40.5 54.5 40.55 54.5 40.65 54.5 40.8 54.45
L 40.8 54.5
Q 40.65 54.5 40.5 54.55 40.45 54.85 39.45 55.75 39.8 56.1 39.75 56.35
L 39.75 56.4
Q 40.35 56.05 40.7 56.05 40.95 56.05 40.95 56.1 41 56.25 41 56.7 42.15 56.8 42.5 56.9 42.7 56.95 42.9 57.1 42.7 57.25 42.65 57.25 42.6 57.3 42.4 57.3 42 57.25 41 57.2 40.5 57.15 40.6 56.55 40.5 56.6 40.3 56.75 40.15 56.9 39.8 56.9
L 39.4 56.85
Q 39.6 57.2 40.05 57.4 41.1 57.75 41.5 58.85 41.75 58.45 42.35 57.8 42.45 58 42.5 58.25 43.2 57.9 43.85 57.5 44.4 57.1 44.7 57.1 44.85 57.1 45.1 57.7 45.25 58.15 45.4 58.3 45.55 58.25 45.7 58.35 46.55 58.2 47.1 57.25 47.5 56.15 47.55 56.15 47.6 56.15 48.15 56.25 48.7 56.35 49.2 56.35 50.35 56.35 50.5 56.95 50.6 57.5 50.7 57.5 51 57.5 51.25 57.4 51.8 57.15 52.55 57 52.85 56.9 53.6 56.6 54.15 56.35 54.45 56.35 55 56.35 56.35 56.75 56.65 56.75 56.8 56.55 56.95 56.35 57 56.15 56.65 56.15 56.65 56.05 56.65 55.9 56.6 55.85
L 56 56.05 55.3 56.05
Q 55.25 56.05 55.25 55.8 55.25 55.75 55.8 55.6 56.3 55.4 56.65 55.4 56.9 55.4 56.95 55.55 57 55.65 57 55.7 58.45 55.7 59.15 55.4 59.5 55.2 59.65 55 59.7 55 59.75 55.05 59.85 55.05 59.85 55.25 59.85 55.65 59.15 55.9 58.5 56.15 57.35 56.15 57.5 56.3 57.75 56.35 57.85 56.35 58.2 56.35 58.6 56.35 59.4 55.9 60.3 55.4 60.35 54.8 60.35 54.9 60.75 55.4 61.1 55.95 61.2 56.05 61.5 55.9 61.85 55.2 62.15 54.6 62.35 54.6 62.5 54.6 62.75 54.7 63 54.75 63.3 54.95 63.95 55.3 64.3 55.4 65.3 55.4 66.75 55.55 68.85 55.45 67.95 52.8 68.8 52.8 70.1 51.75 71.3 50.75 71.3 50.45 71.3 50.2 71.05 49.55 71 49.35 70.95 49.2 70.85 48.75 70.85 48.45 69.7 48.55 69 48.5 67.7 48.35 67.55 47 67.65 46.9 67.55 46.85 67.5 46.8 67.2 46.8 66.85 46.8 64.9 47.95 63.4 48.8 62.65 49.55 62.7 49.55 62.75 49.55 63.15 49.75 63.35 50.55 63.95 49.9 64.4 49.5 64.2 49.4 64.2 49.2 64.3 49.15 64.85 49.05 65.05 49.05 65.3 49.05 66.15 48.95 66.45 48.95 67.45 48.95 67.55 49 67.7 49 67.75 49.2 67.75 49.35 67.55 49.5
L 67.1 49.5
Q 67.05 49.6 66.9 49.8 66.45 50.25 65.5 51.05 63.95 52.4 63.35 52.4 63.25 52.4 62.95 52.25 62.55 52 62.1 51.55 61.8 52.25 61.3 52.3 60.75 52.2 60.55 52.2 60.45 52.2 59.45 51.85 58.3 51.45 57.75 51.15 58.2 50.6 58.35 50.5 58.55 50.3 59 50.3 59.25 50.3 59.8 50.55 60.3 50.75 60.55 50.75 60.75 50.75 61.4 50.1 61.55 49.95 61.7 49.8 61.1 49.3 61.1 48.85 60.5 49.05 59.85 49.4 59.35 49.7 59.3 49.7 59.1 49.7 58.9 49.4
M 69 49.3
L 70.65 49.3 70.65 50.55
Q 70.55 50.65 70.35 50.75 70.15 50.85 70.05 50.95
L 68.35 50.95
Q 68.35 50.8 68.55 50.25
L 68.7 49.6
Q 68.95 49.35 69 49.3
M 61.55 37.2
Q 61.75 37.35 62.35 37.7
L 62.35 37.25
Q 61.95 37 61.7 37.05
L 61.55 37.2
M 63.8 38.05
Q 63.85 38 63.9 37.95 63.75 37.95 63.65 37.9 63.7 38 63.8 38.05
M 70.65 38.65
L 70.55 38.45
Q 69.9 38.65 69.8 38.65 69.2 38.65 68.35 37.95 67.5 37.2 67.1 37.2 66.55 37.2 65.85 37.65 65 38.3 64.4 38.65
L 64.4 38.25
Q 64 38.25 63.45 38.1 64.35 38.65 64.4 39.9
L 66.05 39.9 66.5 39.65
Q 66.7 39.5 67 39.5 67.05 39.5 68.25 40.35 68.45 40.45 68.55 40.5 69.95 40.35 70.65 38.65
M 43 36.8
Q 42.95 36.9 42.95 36.95 43.05 36.85 43.15 36.8 43.05 36.8 43 36.8
M 49.1 32.85
Q 48.9 32.75 48.9 33 48.85 33 48.8 33.05
L 48.8 33.1
Q 48.9 33.05 49.1 32.85
M 60.15 27.65
Q 59.55 27.65 57.65 29.5 55.7 31.4 55.55 31.4 55.4 31.4 54.75 31.1 54.1 30.75 53.8 30.75 53.3 30.75 52.8 31.25 52.25 31.85 52.35 32.85 52.1 32.45 51.2 32 50.7 31.7 50.7 30.35
L 49.65 30.35
Q 48.1 32.55 47.05 33.9 46.75 34.3 46.45 34.6 46.8 34.45 46.95 34.45 47.05 34.45 47.55 33.6 48.1 32.7 48.3 32.5 48.65 31.9 48.9 31.55 49.35 30.85 49.7 30.95 49.75 30.9 49.85 30.75 49.9 30.65 50.05 30.55 50.25 30.65 50.25 30.9 50.25 32.1 47.85 34.5 47.3 35.4 46.55 36.15 45.1 37.65 43.65 37.65
L 43.35 37.55
Q 43.3 37.65 43.3 37.4 43.3 37.3 43.6 37.1
L 43.75 37.05
Q 43.15 37 43 37.3 42.9 37.4 42.9 37.5 42.85 37.7 42.8 37.95 42.75 38.15 42.45 38.25 42.35 38.25 42.15 38.25 42 38.25 41.1 37.65 40.05 37 39.45 36.4 39.05 37.25 36.8 38.2 34.6 39.1 33.2 39.1 33.05 39.25 32.9 39.5 32.8 39.75 32.8 39.9 33 39.95 33.2 40.05 33.25 40.05 33.35 40.1 33.45 40 33.6 39.95 34.25 39.7 34.45 39.5
L 35.7 39.5
Q 35.7 39.95 36.1 40.9 36.45 41.85 36.75 42 37.4 42 37.7 41.6 37.85 41.4 38.05 41.3 38.25 41.15 38.5 41.15 38.8 41.15 39.45 41.4 40.15 41.6 40.4 41.6 40.9 41.6 41.75 41.15 42.55 40.75 42.9 40.75 43.15 40.75 43.5 40.95 43.85 41.15 44.1 41.15 44.45 41.15 44.65 41.1 44.85 41 44.95 40.8 45.1 40.3 45.2 40 45.5 38.9 47.6 38.9 47.65 38.9 47.75 38.9 47.8 38.9 48.65 39.1 49.65 39.3 50.25 39.3
L 50.25 40.35 50.7 40.15
Q 50.85 39.9 52.35 38.75 53.85 37.6 54.4 37.2
L 56.5 37.2 56.5 37.8
Q 56.9 37.75 57.5 37.75 58 37.75 60.8 36.75 63.35 36.05 63.35 37.25 63.35 37.4 63.55 37.45 63.7 37.45 63.95 37.4 64.25 37.4 64.5 37.1 64.65 36.9 64.85 36.6
L 65.1 36.6
Q 65.1 36.65 65.15 36.7 65.5 36.3 65.65 35.95 65.8 36.05 66.4 36.3 67 36.6 67.3 36.6 70.1 36.6 71.7 34.5 72.6 33.35 73.35 31.4
L 72.5 30.95 72.1 30.95 72.05 30.9 72 30.9 72.05 30.95
Q 72.1 31 72.1 31.15 72.1 31.3 72.05 31.35 71.95 31.35 71.9 31.4
L 70.95 31.4
Q 70.85 31.35 70.8 31.35 70.75 31.35 70.75 31.15 70.75 30.55 71.15 30.35 69.85 30.35 69.65 30.45 69.35 30.85 68.8 31.4
L 68.8 31.2
Q 68.95 30.6 70.05 29.75 70.9 29.05 71.45 28.6
L 71.4 28.55
Q 71.5 28.35 71.6 28.25
L 71.55 28.25
Q 71.15 28.05 70.65 27.85 70 28.45 69.6 28.8
L 69.6 27.85 67.1 27.85
Q 66.8 28.3 66.5 28.9 66.5 28.75 66.4 27.9 66.3 27.1 66.3 26.6 66.4 26.4 65.85 26.4 64.65 26.4 64.2 27.1 63.6 28.2 63.15 28.5 62.95 28.6 62.2 28.9 61.9 29 61.65 29.2 61.55 29.4 61.45 29.6
L 61.3 29.5 61.3 28.05
Q 61.1 28.05 60.75 27.85 60.4 27.65 60.15 27.65
M 58.8 29.95
Q 60.35 30.75 60.45 30.75 60.75 30.75 61.2 30.05 61.25 29.95 61.35 29.85 61.7 29.8 62.2 29.7 63.05 29.6 63.35 29.5
L 64.85 29.5
Q 64.4 29.9 63.8 30.25
L 63.35 30.55
Q 63.35 30.6 63.6 31.1 63.6 31.6 62.65 31.6 62.4 31.6 62.5 31.4 62.6 31.2 62.35 31.2 62.1 31.2 61.85 31.5 61.65 31.8 61.4 31.8 61.15 31.8 60.6 31.6 60.1 31.4 59.85 31.4 59.4 31.4 59.4 31.45 59.15 31.75 57.75 32.45
L 56.1 32.45 56.1 32
Q 57.65 30.95 58.15 30.4 58.45 30.1 58.8 29.95
M 47.75 16.4
Q 47.6 16.6 47.55 17.65 48.3 18.25 49.25 18.25 49.4 18.25 49.55 18.1 49.7 17.95 49.85 17.95 50.1 17.95 50.15 18.2 49.7 18.7 49.35 18.7 49.15 18.7 49 18.55 48.85 18.4 48.8 18.4
L 47.65 18.5
Q 47.55 18.6 47.6 19.15 46.55 19.45 46.15 19.75 45.9 19.9 45.6 20.3 45.3 20.75 45.1 21.05 44.75 21.65 44.35 21.85 42.9 22.6 41.9 23.35 40.65 24.3 40.15 24.65 40.05 24.6 40 24.55 39.95 24.55 39.95 24.4 39.95 24.0533203125 40.65 23.35 40.64296875 23.4 40.6 23.4 40.4 23.5 40.3 23.5
L 37.55 22.85
Q 37.3 22.85 36.7 23.05 36.05 23.25 35.8 23.25 34.55 23.25 33.3 22.9 33.75 23.1 34.15 23.4 35.1 24 37.5 24.15 39.7 24.3 39.95 24.6 39.7 24.85 39.05 24.85 38.45 24.85 38.35 24.8 38.25 24.8 38.2 24.65 36.45 24.5 35 24.15 33.75 23.8 33.75 23.65 33.75 23.55 33.45 23.3 33.1 23.05 32.95 23.05 30.95 23.05 30.6 23.65 30.5 23.75 30.35 24 30.2 24.2 29.7 24.2 29.55 24.2 29.5 24.2
L 29.45 24.15 29.45 23.45
Q 30.05 22.8 31.55 22.7 32.264453125 22.6552734375 32.8 22.75 32.634765625 22.723828125 32.45 22.65 31.1 22.05 31 22.05 30.25 22.05 28.6 23.7
L 28.6 24.3
Q 29.1 24.3 29.95 24.4 30.8 24.5 31 24.5 31.3 24.5 31.6 24.3 31.9 24.1 31.95 24.1 32.1 25.45 33.55 26.1 34.3 26.45 35.3 26.55 35.8 26.6 36.45 26.6 36.55 26.6 36.9 26.55 37.65 26.45 39.45 26 39.65 26 39.9 26 40.55 26.15 41.15 26.7 41.95 27.45 42.25 27.45 42.7 27.45 43.75 27.1 43.65 27.1 43.5 27.1 42.65 27.1 42.35 27 42.15 26.95 42.15 26.75
L 42.15 26.4
Q 42.3 26.35 43.6 26.45 43.8 26.45 44.4 26.25 45.05 26.05 45.7 26 46 25.5 46.75 25.25 46.95 25.35 46.95 25.55 46.95 25.85 46.95 25.9
L 47.4 25.9
Q 48.35 25.25 49.95 23.25 50.05 23.3 50.1 23.4 50.15 23.5 50.15 23.55 50.2 23.45 50.45 23.15 50.8 22.75 51 22.65 51.05 22.65 51.15 22.65 51.2 22.7 51.2 22.85 51.2 23.2 49.8 24.65 48.45 26 48.2 26 48.05 26 48.05 26.15 48.05 26.35 47.95 26.4
L 46.85 26.4
Q 46.65 26.35 46.55 26.15
L 46.5 26
Q 46.35 26 46.1 26.25 45.85 26.5 45.8 26.5 44.25 26.75 44.05 27
L 45.35 26.6
Q 45.4 26.6 46.7 26.9 47.95 27.25 48.5 27.25 48.6 27.25 48.85 26.8 49.1 26.3 49.2 25.75 50.3 25.8 50.85 25.25 51.4 24.75 50.9 24.1 51.75 23.8 52.05 23.25 52.15 22.7 52.15 22.65 52.15 22.4 51.95 22.25 51.7 22.1 51.7 21.8 51.7 21.4 52.35 20.6 52.95 19.8 52.95 18.5 51.85 18.25 51.2 17.5 50.8 17 50.7 16.4
L 47.75 16.4
M 47.35 17.9
Q 46.45 18.2 46 18.45 44.55 19.15 44.85 20.35 44.6359375 20.35 44.25 20.55 44.55 20.5560546875 44.55 20.8 45 20.7 45 20.4 44.95 20.1 44.95 20 44.95 19.45 45.55 19.15 46.05 18.9 47.05 18.75 47.2 18.15 47.35 17.9
M 31.35 10.5
Q 31.2 10.4 31.05 10.3 30.1 9.55 29.5 9.2 29.55 9.35 29.55 9.5 29.55 9.9 31.35 10.5
M 53.1 6.05
Q 53.2 6.1 53.3 6.15 54.2 6.75 55.05 6.25 54.25 7.15 52.9 8.1 52.55 8.35 52.25 8.55 50.95 9.4 50.15 9.4 49.6 9.4 48.8 8.95 47.95 8.55 47.75 8.55 47.2 8.8 46.55 9.1 45.25 9.7 44.45 9.8
L 44.45 8.75
Q 45.25 7.75 44.95 5.9 44.8 5.15 44.9 4.95 45.05 4.6 45.8 4.6 46.35 4.6 46.55 4.9 46.6 5 46.75 5.25 47.2 5.3 47.85 5.4 48.95 5.6 49.6 5.65 49.15 4.65 47.85 4.05 46.8 3.55 46.1 3.55 46.1 4.15 45.9 4.15 45.75 4 45.5 3.85 45.1 3.6 45.05 3.55 45.1 4.15 44.55 4.3 44.25 4.4 43.4 4.4
L 43.4 5.65
Q 43.2 5.4 41.75 5.4 41.75 7.5 41.5 8.25 41.15 9.45 40.25 9.6 39.55 9.65 38.6 9.15 38.6 9.9 38.6 10.15 38.55 10.55 38.4 10.85 36.9 10.85 35.15 11.05 34.2 11.15 33.7 11.2 35 11.55 35.7 11.6
L 36 11.95 35.8 12.1
Q 35.65 12.15 35 12.15 34.2 12.15 33.65 12 32.95 11.75 32.3 11.6 31.3 11.35 31.25 11.2 31.25 11.1 31.1 11.1 30.45 11.1 29.75 10.5 29.15 9.9 29.15 9.6 29.15 9.35 29.2 9.25 29.25 9.15 29.35 9.1 29 8.85 28.85 8.75 28.6 9.4 28.6 10.85 28 10.4 27.2 10 26.5 9.55 25.5 8.55
L 24.45 8.55
Q 24.45 8.95 24.9 10.15 25.2 11.15 25.3 11.65 25.2 11.65 25.05 11.45 24.85 11.25 24.55 11.25 24.3 11.25 24.1 11.35 24.05 11.35 24.05 11.4 23.95 11.5 23.85 11.55
L 23.85 11.85 25.9 11.85
Q 25.6 13 25.85 13.4 26.5 13.95 27.15 14.55 27.25 14.35 27.8 13.7 28.35 13.1 28.4 13.1 28.55 13.1 30.25 13.7 31.95 14.35 32.6 14.35 33.1 14.35 33.85 13.7
L 35.9 13.7
Q 35.9 13.75 36 14.2 36.1 14.6 36.1 14.95 37.95 13.4 39.95 13.25 40.55 13.2 41.65 13.15 42.4 13.15 43.05 13 43.45 13.25 43.55 13.5 43.65 13.7 43.6 13.9 43.9 13.85 44.7 13.6 45.4 13.35 45.5 13.3 45.7 13.5 45.7 13.9 46.8 13.9 47.55 12.25
L 47.75 12.1
Q 47.95 13.6 49.2 14 49.6 14.1 50.15 14.1 51.8 14.1 52.5 13.4 53.2 12.65 54.2 12.65
L 54.2 11.45 56.5 11.45
Q 55.9 10.35 55.9 10.2 56.3 10.2 57.95 10.4 58.35 9.9 59.2 9 59.5 8.7 59.6 8.35 59.6 8 59.5 7.85 59.2 7.05 57.95 7.5 57.35 7.15 57.25 6.35 57.15 5.45 56.7 5 56.05 6.05 54.8 6.15 53.7 6.05 53.1 6.05
M 40.7 10.6
Q 40.75 10.6 41.4 10.35 42 10 42.15 10 42.15 10.2 42.25 10.6 42.35 11.05 42.35 11.25
L 42.3 11.25
Q 41.9 11.25 40.65 11.5 39.1 11.85 38.4 11.85 38.85 11.4 39.45 10.45 39.75 10 40.3 10 40.55 10 40.5 10.3 40.45 10.6 40.7 10.6
M 69.8 11.65
Q 68.6 11.65 68.35 11.75 67.75 11.9 67.2 12.75 67.15 12.8 67.1 12.85 67 12.85 66.9 12.6 66.75 12.2 66.7 12.1 66.55 12.25 66.2 12.85 65.95 13.35 65.9 13.65
L 64.85 13.3 63.35 13.3
Q 63.3 14.1 63.15 14.45 62.85 14.95 61.7 14.95 61.45 14.95 61.55 14.65 61 15.1 60.2 15.45 59.25 15.9 58.9 16.1 58.75 16.1 58.75 16.05 58.7 16 58.7 15.85 58.7 15.45 59.9 14.9 60.9 14.45 61.5 14.35 61.45 14.35 61.4 14.35 60.85 14.35 59.85 14.7 59.05 15.05 57.95 15.7 55.55 17.05 54.4 17.05 54.65 17.4 54.75 17.75 54.8 17.85 54.8 17.95 54.8 18.05 54.85 18.1 54.85 18.15 54.85 18.2 54.85 18.25 54.9 18.3 54.9 18.55 54.9 18.8 54.9 18.85 54.9 18.9
L 55.25 18.9
Q 56.4 17.95 56.85 17.75 57 17.65 57.65 17.65
L 60.65 18.3
Q 61.55 18.3 62.35 17.65 63.2 17.05 63.35 17.05 63.4 17.05 64.35 17.35 65.35 17.65 65.65 17.65 66.2 17.1 67.05 16.8 67.6 16.6 68.05 16.6 69.65 16.6 69.8 14.55 69.85 14.35 70.1 13.8 70.2 13.5 70.4 13.15 70.9 12.3 71.05 11.85 70.9 11.8 70.7 11.75 70.1 11.65 69.8 11.65
M 69.2 13.3
Q 68.85 13.85 68.65 14.05 68.45 14.2 68.35 14.35
L 66.5 14.35
Q 66.7 14.1 66.75 13.7 66.9 13.35 67.95 12.85
L 67.3 12.85
Q 68.15 12.4 69.2 12.25
L 69.2 13.3 Z"/>

<path fill="#008100" stroke="none" d="
M 19 43.65
Q 18.85 43.45 18.3 43.45 18.15 43.45 18 43.65 17.6 43.9 17.6 44.05 17.6 44.1 17.6 44.15
L 17.6 44.2
Q 17.2 44.85 17.2 45.15 17.2 45.2 17.45 45.2
L 18 44.75
Q 18.55 44.25 18.7 44.1
L 20.4 44.7
Q 20.65 44.75 20.9 44.85 21.25 45 21.55 45.2 22.05 45.45 22.3 45.85 23.25 45.85 24.7 46.05 26.2 46.25 26.35 46.25 26.45 46.25 26.6 46.2 26.75 46.1 26.75 45.95 26.75 45.8 26.7 45.75
L 26.65 45.75
Q 25.95 45.75 25.6 45.6 25.1 45.4 22.55 45.25 22.4 45.1 22.2 44.75 22.05 44.35 21.85 44.2 19.2 43.95 19 43.65
M 30.1 45
Q 29.65 45.15 29.6 45.25 29.55 45.3 29.55 45.6 29.55 45.9 29.65 46.1 29.85 46.35 29.95 46.75 29.85 46.8 29.5 46.95 29.25 47.1 29.15 47.25
L 29.2 47.35
Q 31 47.45 31.8 47.6 31.95 47.6 32 47.55 32.05 47.4 32.05 47.35 31.8 47.05 31.2 46.95 30.6 46.95 30.45 46.95 30.55 46.85 30.6 46.85 30.7 46.75 30.7 46.6 30.7 46.25 30.6 45.85 30.4 45.2 30.1 45
M 20.5 29.3
Q 20.55 29.3 20.65 29.35 20.85 29.4 21.1 29.45 21.4 29.5 21.7 29.5 21.9 29.55 22.15 29.5 22.25 29.9 22.9 30.45 23 30.4 23.05 30.4 22.7 30.2 22.7 30.15 22.7 29.7 23 29.6 23 29.5 22.5 29.5
L 21.95 29.35
Q 21.45 29.15 21.3 29.15 21.2 29.15 20.5 29.3
M 31.25 28.65
Q 31.35 28.7 31.85 28.7 31.9 28.7 31.95 28.7
L 31.9 28.75
Q 31.85 28.85 31.85 28.9 31.85 29.2 32.05 29.3
L 33 29.3
Q 34.2 29 34.65 28.8 34.55 28.6 34.25 28.6 34.1 28.6 33.65 28.75 33.15 28.85 33.1 28.85
L 32.25 28.85
Q 32.3 28.7 32.15 28.5 31.75 27.8 30.5 27.65 29.25 27.65 29.15 27.65 28.6 27.7 27.15 27.75 26.95 27.8 26.95 28
L 26 28
Q 25.9 27.65 24.15 27.35 24.15 27.25 24.1 27.2 24 26.65 23.9 26.3 23.55 26.45 23.15 26.55 23.1 26.55 23.05 26.6 23.1 26.3 23.2 25.9 23.3 25.55 23 25.55 22.75 25.55 23 25.75 23.3 26 23 26 22.85 26 22.8 25.9 22.8 26.2 22.6 26.6 22.65 26.65 22.95 26.9 23.1 27 23.1 27.15 23.1 27.35 22.8 27.6 23.05 27.7 25.95 28.25 27.2 28.45 28 28.65
L 28 28.6
Q 27.8 28.35 27.8 28.3 28 28.25 28.1 28.2
L 29.15 28.1
Q 29.35 28.1 29.65 28.2 29.85 28.25 30.2 28.35 30.9 28.55 31.25 28.65
M 21.65 28.55
L 21.75 28.6 22.25 28.6
Q 22.0365234375 28.594921875 21.65 28.45
L 21.65 28.55
M 21.75 27
L 21.8 27.05
Q 21.95 27.15 21.95 27.3 22 27.4 21.85 27.5
L 22.4 27.6
Q 22.4 27.35 22.6 27.1
L 22.45 27.1
Q 22.2 27.05 21.75 27
M 30.75 31.05
Q 30.85 30.95 30.8 30.95
L 27.85 30.95
Q 26.75 30.3 25.8 30 25.75 29.95 25.7 29.9
L 25.7 29.85
Q 25.05 29.9 24.8 30.1 24.65 30.2 23.9 29.95
L 23.8 29.95
Q 23.9 30.1 24.5 30.45 25 30.75 25.1 30.95
L 25.1 31.2 25 31.25
Q 24.95 31.25 24.9 31.3 25.05 31.35 25.2 31.4 25.45 31.4 25.5 31.25 25.5 31.2 25.45 31.2 25.55 31.15 25.65 31.1 25.8 31 25.8 30.85
L 25.8 30.7
Q 25.75 30.7 25.75 30.65 25.4 30.5 25.05 30.35 25.15 30.35 25.25 30.35 25.75 30.5 26.4 30.8 27 31 27.5 31.2
L 27.5 31.25
Q 27.55 31.35 27.7 31.4
L 30.25 31.4
Q 30.25 31.45 30.3 31.5 30.4 31.6 30.55 31.6 30.7 31.6 30.75 31.5 30.8 31.4 30.8 31.35 30.65 31.2 30.75 31.05
M 19.95 28.1
Q 19.85 28.05 19.8 28.05
L 19.8 28.25 20.15 28.25
Q 20.1 28.2 19.95 28.1
M 19.55 27.35
L 19.5 27.4
Q 19.55 27.45 19.55 27.5 19.7 27.55 20.1 27.75 20.7 27.95 20.95 28.1
L 21.15 28.1
Q 20.8 27.85 20.2 27.6 19.65 27.35 19.55 27.35
M 18 23.95
Q 17.85 23.5 17.6 23.25 17.580078125 24.2 17.2 25.15
L 17.2 27 17.4 27 17.4 26.65
Q 17.4 26.6 17.5 26.6 17.55 26.35 17.55 26.1 17.6 26 17.6 25.9 17.5 25.65 17.5 25.25 17.5 24.85 18.25 25.45 19.35 26.35 20.3 26.35
L 21.95 26.35
Q 22.1 26.25 22.3 25.9 22.45 25.65 22.6 25.55 22.7 25.6 22.75 25.65 22.7966796875 25.65 22.8 25.75 22.8 25.69375 22.8 25.65 23 25.25 23 25.15 21.75 25.15 20.5 24.75 19.3 24.3 18.3 24.3 18.15 24.3 18 23.95
M 64.85 49.05
Q 64.3 49.15 64.2 49.2 64.2 49.4 64.4 49.5 63.95 49.9 63.35 50.55 63.15 49.75 62.75 49.55 62.7 49.55 62.65 49.55 62.3 49.85 62.1 50.1 61.9 49.95 61.7 49.8 61.55 49.95 61.4 50.1 60.75 50.75 60.55 50.75 60.3 50.75 59.8 50.55 59.25 50.3 59 50.3 58.55 50.3 58.35 50.5 58.2 50.6 57.75 51.15 58.3 51.45 59.45 51.85 60.45 52.2 60.55 52.2 60.75 52.2 61.3 52.3 61.8 52.25 62.1 51.55 62.55 52 62.95 52.25 63.25 52.4 63.35 52.4 63.95 52.4 65.5 51.05 66.45 50.25 66.9 49.8 67.05 49.6 67.1 49.5
L 67.55 49.5
Q 67.75 49.35 67.75 49.2 67.7 49 67.55 49 67.45 48.95 66.45 48.95 66.15 48.95 65.3 49.05 65.05 49.05 64.85 49.05
M 70.65 49.3
L 69 49.3
Q 68.95 49.35 68.7 49.6
L 68.55 50.25
Q 68.35 50.8 68.35 50.95
L 70.05 50.95
Q 70.15 50.85 70.35 50.75 70.55 50.65 70.65 50.55
L 70.65 49.3
M 73.15 27.45
Q 71.95 27.45 70.95 27.5
L 70.9 27.55
Q 70.8 27.7 70.65 27.85 71.15 28.05 71.55 28.25
L 71.6 28.25
Q 71.5 28.35 71.4 28.55
L 71.45 28.6
Q 70.9 29.05 70.05 29.75 68.95 30.6 68.8 31.2
L 68.8 31.4
Q 69.35 30.85 69.65 30.45 69.85 30.35 71.15 30.35 70.75 30.55 70.75 31.15 70.75 31.35 70.8 31.35 70.85 31.35 70.95 31.4
L 71.9 31.4
Q 71.95 31.35 72.05 31.35 72.1 31.3 72.1 31.15 72.1 31 72.05 30.95
L 72 30.9 72.05 30.9 72.1 30.95 72.5 30.95 72.75 30.95 72.75 30.9 72.95 30.85
Q 73.05 30.85 73.15 30.6 72.95 30.55 72.75 30.45
L 72.75 29.1 74 29.1
Q 74 27.85 74.2 27.45 73.65 27.45 73.15 27.45
M 60.45 30.75
Q 60.35 30.75 58.8 29.95 58.45 30.1 58.15 30.4 57.65 30.95 56.1 32
L 56.1 32.45 57.75 32.45
Q 59.15 31.75 59.4 31.45 59.4 31.4 59.85 31.4 60.1 31.4 60.6 31.6 61.15 31.8 61.4 31.8 61.65 31.8 61.85 31.5 62.1 31.2 62.35 31.2 62.6 31.2 62.5 31.4 62.4 31.6 62.65 31.6 63.6 31.6 63.6 31.1 63.35 30.6 63.35 30.55
L 63.8 30.25
Q 64.4 29.9 64.85 29.5
L 63.35 29.5
Q 63.05 29.6 62.2 29.7 61.7 29.8 61.35 29.85 61.25 29.95 61.2 30.05 60.75 30.75 60.45 30.75
M 29.45 23.45
L 29.45 24.15 29.5 24.2
Q 29.55 24.2 29.7 24.2 30.2 24.2 30.35 24 30.5 23.75 30.6 23.65 30.95 23.05 32.95 23.05 33.1 23.05 33.45 23.3 33.75 23.55 33.75 23.65 33.75 23.8 35 24.15 36.45 24.5 38.2 24.65 38.25 24.8 38.35 24.8 38.45 24.85 39.05 24.85 39.7 24.85 39.95 24.6 39.7 24.3 37.5 24.15 35.1 24 34.15 23.4 33.75 23.1 33.3 22.9 33.1 22.85 32.95 22.8 32.8859375 22.783984375 32.8 22.75 32.264453125 22.6552734375 31.55 22.7 30.05 22.8 29.45 23.45
M 50.45 23.15
Q 50.2 23.45 50.15 23.55 50.15 23.5 50.1 23.4 50.05 23.3 49.95 23.25 48.35 25.25 47.4 25.9
L 46.95 25.9
Q 46.95 25.85 46.95 25.55 46.95 25.35 46.75 25.25 46 25.5 45.7 26 45.05 26.05 44.4 26.25 43.8 26.45 43.6 26.45 42.3 26.35 42.15 26.4
L 42.15 26.75
Q 42.15 26.95 42.35 27 42.65 27.1 43.5 27.1 43.65 27.1 43.75 27.1 43.9 27.05 44.05 27 44.25 26.75 45.8 26.5 45.85 26.5 46.1 26.25 46.35 26 46.5 26
L 46.55 26.15
Q 46.65 26.35 46.85 26.4
L 47.95 26.4
Q 48.05 26.35 48.05 26.15 48.05 26 48.2 26 48.45 26 49.8 24.65 51.2 23.2 51.2 22.85 51.2 22.7 51.15 22.65 51.05 22.65 51 22.65 50.8 22.75 50.45 23.15
M 33.7 11.2
Q 33.05 11.05 32.25 10.8 31.75 10.65 31.35 10.5 29.55 9.9 29.55 9.5 29.55 9.35 29.5 9.2 29.5 9.1 29.45 9 29.4 9.05 29.35 9.1 29.25 9.15 29.2 9.25 29.15 9.35 29.15 9.6 29.15 9.9 29.75 10.5 30.45 11.1 31.1 11.1 31.25 11.1 31.25 11.2 31.3 11.35 32.3 11.6 32.95 11.75 33.65 12 34.2 12.15 35 12.15 35.65 12.15 35.8 12.1
L 36 11.95 35.7 11.6
Q 35 11.55 33.7 11.2
M 41.4 10.35
Q 40.75 10.6 40.7 10.6 40.45 10.6 40.5 10.3 40.55 10 40.3 10 39.75 10 39.45 10.45 38.85 11.4 38.4 11.85 39.1 11.85 40.65 11.5 41.9 11.25 42.3 11.25
L 42.35 11.25
Q 42.35 11.05 42.25 10.6 42.15 10.2 42.15 10 42 10 41.4 10.35
M 53.3 6.15
Q 53.2 6.1 53.1 6.05 52.9 6.05 52.75 6.05 52.75 5.95 52.75 5.85 51.95 5.4 51.5 5.4 51.2 5.4 50.95 5.45 50.4 5.75 49.9 5.8 49.6615234375 6.0861328125 49.65 6.6
L 49.65 5.85
Q 49.6 5.75 49.6 5.65 48.95 5.6 47.85 5.4 47.2 5.3 46.75 5.25 46.6 5 46.55 4.9 46.35 4.6 45.8 4.6 45.05 4.6 44.9 4.95 44.8 5.15 44.95 5.9 45.25 7.75 44.45 8.75
L 44.45 9.8
Q 45.25 9.7 46.55 9.1 47.2 8.8 47.75 8.55 47.95 8.55 48.8 8.95 49.6 9.4 50.15 9.4 50.95 9.4 52.25 8.55 52.55 8.35 52.9 8.1 54.25 7.15 55.05 6.25 54.2 6.75 53.3 6.15
M 61.55 14.65
Q 61.65 14.6 61.7 14.55 61.65 14.4 61.5 14.35 60.9 14.45 59.9 14.9 58.7 15.45 58.7 15.85 58.7 16 58.75 16.05 58.75 16.1 58.9 16.1 59.25 15.9 60.2 15.45 61 15.1 61.55 14.65
M 68.65 14.05
Q 68.85 13.85 69.2 13.3
L 69.2 12.25
Q 68.15 12.4 67.3 12.85
L 67.95 12.85
Q 66.9 13.35 66.75 13.7 66.7 14.1 66.5 14.35
L 68.35 14.35
Q 68.45 14.2 68.65 14.05 Z"/>

<path fill="#004300" stroke="none" d="
M 19.25 45.95
L 18.85 45.95
Q 18.45 46.25 17.85 47.1 17.5 47.65 16.95 47.6
L 16.95 46.35 16.95 46.15
Q 16.9 46.2 16.85 46.2 16.6 46.2 16.4 46.1 16.25 46.1 15.9 46.25 15.75 46.3 15.6 46.4 15.95 47.2 15.95 47.4 15.95 47.45 15.9 47.8 15.75 48.2 15.3 48.45
L 15.3 49.7
Q 19.4 50.35 23.2 52.8
L 23.25 52.8
Q 24.15 52.5 25.85 52.2 27.4 52 28.6 51.35 29.7 50.8 30.8 50.55 31 50.55 31.25 50.55 32.35 50.55 32.45 50.5 32.6 50.45 32.75 50.4
L 32.8 50.4
Q 33.8 50.05 34.45 49.9 34.45 50.05 34.45 50.1 34.55 50.2 34.75 50.2 34.9 50.2 35.25 50.05 35.4 49.95 35.5 49.9 35.7 49.8 35.8 49.75 35.85 49.85 35.8 50.1
L 35.8 50.15
Q 35.8 50.3 36 50.45 36.35 50.3 36.4 49.9 36.45 49.5 36.75 49.4 36.95 49.45 37.05 49.5 37.2 49.55 37.3 49.6 37.4 49.7 37.75 49.7 37.75 49.85 37.7 50.2 37.7 50.4 37.9 50.5 37.95 50.5 38.05 50.55
L 38.2 50.5
Q 38.3 50.3 38.3 49.8 38.3 49.7 38.3 49.65 39.05 49.55 39.2 49.45
L 39.15 49.5
Q 39.15 49.55 39.15 49.9 39.2 50 39.3 50.05 39.5 50.2 40 50.2
L 40.05 50.2
Q 40.2 50.2 40.3 50.2 40.3 50.15 40.5 50
L 40.15 49.8
Q 40.1 49.8 40.05 49.8 39.95 49.75 39.75 49.7 39.85 49.6 39.9 49.55 39.95 49.45 39.95 49.3 39.95 49.1 39.85 49.05 39.8 49 39.75 48.95
L 38.9 48.95
Q 38.8 48.95 38.7 49.1
L 37.95 49.15
Q 36.65 48.95 36.2 48.95 35.55 48.95 34.55 49.05 33.55 49.25 32.8 49.4 32.8 49.2 32.8 48.95 32.4 49 31.95 49.15 31.4 49.3 30.7 49.5 27.75 50.3 26.95 50.3 26.9 50.3 26.85 50.3 26.55 50.25 26 49.7 25.4 49.05 25.3 49.05 24.75 49.05 23.85 49.3 23.85 48.8 23.75 48.2 23.65 47.65 23.65 47.6
L 23.4 47.6
Q 23.25 47.95 23.15 48.55 23 49.1 22.4 49.7
L 21.15 49.7 21.15 48.05 20.1 49.05
Q 19.7 47.95 19.55 47.4 19.55 47.3 19.25 45.95
M 36.1 49.15
Q 36.2 49.1 36.2 49.15 36.2 49.2 35.85 49.2
L 36.1 49.15
M 36.1 28
Q 37.8 28.3 37.8 30.05 37.8 30.9 36.45 31.4 35.5 31.75 34.45 31.8 33.95 31.85 32.7 32.75 31.5 33.7 31 33.7 30.8 33.7 30.5 33.5 29.95 33.2 29.45 32.45 28.65 33.2 27.4 33.25 26.85 33.25 26.4 32.45 25.85 31.6 24.9 31.4 23.75 31.15 22.9 30.45 22.25 30.6 21.3 30.6 21.2 30.55 21.15 30.55 21.2 30.6 21.25 30.65 22.3 31.7 23 32.1 23.75 32.55 24.9 32.85 25.25 33.4 25.5 34.5 26 35.35 27.8 35.35 28.1 35.35 28.35 35.1 28.6 34.7 28.85 34.5 29.3 34.95 29.75 35.3 30.6 35.85 31.45 36.2 32.35 36.6 32.7 36.6 33.2 36.6 34.1 35.95 35.15 35.15 35.9 33.9 36.3 33.25 37.7 32.2 38.8 31.35 38.8 30.45 38.8 29.9 37.35 28.25 35.9 26.6 35.3 26.6 35.15 26.6 34.55 27.05 34.2 27.35 33.9 27.55 34.05 27.6 34.2 27.65 34.4 27.75 34.65 27.75 35.15 27.85 36.1 28
M 56 50.45
Q 55.95 50.45 55.9 50.55 55.85 50.65 55.75 50.85 55.65 51.05 54.95 51.05 55 50.9 54.95 50.8 54.9 50.65 54.65 50.65 54.6 50.65 54.35 50.7
L 54.15 50.8
Q 53.8 50.9 53.3 51.15 52.1 51.65 52.05 51.9
L 52.05 51.95
Q 52.05 52.1 52.1 52.15 52.1 52.196875 52.2 52.25 51.9953125 52.1484375 51.85 52.1 51.5 51.9 51.15 51.7
L 51.1 51.65
Q 50.7 51.35 50.45 51.2 50.35 51.1 50.25 51.05
L 50.05 51.15 50.05 51.25 50.05 51.55 50 51.6
Q 49.95 51.55 49.95 51.5 49.65 51.5 49.2 51.8 48.7 52.15 48.4 52.15 48.4 52.05 48.3 51.95 48.2 51.9 48.1 51.8 47.7 52.15 47.65 52.45 47.7 52.5 47.7 52.55 47.75 52.55 47.8 52.55 47.25 52.85 46.95 53.05 46.8 53 46.75 52.85 46.75 52.75 46.7 52.7 46.5 52.5 46.15 52.5 46.1 52.5 46.05 52.55 45.9 52.55 45.65 52.65 45.25 52.75 45.1 52.75 45 52.75 44.6 52.6 44.25 52.4 43.95 52.4 43.8 52.4 43.75 52.45
L 43.7 52.45 43.7 52.7
Q 44.05 53 46.3 53.65 46.3 53.8 46.35 53.8 46.4 53.85 46.5 53.85 46.7 53.8 46.9 53.75 47.4 53.7 48.95 53 49.7 52.65 50.2 52.4 50.2 52.5 50.3 52.65 50.45 52.8 50.7 52.8 51 52.8 50.95 52.7 51 52.55 50.95 52.35 51.1 52.35 51.55 52.6 52.05 52.8 52.15 52.8 52.4 52.8 53.9 51.9 54.7 51.55 55.8 51.35 56.05 51.3 56.15 51.1 56.2 50.95 56.2 50.8 56.19296875 50.744140625 56.2 50.7 56.1595703125 50.48984375 56 50.45
M 36 55.65
L 35.5 55.65 35.5 54.6
Q 34.05 54.7 33.85 54.7
L 33.85 54.3
Q 33.35 54.2 33.2 54.15 33.1 54.05 32.95 53.9
L 32.9 53.85 32.8 54.05 32.8 56.35
Q 33 56.35 33.85 55.95 34.9 58.35 35 59.85 35.1 60.1 35.55 60.15 35.85 60.15 37.25 60.1 37.3 60.1 38.3 60.05 39.35 59.95 39.65 59.5 39.9 59.55 40.25 59.85 40.45 60.05 40.6 60.2 41 60.65 41.1 60.75 42.3 59.9 43.1 59.4
L 43.15 59.35
Q 43.35 59.25 43.55 59.1
L 43.6 59.1
Q 43.65 59.05 43.7 59.05 44 59.05 44.4 59.25 44.8 59.5 45.05 59.5 45.75 59.5 47.95 58.25 49.5 58.25 50.7 58.85 51.9 59.5 53.05 59.5 53.7 59.5 56.4 58.45 58.2 59.25 58.25 59.25 59.4 59.25 59.85 59.05 60.4 58.75 61.3 58.65 62.4 58.55 62.6 57.4 62.7 56.05 62.95 55.5 63.45 55.4 64.3 55.4 63.95 55.3 63.3 54.95 63 54.75 62.75 54.7 62.5 54.6 62.35 54.6 62.15 54.6 61.85 55.2 61.5 55.9 61.2 56.05 61.1 55.95 60.75 55.4 60.35 54.9 60.35 54.8 60.3 55.4 59.4 55.9 58.6 56.35 58.2 56.35 57.85 56.35 57.75 56.35 57.5 56.3 57.35 56.15 58.5 56.15 59.15 55.9 59.85 55.65 59.85 55.25 59.85 55.05 59.75 55.05 59.7 55 59.65 55 59.5 55.2 59.15 55.4 58.45 55.7 57 55.7 57 55.65 56.95 55.55 56.9 55.4 56.65 55.4 56.3 55.4 55.8 55.6 55.25 55.75 55.25 55.8 55.25 56.05 55.3 56.05
L 56 56.05 56.6 55.85
Q 56.65 55.9 56.65 56.05 56.65 56.15 57 56.15 56.95 56.35 56.8 56.55 56.65 56.75 56.35 56.75 55 56.35 54.45 56.35 54.15 56.35 53.6 56.6 52.85 56.9 52.55 57 51.8 57.15 51.25 57.4 51 57.5 50.7 57.5 50.6 57.5 50.5 56.95 50.35 56.35 49.2 56.35 48.7 56.35 48.15 56.25 47.6 56.15 47.55 56.15 47.5 56.15 47.1 57.25 46.55 58.2 45.7 58.35 45.6 58.35 45.5 58.35 45.45 58.35 45.4 58.3 45.25 58.15 45.1 57.7 44.85 57.1 44.7 57.1 44.4 57.1 43.85 57.5 43.2 57.9 42.5 58.25 42.45 58 42.35 57.8 41.75 58.45 41.5 58.85 41.1 57.75 40.05 57.4 39.6 57.2 39.4 56.85
L 39.8 56.9
Q 40.15 56.9 40.3 56.75 40.5 56.6 40.6 56.55 40.5 57.15 41 57.2 42 57.25 42.4 57.3 42.6 57.3 42.65 57.25 42.7 57.25 42.9 57.1 42.7 56.95 42.5 56.9 42.15 56.8 41 56.7 41 56.25 40.95 56.1 40.95 56.05 40.7 56.05 40.35 56.05 39.75 56.4
L 39.75 56.35
Q 39.8 56.1 39.45 55.75 40.45 54.85 40.5 54.55 40.65 54.5 40.8 54.5
L 40.8 54.45
Q 40.65 54.5 40.55 54.5 40.5 54.5 40.5 54.45
L 40.45 54.2
Q 40.3 54.15 40.15 54.15 39.95 54 39.85 53.85
L 39.75 53.85
Q 39.85 54.25 39.65 54.5 39.55 54.65 39.4 54.75 39.15 54.85 38.85 54.9 36.35 55.5 36 55.65
M 39.35 56.35
L 39.35 56.7
Q 39.3 56.55 39.25 56.4 39.3 56.4 39.35 56.35
M 74.2 26.5
Q 73.9 26.8 73.55 26.8 73.1 26.8 73 26.75 72.9 26.6 72.75 25.75 72.65 25.85 70.95 27.5 71.95 27.45 73.15 27.45 73.65 27.45 74.2 27.45 74 27.85 74 29.1
L 72.75 29.1 72.75 30.45
Q 72.95 30.55 73.15 30.6 73.05 30.85 72.95 30.85
L 72.75 30.9 72.75 30.95 72.5 30.95 73.35 31.4
Q 74.3 30.9 75.15 29.4 75.85 28.1 75.85 27.45 75.85 26.55 75.8 26.5 75.6 26.35 75.25 25.75 74.75 26 74.2 26.5
M 57.5 37.75
Q 56.9 37.75 56.5 37.8 56.25 37.8 56.05 37.9 55.45 38.05 55.45 38.35 55.45 38.6 55.55 38.5
L 56.85 39.1
Q 57.15 39.1 58 38.7 58.4 38.5 59 38.2
L 59.1 38.2
Q 59.8 38.25 60.5 38.2 61 38.15 62.35 38.05 62.45 38 62.55 37.85 62.45 37.8 62.35 37.7 61.75 37.35 61.55 37.2
L 61.7 37.05
Q 61.95 37 62.35 37.25 62.5 37.3 62.7 37.45 63.2 37.8 63.65 37.9 63.75 37.95 63.9 37.95 64.1 37.95 64.6 37.5 65.15 37.05 65.15 36.8 65.15 36.75 65.15 36.7 65.1 36.65 65.1 36.6
L 64.85 36.6
Q 64.65 36.9 64.5 37.1 64.25 37.4 63.95 37.4 63.7 37.45 63.55 37.45 63.35 37.4 63.35 37.25 63.35 36.05 60.8 36.75 58 37.75 57.5 37.75
M 50.3 41.7
Q 48.1 42.6 46.6 42.6 46.4 42.6 45.75 42.2 45.2 41.8 45.15 41.8 42.3 42.85 42.05 42.85 41.4 42.85 39.6 42.05 38.8 41.7 38.05 41.3 37.85 41.4 37.7 41.6 37.4 42 36.75 42 36.45 41.85 36.1 40.9 35.7 39.95 35.7 39.5
L 34.45 39.5
Q 34.25 39.7 33.6 39.95 33.45 40 33.35 40.1 33.4 40.15 33.45 40.15 33.9 40.45 34 41.1 34.1 41.6 34.05 42.4 36.35 42.45 37.7 43 39.45 43.7 39.85 45.35 39.9 45.35 40.3 45.1 40.7 44.9 41 44.9 41.05 44.9 42 45.35 43.1 45.75 43.5 45.75 43.65 45.75 46 44.9 48.35 44.1 48.5 44.1
L 52.25 44.9
Q 53.5 44.9 55.55 44.25 57.9 43.5 58.4 42.6 58.65 42.7 61.8 43.7 62 43.75 62.2 43.8
L 62.25 43.8
Q 64.5 44.5 65.05 44.5 65.3 44.5 65.7 44.3 66.15 44.1 66.4 44.1 68.05 44.1 68.85 44.7 68.95 44.8 69.05 44.85 69.65 45.35 70.35 45.35 71.4 45.35 73.2 43.15 75.2 40.75 75.25 38.65
L 73.55 38.65
Q 73.4 38.85 73.25 39.1 73.153125 39.3421875 73.15 39.5
L 73.15 37.85
Q 72.3 37.85 71.1 38.25 70.8 38.35 70.55 38.45
L 70.65 38.65
Q 69.95 40.35 68.55 40.5 69.390625 40.8955078125 69.4 40.4 69.40234375 40.74609375 69.55 40.5 69.646875 40.3546875 69.4 40.35 70.6009765625 40.3486328125 70.75 40.15 71.15 39.55 72.1 39.1
L 72.1 40.15
Q 70.8 43.05 69.9 43.05 69.7 43.05 69.1 42.6 68.45 42.2 68.35 42.2
L 66.4 42.85
Q 66.15 42.85 62.7 41.8 59.2 40.75 54.55 40.75 52.75 40.75 50.7 41.55 50.5 41.65 50.3 41.7
M 50.25 30.9
Q 50.25 30.65 50.05 30.55 49.9 30.65 49.85 30.75 49.75 30.9 49.7 30.95 49.35 30.85 48.9 31.55 48.65 31.9 48.3 32.5 48.1 32.7 47.55 33.6 47.05 34.45 46.95 34.45 46.8 34.45 46.45 34.6 45.9 34.85 44.85 35.5 43.8 36.15 43.15 36.8 43.05 36.85 42.95 36.95 42.55 37.35 42.35 37.7 42.4 37.8 42.55 37.85 42.65 37.8 42.9 37.5 42.9 37.4 43 37.3 43.15 37 43.75 37.05
L 43.6 37.1
Q 43.3 37.3 43.3 37.4 43.3 37.65 43.35 37.55
L 43.65 37.65
Q 45.1 37.65 46.55 36.15 47.3 35.4 47.85 34.5 50.25 32.1 50.25 30.9
M 48.9 33
Q 48.9 32.75 49.1 32.85 48.9 33.05 48.8 33.1
L 48.8 33.05
Q 48.85 33 48.9 33
M 47.55 17.65
Q 47.45 17.55 47.35 17.9 47.2 18.15 47.05 18.75 46.05 18.9 45.55 19.15 44.95 19.45 44.95 20 44.95 20.1 45 20.4 45 20.7 44.55 20.8 44.55 20.5560546875 44.25 20.55
L 44.25 20.55
Q 44.2123046875 20.55 43.8 20.8 43.659375 20.9326171875 43.5 21.05 43 21.45 42.1 22.15 41.2 22.85 40.7 23.35
L 40.65 23.35
Q 39.95 24.0533203125 39.95 24.4 39.95 24.55 40 24.55 40.05 24.6 40.15 24.65 40.65 24.3 41.9 23.35 42.9 22.6 44.35 21.85 44.75 21.65 45.1 21.05 45.3 20.75 45.6 20.3 45.9 19.9 46.15 19.75 46.55 19.45 47.6 19.15 47.55 18.6 47.65 18.5
L 48.8 18.4
Q 48.85 18.4 49 18.55 49.15 18.7 49.35 18.7 49.7 18.7 50.15 18.2 50.1 17.95 49.85 17.95 49.7 17.95 49.55 18.1 49.4 18.25 49.25 18.25 48.3 18.25 47.55 17.65
M 59.6 8.35
Q 59.5 8.7 59.2 9 58.35 9.9 57.95 10.4 56.3 10.2 55.9 10.2 55.9 10.35 56.5 11.45
L 54.2 11.45 54.2 12.65
Q 53.2 12.65 52.5 13.4 51.8 14.1 50.15 14.1 49.6 14.1 49.2 14 47.95 13.6 47.75 12.1
L 47.55 12.25
Q 46.8 13.9 45.7 13.9 45.7 13.5 45.5 13.3 45.4 13.35 44.7 13.6 43.9 13.85 43.6 13.9 43.65 13.7 43.55 13.5 43.45 13.25 43.05 13 42.4 13.15 41.65 13.15 40.55 13.2 39.95 13.25 37.95 13.4 36.1 14.95 36.1 14.6 36 14.2 35.9 13.75 35.9 13.7
L 33.85 13.7
Q 33.1 14.35 32.6 14.35 31.95 14.35 30.25 13.7 28.55 13.1 28.4 13.1 28.35 13.1 27.8 13.7 27.25 14.35 27.15 14.55 26.5 13.95 25.85 13.4 25.6 13 25.9 11.85
L 23.85 11.85 23.85 13.5
Q 24.9 15.1 28.75 16.55 32.25 17.85 34.35 17.85 34.6 17.85 35.4 17.75 35.95 17.7 36.3 17.7 36.45 17.65 36.55 17.65 36.6 18.4 37.9 19.1 39.1 19.75 39.95 19.75 40.3 19.75 40.7 19.45 41.1 19.2 41.6 18.6 42.6 17.45 43.7 17.45 44.65 17.45 46.35 16.6 48.05 15.8 48.3 15.8 48.45 15.8 48.65 15.85 48.85 15.9 49 16 49.4 16.2 49.95 16.2 51.1 16.2 52.45 15.85 53.9 15.55 55.55 14.85 57.25 14.15 59.2 13.3
L 59.2 12.25
Q 59.1 12.15 59 12 59 11.95 59 11.85
L 58.6 11.85
Q 59.35 11.5 59.55 10.35 59.65 9.75 59.65 9.15 59.65 8.65 59.6 8.35
M 71.5 11.85
Q 71.35 11.85 71.05 11.85 70.9 12.3 70.4 13.15 70.2 13.5 70.1 13.8 69.85 14.35 69.8 14.55 69.65 16.6 68.05 16.6 67.6 16.6 67.05 16.8 66.2 17.1 65.65 17.65 65.35 17.65 64.35 17.35 63.4 17.05 63.35 17.05 63.2 17.05 62.35 17.65 61.55 18.3 60.65 18.3
L 57.65 17.65
Q 57 17.65 56.85 17.75 56.4 17.95 55.25 18.9
L 54.9 18.9
Q 54.9 19.4 54.85 20.15
L 55.05 19.95
Q 55.35 19.75 55.65 19.75 55.75 19.75 57.2 20.55 58.7 21.4 59.1 21.4 60.65 21.4 61.4 20.95 61.9 20.65 63.6 19.55
L 63.6 19.95 66.3 19.95
Q 66.5 18.6 67.05 18.6 67.45 18.65 69.2 18.9 69.65 18.9 70.7 17.45 71.55 16.25 72.1 15.15 71.4 14.55 71.35 13.45 71.3 13.05 71.5 11.85 Z"/>

<path fill="#005400" stroke="none" d="
M 18.85 45.95
L 19.25 45.95
Q 19.55 47.3 19.55 47.4 19.7 47.95 20.1 49.05
L 21.15 48.05 21.15 49.7 22.4 49.7
Q 23 49.1 23.15 48.55 23.25 47.95 23.4 47.6
L 23.65 47.6
Q 23.65 47.65 23.75 48.2 23.85 48.8 23.85 49.3 24.75 49.05 25.3 49.05 25.4 49.05 26 49.7 26.55 50.25 26.85 50.3 29.2 49.75 30.3 49.05
L 30.5 48.65 27.75 47.3
Q 27.6 47.35 27.4 47.45 27.2 47.6 27.05 47.7 27.25 47.75 27.5 47.85
L 26.55 48.2
Q 26.25 48.3 26.15 48.45
L 26.1 48.45
Q 26 48.55 25.9 48.65 25.9 48.55 26 48.45
L 26.1 48.45
Q 26.4 48.1 27.05 47.7 26.75 47.6 26.55 47.6 26.4 47.4 26 47.2 25.25 46.9 23.85 47.2
L 23.85 46.35 23.8 46.25
Q 23.75 46.15 23.4 46.15 23.1 46.15 22.9 46.4 22.8 46.55 22.6 46.8 22.1 46.65 21.85 46.45 21.5 46.15 21.55 45.2 21.25 45 20.9 44.85 20.8 44.9 20.75 44.9 20.15 45.1 19.9 45.1 19.55 45.1 19.55 45.2
L 19.45 45.55
Q 19.25 45.55 19.25 44.9 18.7 44.9 18 45.3 17.05 45.8 17.2 46.6 17.1 46.45 16.95 46.35
L 16.95 47.6
Q 17.5 47.65 17.85 47.1 18.45 46.25 18.85 45.95
M 46.6 42.6
Q 48.1 42.6 50.3 41.7 50.5 41.65 50.7 41.55 52.75 40.75 54.55 40.75 59.2 40.75 62.7 41.8 66.15 42.85 66.4 42.85
L 68.35 42.2
Q 68.45 42.2 69.1 42.6 69.7 43.05 69.9 43.05 70.8 43.05 72.1 40.15
L 72.1 39.1
Q 71.15 39.55 70.75 40.15 70.6009765625 40.3486328125 69.4 40.35 69.646875 40.3546875 69.55 40.5 69.40234375 40.74609375 69.4 40.4 69.390625 40.8955078125 68.55 40.5 68.45 40.45 68.25 40.35 67.05 39.5 67 39.5 66.7 39.5 66.5 39.65
L 66.05 39.9 64.4 39.9
Q 64.35 38.65 63.45 38.1 63.35 38.05 63.3 38.05 62.8 37.9 62.55 37.85 62.45 38 62.35 38.05 61 38.15 60.5 38.2 59.8 38.25 59.1 38.2
L 59 38.2
Q 58.4 38.5 58 38.7 57.15 39.1 56.85 39.1
L 55.55 38.5
Q 55.45 38.6 55.45 38.35 55.45 38.05 56.05 37.9 56.25 37.8 56.5 37.8
L 56.5 37.2 54.4 37.2
Q 53.85 37.6 52.35 38.75 50.85 39.9 50.7 40.15
L 50.25 40.35 50.25 39.3
Q 49.65 39.3 48.65 39.1 47.8 38.9 47.75 38.9 47.65 38.9 47.6 38.9 45.5 38.9 45.2 40 45.1 40.3 44.95 40.8 44.85 41 44.65 41.1 44.45 41.15 44.1 41.15 43.85 41.15 43.5 40.95 43.15 40.75 42.9 40.75 42.55 40.75 41.75 41.15 40.9 41.6 40.4 41.6 40.15 41.6 39.45 41.4 38.8 41.15 38.5 41.15 38.25 41.15 38.05 41.3 38.8 41.7 39.6 42.05 41.4 42.85 42.05 42.85 42.3 42.85 45.15 41.8 45.2 41.8 45.75 42.2 46.4 42.6 46.6 42.6 Z"/>
</g>

<g id="iconArchitecture_0_Layer0_0_FILL">
<path fill="#000000" stroke="none" d="
M 34.2 54.85
Q 33.55 54.7 32.85 54.7 30.65 55.95 29.95 55.95 29.7 55.95 29.3 55.7 29.25 55.65 29.2 55.65 28.8 57.8 28.8 60.45 28.8 60.9 28.85 61.45 28.85 62.1 28.9 62.95 28.95 63.45 29 63.8 28.75 64.05 28.6 64.5 28.4 65.05 28.4 65.5 28.4 65.55 28.4 65.6 28.4 65.65 28.4 65.7 28.4 66.35 28.45 67 28.65 69.85 29.65 72 30.85 74.4 31.5 77.05
L 31.4 77.05
Q 31.65 77.75 31.75 78.55 31.8 78.95 31.8 79.35 31.8 79.4 31.8 79.5 31.8 80.25 31.6 81.85 31.6 82.05 31.6 82.35 31.55 83.75 31.4 84.4
L 31.4 85.1
Q 31.1 85.9 30.75 86.3 30.65 86.45 30.3 86.7 30.15 86.85 29.8 87.05 29.75 87.05 29.7 87.05 29.5 87.1 29 87.2
L 27.3 87.2
Q 27.15 87.15 27.05 87.15
L 27.05 87.2 26.65 87.2
Q 26.45 87.2 25.2 87.05 25.25 87.2 25.35 87.2
L 25.4 87.25
Q 25.2 87.2 24.95 87.15 24.85 87.15 24.75 87.25 24.65 87.2 24.6 87.2
L 24.2 87.2
Q 24.1 87.25 24.1 87.3
L 24.2 87.3
Q 24.4 87.3 24.55 87.35 24.45 87.35 24.3 87.35 24.35 87.4 24.4 87.45 24.15 87.45 23.85 87.45
L 23.85 87.5 24.25 87.75 24.5 87.75
Q 24.45 87.8 24.35 87.85
L 24.45 87.9
Q 27.7 88 27.8 88 28.1 88 28.3 88
L 28.35 88.05
Q 28.75 88.25 29.15 88.25
L 29.5 88.2
Q 29.9 88.25 30.45 88.3 31.2 88.4 31.8 88.4
L 31.85 88.4
Q 32.3 88.45 32.8 88.5
L 33.95 88.5
Q 34.1 88.5 34.2 88.5 34.65 88.5 34.7 88.5
L 36.55 88.5
Q 36.95 88.45 37.65 88.45
L 37.7 88.4
Q 38.1 88.35 38.3 88.3
L 39.35 88.3
Q 39.6 88.3 39.95 88.25 40.45 88.25 40.9 88.25 41 88.25 41.1 88.25 42.6 88.25 49 87.75
L 49 87.7
Q 48.15 87.55 43.7 87.25 39.5 86.95 37.75 86.95
L 37.7 86.95
Q 37.7 86.85 37.7 86.75 37.7 86.7 37.25 84.4 37.2 83.9 37.2 83.45 37.2 82.85 37.6 81.6 37.95 80.4 37.95 80.35
L 37.85 79.3
Q 37.85 79.25 37.85 79.15
L 37.45 79.15
Q 37.45 78.15 37.45 77.25 37.45 77.15 37.45 77.05 37.4 76 37.3 75.15 36.95 72.2 35.25 69.55 34.5 68.55 34.3 68.2 33.95 67.65 33.9 66.65 33.9 66.6 33.9 66.5 33.85 65.7 33.75 64.75
L 33.75 64.65
Q 33.75 64.5 33.75 64.3 33.65 63.6 33.6 63.25 33.6 63 33.6 62.9 33.6 62.45 33.7 61.35 34.35 60.4 36.2 59.5 38.1 58.55 38.65 58.55 39.7 58.55 43.35 59.2
L 46.95 59.9
Q 47 59.9 48.25 59.55 48.4 59.55 48.55 59.5 49 59.4 49.35 59.35 49.85 59.15 50.3 58.75 50.75 58.4 51.6 57.6 51.45 57.65 49.65 58.45 48.3 59.05 47 59.05 46.75 59.05 38.9 57.3 38.55 57.25 38.2 57.2 37.15 57.2 35.6 57.8 34 58.4 33.9 58.4 33.95 57.7 34 56.85
L 34.2 54.85
M 36.95 78.05
Q 36.95 78.1 36.9 78.15 36.9484375 78.0529296875 36.95 78
L 36.95 78.05
M 36.45 79.9
Q 36.4 79.953125 36.4 80.05
L 36.35 80
Q 36.3984375 79.9515625 36.45 79.9
M 29.65 41.8
Q 29.45 41.95 29.45 42.25 29.45 43.4 29.8 45.5 29.85 45.9 29.9 46.3 29.65 46.2 29.35 46.15 27.65 45.75 25.4 45.75 25.2 45.75 24.85 45.65 24.85 45.7 24.85 45.75 24.95 45.85 24.95 45.95
L 24.95 46.25
Q 25 46.25 25.05 46.25
L 25.4 46.45
Q 25.3 46.55 25.25 46.6 25.8 46.8 26.3 46.95 27.6 47.4 28.9 47.65
L 28.9 47.7 29.15 47.7
Q 29.2 47.7 29.25 47.7 29.95 47.9 30.15 48.75
L 30.55 48.85
Q 30.75 48.9 30.95 49 31 48.95 31.05 48.95 31.4 48.95 31.6 49.15 32 49.25 32.15 49.25 32.3 49.25 32.6 49 32.6 48.95 32.55 48.9 32.6 48.6 33 48.25 33.1 48.35 33.2 48.4 33.65 48.05 34.3 47.85 34.3 47.15 34.35 46.55 34.45 46.2 34.55 45.75 34.65 45.3 34.65 43.5 34.6 43.05 34.6 42.6 34.65 42.5 34.7 42.4 34.75 42.15 34.75 40.85
L 33.4 40.55
Q 33.25 40.55 30.9 41.35 30.4 41.5 30.05 41.65 30 41.9 30 42.1 29.85 41.9 29.65 41.8
M 34.35 45.3
L 34.35 45.5
Q 34.3484375 45.45 34.3 45.45 34.346875 45.403125 34.35 45.3
M 19.1 43
Q 18.75 42.85 18.5 42.7 18.4 42.9 18.35 43.05 17.9 43 17.6 43 17.7 43.25 17.7 44.65 17.9 44.65 18.15 44.65
L 18.6 44.4 18.85 44.4 18.85 44.7
Q 18.9 44.7 18.95 44.7 19.2 44.75 19.4 44.8
L 19.1 44.8
Q 19.3 44.9 19.5 44.95 19.55 44.95 19.6 45 20.05 44.9 20.85 44.45 21.15 44.3 21.4 44.15 20 43.45 19.1 43
M 30.25 23.05
L 30.15 23.1
Q 30.4 24.35 31 25.8 31.4 26.75 31.65 27.65 30.35 27.65 28.95 27.2 27.55 26.8 26.75 26.8 26.2 26.8 24.95 27.1 24.1 27.3 23.65 27.4 23.45 27.9 22.9 28.4 23.2 28.45 23.5 28.45 26.05 28.65 28.3 28.45 29.5 28.65 31.55 30.9 31.75 30.65 31.95 30.35 32.85 29.2 34.1 27.45 33.9 26.6 33.6 25.85 33.1 24.65 32.75 23.65 32.25 23.55 31.6 23.35 30.3 23.05 30.25 23.05
M 30.15 13.55
Q 29.45 13.8 28.95 13.9 29.05 14.65 29.25 15.6 29.35 16.25 29.5 16.9 29.65 16.8 29.75 16.8 29.5 15.85 30.4 15.2 30.25 14.3 30.15 13.55
M 30.4 54.8
Q 30.5 54.8 30.6 54.8 30.45 54.7 30.3 54.75 30.35 54.8 30.4 54.8
M 41.1 16.45
Q 40.6 16.2 40.55 16.2 40.25 16.2 39.95 16.4
L 39.75 16.6
Q 39.8 16.05 39.8 15.65 38.9 15.65 37.8 15.65 37.7 16.35 37.4 16.85 39.25 16.8 40.35 16.6 40.75 16.5 41.1 16.45 Z"/>

<path fill="#00CCCC" stroke="none" d="
M 9.75 40.65
Q 8.35 40.2 7.5 39.9 6.2 39.45 5.2 39.15
L 5.1 39.5
Q 4.8 39.2 4.65 38.95 4.3 38.45 4.35 38.2
L 4.35 37.6
Q 3.55 37.8 3.4 38.25 3.15 39.05 2.7 39.5
L 2.7 38.25 0.4 38.25
Q 0.4 38.4 0.85 39.6 1.25 40.75 1.25 40.95 1.2 40.95 1.1 41.05 1 41.15 0.75 41.15 0.2 41.15 0.6 40.75
L 0 40.75
Q 0 41.65 0.4 42.65 0.45 42.75 0.5 42.85 0.85 43.65 0.85 43.85 0.85 43.9 0.8 44.25 0.65 44.65 0.2 44.9
L 0.2 46.15
Q 4.3 46.8 8.1 49.25
L 8.15 49.25
Q 9.05 48.95 10.75 48.65 12.3 48.45 13.5 47.8 14.6 47.25 15.7 47 15.9 47 16.15 47 17.25 47 17.35 46.95 17.5 46.9 17.65 46.85
L 17.7 46.9 17.7 46.85
Q 18.7 46.5 19.35 46.35 19.35 46.5 19.35 46.55 19.45 46.65 19.65 46.65 19.8 46.65 20.15 46.5 20.3 46.4 20.4 46.35 20.55 46.5 20.7 46.6 20.7 46.75 20.9 46.9 21.25 46.75 21.3 46.35
L 21.35 46.3
Q 21.5 46 21.65 45.95
L 21.95 45.95
Q 22.1 46 22.2 46.05 22.2 46.2 22.3 46.5 22.4 47 22.45 47.2
L 22.7 47.1
Q 22.75 47 22.8 46.95 22.85 46.95 22.95 47
L 23.1 46.95
Q 23.2 46.75 23.2 46.25 23.4 46.25 24.1 46.45 24.15 46.5 24.2 46.5 24.4 46.65 24.9 46.65
L 24.95 46.65
Q 25.1 46.65 25.2 46.65
L 25.25 46.6
Q 25.3 46.55 25.4 46.45
L 25.05 46.25
Q 25 46.25 24.95 46.25
L 24.95 45.95
Q 24.95 45.85 24.85 45.75 24.85 45.7 24.85 45.65 24.8 45.55 24.75 45.5 24.65 45.25 24.55 44.9 24.4 44.3 24.05 44.15 23.8 44.05 23.3 43.8 22.75 43.4 22.55 43.35 22.05 43.8 21.4 44.15 21.15 44.3 20.85 44.45 20.05 44.9 19.6 45 19.45 45 19.35 45 18.95 45 18.85 44.9
L 18.85 44.7 18.85 44.4 18.6 44.4 18.15 44.65 17.7 44.9
Q 17.7 44.85 17.7 44.8 17.7 44.7 17.7 44.65 17.7 43.25 17.6 43
L 17.55 42.95
Q 17.25 42.3 15.6 42.4 15.45 41.85 15.45 41.75 15.4 41.4 15.4 40.75 14.55 40.75 13.75 41.15 13.6 40.9 13.55 40.3
L 13.5 39.5
Q 12.55 39.85 11.95 40.45 11.65 40.7 11.55 40.95 10.8 40.95 9.75 40.65
M 2.3 23.55
Q 2.35 23.65 2.4 23.7 2.95 24.35 4.05 25.3 3.65 25.3 3.55 25.45 3.5 25.55 3.55 25.6 3.65 25.7 3.65 25.75 4.35 25.85 4.6 25.85 4.7 25.85 5.3 25.75
L 5.4 25.75
Q 5.45 25.75 5.55 25.8 5.75 25.85 6 25.9 6.3 25.95 6.6 25.95 6.8 26 7.05 25.95 7.15 26.35 7.8 26.9 7.15 27.05 6.2 27.05 6.1 27 6.05 27 6.1 27.05 6.15 27.1 7.2 28.15 7.9 28.55 8.65 29 9.8 29.3 10.15 29.85 10.4 30.95 10.9 31.8 12.7 31.8 13 31.8 13.25 31.55 13.5 31.15 13.75 30.95 14.2 31.4 14.65 31.75 15.5 32.3 16.35 32.65 17.25 33.05 17.6 33.05 18.1 33.05 19 32.4 20.05 31.6 20.8 30.35 21.2 29.7 22.6 28.65 22.75 28.55 22.9 28.4 23.45 27.9 23.65 27.4 23.7 27.15 23.7 26.9 23.7 26.35 22.25 24.7 20.8 23.05 20.2 23.05 20.05 23.05 19.45 23.5 19.1 23.8 18.8 24 18.95 24.05 19.1 24.1 18.75 24.15 18.5 24.2 18.4 24.2 18.3 24.25 17.8 24.3 17.6 24.3 17.2 24.3 14.85 23.8 12.5 23.25 12.4 23.25 12.05 23.25 10.9 23.9 10.85 23.9 9.05 22.65 8.95 22.55 8.75 22.45 8.8 22.55 8.8 22.75 8.45 22.9 8.05 23 8 23 7.95 23.05 8 22.75 8.1 22.35 8.2 22 7.9 22 7.65 22 7.9 22.2 8.2 22.45 7.9 22.45 7.75 22.45 7.7 22.35
L 7.7 22.3
Q 7.7 22.25 7.7 22.2 7.7 22.15 7.7 22.1 7.9 21.7 7.9 21.6 6.65 21.6 5.4 21.2 4.2 20.75 3.2 20.75 3.05 20.75 2.9 20.4 2.75 19.95 2.5 19.7 2.5 20.65 2.1 21.6
L 2.1 23.45 2.3 23.45 2.3 23.55
M 29.75 16.8
Q 29.65 16.8 29.5 16.9 29.35 16.9 29.2 17
L 29.15 17
Q 29.1 17 28.7 17.3 28.55 17.4 28.4 17.5 27.9 17.9 27 18.6 26.1 19.3 25.6 19.8
L 25.6 19.85
Q 25.55 19.85 25.5 19.85 25.3 19.95 25.2 19.95
L 22.45 19.3
Q 22.2 19.3 21.6 19.5 20.95 19.7 20.7 19.7 19.45 19.7 18.2 19.35 18 19.3 17.85 19.25 17.8 19.25 17.75 19.25 17.55 19.15 17.35 19.1 16 18.5 15.9 18.5 15.15 18.5 13.5 20.15
L 13.5 20.75
Q 14 20.75 14.85 20.85 15.7 20.95 15.9 20.95 16.2 20.95 16.5 20.75 16.8 20.55 16.85 20.55 17 21.9 18.45 22.55 19.2 22.9 20.2 23 20.7 23.05 21.35 23.05 21.45 23.05 21.8 23 22.55 22.9 24.35 22.45 24.55 22.45 24.8 22.45 25.45 22.6 26.05 23.15 26.85 23.9 27.15 23.9 27.6 23.9 28.65 23.55 28.8 23.5 28.95 23.45
L 30.15 23.1 30.25 23.05
Q 30.3 23.05 31.6 23.35 32.25 23.55 32.75 23.65 33.15 23.7 33.4 23.7 33.5 23.7 33.75 23.25 34 22.75 34.1 22.2 35.2 22.25 35.75 21.7 36.3 21.2 35.8 20.55 36.65 20.25 36.95 19.7 37.05 19.15 37.05 19.1 37.05 18.85 36.85 18.7 36.6 18.55 36.6 18.25 36.6 17.85 37.25 17.05 37.3 16.95 37.4 16.85 37.7 16.35 37.8 15.65 37.85 15.3 37.85 14.95 36.75 14.7 36.1 13.95 35.7 13.45 35.6 12.85
L 32.65 12.85
Q 32.5 13.05 32.45 14.1 32.35 14 32.25 14.35 31.35 14.65 30.9 14.9 30.6 15.05 30.4 15.2 29.5 15.85 29.75 16.8
M 44.75 45.85
Q 44.25 46.15 44.2 46.15 44 46.15 43.8 45.85 43.65 45.5 43.15 45.5 42.65 45.5 41.9 46 41.1 46.5 41.1 47.15 41.05 46.95 40.9 46.9 40.85 46.9 40.8 47 40.8 46.85 40.8 46.75 40.25 46.75 39.25 47.15
L 39.05 47.25
Q 38.7 47.35 38.2 47.6 37 48.1 36.95 48.35 36.85 48.45 36.75 48.55 36.4 48.35 36.05 48.15 35.95 47.95 36 47.6 35.65 47.6 35.35 47.65 35.25 47.55 35.15 47.5
L 34.95 47.6 34.95 47.7
Q 34.6 47.75 34.3 47.85 33.65 48.05 33.2 48.4 33.1 48.35 33 48.25 32.6 48.6 32.55 48.9 32.6 48.95 32.6 49 32.3 49.25 32.15 49.25 32 49.25 31.6 49.15 31.4 48.95 31.05 48.95 31 48.95 30.95 49 30.75 48.9 30.55 48.85
L 30.15 48.75 29.35 48.45
Q 27.2 48.85 26.65 48.85 26 48.85 24.8 48.35 23.65 47.8 23.6 47.8 23.2 47.8 23 48.35 22.8 48.85 22.25 48.85 22.05 48.85 21.65 48.45 21.15 47.9 21 47.8 20.2 48.6 19.6 49.85 19.1 50.55 17.9 50.1
L 17.7 50.5 17.7 52.8
Q 17.9 52.8 18.75 52.4 19.8 54.8 19.9 56.3 20 56.55 20.45 56.6 20.75 56.6 22.15 56.55 22.2 56.55 23.2 56.5 24.25 56.4 24.55 55.95 24.8 56 25.15 56.3 25.35 56.5 25.5 56.65 25.9 57.1 26 57.2 27.2 56.35 28 55.85
L 28.05 55.8
Q 28.25 55.7 28.45 55.55
L 28.5 55.55
Q 28.55 55.5 28.6 55.5 28.85 55.5 29.2 55.65 29.25 55.65 29.3 55.7 29.7 55.95 29.95 55.95 30.65 55.95 32.85 54.7 33.55 54.7 34.2 54.85 34.95 54.95 35.6 55.3 36.8 55.95 37.95 55.95 38.6 55.95 41.3 54.9 43.1 55.7 43.15 55.7 44.3 55.7 44.75 55.5 45.3 55.2 46.2 55.1 47.3 55 47.5 53.85 47.6 52.5 47.85 51.95 48.35 51.85 49.2 51.85 50.2 51.85 51.65 52 53.75 51.9 52.85 49.25 53.7 49.25 55 48.2 56.2 47.2 56.2 46.9 56.2 46.65 55.95 46 55.9 45.8 55.85 45.65 55.75 45.2 55.75 44.9 54.6 45 53.9 44.95 52.6 44.8 52.45 43.45 52.55 43.35 52.45 43.3 52.4 43.25 52.1 43.25 51.75 43.25 49.8 44.4 48.3 45.25 47.55 46 47.2 46.3 47 46.55 46.8 46.4 46.6 46.25 46 45.75 46 45.3 45.4 45.5 44.75 45.85
M 41.1 47.25
Q 41.103125 47.40625 41.2 47.6
L 41.2 47.8
Q 41.1 47.75 41.05 47.55 41.0984375 47.4046875 41.1 47.25
M 30.6 54.8
Q 30.5 54.8 30.4 54.8 30.35 54.8 30.3 54.75 30.45 54.7 30.6 54.8
M 45.65 24.3
Q 45.3 24.1 45.05 24.1 44.45 24.1 42.55 25.95 40.6 27.85 40.45 27.85 40.3 27.85 39.65 27.55 39 27.2 38.7 27.2 38.2 27.2 37.7 27.7 37.15 28.3 37.25 29.3 37 28.9 36.1 28.45 35.6 28.15 35.6 26.8
L 34.55 26.8
Q 34.3 27.1 34.1 27.45 32.85 29.2 31.95 30.35 31.75 30.65 31.55 30.9 31.45 30.95 31.35 31.05 30.8 31.3 29.75 31.95 28.7 32.6 28.05 33.25 27.95 33.25 27.9 33.25 27.85 33.35 27.85 33.4 27.45 33.8 27.25 34.15 27.3 34.25 27.45 34.3 27.55 34.25 27.8 33.95 27.75 34.15 27.7 34.4 27.65 34.6 27.35 34.7 27.25 34.7 27.05 34.7 26.9 34.7 26 34.1 24.95 33.45 24.35 32.85 23.95 33.7 21.7 34.65 19.5 35.55 18.1 35.55 17.95 35.7 17.8 35.95 17.7 36.2 17.7 36.35 17.9 36.4 18.1 36.5 18.15 36.5 18.25 36.55 18.3 36.6 18.35 36.6 18.8 36.9 18.9 37.55 19 38.05 18.95 38.85 21.25 38.9 22.6 39.45 24.35 40.15 24.75 41.8 24.8 41.8 25.2 41.55 25.6 41.35 25.9 41.35 25.95 41.35 26.9 41.8 28 42.2 28.4 42.2 28.5 42.2 29.65 41.8 29.85 41.75 30.05 41.65 30.4 41.5 30.9 41.35 33.25 40.55 33.4 40.55
L 34.75 40.85 37.15 41.35
Q 38.4 41.35 40.45 40.7 42.8 39.95 43.3 39.05 43.55 39.15 46.7 40.15 46.9 40.2 47.1 40.25
L 47.15 40.25
Q 49.4 40.95 49.95 40.95 50.2 40.95 50.6 40.75 51.05 40.55 51.3 40.55 52.95 40.55 53.75 41.15 53.85 41.25 53.95 41.3 54.55 41.8 55.25 41.8 56.3 41.8 58.1 39.6 60.1 37.2 60.15 35.1
L 58.45 35.1
Q 58.3 35.3 58.15 35.55 58.053125 35.7921875 58.05 35.95
L 58.05 34.3
Q 57.2 34.3 56 34.7 55.7 34.8 55.45 34.9 54.8 35.1 54.7 35.1 54.1 35.1 53.25 34.4 52.4 33.65 52 33.65 51.45 33.65 50.75 34.1 49.9 34.75 49.3 35.1
L 49.3 34.7
Q 48.9 34.7 48.35 34.55 48.25 34.5 48.2 34.5 47.7 34.35 47.45 34.3 47.35 34.25 47.25 34.15
L 47.25 33.7
Q 47.4 33.75 47.6 33.9 48.1 34.25 48.55 34.35 48.6 34.45 48.7 34.5 48.75 34.45 48.8 34.4 49 34.4 49.5 33.95 50.05 33.5 50.05 33.25 50.05 33.2 50.05 33.15 50.4 32.75 50.55 32.4 50.7 32.5 51.3 32.75 51.9 33.05 52.2 33.05 55 33.05 56.6 30.95 57.5 29.8 58.25 27.85 59.2 27.35 60.05 25.85 60.75 24.55 60.75 23.9 60.75 23 60.7 22.95 60.5 22.8 60.15 22.2 59.65 22.45 59.1 22.95 58.8 23.25 58.45 23.25 58 23.25 57.9 23.2 57.8 23.05 57.65 22.2 57.55 22.3 55.85 23.95
L 55.8 24
Q 55.7 24.15 55.55 24.3 54.9 24.9 54.5 25.25
L 54.5 24.3 52 24.3
Q 51.7 24.75 51.4 25.35 51.4 25.2 51.3 24.35 51.2 23.55 51.2 23.05 51.3 22.85 50.75 22.85 49.55 22.85 49.1 23.55 48.5 24.65 48.05 24.95 47.85 25.05 47.1 25.35 46.8 25.45 46.55 25.65 46.45 25.85 46.35 26.05
L 46.2 25.95 46.2 24.5
Q 46 24.5 45.65 24.3
M 44.55 5.6
Q 44.55 5.1 44.5 4.8 44.5 4.45 44.4 4.3 44.1 3.5 42.85 3.95 42.25 3.6 42.15 2.8 42.05 1.9 41.6 1.45 40.95 2.5 39.7 2.6 38.6 2.5 38 2.5 37.8 2.5 37.65 2.5 37.65 2.4 37.65 2.3 36.85 1.85 36.4 1.85 36.1 1.85 35.85 1.9 35.3 2.2 34.8 2.25 34.5619140625 2.5357421875 34.55 3
L 34.55 2.3
Q 34.5 2.2 34.5 2.1 34.05 1.1 32.75 0.5 31.7 0 31 0 31 0.6 30.8 0.6 30.65 0.45 30.4 0.3 30 0.05 29.95 0 30 0.6 29.45 0.75 29.15 0.85 28.3 0.85
L 28.3 2.1
Q 28.1 1.85 26.65 1.85 26.65 3.95 26.4 4.7 26.05 5.9 25.15 6.05 24.45 6.1 23.5 5.6 23.5 6.35 23.5 6.6 23.45 7 23.3 7.3 21.8 7.3 20.05 7.5 19.1 7.6 18.6 7.65 17.95 7.5 17.15 7.25 16.65 7.1 16.25 6.95 16.1 6.85 15.95 6.75 15 6 14.4 5.65 14.4 5.55 14.35 5.45 14.3 5.5 14.25 5.55 13.9 5.3 13.75 5.2 13.5 5.85 13.5 7.3 12.9 6.85 12.1 6.45 11.4 6 10.4 5
L 9.35 5
Q 9.35 5.4 9.8 6.6 10.1 7.6 10.2 8.1 10.1 8.1 9.95 7.9 9.75 7.7 9.45 7.7 9.2 7.7 9 7.8 8.95 7.8 8.95 7.85 8.85 7.95 8.75 8
L 8.75 9.95
Q 9.8 11.55 13.65 13 17.15 14.3 19.25 14.3 19.5 14.3 20.3 14.2 20.85 14.15 21.2 14.15 21.35 14.1 21.45 14.1 21.5 14.85 22.8 15.55 24 16.2 24.85 16.2 25.2 16.2 25.6 15.9 26 15.65 26.5 15.05 27.5 13.9 28.6 13.9 28.75 13.9 28.95 13.9 29.45 13.8 30.15 13.55 30.65 13.35 31.25 13.05 32.95 12.25 33.2 12.25 33.35 12.25 33.55 12.3 33.75 12.35 33.9 12.45 34.3 12.65 34.85 12.65 36 12.65 37.35 12.3 38.8 12 40.45 11.3 42.15 10.6 44.1 9.75
L 44.1 8.7
Q 44 8.6 43.9 8.45 43.9 8.4 43.9 8.3
L 43.5 8.3
Q 44.25 7.95 44.45 6.8 44.55 6.2 44.55 5.6
M 51.1 9.3
Q 50.85 9.8 50.8 10.1
L 49.75 9.75 48.25 9.75
Q 48.2 10.55 48.05 10.9 47.75 11.4 46.6 11.4 46.35 11.4 46.45 11.1 46.55 11.05 46.6 11 46.55 10.85 46.4 10.8 46.35 10.8 46.3 10.8 45.75 10.8 44.75 11.15 43.95 11.5 42.85 12.15 40.45 13.5 39.3 13.5 39.55 13.85 39.65 14.2 39.7 14.3 39.7 14.4 39.7 14.5 39.75 14.55 39.75 14.6 39.75 14.65 39.75 14.7 39.8 14.75 39.8 15 39.8 15.25 39.8 15.3 39.8 15.35 39.8 15.45 39.8 15.65 39.8 16.05 39.75 16.6
L 39.95 16.4
Q 40.25 16.2 40.55 16.2 40.6 16.2 41.1 16.45 41.5 16.65 42.1 17 43.6 17.85 44 17.85 45.55 17.85 46.3 17.4 46.8 17.1 48.5 16
L 48.5 16.4 51.2 16.4
Q 51.4 15.05 51.95 15.05 52.35 15.1 54.1 15.35 54.55 15.35 55.6 13.9 56.45 12.7 57 11.6 56.3 11 56.25 9.9 56.2 9.5 56.4 8.3 56.25 8.3 55.95 8.3 55.8 8.25 55.6 8.2 55 8.1 54.7 8.1 53.5 8.1 53.25 8.2 52.65 8.35 52.1 9.2 52.05 9.25 52 9.3 51.9 9.3 51.8 9.05 51.65 8.65 51.6 8.55 51.45 8.7 51.1 9.3 Z"/>
</g>
</defs>

<g id="skinArchitecture" transform="matrix( 1.54046630859375, 0, 0, 1.54046630859375, 1.45,0.5) ">
<g transform="matrix( 1, 0, 0, 1, 0,0) ">
<use xlink:href="#skinArchitecture_0_Layer1_0_FILL"/>
</g>

<g transform="matrix( 1, 0, 0, 1, 0,0) ">
<use xlink:href="#skinArchitecture_0_Layer0_0_FILL"/>
</g>
</g>

<g id="iconArchitecture" transform="matrix( 1, 0, 0, 1, 40.1,28.55) ">
<g transform="matrix( 1, 0, 0, 1, 0,0) ">
<use xlink:href="#iconArchitecture_0_Layer0_0_FILL"/>
</g>
</g>
</svg>
