
<svg xmlns="http://www.w3.org/2000/svg" version="1.1" xmlns:xlink="http://www.w3.org/1999/xlink" preserveAspectRatio="none" x="0px" y="0px" width="150px" height="150px" viewBox="0 0 150 150">
<defs>
<g id="skinFashion_0_Layer1_0_FILL">
<path fill="#8FCD8F" stroke="none" d="
M 51.55 52.3
Q 51.25 52.45 51.2 52.5 51.15 52.6 51.15 52.9
L 51.15 52.95
Q 51.15 53.2 51.3 53.45 51.4 53.65 51.55 53.75 51.75 53.9 52 53.9 52.5 53.9 52.3 53.8
L 52.4 53.6
Q 52.2 53.1 52.05 52.85 51.8 52.4 51.55 52.3
M 16.7 55.2
Q 15.95 54.7 15.45 55.4 15.65 55.65 15.95 55.85 16 56 16.2 56.1 16.85 56.65 17.55 56.65 17.9 56.65 17.95 56.6
L 17.95 56.5
Q 16.9 55.4 16.7 55.2
M 35.15 46.6
Q 34.85 46.7 34.85 46.75 34.75 46.85 34.75 47.2 35.35 48.8 36.45 48.8 36.75 48.8 36.85 48.7 36.85 48.6 36.85 48.55
L 36.85 48.5
Q 36.8 48.4 36.7 48.3 36.2 47.7 35.15 46.6
M 33.95 41.85
Q 33.8 41.9 33.7 42 33.6 42.1 33.5 42.2 33.35 42.35 33.2 42.6 32.85 43.3 32.85 44.35 32.7 46 33.25 46
L 33.3 46
Q 33.5 46 33.75 46.3 34 46.5 34.3 46.5 34.6 46.5 34.7 46.35 34.7 46.25 34.75 46.15 34.65 45.75 34.35 45.3 34.1 44.9 34.1 44.7 34.1 44.4 34.3 43.7 34.55 42.95 34.55 42.7 34.55 41.5 33.95 41.85
M 40.05 40.85
L 39.85 40.55
Q 39.35 40.3 39.05 40.3 38.75 40.3 38.65 40.4 38.55 40.5 38.55 41.4 38.55 42 38.8 42.85 39.15 44.15 39.85 44.15 40.15 44.15 40.25 44 40.25 43.8 40.3 43.75 40.15 43.6 39.8 42.9 39.45 42.1 39.45 41.75 39.45 41.6 39.45 41.45 39.6 41.15 40.05 40.85
M 29.65 40.95
Q 29.409765625 40.85390625 29.2 40.85
L 29.2 40.85
Q 29.05 40.85 28.85 40.9 28.75 40.95 28.7 41.1 28.65 41.15 28.65 41.9 28.65 41.943359375 28.8 43.15 28.823828125 43.3400390625 28.85 43.55 28.8677734375 43.619140625 28.85 43.65 29.2857421875 45.1021484375 30.05 45.15 30.4 45.65 31.15 45.65 31.4 45.65 31.45 45.55 31.5 45.45 31.55 45.3 31.05 44.1 30.05 43.6 30 43.65 29.95 43.7 29.75 43.3 29.7 42.9 29.7 41.6 29.65 40.95
M 27.7 40.2
Q 27.7 39.95 27.7 39.85 27.6 39.75 27.6 39.7 27.3 39.6 27.05 39.6 25.75 39.55 25.4 40.85 25.25 41.25 25.25 43.1 25.25 43.15 25.4 45.15 25.7 47.1 26.55 47.1 26.85 47.1 27 47
L 27.1 46.9 27.1 46.55
Q 27.1 46.5 26.8 45.1 26.45 43.7 26.45 42.6 26.8 40.85 26.85 40.4 27 40.6 27.7 40.6
L 27.7 40.2
M 15.15 46.6
L 14.3 46.6
Q 13.9 47 13.95 48.05 13.65 50.3 14.8 50.3 15.1 50.3 15.15 50.25 15.15 50.15 15.15 50.1
L 15.15 49.85 15.35 47.45 15.4 47
Q 15.4 46.7 15.35 46.65
L 15.25 46.6 15.15 46.6
M 12.65 45.3
Q 12.5 45.05 12.25 45 12.05 44.9 11.8 44.95 10.8 45.15 10.8 47.7
L 10.8 47.85
Q 10.8 48.3 11 50.3 11.4 52.3 12.35 52.75
L 12.4 52.75
Q 12.9 53.45 14.2 54.95 14.55 54.95 14.65 54.9
L 14.75 54.75
Q 14.55 53.85 13.65 52.75 13.4 52.45 13.2 52.25 13.05 51.45 12.7 50.7 12.4 49.95 12.4 49.15 12.8 46.8 12.8 46.25 12.8 45.6 12.65 45.3
M 8.55 47.85
Q 8.25 48.15 8 49.15 7.8 50.1 7.8 50.75 7.8 50.8 8.2 52.25 8.2 52.3 8.25 52.45 8.7 53.85 9.4 54.05 9.55 54.1 9.65 54.1 10 54.1 10.05 54.05 10.05 54 10.05 53.95
L 10.05 53.7
Q 10.05 53.5 9.4 51.55 8.8 49.6 8.8 49.25 8.9 48.9 8.95 48.75 9 48.45 8.55 47.85
M 49.5 44.4
Q 49.3 44.7 49.15 45.15 48.6 46.45 48.6 47.45 48.6 47.9 48.6 47.95 48.6 48.05 48.8 48.15 49.2 48.05 49.45 47.95 49.45 46.9 50.3 45.7
L 51.15 44.45
Q 51.15 44.4 51.15 44.35 51.15 44.1 51.05 44.05 50.9 44 50.9 43.95 50.05 43.5 49.5 44.4
M 26.45 47.65
Q 26.4 47.7 26.25 47.65 26.1 47.7 26.1 48.05 27.05 50.95 28.35 50.95 28.7 50.95 28.8 50.9 28.8 50.75 28.8 50.6 27.65 48.4 26.45 47.65
M 54.8 47.6
Q 54.9 47.5 54.95 47.45
L 54.9 47.3
Q 53.95 46.15 52.45 47.8 51.15 49.3 51.15 50.05 51.15 50.1 51.45 50.6 51.5 50.65 51.55 50.75 51.9 51.2 52.2 51.35
L 52.3 51.25
Q 52.3 50.4 52.8 49.65 53.35 48.75 54.8 47.6
M 41.35 44.9
Q 41.35 44.95 40.9 45.3 41.15 45.55 41.55 46.05 41.95 46.5 42.4 46.5 42.7 46.5 42.75 46.4 42.8 46.3 42.85 46.15 42.1 45.3 41.35 44.9
M 45.5 46.7
Q 45.5 46.75 45.5 46.85 45.8 47.75 46.85 47.75 47.15 47.75 47.2 47.7 47.25 47.55 47.3 47.45 47.15 47.1 46.65 46.6 46.25 46.25 46.25 45.9 46.25 45.65 46.45 45.3 46.65 44.95 46.65 44.65 46.65 44.35 46.55 44.3 46.35 44.3 46.25 44.25 45.4 44.95 45.4 45.85 45.4 45.9 45.5 46.7
M 79.85 14.65
Q 79.7 14.4 79.5 14.25
L 79.4 14.25
Q 78.4 14.55 77.75 15.5 77.1 16.35 77.1 17.1
L 77.75 17.1
Q 78 16.7 78.8 15.9 79.6 15.1 79.85 14.65
M 64.1 20.95
L 63.5 20.2 62.95 20.2 62 20.2
Q 61.6 20.1 61.1 20.35 60.35 20.75 59.2 21.8 57.35 23.7 57.75 24.75
L 58.35 24.75
Q 58.85 23.65 59.55 22.8 60.95 21.05 63.05 21.05 63.1 21.05 63.2 21.15 63.45 21.25 64.1 20.95
M 71.35 10.75
Q 71.55 10.75 71.8 10.5 72.1 10.25 72.2 9.95
L 72 9.65
Q 71.6 9.65 71.05 9.95 70.9 10.05 70.8 10.15 70.65 10.35 70.4 10.4 70.35 10.45 70.3 10.55 70.55 10.75 71.35 10.75
M 88.4 39.65
Q 88.4 39.35 88.25 39.25 88.1 39.2 87.95 39.15 87.9 39.25 87.8 39.4 87.8 39.45 87.75 39.55 87.45 40.1 87.1 40.5 86.3 41.45 82.4 42 82.35 42 82.25 42 82.2 42 82.2 42.3 82.2 42.8 82.4 42.6
L 84.55 42.65
Q 84.65 42.65 84.75 42.65 85.9 42.6 87.1 41.45 87.45 41.2 87.7 40.95 88.4 40.2 88.4 39.65
M 90.4 25.85
Q 90.65 25.6 91.05 25.35 91.25 25.15 91.55 24.85 91.4 24.55 91.15 24.45 90.65 24.55 89.8 25.25 88.85 26.05 88.8 26.5
L 89 26.65
Q 89.35 26.6 90.3 25.95 90.35 25.9 90.4 25.85
M 94.55 32.75
L 94.55 32.85
Q 90.8 33.15 89.3 33.7 88.35 34 87.75 34.8 87.85 34.85 87.95 34.95 88 34.95 88.1 35 88.2 35 88.4 35 88.55 35 88.75 35 89.2 34.95 89.6 34.85 89.7 34.75 89.8 34.7 89.95 34.6 90.15 34.55 90.5 34.4 90.95 34.15 91.1 34.1 93 33.9 93.7 33.85 94.15 33.7 94.25 33.65 94.35 33.65 94.4 33.65 94.45 33.7 94.5880859375 33.7 94.75 33.7 94.8224609375 33.7 94.9 33.7 95 33.7 95.2 33.7 95.55 33.7 96.35 32.75 97.1 31.8 97.1 31.55 97.1 31.3 97 31.2
L 96.95 31.15
Q 96.8 31.15 96.7 31.05 96.65 31.1 95.85 32 95.4 32.6 94.9 33.05 94.7 32.85 94.55 32.75
M 86.1 40.55
Q 86.35 40.3 86.45 40 86.3 39.7 86.05 39.55 84.75 40.3 84.35 40.75 84.6 40.95 85.2 40.95 85.65 40.95 86.1 40.55
M 86.65 36.55
Q 86.65 36.2 86.55 36.05 86.4 36 86.25 35.95 86 36.15 85.55 36.75 85.2 37.3 85.2 37.4 85.2 37.9 85.4 37.7 86.65 37.45 86.65 36.55
M 96.7 30.05
Q 96.7 29.75 96.55 29.7 96.4 29.65 96.25 29.55 95.7 30.15 94.9 30.7 93.25 31.8 90.95 32.2 90.9 32.25 90.75 32.2 90.7 32.2 90.7 32.5 90.7 33 90.95 32.85
L 92.4 32.85
Q 93.15 32.85 94.95 31.7 96.7 30.45 96.7 30.05
M 93.15 20.05
Q 93.25 19.4 93.25 18.8 93.25 18 92.85 17.65 91.95 19.7 91.25 21.05 90 23.45 87.75 25 87.95 25.15 88.4 25.2 90.25 24 91.4 22.9 91.45 22.85 91.55 22.8 91.85 22.4 92.15 22 92.3 21.85 92.4 21.7 92.9 20.85 93.15 20.05
M 87.1 17.4
Q 86.9 17.1 86.9 16.9 85.9 16.7 84.95 17.8 84.875 17.9125 84.75 18.05 84.885546875 17.8908203125 85 17.7 85.4 17.1 85.4 17 85.4 16.8 85.35 16.7 85.3 16.65 85.25 16.65
L 85.2 16.65
Q 85.05 16.6 84.95 16.55 84.65 16.6 84.1 17.35 83.5 18.1 83.7 18.55
L 84.35 18.55
Q 84.4353515625 18.4646484375 84.5 18.35 84.1 18.96484375 84.1 19.4 84.1 19.7 84.15 19.75
L 84.35 19.85
Q 84.75 19.75 84.9 19.65 84.95 19.15 85.8 18.4 86.5 17.7 87.1 17.4
M 74.35 13.4
Q 74.15 13.1 73.9 12.95 73.45 13.1 72.65 13.9 71.8 14.7 71.8 15.05 71.8 15.55 72 15.4 72.6 15.2 73.35 14.45 74.25 13.4 74.35 13.4
M 76.65 14.95
Q 76.65 14.2 76.25 13.8 75.75 14.25 75.65 15.05 75.6 15.25 75.6 16.5 75.75 16.9 75.05 17.75 74.35 18.7 74.35 19.2
L 75.4 19.25
Q 76.05 19.25 76.4 17.3 76.65 15.9 76.65 14.95
M 67.1 20.4
Q 66.65 20.55 66.2 21.1 65.8 21.65 65.8 21.85 65.8 22.35 66.05 22.2 66.6 22.2 67.5 20.85 67.5 20.55 67.4 20.5 67.2 20.5 67.1 20.4
M 61.4 23.7
Q 62.35 22.95 62.85 22.3
L 62.75 22.2
Q 61.85 21.45 60.7 22.55 59.65 23.5 59.65 24.05 59.65 24.5 59.7 24.55 59.7 24.6 59.85 24.75
L 60.3 24.65
Q 60.4 24.45 61.4 23.7
M 69 17.7
Q 69.65 17.7 69.75 17.65 70.85 15.4 71.55 14.25 71.4 13.95 71.15 13.8 70.35 14.1 69.75 15.1 69.2 16.25 69 16.55
L 69 17.7
M 70.7 12.3
Q 70.65 12.15 70.6 12.05 70.75 11.95 70.9 11.9
L 70.85 11.75
Q 68.95 10.95 67.75 13.5
L 66.9 16.2
Q 66.9 16.5 66.9 16.55 66.8 16.9 66.7 17.35 66.6 18.15 66.65 18.85 66.65 19.2 66.85 19.25 66.9 19.25 67.3 19.25 67.9 18.8 68.35 16 68.45 15.95 68.6 15.85 68.6 15.1 68.9 14 69 13.4 69.2 13.1 69.45 12.8 69.75 12.55 70.6 12.55 70.7 12.3
M 85.3 25.2
Q 84.65 25.65 83.7 25.65 83.2 25.65 82.4 25.85
L 82.5 26.15
Q 83.2 26.5 84.35 26.5 85 26.5 85.7 25.95 86.2 25.5 86.45 25.1 86.3 24.8 86.05 24.65 85.65 25 85.3 25.2
M 85.6 22.25
Q 83.95 23.1 83.7 23.5
L 83.9 23.7
Q 86.3 24.05 90.1 19.1 90.1 18.85 89.95 18.8 89.8 18.8 89.65 18.7 89.45 18.85 88.6 19.8 87.7 20.85 87.5 21.05 87.3 21.25 85.6 22.25
M 82.65 16.55
Q 82.65 17.05 82.85 16.85 83.2 16.75 83.65 16.35 84.1 16.05 84.1 15.95 83.95 15.65 83.7 15.5 82.65703125 16.145703125 82.65 16.55
M 82.65 16.55
Q 82.648828125 16.198828125 82.5 16.05 82.35 16 82.2 15.95 81.4 17.75 81.15 18.2 80.65 18.95 79.85 19.75 79.2 20.4 79.2 20.55 79.2 21.1 79.45 20.9 81.2 20.5 82.65 16.55 Z"/>

<path fill="#669966" stroke="none" d="
M 9.25 60.4
Q 9.35 60.6 9.45 60.9 9.6 61.15 9.75 61.4 9.65 60.8 9.55 60.6 9.5 60.5 9.25 60.4
M 6.9 57.1
Q 6.85 57.2 6.85 57.3 6.85 58.15 7.3 58.85 7.2 58.35 7.1 57.8 6.95 57.45 6.9 57.1
M 6.3 52.4
Q 5.95 52.05 5.9 51.9 5.95 52.6 6.3 53.2 6.6 53.75 6.8 54.55 6.8 54.35 6.85 54.25 6.75 53.75 6.75 53.1 6.75 52.85 6.3 52.4
M 21.3 51.4
Q 21.35 51.4 21.4 51.4 21.2 51.25 21.15 51.15 21.2 50.65 21 50.55 20.55 50.35 19.9 50.3 20.55 50.8 21.3 51.4
M 8.4 47.15
Q 7.9 47.25 7.65 47.85 7.35 48.55 7.35 49.75 7.1 50.4 6.7 50.75 6.8 50.8 6.85 50.9 7.25 51.25 8.2 52.25 7.8 50.8 7.8 50.75 7.8 50.1 8 49.15 8.25 48.15 8.55 47.85 9 48.45 8.95 48.75 8.9 48.9 8.8 49.25 8.8 49.6 9.4 51.55 10.05 53.5 10.05 53.7
L 10.05 53.95
Q 10.05 54 10.05 54.05 10 54.1 9.65 54.1 9.55 54.1 9.4 54.05 9.65 55.1 9.85 56.65
L 10.05 56.8
Q 10.35 56.75 10.85 56.55 11.3 56.35 11.55 56.35 12.35 56.35 12.9 58.35 13.5 60.35 14.55 60.35 15.05 60.35 15.6 60.05 16.1 59.75 16.85 59.75 17.35 59.75 17.7 60.5 17.95 61.1 17.95 61.7 18.65 61.65 19.4 61.45 20.2 61.25 20.4 61.25 20.85 61.25 22.25 61.4 23.75 61.5 23.95 61.6 23.75 61.9 24.3 61.9 24.4 61.9 25.9 60.9 26.3 60.6 26.8 60.4 26.4 60.2 26.2 60 25.95 59.75 26.1 57.95 26.1 57.75 25.9 57.65 25.85 57.7 24.85 58.3 24.3 58.6 23.7 58.6
L 22.7 58.6
Q 22.7 57.45 22.5 56.8 21 56.75 20 56.05 19.1 55.4 19.1 54.6 17.55 54.3 17.4 53.2 17.45 51.8 17.15 51.25
L 15.9 51.15
Q 15.25 50.4 15.25 50.05 15.25 47.5 17.85 48.95 17.8 48.7 17.75 48.45 17.6 47.2 16.85 47.2 16.6 47.2 15.9 47.35 15.55 47.45 15.35 47.45
L 15.15 49.85 15.15 50.1
Q 15.15 50.15 15.15 50.25 15.1 50.3 14.8 50.3 13.65 50.3 13.95 48.05 13.9 47 14.3 46.6
L 15.15 46.6
Q 15.1 46.3 15.1 46.25 14.85 45.5 13.8 45.5 13.1 45.5 12.65 45.3 12.8 45.6 12.8 46.25 12.8 46.8 12.4 49.15 12.4 49.95 12.7 50.7 13.05 51.45 13.2 52.25 13.4 52.45 13.65 52.75 14.55 53.85 14.75 54.75
L 14.65 54.9
Q 14.55 54.95 14.2 54.95 12.9 53.45 12.4 52.75
L 12.35 52.75
Q 12.55 53.25 12.75 53.55 13.8 55.25 15.95 55.85 15.65 55.65 15.45 55.4 15.95 54.7 16.7 55.2 16.9 55.4 17.95 56.5
L 17.95 56.6
Q 17.9 56.65 17.55 56.65 16.85 56.65 16.2 56.1 16.05 56.25 15.8 56.3
L 14.2 56.25
Q 12.55 54.85 11.9 54.2 10.75 53.15 10.55 52.25 10.3 51.2 9.75 50.3 9.3 49.65 9.3 48.6 9.3 45.65 10.3 47.05 10.55 47.45 10.8 47.85
L 10.8 47.7
Q 10.8 45.15 11.8 44.95 12.05 44.9 12.25 45 11.95 44.65 11.55 44.65 10.25 44.65 9.7 45.35 9.45 45.7 9.3 46.35 9 46.95 8.4 47.15
M 20.9 59.2
Q 20.8 59.25 20.5 59.25 19.95 59.25 19.15 58.6 18.25 57.85 18.25 57.15 18.75 57.15 19.7 57.8 20.4 58.35 20.9 58.85
L 20.9 59.2
M 43.45 42.75
Q 43.3 42.75 42.4 43.25 41.45 43.75 41.15 43.8
L 41.15 43.75
Q 41.35 42.8 41.3 42.25 41.25 41.25 40.15 41.25 39.85 41.25 39.55 41.45 39.5 41.45 39.45 41.45 39.45 41.6 39.45 41.75 39.45 42.1 39.8 42.9 40.15 43.6 40.3 43.75 40.25 43.8 40.25 44 40.15 44.15 39.85 44.15 39.15 44.15 38.8 42.85 38.55 42 38.55 41.4 38.55 40.5 38.65 40.4 38.75 40.3 39.05 40.3 38.85 39.75 38.55 39.75 38.45 39.75 38.35 39.75 38.35 40.8 38.15 42.6 38.15 43.15 38.05 42.85 37.95 42.95 37.5 43.05 37.1 42.8 37.1 41.15 37.1 40.45 37.35 40
L 37.3 40
Q 37.1 40.2 36.85 40.4 36.75 39.2 36.4 38.85 35.6 40.2 35.6 40.65 35.6 41.25 35.8 41.65 36.3 42.35 36.65 43.4
L 36.45 43.7
Q 35.1 42.6 34.85 42.15 34.75 41.9 34.75 40.75 34.75 40.05 34.8 39.75 34.1 40.65 33.95 41.85 34.55 41.5 34.55 42.7 34.55 42.95 34.3 43.7 34.1 44.4 34.1 44.7 34.1 44.9 34.35 45.3 34.65 45.75 34.75 46.15 34.7 46.25 34.7 46.35 34.6 46.5 34.3 46.5 34 46.5 33.75 46.3 33.5 46 33.3 46 33.35 46.85 34 47.45 34.45 47.95 36 49.25 36.1 49.45 35.6 49.45 33.4 49.45 32.4 47.1 31.75 45.7 31.75 44.55 31.75 43.6 31.85 43.35 32 42.6 32.85 42.3 33.05 42.45 33.2 42.6 33.35 42.35 33.5 42.2 33.45 42.1 33.4 42 33.15 41.7 32.6 41.7 31.25 42.25 30.9 42.3 30.9 42.05 30.55 41.45 30.05 40.85 29.65 40.85 29.45625 40.85 29.2 40.85 29.409765625 40.85390625 29.65 40.95 29.7 41.6 29.7 42.9 29.75 43.3 29.95 43.7 30 43.65 30.05 43.6 31.05 44.1 31.55 45.3 31.5 45.45 31.45 45.55 31.4 45.65 31.15 45.65 30.4 45.65 30.05 45.15 29.2857421875 45.1021484375 28.85 43.65 28.9673828125 44.28125 29 45 29.1 45.2 29.7 45.6 30.25 45.95 30.25 46.45 30.25 46.7 30.2 47.3 30.15 47.85 30.25 48.2 30.55 48.9 31.25 50 32 51.1 32.6 51.45 32.55 51.6 32.55 51.75 32.5 51.8 32.2 51.8 27.75 49.15 27.4 47.45 27.05 46 26.85 45.15 26.55 43.75 26.55 42.95 26.55 40.4 27.7 41.05 28.4814453125 41.4916015625 28.8 43.15 28.65 41.943359375 28.65 41.9 28.65 41.15 28.7 41.1 28.75 40.95 28.85 40.9 28.55 40.95 28.15 41.05 28.15 40.75 27.7 40.2
L 27.7 40.6
Q 27 40.6 26.85 40.4 26.8 40.85 26.45 42.6 26.45 43.7 26.8 45.1 27.1 46.5 27.1 46.55
L 27.1 46.9 27 47
Q 26.85 47.1 26.55 47.1 25.7 47.1 25.4 45.15 25.25 43.15 25.25 43.1 25.25 41.25 25.4 40.85 25.75 39.55 27.05 39.6 26.9 39.55 26.8 39.55 25 39.55 24.55 41.15 24.4 41.65 24.4 43.25 24.4 43.8 24.8 44.9 25.15 46.05 25.15 46.6 25.15 46.85 24.9 47.35 24.6 47.8 24.6 47.9 24.6 48.4 24.85 48.85 23.55 48.5 23.25 49.95 23.1 50.55 23 50.9 24.65 50.4 24.95 50.4 27 50.4 27.15 51.5 27.25 52.05 27.1 52.85 28.8 53.6 30.35 54.6 30.8 54.9 31.05 55.35 31.95 55.35 33.7 56.3 35 57.05 36.3 58 37.45 57.85 38.25 57.75 38.5 57.45 38.55 57.45 38.7 57.5 38.85 57.55 38.9 57.6 38.95 57.65 39.15 57.7 39.35 57.85 39.5 58.05 39.75 58.05 40.3 58.05 40.85 57.95 40.55 57.6 40.5 57.3 40.3 56.05 40.3 54.7 40.3 54.6 40.5 54.2 40.7 53.75 41.05 53.45 40.95 53.35 39.45 52.4 38.15 51.6 38.15 51.25 38.15 50.95 38.45 50.7 38.7 50.4 38.7 50.2 38.7 49.7 37.7 49.15 37.1 48.85 36.85 48.55 36.85 48.6 36.85 48.7 36.75 48.8 36.45 48.8 35.35 48.8 34.75 47.2 34.75 46.85 34.85 46.75 34.85 46.7 35.15 46.6 36.2 47.7 36.7 48.3 36.65 48.2 36.65 48.1 36.65 47.85 36.85 47.75 37.1 47.6 37.1 47.3 36.45 46.8 36.45 46.4 36.45 45.9 37 45.45 37.7 44.9 38.9 45 38.6 45.7 39.85 46.2 41.4 46.9 41.55 47.2 41.85 47.8 41.05 48.8 41.1 49.45 45.4 49.35 49.65 50.4 51.15 52.9 51.15 52.6 51.2 52.5 51.25 52.45 51.55 52.3 51.8 52.4 52.05 52.85 52.2 53.1 52.4 53.6
L 52.3 53.8
Q 52.5 53.9 52 53.9 51.75 53.9 51.55 53.75 51.8 54.4 51.9 55.15 52.25 57.75 52.6 58.55 52.9 59.2 53.4 59.75
L 53.45 59.75
Q 54.05 59.75 54.3 60.65 55 61.15 55.95 61.55
L 56.05 61.7
Q 56 61.8 55.95 61.95 55.9 62.05 55.6 62.05 55.05 62.05 54.55 61.8 54.55 61.95 54.55 62.1
L 57.5 62.1 58.3 62.75 60 62.75
Q 59.65 62.45 59.65 62.25 59.65 62 59.85 61.2 60.05 60.4 60.05 60.15 60.05 59.35 60 59.05 59.85 58.9 59.3 58.9 59.2 58.9 58.35 59.15
L 58.35 59.05
Q 58.35 58.25 57.85 57.55 57.2 56.65 56.05 57.55
L 56.05 57.45
Q 56.2 56.35 55.6 54.45 55.3 53.6 54.55 52.9 53.9 52.25 53.9 51.9 53.9 51.75 54.75 50.3 55.6 48.85 55.6 47.45 55.8 45.5 54.95 45.5 54.2 45.5 54 45.45 53.75 45.3 53.45 45.3 52.2 45.3 51.85 45.5 51.65 45.65 51.4 45.9 51.7 45.75 51.75 45.75 52.05 45.85 52.2 46.15 52.15 46.25 51.35 47.15 50.9 47.7 51.15 48.05 51.1 48.2 51.05 48.3 51.05 48.35 50.7 48.35 50.4 48.35 50.25 48.3 50 48.15 49.85 48.15
L 49.85 47
Q 50.35 46.65 50.75 46.3 51.1 46.05 51.35 45.95
L 51.35 45.8
Q 51.55 45.25 51.5 44.9 51.45 44.55 51.15 44.35 51.15 44.4 51.15 44.45
L 50.3 45.7
Q 49.45 46.9 49.45 47.95 49.2 48.05 48.8 48.15 48.6 48.05 48.6 47.95 48.6 47.9 48.6 47.45 48.6 46.45 49.15 45.15 49.3 44.7 49.5 44.4 49.1 44.6 48.75 44.9 47.9 45.75 47.3 45.95 47.3 45.1 47.15 44.7 46.9 44 45.7 44 44.85 44.15 44.1 44.15 44.1 43.15 44 42.9 44 42.75 43.45 42.75
M 44.1 46.05
Q 44.1 45.65 44.25 45.45 44.35 45.15 44.75 44.9 44.95 45 44.95 46.1 44.95 46.4 45.15 46.5 45.3 46.6 45.5 46.7 45.4 45.9 45.4 45.85 45.4 44.95 46.25 44.25 46.35 44.3 46.55 44.3 46.65 44.35 46.65 44.65 46.65 44.95 46.45 45.3 46.25 45.65 46.25 45.9 46.25 46.25 46.65 46.6 47.15 47.1 47.3 47.45 47.25 47.55 47.2 47.7 47.15 47.75 46.85 47.75
L 46.85 48
Q 46.75 48.2 46.75 48.25 46.6 48.35 46.25 48.35 45.15 48.35 44.55 47.3 44.1 46.6 44.1 46.05
M 40.9 45.3
Q 41.35 44.95 41.35 44.9 42.1 45.3 42.85 46.15 42.8 46.3 42.75 46.4 42.7 46.5 42.4 46.5 41.95 46.5 41.55 46.05 41.15 45.55 40.9 45.3
M 54.5 48.4
Q 54.45 48.5 54.55 48.75 54.55 49.45 53.7 50.25 53.45 50.4 53.15 50.65 53.25 50.7 53.25 51.05 53.25 51.3 53.05 51.3
L 53 51.3
Q 53.55 52.1 54.1 53.6 54.05 53.75 54.05 53.8 54.05 53.9 53.8 53.9 53.85 53.95 53.9 54.05
L 53.75 54.25
Q 53.9515625 54.3306640625 53.6 54.35 53.7328125 54.3634765625 53.85 54.4 54.65 54.6 55.15 55.3 55.15 55.4 55.15 55.5 55.05 55.65 54.75 55.65 54.3 55.65 53.8 55.35 53.75 55.3 53.05 54.8 53.05 54.3873046875 53.35 54.35 53.004296875 54.2484375 52.6 53.35 52.4 53.05 52.3 52.65 52.1 52.15 52.05 51.55
L 51.55 51.55 51.55 50.75
Q 51.5 50.65 51.45 50.6 51.15 50.1 51.15 50.05 51.15 49.3 52.45 47.8 53.95 46.15 54.9 47.3
L 54.95 47.45
Q 54.9 47.5 54.8 47.6 55.1 47.75 55.4 48.05 54.55 48.4 54.5 48.4
M 26.25 47.65
Q 26.4 47.7 26.45 47.65 27.65 48.4 28.8 50.6 28.8 50.75 28.8 50.9 28.7 50.95 28.35 50.95 27.05 50.95 26.1 48.05 26.1 47.7 26.25 47.65
M 36 52.95
Q 35.9 53.1 35.6 53.1 34.55 53.1 33.9 52.25 33.45 51.45 33.45 51.4 33.45 51.05 33.7 50.9 33.9 50.9 33.9 50.85 34 50.95 34.9 51.6 35.6 52.1 36 52.75 36 52.85 36 52.95
M 54.55 57.15
Q 54.75 56.7 55.15 56.7
L 55.4 57 55.15 57.3
Q 54.75 57.3 54.55 57.15
M 94.35 33.65
Q 94.25 33.65 94.15 33.7 94.25 33.7 94.35 33.7 94.4046875 33.7 94.45 33.7 94.4 33.65 94.35 33.65
M 97.55 28.95
L 97.55 28.9 97.45 28.8
Q 96.95 28.55 96.7 28.55 96.5 28.5 96.45 28.55
L 96.4 28.8
Q 96 29.15 95.25 29.95 94.05 31.15 90.65 31.15 87.75 30.85 87.3 31.05 87.3 31.35 87 31.95 86.65 32.55 86.65 32.65 86.9 32.85 87.45 32.95 87.25 33.05 86.1 33.95 84.75 34.95 84.75 35.15 84.75 36 83.8 36.45 82.15 37.25 81.15 38.2 81.4 38.35 81.8 39 81.95 39.3 82.95 39.35
L 82.85 39.45 81.8 40.7 82.2 41.15
Q 82.15 41.2 81.05 41.65 80.2 42 79.85 42.65 80.1 42.9 82.4 42.9 83.8 42.9 84.75 42.65 84.65 42.65 84.55 42.65
L 82.4 42.6
Q 82.2 42.8 82.2 42.3 82.2 42 82.25 42 82.35 42 82.4 42 86.3 41.45 87.1 40.5 87.45 40.1 87.75 39.55 87.75 39.45 87.75 39.4 87.75 39.25 87.7 39.1 87.6 38.9 87.5 38.75 87.3 38.3 87.3 38.05 87.3 36 88.75 35 88.55 35 88.4 35 88.2 35 88.1 35 88 35.1 87.95 35.15 87.95 35.05 87.95 34.95 87.85 34.85 87.75 34.8 88.35 34 89.3 33.7 90.8 33.15 94.55 32.85
L 94.55 32.75
Q 94.7 32.85 94.9 33.05 95.4 32.6 95.85 32 96.65 31.1 96.7 31.05 96.8 31.15 96.95 31.15
L 97 31.2
Q 97.55 29.75 97.55 28.95
M 96.55 29.7
Q 96.7 29.75 96.7 30.05 96.7 30.45 94.95 31.7 93.15 32.85 92.4 32.85
L 90.95 32.85
Q 90.7 33 90.7 32.5 90.7 32.2 90.75 32.2 90.9 32.25 90.95 32.2 93.25 31.8 94.9 30.7 95.7 30.15 96.25 29.55 96.4 29.65 96.55 29.7
M 86.55 36.05
Q 86.65 36.2 86.65 36.55 86.65 37.45 85.4 37.7 85.2 37.9 85.2 37.4 85.2 37.3 85.55 36.75 86 36.15 86.25 35.95 86.4 36 86.55 36.05
M 86.45 40
Q 86.35 40.3 86.1 40.55 85.65 40.95 85.2 40.95 84.6 40.95 84.35 40.75 84.75 40.3 86.05 39.55 86.3 39.7 86.45 40
M 90.55 17.3
Q 90.05 18.4 89.05 18.4 88.75 18.4 88.65 18.35
L 88.6 18.25 88.6 17.15
Q 88.65 16.4 88.15 16.15 87.45 16.05 87 16.3 86.7 16.65 86.6 16.7
L 85.35 16.7
Q 85.4 16.8 85.4 17 85.4 17.1 85 17.7 84.885546875 17.8908203125 84.75 18.05 84.875 17.9125 84.95 17.8 85.9 16.7 86.9 16.9 86.9 17.1 87.1 17.4 86.5 17.7 85.8 18.4 84.95 19.15 84.9 19.65 84.75 19.75 84.35 19.85
L 84.15 19.75
Q 84.1 19.7 84.1 19.4 84.1 18.96484375 84.5 18.35 84.4353515625 18.4646484375 84.35 18.55
L 83.7 18.55
Q 83.5 18.1 84.1 17.35 84.65 16.6 84.95 16.55 85.05 16.6 85.2 16.65 85.1 16.5 84.9 15.8 84.65 15.1 84.35 14.85 83.3 14.85 82.95 15.1 82.65 15.4 82.4 15.5 82.4 14.55 82.35 14.3 82.2 13.6 81.55 13.6 80.9 13.6 80.45 14 80.1 14.3 79.5 14.25 79.7 14.4 79.85 14.65 79.6 15.1 78.8 15.9 78 16.7 77.75 17.1
L 77.1 17.1
Q 77.1 16.35 77.75 15.5 78.4 14.55 79.4 14.25 79.3 14.25 79.2 14.25 79.2 13.55 78.8 13.15 78.45 13.15 78.05 13.6 77.5 14.05 76.9 14.25
L 76.9 14.1
Q 76.9 13.15 76.45 12.55
L 76.05 12.75
Q 76.05 12.8 76 13.35 75.8 13.85 74.95 13.8
L 75.1 13.5
Q 75.2 12.4 75.2 11.8 75.2 10.8 74.1 10.2
L 73.7 10.4
Q 73.7 11.2 73.25 11.9 72.75 9.8 72.45 8.7 71.95 6.65 71.35 5.5 70.9 5.65 70.9 6.35 70.9 6.65 71.15 7.4 71.2 7.75 71.3 8.05 70.85 8.45 70.9 9.4 70.9 9.85 70.8 10.15 70.9 10.05 71.05 9.95 71.6 9.65 72 9.65
L 72.2 9.95
Q 72.1 10.25 71.8 10.5 71.55 10.75 71.35 10.75 70.55 10.75 70.3 10.55 70.35 10.45 70.4 10.4 70.35 10.4 70.3 10.4 68.45 10.4 67.2 11.75 66.7 12.25 66.35 12.95 65.9 13.75 65.55 14.75 65.5 15 65.4 15.2 65.3 15.4 65.15 15.6 64.65 16.05 64.55 18.05 62.95 18 62.85 19.1 62.8 19.35 62.95 20.2
L 63.5 20.2 64.1 20.95
Q 63.45 21.25 63.2 21.15 63.1 21.05 63.05 21.05 60.95 21.05 59.55 22.8 58.85 23.65 58.35 24.75
L 57.75 24.75
Q 57.35 23.7 59.2 21.8 60.35 20.75 61.1 20.35 60.65 20.5 60.25 20.65 59 21.15 58.5 22.1 58.2 22.1 58 22.25 57.15 22.7 56.5 24.55 55.8 26.5 55.8 27.85 55.8 28.4 56.05 28.55
L 56.45 28.5
Q 56.6 28.35 56.85 27.95 57.1 27.45 57.1 27.4 57.1 28.5 57.3 29
L 57.75 28.9
Q 58.5 27.4 60.9 25 60.9 25.5 61.2 26 61.45 26.45 61.75 26.45 62.3 26.45 62.05 26.35 62.5 24.85 62.75 24.15 63.15 22.9 63.7 22.25
L 63.7 22.4
Q 63.8 22.6 63.65 23.1 63.65 23.55 64.35 23.7
L 64.75 23.6 64.75 24.1
Q 64.75 25.15 64.35 27.15
L 64.35 30.5 65.6 30.55
Q 66.6 30.55 68 27.4 69.9 22.95 71.2 20.2 71.6 20.6 71.85 20.85 72 21 72 21.4 72 22.75 71.35 24.3 70.7 25.9 70.7 26.85 70.7 27.15 70.9 27.25 70.9 27.3 71.35 27.35 74.85 26 75.8 23.1 76.35 19.95 77.1 18.55 77.15 19.1 77.35 20.7 77.5 22 77.5 22.85
L 79 22.85
Q 79.25 22.85 80.5 22
L 80.5 22.1
Q 79.6 24.1 78.35 28.1 77 31.7 74.95 33.95 75.2 34.15 76.45 34.15 78.15 34.15 79.85 32.65
L 81.55 31.15
Q 85.15 31.15 86.9 25.15
L 86.9 26.7
Q 86.9 26.95 86.05 28.4 86.05 28.75 86.2 28.8 86.3 28.85 86.65 28.85 86.9 28.6 89.05 27 89.85 26.45 90.3 25.95 89.35 26.6 89 26.65
L 88.8 26.5
Q 88.85 26.05 89.8 25.25 90.65 24.55 91.15 24.45 91.4 24.55 91.55 24.85 91.25 25.15 91.05 25.35 91.25 25.4 91.65 25.5
L 91.55 25.5
Q 91.15 26.1 91.15 26.6 91.15 26.95 91.3 27.05 91.35 27.1 91.8 27.15
L 94.7 25.05
Q 95.5 24.4 95.8 23.8 95.9 23.5 96.05 23.2 96.05 23.1 96.05 23 96.05 22.5 95.6 22.1 95.25 22.45 94.1 24.05 93 25.45 92.4 25.95
L 92.4 25.85
Q 93.7 24 93.7 23.75 93.7 23.4 93.55 23.3 93.4 23.25 93.25 23.15 92.15 24.25 92 24.25
L 92 24.15
Q 92.35 22.85 92.4 21.95 92.4 21.75 92.4 21.7 92.3 21.85 92.15 22 91.85 22.4 91.55 22.8 91.5 22.95 91.35 23.25 91.35 23.05 91.4 22.9 90.25 24 88.4 25.2 87.95 25.15 87.75 25 90 23.45 91.25 21.05 91.95 19.7 92.85 17.65 93.25 18 93.25 18.8 93.25 19.4 93.15 20.05 93.25 19.85 93.4 19.6 93.9 18.8 93.9 17.95 93.9 17 93.85 16.75 93.7 16 93.05 15.7 92.65 15.8 92.4 16.15 92.15 16.55 92 16.7
L 91.35 15.95
Q 91.2 16 90.55 17.3
M 82.5 16.05
Q 82.648828125 16.198828125 82.65 16.55 82.65703125 16.145703125 83.7 15.5 83.95 15.65 84.1 15.95 84.1 16.05 83.65 16.35 83.2 16.75 82.85 16.85 82.65 17.05 82.65 16.55 81.2 20.5 79.45 20.9 79.2 21.1 79.2 20.55 79.2 20.4 79.85 19.75 80.65 18.95 81.15 18.2 81.4 17.75 82.2 15.95 82.35 16 82.5 16.05
M 83.7 23.5
Q 83.95 23.1 85.6 22.25 87.3 21.25 87.5 21.05 87.7 20.85 88.6 19.8 89.45 18.85 89.65 18.7 89.8 18.8 89.95 18.8 90.1 18.85 90.1 19.1 86.3 24.05 83.9 23.7
L 83.7 23.5
M 83.7 25.65
Q 84.65 25.65 85.3 25.2 85.65 25 86.05 24.65 86.3 24.8 86.45 25.1 86.2 25.5 85.7 25.95 85 26.5 84.35 26.5 83.2 26.5 82.5 26.15
L 82.4 25.85
Q 83.2 25.65 83.7 25.65
M 70.6 12.05
Q 70.65 12.15 70.7 12.3 70.6 12.55 69.75 12.55 69.45 12.8 69.2 13.1 69 13.4 68.9 14 68.6 15.1 68.6 15.85 68.45 15.95 68.35 16 67.9 18.8 67.3 19.25 66.9 19.25 66.85 19.25 66.65 19.2 66.65 18.85 66.6 18.15 66.7 17.35 66.8 16.9 66.9 16.55 66.9 16.5 66.9 16.2
L 67.75 13.5
Q 68.95 10.95 70.85 11.75
L 70.9 11.9
Q 70.75 11.95 70.6 12.05
M 69.75 17.65
Q 69.65 17.7 69 17.7
L 69 16.55
Q 69.2 16.25 69.75 15.1 70.35 14.1 71.15 13.8 71.4 13.95 71.55 14.25 70.85 15.4 69.75 17.65
M 62.85 22.3
Q 62.35 22.95 61.4 23.7 60.4 24.45 60.3 24.65
L 59.85 24.75
Q 59.7 24.6 59.7 24.55 59.65 24.5 59.65 24.05 59.65 23.5 60.7 22.55 61.85 21.45 62.75 22.2
L 62.85 22.3
M 66.2 21.1
Q 66.65 20.55 67.1 20.4 67.2 20.5 67.4 20.5 67.5 20.55 67.5 20.85 66.6 22.2 66.05 22.2 65.8 22.35 65.8 21.85 65.8 21.65 66.2 21.1
M 76.25 13.8
Q 76.65 14.2 76.65 14.95 76.65 15.9 76.4 17.3 76.05 19.25 75.4 19.25
L 74.35 19.2
Q 74.35 18.7 75.05 17.75 75.75 16.9 75.6 16.5 75.6 15.25 75.65 15.05 75.75 14.25 76.25 13.8
M 73.9 12.95
Q 74.15 13.1 74.35 13.4 74.25 13.4 73.35 14.45 72.6 15.2 72 15.4 71.8 15.55 71.8 15.05 71.8 14.7 72.65 13.9 73.45 13.1 73.9 12.95 Z"/>

<path fill="#447744" stroke="none" d="
M 33.2 42.6
Q 33.05 42.45 32.85 42.3 32 42.6 31.85 43.35 31.75 43.6 31.75 44.55 31.75 45.7 32.4 47.1 33.4 49.45 35.6 49.45 36.1 49.45 36 49.25 34.45 47.95 34 47.45 33.35 46.85 33.3 46
L 33.25 46
Q 32.7 46 32.85 44.35 32.85 43.3 33.2 42.6
M 36.4 38.85
Q 36.4 38.75 36.45 38.7 36.3 38.4 36 38.3 35.1 38.5 34.85 39.4 34.8 39.5 34.8 39.75 34.75 40.05 34.75 40.75 34.75 41.9 34.85 42.15 35.1 42.6 36.45 43.7
L 36.65 43.4
Q 36.3 42.35 35.8 41.65 35.6 41.25 35.6 40.65 35.6 40.2 36.4 38.85
M 38.35 39.75
Q 38.35 39.45 38.25 39.45 38.05 39.45 37.95 39.35 37.5 39.6 37.35 40 37.1 40.45 37.1 41.15 37.1 42.8 37.5 43.05 37.95 42.95 38.05 42.85 38.15 43.15 38.15 42.6 38.35 40.8 38.35 39.75
M 27.7 41.05
Q 26.55 40.4 26.55 42.95 26.55 43.75 26.85 45.15 27.05 46 27.4 47.45 27.75 49.15 32.2 51.8 32.5 51.8 32.55 51.75 32.55 51.6 32.6 51.45 32 51.1 31.25 50 30.55 48.9 30.25 48.2 30.15 47.85 30.2 47.3 30.25 46.7 30.25 46.45 30.25 45.95 29.7 45.6 29.1 45.2 29 45 28.9673828125 44.28125 28.85 43.65 28.8677734375 43.619140625 28.85 43.55 28.823828125 43.3400390625 28.8 43.15 28.4814453125 41.4916015625 27.7 41.05
M 10.8 47.85
Q 10.55 47.45 10.3 47.05 9.3 45.65 9.3 48.6 9.3 49.65 9.75 50.3 10.3 51.2 10.55 52.25 10.75 53.15 11.9 54.2 12.55 54.85 14.2 56.25
L 15.8 56.3
Q 16.05 56.25 16.2 56.1 16 56 15.95 55.85 13.8 55.25 12.75 53.55 12.55 53.25 12.35 52.75 11.4 52.3 11 50.3 10.8 48.3 10.8 47.85
M 20.5 59.25
Q 20.8 59.25 20.9 59.2
L 20.9 58.85
Q 20.4 58.35 19.7 57.8 18.75 57.15 18.25 57.15 18.25 57.85 19.15 58.6 19.95 59.25 20.5 59.25
M 49.85 47
L 49.85 48.15
Q 50 48.15 50.25 48.3 50.4 48.35 50.7 48.35 51.05 48.35 51.05 48.3 51.1 48.2 51.15 48.05 50.9 47.7 51.35 47.15 52.15 46.25 52.2 46.15 52.05 45.85 51.75 45.75 51.7 45.75 51.4 45.9
L 51.35 45.95
Q 51.1 46.05 50.75 46.3 50.35 46.65 49.85 47
M 41.05 48.8
Q 41.85 47.8 41.55 47.2 41.4 46.9 39.85 46.2 38.6 45.7 38.9 45 37.7 44.9 37 45.45 36.45 45.9 36.45 46.4 36.45 46.8 37.1 47.3 37.1 47.6 36.85 47.75 36.65 47.85 36.65 48.1 36.65 48.2 36.7 48.3 36.8 48.4 36.85 48.5
L 36.85 48.55
Q 37.1 48.85 37.7 49.15 38.7 49.7 38.7 50.2 38.7 50.4 38.45 50.7 38.15 50.95 38.15 51.25 38.15 51.6 39.45 52.4 40.95 53.35 41.05 53.45 40.7 53.75 40.5 54.2 40.3 54.6 40.3 54.7 40.3 56.05 40.5 57.3 40.55 57.6 40.85 57.95 40.3 58.05 39.75 58.05 39.5 58.05 39.35 57.85 39.15 57.7 38.95 57.65 38.9 57.6 38.85 57.55 38.7 57.5 38.55 57.45 38.5 57.45 38.25 57.75 37.45 57.85 36.3 58 35 57.05 33.7 56.3 31.95 55.35 31.05 55.35 30.8 54.9 30.35 54.6 28.8 53.6 27.1 52.85 27.25 52.05 27.15 51.5 27 50.4 24.95 50.4 24.65 50.4 23 50.9 22.2 51.15 21.4 51.4 21.35 51.4 21.3 51.4 20.55 50.8 19.9 50.3 19 49.6 18.15 49.15 17.95 49.05 17.85 48.95 15.25 47.5 15.25 50.05 15.25 50.4 15.9 51.15
L 17.15 51.25
Q 17.45 51.8 17.4 53.2 17.55 54.3 19.1 54.6 19.1 55.4 20 56.05 21 56.75 22.5 56.8 22.7 57.45 22.7 58.6
L 23.7 58.6
Q 24.3 58.6 24.85 58.3 25.85 57.7 25.9 57.65 26.1 57.75 26.1 57.95 25.95 59.75 26.2 60 26.4 60.2 26.8 60.4 26.3 60.6 25.9 60.9 24.4 61.9 24.3 61.9 23.75 61.9 23.95 61.6 23.75 61.5 22.25 61.4 20.85 61.25 20.4 61.25 20.2 61.25 19.4 61.45 18.65 61.65 17.95 61.7 17.95 61.1 17.7 60.5 17.35 59.75 16.85 59.75 16.1 59.75 15.6 60.05 15.05 60.35 14.55 60.35 13.5 60.35 12.9 58.35 12.35 56.35 11.55 56.35 11.3 56.35 10.85 56.55 10.35 56.75 10.05 56.8
L 9.85 56.65
Q 9.65 55.1 9.4 54.05 8.7 53.85 8.25 52.45 8.2 52.3 8.2 52.25 7.25 51.25 6.85 50.9 6.8 50.8 6.7 50.75 5.95 50.3 5.9 51.55
L 5.9 51.9
Q 5.95 52.05 6.3 52.4 6.75 52.85 6.75 53.1 6.75 53.75 6.85 54.25 6.8 54.35 6.8 54.55 6.75 55.15 6.75 55.85 6.75 56.35 6.9 57.1 6.95 57.45 7.1 57.8 7.2 58.35 7.3 58.85 7.35 59.5 7.35 60.3
L 8.55 60.35
Q 9 60.35 9.25 60.4 9.5 60.5 9.55 60.6 9.65 60.8 9.75 61.4 9.8 61.5 9.85 61.7 10 62.25 11.15 62.6 12.4 62.95 12.5 63.1 12.85 63.65 13.85 65.2 14.7 66.5 15.15 66.5 15.5 66.5 15.55 66.25 15.6 66 16.1 65.95 16.1 66.65 17.35 67.4 18.05 67.8 19.7 68.8
L 22.4 68.85
Q 22.55 68.85 23.4 68.3 24.3 67.75 24.4 67.65
L 25.8 67.65
Q 26 67.85 26.25 68.05 26.55 68.2 27.7 68.2 27.75 68.2 28.8 67.3 29.85 66.35 31.2 66.35 33.6 66.35 34.95 65.1 36.35 63.8 38 63.8 38.15 63.8 41.2 63.6 41.8 63.6 42.65 64.1 43.5 64.6 43.7 64.6 44 64.25 44.55 63.9 45.5 63.2 46.95 63.2 47 63.2 48.2 63.3 49.45 63.5 50.2 63.95
L 50.9 64.85
Q 51.4 65.45 52.2 65.45
L 54 65.3
Q 54.9 66 55.6 66.65
L 57.95 66.8
Q 58.05 66.95 58.2 67.5 58.9 68 61.55 68 62.2 68 63.25 66.95 64.35 66 64.35 65.3 64.35 64.45 63.7 64.05 62.55 63.5 61.55 62.75
L 60 62.75 58.3 62.75 57.5 62.1 54.55 62.1
Q 54.55 61.95 54.55 61.8 55.05 62.05 55.6 62.05 55.9 62.05 55.95 61.95 56 61.8 56.05 61.7
L 55.95 61.55
Q 55 61.15 54.3 60.65 54.05 59.75 53.45 59.75
L 53.4 59.75
Q 52.9 59.2 52.6 58.55 52.25 57.75 51.9 55.15 51.8 54.4 51.55 53.75 51.4 53.65 51.3 53.45 51.15 53.2 51.15 52.95
L 51.15 52.9
Q 49.65 50.4 45.4 49.35 41.1 49.45 41.05 48.8
M 55.15 56.7
Q 54.75 56.7 54.55 57.15 54.75 57.3 55.15 57.3
L 55.4 57 55.15 56.7
M 35.6 53.1
Q 35.9 53.1 36 52.95 36 52.85 36 52.75 35.6 52.1 34.9 51.6 34 50.95 33.9 50.85 33.9 50.9 33.7 50.9 33.45 51.05 33.45 51.4 33.45 51.45 33.9 52.25 34.55 53.1 35.6 53.1
M 54.55 48.75
Q 54.45 48.5 54.5 48.4 54.55 48.4 55.4 48.05 55.1 47.75 54.8 47.6 53.35 48.75 52.8 49.65 52.3 50.4 52.3 51.25
L 52.2 51.35
Q 51.9 51.2 51.55 50.75
L 51.55 51.55 52.05 51.55
Q 52.1 52.15 52.3 52.65 52.4 53.05 52.6 53.35 53.004296875 54.2484375 53.35 54.35 53.05 54.3873046875 53.05 54.8 53.75 55.3 53.8 55.35 54.3 55.65 54.75 55.65 55.05 55.65 55.15 55.5 55.15 55.4 55.15 55.3 54.65 54.6 53.85 54.4 53.7328125 54.3634765625 53.6 54.35 53.9515625 54.3306640625 53.75 54.25
L 53.9 54.05
Q 53.85 53.95 53.8 53.9 54.05 53.9 54.05 53.8 54.05 53.75 54.1 53.6 53.55 52.1 53 51.3
L 53.05 51.3
Q 53.25 51.3 53.25 51.05 53.25 50.7 53.15 50.65 53.45 50.4 53.7 50.25 54.55 49.45 54.55 48.75
M 44.25 45.45
Q 44.1 45.65 44.1 46.05 44.1 46.6 44.55 47.3 45.15 48.35 46.25 48.35 46.6 48.35 46.75 48.25 46.75 48.2 46.85 48
L 46.85 47.75
Q 45.8 47.75 45.5 46.85 45.5 46.75 45.5 46.7 45.3 46.6 45.15 46.5 44.95 46.4 44.95 46.1 44.95 45 44.75 44.9 44.35 45.15 44.25 45.45
M 65.6 14.1
Q 65.6 14.45 65.55 14.75 65.9 13.75 66.35 12.95 66.7 12.25 67.2 11.75 65.6 13 65.6 14.1
M 87.75 39.55
Q 87.8 39.45 87.8 39.4 87.8 39.2 87.7 39.1 87.75 39.25 87.75 39.4 87.75 39.45 87.75 39.55
M 89.6 34.85
L 89.85 34.8
Q 90.05 34.7 90.15 34.55 89.95 34.6 89.8 34.7 89.7 34.75 89.6 34.85
M 97.55 28.9
Q 97.55 27.15 96.9 26.15 95.9 26.85 95.35 27.65 95.25 27.5 95.2 27.4 94.7 27.5 94.75 27.9 94.8 28.2 94.3 28.2 94.1 28.2 92.4 28.6
L 92.5 28.5
Q 93.45 27.3 95.05 25.15 95.55 24.5 95.8 23.8 95.5 24.4 94.7 25.05
L 91.8 27.15
Q 91.35 27.1 91.3 27.05 91.15 26.95 91.15 26.6 91.15 26.1 91.55 25.5
L 91.65 25.5
Q 91.25 25.4 91.05 25.35 90.65 25.6 90.4 25.85 90.35 25.9 90.3 25.95 89.85 26.45 89.05 27 86.9 28.6 86.65 28.85 86.3 28.85 86.2 28.8 86.05 28.75 86.05 28.4 86.9 26.95 86.9 26.7
L 86.9 25.15
Q 85.15 31.15 81.55 31.15
L 79.85 32.65
Q 78.15 34.15 76.45 34.15 75.2 34.15 74.95 33.95 77 31.7 78.35 28.1 79.6 24.1 80.5 22.1
L 80.5 22
Q 79.25 22.85 79 22.85
L 77.5 22.85
Q 77.5 22 77.35 20.7 77.15 19.1 77.1 18.55 76.35 19.95 75.8 23.1 74.85 26 71.35 27.35 70.9 27.3 70.9 27.25 70.7 27.15 70.7 26.85 70.7 25.9 71.35 24.3 72 22.75 72 21.4 72 21 71.85 20.85 71.6 20.6 71.2 20.2 69.9 22.95 68 27.4 66.6 30.55 65.6 30.55
L 64.35 30.5 64.35 27.15
Q 64.75 25.15 64.75 24.1
L 64.75 23.6 64.35 23.7
Q 63.65 23.55 63.65 23.1 63.8 22.6 63.7 22.4
L 63.7 22.25
Q 63.15 22.9 62.75 24.15 62.5 24.85 62.05 26.35 62.3 26.45 61.75 26.45 61.45 26.45 61.2 26 60.9 25.5 60.9 25 58.5 27.4 57.75 28.9
L 57.3 29
Q 57.1 28.5 57.1 27.4 57.1 27.45 56.85 27.95 56.6 28.35 56.45 28.5
L 56.05 28.55
Q 55.8 28.4 55.8 27.85 55.8 26.5 56.5 24.55 57.15 22.7 58 22.25 57.75 22.1 57.5 22.1 56.3 22.1 54.1 25.05 52 27.9 52 29.15 52 29.75 51.15 33.1 51.15 34.65 53.35 35.3 53.3 36.5 53.3 36.7 53.4 37.5 53.9 38 54.4 38.45 54.45 39.5 54.45 40.35 55.4 40.75
L 55.8 40.55
Q 55.8 41.3 56.65 42.1 57.65 43.1 59 43.1 59.2 43.1 59.45 43.1 59.65 43.45 60.05 43.75 60.85 44.45 60.9 44.65 61 44.85 61.15 45.8 61.25 46.6 61.55 46.9
L 63.7 46.9
Q 64.05 47.15 65.15 49.2 66.05 50.95 67.1 50.95 68.35 50.95 69.75 47.65 71.85 47.7 72.65 46.6 73.45 45.6 74.1 45.6 74.35 45.6 76.65 47.3
L 78.15 47.35
Q 78.4 47.35 78.5 47.15 78.55 46.9 78.8 46.9 79.1 46.9 79.85 47.15 80.65 47.35 80.95 47.35 81.2 47.35 81.8 46.6 82.35 45.95 82.4 45.65 82.8 44.3 84.05 44.5 85.5 44.65 85.8 44.25 86.55 43.4 87.25 41.8 87.5 41.3 87.7 40.95 87.45 41.2 87.1 41.45 85.9 42.6 84.75 42.65 83.8 42.9 82.4 42.9 80.1 42.9 79.85 42.65 80.2 42 81.05 41.65 82.15 41.2 82.2 41.15
L 81.8 40.7 82.85 39.45 82.95 39.35
Q 81.95 39.3 81.8 39 81.4 38.35 81.15 38.2 82.15 37.25 83.8 36.45 84.75 36 84.75 35.15 84.75 34.95 86.1 33.95 87.25 33.05 87.45 32.95 86.9 32.85 86.65 32.65 86.65 32.55 87 31.95 87.3 31.35 87.3 31.05 87.75 30.85 90.65 31.15 94.05 31.15 95.25 29.95 96 29.15 96.4 28.8
L 96.45 28.55
Q 96.5 28.5 96.7 28.55 96.95 28.55 97.45 28.8
L 97.55 28.9
M 91.55 22.8
Q 91.45 22.85 91.4 22.9 91.35 23.05 91.35 23.25 91.5 22.95 91.55 22.8
M 94.55 21.1
Q 94.45 20.85 94.1 20.85 93.8 20.85 93.6 20.95
L 93.5 21.05 93.2 22 92.4 21.95
Q 92.35 22.85 92 24.15
L 92 24.25
Q 92.15 24.25 93.25 23.15 93.4 23.25 93.55 23.3 93.7 23.4 93.7 23.75 93.7 24 92.4 25.85
L 92.4 25.95
Q 93 25.45 94.1 24.05 95.25 22.45 95.6 22.1 96.05 22.5 96.05 23 96.05 23.1 96.05 23.2 96.25 22.45 96.25 21.7 96.2 21.25 95.6 20.85 95.25 21 95.25 21.4 95.25 21.6 94.55 21.6 94.55 21.15 94.55 21.1 Z"/>
</g>

<g id="skinFashion_0_Layer0_0_FILL">
<path fill="#663300" stroke="none" d="
M 74.1 92.7
L 74.1 92.6
Q 73.8 92.9 73.5 93.1 73.9 93.2 74.55 92.95 74.35 92.85 74.1 92.7
M 71.15 92.05
L 73.05 92.1
Q 73.35 92.1 73.7 92.1 73.9 92.25 74.05 92.5
L 74.05 92.2
Q 73.15 91.8 72.7 91.7 72.2 91.55 70.2 91.25 70.8 91.65 71.15 92.05
M 69.85 93.3
L 68.65 93.75
Q 68.9 93.75 69.2 93.75 70.2 93.75 70.75 93.35 70.8 93.3 70.9 93.3 70.1 93.2 69.85 93.3
M 66.9 89.25
L 66.9 89.3
Q 67.15 89.75 67.95 90.1 68.35 90.25 68.7 90.45 68.35 90.1 68.05 89.95 67.5650390625 89.5619140625 66.9 89.25
M 66.9 86
Q 66.9 86.1 66.85 86.25 67 86 67 85.8 67 85.65 66.9 85.25 66.8 85.45 66.7 85.8 66.9 85.95 66.9 86
M 64.75 83.2
Q 64.8 83.25 64.9 83.25 64.85 83.2 64.75 83.1 62.25 83.25 62 83.2 61.7 82.9 60.5 82.2 60.85 82.65 61.1 83.25 61.35 83.2 61.75 83.25 62.6 83.4 64.75 83.2
M 63.9 76.9
Q 63.8 76.95 63.75 77.05 64.1 77.6 64.6 78.5
L 63.9 76.9
M 59.15 89.85
Q 58.95 89.8 58.9 89.75 58.9 89.8 59 89.85
L 59.15 89.85
M 60.1 89.2
Q 60.2 89.25 60.25 89.3 61.1 89.5 62.2 89.55 62.45 89.7 62.6 90 62.45 90.3 62.2 90.35 61.7 90.35 61.25 90.3 60.5 91.15 60.25 91.65 59.95 92.3 60.05 93.25
L 60.2 93.25
Q 60.05 92.9 60.05 92.7 60.15 92.7 61.55 92.6 61.9716796875 92.6 62.4 92.55 62.2630859375 92.584765625 61.85 92.75 62.3 92.85 63.25 92.8 65.35 92.7 65.6 92.75 65.7 92.75 65.8 92.95 65.95 93.1 66.25 93.1
L 67.85 93.1
Q 68.4 92.7 70.2 92.4 68.45 90.9 65.6 89.05 64.55 88.7 64.55 88.65 64.55 88.45 64.75 88.2 64.4 88.2 64.35 88.15 64.25 88.1 64.1 88 64.5 87.25 65.15 86.4 65.5 86 65.75 85.75 65.5 84.55 65.2 83.8 65.15 84.05 65.05 84.1 64.9 84.15 64.75 84.15 62.2 84.2 61.75 84.05 61.6 83.85 61.35 83.75
L 61.35 83.8
Q 61.35 84.05 60.9 84.65 60.85 84.8 60.75 84.95 61.15 85.3 62.35 86.65 63.5 87.9 64.35 88.7 64.3 88.85 64.25 88.95 64.2 89.05 63.9 89.05 62.05 89.05 61 87.4 60.9 87.25 60.9 87.15 60.8 87.25 60.65 87.35 60.8 87.45 60.9 87.65 60.8 87.85 60.35 88.4 60.05 88.7 60.05 88.95 60.05 89.05 60.1 89.2
M 68.05 92.1
Q 67.85 92.05 67.75 92.05 66.85 92 64.9 91.65 63.2 91.3 62.85 91.2 63.1 90.65 64.05 90.7 64.75 90.8 67.65 91.25 67.95 90.95 68.25 90.95 68.65 91.05 68.8 91.8 68.9 92 68.35 92 68.25 92 68.15 91.95 68.1 92.05 68.05 92.1
M 59.95 86.45
Q 59.9 86.4 59.85 86.3 59.65 86.5 59.45 86.8 59.7 86.55 59.95 86.45
M 60.7 83.5
Q 60.5 83.35 60.35 83.25 60.3 83.5 60.3 83.95 60.5 83.7 60.7 83.5
M 60.6 79.25
Q 60.5 79.75 60.5 80.2 60.5 80.65 60.9 81.7
L 60.9 81.8
Q 61.4 81.8 62.15 82 63.5 82.35 64.35 82.5
L 64.35 82.45
Q 63.9 81.9 63.25 81.55 63.4 81.4 63.55 81.3 63.3 81.15 63.15 80.85 62.85 80.35 62.85 79.8 63.6 79.5 64.2 80.15 64.55 80.5 64.95 81.25 64.9 81.4 64.9 81.5 64.9 81.55 64.8 81.6 65 81.8 65.2 82.05 65.5 82.35 65.7 82.65 65.4 82.1 65.05 81.4 63.55 78.6 63.2 77.65 62.4 78.4 61.35 79.45
L 61.2 79.4
Q 61.15 79.35 61.15 79.05 61.15 78.95 61.2 78.75 60.9 79 60.6 79.25
M 55.45 59.65
Q 55.1 59.35 54.55 58.9 54.45 58.9 54.4 58.95 54.85 59.35 55.25 59.75 55.3 59.7 55.45 59.65
M 68.8 67.45
Q 68.8 67.25 68.75 67.2 68.5 68.65 68.25 70 68.8 68.65 68.8 67.45
M 61.55 60.25
Q 61.55 60.15 61.55 60.1 61.4 60.35 61.25 60.6 61.2 60.8 61.1 61 61.05 60.95 60.95 60.95 60.7 60.95 60.45 60.95 60.45 60.9 60.4 60.9
L 60.3 60.85
Q 57.4 60.6 56 59.95 55.95 59.9 55.9 59.9 56.75 60.85 58.1 61.05 58.7 61.15 59.8 61.25 60.15 61.2 60.6 61.15 60.7 61.2 60.8 61.35
L 60.85 61.35 60.9 61.55
Q 60.9 61.65 60.9 61.75 60.95 61.8 61.45 62.1 62.2 62.5 62.4 62.75 62.35 62.85 62.35 62.95 62.3 63.1 62 63.1 61.4 63.1 60.6 62.6 60.2 62.3 59.95 61.95 57.45 61.5 56.6 61.25
L 56.55 61.25
Q 60.8 66 63.8 67.3
L 63.9 67.45
Q 63.85 67.55 63.8 67.7 63.75 67.8 63.5 67.8 63.35 67.8 63.2 67.75 63.1 68.15 62.75 68.4 62.2 68.9 62.2 69.5
L 62.2 70.15
Q 62.35 70.55 62.75 70.7 62.9 70.55 62.95 70.4 62.85 70.35 62.75 70.25
L 62.6 69.7
Q 62.6 69.15 63.1 68.65 63.45 68.3 64.35 67.65 64.6 67.8 64.75 68.05
L 63.55 69.55
Q 63.65 69.6 64.25 69.85 64.65 70.05 64.9 70.3
L 64.95 70.4
Q 64.9 70.55 64.9 70.65 64.85 70.75 64.55 70.75 64.05 70.75 63.65 70.65 63.5 71.1 63.15 71.8 62.8 72.55 61.75 74.1
L 61.45 74.1
Q 61.3 74.35 61.15 74.55 58.6 77.75 58.6 79.6 58.6 80.75 59.5 81.3 59.65 81.4 59.75 81.5 59.7 81.3 59.65 81.15 59.65 81 59.65 80.95 59.45 80.4 59.45 79.55 59.45 78.35 59.5 78.1 59.65 77.8 60.15 77.3 60.477734375 76.890234375 60.95 76.25
L 61.2 75.95
Q 62.1765625 74.7216796875 63.7 72.75 63.8 72.85 64 72.85 64.1 72.9 64.1 73.2 64.1 73.5 63.35 74.5 63.55 74.45 63.75 74.4 64.7 73.45 64.75 73.4 64.9 73.5 65.05 73.5 65.2 73.6 65.2 73.85 65.8 72.8 66.4 71.6 67 70.35 67.4 69.4
L 67.35 69.4
Q 67.3 69.35 67.3 69.05 67.3 67.9 67.55 67.25 67.35 67.3 67.1 67.3 66.7 65.85 66.45 65 66.35 64.75 66.3 64.5 65.8 63.7 65.2 62.65 63.4 62.65 62.3 61.5
L 61.55 60.25
M 62.45 49.75
Q 62.4 49.9 62.4 50.25 62.8 49.45 62.95 48.85 62.55 49.55 62.45 49.75
M 66.6 55.4
Q 66.65 55.2 66.65 54.55 66.9 53.8 67.15 53.1 66.5 54.75 66.05 55.75 66.4 55.6 66.6 55.4
M 66.05 49.3
Q 66.05 49.15 66.05 49.1 66.05 49 66.05 48.9
L 65.35 50.5
Q 65.75 49.75 66.05 49.3
M 61.2 42.55
Q 61.1 42.55 60.95 42.55 61.2 42.6 61.4 42.75 61.3 42.6 61.2 42.55
M 58.35 42.85
L 59.45 42.9
Q 59.7 42.9 59.75 42.65 59.75 42.6 59.8 42.55 58.95 42.5 58.35 42.45
L 58.35 42.85
M 50.4 39.45
Q 48.95 38.6 47.95 37.2 49.6 40.2 53.8 41.25 56.15 41.15 56.95 41.05 57.75 41.05 58.5 41.4 59.2 41.7 61.55 41.7 62.3 42.1 63.15 44.8 63.9 47.1 63.9 47.75 63.9 48.45 63.85 48.95 64.35 49 64.35 49.45 64.35 49.65 63.75 50.7 63.9 50.75 63.9 51.05 63.9 51.75 63.45 52.95 63.4 53.25 63.25 53.7 63.05 54.55 63.05 54.8 63.05 55.55 63.45 56.4 63.9 57 64.1 57.45 64.05 57.5 64.05 57.65 64 57.75 63.7 57.75 63.6 57.75 63.5 57.75 63.4 57.75 63.25 57.75 62.6 57.75 62.35 56.95 62.3 56.9 62.25 56.8 62.1 56.75 62.05 56.65
L 62 56.65 62 56.6
Q 61.7 56.35 61.6 55.8 61.35 55.35 61.35 55.15 61.35 54.9 61.45 54.75 61.25 54.6 61.2 54.35 61.2 54.3 61.2 54.25 61.15 54.55 61.15 54.9 60.7 55.25 60.6 55.55 60.5 55.75 60.5 56.6 61.2 58.6 61.7 59.75 61.85 59.4 62.2 59.15 62.4 59.55 62.4 60.1 62.4 60.4 63.45 60.95 64.1 61.3 64.6 61.6 63.9 60.4 63.05 58.9 63.05 58.35 63.7 57.85 63.9 58.3 63.9 58.85 63.9 59.2 64.95 61
L 64.95 60.95
Q 64.95 60.85 65 60.75 64.1 59.6 64.1 59.2 64.1 58.85 64.25 58.8 64.35 58.75 64.55 58.7 64.6 58.75 64.7 58.85 64.55 58.2 64.55 57.65 64.55 57.3 64.75 56.65 64.8 56.55 64.85 56.45 64.75 56.35 64.75 56.1 66.45 54.05 66.45 53.3 66.25 51.9 67.1 50.3 67.95 48.25 68.5 47.15 69.5 45.3 70.7 44.45
L 73.5 44.45
Q 77.65 43.1 78.5 40.85
L 78.95 38.95
Q 79.1 38.45 79.3 38 79.2 37.8 79 37.65 78.65 38 78.15 39.25 77.5 40.8 77.45 40.95 77.15 41.55 75.1 42.5 73.2 43.4 72.95 44.35 72.75 44.2 72.55 44.1 72.35 43.9 72.2 43.8
L 69.65 43.8
Q 68.5 44.6 67.7 45.75 68.1 45.45 68.6 45.5 68.85 45.65 69 45.95 67.8 47.45 67.5 48 67.2 48.5 67.1 48.9
L 67.1 48.95
Q 66.95 49.45 67.1 49.75
L 66.95 50
Q 67.2 50.05 66.65 50.05 66.6 50.05 66.5 50.05 66.35 50.3 66.15 50.6 65.2 52.3 65.1 53.25
L 64.35 53.45
Q 64.1 53.65 64.1 53.15 64.1 52.75 64.95 51.2 65.3 49.7 65.1 48.05 64.9 46.05 64 44.65 62.1 41.45 61.75 41.15 61.3 39.6 59.8 40.5 59.75 40.5 59.75 40.55 59.35 40.5 59.05 40.45
L 59 40.4 58.3 40.4
Q 58.05 40.25 57.95 40.2
L 53.25 40.15
Q 51.6 39.9 50.4 39.45
M 47.5 38.4
Q 48.05 39 48.7 39.45 47.6 38.55 46.7 37.2 46.35 36.7 46.05 36.15 46.5 37.3 47.5 38.4
M 46 33.05
Q 45.8 32.5 45.6 31.9 45.45 32 45.4 32.15 45.75 32.55 46 33.05 Z"/>

<path fill="#79410A" stroke="none" d="
M 66.85 86.25
Q 66.9 86.1 66.9 86 66.9 85.95 66.7 85.8 66.6 86.1 66.45 86.45 66.25 86.95 66.05 87.35 66.65 86.65 66.85 86.25
M 65.75 85.75
Q 65.5 86 65.15 86.4 64.5 87.25 64.1 88 64.25 88.1 64.35 88.15 64.4 88.2 64.75 88.2 65.05 88.2 65.65 87.75
L 65.2 87.75
Q 65.2 87.25 65.6 86.25 65.7 86.05 65.75 85.85 65.75 85.8 65.75 85.75
M 60.35 82
L 60.35 82.1
Q 60.4 82.15 60.5 82.2 61.7 82.9 62 83.2 62.25 83.25 64.75 83.1 64.45 82.7 64.35 82.5 63.5 82.35 62.15 82 61.4 81.8 60.9 81.8
L 60.8 81.9
Q 61 82 60.5 82 60.4 82 60.35 82
M 65.2 73.85
Q 65.2 73.6 65.05 73.5 64.9 73.5 64.75 73.4 64.7 73.45 63.75 74.4 63.95 74.35 64.1 74.35 64.1 74.4 64.25 74.5 64.35 74.55 64.35 74.9 64.35 74.95 62.4 76.35 60.95 77.75 60.6 79.25 60.9 79 61.2 78.75 62.35 77.8 63.5 76.35 65.2 74.4 65.2 73.9
L 65.2 73.85
M 67.1 67.3
Q 67.35 67.3 67.55 67.25 67.55 67.15 67.6 67.1 67.5 67.1 67.3 67.1 67.1 66.75 67.05 65.8 66.75 65.25 66.3 64.5 66.35 64.75 66.45 65 66.7 65.85 67.1 67.3
M 60.85 61.7
Q 60.85 61.5 60.8 61.35 60.7 61.2 60.6 61.15 60.15 61.2 59.8 61.25 59.75 61.25 59.65 61.25 59.7 61.6 59.95 61.95 60.2 62.3 60.6 62.6 61.4 63.1 62 63.1 62.3 63.1 62.35 62.95 62.35 62.85 62.4 62.75 62.2 62.5 61.45 62.1 60.95 61.8 60.9 61.75
L 60.85 61.7
M 69 45.95
Q 68.85 45.65 68.6 45.5 68.1 45.45 67.7 45.75 67.15 46.15 66.65 47 66.1 48.1 66.05 48.9 66.05 49 66.05 49.1 66.05 49.15 66.05 49.3 65.75 49.75 65.35 50.5 65.25 50.6 65.2 50.75 65.05 50.95 64.95 51.2 64.1 52.75 64.1 53.15 64.1 53.65 64.35 53.45
L 65.1 53.25
Q 65.2 52.3 66.15 50.6 66.35 50.3 66.5 50.05 66.6 50.05 66.65 50.05 67.2 50.05 66.95 50
L 67.1 49.75
Q 66.95 49.45 67.1 48.95
L 67.1 48.9
Q 67.2 48.5 67.5 48 67.8 47.45 69 45.95 Z"/>

<path fill="#A45C16" stroke="none" d="
M 65.8 86.05
Q 65.8 85.95 65.75 85.85 65.7 86.05 65.6 86.25 65.2 87.25 65.2 87.75
L 65.65 87.75 65.8 87.75
Q 65.9 87.55 66.05 87.35 66.25 86.95 66.45 86.45 66.6 86.1 66.7 85.8 66.8 85.45 66.9 85.25 66.9 85.05 66.9 84.95 66.9 84.2 66.1 83.3 66.35 83.8 66.45 84.25
L 66.45 85.85
Q 66.25 86.05 65.8 86.05
M 64.35 82.45
L 64.35 82.5
Q 64.45 82.7 64.75 83.1 64.85 83.2 64.9 83.25 64.6755859375 82.81640625 64.35 82.45
M 67.65 91.25
Q 67.6 91.25 67.5 91.35 67.55 91.4 67.75 91.7 67.95 91.85 68.15 91.95 68.25 92 68.35 92 68.9 92 68.8 91.8 68.65 91.05 68.25 90.95 67.95 90.95 67.65 91.25
M 60.35 89.4
Q 60.3 89.35 60.25 89.3 60.2 89.25 60.1 89.2 60.2 89.3 60.35 89.4
M 60.1 87.45
L 60.05 87.45
Q 59.8 87.6 59.45 88.05 59 88.6 59 89.05 59 89.1 59 89.6 59.0783203125 89.7955078125 59.3 89.9 59.372265625 89.9611328125 59.45 90
L 59.55 90.05
Q 59.650390625 90.0833984375 59.75 90.1 59.45 89.85 59.35 89.55
L 59.2 88.85
Q 59.2 88.55 59.6 88 59.8 87.65 60.1 87.45
M 59.65 80.25
Q 59.65 78.45 60.65 76.75 60.806640625 76.49375 60.95 76.25 60.477734375 76.890234375 60.15 77.3 59.65 77.8 59.5 78.1 59.45 78.35 59.45 79.55 59.45 80.4 59.65 80.95 59.65 80.3 59.65 80.25
M 64.1 73.2
Q 64.1 72.9 64 72.85 63.8 72.85 63.7 72.75 62.1765625 74.7216796875 61.2 75.95 62.134765625 74.841796875 63.35 74.5 64.1 73.5 64.1 73.2
M 65.2 60.5
Q 65.4 60.45 65.4 60.4 67.5 63.1 67.95 64.25
L 67.95 66
Q 68.1 66.35 68.15 66.6
L 68.05 66.8
Q 68.2 66.85 67.95 66.9 67.8 67 67.6 67.1 67.55 67.15 67.55 67.25 67.3 67.9 67.3 69.05 67.3 69.35 67.35 69.4
L 67.4 69.4 67.5 69.45 67.95 69.35
Q 68.25 68.9 68.45 67.9 68.6 67.3 68.8 66.9 68.9 66.7 69 66.6
L 68.8 66.3
Q 68.65 66.3 68.6 66.3 68.55 64.55 67.65 62.65 67.6 62.6 67.55 62.55 67.05 61.55 66.35 60.65 65.65 59.7 64.7 58.85 64.6 58.75 64.55 58.7 64.35 58.75 64.25 58.8 64.1 58.85 64.1 59.2 64.1 59.6 65 60.75 65.05 60.6 65.2 60.5
M 62.05 56.65
Q 62.1 56.75 62.25 56.8
L 62.35 56.85
Q 62.3 56.75 62.3 56.65 62.15 56.65 62.05 56.65
M 64.35 49.45
Q 64.35 49 63.85 48.95 63.75 48.9 63.7 48.9 63.4 49.55 62.35 51.45 61.55 53.2 61.55 54.25 61.55 54.3 61.55 55.6 61.55 55.7 61.6 55.8 61.7 56.35 62 56.6 61.75 56.1 61.75 55.2 61.75 54.45 62.35 52.9 62.9 51.15 63.5 50.6 63.6 50.7 63.75 50.7 64.35 49.65 64.35 49.45 Z"/>

<path fill="#4F2B09" stroke="none" d="
M 64.9 83.25
Q 64.953515625 83.3478515625 65 83.45 65.1 83.6 65.2 83.8 65.5 84.55 65.75 85.75 65.75 85.8 65.75 85.85 65.8 85.95 65.8 86.05 66.25 86.05 66.45 85.85
L 66.45 84.25
Q 66.35 83.8 66.1 83.3 65.9 82.95 65.7 82.65 65.5 82.35 65.2 82.05 65 81.8 64.8 81.6 64.05 80.95 63.55 81.3 63.4 81.4 63.25 81.55 63.9 81.9 64.35 82.45 64.6755859375 82.81640625 64.9 83.25
M 60.5 87.25
Q 60.3 87.3 60.1 87.45 59.8 87.65 59.6 88 59.2 88.55 59.2 88.85
L 59.35 89.55
Q 59.45 89.85 59.75 90.1 59.8 90.1 59.85 90.1 59.95 90.15 60.1 90.2 60.35 90.3 60.7 90.3 61 90.3 61.1 90.2 61.1 90.1 61.15 90 60.8 89.65 60.35 89.4 60.2 89.3 60.1 89.2 60.05 89.05 60.05 88.95 60.05 88.7 60.35 88.4 60.8 87.85 60.9 87.65 60.8 87.45 60.65 87.35 60.6 87.25 60.5 87.25
M 60.65 76.75
Q 59.65 78.45 59.65 80.25 59.65 80.3 59.65 80.95 59.65 81 59.65 81.15 59.7 81.3 59.75 81.5 60.05 81.7 60.35 82 60.4 82 60.5 82 61 82 60.8 81.9
L 60.9 81.8 60.9 81.7
Q 60.5 80.65 60.5 80.2 60.5 79.75 60.6 79.25 60.95 77.75 62.4 76.35 64.35 74.95 64.35 74.9 64.35 74.55 64.25 74.5 64.1 74.4 64.1 74.35 63.95 74.35 63.75 74.4 63.55 74.45 63.35 74.5 62.134765625 74.841796875 61.2 75.95
L 60.95 76.25
Q 60.806640625 76.49375 60.65 76.75
M 65.4 60.4
Q 65.4 60.45 65.2 60.5 65.05 60.6 65 60.75 64.95 60.85 64.95 60.95
L 64.95 61
Q 63.9 59.2 63.9 58.85 63.9 58.3 63.7 57.85 63.05 58.35 63.05 58.9 63.9 60.4 64.6 61.6 64.9 62.15 65.2 62.65 65.8 63.7 66.3 64.5 66.75 65.25 67.05 65.8 67.1 66.75 67.3 67.1 67.5 67.1 67.6 67.1 67.8 67 67.95 66.9 68.2 66.85 68.05 66.8
L 68.15 66.6
Q 68.1 66.35 67.95 66
L 67.95 64.25
Q 67.5 63.1 65.4 60.4
M 63.9 51.05
Q 63.9 50.75 63.75 50.7 63.6 50.7 63.5 50.6 62.9 51.15 62.35 52.9 61.75 54.45 61.75 55.2 61.75 56.1 62 56.6
L 62 56.65 62.05 56.65
Q 62.15 56.65 62.3 56.65 62.3 56.75 62.35 56.85 62.35 56.9 62.35 56.95 62.6 57.75 63.25 57.75 63.4 57.75 63.5 57.75 63.65 57.7 63.75 57.6 63.75 57.55 63.9 57.35 63.6 56.9 63.45 56.4 63.05 55.55 63.05 54.8 63.05 54.55 63.25 53.7 63.4 53.25 63.45 52.95 63.9 51.75 63.9 51.05 Z"/>

<path fill="#3E1F00" stroke="none" d="
M 64.2 80.15
Q 63.6 79.5 62.85 79.8 62.85 80.35 63.15 80.85 63.3 81.15 63.55 81.3 64.05 80.95 64.8 81.6 64.9 81.55 64.9 81.5 64.9 81.4 64.95 81.25 64.55 80.5 64.2 80.15
M 67.75 92.05
Q 67.85 92.05 68.05 92.1 68.1 92.05 68.15 91.95 67.95 91.85 67.75 91.7 67.55 91.4 67.5 91.35 67.6 91.25 67.65 91.25 64.75 90.8 64.05 90.7 63.1 90.65 62.85 91.2 63.2 91.3 64.9 91.65 66.85 92 67.75 92.05
M 60.25 89.3
Q 60.3 89.35 60.35 89.4 60.8 89.65 61.15 90 61.1 90.1 61.1 90.2 61 90.3 60.7 90.3 60.35 90.3 60.1 90.2 59.2 90.9 59.2 92.45 59.2 93.2 59.45 93.5 59.85 93.4 60.05 93.25 59.95 92.3 60.25 91.65 60.5 91.15 61.25 90.3 61.7 90.35 62.2 90.35 62.45 90.3 62.6 90 62.45 89.7 62.2 89.55 61.1 89.5 60.25 89.3
M 64.75 68.05
Q 64.6 67.8 64.35 67.65 63.45 68.3 63.1 68.65 62.6 69.15 62.6 69.7
L 62.75 70.25
Q 62.85 70.35 62.95 70.4 62.9 70.55 62.75 70.7 62.7 70.75 62.65 70.85 62.3 70.95 61.9 71.6 61.75 71.9 61.45 72.4 60.6 73.5 59.3 75.15 57.75 77.1 57.75 79.6 57.75 80.9 58.3 81.5 58.6 81.9 60.35 83.25 60.5 83.35 60.7 83.5 60.5 83.7 60.3 83.95 60.1 84.15 60 84.45 59.65 85.15 59.65 85.5 59.65 85.55 59.85 86.3 59.9 86.4 59.95 86.45 59.7 86.55 59.45 86.8 59.35 86.9 59.2 87.05 58.35 88.1 58.35 88.85 58.35 89.4 58.75 89.65 58.8 89.7 58.9 89.75 58.95 89.8 59.15 89.85 59.2111328125 89.88046875 59.3 89.9 59.0783203125 89.7955078125 59 89.6 59 89.1 59 89.05 59 88.6 59.45 88.05 59.8 87.6 60.05 87.45
L 60.1 87.45
Q 60.3 87.3 60.5 87.25 60.6 87.25 60.65 87.35 60.8 87.25 60.9 87.15 60.9 87.25 61 87.4 62.05 89.05 63.9 89.05 64.2 89.05 64.25 88.95 64.3 88.85 64.35 88.7 63.5 87.9 62.35 86.65 61.15 85.3 60.75 84.95 60.85 84.8 60.9 84.65 61.35 84.05 61.35 83.8
L 61.35 83.75
Q 61.6 83.85 61.75 84.05 62.2 84.2 64.75 84.15 64.9 84.15 65.05 84.1 65.15 84.05 65.2 83.8 65.1 83.6 65 83.45 64.953515625 83.3478515625 64.9 83.25 64.8 83.25 64.75 83.2 62.6 83.4 61.75 83.25 61.35 83.2 61.1 83.25 60.85 82.65 60.5 82.2 60.4 82.15 60.35 82.1
L 60.35 82
Q 60.05 81.7 59.75 81.5 59.65 81.4 59.5 81.3 58.6 80.75 58.6 79.6 58.6 77.75 61.15 74.55 61.3 74.35 61.45 74.1
L 61.75 74.1
Q 62.8 72.55 63.15 71.8 63.5 71.1 63.65 70.65 64.05 70.75 64.55 70.75 64.85 70.75 64.9 70.65 64.9 70.55 64.95 70.4
L 64.9 70.3
Q 64.65 70.05 64.25 69.85 63.65 69.6 63.55 69.55
L 64.75 68.05
M 68.75 67.2
Q 68.75 67.05 68.8 67 68.8 66.95 68.8 66.9 68.6 67.3 68.45 67.9 68.25 68.9 67.95 69.35
L 67.5 69.45 67.4 69.4
Q 67 70.35 66.4 71.6 65.8 72.8 65.2 73.85
L 65.2 73.9
Q 65.2 74.4 63.5 76.35 62.35 77.8 61.2 78.75 61.15 78.95 61.15 79.05 61.15 79.35 61.2 79.4
L 61.35 79.45
Q 62.4 78.4 63.2 77.65 63.55 78.6 65.05 81.4 65.4 82.1 65.7 82.65 65.9 82.95 66.1 83.3 66.9 84.2 66.9 84.95 66.9 85.05 66.9 85.25 67 85.65 67 85.8 67 86 66.85 86.25 66.65 86.65 66.05 87.35 65.9 87.55 65.8 87.75
L 65.65 87.75
Q 65.05 88.2 64.75 88.2 64.55 88.45 64.55 88.65 64.55 88.7 65.6 89.05 68.45 90.9 70.2 92.4 68.4 92.7 67.85 93.1
L 66.25 93.1
Q 65.95 93.1 65.8 92.95 65.7 92.75 65.6 92.75 65.35 92.7 63.25 92.8 62.3 92.85 61.85 92.75 62.2630859375 92.584765625 62.4 92.55 61.9716796875 92.6 61.55 92.6 60.15 92.7 60.05 92.7 60.05 92.9 60.2 93.25 60.25 93.35 60.3 93.5
L 61.55 93.55
Q 63.85 93.55 65 93.75 66.2 93.95 67.95 93.95
L 68.65 93.75 69.85 93.3
Q 70.1 93.2 70.9 93.3 71.25 93.35 71.8 93.45 72.65 93.65 73.5 93.1 73.8 92.9 74.1 92.6
L 74.1 92.55
Q 74.1 92.5 74.05 92.5 73.9 92.25 73.7 92.1 73.35 92.1 73.05 92.1
L 71.15 92.05
Q 70.8 91.65 70.2 91.25 69.55 90.9 68.7 90.45 68.35 90.25 67.95 90.1 67.15 89.75 66.9 89.3
L 66.9 89.25 66.85 89.25
Q 66.6 88.65 66.15 88 67.2 87.25 67.5 86.95 67.95 86.45 67.95 85.8 67.95 85.1 67.25 83.5
L 67.3 83.4
Q 67.2 82.55 66.35 81.4 66.2 81.25 66.1 81.15 66 80.95 65.9 80.75 65.2 79.45 64.6 78.5 64.1 77.6 63.75 77.05 63.8 76.95 63.9 76.9 64.2 76.5 64.45 76.25 66.9 75.85 68.25 70 68.5 68.65 68.75 67.2
M 68.25 63.5
Q 67.9 63.1 67.65 62.65 68.55 64.55 68.6 66.3 68.65 66.3 68.8 66.3 68.75 64.2 68.25 63.5
M 60.9 61.75
Q 60.9 61.65 60.9 61.55
L 60.85 61.35 60.8 61.35
Q 60.85 61.5 60.85 61.7
L 60.9 61.75
M 62.4 60.1
Q 62.4 59.55 62.2 59.15 61.85 59.4 61.7 59.75 61.6 59.9 61.55 60.1 61.55 60.15 61.55 60.25
L 62.3 61.5
Q 63.4 62.65 65.2 62.65 64.9 62.15 64.6 61.6 64.1 61.3 63.45 60.95 62.4 60.4 62.4 60.1
M 62.35 56.95
Q 62.35 56.9 62.35 56.85
L 62.25 56.8
Q 62.3 56.9 62.35 56.95
M 63.75 57.6
Q 63.65 57.7 63.5 57.75 63.6 57.75 63.7 57.75 64 57.75 64.05 57.65 64.05 57.5 64.1 57.45 63.9 57 63.45 56.4 63.6 56.9 63.9 57.35 63.75 57.55 63.75 57.6
M 39.2 54.25
Q 36.95 54.6 35.7 54.3 34.55 54.05 34.3 54.1
L 34.4 54.4
Q 34.15 54.35 33.9 54.25 33.55 54.25 33.5 54.35 33.45 54.4 33.45 54.45 33.45 54.75 33.75 55.1 34 55.3 34.1 55.4
L 35.45 55.5
Q 35.7 55.65 39 55.65 39.6 55.65 40.3 55.2 41.05 54.65 44.85 54.65
L 45.15 54.95
Q 45.95 55.05 46.35 55.2 46.7 55.4 46.85 55.4
L 46.85 55.45
Q 47.45 55.85 47.6 56.05
L 48.9 56.05
Q 51.05 57.6 56.25 62.4 61.5 67.3 63.2 67.75 63.35 67.8 63.5 67.8 63.75 67.8 63.8 67.7 63.85 67.55 63.9 67.45
L 63.8 67.3
Q 60.8 66 56.55 61.25
L 56.6 61.25
Q 57.45 61.5 59.95 61.95 59.7 61.6 59.65 61.25 59.75 61.25 59.8 61.25 58.7 61.15 58.1 61.05 56.75 60.85 55.9 59.9 55.75 59.75 55.6 59.55 55.5 59.6 55.45 59.65 55.3 59.7 55.25 59.75 54.85 59.35 54.4 58.95
L 54.35 58.9
Q 54.3 58.9 54.3 58.85 53.3 57.55 51.45 56.1 49.15 54.3 47.3 53.75 47.45 53.85 47.55 54.05 47.4 54.05 47.3 54.05 46.6 53.6 46.1 53.45 44.65 53 39.2 54.25
M 68.45 49.45
Q 68.821484375 48.6255859375 69.2 47.9 69.95 46.3 70.9 45.3
L 73.25 45.2
Q 73.3 45.2 73.4 45.2
L 74.1 45.2
Q 74.45 45.2 74.95 45.2 77.6 45.2 79.2 41.8 80.3 39.45 80.3 37.8 80.3 37.45 80.15 37.35 80 37.3 79.85 37.2 79.5 37.55 79.3 38 79.1 38.45 78.95 38.95
L 78.5 40.85
Q 77.65 43.1 73.5 44.45
L 70.7 44.45
Q 69.5 45.3 68.5 47.15 67.95 48.25 67.1 50.3 66.25 51.9 66.45 53.3 66.45 54.05 64.75 56.1 64.75 56.35 64.85 56.45 64.8 56.55 64.75 56.65 64.55 57.3 64.55 57.65 64.55 58.2 64.7 58.85 65.65 59.7 66.35 60.65 66.4 60.55 66.45 60.4 66.25 60.1 65.85 59.2 65.4 58.2 65.4 57.8 65.4 57.65 65.75 56.85 66.05 56.05 66.05 55.95 66.05 55.85 66.05 55.75 66.5 54.75 67.15 53.1 67.5 52.05 67.95 50.8 68 50.6 68.05 50.45
L 68.1 50.25
Q 68.2375 49.9625 68.35 49.7 68.4068359375 49.573828125 68.45 49.45
M 44.75 32.35
Q 44.75 32.4 45.15 33.9 45.5 35.1 46.05 36.15 46.35 36.7 46.7 37.2 47.6 38.55 48.7 39.45 49.45 40.15 50.2 40.55 52.8 42 56.45 42 56.75 42 57.65 42.3 57.9 42.35 58.35 42.45 58.95 42.5 59.8 42.55 60.35 42.55 60.95 42.55 61.1 42.55 61.2 42.55 61.3 42.6 61.4 42.75 61.8 43.35 62.4 45.25 62.45 45.45 62.55 45.65 62.75 47.25 63.05 47.95 63.05 48.35 62.95 48.85 62.8 49.45 62.4 50.25 61.75 51.5 61.75 51.75 61.4 51.75 61.25 52.1 61.15 52.3 61.15 53.6 61.15 54.05 61.2 54.25 61.2 54.3 61.2 54.35 61.25 54.6 61.45 54.75 61.35 54.9 61.35 55.15 61.35 55.35 61.6 55.8 61.55 55.7 61.55 55.6 61.55 54.3 61.55 54.25 61.55 53.2 62.35 51.45 63.4 49.55 63.7 48.9 63.75 48.9 63.85 48.95 63.9 48.45 63.9 47.75 63.9 47.1 63.15 44.8 62.3 42.1 61.55 41.7 59.2 41.7 58.5 41.4 57.75 41.05 56.95 41.05 56.15 41.15 53.8 41.25 49.6 40.2 47.95 37.2 47.9 37.15 47.85 37.05 47.1 34.85 46.3 33.45
L 46.25 33.4
Q 46.1 33.2 46 33.05 45.75 32.55 45.4 32.15 45.3 32 45.15 31.9 44.95 31.95 44.85 32 44.75 32 44.75 32.35 Z"/>
</g>

<g id="iconFashion_0_Layer0_0_FILL">
<path fill="#00CCCC" stroke="none" d="
M 56.65 41.4
Q 56.55 40.95 56.5 40.4 56.4 40.2 56.35 40 55.75 38.1 55.35 37.5 55.15 37.35 54.9 37.3 54.3 37.3 53.75 37.3 53.7 37.35 53.7 37.4 53.65 37.55 53.55 37.65 53.75 37.95 54.15 38.25 54.95 38.95 55 39.15 55.1 39.35 55.25 40.3 55.35 41.1 55.65 41.4
L 56.65 41.4
M 49.7 41.95
Q 49.9 40 49.05 40 48.3 40 48.1 39.95 47.85 39.8 47.55 39.8 46.3 39.8 45.95 40 45.75 40.15 45.5 40.4
L 45.45 40.45 45.45 40.3
Q 45.65 39.75 45.6 39.4 45.55 39.05 45.25 38.85 45.25 38.6 45.15 38.55 45 38.5 45 38.45 44.15 38 43.6 38.9 43.2 39.1 42.85 39.4 42 40.25 41.4 40.45 41.4 39.6 41.25 39.2 41 38.5 39.8 38.5 38.95 38.65 38.2 38.65 38.2 37.65 38.1 37.4 38.1 37.25 37.55 37.25 37.4 37.25 36.5 37.75 35.55 38.25 35.25 38.3
L 35.25 38.25
Q 35.45 37.3 35.4 36.75 35.35 35.75 34.25 35.75 33.95 35.75 33.65 35.95 33.6 35.95 33.55 35.95 33.7 35.65 34.15 35.35
L 33.95 35.05
Q 33.45 34.8 33.15 34.8 32.95 34.25 32.65 34.25 32.55 34.25 32.45 34.25 32.45 33.95 32.35 33.95 32.15 33.95 32.05 33.85 31.6 34.1 31.45 34.5
L 31.4 34.5
Q 31.2 34.7 30.95 34.9 30.85 33.7 30.5 33.35 30.5 33.25 30.55 33.2 30.4 32.9 30.1 32.8 29.2 33 28.95 33.9 28.9 34 28.9 34.25 28.2 35.15 28.05 36.35 27.9 36.4 27.8 36.5 27.7 36.6 27.6 36.7 27.55 36.6 27.5 36.5 27.25 36.2 26.7 36.2 25.35 36.75 25 36.8 25 36.55 24.65 35.95 24.15 35.35 23.75 35.35 23.55 35.35 23.35 35.35
L 23.3 35.35
Q 23.15 35.35 22.95 35.4 22.65 35.45 22.25 35.55 22.25 35.25 21.8 34.7 21.8 34.45 21.8 34.35 21.7 34.25 21.7 34.2 21.4 34.1 21.15 34.1 21 34.05 20.9 34.05 19.1 34.05 18.65 35.65 18.5 36.15 18.5 37.75 18.5 38.3 18.9 39.4 19.25 40.55 19.25 41.1 19.25 41.35 19 41.85 18.7 42.3 18.7 42.4 18.7 42.9 18.95 43.35 17.65 43 17.35 44.45 17.2 45.05 17.1 45.4 16.3 45.65 15.5 45.9 15.3 45.75 15.25 45.65 15.3 45.15 15.1 45.05 14.65 44.85 14 44.8 13.1 44.1 12.25 43.65 12.05 43.55 11.95 43.45 11.9 43.2 11.85 42.95 11.7 41.7 10.95 41.7 10.7 41.7 10 41.85 9.65 41.95 9.45 41.95
L 9.5 41.5
Q 9.5 41.2 9.45 41.15
L 9.35 41.1 9.25 41.1
Q 9.2 40.8 9.2 40.75 8.95 40 7.9 40 7.2 40 6.75 39.8 6.6 39.55 6.35 39.5 6.05 39.15 5.65 39.15 4.35 39.15 3.8 39.85 3.55 40.2 3.4 40.85 3.1 41.45 2.5 41.65 2 41.75 1.75 42.35 1.45 43.05 1.45 44.25 1.2 44.9 0.8 45.25 0.05 44.8 0 46.05
L 0 46.4
Q 0.05 47.1 0.4 47.7 0.7 48.25 0.9 49.05 0.85 49.65 0.85 50.35 0.85 50.85 1 51.6 0.95 51.7 0.95 51.8 0.95 52.65 1.4 53.35 1.45 54 1.45 54.8
L 2.65 54.85
Q 3.1 54.85 3.35 54.9 3.45 55.1 3.55 55.4 3.7 55.65 3.85 55.9 3.9 56 3.95 56.2 4.1 56.75 5.25 57.1 6.5 57.45 6.6 57.6 6.95 58.15 7.95 59.7 8.8 61 9.25 61 9.6 61 9.65 60.75 9.7 60.5 10.2 60.45 10.2 61.15 11.45 61.9 12.15 62.3 13.8 63.3
L 16.5 63.35
Q 16.65 63.35 17.5 62.8 18.4 62.25 18.5 62.15
L 19.9 62.15
Q 20.1 62.35 20.35 62.55 20.65 62.7 21.8 62.7 21.85 62.7 22.9 61.8 23.95 60.85 25.3 60.85 27.7 60.85 29.05 59.6 30.45 58.3 32.1 58.3 32.25 58.3 35.3 58.1 35.9 58.1 36.75 58.6 37.6 59.1 37.8 59.1 38.1 58.75 38.65 58.4 39.6 57.7 41.05 57.7 41.1 57.7 42.3 57.8 43.55 58 44.3 58.45
L 45 59.35
Q 45.5 59.95 46.3 59.95
L 48.1 59.8
Q 49 60.5 49.7 61.15
L 52.05 61.3
Q 52.15 61.45 52.3 62 53 62.5 55.65 62.5 56 62.5 56.45 62.2 54.55 61.2 50.2 57.15 45 52.35 42.85 50.8
L 41.55 50.8
Q 41.4 50.6 40.8 50.2
L 40.8 50.15
Q 40.65 50.15 40.3 49.95 39.9 49.8 39.1 49.7
L 38.8 49.4
Q 35 49.4 34.25 49.95 33.55 50.4 32.95 50.4 29.65 50.4 29.4 50.25
L 28.05 50.15
Q 27.95 50.05 27.7 49.85 27.4 49.5 27.4 49.2 27.4 49.15 27.45 49.1 27.5 49 27.85 49 28.1 49.1 28.35 49.15
L 28.25 48.85
Q 28.5 48.8 29.65 49.05 30.9 49.35 33.15 49 38.6 47.75 40.05 48.2 40.55 48.35 41.25 48.8 41.35 48.8 41.5 48.8 41.4 48.6 41.25 48.5 43.1 49.05 45.4 50.85 47.25 52.3 48.25 53.6 48.25 53.65 48.3 53.65
L 48.35 53.7
Q 48.4 53.65 48.5 53.65 49.05 54.1 49.4 54.4 49.45 54.35 49.55 54.3 49.7 54.5 49.85 54.65 49.9 54.65 49.95 54.7 51.3 55.3 54 55.6 54.15 54.9 54.15 54.65 54.15 53.85 54.1 53.55 53.95 53.4 53.4 53.4 53.3 53.4 52.45 53.65
L 52.45 53.55
Q 52.45 52.75 51.95 52.05 51.3 51.15 50.15 52.05
L 50.15 51.95
Q 50.3 50.85 49.7 48.95 49.4 48.1 48.65 47.4 48 46.75 48 46.4 48 46.25 48.85 44.8 49.7 43.35 49.7 41.95
M 51.6 37.05
Q 51.3 36.95 51.1 36.9 51.65 37.35 52.3 37.5
L 52.3 37.2
Q 51.85 37.1 51.6 37.05
M 87.95 11.25
Q 87.8 10.5 87.15 10.2 86.75 10.3 86.5 10.65 86.25 11.05 86.1 11.2
L 85.45 10.45
Q 85.3 10.5 84.65 11.8 84.15 12.9 83.15 12.9 82.85 12.9 82.75 12.85
L 82.7 12.75 82.7 11.65
Q 82.75 10.9 82.25 10.65 81.55 10.55 81.1 10.8 80.8 11.15 80.7 11.2
L 79.45 11.2
Q 79.4 11.15 79.35 11.15
L 79.3 11.15
Q 79.2 11 79 10.3 78.75 9.6 78.45 9.35 77.4 9.35 77.05 9.6 76.75 9.9 76.5 10 76.5 9.05 76.45 8.8 76.3 8.1 75.65 8.1 75 8.1 74.55 8.5 74.2 8.8 73.6 8.75
L 73.5 8.75
Q 73.4 8.75 73.3 8.75 73.3 8.05 72.9 7.65 72.55 7.65 72.15 8.1 71.6 8.55 71 8.75
L 71 8.6
Q 71 7.65 70.55 7.05
L 70.15 7.25
Q 70.15 7.3 70.1 7.85 69.9 8.35 69.05 8.3
L 69.2 8
Q 69.3 6.9 69.3 6.3 69.3 5.3 68.2 4.7
L 67.8 4.9
Q 67.8 5.7 67.35 6.4 66.85 4.3 66.55 3.2 66.05 1.15 65.45 0 65 0.15 65 0.85 65 1.15 65.25 1.9 65.3 2.25 65.4 2.55 64.95 2.95 65 3.9 65 4.35 64.9 4.65 64.75 4.85 64.5 4.9 64.45 4.9 64.4 4.9 62.55 4.9 61.3 6.25 59.7 7.5 59.7 8.6 59.7 8.95 59.65 9.25 59.6 9.5 59.5 9.7 59.4 9.9 59.25 10.1 58.75 10.55 58.65 12.55 57.05 12.5 56.95 13.6 56.9 13.85 57.05 14.7
L 56.1 14.7
Q 55.7 14.6 55.2 14.85 54.75 15 54.35 15.15 53.1 15.65 52.6 16.6 52.3 16.6 52.1 16.75 51.85 16.6 51.6 16.6 50.4 16.6 48.2 19.55 46.1 22.4 46.1 23.65 46.1 24.25 45.25 27.6 45.25 29.15 47.45 29.8 47.4 31 47.4 31.2 47.5 32 48 32.5 48.5 32.95 48.55 34 48.55 34.55 48.95 34.95
L 51.9 34.95
Q 52 35 52.25 35.15
L 52.95 35.15 53 35.2
Q 53.3 35.25 53.7 35.3 53.7 35.25 53.75 35.25 55.25 34.35 55.7 35.9 56.05 36.2 57.95 39.4 58.85 40.8 59.05 42.8 59.1 43.1 59.1 43.45 59.2 43.55 59.25 43.7 59.45 44.1 59.7 44.4
L 60 43.65
Q 60.05 42.85 60.6 41.75 61.1 40.9 61.65 40.5 62.45 39.35 63.6 38.55
L 66.15 38.55
Q 66.3 38.65 66.5 38.85 66.7 38.95 66.9 39.1 67.15 38.15 69.05 37.25 71.1 36.3 71.4 35.7 71.45 35.55 72.1 34 72.6 32.75 72.95 32.4 73.15 32.55 73.25 32.75 73.45 32.3 73.8 31.95 73.95 32.05 74.1 32.1 74.25 32.2 74.25 32.55 74.25 34.2 73.15 36.55 71.55 39.95 68.9 39.95 68.4 39.95 68.05 39.95
L 67.35 39.95
Q 67.25 39.95 67.2 39.95
L 64.85 40.05
Q 63.9 41.05 63.15 42.65 62.75 43.4 62.45 44.2 62.35 44.3 62.3 44.45 62.2 44.7 62.1 45
L 62.1 45.1
Q 62.9 44.35 63.85 42.15 65.95 42.2 66.75 41.1 67.55 40.1 68.2 40.1 68.45 40.1 70.75 41.8
L 72.25 41.85
Q 72.5 41.85 72.6 41.65 72.65 41.4 72.9 41.4 73.2 41.4 73.95 41.65 74.75 41.85 75.05 41.85 75.3 41.85 75.9 41.1 76.45 40.45 76.5 40.15 76.9 38.8 78.15 39 79.6 39.15 79.9 38.75 80.65 37.9 81.35 36.3 81.6 35.8 81.8 35.45 82.5 34.7 82.5 34.15 82.5 33.85 82.35 33.75 82.2 33.7 82.05 33.65 82 33.75 81.9 33.9 81.9 33.7 81.8 33.6 81.7 33.4 81.6 33.25 81.4 32.8 81.4 32.55 81.4 30.5 82.85 29.5 83.3 29.45 83.7 29.35
L 83.95 29.3
Q 84.15 29.2 84.25 29.05 84.6 28.9 85.05 28.65 85.2 28.6 87.1 28.4 87.8 28.35 88.25 28.2 88.35 28.2 88.45 28.2 88.5 28.2 88.55 28.2 88.7 28.2 88.85 28.2 88.9 28.2 89 28.2 89.1 28.2 89.3 28.2 89.65 28.2 90.45 27.25 91.2 26.3 91.2 26.05 91.2 25.8 91.1 25.7 91.65 24.25 91.65 23.45
L 91.65 23.4
Q 91.65 21.65 91 20.65 90 21.35 89.45 22.15 89.35 22 89.3 21.9 88.8 22 88.85 22.4 88.9 22.7 88.4 22.7 88.2 22.7 86.5 23.1
L 86.6 23
Q 87.55 21.8 89.15 19.65 89.65 19 89.9 18.3 90 18 90.15 17.7 90.35 16.95 90.35 16.2 90.3 15.75 89.7 15.35 89.35 15.5 89.35 15.9 89.35 16.1 88.65 16.1 88.65 15.65 88.65 15.6 88.55 15.35 88.2 15.35 87.9 15.35 87.7 15.45
L 87.6 15.55 87.3 16.5 86.5 16.45
Q 86.5 16.25 86.5 16.2 87 15.35 87.25 14.55 87.35 14.35 87.5 14.1 88 13.3 88 12.45 88 11.5 87.95 11.25
M 82.2 29.5
Q 82.1 29.6 82.05 29.65 82.05 29.55 82.05 29.45 82.1 29.45 82.2 29.5 Z"/>

<path fill="#000000" stroke="none" d="
M 51.1 36.9
Q 51.3 36.95 51.6 37.05 51.85 37.1 52.3 37.2
L 52.3 37.5 52.3 37.6 53.4 37.65
Q 53.5 37.65 53.55 37.65 53.65 37.55 53.7 37.4 53.7 37.35 53.75 37.3 54.3 37.3 54.9 37.3 55.15 37.35 55.35 37.5 55.75 38.1 56.35 40 56.4 40.2 56.5 40.4 56.55 40.95 56.65 41.4 56.8 42.25 57 42.7 57 43.1 56.9 43.6 56.5 44.3 56.4 44.5 56.35 44.65 56.35 45 55.7 46.25 55.7 46.5 55.35 46.5 55.2 46.85 55.1 47.05 55.1 48.35 55.1 48.8 55.15 49 55.1 49.3 55.1 49.65 54.65 50 54.55 50.3 54.45 50.5 54.45 51.35 55.15 53.35 55.65 54.5 55.55 54.65 55.5 54.85 55.35 55.1 55.2 55.35 55.15 55.55 55.05 55.75 55 55.7 54.9 55.7 54.65 55.7 54.4 55.7 54.4 55.65 54.35 55.65
L 54.25 55.6
Q 54.1 55.6 54 55.6 51.3 55.3 49.95 54.7 49.9 54.65 49.85 54.65 49.7 54.5 49.55 54.3 49.45 54.35 49.4 54.4 49.05 54.1 48.5 53.65 48.4 53.65 48.35 53.7
L 48.3 53.65
Q 48.25 53.65 48.25 53.6 47.25 52.3 45.4 50.85 43.1 49.05 41.25 48.5 41.4 48.6 41.5 48.8 41.35 48.8 41.25 48.8 40.55 48.35 40.05 48.2 38.6 47.75 33.15 49 30.9 49.35 29.65 49.05 28.5 48.8 28.25 48.85
L 28.35 49.15
Q 28.1 49.1 27.85 49 27.5 49 27.45 49.1 27.4 49.15 27.4 49.2 27.4 49.5 27.7 49.85 27.95 50.05 28.05 50.15
L 29.4 50.25
Q 29.65 50.4 32.95 50.4 33.55 50.4 34.25 49.95 35 49.4 38.8 49.4
L 39.1 49.7
Q 39.9 49.8 40.3 49.95 40.65 50.15 40.8 50.15
L 40.8 50.2
Q 41.4 50.6 41.55 50.8
L 42.85 50.8
Q 45 52.35 50.2 57.15 54.55 61.2 56.45 62.2 56.85 62.4 57.15 62.5 57.05 62.9 56.7 63.15 56.15 63.65 56.15 64.25
L 56.15 64.9
Q 56.3 65.3 56.7 65.45 56.65 65.5 56.6 65.6 56.25 65.7 55.85 66.35 55.7 66.65 55.4 67.15 54.55 68.25 53.25 69.9 51.7 71.85 51.7 74.35 51.7 75.65 52.25 76.25 52.55 76.65 54.3 78 54.25 78.25 54.25 78.7 54.05 78.9 53.95 79.2 53.6 79.9 53.6 80.25 53.6 80.3 53.8 81.05 53.6 81.25 53.4 81.55 53.3 81.65 53.15 81.8 52.3 82.85 52.3 83.6 52.3 84.15 52.7 84.4 52.75 84.45 52.85 84.5 52.85 84.55 52.95 84.6
L 53.1 84.6
Q 53.15 84.65 53.25 84.7 53.3 84.7 53.4 84.75
L 53.5 84.8
Q 53.6 84.85 53.7 84.85 53.75 84.85 53.8 84.85 53.9 84.9 54.05 84.95 53.15 85.65 53.15 87.2 53.15 87.95 53.4 88.25 53.8 88.15 54 88
L 54.15 88
Q 54.2 88.1 54.25 88.25
L 55.5 88.3
Q 57.8 88.3 58.95 88.5 60.15 88.7 61.9 88.7
L 62.6 88.5
Q 62.85 88.5 63.15 88.5 64.15 88.5 64.7 88.1 64.75 88.05 64.85 88.05 65.2 88.1 65.75 88.2 66.6 88.4 67.45 87.85 67.85 87.95 68.5 87.7 68.3 87.6 68.05 87.45
L 68.05 87.3
Q 68.05 87.25 68 87.25
L 68 86.95
Q 67.1 86.55 66.65 86.45 66.15 86.3 64.15 86 63.5 85.65 62.65 85.2 62.3 84.85 62 84.7 61.5 84.3 60.85 84.05
L 60.8 84
Q 60.55 83.4 60.1 82.75 61.15 82 61.45 81.7 61.9 81.2 61.9 80.55 61.9 79.85 61.2 78.25
L 61.25 78.15
Q 61.15 77.3 60.3 76.15 60.15 76 60.05 75.9 59.95 75.7 59.85 75.5 59.15 74.2 58.55 73.25
L 57.85 71.65
Q 58.15 71.25 58.4 71 60.85 70.6 62.2 64.75 62.75 63.4 62.75 62.2 62.75 62 62.7 61.95 62.7 61.8 62.75 61.75 62.75 61.7 62.75 61.65 62.85 61.45 62.95 61.35
L 62.75 61.05
Q 62.7 58.95 62.2 58.25 61.85 57.85 61.6 57.4 61.55 57.35 61.5 57.3 61 56.3 60.3 55.4 60.35 55.3 60.4 55.15 60.2 54.85 59.8 53.95 59.35 52.95 59.35 52.55 59.35 52.4 59.7 51.6 60 50.8 60 50.7 60 50.6 60 50.5 60.35 50.35 60.55 50.15 60.6 49.95 60.6 49.3 60.85 48.55 61.1 47.85 61.45 46.8 61.9 45.55 61.95 45.35 62 45.2
L 62.1 45.1 62.1 45
Q 62.2 44.7 62.3 44.45 62.35 44.3 62.45 44.2 62.75 43.4 63.15 42.65 63.9 41.05 64.85 40.05
L 67.2 39.95
Q 67.25 39.95 67.35 39.95
L 68.05 39.95
Q 68.4 39.95 68.9 39.95 71.55 39.95 73.15 36.55 74.25 34.2 74.25 32.55 74.25 32.2 74.1 32.1 73.95 32.05 73.8 31.95 73.45 32.3 73.25 32.75 73.15 32.55 72.95 32.4 72.6 32.75 72.1 34 71.45 35.55 71.4 35.7 71.1 36.3 69.05 37.25 67.15 38.15 66.9 39.1 66.7 38.95 66.5 38.85 66.3 38.65 66.15 38.55
L 63.6 38.55
Q 62.45 39.35 61.65 40.5 61.1 40.9 60.6 41.75 60.05 42.85 60 43.65
L 59.7 44.4 59.3 45.25
Q 59.2 45.35 59.15 45.5 59 45.7 58.9 45.95 59.2 44.75 59.1 43.45 59.1 43.1 59.05 42.8 58.85 40.8 57.95 39.4 56.05 36.2 55.7 35.9 55.25 34.35 53.75 35.25 53.7 35.25 53.7 35.3 53.3 35.25 53 35.2
L 52.95 35.15 52.25 35.15
Q 52 35 51.9 34.95
L 48.95 34.95 47.2 34.9
Q 45.55 34.65 44.35 34.2 42.9 33.35 41.9 31.95 41.85 31.9 41.8 31.8 41.05 29.6 40.25 28.2
L 40.2 28.15
Q 40.05 27.95 39.95 27.8 39.75 27.25 39.55 26.65 39.4 26.75 39.35 26.9 39.25 26.75 39.1 26.65 38.9 26.7 38.8 26.75 38.7 26.75 38.7 27.1 38.7 27.15 39.1 28.65 39.45 29.85 40 30.9 40.45 32.05 41.45 33.15 42 33.75 42.65 34.2 43.4 34.9 44.15 35.3 46.75 36.75 50.4 36.75 50.6 36.75 51.1 36.9 Z"/>
</g>
</defs>

<g id="skinFashion" transform="matrix( 1.59600830078125, 0, 0, 1.59600830078125, -8.2,-7.2) ">
<g transform="matrix( 1, 0, 0, 1, 0,0) ">
<use xlink:href="#skinFashion_0_Layer1_0_FILL"/>
</g>

<g transform="matrix( 1, 0, 0, 1, 0,0) ">
<use xlink:href="#skinFashion_0_Layer0_0_FILL"/>
</g>
</g>

<g id="iconFashion" transform="matrix( 1, 0, 0, 1, 26.7,33.3) ">
<g transform="matrix( 1, 0, 0, 1, 0,0) ">
<use xlink:href="#iconFashion_0_Layer0_0_FILL"/>
</g>
</g>
</svg>
