
<svg xmlns="http://www.w3.org/2000/svg" version="1.1" xmlns:xlink="http://www.w3.org/1999/xlink" preserveAspectRatio="none" x="0px" y="0px" width="2702px" height="1819px" viewBox="0 0 2702 1819">
<defs>
<filter id="Filter_1" x="-20%" y="-20%" width="140%" height="140%" color-interpolation-filters="sRGB">
<feColorMatrix in="SourceGraphic" type="matrix" values="1 0 0 0 0 0 1 0 0 0 0 0 1 0 0 0 0 0 0.72 0" result="result1"/>
</filter>

<g id="Mask_background_0_3_MASK_0_FILL">
<path fill="#FFFFFF" stroke="none" d="
M 0 0
L 0 900 1200 900 1200 0 0 0 Z"/>
</g>

<g id="hyperloop_country_0_Layer2_0_FILL">
<path fill="#666666" stroke="none" d="
M 220.8 486.7
Q 219.5 486.7 215.05 494.8 212.05 500.4 201.6 521.3 200.4 523.75 199.2 525.65 201.8 528.15 203.45 529.45 212.9 537.1 221.75 537.1 228.9 537.1 237.25 532.1 234.2 521.75 232.2 515.45 226.65 497.75 220.8 486.7
M 146.95 372.4
Q 145.5 362.85 145.15 358.65 145.05 357.1 144.95 357.1 141.95 357.1 140.75 358.55 140.15 359.3 140.15 360 125.75 369 99.85 387 89.45 394.25 80.9 400.3 86.7 412.4 92.8 427.55 101.7 449.55 107.5 468 114.45 490.2 126.35 491.3 129.95 491.65 136.1 489.95 142.7 488.15 144.95 488.15 156.9 488.15 168.2 495.8 169 496.35 169.85 497 169.4 494.8 168.95 492.5 152.25 407.25 146.95 372.4
M 396.45 236.45
Q 393.05 226 392.5 224.6 392.2 223.8 389.75 221.75 377.05 248.6 331.45 394.7 338.65 380.45 346.3 364.6 356.85 342.7 368.65 318.25 370.25 319.45 376.1 341.95 379.6 355.35 388.6 390.3 407.1 459.35 416.65 459.35 424.9 459.35 435.35 440 441.75 428.1 454.15 397.45 466.75 366.1 472.65 354.85 482.8 335.5 490.55 335.5 490.65 335.5 494.55 341.35 499.6 348.95 503.5 354.25 517.35 372.95 524.15 372.95 524.45 372.95 534.95 365.75 548.8 356.25 558.7 349.9 562.6 347.5 566.5 345.55 562.6 343.75 558.75 341.45 547.9 334.95 531.45 319.7 513.3 302.85 506.2 297.9 492 288 479.05 288 475.8 288 470.8 300.25 469.75 302.75 455.05 342.7 449.25 357.95 449.25 362.9 409.45 273.2 396.45 236.45
M 1114 542.55
Q 1108.35 532.6 1104.65 527.85 1100 521.95 1094.4 518.4 1094.4 529.35 1091.5 547.25 1090.25 555.05 1089.55 560.95 1101.5 562.95 1118.9 564.2 1122.75 564.5 1126.55 564.75 1126.55 564.65 1126.5 564.6 1117.4 548.6 1114 542.55
M 1155.45 545.75
Q 1155.35 546.5 1155.8 547.2 1153.25 556.9 1151.25 565.8 1158.35 565.9 1165.4 565.9 1190.1 565.1 1200 565.4
L 1200 563.7
Q 1188.35 558.95 1178.5 554.05 1174.7 552.15 1164.9 546.9 1160.1 544.3 1158.7 544.3 1155.7 544.3 1155.45 545.75
M 764.3 164.25
Q 756.15 152.65 749.75 152.65 746.4 152.65 725.8 183.7 697.55 227.15 680.85 252 650.7 296.8 631 320.3 608.75 346.8 596.3 350.7 599 357.05 602.95 366.75 620.2 409.25 628.8 429.1 668.15 519.85 684.45 519.85 688.85 519.85 712.5 492.5 718.4 485.65 728.7 473.65 736.2 465.1 737.25 465.1 737.45 465.1 740.9 479.65 745.55 497.45 751.2 511.85 769.75 558.8 794.85 560.15 813.4 561.25 862.45 563.6 911.25 565.9 914.85 565.9 917.7 565.9 924.75 556 936.6 539.4 940.95 534.25 967.65 502.55 1000.3 502.55 1004.95 502.55 1012.5 508.15 1017.85 512.05 1028.25 521.75 1042.05 534.6 1046.75 538.7 1058.1 548.55 1067.5 554.4 1071.6 556.95 1079.75 559 1045.4 504.15 1041.9 498.05 1033.7 483.95 1019.5 460.8 1008.85 443.45 993.15 404.1 974.75 356.05 965.6 332.4 949.35 290.4 939.1 270.9 925.35 244.8 915.85 244.8 912.85 244.8 899.65 257.75
L 887.05 270.7
Q 868.9 288.2 856.65 296.3 847.4 302.4 842.85 302.4 833.8 302.4 829.75 300.35 826.1 298.5 823.95 293.35 821.35 285.7 819.4 280.1 815.7 269.3 810.25 259.2 804.7 248.85 795.3 227.4 783 199.45 779.7 192.4 770.85 173.6 764.3 164.25 Z"/>

<path fill="#252424" stroke="none" d="
M 924.75 556
Q 917.7 565.9 914.85 565.9 911.25 565.9 862.45 563.6 813.4 561.25 794.85 560.15 769.75 558.8 751.2 511.85 745.55 497.45 740.9 479.65 737.45 465.1 737.25 465.1 736.2 465.1 728.7 473.65 718.4 485.65 712.5 492.5 688.85 519.85 684.45 519.85 668.15 519.85 628.8 429.1 620.2 409.25 602.95 366.75 599 357.05 596.3 350.7 594.15 351.35 592.3 351.35 579.25 351.35 566.5 345.55 562.6 347.5 558.7 349.9 548.8 356.25 534.95 365.75 524.45 372.95 524.15 372.95 517.35 372.95 503.5 354.25 499.6 348.95 494.55 341.35 490.65 335.5 490.55 335.5 482.8 335.5 472.65 354.85 466.75 366.1 454.15 397.45 441.75 428.1 435.35 440 424.9 459.35 416.65 459.35 407.1 459.35 388.6 390.3 379.6 355.35 376.1 341.95 370.25 319.45 368.65 318.25 356.85 342.7 346.3 364.6 338.65 380.45 331.45 394.7 327.7 406.8 323.65 419.75 305.2 479.45 287.95 537.15 272.35 589.25 270.7 596.15 260.25 588.25 252.7 574.3 246.85 563.6 241.35 546.05 239.1 538.35 237.25 532.1 228.9 537.1 221.75 537.1 212.9 537.1 203.45 529.45 201.8 528.15 199.2 525.65 197.15 528.9 194.95 530.55 192.1 532.8 188.15 532.8 186.5 533.35 185.25 533.35 183.05 533.4 181 530.85 175.4 524 169.85 497 169 496.35 168.2 495.8 156.9 488.15 144.95 488.15 142.7 488.15 136.1 489.95 129.95 491.65 126.35 491.3 114.45 490.2 107.5 468 101.7 449.55 92.8 427.55 86.7 412.4 80.9 400.3 78.8 401.8 76.8 403.2 72 406.55 36.1 438.55 6.65 464.8 0 470.65
L 0 900 1200 900 1200 565.4
Q 1190.1 565.1 1165.4 565.9 1158.35 565.9 1151.25 565.8 1149.45 573.95 1148.15 581.4 1146.2 592.4 1146.2 596.15 1135.8 580.55 1126.55 564.75 1122.75 564.5 1118.9 564.2 1101.5 562.95 1089.55 560.95 1088.6 568.6 1088.6 573.1 1083.95 565.7 1079.75 559 1071.6 556.95 1067.5 554.4 1058.1 548.55 1046.75 538.7 1042.05 534.6 1028.25 521.75 1017.85 512.05 1012.5 508.15 1004.95 502.55 1000.3 502.55 967.65 502.55 940.95 534.25 936.6 539.4 924.75 556 Z"/>

<path fill="#0099CC" stroke="none" d="
M 749.75 152.65
Q 756.15 152.65 764.3 164.25 770.85 173.6 779.7 192.4 783 199.45 795.3 227.4 804.7 248.85 810.25 259.2 815.7 269.3 819.4 280.1 821.35 285.7 823.95 293.35 826.1 298.5 829.75 300.35 833.8 302.4 842.85 302.4 847.4 302.4 856.65 296.3 868.9 288.2 887.05 270.7
L 899.65 257.75
Q 912.85 244.8 915.85 244.8 925.35 244.8 939.1 270.9 949.35 290.4 965.6 332.4 974.75 356.05 993.15 404.1 1008.85 443.45 1019.5 460.8 1033.7 483.95 1041.9 498.05 1045.4 504.15 1079.75 559 1083.95 565.7 1088.6 573.1 1088.6 568.6 1089.55 560.95 1090.25 555.05 1091.5 547.25 1094.4 529.35 1094.4 518.4 1100 521.95 1104.65 527.85 1108.35 532.6 1114 542.55 1117.4 548.6 1126.5 564.6 1126.55 564.65 1126.55 564.75 1135.8 580.55 1146.2 596.15 1146.2 592.4 1148.15 581.4 1149.45 573.95 1151.25 565.8 1153.25 556.9 1155.8 547.2 1155.35 546.5 1155.45 545.75 1155.7 544.3 1158.7 544.3 1160.1 544.3 1164.9 546.9 1174.7 552.15 1178.5 554.05 1188.35 558.95 1200 563.7
L 1200 0 0 0 0 470.65
Q 6.65 464.8 36.1 438.55 72 406.55 76.8 403.2 78.8 401.8 80.9 400.3 89.45 394.25 99.85 387 125.75 369 140.15 360 140.15 359.3 140.75 358.55 141.95 357.1 144.95 357.1 145.05 357.1 145.15 358.65 145.5 362.85 146.95 372.4 152.25 407.25 168.95 492.5 169.4 494.8 169.85 497 175.4 524 181 530.85 183.05 533.4 185.25 533.35 186.5 533.35 188.15 532.8 192.1 532.8 194.95 530.55 197.15 528.9 199.2 525.65 200.4 523.75 201.6 521.3 212.05 500.4 215.05 494.8 219.5 486.7 220.8 486.7 226.65 497.75 232.2 515.45 234.2 521.75 237.25 532.1 239.1 538.35 241.35 546.05 246.85 563.6 252.7 574.3 260.25 588.25 270.7 596.15 272.35 589.25 287.95 537.15 305.2 479.45 323.65 419.75 327.7 406.8 331.45 394.7 377.05 248.6 389.75 221.75 392.2 223.8 392.5 224.6 393.05 226 396.45 236.45 409.45 273.2 449.25 362.9 449.25 357.95 455.05 342.7 469.75 302.75 470.8 300.25 475.8 288 479.05 288 492 288 506.2 297.9 513.3 302.85 531.45 319.7 547.9 334.95 558.75 341.45 562.6 343.75 566.5 345.55 579.25 351.35 592.3 351.35 594.15 351.35 596.3 350.7 608.75 346.8 631 320.3 650.7 296.8 680.85 252 697.55 227.15 725.8 183.7 746.4 152.65 749.75 152.65 Z"/>
</g>

<g id="aframe_0_Layer0_0_FILL">
<path fill="#666600" stroke="none" d="
M 138.2 47.25
L 124.3 47.25 88.45 0 0 146.45 61.4 146.45 61.4 162.45 138.2 162.45 138.2 146.45 199.5 146.45 138.2 65.65 138.2 47.25 Z"/>
</g>

<g id="track_0_Layer0_0_FILL">
<path fill="#7FC7CE" stroke="none" d="
M 3018 431
Q 3018 430.5 3018 430 3018 418.5 3018 407 3017.5 407 3017 407 3016.95 419 3017.5 431
L 3018 431
M 3008 407
Q 3007.5 407 3007 407 3007.05 419.5 3007.5 432
L 3008 432
Q 3008 431.5 3008 431 3007.95 419 3008 407 Z"/>

<path fill="#0691A0" stroke="none" d="
M 3967.65 589.6
L 3967.65 589.95
Q 3965.45 589.95 3963.25 589.95 3962.9 589.95 3962.5 589.95 3959.1 592.4 3953 592.15 3952.65 592.15 3952.25 592.15 3951.15 593.95 3947.85 593.95 3947.5 593.95 3947.15 593.95 3941.6 594.25 3937.5 595.4 3936.15 595.8 3934.75 596.15 3932.05 596.75 3929.6 598 3924.6 598.45 3920.05 599.4 3911.25 601.3 3902.45 603 3900.25 603.5 3898.1 603.75 3894.5 604.2 3890.85 604.9 3890.4 604.95 3890.05 604.95 3886.8 605 3885.65 606.8 3880.7 606.6 3877.45 607.75 3876.15 608.25 3874.8 608.65 3872.25 609.4 3868.1 609 3866.55 611.05 3862.25 610.8 3861.9 610.8 3861.45 610.9 3857.5 611.95 3852.75 611.9 3851.15 613.95 3846.9 613.75 3846.5 613.75 3846.1 613.75 3843.5 614.1 3841 614.1 3839.45 616.15 3835.15 615.95 3834.8 615.95 3834.4 615.95 3831.8 616.3 3829.3 616.3 3829.1 617.55 3827.1 617.4
L 3827.1 617.75
Q 3822.85 618.35 3818.35 618.5 3817.95 618.5 3817.6 618.5 3817.4 619.75 3815.4 619.6
L 3815.4 619.95
Q 3812.8 619.95 3810.3 619.95 3809.9 619.95 3809.55 619.95 3809.35 621.2 3807.35 621.05
L 3807.35 621.4
Q 3800.65 622 3794.85 623.35 3788.8 624.8 3781.75 625.1 3781.55 626.3 3779.55 626.2
L 3779.55 626.55
Q 3774.45 626.85 3770 627.7 3761.85 629.3 3753.95 631 3746.15 632.65 3737.1 633.15 3736.9 634.35 3734.9 634.25
L 3734.9 634.6
Q 3729.95 634.75 3726.05 635.75 3721.85 636.9 3716.6 636.8 3716.4 638.05 3714.4 637.9
L 3714.4 638.25
Q 3709.3 638.6 3704.85 639.5 3695.65 641.4 3685.9 642.95 3685.5 643 3685.1 643.1 3675.5 644.7 3666.15 646.5 3660.5 647.6 3654.35 648.35 3651 648.7 3648.4 649.5 3646.75 649.95 3644.9 649.95 3643.45 649.95 3641.95 649.95 3641.75 651.2 3639.75 651.05
L 3639.75 651.4
Q 3632.65 651.95 3626.5 653.25 3622.95 654 3619.3 654.65 3618.9 654.7 3618.5 654.75 3615.6 655.1 3612.7 655.1 3612.45 656.35 3610.5 656.2
L 3610.5 656.55
Q 3606.6 656.65 3603.3 657.65 3600.35 658.5 3595.85 658 3595.65 659.25 3593.65 659.1
L 3593.65 659.45
Q 3589.8 659.6 3586.45 660.55 3583.55 661.4 3579 660.95 3578.8 662.2 3576.85 662.05
L 3576.85 662.4
Q 3572.95 662.5 3569.6 663.5 3566.7 664.35 3562.2 663.85 3561.95 665.1 3560 664.95
L 3560 665.35
Q 3556.1 665.45 3552.8 666.45 3549.85 667.25 3545.35 666.8 3545.15 668.05 3543.15 667.9
L 3543.15 668.25
Q 3537.85 668.4 3533.6 669.3 3528.8 670.3 3524.15 671.3 3515.15 673.15 3505.15 674.45 3504.75 674.5 3504.35 674.55 3497.55 675.7 3491.15 676.95 3488.1 677.55 3484.65 678.05 3484.25 678.15 3483.85 678.15 3480.95 678.5 3478.05 678.5 3477.8 679.75 3475.85 679.6
L 3475.85 679.95
Q 3471.95 680.1 3468.65 681.05 3465.7 681.9 3461.2 681.45 3461 682.65 3459 682.55
L 3459 682.9
Q 3454.55 683.55 3449.5 683.65 3449.1 683.65 3448.75 683.65 3448.55 684.85 3446.55 684.7
L 3446.55 685.1
Q 3442.1 685.75 3437.05 685.8 3436.7 685.8 3436.3 685.8 3436.1 687.05 3434.1 686.9
L 3434.1 687.3
Q 3429.15 687.45 3425.25 688.4 3420.85 689.4 3415.8 689.5 3415.6 690.7 3413.65 690.6
L 3413.65 690.95
Q 3411 690.95 3408.5 690.95 3408.15 690.95 3407.75 690.95 3406.2 692.6 3402.65 692.4 3402.3 692.4 3401.9 692.4 3400.45 691.25 3403.25 690.45 3404.1 690.2 3405 689.7 3418.5 681.55 3430.4 671.8 3442.2 662.05 3452.95 651.25 3454.45 649.8 3455.5 647.85 3455.7 647.4 3456.1 647.05 3466.8 636.15 3475.3 623.05 3483.8 609.95 3490.9 595.65 3491.2 595.05 3491.45 594.45 3494.3 588.25 3497.05 581.9 3498.4 578.9 3499.3 575.3 3500.15 571.85 3502.2 569.45 3502.2 568 3502.2 566.55 3502.2 566.15 3502.2 565.8 3503.35 564.5 3503.95 562.25 3504 562.15 3504.4 562.15 3504.4 560.7 3504.4 559.2 3504.4 558.85 3504.4 558.5 3507.1 554.25 3507.3 547.5 3507.3 547.15 3507.3 546.75 3509.85 543.1 3509.55 536.5 3509.5 536.15 3509.5 535.8 3510.75 535.55 3510.6 533.6
L 3510.95 533.6
Q 3510.95 522.6 3512.6 513.75 3513.15 510.9 3513.15 508 3513.15 495.2 3512.8 482.35 3512.8 482 3512.7 481.6 3511.3 472.55 3510.95 462.6 3509.7 462.4 3509.85 460.4
L 3509.5 460.4
Q 3509.55 454.1 3507.7 449.6 3507.65 449.45 3507.3 449.45 3506.9 442.9 3504.8 437.85 3504.75 437.75 3504.4 437.75 3504.4 436.25 3504.4 434.8 3504.4 434.45 3504.4 434.05 3502.65 433.1 3502.55 430.4
L 3502.2 430.4
Q 3502.2 428.95 3502.2 427.5 3502.2 427.1 3502.2 426.75 3499.7 423.8 3498.95 418.75 3498.9 418.35 3498.7 417.9 3495.4 410.15 3491.85 402.65 3485 387.95 3476.6 374.75 3472.9 368.95 3468.95 363.5 3459.75 350.95 3449 340.15 3438.2 329.4 3426 320 3421.4 316.45 3416.7 313.15 3404.1 304.2 3389.5 297.2 3382.1 293.65 3374.6 290.35 3371.95 289.15 3369 288.3 3367.1 287.7 3365.75 286.6 3365.35 286.25 3364.7 286 3362.6 285.05 3359.6 284.25 3357.35 283.65 3355.1 282.6 3353.6 282.6 3352.15 282.6 3351.8 282.6 3351.4 282.6 3350.15 280.65 3346.3 280.75 3345.95 280.75 3345.5 280.65 3340.9 279.6 3336.8 278.2 3332.7 276.85 3327.25 276.55 3324.65 276.4 3322.75 275.7 3321.4 275.25 3319.95 275.1 3315.1 274.65 3310.4 274.25 3305 273.8 3299.45 273.8 3294.05 273.8 3289.2 273.35 3287.15 273.2 3285.5 273.35 3280.15 273.8 3274.6 273.55 3268.15 273.2 3264.2 274.9 3263.3 275.25 3262.15 275.35 3256.7 275.7 3251.85 276.45 3249.7 276.7 3247.55 277 3247.15 277.1 3246.75 277.1 3243.5 277.1 3242.4 278.9 3237.35 279 3233.5 280 3231 280.7 3229.05 281.35 3226.8 282.05 3225.55 283.3 3224.1 283.3 3222.6 283.3 3222.25 283.3 3221.9 283.3 3220.4 284.75 3217.55 285.1 3217.15 285.15 3216.7 285.35 3213.15 287.3 3208.8 288.65 3208.35 288.8 3207.9 289 3192.3 295.1 3178.7 303.05 3165.1 311.05 3153 320.5 3140.85 330 3130.45 341.15 3120 352.3 3110.85 364.75 3101.7 377.15 3094.1 391.4 3090.35 398.4 3087.3 406.3 3084.9 412.35 3082.2 418 3081.3 419.75 3081.05 422.3 3081 422.7 3080.9 423.15 3079.7 427.25 3077.7 430.4 3077.7 431.85 3077.7 433.35 3077.7 433.7 3077.7 434.05 3075.75 437.6 3074.85 442.1 3073.95 446.75 3072.95 451.55 3069.6 467.65 3068.95 486.75 3068.9 495.55 3068.95 504.3 3068.95 504.7 3068.95 505.05 3069.15 511.05 3069.9 516.75 3070.6 522.05 3070.4 528.45
L 3070.75 528.45
Q 3070.6 530.45 3071.85 530.65 3072.2 538.75 3074.3 545.25 3076.25 551.15 3077 558.5 3077.35 558.5 3077.35 558.55 3077.85 560.8 3079.2 562.15 3079.2 562.5 3079.2 562.85 3079.2 564.35 3079.2 565.8 3080.8 568.9 3082.3 572.3 3082.45 572.75 3082.45 573.1 3082.55 575.55 3083.3 576.9 3086.15 581.9 3088.45 587.55 3089.25 589.4 3090.05 591.45 3090.9 593.6 3091.95 595.6 3099.4 609.65 3108.05 622.65 3116.6 635.6 3126.8 647 3129.4 649.9 3132.15 652.6 3143.1 663.25 3154.85 673 3155.3 673.4 3155.75 673.75 3167.6 683.45 3181.55 691.05 3191.95 696.75 3202.95 701.75 3210.55 705.25 3218.8 708.2 3220.75 708.9 3222.6 709.95 3223 709.95 3223.35 709.95 3225.85 709.95 3227.75 710.7 3227.5 711.95 3225.5 711.65 3223.75 711.45 3222.05 710.9 3219.55 710.15 3215.3 710.35 3214.65 710.35 3213.8 710.25 3206.2 709.55 3199.2 708.6 3189.4 707.35 3180.1 706 3170.35 704.5 3161.15 702.7 3152 700.85 3142.15 699.45 3141.75 699.35 3141.35 699.3 3122.95 695.9 3104.85 692.2 3086.95 688.65 3068.95 684.85 3064.65 683.95 3059.45 683.3 3059.05 683.25 3058.65 683.2 3053.55 682.6 3049.15 681.7 3047.1 681.3 3045.5 680.95 3040.8 679.95 3036.05 679 3027.2 677.15 3017.8 675.3 3013.4 674.45 3008.2 673.8 3007.8 673.75 3007.4 673.7 2997.45 672.45 2988.4 670.65 2983.7 669.7 2978.9 669.1 2976.85 668.85 2975.2 668.6 2970.3 667.8 2965.7 667.1 2946.8 664.1 2928.4 661.15 2909.6 658.2 2891.05 655.25 2889.05 654.95 2887.4 654.7 2877.7 653.15 2868.35 651.55 2849.8 648.4 2831.1 645.3 2812.8 642.3 2793.8 639.4 2793.4 639.35 2793.05 639.35 2789.55 639.55 2787.9 638.25 2787.85 637.1 2789.4 637.25 2791.9 637.5 2793.85 637.05 2796.9 636.25 2799.7 635.55 2805.95 633.95 2812 632.2 2820.35 629.7 2828.25 626.8 2836.4 623.8 2843.65 620.25 2858.35 613.2 2871.35 604.6 2884.3 596 2895.7 585.8 2900 582 2903.95 577.9 2914.55 566.95 2924.4 555.25 2924.75 554.8 2925.1 554.4 2934.65 542.4 2942.5 528.6 2950.25 514.8 2956.3 499.25 2962.35 483.7 2966.4 466.25 2968.45 457.25 2969.75 447.3 2969.75 446.85 2969.85 446.45 2970.15 444.3 2970.55 442.2 2971.35 437.75 2971.25 431.85 2971.25 431.5 2971.25 431.15 2971.6 420.9 2971.25 410.65 2971.25 410.3 2971.2 409.9 2970.9 404.45 2970.4 399 2970.3 397.35 2970.3 395.3 2970.45 389.5 2969.5 385 2968.8 381.65 2968.65 377.7
L 2968.3 377.7
Q 2968.45 375.75 2967.2 375.5 2966.85 370.05 2965.95 365.25 2965 360.15 2962.8 356.5 2962.8 356.15 2962.8 355.75 2962.8 354.3 2962.8 352.85 2960.3 348.75 2958.85 343.4 2957.45 338.05 2955.3 333.15 2955.15 332.7 2955 332.25 2953.75 328.2 2952.2 324.9 2949.55 319.25 2946.8 314 2939.3 299.85 2930.35 287.15 2921.45 274.55 2910.95 263.45 2900.5 252.3 2888.6 242.7 2876.6 233.05 2863.2 224.85 2856.4 220.7 2849.25 217.05 2847.2 216 2845.15 214.9 2831.05 207.6 2814.3 202.65 2797.65 197.8 2779.1 195.1 2774.05 194.4 2768.9 193.75 2761.9 192.95 2753.5 193.15 2748.05 193.3 2742.55 193.65 2732.65 194.35 2722.05 194.7 2720.55 194.75 2719.25 195.2 2717.3 195.9 2714.7 196.25 2710 196.95 2705.3 197.95 2704.85 198.05 2704.45 198.1 2694 198.9 2686.9 202.8 2686.55 202.8 2686.2 202.8 2684.7 202.8 2683.25 202.8 2682.05 203.8 2680.35 204.35 2664.2 209.7 2649.75 217 2648.85 217.45 2648 217.9 2633.5 225.15 2621.1 234.35 2614.8 239 2608.8 244.05 2602.9 249.05 2597.25 254.4 2586.2 264.95 2576.45 276.8 2566.8 288.65 2558.75 302.25 2550.75 315.85 2544.45 331 2544.2 331.6 2543.9 332.2 2541.25 337.45 2539.55 344 2539.45 344.4 2539.35 344.85 2538.4 349.6 2536.15 352.85 2536.15 353.2 2536.15 353.55 2536.15 355.05 2536.15 356.5 2535.8 356.5 2535.7 356.65 2533.6 361.65 2533.2 368.2
L 2532.85 368.2
Q 2533 370.2 2531.75 370.4 2530.75 381.4 2529 391.65 2527.6 399.95 2528.05 409.9 2528.1 410.65 2527.75 410.95 2526.85 411.6 2526.9 413.6 2527 424.95 2528 434.8 2528.5 439.9 2529.25 444.95 2530.6 454.25 2532.05 464.05 2532.1 464.45 2532.25 464.9 2534.35 473.95 2536.7 482.4 2537.35 484.8 2538.05 486.85 2543.6 503.1 2550.8 517.5 2558.05 531.9 2566.95 544.55 2568.15 546.2 2569.4 548 2578.4 560.55 2588.7 571.8 2599 583.1 2611.4 592.35 2613.2 593.7 2612.25 594.35 2600.1 587.5 2587.55 580.85 2573.5 573.45 2560.15 565.3 2556.7 563.25 2553.15 561.1 2539.9 552.9 2526.55 544.75 2519.7 540.6 2513.25 536.1 2512.75 535.8 2512.25 535.45 2502.85 528.85 2492.9 522.75 2486.05 518.6 2479.55 514.2 2466.6 505.4 2453.95 496.6 2453.45 496.25 2453 495.9 2440.55 486.85 2427.35 478.35 2414.3 469.95 2401.4 461.3 2388.45 452.6 2375.35 444 2362.35 435.55 2349 427.2 2335.75 418.9 2322 410.95 2308.4 403.1 2294.45 395.6 2280.35 388 2266.05 380.75 2251.7 373.45 2236.75 366.85 2221.8 360.2 2206.15 354.2 2190.55 348.3 2173.9 343.2 2157.45 338.15 2139.55 334.2 2122.1 330.35 2102.2 328.35 2101.8 328.3 2101.4 328.3 2098.5 327.95 2095.65 327.5 2091.25 326.8 2085.35 326.85 2084.95 326.85 2084.6 326.85 2069.6 326.5 2054.6 326.5 2051.65 326.5 2048.8 326.95 2044.45 327.6 2038.5 327.55 2027.65 327.35 2017.3 328.3 2016.9 328.3 2016.5 328.4 2011.65 329.25 2006.35 329.75 2005.95 329.8 2005.55 329.8 2002.3 330.15 1999 330.45 1989.25 331.35 1980 333.25 1971 335.1 1960.9 336
L 1960.9 336.35
Q 1958.95 336.2 1958.75 337.45 1958.35 337.45 1958 337.45 1956.2 337.45 1954.35 337.45
L 1954.35 337.85
Q 1952.35 337.7 1952.15 338.95 1947.1 339 1943.3 340.3 1939.25 341.75 1934.65 342.85 1934.2 342.95 1933.85 342.95 1930.6 343 1929.45 344.8 1929.1 344.8 1928.7 344.8 1927.25 344.8 1925.8 344.8 1925.8 345.15 1925.7 345.2 1922.4 346.15 1919.95 347.7 1919.55 347.7 1919.2 347.7 1917.75 347.7 1916.3 347.7 1912.75 349.65 1908.35 351 1907.15 351.35 1905.9 351.75 1900.2 353.55 1895.15 355.9 1894.7 356.15 1894.25 356.25 1889.8 357.4 1886.15 359.15 1885.55 359.4 1884.95 359.7 1877.7 363.3 1870 366.25 1868.75 366.75 1867.85 367.2 1853.5 374.6 1840.05 382.65 1826.5 390.75 1814.35 400.2 1811.3 402.6 1808.15 405.05 1796.05 414.5 1785 425 1773.95 435.55 1764.05 447.25 1754.2 458.95 1744.95 471.35 1740.3 477.65 1733.85 482.05 1733.3 482.35 1732.9 482.75 1720.75 492.15 1708.35 501.2 1701.95 505.9 1695.8 510.7 1683.75 520.25 1671.4 529.6 1659.2 538.85 1646.95 548.2 1634.65 557.5 1622.35 566.85 1610.1 576.15 1597.85 585.45 1585.55 594.8 1573.25 604.15 1561 613.4 1548.8 622.75 1536.5 632.05 1524.25 641.5 1512.95 650.25 1501.35 658.75 1488.85 667.85 1476.9 677.4 1476.45 677.75 1476 678.15 1463.9 687.55 1451.45 696.6 1445.1 701.3 1438.95 706.1 1426.8 715.55 1414.5 724.95 1402.25 734.25 1390 743.55 1377.7 752.85 1365.4 762.25 1353.2 771.5 1341 780.85 1328.7 790.2 1316.45 799.6 1305.1 808.35 1293.5 816.8 1281 825.95 1269.05 835.5 1268.6 835.85 1268.15 836.2 1256.05 845.6 1243.7 854.9 1240.55 857.2 1237.4 859.65 1225.25 869 1213 878.3 1200.7 887.65 1188.4 897 1176.15 906.25 1163.9 915.6 1151.6 924.9 1139.3 934.25 1127.1 943.55 1114.85 952.85 1102.55 962.15 1090.25 971.55 1078.05 980.85 1065.75 990.1 1053.45 999.45 1041.25 1008.9 1029.95 1017.65 1018.3 1026.15 1005.85 1035.25 993.85 1044.8 993.45 1045.15 993 1045.5 980.9 1054.95 968.55 1064.2 965.4 1066.5 962.3 1069 951.05 1077.8 939.4 1086.3 926.95 1095.4 914.85 1104.8 914.4 1105.15 913.95 1105.55 902 1115.1 889.5 1124.2 883.15 1128.85 877.15 1133.8 874.15 1136.35 870.5 1138.1 870.05 1139.65 871.15 1139.95 871.2 1139.95 871.2 1140.3 875.95 1140.3 880.7 1140.3 881.1 1140.3 881.45 1140.3 881.45 1139.95 881.45 1139.55 893.7 1130.2 906 1120.85 918.2 1111.55 930.5 1102.25 942.75 1092.9 955.1 1083.6 967.3 1074.3 979.55 1064.95 991.85 1055.65 1004.15 1046.3 1016.35 1037 1028.65 1027.7 1040.9 1018.35 1053.2 1009.05 1065.5 999.75 1077.7 990.4 1090 981.1 1102.3 971.7 1114.5 962.4 1126.75 953.15 1139.05 943.8 1151.35 934.45 1163.6 925.15 1175.85 915.85 1188.15 906.5 1200.45 897.2 1212.65 887.85 1224.9 878.6 1237.2 869.2 1249.5 859.9 1261.7 850.55 1274 841.3 1286.25 831.95 1298.55 822.6 1310.8 813.25 1323.05 804 1335.4 794.7 1347.45 785.15 1353.6 780.35 1359.95 775.65 1372.4 766.6 1384.5 757.2 1384.95 756.8 1385.4 756.45 1397.35 746.9 1409.85 737.8 1421.5 729.3 1432.8 720.55 1445 711.1 1457.3 701.75 1469.55 692.5 1481.8 683.2 1494.1 673.8 1506.35 664.5 1518.65 655.2 1530.85 645.9 1543.15 636.55 1555.3 627.05 1561.45 622.25 1567.8 617.6 1580.25 608.5 1592.35 599.1 1592.8 598.75 1593.25 598.35 1605.2 588.8 1617.65 579.65 1629.3 571.2 1640.65 562.45 1652.85 553.05 1665.15 543.7 1677.35 534.35 1689.65 525.1 1701.9 515.75 1714.2 506.4 1726.5 497.1 1738.7 487.85 1741.9 485.45 1744.9 482.95 1750.9 477.95 1754.7 470.75 1754.9 470.3 1755.25 469.95 1760.45 464.15 1764.85 457.55 1765.15 457.1 1765.5 456.75 1775.85 445.5 1786.35 434.35 1789 431.55 1791.85 428.9 1802.9 418.35 1815.2 409.05 1821.4 404.3 1827.95 400.05 1834.7 395.65 1841.1 391.2 1844.4 388.9 1848 386.85 1861.55 378.95 1876.2 372.25 1891.15 365.35 1906.85 359.65 1922.75 353.8 1939.7 349.15 1946 347.4 1952.8 345.85 1957 344.9 1961.65 344.1 1971.05 342.5 1980 340.8 1982.15 340.4 1984.3 340.1 1984.7 340.05 1985.1 340 1988.1 339.75 1990.25 339.35 1992.05 338.95 1993.8 338.65 1994.2 338.55 1994.6 338.55 1999.75 337.85 2004.8 337.3 2006.35 337.1 2007.8 336.95 2017.85 335.85 2028.25 335.5 2031.3 335.4 2033.45 335 2036.3 334.55 2039.25 334.65 2045.05 334.85 2049.55 334.2 2052.4 333.8 2055.35 333.75 2077.5 333.2 2097 335.6 2097.4 335.65 2097.8 335.65 2102.75 335.8 2106.6 336.4 2112.5 337.35 2118.25 338.45 2119.9 338.8 2121.95 338.95 2124 339.05 2125.6 339.35 2127.8 339.65 2130 339.65 2130.2 340.9 2132.15 340.75
L 2132.15 341.1
Q 2135.65 340.55 2137.5 341.4 2138.45 341.85 2139.45 342.05 2141.2 342.35 2142.4 343.3 2147.7 343.55 2151.9 344.85 2154.15 345.5 2156.35 345.75 2159 346.05 2160 347.7 2163.25 347.8 2165.75 348.6 2168.2 349.45 2170.25 350.65 2171.7 350.65 2173.15 350.65 2173.5 350.65 2173.9 350.65 2177.05 353 2181.9 353.85 2182.3 353.95 2182.75 354.05 2187.2 355.3 2190.85 356.8 2193.1 357.75 2195.7 358.45 2197.7 359 2199.65 359.7 2200.95 360.2 2201.85 360.5 2206.15 361.95 2209.85 363.55 2213.8 365.25 2217.75 366.85 2219.8 367.65 2221.6 368.65 2222.2 368.95 2222.85 369.15 2226.95 370.45 2230.45 372.1 2234.35 374 2238.2 375.75 2245.7 379.15 2253.05 382.55 2267.95 389.4 2281.7 397.05 2288.95 401 2296 405 2309.75 412.75 2323.25 420.75 2336.85 428.8 2350.1 437.25 2363.25 445.65 2376.55 453.95 2389.8 462.3 2402.45 471.05 2402.95 471.4 2403.45 471.7 2416.15 480.55 2429.15 489.15 2442.15 497.7 2455.1 506.25 2468.15 514.85 2480.8 523.75 2481.25 524.1 2481.75 524.4 2494.5 533.15 2507.7 541.45 2521.05 549.8 2534.15 558.1 2547.55 566.55 2560.95 574.75 2574.3 582.9 2588.65 590.3 2592.15 592.15 2595.65 593.9 2610.15 601.2 2624.65 608.3 2632.05 611.9 2640 615 2640.45 615.2 2640.9 615.4 2644.95 616.9 2648.8 618.55 2652.65 620.2 2656.85 621.6 2660.6 622.85 2664.25 624.3 2668.45 625.95 2672.95 627.5 2673.35 627.65 2673.8 627.75 2680.55 629.6 2686.2 632.4 2687.65 632.4 2689.1 632.4 2689.45 632.4 2689.85 632.4 2694.05 635.1 2700.8 635.3 2701.2 635.3 2701.55 635.3 2701.75 636.55 2703.75 636.4
L 2703.75 636.8
Q 2706.8 636.7 2708.95 637.1 2711.05 637.5 2713.2 637.8 2713.6 637.9 2714 637.9 2717 638.15 2719.2 638.55 2721.3 639 2723.45 639.4 2725.55 639.85 2727.95 640.1 2738.3 641.05 2749.1 641.3 2751.85 641.35 2754.3 641.5 2759.9 641.75 2764.5 642.4 2769.55 643.1 2774.05 643.75 2779.25 644.45 2783.5 645.7 2786.5 646.65 2790.85 646.65 2791.2 646.65 2791.65 646.75 2800.6 648.6 2810.6 649.25 2810.8 650.45 2812.8 650.35
L 2812.8 650.7
Q 2820.45 651.4 2828.15 652.1 2828.5 652.15 2828.9 652.15 2829.1 653.4 2831.1 653.25
L 2831.1 653.6
Q 2836.05 654.15 2841.3 654.65 2842.15 654.7 2842.85 654.85 2849.55 656 2855.95 657.2 2862.5 658.4 2869.85 658.75 2870.1 660 2872.05 659.85
L 2872.05 660.2
Q 2881.05 660.7 2888.9 662.4 2897 664.2 2906.45 664.6 2906.7 665.85 2908.65 665.7
L 2908.65 666.05
Q 2919.1 666.65 2927.8 668.5 2930.15 669 2932.75 669.3 2933.6 669.35 2934.3 669.5 2936.3 669.85 2937.95 670.25 2941.1 670.95 2944.5 671.05 2947.05 671.15 2948.95 671.75 2954.6 673.55 2962.1 673.4 2962.3 674.6 2964.3 674.5
L 2964.3 674.85
Q 2967.2 674.85 2970.05 675.25 2972.35 675.55 2974.6 675.95 2981.75 677.15 2989.15 677.75 2989.4 679 2991.35 678.85
L 2991.35 679.25
Q 2995.85 678.8 2998.8 679.5 3002.55 680.45 3006.7 680.7 3006.95 681.95 3008.9 681.8
L 3008.9 682.15
Q 3014.45 682.2 3019.15 682.85 3019.55 682.9 3019.9 682.9 3021.85 685 3026.5 684.75 3026.85 684.7 3027.3 684.8 3034.1 686.25 3041.1 687.6 3044.3 688.15 3047.7 688.75 3050.9 689.25 3054.3 689.5 3054.5 690.7 3056.5 690.6
L 3056.5 690.95
Q 3059.4 690.95 3062.35 690.95 3062.7 690.95 3063.1 690.95 3065.25 693.1 3070.45 692.8 3070.75 692.75 3071.15 692.8 3073.65 693.1 3075.6 693.35 3078.2 693.7 3079.2 695.35 3083.5 695.35 3087.25 696 3087.6 696.05 3087.95 696.05 3090.9 698.25 3095.95 698.6 3096.8 698.65 3097.5 698.75 3103.6 699.85 3109.8 700.95 3112.6 701.5 3115.75 702.05 3118.5 702.6 3121.6 702.65 3121.85 703.9 3123.8 703.75
L 3123.8 704.1
Q 3126.3 704.1 3128.95 704.1 3129.3 704.1 3129.65 704.1 3129.9 705.35 3131.85 705.2
L 3131.85 705.6
Q 3136.9 705.65 3141.4 706.3 3141.75 706.3 3142.1 706.3 3144.25 708.45 3149.45 708.2 3149.8 708.15 3150.2 708.2 3153.65 708.75 3156.7 709.4 3165.75 711.25 3175.8 712.15 3176 713.4 3178 713.25
L 3178 713.65
Q 3183.7 713.5 3188.2 714.4 3190.6 714.9 3193.3 715.4 3193.7 715.45 3194.1 715.45 3199.95 715.55 3204.4 716.1 3207.35 716.45 3209.5 717.1 3213.85 718.45 3219.7 718.25 3221.75 718.15 3223.4 718.4 3226.3 718.75 3229.15 719.1 3229.55 719.1 3229.95 719.2 3234.95 720.05 3240.2 719.9 3248.7 719.75 3255.6 720.4 3261.1 720.95 3266.55 720.9 3287.8 720.6 3309 720.1 3311.7 720.05 3314.15 719.75 3319.3 719.1 3324.3 718.45 3324.7 718.4 3325.1 718.35 3335.15 717.1 3343.35 714.3 3346.8 713.1 3351.35 712.4 3354.15 711.95 3356.6 710.9 3360.35 709.4 3364.5 708.25 3364.95 708.15 3365.4 708.05 3367.9 707.45 3369.85 706.6 3370.45 706.3 3371.05 706 3371.2 705.95 3371.2 705.6 3373.4 705.6 3375.55 705.6 3375.95 705.6 3376.3 705.6 3379.5 703.3 3385.1 703 3385.45 703 3385.85 703 3390.4 702.5 3394.6 701.9 3394.8 700.7 3396.8 700.8
L 3396.8 700.45
Q 3400.95 699.85 3405.6 699.75 3405.95 699.75 3406.3 699.75 3406.55 698.5 3408.5 698.65
L 3408.5 698.25
Q 3411 698.25 3413.65 698.25 3414 698.25 3414.35 698.25 3414.6 697 3416.55 697.15
L 3416.55 696.8
Q 3421.6 696.75 3426.05 696.1 3426.45 696.05 3426.8 696.05 3427 694.8 3429 694.95
L 3429 694.6
Q 3431.5 694.6 3434.1 694.6 3434.5 694.6 3434.85 694.6 3435.05 693.35 3437.05 693.5
L 3437.05 693.15
Q 3441.7 692.65 3446.55 692.45 3446.95 692.4 3447.3 692.4 3447.5 691.15 3449.5 691.3
L 3449.5 690.95
Q 3454.15 690.45 3459 690.25 3459.35 690.2 3459.75 690.2 3459.95 688.95 3461.95 689.1
L 3461.95 688.75
Q 3469 688.15 3475.85 687.3 3476.2 687.3 3476.55 687.3 3476.8 686.05 3478.75 686.2
L 3478.75 685.8
Q 3485.8 685.2 3492.65 684.4 3493.05 684.35 3493.4 684.35 3493.6 683.1 3495.6 683.25
L 3495.6 682.9
Q 3502.65 682.25 3509.5 681.45 3509.85 681.45 3510.25 681.45 3510.45 680.2 3512.45 680.35
L 3512.45 679.95
Q 3519.5 679.35 3526.35 678.55 3526.7 678.5 3527.05 678.5 3527.3 677.25 3529.25 677.4
L 3529.25 677.05
Q 3536.3 676.4 3543.15 675.6 3543.55 675.55 3543.9 675.55 3544.1 674.35 3546.1 674.5
L 3546.1 674.1
Q 3553.15 673.5 3560 672.7 3560.35 672.65 3560.75 672.65 3560.95 671.4 3562.9 671.55
L 3562.9 671.2
Q 3570 670.55 3576.85 669.75 3577.2 669.7 3577.55 669.7 3577.8 668.5 3579.75 668.6
L 3579.75 668.25
Q 3586.8 667.65 3593.65 666.85 3594.05 666.8 3594.4 666.8 3594.6 665.55 3596.6 665.7
L 3596.6 665.35
Q 3603.65 664.7 3610.5 663.9 3610.85 663.85 3611.25 663.85 3611.45 662.6 3613.4 662.75
L 3613.4 662.4
Q 3620.5 661.8 3627.35 660.95 3627.7 660.95 3628.05 660.95 3628.3 659.7 3630.25 659.85
L 3630.25 659.45
Q 3634.9 659 3639.75 658.8 3640.15 658.75 3640.5 658.75 3640.7 657.5 3642.7 657.65
L 3642.7 657.3
Q 3649.75 656.65 3656.6 655.85 3656.95 655.8 3657.35 655.8 3657.55 654.55 3659.55 654.7
L 3659.55 654.35
Q 3664.6 654.3 3669.05 653.65 3669.4 653.6 3669.75 653.6 3670 652.4 3671.95 652.5
L 3671.95 652.15
Q 3677 652.1 3681.5 651.45 3681.85 651.4 3682.2 651.4 3682.45 650.2 3684.4 650.35
L 3684.4 649.95
Q 3689.45 649.9 3693.9 649.25 3694.3 649.25 3694.65 649.25 3694.9 648 3696.85 648.15
L 3696.85 647.75
Q 3701.9 647.7 3706.35 647.05 3706.75 647.05 3707.1 647.05 3707.3 645.8 3709.3 645.95
L 3709.3 645.55
Q 3711.8 645.55 3714.4 645.55 3714.8 645.55 3715.15 645.55 3715.35 644.35 3717.35 644.45
L 3717.35 644.1
Q 3722 643.65 3726.85 643.4 3727.2 643.35 3727.6 643.35 3727.8 642.15 3729.8 642.3
L 3729.8 641.9
Q 3732.25 641.9 3734.9 641.9 3735.25 641.9 3735.65 641.9 3735.85 640.65 3737.85 640.8
L 3737.85 640.45
Q 3742.5 639.95 3747.35 639.75 3747.7 639.7 3748.1 639.7 3748.3 638.45 3750.3 638.6
L 3750.3 638.25
Q 3752.75 638.25 3755.4 638.25 3755.75 638.25 3756.15 638.25 3756.35 637 3758.35 637.15
L 3758.35 636.8
Q 3760.8 636.8 3763.45 636.8 3763.8 636.8 3764.2 636.8 3764.4 635.55 3766.4 635.7
L 3766.4 635.3
Q 3768.85 635.3 3771.5 635.3 3771.85 635.3 3772.25 635.3 3772.45 634.1 3774.45 634.25
L 3774.45 633.85
Q 3776.9 633.85 3779.55 633.85 3779.9 633.85 3780.3 633.85 3780.5 632.6 3782.5 632.75
L 3782.5 632.4
Q 3784.95 632.4 3787.6 632.4 3787.95 632.4 3788.35 632.4 3788.55 631.15 3790.55 631.3
L 3790.55 630.95
Q 3793 630.95 3795.65 630.95 3796 630.95 3796.4 630.95 3796.6 629.7 3798.6 629.85
L 3798.6 629.45
Q 3801.05 629.45 3803.7 629.45 3804.05 629.45 3804.45 629.45 3804.65 628.2 3806.65 628.35
L 3806.65 628
Q 3811.4 628.05 3815.4 627.35 3815.8 627.25 3816.15 627.25 3816.35 626.05 3818.35 626.2
L 3818.35 625.8
Q 3820.85 625.8 3823.45 625.8 3823.85 625.8 3824.2 625.8 3824.4 624.55 3826.4 624.7
L 3826.4 624.35
Q 3831.15 624.4 3835.15 623.7 3835.55 623.6 3835.9 623.6 3836.1 622.35 3838.1 622.5
L 3838.1 622.15
Q 3842.85 622.2 3846.9 621.5 3847.25 621.4 3847.6 621.4 3847.85 620.15 3849.8 620.3
L 3849.8 619.95
Q 3854.55 620 3858.6 619.3 3858.95 619.2 3859.3 619.2 3859.55 618 3861.5 618.15
L 3861.5 617.75
Q 3867.85 617.15 3873.95 616.35 3874.3 616.3 3874.7 616.3 3874.9 615.05 3876.9 615.2
L 3876.9 614.85
Q 3880.35 614.6 3883.45 614 3887.65 613.15 3892.2 612.5 3893.75 612.25 3895.2 611.95 3897.9 611.25 3901.05 611.15 3901.25 609.95 3903.25 610.1
L 3903.25 609.7
Q 3908.35 609.3 3912.8 608.35 3921.3 606.55 3929.65 604.95 3931.45 604.6 3933.15 604.2 3936.35 603.35 3940.5 602.8 3943.85 602.35 3946.4 600.95 3953.8 600.3 3960.2 598.4 3960.3 598.35 3960.3 598 3963.8 598.55 3965.6 597.7 3966.65 597.25 3967.6 597.1 3969.35 596.8 3970.55 595.8 3974.15 596 3976.45 595.2 3976.8 595.05 3977.15 595.05 3977.25 590.95 3975.85 588.4 3975.7 588.1 3975.7 587.75 3973.6 588.6 3970.55 588.5 3970.2 588.5 3969.85 588.5 3969.6 589.75 3967.65 589.6
M 3332.4 285.15
Q 3332.75 285.15 3333.15 285.15 3337.95 285.4 3341.3 286.5 3343.25 287.1 3344.85 287.4 3346.95 287.75 3347.75 289.15 3349.25 289.15 3350.7 289.15 3351.05 289.15 3351.4 289.15 3355.05 291.1 3359.35 292.45 3361.4 293.1 3363.7 293.95 3379.25 299.75 3393.2 307.3 3407.25 314.9 3419.55 324.2 3431.9 333.5 3442.45 344.55 3445.15 347.35 3447.75 350.15 3458.15 361.35 3467.05 374.05 3475.95 386.8 3483.15 401.15 3485 404.85 3486.5 408.55 3487.75 411.55 3488.6 414.4 3489.05 415.75 3489.9 416.3 3491 417.1 3490.85 419.45 3490.85 419.8 3491.15 420.2 3491.95 421.25 3492.2 422.45 3493.1 427.5 3495.6 430.4 3495.6 431.85 3495.6 433.35 3495.6 433.7 3495.6 434.05 3496.75 435.4 3497.4 437.6 3497.4 437.75 3497.8 437.75 3497.8 439.2 3497.8 440.65 3497.8 441 3497.8 441.4 3499.6 443.6 3500.25 447.2 3501.05 451.75 3501.75 456.7 3501.8 457.1 3501.85 457.5 3502.55 462.7 3503.55 467.05 3504.55 471.65 3505.05 476.5 3506.05 486.6 3506.1 497.75 3506.15 508.65 3505.45 518.25 3505.2 521.25 3504.9 523.4 3504.25 527.25 3503.55 530.65 3502.9 533.55 3502.9 537.25 3500.65 540.45 3500.3 546 3500 551.15 3497.8 554.8 3497.8 556.3 3497.8 557.75 3497.8 558.1 3497.8 558.5 3495.5 561.6 3494.55 566.5 3494.5 566.9 3494.35 567.35 3489.1 583.8 3481.65 597.95 3474.2 612.1 3465.2 624.6 3463.95 626.35 3462.7 628.05 3453.55 640.5 3442.45 651 3439.7 653.6 3436.85 656.35 3425.8 666.85 3413.1 675.85 3400.45 684.7 3385.75 691.55 3383.9 692.4 3382.25 693.3 3379.25 695.05 3375.6 696.2 3373.25 697 3371.05 697.9 3368.3 699 3365.35 699.85 3360.6 701.25 3356.55 703.4 3352.1 703.4 3349.25 704.8 3346 706.4 3341.2 706.3 3340.95 707.55 3339 707.4
L 3339 707.8
Q 3335.6 708 3332.5 708.85 3329.6 709.7 3325.1 709.25 3324.85 710.5 3322.9 710.35
L 3322.9 710.7
Q 3317.85 711.05 3312.65 711.75 3312.25 711.8 3311.85 711.85 3301.75 712.95 3290.7 713.2 3282.1 713.35 3275.25 712.55 3272.1 712.15 3268.75 711.85 3268.35 711.8 3267.95 711.75 3257.75 710.75 3248.9 708.8 3231.05 704.85 3215.45 698.65 3200.1 692.6 3186.15 684.9 3172.25 677.25 3160.2 667.8 3154.05 662.95 3148.25 657.7 3145.45 655.1 3142.55 652.5 3131.15 642.25 3122.3 629.5 3122 629.1 3121.65 628.7 3112.05 616.75 3104.45 602.9 3100.5 595.75 3096.8 588.45 3093.8 582.55 3091.6 576.05 3089.4 569.85 3086.5 564.35 3086.5 562.85 3086.5 561.4 3086.5 561.05 3086.5 560.7 3085.2 559.35 3084.65 557.1 3084.65 557 3084.3 557 3084.3 555.55 3084.3 554.1 3084.3 553.7 3084.3 553.35 3081.55 549.1 3081.1 542.4 3081.1 541.65 3080.9 540.85 3079.6 535.7 3079.2 529.95 3077.95 529.7 3078.1 527.75
L 3077.7 527.75
Q 3077.95 521.3 3077.25 516 3076.45 510.35 3076.25 504.3
L 3075.9 504.3
Q 3075.5 495.55 3075.5 486.75 3075.9 486.75 3076.25 486.75 3076.25 486.4 3076.25 486.05 3076.25 483.1 3076.25 480.15 3077.55 478.55 3077.3 475 3077.15 472.3 3077.5 469.9 3079.9 450.55 3085 434.05 3090.1 417.55 3097.05 402.75 3097.45 401.85 3097.9 401 3104.9 386.25 3113.9 373.55 3122.85 361 3133 349.55 3135.55 346.6 3138.25 343.85 3148.85 332.85 3161.25 323.65 3173.65 314.5 3187.55 306.85 3201.45 299.1 3217.35 293.2 3218.25 292.85 3219.55 292.4 3223.4 291 3227.7 289.75 3236.2 287.35 3245.25 285.3 3246.9 284.9 3248.95 284.5 3257.95 282.75 3268.05 282.15 3271.05 281.95 3273.2 281.6 3276.05 281.1 3278.95 281.05 3286.45 280.9 3293.6 280.55 3300.35 280.25 3306.1 280.95 3311.75 281.6 3317.75 281.85 3318 283.1 3319.95 282.95
L 3319.95 283.3
Q 3323.3 283.3 3326.55 283.3 3326.9 283.3 3327.25 283.3 3328.7 285.25 3332.4 285.15
M 2922.2 288.7
Q 2922.55 289.15 2922.95 289.65 2932.2 301.85 2939.3 316.3 2943 323.65 2946.2 331.1 2947.2 333.35 2948.05 335.35 2954.45 350.55 2958.55 368.15 2960.6 377.05 2961.95 386.55 2963.35 396.25 2963.4 407 2963.45 410.05 2963.8 412.2 2964.3 415.05 2964.25 417.95 2964.2 423 2964.05 427.5 2963.85 433.65 2963.3 438.55 2962.85 442.1 2962.5 445.75 2962.45 446.15 2962.3 446.6 2961.1 450.3 2961.35 455.3 2960.1 455.5 2960.25 457.5
L 2959.9 457.5
Q 2959.3 462.75 2958.15 467.65 2958.05 468.1 2957.9 468.55 2956.65 472.55 2956.25 477.25 2954.45 478.4 2954.75 481.65 2954.75 482 2954.75 482.35 2952.9 485.9 2951.5 490.3 2950.8 492.6 2950.05 494.95 2949.25 497.35 2948.3 499.25 2944.8 506.8 2941.2 514.4 2939.1 518.65 2936.85 522.85 2929.2 536.95 2919.95 549.2 2910.6 561.5 2899.45 571.95 2896.6 574.6 2893.75 577.2 2882.35 587.4 2869.75 596.35 2857.1 605.3 2842.2 612.25 2841.35 612.65 2840.45 613.1 2837 614.9 2833.4 616.55 2828.2 618.9 2822.45 621.1 2819.75 622.1 2816.5 623 2813.65 623.75 2811.3 625.1 2806.9 625.1 2804 626.55 2800.8 628.1 2795.95 628 2794.35 630.05 2790.1 629.5 2789.75 629.45 2789.35 629.45 2789.15 630.7 2787.15 630.55
L 2787.15 630.95
Q 2781.8 631 2777.55 631.9 2775.45 632.4 2773.25 632.45 2769.4 632.5 2765.9 632.75 2761.15 633.15 2756.45 633.45 2756.05 633.5 2755.7 633.5 2750.6 633.5 2745.45 633.55 2739.6 633.55 2735.15 632.85 2732.3 632.4 2729.4 632.05 2729 632.05 2728.6 632 2718.35 631 2709.55 628.9 2705.05 627.85 2700.1 627 2699.7 626.9 2699.3 626.8 2690.3 624.65 2681.8 622.15 2673.3 619.7 2665.65 616.35 2650.65 609.75 2637.2 601.55 2623.85 593.35 2612.15 583.45 2600.45 573.6 2590.25 562.2 2580.05 550.85 2571.4 537.9 2562.75 524.95 2556 510.15 2554.35 506.6 2552.75 503.35 2552.3 502.5 2551.95 501.5 2551.05 499 2549.65 496.8 2549.3 496.25 2549.2 495.6 2548.4 491.65 2546.85 488.7 2546.45 487.85 2546.1 486.85 2545.35 484.55 2544.2 482.35 2544.2 480.9 2544.2 479.45 2544.2 479.1 2544.2 478.7 2542.3 477.35 2542.35 473.6 2542.35 473.2 2542.3 472.8 2541.85 470.8 2541.55 469.15 2541.2 467.05 2539.8 466.25 2540.1 462.35 2539.2 459.65 2538.35 456.8 2538.35 453.1 2537.1 452.9 2537.25 450.9
L 2536.9 450.9
Q 2537.05 443.05 2535.8 436.9 2535.45 435.15 2535.25 433.35 2534.2 423.15 2534.7 411.4 2535.95 409.75 2535.65 406.2 2535.15 400.5 2535.8 395.95 2536.55 390.9 2537.2 385.8 2537.25 385.4 2537.3 385 2539.95 365.8 2545.3 349.8 2550.8 333.45 2558.1 319.15 2565.4 304.85 2574.15 292.05 2582.95 279.25 2593.6 268.3 2594.7 267.2 2595.75 266.05 2601.15 260.45 2606.9 255.25 2618.25 245 2631.2 236.3 2644.1 227.7 2658.95 220.75 2662.6 219.1 2666.4 217.5 2674.2 214.2 2682.5 211.55 2690.85 208.9 2699.4 206.6 2703.85 205.45 2708.8 204.5 2710.9 204.1 2713.3 203.8 2723.15 202.45 2733 201.5 2743.2 200.5 2754.25 200.3 2763.85 200.15 2771.2 201.6 2773.6 202.05 2776.15 202.4 2776.55 202.45 2776.95 202.5 2782.15 203.45 2787.9 203.55 2788.1 204.8 2790.1 204.65
L 2790.1 205
Q 2795.75 205.6 2801 206.8 2806.2 207.95 2810.6 210.1 2812.05 210.1 2813.5 210.1 2813.9 210.1 2814.25 210.1 2817.85 212.05 2822.2 213.4 2826.2 214.7 2829.85 216.25 2831.05 216.75 2831.95 217.1 2847.45 223.4 2860.6 231.7 2862.5 232.85 2864.25 234 2877.35 242.5 2888.9 252.55 2900.4 262.65 2910.5 274.1 2911.6 275.25 2912.6 276.45 2917.6 282.45 2922.2 288.7 Z"/>
</g>

<path id="yellowtrack_0_Layer0_0_1_STROKES" stroke="#FFFF00" stroke-width="2" stroke-linejoin="miter" stroke-linecap="butt" stroke-miterlimit="3" fill="none" d="
M 264.4 110.95
Q 269.55 108.4 279.5 104.2 299.15 95.85 322.6 87.55 397.5 61.2 480.85 46.05 597.6 24.85 714.55 29.1 860.7 34.5 999 79.6 1140.85 125.9 1258.8 144.95 1360.55 161.35 1446.1 157.65 1515.05 154.65 1577.75 138.1 1601.85 131.8 1627.9 122.7 1642.85 117.5 1670.4 106.95"/>
</defs>

<g id="hyperloopCountry" transform="matrix( 2.2516632080078125, 0, 0, 2.021087646484375, 0,0) ">
<mask id="Mask_Mask_1">
<g transform="matrix( 1, 0, 0, 1, 0,0) ">
<use xlink:href="#Mask_background_0_3_MASK_0_FILL"/>
</g>
</mask>

<g mask="url(#Mask_Mask_1)">
<g transform="matrix( 1, 0, 0, 1, 0,0) ">
<g transform="matrix( 1, 0, 0, 1, 0,0) ">
<use xlink:href="#hyperloop_country_0_Layer2_0_FILL"/>
</g>

<g transform="matrix( 1, 0, 0, 1, 920.05,395.15) ">
<g transform="matrix( 1, 0, 0, 1, 0,0) ">
<use xlink:href="#aframe_0_Layer0_0_FILL"/>
</g>
</g>
</g>
</g>

<g mask="url(#Mask_Mask_1)">
<g transform="matrix( 0.578155517578125, 0, 0, 0.578155517578125, -1018.25,412.25) ">
<g transform="matrix( 1, 0, 0, 1, 0,0) ">
<use filter="url(#Filter_1)" xlink:href="#track_0_Layer0_0_FILL"/>
</g>
</g>
</g>

<g mask="url(#Mask_Mask_1)">
<g id="yellowtrack" transform="matrix( 1, 0, 0, 1, -438.1,535.4) ">
<g transform="matrix( 1, 0, 0, 1, 0,0) ">
<use xlink:href="#yellowtrack_0_Layer0_0_1_STROKES"/>
</g>
</g>
</g>
</g>
</svg>
