
<svg xmlns="http://www.w3.org/2000/svg" version="1.1" xmlns:xlink="http://www.w3.org/1999/xlink" preserveAspectRatio="none" x="0px" y="0px" width="200px" height="200px" viewBox="0 0 200 200">
<defs>
<filter id="Filter_1" x="-20%" y="-20%" width="140%" height="140%" color-interpolation-filters="sRGB">
<feColorMatrix in="SourceGraphic" type="matrix" values="1 0 0 0 0 0 1 0 0 0 0 0 1 0 0 0 0 0 0.55 0" result="result1"/>
</filter>

<filter id="Filter_2" x="-20%" y="-20%" width="140%" height="140%" color-interpolation-filters="sRGB">
<feColorMatrix in="SourceGraphic" type="matrix" values="1 0 0 0 0 0 1 0 0 0 0 0 1 0 0 0 0 0 0.15 0" result="result1"/>
</filter>

<filter id="Filter_3" x="-20%" y="-20%" width="140%" height="140%" color-interpolation-filters="sRGB">
<feColorMatrix in="SourceGraphic" type="matrix" values="1 0 0 0 0 0 1 0 0 0 0 0 1 0 0 0 0 0 0.61 0" result="result1"/>
</filter>

<filter id="Filter_4" x="-20%" y="-20%" width="140%" height="140%" color-interpolation-filters="sRGB">
<feColorMatrix in="SourceGraphic" type="matrix" values="1 0 0 0 0 0 1 0 0 0 0 0 1 0 0 0 0 0 0.71 0" result="result1"/>
</filter>

<filter id="Filter_5" x="-20%" y="-20%" width="140%" height="140%" color-interpolation-filters="sRGB">
<feColorMatrix in="SourceGraphic" type="matrix" values="1 0 0 0 0 0 1 0 0 0 0 0 1 0 0 0 0 0 0.52 0" result="result1"/>
</filter>

<g id="Mask_3_MASK_0_FILL">
<path fill="#FFFFFF" stroke="none" d="
M 163.5 164.2
Q 190 137.7 190 100.2 190 62.7 163.5 36.2 137 9.7 99.5 9.7 62 9.7 35.5 36.2 9 62.7 9 100.2 9 137.7 35.5 164.2 62 190.7 99.5 190.7 137 190.7 163.5 164.2 Z"/>
</g>

<g id="Layer3_0_FILL">
<path fill="#D8E5B2" stroke="none" d="
M 0 0
L 0 200 200 200 200 0 0 0 Z"/>
</g>

<g id="Layer2_0_FILL">
<path fill="#DFD23A" stroke="none" d="
M 38.3 128.75
Q 24.25 143.6 16.1 169.45 10.2 188.1 7.95 210.5 6.75 221.8 6.75 229.9
L 6.75 238.75 199.4 239.55
Q 199.7 236.75 199.65 231.65 199.55 221.4 197.7 209.75 187.55 145.5 157 120.55 147.4 112.75 137 109.85 133.75 108.9 130.75 108.6
L 128.45 108.45
Q 132 108.95 127.9 109.4 119.65 110.35 81.45 110.35 55.75 110.35 38.3 128.75 Z"/>
</g>

<g id="Layer2_1_FILL">
<path fill="#E7DB53" stroke="none" d="
M 649.25 473
L 649.25 416.7 644.95 416.7 644.95 473 649.25 473 Z"/>
</g>

<g id="Layer2_2_FILL">
<path fill="#E7DB53" stroke="none" d="
M 666.15 363.65
L 650.65 367.5 638.7 367.5
Q 631.3 365.65 622.9 363.85 606.15 360.15 601.25 360.15 596.4 360.15 592 366.75
L 588.6 373.35 597.4 442 611.05 438.05
Q 626.6 434 636.2 433.55
L 646.75 419.15 658.75 434.05
Q 668.05 435.25 680.9 438.75 687.35 440.5 691.9 442
L 701.5 372.6
Q 699.95 369.4 697.45 366.2 692.4 359.75 687.5 359.75 682.6 359.75 666.15 363.65 Z"/>
</g>

<g id="Layer2_3_FILL">
<path fill="#B49E2D" stroke="none" d="
M 676.5 390.55
Q 684.3 376.85 689.25 363.15
L 642.35 354.3 601.25 368.25 605.1 376
Q 610 385.3 615.25 393.1 632.15 417.9 646.5 417.9 660.9 417.9 676.5 390.55 Z"/>
</g>

<g id="Layer2_4_FILL">
<path fill="#F1D587" stroke="none" d="
M 702.1 341.4
Q 700.65 339.2 697.5 338.2 694.8 337.4 692.2 338.75 689.15 340.35 687.55 344.5
L 686.1 363.15 687.7 363.55
Q 689.65 363.85 691.6 363.45 697.8 362.1 701.35 353.95 704.95 345.75 702.1 341.4 Z"/>
</g>

<g id="Layer2_5_FILL">
<path fill="#F1D587" stroke="none" d="
M 594.2 340.9
Q 591.05 341.9 589.6 344.05 586.75 348.4 590.35 356.65 593.9 364.75 600.1 366.1 603.2 366.8 605.6 365.85
L 604.15 347.2
Q 602.55 343.05 599.5 341.45 596.85 340.05 594.2 340.9 Z"/>
</g>

<g id="Layer2_6_FILL">
<path fill="#F4E6B0" stroke="none" d="
M 693.6 324.25
Q 693.25 303.55 688.75 303.55 682.95 303.55 613.15 292.9
L 597.65 309.4 597.45 317.15
Q 597.4 326.6 597.9 335.35 599.55 363.4 606.6 373.6 613.8 384 627.85 393.5 641.7 402.85 647.45 401.45 655.6 399.45 669.4 388.5 686 375.35 689.25 363.15 693.95 345.35 693.6 324.25 Z"/>
</g>

<g id="Layer2_7_FILL">
<path fill="#403638" stroke="none" d="
M 660 268.65
Q 657.3 268.15 655.55 269.9 651.45 274 648.55 274 647.05 274 646.8 271
L 646.85 267.95
Q 646.35 265.05 644.4 263.1 643.15 261.2 642.35 260.55 641.1 259.45 637.4 259.45 631.95 259.45 630.15 259.9 627.2 260.55 627.2 262.85 627.2 265.2 625.7 265 624.7 264.85 620.9 262.85 618.45 261.55 615.75 261.05 613.95 260.7 612.2 258.95 610 256.75 604.5 257.1 599.5 257.4 598.15 258.75 597.65 259.25 595.85 262.1 594.1 264.95 592.3 266.75 590.35 268.7 590.65 271.8 590.8 273.35 591.35 274.5 588.6 275.55 585.85 276.9 580.35 279.6 580.35 281.15 580.35 283.25 579.45 285.6 578.35 288.45 576.35 290.45 574.1 291.95 573.65 292.6 573.2 293.35 573.2 298.7 573.2 303.75 575.55 305.2 576 305.5 577.6 306.1 578.9 306.6 579.5 307.2 580.5 308.2 578.5 310.55 575.85 313.6 575.85 316.65
L 575.85 328.75 579.25 332.6
Q 582.65 336.85 582.65 338.95 582.65 340.6 585 341.65 587.75 342.9 588.55 345.25 589.85 348.95 592.65 349.85 595.35 350.7 597.65 348.4 600.15 345.9 599.45 342.55
L 598.2 339.65
Q 597.4 335.7 600.25 332.45 603.05 330.2 602.5 330.2 599.1 330.2 609.95 329.85 620.8 329.5 623.35 329.5 624.8 329.5 627.7 327.45 630.6 325.35 632.8 325.35 634.95 325.35 635.25 323.3 635.65 321 637.4 320.5 639.3 319.95 639.95 319.2 640.6 318.5 640.95 318.45 642.4 318.15 657 320.05 668.55 321.55 677.85 314.65 682.55 311.2 684.9 307.45
L 686.35 309.35
Q 687.05 310.3 687.1 311.75 687.15 313.1 688.05 314 689.05 314.95 688.7 318.65 688.05 325.1 688.05 326.1 688.05 329.4 690.3 337.4 691.45 341.4 692.55 344.75
L 694.55 345.05
Q 696.85 345.6 698.2 346.95 699.65 348.35 700.15 346.25 700.4 345 700.4 341.35 700.4 339.35 702.4 340.1 705.85 341.35 706.2 341.35 707.75 341.35 708.2 337.1 708.4 335.35 708.4 330.45 708.4 329.05 710.7 326.45 713 323.85 713 321.5 713 318.95 714.15 317.1 715.7 314.6 715.9 314 717.25 309.35 716.7 307.5 716.4 306.45 714.2 304.3 712.4 302.5 712 301.45 711.55 300.45 711.55 298.25 711.55 295.65 709.1 293.15 706.25 290.25 702.1 290.25 698.65 290.25 696.1 293.65 694 296.45 693.5 295.95 692.9 295.35 689.85 295.7 687.3 295.95 687.3 294.35 687.3 293.2 683.7 288.95 680.05 284.75 680.05 281.75 680.05 278.4 677.15 276.85
L 674.2 275.95
Q 673.15 276.05 671.6 275.6 668.45 274.75 665.85 272.2 662.9 269.2 660 268.65 Z"/>
</g>

<g id="Layer2_8_FILL">
<path fill="#F1D587" stroke="none" d="
M 652.5 362.7
Q 652.2 361.6 651.25 360.55 649.4 358.35 646.35 358.35 643.5 358.35 641.35 360.35
L 639.8 362.3
Q 638.85 363.65 641.35 365.05 643.6 366.3 645.6 366.3 648.55 366.3 650.8 364.5 651.95 363.6 652.5 362.7 Z"/>
</g>

<g id="Layer2_9_FILL">
<path fill="#F18144" stroke="none" d="
M 657.75 379.15
Q 662.8 376.75 660.15 376.3 651.1 374.7 640.35 375.45
L 631.45 376.5
Q 632.4 378 636.9 379.7 642.05 381.6 647.25 381.6 652.55 381.6 657.75 379.15 Z"/>
</g>

<g id="winnie___andy___mrs_chan_ai_Layer_1__Path__84_0_Layer0_0_FILL">
<path fill="#FEFFFF" stroke="none" d="
M 6.75 3.25
Q 6.75 1.9 5.75 0.95 4.75 0 3.35 0 1.95 0 1 0.95 0 1.9 0 3.25 0 4.6 1 5.55 1.95 6.5 3.35 6.5 4.75 6.5 5.75 5.55 6.75 4.6 6.75 3.25 Z"/>
</g>

<g id="winnie___andy___mrs_chan_ai_Layer_1__Path__83_0_Layer0_0_FILL">
<path fill="#F18144" stroke="none" d="
M 23.9 11.9
Q 23.9 6.95 20.4 3.5 16.9 0 11.95 0 7 0 3.5 3.5 0 6.95 0 11.9 0 16.85 3.5 20.35 7 23.85 11.95 23.85 16.9 23.85 20.4 20.35 23.9 16.85 23.9 11.9 Z"/>
</g>

<g id="winnie___andy___mrs_chan_ai_Layer_1__Path__82_0_Layer0_0_FILL">
<path fill="#F18144" stroke="none" d="
M 23.9 11.95
Q 23.9 7 20.4 3.5 16.9 0 11.95 0 7 0 3.5 3.5 0 7 0 11.95 0 16.9 3.5 20.4 7 23.9 11.95 23.9 16.9 23.9 20.4 20.4 23.9 16.9 23.9 11.95 Z"/>
</g>

<g id="Layer2_15_FILL">
<path fill="#857D79" stroke="none" d="
M 674.2 275.95
Q 673.15 276.05 671.6 275.6 668.45 274.75 665.85 272.2 662.45 268.7 659.05 268.55 639.3 290.4 622.15 298.75 609.55 304.9 597.9 307.7 588.7 309.9 578.65 310.35 577.35 311.9 576.8 312.9 575.85 314.65 575.85 316.65
L 575.85 328.5
Q 594.95 323.35 616 314.55 652.7 299.25 679.3 278.85 678.3 277.25 676.15 276.45
L 674.2 275.95 Z"/>
</g>

<g id="Layer2_16_FILL">
<path fill="#BFBAB3" stroke="none" d="
M 604.5 257.1
Q 599.5 257.4 598.15 258.75 597.65 259.25 595.85 262.1 594.1 264.95 592.3 266.75 590.35 268.7 590.65 271.8 590.8 273.35 591.35 274.5 583.9 277.35 581.25 279.7 588.7 279.85 596.3 276.9 607.85 272.4 617.2 261.35 615.5 261.1 614.8 260.85 613.65 260.45 612.2 258.95 610 256.75 604.5 257.1 Z"/>
</g>

<g id="Layer2_17_FILL">
<path fill="#5F5655" stroke="none" d="
M 646.4 266.3
Q 645.55 264.25 644.4 263.1 643.15 261.2 642.35 260.55 641.1 259.45 637.4 259.45 631.95 259.45 630.15 259.9 627.2 260.55 627.2 262.85 627.2 265.05 625.9 265 622.8 270.95 614.7 277.5 598.5 290.5 573.4 293.25 573.2 294.1 573.2 298.7 573.2 303.05 574.85 304.7 593.35 299.35 609.5 292.1 636.95 279.8 646.4 266.3 Z"/>
</g>

<g id="Layer2_18_FILL">
<path fill="#857D79" stroke="none" d="
M 596.3 276.9
Q 588.7 279.85 581.25 279.7 580.35 280.5 580.35 281.15 580.35 283.25 579.45 285.6 578.35 288.45 576.35 290.45 575.6 291.2 574.3 292 573.6 292.5 573.4 293.25 598.5 290.5 614.7 277.5 622.8 270.95 625.9 265 624.85 264.95 620.9 262.85 618.9 261.85 617.2 261.35 607.85 272.4 596.3 276.9 Z"/>
</g>

<g id="Layer2_19_FILL">
<path fill="#403638" stroke="none" d="
M 659.05 268.55
Q 657 268.5 655.55 269.9 651.45 274 648.55 274 647.05 274 646.8 271
L 646.85 267.95 646.4 266.3
Q 636.95 279.8 609.5 292.1 593.35 299.35 574.85 304.7 575.55 305.4 577.2 305.95 578.85 306.55 579.5 307.2 580.2 307.9 579.85 308.7 579.65 309.2 578.65 310.35 588.7 309.9 597.9 307.7 609.55 304.9 622.15 298.75 639.3 290.4 659.05 268.55 Z"/>
</g>

<g id="Layer2_20_FILL">
<path fill="#5F5655" stroke="none" d="
M 687 294.35
Q 687 293.2 683.4 288.95 679.75 284.75 679.75 281.75 679.75 280.2 679 278.85 652.4 299.25 615.7 314.55 594.65 323.35 575.55 328.5
L 575.55 328.75 578.95 332.6
Q 582.35 336.85 582.35 338.95 582.35 340.6 584.7 341.65 587.45 342.9 588.25 345.25 589.6 348.95 592.35 349.85 595.05 350.7 597.35 348.4 599.85 345.9 599.15 342.55
L 597.9 339.65
Q 597.1 335.7 599.95 332.45 602.75 330.2 602.2 330.2 598.8 330.2 609.65 329.85 620.5 329.5 623.05 329.5 624.5 329.5 627.4 327.45 630.35 325.35 632.5 325.35 634.65 325.35 634.95 323.3 635.35 321 637.1 320.5 639.1 319.95 639.8 319.05 640.35 318.4 641.3 318.35 644.25 314.45 664.65 304.95 686.5 294.7 687 294.35 Z"/>
</g>

<g id="winnie___andy___mrs_chan_ai_Layer_1__Path__13_0_Layer0_0_FILL">
<path fill="#BFBAB3" stroke="none" d="
M 124.75 40.7
Q 124.75 38.1 122.3 35.6 119.45 32.7 115.3 32.7 111.85 32.7 109.3 36.1 108.2 37.65 107.8 38.1 107.15 38.85 106.7 38.4 106.1 37.8 103.05 38.15 100.5 38.4 100.5 36.8 100.5 35.65 96.9 31.4 93.25 27.2 93.25 24.2 93.25 20.85 90.35 19.3
L 87.4 18.4
Q 86.35 18.5 84.8 18.05 81.65 17.2 79.05 14.65 76.1 11.65 73.2 11.1 70.5 10.6 68.75 12.35 64.65 16.45 61.75 16.45 60.25 16.45 60 13.45
L 60.05 10.4
Q 59.55 7.5 57.6 5.55 56.35 3.65 55.55 3 54.3 1.9 50.6 1.9 45.15 1.9 43.35 2.35 40.4 3 40.4 5.3 40.4 7.65 38.9 7.45 37.9 7.3 34.1 5.3 31.65 4 28.95 3.5 27.15 3.15 25.4 1.4 24.5 0.55 23.1 0.1 22.3 0 21.25 0.1 19.15 0.3 17.45 1.4 16.1 2.35 16.05 1.55 16.05 0.95 14.65 2.35 12.65 4.35 12.4 4.95 12.2 5.45 12.2 7.7 12.2 10.25 11.95 11.2 11.55 12.6 10.1 14 8.8 15.3 9.35 17.1 9.6 18 10.1 18.6
L 8.2 20.55 3.1 31.45 5.5 33.9 7 34.2
Q 8.45 34.8 8.45 36.3 8.45 36.95 9.15 38.9 9.55 40 8.45 41.15 6.5 43.1 3.1 45.5 1.9 45.5 1 45.8 -0.85 46.4 0.65 47.95 1.9 49.2 1.95 50.2 2.05 51.25 3.1 52.3 5.15 54.35 5.4 54.8 5.85 55.85 4.55 57.15 3.35 58.35 1.85 58.85 1.15 59.1 0.65 59.1
L 0.65 66.85
Q 1.7 67.9 4.45 67.95 5.8 68 6.95 67.8
L 16.65 63.95 19.6 61.05
Q 20.5 60.15 22.8 59.8 23.95 59.6 24.9 59.6
L 32.2 62.5 38.45 62.5
Q 40.9 59.6 43.3 57.15 44.85 55.65 46.65 55.05 47.55 54.75 48.15 54.75
L 53.5 53.3 58.35 52.8 67.25 55.3
Q 69.05 55.65 70 54.75 70.65 54.1 72.95 53 75.25 51.9 76.3 50.85 78.2 48.9 81.1 47.95
L 84.5 47 85.35 47.85
Q 86.45 48.4 87.9 47 89.35 45.55 91.45 45.15 92.5 44.95 93.25 45.05
L 95.4 42.85 100 43.6 108.25 48.9 109.95 50.6 109.7 54.75
Q 109.7 56.65 106.5 59.9
L 107.3 63.45 109.25 66.85 108.7 68.05
Q 108.45 69.55 109.85 70.95
L 112.1 73.2 121.6 72.9
Q 121.6 71.5 123.9 68.9 126.2 66.3 126.2 63.95 126.2 61.4 127.35 59.55 128.9 57.05 129.1 56.45 130.45 51.8 129.9 49.95 129.6 48.9 127.4 46.75 125.6 44.95 125.2 43.9 124.75 42.9 124.75 40.7 Z"/>
</g>

<g id="Layer2_22_MEMBER_0_FILL">
<path fill="#1D2F11" stroke="none" d="
M 687.7 389.35
Q 688.256640625 388.887890625 688.35 388.75 688.256640625 388.887890625 687.7 389.35 686.9150390625 390.082421875 685.25 391.55 683.3 393.3 683 394.65 684.1 393.15 685.85 391.65 687.55 390.2 688.9 389.65 688.55 390.6 687.85 392.6 687.2 394.35 686.45 395.25 685.65 394.75 685.2 394.55 684.45 394.2 683.65 394.15 683.6 395.05 684.05 395.95 684.3 396.45 684.8 397.4 683.15 398.4 682.55 400.15 682.6 400.55 683.2 400.8 683.85 401.1 683.9 401.4 681.55 401.2 680.9 400.95
L 679.55 400.7 680.55 401.7
Q 681.55 402.25 682.9 402.1 684.2326171875 401.962109375 684.7 401.3 684.462890625 401.6880859375 683.55 402.85 682.85 403.7 682.8 404.5
L 681.05 403.25
Q 679.85 402.55 678.85 403 678.55 404 679.1 404.8 679.75 405.75 679.75 406.25 679.05 406.15 678.35 406.45 677.45 406.85 677.1 406.9 677.1 407.9 678.35 408.4 679 408.7 680.35 409.2 679 410.55 678.95 412.55 679.7 413.1 681.25 412.3 682.95 411.4 683.05 411.45 682.8 412.55 683.25 413.3 683.45 413.7 684.25 414.45 683.7 414.65 683 414.15 682.45 413.7 682.3 414 682.9 414.45 683.9 415.55 684.1 415.3 684.75 415.2 685.45 415.05 685.7 414.85 686.45 416.15 685 419.05 683.3 422.3 683.3 422.45 683.6 422.3 684.15 421.4 684.6 420.65 685.2 420.6 685.75 421.3 685 422.3 684.35 423.15 684.95 423.45 685.55 423.25 686.15 422.5 686.9 421.55 687.15 421.35 687.8 422.8 689.65 423 689.8 422.25 689.7 421.35 689.55 420.25 689.6 419.8 691 420.1 692.25 419.45 692.35 418.7 691.5 418.35 690.5 417.9 690.4 417.55 691.1 417.45 691.5 416.6 691.95 415.75 691.45 415.05 690.6 415 689.7 415.35 688.75 415.75 688.2 415.9 688.5 415 687.8 414.75 687.1 414.55 686.8 415.25 686.75 414.4 687.65 412.7 688.4 411.25 687.8 410.1 686.9 411.35 686.25 411.7 686.45 410.7 685.7 407.6 685 404.8 685.8 403 685.65 403.45 685.85 403.8 686.05 404.15 685.95 404.45 686.05 404.45 689.15 404.9 691.3 405.25 692.05 404.1 690.75 404.4 689.35 404.15 687.7 403.85 687.55 402.85 687.95 402.95 687.9 402.15 687.85 401.35 688.25 401.45 689.1 402.6 691.05 402.55 690.85 400.65 691.8 401.65 692.5 402.45 692.5 402.4 692.35 402.1 691.25 400.75 690.45 399.8 690.5 398.75 692.4 398.7 693.55 396.7 692.65 396.25 690.4 396.15 690.85 395 690.05 393.6 689.4 392.3 689.95 391.5 689.7 392.45 690.25 392.95 690.45 393.1 691.5 393.65 691.65 392.8 691.1 390.5 690.65 388.65 691.35 388.15 691.75 390.7 693.15 391 694.2 391.25 697.2 390.2 694 390 693.55 389.8 693.25 389.65 691.65 387.85 692.05 386.7 691.7 383.5 693.45 378.45 692.15 380.85
L 690.5 384.3
Q 690.55 384.5 690.15 385.75 689.75 387.05 689.8 387.2 687.45 388.8 686.45 387.95 686.15 387.7 684.9 384.85 684.5 388.9 685.35 389.9 686.0587890625 390.7337890625 687.7 389.35
M 685.15 411.05
Q 686.1 411.55 686.1 412.5 686.1 413.35 685.45 414.25 684.7 413.85 684.8 412.95 685.1 411.8 685.15 411.05 Z"/>
</g>

<g id="Layer2_22_MEMBER_1_FILL">
<path fill="#1D2F11" stroke="none" d="
M 688.85 428
Q 689.9 427.85 690.2 427.65 690.05 427.55 686.35 427.8 683.1 428 682.25 426.8 682.5 426.65 682.95 426.1 683.35 425.55 683.65 425.45 683.05 424.2 682.8 423.35 682.5 423.35 682.65 424.05 682.85 424.9 682.45 425.35 682.1 424.3 681.8 423.95 681.3 423.25 680.2 423.05 680.2 422.9 681.7 421.7 683.05 420.6 682.85 419.7 680.9 419 679.2 419.65 679.2 419.55 679.25 417.45 679.35 416.15 678.4 415.75 678.25 416.05 677.5 416.7 676.9 417.2 676.75 417.9 676.35 417.7 675.65 416.75 675.1 415.95 674.1 415.8 673.3 416.55 673.45 417.9 673.5 418.7 673.9 420 673.15 419.75 672.1 420.05 670.65 420.4578125 670.15 420.5 670.9375 420.391015625 671.6 419.35 672.25 418.25 672.25 417.15
L 671.4 415.5 671.4 417.15
Q 671.3 418.05 670.6 419.8 670.4 419.6 670.4 418.9 670.4 418.25 670 418.05 668.05 418 666.6 419.05 665.95 418.2 665.55 417.75 664.9 417.05 664.1 416.7 663.8 417.45 663.8 418.3 663.85 418.8 663.95 419.7 662.85 420 661.05 419.95 658.9 419.8 657.85 419.75 658.85 418.75 660.9 417.7 662.95 416.7 664.8 416.3 663.45 416.05 661.1 417.15 657.55 418.8 657.25 418.9 660.3 417.65 660.4 415.55 660.5 413.25 656.85 412.05 658.45 413.8 658.2 415.75 657.85 417.9 655.3 419.55 655.15 419.45 654.75 419.6 654.4 419.8 654.2 419.65 653 419.85 652.35 420.1 651.05 420.5 653.8 420.5 654.45 420.9 655.1 421.55 655.8 422.95 656.85 424.1 657.45 425.15 656.5 427.7 658.45 425.6 658.15 424.2 657.9 422.9 655.5 421.35 656.25 420.95 657.75 422.1 659.6 423.55 660.5 423.7 660.45 422.5 660.35 422.25 660.1 421.55 659.15 421.4 660.1 421.2 661 422.35 662 423.65 663.2 423.7 662.4 425.9 662.5 426.8 664.75 426.55 665.6 424.8 666.55 425.2 667.15 426.3 667.95 427.9 668.1 428.1
L 667.75 427.15
Q 667.2 425.85 668.85 426.8 669.65 425.1 668.95 423.8 669.05 423.4 669.75 423.8 670.45 424.15 670.5 423.75 671.35 424.3 671 425.9 670.7 427.35 669.85 428.35 671.25 428.1 671.75 426 672.6 422.95 672.6 422.9 672.3 422.85 672.05 422.5 671.8 422.2 671.35 422.2 673.3 422.15 675.6 423.9 678.15 425.85 679.15 426.05 678.85 426.35 678.15 426.55 677.2 426.8 677.05 426.85 677.9 427.85 679.45 427.75 681.4 427.6 682.15 428 681.45 427.95 681.35 428.7 681.25 429.45 682.25 429.55 681.5 430.3 681.1 430.65 680.45 431.35 680.15 432.15 680.6 432.9 681.55 432.85 682.45 432.75 682.85 432.15 683.1 432.4 683.15 433.5 683.2 434.45 683.85 434.65 684.95 433.7 685.25 432.35 685.75 432.5 686.65 433.05 687.4 433.5 688.15 433.65 688.65 431.8 687.6 430.75 687.9 430.6 689.1 430.3 690 430.05 690.45 429.55 690.45 428.9 689.4 429.15 688.15 429.45 687.7 428.65 688 428.1 688.85 428
M 679 424.75
Q 679.7 425 680.85 425.2 681.75 425.5 681.8 426.35 680.65 426.55 679.95 426.25 679.05 425.85 679 424.75 Z"/>
</g>

<g id="Layer2_22_MEMBER_2_FILL">
<path fill="#1D2F11" stroke="none" d="
M 60.25 131.35
Q 59.9 131.55 57.05 131.8 59.7 132.7 60.6 132.45 61.85 132.1 62.1 129.9 62.7 130.3 62.4 131.9 61.95 133.9 62.15 134.65 63 134.15 63.15 134.05 63.65 133.55 63.45 132.75 63.9 133.45 63.35 134.55 62.7 135.8 63.1 136.8 61.05 137 60.4 137.35 61.45 139.05 63.1 139.05 63.15 140 62.5 140.85 61.5 142.05 61.4 142.25 61.4 142.3 62 141.6 62.85 140.7 62.7 142.35 64.4 142.35 65.1 141.35 65.4 141.25 65.4 141.95 65.4 142.65 65.75 142.55 65.6 143.4 64.15 143.7 62.95 143.95 61.85 143.7 62.55 144.7 64.35 144.4 67.05 143.9 67.1 143.9 67.05 143.6 67.2 143.3 67.35 143 67.25 142.65 67.95 144.2 67.4 146.6 66.8 149.3 67.05 150.2 66.7 150 66.3 149.55 65.8 149 65.65 148.85 65.15 149.85 65.8 151.05 66.65 152.55 66.6 153.25 66.35 152.7 65.75 152.9 65.1 153.1 65.4 153.85 64.55 153.55 64.15 153.4 63.35 153.15 62.55 153.2 62.2 153.85 62.55 154.55 62.9 155.25 63.55 155.35 63.5 155.65 62.6 156.05 61.9 156.4 62 157 63.1 157.55 64.25 157.25 64.35 157.75 64.2 158.6 64.15 159.35 64.3 160 66 159.75 66.4 158.55 66.7 158.7 67.35 159.55 67.85 160.2 68.35 160.3 68.9 160.05 68.35 159.35 67.7 158.5 68.1 157.85 68.65 157.9 69.05 158.5 69.55 159.3 69.75 159.4 69.75 159.25 68.3 156.45 66.95 154 67.6 152.9 67.75 153.05 68.35 153.2 68.95 153.25 69.15 153.5 69.95 152.5 70.5 152.1 70.35 151.85 69.9 152.2 69.3 152.65 68.8 152.55 69.5 151.8 69.6 151.5 69.95 150.85 69.75 149.9 69.9 149.85 71.35 150.6 72.75 151.25 73.4 150.75 73.2 149 72.05 147.9
L 73.8 147.15
Q 74.85 146.75 74.85 145.85 74.6 145.8 73.8 145.45 73.15 145.2 72.55 145.35 72.55 144.95 73.1 144.05 73.5 143.35 73.25 142.5 72.35 142.15 71.35 142.75 71.05 142.9 69.9 143.85 69.85 143.2 69.2 142.45 68.4103515625 141.50234375 68.15 141.15 68.623828125 141.7154296875 69.7 141.85 70.9 141.9 71.75 141.4
L 72.55 140.5 71.45 140.75
Q 70.75 141.05 68.85 141.25 68.9 140.95 69.45 140.65 69.95 140.45 69.95 140.1 69.3 138.5 68 137.8 68.4 136.95 68.65 136.5 68.95 135.7 68.95 134.9 68.2 134.95 67.6 135.3 66.9 135.75 66.5 135.95 65.85 135.2 65.25 133.7 64.65 131.95 64.25 131.15 65.4 131.6 66.95 132.85 68.55 134.1 69.45 135.4 69.2 134.2 67.45 132.75 65.9986328125 131.4921875 65.3 130.9 65.275 130.9125 65.25 130.9 65 130.65 64.75 130.4 65 130.65 65.25 130.9 65.275 130.9125 65.3 130.9 66.759375 132.03828125 67.35 131.3 68.05 130.4 67.65 126.9 66.65 129.35 66.4 129.65 65.55 130.4 63.5 129.05 63.5 128.95 63.15 127.8 62.75 126.75 62.8 126.55 61.85 124.65 61.25 123.6 60.1 121.55 61.7 125.9 61.55 128.75 61.85 129.65 60.55 131.25 60.25 131.35
M 67.15 150.9
Q 67.15 150 68 149.6 68 150.25 68.35 151.25 68.4 151.95 67.75 152.35 67.15 151.6 67.15 150.9 Z"/>
</g>

<g id="Layer2_22_MEMBER_3_FILL">
<path fill="#1D2F11" stroke="none" d="
M 636.85 418.85
Q 636.65 419 636.25 418.85 635.85 418.7 635.75 418.8 633.1 417.25 632.75 415.1 632.45 413.15 634 411.35 630.4 412.65 630.55 414.9 630.7 417.05 633.75 418.2 633.55 418.15 629.9 416.55 627.5 415.45 626.15 415.8 628 416.15 630.1 417.1 632.15 418.05 633.15 419.05 631.05 419.25 630 419.3 628.15 419.45 627.05 419.15 627.15 418.25 627.2 417.75 627.2 416.9 626.9 416.15 626.05 416.5 625.4 417.25 624.75 418.15 624.4 418.6 622.9 417.5 621 417.65 620.65 417.85 620.65 418.5 620.65 419.2 620.4 419.4 619.7 417.6 619.6 416.8
L 619.55 415.15 618.7 416.8
Q 618.75 417.9 619.4 418.95 620.0091796875 419.9072265625 620.7 420.1 620.25078125 420.0060546875 618.95 419.7 617.9 419.4 617.15 419.7 617.5 418.35 617.55 417.6 617.7 416.25 616.85 415.5 615.85 415.65 615.3 416.5 614.65 417.5 614.25 417.7 614.05 417 613.45 416.5 612.7 415.85 612.55 415.55 611.6 415.95 611.7 417.3 611.85 419.45 611.85 419.5 610.1 418.85 608.2 419.6 608.05 420.5 609.4 421.6 610.9 422.75 610.95 422.9 609.85 423.15 609.3 423.85 609.1 424.15 608.7 425.25 608.3 424.8 608.5 423.95 608.6 423.25 608.3 423.25 608.15 423.9 607.55 425.35 607.85 425.45 608.25 426 608.7 426.55 608.95 426.7 608.1 427.95 604.85 427.8 601.25 427.65 601.05 427.75 601.3 427.95 602.35 428 603.2 428.1 603.5 428.65 603.1 429.45 601.85 429.2 600.85 429 600.8 429.65 601.25 430.1 602.2 430.3 603.35 430.6 603.7 430.75 602.65 431.9 603.2 433.7 603.95 433.55 604.75 433.05 605.65 432.45 606.1 432.3 606.4 433.7 607.5 434.55 608.2 434.35 608.2 433.4 608.2 432.3 608.45 432.05 608.9 432.65 609.8 432.7 610.75 432.75 611.2 432 610.85 431.2 610.2 430.5 609.4 429.8 609 429.4 610 429.3 609.9 428.55 609.8 427.85 609.05 427.85 609.8 427.45 611.75 427.55 613.35 427.65 614.15 426.6 612.6 426.35 612 425.85 613.05 425.65 615.55 423.65 617.8 421.85 619.75 421.8 619.3 421.85 619.05 422.15 618.8 422.55 618.5 422.6 618.55 422.65 619.45 425.65 620.05 427.7 621.4 427.95 620.55 426.9 620.2 425.55 619.8 423.95 620.6 423.35 620.7 423.75 621.4 423.4 622.1 423 622.15 423.4 621.5 424.65 622.35 426.4 623.95 425.4 623.45 426.7 623.05 427.7 623.1 427.65 623.25 427.45 624.05 425.85 624.6 424.7 625.55 424.3 626.4 426.05 628.7 426.2 628.75 425.25 627.9 423.15 629.1 423.05 630.1 421.75 631 420.55 631.95 420.75 630.95 420.9 630.75 421.65 630.65 421.9 630.65 423.05 631.5 422.85 633.35 421.4 634.8 420.25 635.55 420.65 633.2 422.25 633 423.55 632.75 424.95 634.75 427 633.75 424.45 634.3 423.4 635.35 422.2 635.95 420.8 636.6 420.1 637.2 419.75 641.65 419.65 636.85 418.85
M 610.3 425.05
Q 610.8 424.9 612.15 424.6 612.15 425.7 611.25 426.1 610.55 426.4 609.4 426.2 609.45 425.35 610.3 425.05 Z"/>
</g>

<g id="winnie___andy___mrs_chan_ai_Layer_1__Path__12_0_Layer0_0_FILL">
<path fill="#FEFFFF" stroke="none" d="
M 67 8.45
Q 63.15 8.4 45.7 4.2 37 2.1 29.05 0 23.35 1.3 16.85 3.75 3.85 8.65 0 14.55 1.95 19 7 22.55 17.1 29.6 32.7 25.05 50.15 20 61.5 14.1 72.15 8.6 67 8.45 Z"/>
</g>

<g id="winnie___andy___mrs_chan_ai_Layer_1__Path__11_0_Layer0_0_FILL">
<path fill="#FEFFFF" stroke="none" d="
M 68.35 14.55
Q 64.5 8.65 51.5 3.75
L 39.3 0
Q 31.35 2.1 22.65 4.2 5.2 8.4 1.35 8.45 -3.8 8.6 6.85 14.1 18.2 20 35.65 25.05 51.25 29.6 61.35 22.55 66.4 19 68.35 14.55 Z"/>
</g>

<g id="Layer2_25_FILL">
<path fill="#6A4F38" stroke="none" d="
M 616.4 343.9
Q 619.05 344.9 623.75 345.25 626.7 345.45 628.15 344.5 629.9 343.35 628.6 340.85 626.8 337.45 620.6 338.85
L 614.8 340.9
Q 613 342.65 616.4 343.9 Z"/>
</g>

<g id="Layer2_26_FILL">
<path fill="#6A4F38" stroke="none" d="
M 667.5 345.25
Q 672.2 344.9 674.85 343.9 678.25 342.65 676.45 340.9 673.75 339.55 670.65 338.85 664.45 337.45 662.65 340.85 661.3 343.35 663.1 344.5 664.55 345.45 667.5 345.25 Z"/>
</g>

<g id="winnie___andy___mrs_chan_ai_Layer_1__Path__8_0_Layer0_0_FILL">
<path fill="#FFFFFF" stroke="none" d="
M 5.7 2.15
Q 5.7 1.25 4.85 0.65 4 0 2.85 0 1.65 0 0.85 0.65 0 1.25 0 2.15 0 3.05 0.85 3.7 1.65 4.3 2.85 4.3 4 4.3 4.85 3.7 5.7 3.05 5.7 2.15 Z"/>
</g>

<g id="winnie___andy___mrs_chan_ai_Layer_1__Path__7_0_Layer0_0_FILL">
<path fill="#FFFFFF" stroke="none" d="
M 3.15 1.35
Q 3.15 0.8 2.7 0.4 2.25 0 1.6 0 0.95 0 0.45 0.4 0 0.8 0 1.35 0 1.9 0.45 2.3 0.95 2.7 1.6 2.7 2.25 2.7 2.7 2.3 3.15 1.9 3.15 1.35 Z"/>
</g>

<g id="winnie___andy___mrs_chan_ai_Layer_1__Path__6_0_Layer0_0_FILL">
<path fill="#FFFFFF" stroke="none" d="
M 5.75 2.15
Q 5.75 1.25 4.9 0.65 4.05 0 2.9 0 1.7 0 0.85 0.65 0 1.25 0 2.15 0 3.05 0.85 3.7 1.7 4.3 2.9 4.3 4.05 4.3 4.9 3.7 5.75 3.05 5.75 2.15 Z"/>
</g>

<g id="winnie___andy___mrs_chan_ai_Layer_1__Path__5_0_Layer0_0_FILL">
<path fill="#FFFFFF" stroke="none" d="
M 3.15 1.35
Q 3.15 0.8 2.7 0.4 2.25 0 1.6 0 0.95 0 0.45 0.4 0 0.8 0 1.35 0 1.9 0.45 2.3 0.95 2.7 1.6 2.7 2.25 2.7 2.7 2.3 3.15 1.9 3.15 1.35 Z"/>
</g>

<g id="winnie___andy___mrs_chan_ai_Layer_1__Path__4_0_Layer0_0_FILL">
<path fill="#FFFFFF" stroke="none" d="
M 21.95 0
L 11.5 2.6 0 15.8 6.9 18.65 21.95 0 Z"/>
</g>

<g id="winnie___andy___mrs_chan_ai_Layer_1__Path__3_0_Layer0_0_FILL">
<path fill="#FFFFFF" stroke="none" d="
M 16.75 0.45
L 15.2 0 0 21.6 2.3 22.35 16.75 0.45 Z"/>
</g>

<g id="winnie___andy___mrs_chan_ai_Layer_1__Path__2_0_Layer0_0_FILL">
<path fill="#FFFFFF" stroke="none" d="
M 27.7 1.65
L 21.2 0 0 24.3
Q 3.9 25.4 8.65 25.25
L 27.7 1.65 Z"/>
</g>

<g id="winnie___andy___mrs_chan_ai_Layer_1__Path__1_0_Layer0_0_FILL">
<path fill="#FFFFFF" stroke="none" d="
M 16.15 0.35
L 14.65 0 0 20.8 3.3 19.85 16.15 0.35 Z"/>
</g>

<g id="Layer2_35_FILL">
<path fill="#543F9E" stroke="none" d="
M 721.1 337.55
Q 712.65 333.4 706 331.1 694.15 327.05 684.15 327.05 671 327.05 658.45 333.8 654.55 335.9 651.15 338.4
L 648.55 340.5 643.15 340.5
Q 639.5 337.15 633.25 333.8 620.7 327.05 607.55 327.05 597.55 327.05 585.7 331.1 579.05 333.4 570.6 337.55 568.25 338.75 567.3 340.45
L 566.8 341.95 570.85 341.15
Q 576.6 339.75 584.8 336.7 592.35 333.9 598.6 333 605.1 332 613.55 332.5 627.6 333.3 635.5 338.95 639.45 341.8 640.6 344.5
L 640.5 345.8
Q 640.85 347.05 643.15 347.05
L 648.55 347.05
Q 650.8 347.05 651.2 345.8
L 651.1 344.5 652.15 342.8
Q 653.7 340.75 656.2 338.95 664.1 333.3 678.15 332.5 686.6 332 693.1 333 699.35 333.9 706.9 336.7 715.1 339.75 720.8 341.15 723.65 341.85 724.85 341.95 724.85 341.35 724.4 340.45 723.5 338.75 721.1 337.55 Z"/>
</g>

<path id="Layer2_13_1_STROKES" stroke="#5F5655" stroke-width="5" stroke-linejoin="miter" stroke-linecap="round" stroke-miterlimit="4" fill="none" d="
M 114.25871582031249 80.36480712890625
L 133.17875671386713 77.85368041992189"/>

<path id="Layer2_14_1_STROKES" stroke="#5F5655" stroke-width="5" stroke-linejoin="miter" stroke-linecap="round" stroke-miterlimit="4" fill="none" d="
M 72.00251464843751 78.71958618164064
L 90.96585083007807 80.49469299316405"/>

<path id="Layer2_22_MEMBER_0_1_STROKES" stroke="#71C9A0" stroke-width="1" stroke-linejoin="round" stroke-linecap="round" fill="none" d="
M 138.9833923339844 130.86205596923827
Q 139.46539065837862 130.44026515483858 139.56787872314453 130.342512512207
M 138.9833923339844 130.86205596923827
Q 137.56225832700727 132.03863924741745 136.94851379394538 131.3166564941406 136.21249389648438 130.45075073242185 136.5588562011718 126.94383239746094 137.64123840332024 129.41166381835933 137.90101013183596 129.62814025878902 138.7669158935547 130.36416015625002 140.80179443359373 128.97871093749995 140.7584991455078 128.8488250732422 141.10486145019524 127.7231475830078 141.4512237548828 126.64076538085936 141.40792846679688 126.46758422851565
L 142.83667297363274 123.48020935058594
Q 143.9623504638672 121.40203552246089 142.4470153808594 125.77485961914061 142.75008239746091 128.54575805664058 142.40372009277337 129.5415496826172 143.78916931152344 131.10018005371091 144.04894104003904 131.23006591796877 144.4385986328125 131.4032470703125 147.20949707031252 131.5764282226562 144.61177978515627 132.48562927246093 143.7025787353515 132.26915283203124 142.4903106689453 132.00938110351558 142.14394836425788 129.8013214111328 141.53781433105462 130.23427429199216 141.9274719238282 131.83619995117186 142.40372009277337 133.82778320312502 142.27383422851562 134.56380310058591 141.36463317871096 134.08755493164062 141.1914520263672 133.95766906738277 140.7152038574219 133.5247161865234 140.93168029785159 132.7021057128906 140.45543212890618 133.39483032226565 141.01827087402341 134.5205078125 141.7109954833985 135.73277587890624 141.32133789062493 136.7285675048828 143.26962585449212 136.81515808105468 144.04894104003904 137.20481567382808 143.05314941406243 138.93662719726558 141.40792846679688 138.97992248535155 141.36463317871096 139.88912353515627 142.05735778808594 140.71173400878905 143.00985412597663 141.88070678710938 143.13973999023438 142.14047851562498 143.13973999023438 142.1837738037109 142.53360595703123 141.49104919433591 141.7109954833985 140.62514343261716 141.88417663574216 142.27036437988284 140.1956604003907 142.31365966796875 139.4596405029297 141.31786804199214 139.11327819824226 141.2312774658203 139.15657348632806 141.9240020751953 139.19986877441409 142.61672668457027 138.85350646972654 142.53013610839844 138.9833923339844 143.3960418701172 140.41213684082038 143.6558135986328 141.62440490722656 143.87229003906248 142.75008239746091 143.61251831054688 142.10065307617185 144.60830993652343 140.2389556884765 144.30524291992185 137.55464782714841 143.9155853271484 137.46805725097659 143.9155853271484 137.55464782714841 143.6558135986328 137.38146667480476 143.35274658203127 137.20828552246087 143.04967956542964 137.33817138671873 142.66002197265624 136.64544677734375 144.21865234375002 137.2515808105469 146.6431884765625 137.90101013183596 149.32749633789058 137.7278289794922 150.19340209960933 138.2906677246093 149.8903350830078 139.06998291015623 148.80795288085938 139.58952636718743 149.80374450683593 138.94009704589837 151.05930786132808 138.16078186035156 152.53134765624998 138.20407714843748 153.26736755371093 138.4638488769532 152.66123352050784 139.06998291015623 152.83441467285155 139.67611694335938 153.05089111328124 139.41634521484377 153.8302062988281 139.89259338378906 153.7003204345703 140.7152038574219 153.3539581298828 141.49451904296882 153.05089111328124 142.2305389404297 153.0941864013672 142.66349182128909 153.7003204345703 142.27383422851562 154.43634033203125 141.9274719238282 155.17236022949214 141.32133789062493 155.25895080566409 141.40792846679688 155.5620178222656 142.27383422851562 155.95167541503906 143.00985412597663 156.25474243164058 142.9232635498047 156.90417175292964 141.84088134765625 157.46701049804688 140.62861328125007 157.20723876953127 140.58531799316404 157.59689636230468 140.7152038574219 158.5493927001953 140.80179443359373 159.32870788574218 140.67190856933587 159.97813720703124 139.06998291015623 159.80495605468752 138.507144165039 158.5493927001953 138.2906677246093 158.72257385253909 137.64123840332024 159.54518432617186 137.12169494628904 160.19461364746093 136.60215148925784 160.36779479980464 136.08260803222663 160.10802307128904 136.64544677734375 159.37200317382815 137.2948760986328 158.5060974121094 136.81862792968752 157.89996337890625 136.29908447265632 157.94325866699216 135.90942687988274 158.59268798828123 135.43317871093757 159.37200317382815 135.17340698242185 159.5018890380859 135.17340698242185 159.37200317382815 136.64544677734375 156.5578094482422 137.90101013183596 154.0466827392578 137.2515808105469 152.92100524902344 137.0351043701172 153.0941864013672 136.42897033691406 153.22407226562495 135.86613159179694 153.3106628417969 135.69295043945306 153.52713928222659 134.8270446777343 152.5746429443359 134.3075012207031 152.1849853515625 134.43738708496096 151.92521362304683 134.91363525390625 152.3148712158203 135.5197692871094 152.74782409667966 135.9960174560547 152.5746429443359 135.3032928466797 151.92521362304683 135.13011169433594 151.5788513183594 134.74045410156248 150.92942199707034 134.95693054199216 149.97692565917964 134.87033996582034 149.93363037109373 133.39830017089844 150.71294555664065 132.0561462402344 151.40567016601562 131.40671691894534 150.92942199707034 131.45001220703125 149.19761047363284 132.61898498535163 148.02863769531245 131.45001220703125 147.59568481445308 130.88717346191413 147.33591308593748 129.8047912597657 146.9029602050781 129.8047912597657 146.03705444335935 130.1078582763672 145.99375915527344 130.88717346191413 145.6473968505859 131.49330749511716 145.3876251220703 132.0994415283203 145.47421569824218 132.0994415283203 145.0412628173828 131.5366027832032 144.21865234375002 131.0603546142578 143.525927734375 131.3201263427735 142.66002197265624 132.18603210449226 142.27036437988284 133.22511901855466 142.87649841308593
L 134.74045410156248 143.95888061523436
Q 134.7837493896485 143.26615600585933 135.38988342285154 142.53013610839844 136.1803606748581 141.52402802705762 136.40732269287116 141.2096298217773 135.98096557855604 141.7613065004349 134.8270446777343 141.88070678710938 133.65807189941404 142.01059265136718 132.7921661376953 141.53434448242183
L 131.92626037597654 140.66843872070308 133.0952331542968 140.88491516113277
Q 133.65807189941404 141.10139160156245 135.69295043945306 141.27457275390623 135.64965515136726 141.01480102539062 135.08681640625002 140.75502929687502 134.56727294921882 140.53855285644534 134.5239776611328 140.1921905517578 135.043521118164 138.67685546874998 136.47226562499998 137.81094970703123 136.0393127441406 136.9883392333984 135.82283630371091 136.55538635253902 135.43317871093757 135.7760711669922 135.47647399902337 134.9967559814453 136.16919860839846 135.0400512695312 136.81862792968752 135.34311828613284 137.20828552246087 135.51629943847655 137.90101013183596 135.94925231933593 138.55043945312502 135.16993713378906 139.11327819824226 133.65460205078125 139.7194122314453 131.92279052734375 140.0224792480468 131.10018005371091 138.85350646972654 131.5764282226562 137.38146667480476 132.83199157714841 135.86613159179694 134.13085021972654 134.91363525390625 135.42970886230466 135.17340698242185 134.2607360839844 136.86192321777344 132.74540100097659 138.30369013547897 131.47461664676666 138.9833923339844 130.86205596923827 Z
M 136.7753326416015 149.6305633544922
Q 136.7320373535157 150.27999267578127 136.47226562499998 151.27578430175777 136.38567504882815 152.0550994873047 137.0351043701172 152.40146179199218 137.59794311523444 151.6221466064453 137.59794311523444 150.88612670898436 137.59794311523444 150.06351623535159 136.7753326416015 149.6305633544922 Z"/>

<path id="Layer2_22_MEMBER_1_1_STROKES" stroke="#71C9A0" stroke-width="1" stroke-linejoin="round" stroke-linecap="round" fill="none" d="
M 125.60514831542969 154.91258850097654
Q 125.60514831542969 155.86508483886718 125.04230957031257 156.8175811767578 124.46864700317383 157.71900260448456 123.80839385986326 157.83502044677732 124.21969909667962 157.77684240341182 125.47526245117194 157.42371520996096 126.3844635009765 157.1639434814453 127.03389282226556 157.380419921875 126.68753051757812 156.25474243164058 126.64423522949221 155.5620178222656 126.51434936523435 154.39304504394534 127.20707397460944 153.74361572265627 128.0729797363282 153.87350158691402 128.54922790527337 154.56622619628905 129.15536193847663 155.38883666992183 129.50172424316406 155.5620178222656 129.6316101074218 154.95588378906245 130.15115356445312 154.52293090820308 130.8005828857422 153.96009216308596 130.93046874999993 153.7003204345703 131.75307922363288 154.0466827392578 131.66648864746094 155.17236022949214 131.62319335937502 156.99076232910159 131.62319335937502 157.07735290527341 133.0952331542968 156.51451416015624 134.7837493896485 157.12064819335933 134.95693054199216 157.89996337890625 133.7879577636719 158.85245971679683 132.48909912109377 159.89154663085935 132.48909912109377 160.0214324951172 133.44159545898435 160.19461364746093 133.87454833984373 160.80074768066402 134.13432006835944 161.10381469726565 134.43738708496096 162.0130157470703 134.7837493896485 161.62335815429685 134.61056823730462 160.88733825683596 134.48068237304688 160.2812042236328 134.74045410156248 160.2812042236328 134.95693054199216 161.0172241210937 135.47647399902337 162.09960632324214 135.21670227050788 162.18619689941409 134.87033996582034 162.66244506835938 134.48068237304688 163.13869323730466 134.2642059326172 163.26857910156252 135.0002258300782 164.307666015625 137.81441955566413 164.13448486328127 141.01827087402341 163.91800842285159 141.14815673828127 164.00459899902341 140.88838500976556 164.1777801513672 139.979183959961 164.307666015625 139.2431640625 164.39425659179688 138.9833923339844 164.87050476074216 139.37304992675774 165.56322937011714 140.45543212890618 165.30345764160154 141.36463317871096 165.08698120117185 141.36463317871096 165.64981994628909 140.9749755859375 166.08277282714846 140.1956604003907 166.29924926757815 139.15657348632806 166.55902099609375 138.89680175781257 166.68890686035155 139.80600280761712 167.59810791015627 139.37304992675774 169.20003356933591 138.72362060546868 169.0701477050781 138.07419128417962 168.6804901123047 137.2948760986328 168.20424194335936 136.86192321777344 168.07435607910156 136.60215148925784 169.24332885742183 135.64965515136726 170.06593933105466 135.08681640625002 169.8927581787109 135.043521118164 169.0701477050781 135.0002258300782 168.11765136718748 134.7837493896485 167.9011749267578 134.43738708496096 168.42071838378905 133.65807189941404 168.50730895996094 132.83546142578132 168.55060424804685 132.44580383300774 167.9011749267578 132.70557556152346 167.2084503173828 133.2684143066407 166.60231628417966 133.61477661132812 166.29924926757815 134.2642059326172 165.64981994628909 133.39830017089844 165.56322937011714 133.48489074707038 164.91380004882808 133.5714813232422 164.26437072753902 134.17761535644524 164.307666015625 133.52818603515618 163.9613037109375 131.8396697998047 164.0911895751953 130.49751586914056 164.1777801513672 129.76149597167966 163.31187438964844 129.89138183593752 163.26857910156252 130.71399230957024 163.05210266113284 131.3201263427735 162.87892150878906 131.579898071289 162.61914978027346 130.71399230957024 162.4459686279297 128.50593261718757 160.7574523925781 126.51434936523435 159.2421173095703 124.82583312988288 159.2854125976562 125.21549072265623 159.2854125976562 125.43196716308591 159.54518432617186 125.6484436035156 159.84825134277344 125.90821533203132 159.89154663085935 125.90821533203132 159.93484191894527 125.17219543457031 162.5758544921875 124.73924255371094 164.39425659179688 123.52697448730476 164.61073303222656 124.26299438476565 163.7448272705078 124.52276611328125 162.4892639160156 124.82583312988288 161.10381469726565 124.08981323242188 160.6275665283203 124.04651794433596 160.9739288330078 123.44038391113281 160.67086181640627 122.83424987792966 160.32449951171873 122.74765930175784 160.67086181640627 123.35379333496087 161.79653930664062 122.661068725586 163.26857910156252 121.23232421875002 162.4459686279297 121.70857238769531 163.57164611816404
L 122.01163940429694 164.39425659179688
Q 121.88175354003909 164.2210754394531 121.189028930664 162.83562622070315 120.66948547363279 161.88312988281245 119.84687500000007 161.53676757812502 119.11085510253906 163.05210266113284 117.16256713867188 163.26857910156252 117.07597656249993 162.4892639160156 117.76870117187502 160.58427124023433 116.7296142578125 160.54097595214841 115.86370849609375 159.41529846191406 115.08439331054694 158.41950683593745 114.261782836914 158.59268798828123 115.08439331054694 158.72257385253909 115.30086975097663 159.32870788574218 115.38746032714846 159.54518432617186 115.43075561523438 160.58427124023433 114.65144042968757 160.45438537597659 113.04951477050781 159.19882202148438 111.75065612792969 158.20303039550777 111.10122680664062 158.5493927001953 113.17940063476556 159.89154663085935 113.39587707519524 161.0172241210937 113.65564880371096 162.2294921875 111.96713256835938 164.04789428710933 112.78974304199221 161.83983459472654 112.270199584961 160.93063354492188 111.36099853515623 159.93484191894527 110.7548645019532 158.72257385253909 110.19202575683596 158.15973510742185 109.62918701171873 157.81337280273436 107.24794616699216 157.81337280273436 108.37362365722663 157.46701049804688 108.93646240234375 157.2505340576172 109.97554931640627 157.07735290527341 110.14873046874993 157.20723876953127 110.45179748535156 157.0340576171875 110.798159790039 156.90417175292964 110.92804565429685 156.99076232910159 113.13610534667976 155.5620178222656 113.43917236328127 153.7003204345703 113.65564880371096 152.01180419921877 112.270199584961 150.49646911621096 115.43075561523438 151.53555603027343 115.34416503906243 153.52713928222659 115.2575744628906 155.34554138183591 112.61656188964844 156.42792358398435 112.87633361816404 156.34133300781252 115.9502990722657 154.91258850097654 117.98517761230471 153.96009216308596 119.15415039062498 154.17656860351565 117.55222473144534 154.52293090820308 115.7771179199218 155.38883666992183 114.0020111083985 156.29803771972655 113.13610534667976 157.1639434814453 114.0453063964843 157.20723876953127 115.90700378417966 157.33712463378902 117.4656341552735 157.380419921875 118.41813049316409 157.12064819335933 118.33153991699226 156.34133300781252 118.28824462890623 155.90838012695315 118.28824462890623 155.17236022949214 118.54801635742194 154.52293090820308 119.2407409667968 154.8259979248047 119.80357971191404 155.4321319580078 120.14994201660159 155.8217895507812 120.71278076171882 156.5578094482422 121.96834411621091 155.6486083984375 123.6568603515625 155.69190368652346 124.00322265624993 155.86508483886718 124.00322265624993 156.42792358398435 124.00322265624993 157.0340576171875 124.17640380859382 157.20723876953127 124.78253784179685 155.69190368652346 124.86912841796868 154.91258850097654
L 124.86912841796868 153.4838439941406 125.60514831542969 154.91258850097654 Z
M 133.87454833984373 162.87892150878906
Q 133.8312530517578 162.1429016113281 133.051937866211 161.88312988281245 132.0561462402344 161.70994873046874 131.45001220703125 161.49347229003905 131.49330749511716 162.4459686279297 132.27262268066409 162.79233093261718 132.87875671386712 163.05210266113284 133.87454833984373 162.87892150878906 Z"/>

<path id="Layer2_22_MEMBER_2_1_STROKES" stroke="#71C9A0" stroke-width="1" stroke-linejoin="round" stroke-linecap="round" fill="none" d="
M 67.45 132.75
Q 69.2 134.2 69.45 135.4 68.55 134.1 66.95 132.85 65.4 131.6 64.25 131.15 64.65 131.95 65.25 133.7 65.85 135.2 66.5 135.95 66.9 135.75 67.6 135.3 68.2 134.95 68.95 134.9 68.95 135.7 68.65 136.5 68.4 136.95 68 137.8 69.3 138.5 69.95 140.1 69.95 140.45 69.45 140.65 68.9 140.95 68.85 141.25 70.75 141.05 71.45 140.75
L 72.55 140.5 71.75 141.4
Q 70.9 141.9 69.7 141.85 68.623828125 141.7154296875 68.15 141.175 68.4103515625 141.50234375 69.2 142.45 69.85 143.2 69.9 143.85 71.05 142.9 71.35 142.75 72.35 142.15 73.25 142.5 73.5 143.35 73.1 144.05 72.55 144.95 72.55 145.35 73.15 145.2 73.8 145.45 74.6 145.8 74.85 145.85 74.85 146.75 73.8 147.15
L 72.05 147.9
Q 73.2 149 73.4 150.75 72.75 151.25 71.35 150.6 69.9 149.85 69.75 149.9 69.95 150.85 69.6 151.5 69.5 151.8 68.8 152.55 69.3 152.65 69.9 152.2 70.35 151.85 70.5 152.1 69.95 152.5 69.15 153.5 68.95 153.25 68.35 153.2 67.75 153.05 67.6 152.9 66.95 154 68.3 156.45 69.75 159.25 69.75 159.4 69.55 159.3 69.05 158.5 68.65 157.9 68.1 157.85 67.7 158.5 68.35 159.35 68.9 160.05 68.35 160.3 67.85 160.2 67.35 159.55 66.7 158.7 66.4 158.55 66 159.75 64.3 160 64.15 159.35 64.2 158.6 64.35 157.75 64.25 157.25 63.1 157.55 62 157 61.9 156.4 62.6 156.05 63.5 155.65 63.55 155.35 62.9 155.25 62.55 154.55 62.2 153.85 62.55 153.2 63.35 153.15 64.15 153.4 64.55 153.55 65.4 153.85 65.1 153.1 65.75 152.9 66.35 152.7 66.6 153.25 66.65 152.55 65.8 151.05 65.15 149.85 65.65 148.85 65.8 149 66.3 149.55 66.7 150 67.05 150.2 66.8 149.3 67.4 146.6 67.95 144.2 67.25 142.65 67.35 143 67.2 143.3 67.05 143.6 67.1 143.9 67.05 143.9 64.35 144.4 62.55 144.7 61.85 143.7 62.95 143.95 64.15 143.7 65.6 143.4 65.75 142.55 65.4 142.65 65.4 141.95 65.4 141.25 65.1 141.35 64.4 142.35 62.7 142.35 62.85 140.7 62 141.6 61.4 142.3 61.4 142.25 61.5 142.05 62.5 140.85 63.15 140 63.1 139.05 61.45 139.05 60.4 137.35 61.05 137 63.1 136.8 62.7 135.8 63.35 134.55 63.9 133.45 63.45 132.75 63.65 133.55 63.15 134.05 63 134.15 62.15 134.65 61.95 133.9 62.4 131.9 62.7 130.3 62.1 129.9 61.85 132.1 60.6 132.45 59.7 132.7 57.05 131.8 59.9 131.55 60.25 131.35 60.55 131.25 61.85 129.65 61.55 128.75 61.7 125.9 60.1 121.55 61.25 123.6 61.85 124.65 62.8 126.55 62.75 126.75 63.15 127.8 63.5 128.95 63.5 129.05 65.55 130.4 66.4 129.65 66.65 129.35 67.65 126.9 68.05 130.4 67.35 131.3 66.759375 132.03828125 65.3 130.925 65.9986328125 131.4921875 67.45 132.75 Z
M 64.75 130.4
Q 65 130.65 65.25 130.9 65.275 130.9125 65.3 130.925
M 67.75 152.35
Q 68.4 151.95 68.35 151.25 68 150.25 68 149.6 67.15 150 67.15 150.9 67.15 151.6 67.75 152.35 Z"/>

<path id="Layer2_22_MEMBER_3_1_STROKES" stroke="#71C9A0" stroke-width="1" stroke-linejoin="round" stroke-linecap="round" fill="none" d="
M 79.97191467285154 153.18077697753904
L 80.01520996093757 154.60952148437502
Q 80.1018005371094 155.30224609375 80.70793457031243 156.86087646484373 80.92441101074212 156.68769531249995 80.92441101074212 156.08156127929686 80.92441101074212 155.5187225341797 81.22747802734375 155.34554138183591 82.8726989746093 155.2156555175781 84.17155761718743 156.16815185546875 84.47462463378906 155.7784942626953 85.03746337890618 154.99917907714843 85.60030212402341 154.34974975585936 86.3363220214843 154.0466827392578 86.59609375000002 154.69611206054685 86.59609375000002 155.4321319580078 86.552798461914 155.86508483886718 86.46620788574216 156.64440002441404 87.41870422363274 156.90417175292964 89.0206298828125 156.7742858886719 89.92983093261716 156.73099060058593 91.7482330322265 156.5578094482422 90.88232727050774 155.69190368652346 89.10722045898444 154.86929321289062 87.288818359375 154.0466827392578 85.68689270019524 153.74361572265627 86.85586547851562 153.44054870605464 88.93403930664056 154.39304504394534 92.09459533691404 155.7784942626953 92.26777648925781 155.8217895507812 89.62676391601565 154.8259979248047 89.49687805175779 152.96430053710935 89.36699218749993 151.01601257324216 92.4842529296875 149.8903350830078 91.14209899902346 151.44896545410154 91.40187072753906 153.13748168945312 91.7049377441407 154.99917907714843 93.99958801269531 156.34133300781252 94.08617858886726 156.25474243164058 94.43254089355469 156.38462829589844 94.77890319824212 156.51451416015624 94.952084350586 156.38462829589844 99.10843200683587 157.07735290527341 95.25515136718752 157.1639434814453 94.73560791015632 157.46701049804688 94.17276916503909 158.07314453125002 93.65322570800788 159.2854125976562 92.7440246582031 160.32449951171873 92.26777648925781 161.2337005615234 93.13368225097656 163.44176025390624 91.40187072753906 161.66665344238277 91.61834716796875 160.45438537597659 91.79152832031252 159.32870788574218 93.82640686035154 157.94325866699216 93.17697753906248 157.59689636230468 91.92141418457038 158.59268798828123 90.31948852539062 159.84825134277344 89.58346862792962 160.0214324951172 89.58346862792962 159.0256408691406 89.67005920410156 158.80916442871091 89.84324035644534 158.15973510742185 90.70914611816409 158.02984924316405 89.88653564453125 157.85666809082034 89.10722045898444 158.8957550048828 88.2413146972657 160.0214324951172 87.20222778320306 160.10802307128904 87.93824768066406 161.92642517089843 87.89495239257815 162.7490356445312 85.90336914062493 162.61914978027346 85.16734924316404 161.10381469726565 84.34473876953132 161.45017700195308 83.86849060058591 162.4459686279297 83.17576599121094 163.83141784667964 83.0458801269532 164.00459899902341 83.00258483886716 164.04789428710933 83.34894714355471 163.18198852539058 83.78190002441409 162.05631103515623 82.39645080566413 162.92221679687498 81.66043090820312 161.40688171386716 82.22326965332024 160.32449951171873 82.17997436523444 159.97813720703124 81.57384033203118 160.32449951171873 80.96770629882815 160.6275665283203 80.88111572265632 160.2812042236328 80.18839111328123 160.80074768066402 80.53475341796877 162.18619689941409 80.83782043457029 163.35516967773435 81.57384033203118 164.26437072753902 80.40486755371091 164.04789428710933 79.88532409667971 162.27278747558591 79.10600891113279 159.67507019042966 79.06271362304688 159.63177490234375 79.32248535156248 159.58847961425784 79.53896179199216 159.2421173095703 79.75543823242185 158.9823455810547 80.14509582519531 158.93905029296877 78.45657958984373 158.9823455810547 76.50829162597654 160.54097595214841 74.34352722167966 162.27278747558591 73.434326171875 162.4459686279297 73.95386962890632 162.87892150878906 75.29602355957024 163.09539794921875 74.60329895019538 164.00459899902341 73.21784973144531 163.91800842285159 71.52933349609373 163.83141784667964 70.87990417480466 164.1777801513672 71.52933349609373 164.1777801513672 71.61592407226556 164.78391418457034 71.7025146484375 165.4333435058594 70.83660888671875 165.51993408203123 71.18297119140618 165.86629638671877 71.87569580078127 166.47243041992186 72.4385345458985 167.07856445312495 72.74160156250002 167.7712890625 72.35194396972656 168.42071838378905 71.52933349609373 168.37742309570308 70.7500183105468 168.33412780761716 70.36036071777346 167.81458435058596 70.14388427734377 168.03106079101565 70.14388427734377 168.98355712890623 70.14388427734377 169.80616760253906 69.53775024414062 169.97934875488284 68.58525390624993 169.24332885742183 68.32548217773444 168.03106079101565 67.93582458496087 168.1609466552734 67.15650939941406 168.6804901123047 66.46378479003909 169.11344299316409 65.81435546875002 169.24332885742183 65.33810729980462 167.6846984863281 66.2473083496094 166.68890686035155 65.94424133300788 166.55902099609375 64.94844970703127 166.29924926757815 64.12583923339844 166.12606811523438 63.73618164062498 165.73641052246091 63.779476928711006 165.17357177734374 64.64538269042976 165.34675292968745 65.7277648925782 165.56322937011714 66.07412719726562 164.87050476074216 65.81435546875002 164.39425659179688 65.07833557128913 164.307666015625 64.16913452148435 164.26437072753902 63.952658081054665 164.0911895751953 64.12583923339844 164.00459899902341 67.243099975586 164.13448486328127 70.05729370117194 164.26437072753902 70.79331359863284 163.18198852539058 70.57683715820315 163.05210266113284 70.18717956542969 162.5758544921875 69.84081726074226 162.09960632324214 69.58104553222654 162.0130157470703 70.10058898925774 160.7574523925781 70.2304748535156 160.19461364746093 70.49024658203132 160.19461364746093 70.40365600585938 160.80074768066402 70.2304748535156 161.53676757812502 70.57683715820315 161.92642517089843 70.9231994628907 160.9739288330078 71.09638061523435 160.7141571044922 71.57262878417976 160.10802307128904 72.52512512207034 159.89154663085935 72.4818298339843 159.76166076660155 71.18297119140618 158.765869140625 70.01399841308591 157.81337280273436 70.14388427734377 157.0340576171875 71.78910522460944 156.38462829589844 73.30444030761726 156.9474670410156 73.30444030761726 156.90417175292964 73.1745544433594 155.0424743652344 73.08796386718757 153.87350158691402 73.91057434082029 153.52713928222659 74.04046020507815 153.7869110107422 74.68988952636721 154.34974975585936 75.20943298339841 154.78270263671874 75.38261413574219 155.38883666992183 75.72897644042962 155.2156555175781 76.29181518554685 154.34974975585936 76.76806335449226 153.61372985839841 77.633969116211 153.4838439941406 78.3699890136719 154.13327331542968 78.24010314941404 155.30224609375 78.19680786132812 155.95167541503906 77.8937408447265 157.12064819335933 78.54317016601556 156.86087646484373 79.45237121582034 157.12064819335933 80.57872519493105 157.38566271066668 80.98935394287116 157.46701049804688 80.3695210099221 157.30008686780928 79.84202880859368 156.47121887207027 79.27919006347656 155.5620178222656 79.23589477539065 154.60952148437502
L 79.97191467285154 153.18077697753904 Z
M 73.56421203613274 161.36358642578125
Q 72.39523925781248 161.62335815429685 71.9622863769531 161.7532440185547 71.22626647949221 162.0130157470703 71.18297119140618 162.7490356445312 72.17876281738279 162.92221679687498 72.78489685058594 162.66244506835938 73.56421203613274 162.31608276367183 73.56421203613274 161.36358642578125 Z"/>

<path id="Layer2_25_1_STROKES" stroke="#B49C80" stroke-width="1" stroke-linejoin="round" stroke-linecap="round" fill="none" d="
M 83.90871887207032 92.70396423339844
Q 79.83896179199218 92.40089721679686 77.54431152343744 91.53499145507811 74.60023193359376 90.45260925292968 76.15886230468749 88.93727416992186
L 81.18111572265633 87.16216735839845
Q 86.54973144531249 85.94989929199215 88.10836181640633 88.89397888183595 89.23403930664057 91.05874328613282 87.71870422363276 92.05453491210938 86.46314086914066 92.87714538574215 83.90871887207032 92.70396423339844 Z"/>

<path id="Layer2_26_1_STROKES" stroke="#B49C80" stroke-width="1" stroke-linejoin="round" stroke-linecap="round" fill="none" d="
M 121.79209594726564 92.70396423339844
Q 125.86185302734378 92.40089721679686 128.15650329589852 91.53499145507811 131.1005828857422 90.45260925292968 129.54195251464847 88.93727416992186 127.20400695800782 87.7683013916016 124.51969909667963 87.16216735839845 119.15108337402347 85.94989929199215 117.59245300292963 88.89397888183595 116.42348022460936 91.05874328613282 117.9821105957032 92.05453491210938 119.2376739501953 92.87714538574215 121.79209594726564 92.70396423339844 Z"/>

<path id="Layer0_0_1_STROKES" stroke="#000000" stroke-width="5" stroke-linejoin="round" stroke-linecap="round" fill="none" d="
M 190 100.2
Q 190 137.7 163.5 164.2 137 190.7 99.5 190.7 62 190.7 35.5 164.2 9 137.7 9 100.2 9 62.7 35.5 36.2 62 9.7 99.5 9.7 137 9.7 163.5 36.2 190 62.7 190 100.2 Z"/>
</defs>

<mask id="Mask_Mask_1">
<g transform="matrix( 1, 0, 0, 1, 0,0) ">
<use xlink:href="#Mask_3_MASK_0_FILL"/>
</g>
</mask>

<g mask="url(#Mask_Mask_1)">
<g transform="matrix( 1, 0, 0, 1, 0,0) ">
<use xlink:href="#Layer3_0_FILL"/>
</g>
</g>

<g mask="url(#Mask_Mask_1)">
<g transform="matrix( 1, 0, 0, 1, 0,0) ">
<use xlink:href="#Layer2_0_FILL"/>
</g>

<g transform="matrix( 0.86590576171875, 0, 0, 0.86590576171875, -456.2,-206.25) ">
<use xlink:href="#Layer2_1_FILL"/>
</g>

<g transform="matrix( 0.86590576171875, 0, 0, 0.86590576171875, -456.2,-206.25) ">
<use xlink:href="#Layer2_2_FILL"/>
</g>

<g transform="matrix( 0.86590576171875, 0, 0, 0.86590576171875, -456.2,-206.25) ">
<use xlink:href="#Layer2_3_FILL"/>
</g>

<g transform="matrix( 0.86590576171875, 0, 0, 0.86590576171875, -456.2,-206.25) ">
<use xlink:href="#Layer2_4_FILL"/>
</g>

<g transform="matrix( 0.86590576171875, 0, 0, 0.86590576171875, -456.2,-206.25) ">
<use xlink:href="#Layer2_5_FILL"/>
</g>

<g transform="matrix( 0.86590576171875, 0, 0, 0.86590576171875, -456.2,-206.25) ">
<use xlink:href="#Layer2_6_FILL"/>
</g>

<g transform="matrix( 0.86590576171875, 0, 0, 0.86590576171875, -456.2,-206.25) ">
<use xlink:href="#Layer2_7_FILL"/>
</g>

<g transform="matrix( 0.86590576171875, 0, 0, 0.86590576171875, -456.2,-206.25) ">
<use xlink:href="#Layer2_8_FILL"/>
</g>

<g transform="matrix( 0.86590576171875, 0, 0, 0.86590576171875, -456.2,-206.25) ">
<use xlink:href="#Layer2_9_FILL"/>
</g>

<g transform="matrix( 0.86590576171875, 0, 0, 0.86590576171875, 100.1,101.9) ">
<g transform="matrix( 1, 0, 0, 1, 0,0) ">
<use filter="url(#Filter_1)" xlink:href="#winnie___andy___mrs_chan_ai_Layer_1__Path__84_0_Layer0_0_FILL"/>
</g>
</g>

<g transform="matrix( 0.86590576171875, 0, 0, 0.86590576171875, 68.8,96.75) ">
<g transform="matrix( 1, 0, 0, 1, 0,0) ">
<use filter="url(#Filter_2)" xlink:href="#winnie___andy___mrs_chan_ai_Layer_1__Path__83_0_Layer0_0_FILL"/>
</g>
</g>

<g transform="matrix( 0.86590576171875, 0, 0, 0.86590576171875, 115.35,96.4) ">
<g transform="matrix( 1, 0, 0, 1, 0,0) ">
<use filter="url(#Filter_2)" xlink:href="#winnie___andy___mrs_chan_ai_Layer_1__Path__82_0_Layer0_0_FILL"/>
</g>
</g>

<g transform="matrix( 0.86590576171875, 0, 0, 0.86590576171875, -456.2,-206.25) ">
<use xlink:href="#Layer2_13_1_STROKES" transform="matrix( 1.1548614501953125, 0, 0, 1.1548614501953125, 526.85,238.2) "/>
</g>

<g transform="matrix( 0.86590576171875, 0, 0, 0.86590576171875, -456.2,-206.25) ">
<use xlink:href="#Layer2_14_1_STROKES" transform="matrix( 1.1548614501953125, 0, 0, 1.1548614501953125, 526.85,238.2) "/>
</g>

<g transform="matrix( 0.86590576171875, 0, 0, 0.86590576171875, -456.2,-206.25) ">
<use xlink:href="#Layer2_15_FILL"/>
</g>

<g transform="matrix( 0.86590576171875, 0, 0, 0.86590576171875, -456.2,-206.25) ">
<use xlink:href="#Layer2_16_FILL"/>
</g>

<g transform="matrix( 0.86590576171875, 0, 0, 0.86590576171875, -456.2,-206.25) ">
<use xlink:href="#Layer2_17_FILL"/>
</g>

<g transform="matrix( 0.86590576171875, 0, 0, 0.86590576171875, -456.2,-206.25) ">
<use xlink:href="#Layer2_18_FILL"/>
</g>

<g transform="matrix( 0.86590576171875, 0, 0, 0.86590576171875, -456.2,-206.25) ">
<use xlink:href="#Layer2_19_FILL"/>
</g>

<g transform="matrix( 0.86590576171875, 0, 0, 0.86590576171875, -456.2,-206.25) ">
<use xlink:href="#Layer2_20_FILL"/>
</g>

<g transform="matrix( 0.86590576171875, 0, 0, 0.86590576171875, 51.85,16.9) ">
<g transform="matrix( 1, 0, 0, 1, 0,0) ">
<use filter="url(#Filter_3)" xlink:href="#winnie___andy___mrs_chan_ai_Layer_1__Path__13_0_Layer0_0_FILL"/>
</g>
</g>

<g transform="matrix( 0.86590576171875, 0, 0, 0.86590576171875, -456.5,-206.3) ">
<use xlink:href="#Layer2_22_MEMBER_0_FILL"/>

<use xlink:href="#Layer2_22_MEMBER_0_1_STROKES" transform="matrix( 1.1548614501953125, 0, 0, 1.1548614501953125, 527.2,238.25) "/>
</g>

<g transform="matrix( 0.86590576171875, 0, 0, 0.86590576171875, -456.5,-206.3) ">
<use xlink:href="#Layer2_22_MEMBER_1_FILL"/>

<use xlink:href="#Layer2_22_MEMBER_1_1_STROKES" transform="matrix( 1.1548614501953125, 0, 0, 1.1548614501953125, 527.2,238.25) "/>
</g>

<g transform="matrix( 1, 0, 0, 1, 0,0) ">
<use xlink:href="#Layer2_22_MEMBER_2_FILL"/>

<use xlink:href="#Layer2_22_MEMBER_2_1_STROKES"/>
</g>

<g transform="matrix( 0.86590576171875, 0, 0, 0.86590576171875, -456.5,-206.3) ">
<use xlink:href="#Layer2_22_MEMBER_3_FILL"/>

<use xlink:href="#Layer2_22_MEMBER_3_1_STROKES" transform="matrix( 1.1548614501953125, 0, 0, 1.1548614501953125, 527.2,238.25) "/>
</g>

<g transform="matrix( 0.86590576171875, 0, 0, 0.86590576171875, 105.35,78.9) ">
<g transform="matrix( 1, 0, 0, 1, 0,0) ">
<use filter="url(#Filter_1)" xlink:href="#winnie___andy___mrs_chan_ai_Layer_1__Path__12_0_Layer0_0_FILL"/>
</g>
</g>

<g transform="matrix( 0.86590576171875, 0, 0, 0.86590576171875, 41.85,78.9) ">
<g transform="matrix( 1, 0, 0, 1, 0,0) ">
<use filter="url(#Filter_1)" xlink:href="#winnie___andy___mrs_chan_ai_Layer_1__Path__11_0_Layer0_0_FILL"/>
</g>
</g>

<g transform="matrix( 0.86590576171875, 0, 0, 0.86590576171875, -456.2,-206.25) ">
<use xlink:href="#Layer2_25_FILL"/>

<use xlink:href="#Layer2_25_1_STROKES" transform="matrix( 1.1548614501953125, 0, 0, 1.1548614501953125, 526.85,238.2) "/>
</g>

<g transform="matrix( 0.86590576171875, 0, 0, 0.86590576171875, -456.2,-206.25) ">
<use xlink:href="#Layer2_26_FILL"/>

<use xlink:href="#Layer2_26_1_STROKES" transform="matrix( 1.1548614501953125, 0, 0, 1.1548614501953125, 526.85,238.2) "/>
</g>

<g transform="matrix( 0.86590576171875, 0, 0, 0.86590576171875, 123.25,87.1) ">
<g transform="matrix( 1, 0, 0, 1, 0,0) ">
<use filter="url(#Filter_4)" xlink:href="#winnie___andy___mrs_chan_ai_Layer_1__Path__8_0_Layer0_0_FILL"/>
</g>
</g>

<g transform="matrix( 0.86590576171875, 0, 0, 0.86590576171875, 120.65,89.55) ">
<g transform="matrix( 1, 0, 0, 1, 0,0) ">
<use filter="url(#Filter_5)" xlink:href="#winnie___andy___mrs_chan_ai_Layer_1__Path__7_0_Layer0_0_FILL"/>
</g>
</g>

<g transform="matrix( 0.86590576171875, 0, 0, 0.86590576171875, 82.75,87.6) ">
<g transform="matrix( 1, 0, 0, 1, 0,0) ">
<use filter="url(#Filter_4)" xlink:href="#winnie___andy___mrs_chan_ai_Layer_1__Path__6_0_Layer0_0_FILL"/>
</g>
</g>

<g transform="matrix( 0.86590576171875, 0, 0, 0.86590576171875, 80.35,90) ">
<g transform="matrix( 1, 0, 0, 1, 0,0) ">
<use filter="url(#Filter_5)" xlink:href="#winnie___andy___mrs_chan_ai_Layer_1__Path__5_0_Layer0_0_FILL"/>
</g>
</g>

<g transform="matrix( 0.86590576171875, 0, 0, 0.86590576171875, 53.05,79.9) ">
<g transform="matrix( 1, 0, 0, 1, 0,0) ">
<use filter="url(#Filter_4)" xlink:href="#winnie___andy___mrs_chan_ai_Layer_1__Path__4_0_Layer0_0_FILL"/>
</g>
</g>

<g transform="matrix( 0.86590576171875, 0, 0, 0.86590576171875, 64.65,79.55) ">
<g transform="matrix( 1, 0, 0, 1, 0,0) ">
<use filter="url(#Filter_4)" xlink:href="#winnie___andy___mrs_chan_ai_Layer_1__Path__3_0_Layer0_0_FILL"/>
</g>
</g>

<g transform="matrix( 0.86590576171875, 0, 0, 0.86590576171875, 117.4,80.2) ">
<g transform="matrix( 1, 0, 0, 1, 0,0) ">
<use filter="url(#Filter_4)" xlink:href="#winnie___andy___mrs_chan_ai_Layer_1__Path__2_0_Layer0_0_FILL"/>
</g>
</g>

<g transform="matrix( 0.86590576171875, 0, 0, 0.86590576171875, 133.05,82.75) ">
<g transform="matrix( 1, 0, 0, 1, 0,0) ">
<use filter="url(#Filter_4)" xlink:href="#winnie___andy___mrs_chan_ai_Layer_1__Path__1_0_Layer0_0_FILL"/>
</g>
</g>

<g transform="matrix( 0.86590576171875, 0, 0, 0.86590576171875, -456.2,-206.25) ">
<use xlink:href="#Layer2_35_FILL"/>
</g>
</g>

<g transform="matrix( 1, 0, 0, 1, 0,0) ">
<use xlink:href="#Layer0_0_1_STROKES"/>
</g>
</svg>
