<?xml version="1.0" encoding="utf-8"?>
<!-- Generator: Adobe Illustrator 16.0.0, SVG Export Plug-In . SVG Version: 6.00 Build 0)  -->
<!DOCTYPE svg PUBLIC "-//W3C//DTD SVG 1.1//EN" "http://www.w3.org/Graphics/SVG/1.1/DTD/svg11.dtd">
<svg version="1.1" xmlns="http://www.w3.org/2000/svg" xmlns:xlink="http://www.w3.org/1999/xlink" x="0px" y="0px"
	 width="330.409px" height="395.52px" viewBox="0 0 330.409 395.52" enable-background="new 0 0 330.409 395.52"
	 xml:space="preserve">
<symbol  id="chickens.ai_Assets_x2F_Layer_1_x2F__x3C_Path_x3E__x5F_1" viewBox="0 -2.15 2.4 2.15">
	<path fill-rule="evenodd" clip-rule="evenodd" fill="#FFFFFF" d="M2.4-1.05c0-0.3-0.117-0.567-0.35-0.8
		c-0.233-0.2-0.517-0.3-0.85-0.3c-0.333,0-0.617,0.1-0.85,0.3C0.117-1.617,0-1.35,0-1.05C0-0.783,0.117-0.533,0.35-0.3
		C0.583-0.1,0.867,0,1.2,0c0.333,0,0.617-0.1,0.85-0.3C2.283-0.533,2.4-0.783,2.4-1.05z"/>
</symbol>
<symbol  id="chickens.ai_Assets_x2F_Layer_1_x2F__x3C_Path_x3E__x5F_2" viewBox="0.029 -6.361 6.682 6.384">
	<path fill-rule="evenodd" clip-rule="evenodd" fill="#FFFFFF" d="M6.7-2.85c0.066-0.867-0.184-1.633-0.75-2.3
		c-0.6-0.7-1.35-1.1-2.25-1.2c-0.934-0.066-1.75,0.167-2.45,0.7C0.517-5.083,0.117-4.367,0.05-3.5C-0.05-2.633,0.2-1.85,0.8-1.15
		C1.367-0.483,2.117-0.1,3.05,0c0.9,0.1,1.717-0.133,2.45-0.7C6.2-1.267,6.6-1.983,6.7-2.85z"/>
</symbol>
<symbol  id="chickens.ai_Assets_x2F_Layer_1_x2F__x3C_Path_x3E__x5F_3" viewBox="0 -2.65 3 2.65">
	<path fill-rule="evenodd" clip-rule="evenodd" fill="#FFFFFF" d="M3-1.35c0-0.367-0.15-0.667-0.45-0.9
		c-0.267-0.267-0.617-0.4-1.05-0.4c-0.4,0-0.75,0.133-1.05,0.4C0.15-2.017,0-1.717,0-1.35S0.15-0.667,0.45-0.4
		C0.75-0.133,1.1,0,1.5,0c0.433,0,0.783-0.133,1.05-0.4C2.85-0.667,3-0.983,3-1.35z"/>
</symbol>
<symbol  id="chickens.ai_Assets_x2F_Layer_1_x2F__x3C_Path_x3E__x5F_4" viewBox="0.019 -7.932 8.312 7.914">
	<path fill-rule="evenodd" clip-rule="evenodd" fill="#FFFFFF" d="M8.3-3.55c0.133-1.067-0.167-2.034-0.9-2.9
		C6.667-7.283,5.733-7.767,4.6-7.9S2.45-7.75,1.55-7.05c-0.9,0.7-1.4,1.583-1.5,2.65c-0.133,1.066,0.167,2.033,0.9,2.9
		c0.733,0.833,1.667,1.317,2.8,1.45C4.917,0.083,5.933-0.2,6.8-0.9C7.7-1.567,8.2-2.45,8.3-3.55z"/>
</symbol>
<symbol  id="chickens.ai_Assets_x2F_Layer_1_x2F__x3C_Path_x3E__x5F_5" viewBox="-0.041 -10.039 18.691 10.023">
	<path fill-rule="evenodd" clip-rule="evenodd" fill="#FFFFFF" d="M2.8-0.85c3,0.733,6.117,0.983,9.35,0.75
		c1.8-0.1,3.967-0.367,6.5-0.8c-1.066-0.434-1.9-0.833-2.5-1.2c-1.533-0.767-2.683-1.35-3.45-1.75
		c-1.267-0.733-2.233-1.417-2.9-2.05c-1-1.4-1.9-2.417-2.7-3.05c-1.4-1.1-3.233-1.367-5.5-0.8C-0.933-9.117-0.533-6.15,2.8-0.85z"/>
</symbol>
<symbol  id="chickens.ai_Assets_x2F_Layer_1_x2F__x3C_Path_x3E__x5F_63" viewBox="0 -19.6 12.415 19.582">
	<path fill-rule="evenodd" clip-rule="evenodd" fill="#BF2932" d="M0-17L2.6-1.9c0.1,0.6,0.667,1.083,1.7,1.45
		c1.067,0.367,2.267,0.5,3.6,0.4c1.333-0.067,2.45-0.35,3.35-0.85c0.867-0.5,1.25-1.05,1.15-1.65L9.45-19.6
		C5.883-17.4,2.733-16.533,0-17z"/>
</symbol>
<symbol  id="chickens.ai_Assets_x2F_Layer_1_x2F__x3C_Path_x3E__x5F_65" viewBox="-0.002 -20 11.302 19.989">
	<path fill-rule="evenodd" clip-rule="evenodd" fill="#BF2932" d="M11.3-16.85C8.533-16.55,5.35-17.6,1.75-20L0-2.95
		C-0.033-2.317,0.4-1.733,1.3-1.2c0.867,0.567,1.983,0.934,3.35,1.1C6.017,0.067,7.183,0,8.15-0.3c1-0.3,1.533-0.767,1.6-1.4
		L11.3-16.85z"/>
</symbol>
<g id="_x3C_Compound_Path_x3E_">
	<path fill-rule="evenodd" clip-rule="evenodd" fill="none" stroke="#000000" stroke-width="9" d="M114.5,48l1.351,1.05l5.45-2.25
		c3.733-1.867,5.75-3.633,6.05-5.3v-0.15l1.05-8.3V32.2l0.05-0.5l-0.2-3.5l-0.6-2.75l-0.4-1l-0.55-0.9
		c-0.033-0.1-0.233-0.367-0.6-0.8c-1.134-1.133-2.834-3.3-5.101-6.5c-1.199-1.733-2.55-2.6-4.05-2.6c-0.8,0-1.633,0.917-2.5,2.75
		c-0.866,1.8-1.767,2.7-2.7,2.7c-0.933,0-1.649-1.15-2.149-3.45c-0.601-2.867-1.434-4.833-2.5-5.9c-2.667-2.667-5.084-4-7.25-4
		c-1.167,0-1.767,0.433-1.8,1.3c0,0.633,0.1,2.284,0.3,4.95c0,3.333-1.167,5-3.5,5c-1.134,0-2.101-0.733-2.9-2.2
		c-0.666-1.267-1-2.566-1-3.9c0-2.5-0.033-3.967-0.1-4.4c-0.233-1.333-0.9-2-2-2c-1.3,0-3.066,1.867-5.3,5.6
		c-2.301,3.833-3.617,7.3-3.95,10.4c-0.733,6.567-1.617,10.667-2.65,12.3c-0.333,0.5-0.649,0.717-0.95,0.65l-0.399-0.2
		c-0.2-0.167-0.367-0.517-0.5-1.05c-0.334-1.067-0.417-2.467-0.25-4.2c0.467-3.233,0.666-5.05,0.6-5.45
		c-0.066-0.367-0.934-0.05-2.6,0.95c-2.3,1.367-4.217,4.867-5.75,10.5c-1,3.6-1.5,7.017-1.5,10.25c0,0.9-0.45,1-1.351,0.3
		c-0.899-0.7-1.533-1.716-1.899-3.05c-0.3-1.4-0.55-2.4-0.75-3c-0.4-1.1-0.9-1.35-1.5-0.75l-0.3,0.3c-2.2,2.3-3.551,5.05-4.051,8.25
		c-0.666,4.034-0.133,9.15,1.601,15.35l-0.5,1.25l-0.05,0.05l-1.15,3.65v0.1l-0.45,1.95v0.15l-0.3,1.9v0.1
		c-0.134,0.934-0.2,1.633-0.2,2.1l-0.05,0.2l0.1,6.5l1.15,6.95l3.65,11.2l1.3,3.05l0.1,0.15l2.55,5.45
		c-5.733,9.133-9.116,16.817-10.149,23.05c-1.233,7.133-1.25,12.816-0.05,17.05c-0.801,1.167-1.517,2.067-2.15,2.7
		c-2.7,2.7-6.65,8.816-11.85,18.35c-6.267,11.5-11.233,22.783-14.9,33.851l-0.05,0.05c-5.367,7.066-9.7,15.55-13,25.45
		C6.784,240.566,4.5,256.1,4.5,273.5c0,5.733,4.25,12.417,12.75,20.05c7.867,7.101,15,11.45,21.4,13.05
		c7.434,11.867,16.833,20.617,28.2,26.25l3.1,1.801c2.767,1.399,5.917,2.683,9.45,3.85l-5.75,33.1
		c-11.934,0.233-19.384,4.567-22.35,13c-0.334,1-0.5,1.534-0.5,1.601c0.066,0.467,0.683,0.75,1.85,0.85
		c1.233,0.101,2.184-0.316,2.85-1.25c0.2-0.3,0.534-1.083,1-2.35c0.233-0.767,1.534-1.9,3.9-3.4
		c3.467-2.166,7.616-3.467,12.45-3.899l0.6,9.949c-0.566,2.667,0.05,4.067,1.851,4.2c1.166,0.101,2-0.316,2.5-1.25
		c0.233-0.366,0.466-1.133,0.699-2.3l4.15-9.9c4.833,1.101,8.833,2.983,12,5.65c2.267,1.9,3.4,3.217,3.4,3.95
		c0.033,0.399,0.05,1.116,0.05,2.149c0.166,0.801,0.816,1.217,1.95,1.25c1.166,0.034,1.899-0.283,2.199-0.949
		c0.101-0.334,0.117-0.983,0.051-1.95c-0.233-3.134-1.417-5.816-3.551-8.05c-3.166-3.267-8.267-5.467-15.3-6.601L88.9,341
		c19.033,4.1,41.134,3.5,66.3-1.8l1.25,12.2h0.05l2.101,20.85c-7.066,1.533-12.267,4.066-15.601,7.6
		c-2.267,2.4-3.616,5.184-4.05,8.351c-0.166,1-0.2,1.649-0.1,1.95c0.233,0.666,0.934,0.949,2.1,0.85c1.134-0.066,1.8-0.533,2-1.4
		c0.066-1.033,0.134-1.767,0.2-2.199c0.1-0.801,1.316-2.2,3.65-4.2c3.333-2.867,7.433-5,12.3-6.4l3.399,9.8
		c0.134,1.134,0.301,1.9,0.5,2.301c0.467,0.899,1.267,1.267,2.4,1.1c1.167-0.134,1.884-0.75,2.15-1.85
		c0.133-0.5,0.149-1.334,0.05-2.5l1.25-10.15c4.767,0.134,8.783,1.217,12.05,3.25c2.233,1.366,3.45,2.45,3.65,3.25
		c0.366,1.233,0.649,2,0.85,2.3c0.6,0.9,1.5,1.267,2.7,1.101c1.166-0.167,1.8-0.483,1.899-0.95c0-0.101-0.133-0.634-0.399-1.601
		c-2.3-8.399-9.384-12.366-21.25-11.899l-3.5-33.95c3.566-0.866,7.1-1.833,10.6-2.9c14.434-4.233,24.8-12.466,31.101-24.699
		c11.633-4.934,20.783-11.034,27.449-18.301c5.101-5.566,9.067-12.316,11.9-20.25c2.467-8.733,4.3-14.983,5.5-18.75
		c2.033-6.433,4.767-11.05,8.2-13.85c5.399-4.366,12.399-7.85,21-10.45c10.366-3.133,18.533-3.066,24.5,0.2
		c4.934,2.7,7.267,5.85,7,9.45c-0.134,1.899-0.2,2.883-0.2,2.95c0.233,0.733,1.134,1.1,2.7,1.1c3.033,0,5.6-1.5,7.7-4.5
		c1.066-1.5,1.833-3,2.3-4.5c0.5-0.733,0.85-1.566,1.05-2.5l0.05-0.15l0.2-1.449l-0.05-1.7l-0.3-1.75l-0.801-2.5
		c-0.333-0.9-0.75-1.851-1.25-2.851l-0.1-0.199l-0.35-0.551l-0.101-0.25l-0.75-1.3l-0.2-0.25l-1.699-2.55l-0.051-0.1l-1.1-1.4
		l-0.1-0.15l-0.601-0.75l-0.149-0.149l-0.301-0.4l-0.199-0.2L317.7,211.2l-0.25-0.25l-0.1-0.15l-0.15-0.149l-0.05-0.101h-0.05v-0.05
		l-4.5-5c2.2-2.167,2.883-6.316,2.05-12.45c-0.7-5.267-2.184-10.316-4.45-15.15c-1.6-3.5-4.633-7.117-9.1-10.85l-6.25-4.55
		c0-1.767-0.2-3.617-0.601-5.55c-1.267-5.6-4.333-10.05-9.199-13.35c-4.2-2.833-8.733-4.25-13.601-4.25
		c-0.033-0.267-0.2-0.633-0.5-1.1c-0.6-0.9-1.517-1.8-2.75-2.7c-1.833-1.333-4.267-2.55-7.3-3.65l-0.1-0.05l-12.4-3.8l-8-1.65
		l-7.7-0.9h-0.55c-1.033-0.1-2.083-0.15-3.15-0.15h-0.5c-1.066-0.033-2.1-0.033-3.1,0h-0.45c-1.033,0-2.05,0.05-3.05,0.15h-0.4
		l-6.35,0.75l-6.1,1.35l-0.351,0.05l-2.6,0.8l-0.45,0.1l-8.05,3.2l-5.3,2.8l-5.601,3.65l-6.85,5.55l-5.05,5.05l-5.2,6.05l-0.25,0.35
		c-7.3,9.333-13.434,20.433-18.4,33.3c-3.967-2.833-6.883-5.6-8.75-8.3l-2.8-6.25l-0.1-0.15l-0.95-2.55l-0.05-0.2l-1.65-5v-0.1
		l-0.65-2.4v-0.05l-0.5-2.4h-0.05l-0.399-2.4c-0.7-4.233-1-9.067-0.9-14.5c0-0.667,0.217-5.917,0.65-15.75
		c0.666-15.467-0.101-30.667-2.301-45.6c-2.267-15.467-7.816-26.733-16.649-33.8"/>
</g>
<g id="Layer_27">
	<path fill-rule="evenodd" clip-rule="evenodd" fill="#F59331" d="M154.7,334.4c-0.033-0.634,0.4-1.217,1.3-1.75
		c0.9-0.567,2.018-0.934,3.351-1.101c1.366-0.166,2.55-0.1,3.55,0.2s1.517,0.767,1.55,1.4l3.9,37.8
		c11.866-0.467,18.95,3.5,21.25,11.899c0.267,0.967,0.399,1.5,0.399,1.601c-0.1,0.467-0.732,0.783-1.899,0.95
		c-1.2,0.166-2.101-0.2-2.7-1.101c-0.2-0.3-0.483-1.066-0.85-2.3c-0.2-0.8-1.417-1.884-3.65-3.25c-3.267-2-7.283-3.066-12.05-3.2
		l-1.3,10.101c0.133,1.1,0.133,1.933,0,2.5c-0.268,1.1-0.983,1.716-2.15,1.85c-1.133,0.167-1.934-0.2-2.4-1.1
		c-0.199-0.4-0.366-1.167-0.5-2.301l-3.399-9.8c-4.867,1.4-8.967,3.533-12.3,6.4c-2.334,2.033-3.551,3.434-3.65,4.2
		c-0.066,0.433-0.133,1.166-0.2,2.199c-0.233,0.867-0.917,1.334-2.05,1.4c-1.133,0.1-1.816-0.184-2.05-0.85
		c-0.101-0.267-0.083-0.917,0.05-1.95c0.467-3.2,1.833-5.983,4.1-8.351c3.334-3.533,8.533-6.066,15.601-7.6L154.7,334.4z"/>
</g>
<g id="_x3C_Path_x3E__x5F_65">
	
		<use xlink:href="#chickens.ai_Assets_x2F_Layer_1_x2F__x3C_Path_x3E__x5F_65"  width="11.302" height="19.989" x="-0.002" y="-20" transform="matrix(1 0 0 -1 154.7002 331.4004)" overflow="visible" opacity="0.6719" enable-background="new    "/>
</g>
<g id="Layer_25">
	<path fill-rule="evenodd" clip-rule="evenodd" fill="#F59331" d="M90,334.55l-6.6,37.75c7.066,1.134,12.167,3.334,15.3,6.601
		c2.167,2.233,3.367,4.916,3.601,8.05c0.066,0.967,0.05,1.616-0.051,1.95c-0.3,0.666-1.033,0.983-2.199,0.949
		c-1.134-0.033-1.783-0.449-1.95-1.25c0-1.033-0.017-1.75-0.05-2.149c-0.101-0.834-1.233-2.15-3.4-3.95
		c-3.167-2.667-7.167-4.55-12-5.65l-4.15,9.9c-0.232,1.167-0.467,1.934-0.699,2.3c-0.5,0.934-1.334,1.351-2.5,1.25
		c-1.167-0.1-1.851-0.666-2.051-1.7c-0.1-0.533-0.05-1.366,0.15-2.5l-0.55-9.949c-4.833,0.433-8.983,1.733-12.45,3.899
		c-2.366,1.5-3.667,2.634-3.9,3.4c-0.466,1.267-0.8,2.05-1,2.35c-0.666,0.934-1.616,1.351-2.85,1.25
		c-1.167-0.1-1.783-0.383-1.85-0.85c-0.034-0.134,0.133-0.667,0.5-1.601c2.966-8.433,10.416-12.767,22.35-13L80.2,333.9
		c0.101-0.601,0.667-1.084,1.7-1.45c1.033-0.367,2.217-0.5,3.55-0.4c1.333,0.066,2.45,0.351,3.351,0.851
		C89.7,333.4,90.101,333.95,90,334.55z"/>
</g>
<g id="_x3C_Path_x3E__x5F_63">
	
		<use xlink:href="#chickens.ai_Assets_x2F_Layer_1_x2F__x3C_Path_x3E__x5F_63"  width="12.415" height="19.582" y="-19.6" transform="matrix(1 0 0 -1 77.6006 331.9502)" overflow="visible" opacity="0.6719" enable-background="new    "/>
</g>
<g id="Layer_23">
	<path fill-rule="evenodd" clip-rule="evenodd" fill="#2E4621" d="M271.45,139.35c5.733,0,10.851,1.867,15.351,5.6
		c5.333,4.367,8,10.216,8,17.55l6.25,4.55c4.467,3.733,7.517,7.35,9.149,10.85c2.233,4.833,3.7,9.883,4.4,15.15
		c0.8,6.134,0.116,10.283-2.05,12.45l6.449,7.3c1.5,1.867,2.783,3.733,3.851,5.601c3.399,5.966,3.967,10.666,1.7,14.1
		c-0.467,1.5-1.233,3-2.301,4.5c-2.1,3-4.666,4.5-7.699,4.5c-1.567,0-2.467-0.366-2.7-1.1c0-0.067,0.066-1.051,0.2-2.95
		c0.267-3.601-2.067-6.75-7-9.45c-5.967-3.267-14.134-3.333-24.5-0.2c-8.601,2.601-15.601,6.084-21,10.45
		c-3.533,2.866-6.334,7.717-8.4,14.55c-0.133,0.467-1.017,3.617-2.65,9.45c-1.1,4.066-2.183,7.5-3.25,10.3
		c-3.133,8.233-7.683,15.233-13.649,21c-7.7,7.467-18.3,13.617-31.8,18.45c-4.301-1.9-9.434-4.566-15.4-8
		c-11.9-6.866-21.983-14.134-30.25-21.8c-11.6-10.767-18.717-21.584-21.35-32.45c-3.301-13.566,0.533-26.816,11.5-39.75
		c0.933-4.7,2.583-10.384,4.949-17.05c4.733-13.367,10.717-25.017,17.95-34.95c10.134-13.9,22.033-23.383,35.7-28.45
		c17.033-6.333,36.367-5.55,58,2.35c4.133,1.5,7.133,3.2,9,5.1C270.834,137.933,271.351,138.717,271.45,139.35z"/>
</g>
<g id="Layer_22">
	<path fill-rule="evenodd" clip-rule="evenodd" fill="#6E9C38" d="M9.9,285.75c-3.6-4.634-5.4-8.717-5.4-12.25
		c0-25.134,4.634-46.1,13.9-62.9c4.634-8.366,9.267-14.233,13.9-17.6l12,10.5l2.25,49c1,33.167,0.25,51-2.25,53.5
		c-1.434,1.467-4.351,1.316-8.75-0.45c-4.134-1.633-8.601-4.267-13.4-7.899C17.15,293.816,13.067,289.85,9.9,285.75z"/>
</g>
<g id="Layer_21">
	<path fill-rule="evenodd" clip-rule="evenodd" fill="#FDC130" d="M206.95,246.1c4.134,11.233,6.184,22.5,6.15,33.801
		c-0.033,12.833-2.851,23.767-8.45,32.8c-6.434,10.434-16.184,17.566-29.25,21.399c-31.367,9.233-58.883,11.801-82.55,7.7
		c-7.367-1.3-13.917-3.184-19.65-5.649l-6.399-3.301c-15.967-7.966-28.017-22-36.15-42.1c-5.7-14.033-9.65-31.783-11.85-53.25
		c-1.434-14.134,2.783-32.167,12.649-54.1c3.533-7.867,7.4-15.333,11.601-22.4c3.6-6.067,6.3-10,8.1-11.8
		c3.7-3.733,7.134-10.5,10.3-20.3c3.5-10.967,3.95-18.983,1.351-24.05c-10.567-20.7-11.067-37.35-1.5-49.95
		c4.767-6.3,10.6-10.533,17.5-12.7l7.3-1.2c5.866-0.5,11.399-0.033,16.6,1.4c16.567,4.6,26.5,18.083,29.8,40.45
		c1.667,11.367,2.518,22.316,2.551,32.85c0,2.9-0.268,10.617-0.801,23.15c-0.333,7.833-0.116,14.267,0.65,19.3
		c1.066,6.767,3.367,13.883,6.9,21.35c1.967,4.1,9.333,10.733,22.1,19.9c15.434,11.1,24.967,18.466,28.6,22.1
		C198.233,227.233,203.051,235.434,206.95,246.1z"/>
</g>
<g id="Layer_20">
	<path fill-rule="evenodd" clip-rule="evenodd" fill="#BF2932" d="M71.801,94.5l8.05,1.85c0,21.333-0.4,32.383-1.2,33.15
		c-0.3,0.3-1.35,4.467-3.15,12.5c-1.866,8.2-3.25,12.967-4.149,14.3c-1.667,2.434-4.634,2.617-8.9,0.55
		c-3.833-1.9-6.35-4.033-7.55-6.4c-1.066-2.133-1.767-4.233-2.1-6.3c-0.634-3.867-0.45-8.767,0.55-14.7
		c1.066-6.3,4.467-14.017,10.2-23.15C66.417,101.733,69.167,97.8,71.801,94.5z"/>
</g>
<g id="Layer_19">
	<path fill-rule="evenodd" clip-rule="evenodd" fill="#F07384" d="M70.801,61.65c2.033,0.8,3.683,1.934,4.949,3.4
		c4,4.667,3.351,11.717-1.949,21.15c-4.834,8.633-9.117,13.55-12.851,14.75c-2.033-4.4-3.55-8.534-4.55-12.4
		c1.167,1,2.384,1.4,3.65,1.2c1.533-0.233,2.733-1.233,3.6-3s1.134-3.783,0.8-6.05c-0.333-2.267-1.184-4.133-2.55-5.6
		c-1.333-1.434-2.767-2.033-4.3-1.8c-1.2,0.133-2.2,0.8-3,2c0.033-5.8,1.267-11.033,3.7-15.7l9.85,1.25L70.801,61.65z"/>
</g>
<g id="Layer_18">
	<path fill-rule="evenodd" clip-rule="evenodd" fill="#EB212E" d="M126.051,22.75c2.666,2.667,3.083,8.917,1.25,18.75
		c-0.301,1.667-2.301,3.433-6,5.3l-5.5,2.25c-1.4-1.3-3.334-2.433-5.801-3.4c-4.933-1.933-10-2.083-15.199-0.45
		c-7.467,2.367-12.384,9.7-14.75,22c-1.167,6.167-1.584,12.1-1.25,17.8l-2,6.5h-5.5c-1.768-5.5-3.117-9.85-4.051-13.05
		c-0.8-2.7-2.55-5.8-5.25-9.3c-2.666-3.433-4.216-5.933-4.649-7.5c-1.767-6.367-2.3-11.566-1.601-15.6c0.567-3.233,2-6,4.301-8.3
		c0.6-0.6,1.1-0.35,1.5,0.75c0.199,0.6,0.449,1.6,0.75,3c0.399,1.333,1.05,2.35,1.949,3.05c0.9,0.7,1.351,0.6,1.351-0.3
		c0-3.3,0.483-6.717,1.45-10.25c1.6-5.633,3.517-9.133,5.75-10.5c1.699-1,2.583-1.317,2.649-0.95c0.067,0.4-0.149,2.217-0.649,5.45
		c-0.134,1.733-0.051,3.133,0.25,4.2c0.166,0.533,0.333,0.883,0.5,1.05l0.399,0.2c0.3,0.066,0.617-0.15,0.95-0.65
		c1.033-1.633,1.917-5.733,2.65-12.3c0.366-3.133,1.683-6.6,3.949-10.4c2.233-3.733,4-5.6,5.301-5.6c1.1,0,1.767,0.667,2,2
		c0.1,0.5,0.149,1.967,0.149,4.4c0,1.333,0.333,2.633,1,3.9c0.767,1.467,1.717,2.2,2.851,2.2c2.333,0,3.5-1.667,3.5-5
		C98.101,9.333,98,7.683,98,7.05c0.033-0.867,0.634-1.3,1.801-1.3c2.166,0,4.583,1.333,7.25,4c1.066,1.067,1.916,3.033,2.55,5.9
		c0.5,2.3,1.217,3.45,2.149,3.45c0.934,0,1.834-0.9,2.7-2.7c0.867-1.833,1.7-2.75,2.5-2.75c1.467,0,2.817,0.867,4.05,2.6
		C123.268,19.483,124.95,21.65,126.051,22.75z"/>
</g>
<g id="Layer_17">
	<path fill-rule="evenodd" clip-rule="evenodd" fill="#F07384" d="M73.801,86.2c-1.2-4.733-1.5-9.633-0.9-14.7
		c1.233-10.2,6.434-16.2,15.6-18c9.167-1.8,16.084-0.333,20.75,4.4c2.334,2.367,3.75,4.9,4.25,7.6l0.5,2.2
		c0.301,1.867,0.434,3.716,0.4,5.55c-0.1,5.9-1.967,10.65-5.6,14.25c-5.434,5.467-10.033,7.517-13.801,6.15
		c-0.833-0.3-2.3-1.133-4.399-2.5c-1.733-1.167-3.217-1.816-4.45-1.95c-1.1-0.133-3.267-0.684-6.5-1.65
		C76.717,86.65,74.768,86.2,73.801,86.2z"/>
</g>
<g id="Layer_16">
	<path fill-rule="evenodd" clip-rule="evenodd" fill="#EB212E" d="M87.5,85.85l-0.899,3.5c-0.634,2.566-0.95,4.4-0.95,5.5
		c0,3.267,0.117,5.733,0.35,7.4c0.634,4.567,2.084,9.65,4.351,15.25c2.3,5.733,3.583,11.35,3.85,16.85c0.134,2.7-0.1,6.65-0.7,11.85
		c-0.3,2.767-1.449,5.4-3.449,7.9c-1.733,2.2-4.467,4.733-8.2,7.6c-2.533,1.767-5.033,2.767-7.5,3
		c-4.867,0.533-7.816-2.417-8.851-8.85c-2.066-12.567-1.05-25.95,3.051-40.15c1.3-4.434,2.816-8.684,4.55-12.75l5.3-12.35
		L87.5,85.85z"/>
</g>
<g id="Layer_15">
	<g id="Layer_24">
		<path fill-rule="evenodd" clip-rule="evenodd" fill="#064947" d="M56.4,88.55c-1.267-4.667-1.866-9.083-1.8-13.25
			c0.8-1.2,1.8-1.867,3-2c1.533-0.233,2.967,0.367,4.3,1.8c1.366,1.467,2.217,3.333,2.55,5.6c0.334,2.267,0.066,4.283-0.8,6.05
			s-2.066,2.767-3.6,3C58.784,89.95,57.567,89.55,56.4,88.55z"/>
		
			<path fill-rule="evenodd" clip-rule="evenodd" fill="none" stroke="#14918C" stroke-linecap="round" stroke-linejoin="round" stroke-miterlimit="3" d="
			M56.4,88.55c1.167,1,2.384,1.4,3.65,1.2c1.533-0.233,2.733-1.233,3.6-3s1.134-3.783,0.8-6.05c-0.333-2.267-1.184-4.133-2.55-5.6
			c-1.333-1.434-2.767-2.033-4.3-1.8c-1.2,0.133-2.2,0.8-3,2C54.534,79.467,55.134,83.883,56.4,88.55z"/>
	</g>
</g>
<g id="Layer_14">
	<g>
		<path fill-rule="evenodd" clip-rule="evenodd" fill="#007070" d="M99.95,68.55c0,2.367-0.8,4.367-2.399,6
			c-1.567,1.667-3.483,2.5-5.75,2.5c-2.233,0-4.15-0.833-5.75-2.5c-1.601-1.633-2.4-3.633-2.4-6c0-2.333,0.8-4.333,2.4-6
			c1.6-1.667,3.517-2.5,5.75-2.5c2.267,0,4.183,0.833,5.75,2.5C99.15,64.217,99.95,66.217,99.95,68.55z"/>
		
			<path fill-rule="evenodd" clip-rule="evenodd" fill="none" stroke="#14918C" stroke-linecap="round" stroke-linejoin="round" stroke-miterlimit="3" d="
			M99.95,68.55c0,2.367-0.8,4.367-2.399,6c-1.567,1.667-3.483,2.5-5.75,2.5c-2.233,0-4.15-0.833-5.75-2.5
			c-1.601-1.633-2.4-3.633-2.4-6c0-2.333,0.8-4.333,2.4-6c1.6-1.667,3.517-2.5,5.75-2.5c2.267,0,4.183,0.833,5.75,2.5
			C99.15,64.217,99.95,66.217,99.95,68.55z"/>
	</g>
</g>
<g id="Layer_13">
	<path fill-rule="evenodd" clip-rule="evenodd" fill="#3C5B2E" d="M260.9,131.9c4.133,1.5,7.133,3.2,9,5.1
		c0.934,0.933,1.45,1.717,1.55,2.35c5.733,0,10.851,1.867,15.351,5.6c5.333,4.367,8,10.216,8,17.55l6.25,4.55
		c4.467,3.733,7.517,7.35,9.149,10.85c2.233,4.833,3.7,9.883,4.4,15.15c0.8,6.134,0.116,10.283-2.05,12.45l4.5,5l5.05,6.65
		c3.167,5.133,4.35,9.416,3.55,12.85c-6.833-13.667-18.767-21.7-35.8-24.1c-8.267-0.7-13.967-1.217-17.101-1.551
		c-5.199-0.566-8.283-1.85-9.25-3.85c-2.699-5.533-1.517-9.2,3.551-11c2.566-0.866,5.383-1.2,8.449-1
		c-2.366-0.933-5.666-1.583-9.899-1.95c-8.467-0.667-17.333,0.483-26.601,3.45c-4.566,1.467-9.683,0.934-15.35-1.6
		c-2.467-1.101-4.133-2.333-5-3.7c-0.934-1.567-0.65-3.067,0.85-4.5c3.867-3.733,8.851-6.35,14.95-7.85
		c3.067-0.767,5.75-1.15,8.05-1.15c-2.232-0.233-5.333-0.184-9.3,0.15c-7.933,0.667-16.283,2.383-25.05,5.15
		c-4.934,1.6-10.767,1.2-17.5-1.2c-2.9-1.066-4.816-2.267-5.75-3.6c-1.066-1.534-0.65-3.034,1.25-4.5
		c4.6-3.534,9.583-6.267,14.95-8.2c2.7-0.933,4.933-1.533,6.7-1.8c-2.134-0.067-4.884,0.25-8.25,0.95
		c-6.667,1.4-13.018,3.967-19.051,7.7c-3.699,2.3-7.116,2.833-10.25,1.6c-2.833-1.167-4.55-3.3-5.149-6.4
		c10.066-14.867,22.017-25.117,35.85-30.75C218.45,123.133,238.434,123.667,260.9,131.9z"/>
</g>
<g id="Layer_12">
	<path fill-rule="evenodd" clip-rule="evenodd" fill="#3C5B2E" d="M206.95,246.1c4.134,11.233,6.184,22.5,6.15,33.801
		c-0.033,12.833-2.851,23.767-8.45,32.8c-6.434,10.434-16.184,17.566-29.25,21.399c-31.367,9.233-58.883,11.801-82.55,7.7
		c-7.367-1.3-13.917-3.184-19.65-5.649l-6.399-3.301c-15.967-7.966-28.017-22-36.15-42.1c-5.7-14.033-9.65-31.783-11.85-53.25
		c-1.267-12.733,2.1-28.816,10.1-48.25c-4.8,17.6-6,32.15-3.6,43.65c3.199,15.466,12.816,24.566,28.85,27.3
		c21.333,3.633,39.517-6.05,54.55-29.05c11.8-18.134,20.583-42.284,26.351-72.45c1.033,6.5,3.283,13.433,6.75,20.8
		c1.967,4.1,9.333,10.733,22.1,19.9c15.434,11.1,24.967,18.466,28.6,22.1C198.233,227.233,203.051,235.434,206.95,246.1z"/>
</g>
<g id="Layer_11">
	<path fill-rule="evenodd" clip-rule="evenodd" fill="#F07384" d="M126.051,22.75c1.633,1.633,2.433,4.6,2.399,8.9
		c-0.033,2.533-0.399,5.767-1.1,9.7c-6.033-5.233-15.101-7.85-27.2-7.85c-9.467,0-16.45,2.867-20.95,8.6
		c-1.333,1.7-2.616,3.85-3.85,6.45c-0.634,1.434-1.5,3.383-2.601,5.85c-1.899,3.6-4.55,4.633-7.949,3.1
		c-1.367-0.6-2.45-1.583-3.25-2.95c-2.101-3.3-2.684-8.8-1.75-16.5l0.25-0.3c0.6-0.6,1.1-0.35,1.5,0.75c0.199,0.6,0.449,1.6,0.75,3
		c0.399,1.333,1.05,2.35,1.949,3.05c0.9,0.7,1.351,0.6,1.351-0.3c0-3.3,0.483-6.717,1.45-10.25c1.6-5.633,3.517-9.133,5.75-10.5
		c1.699-1,2.583-1.317,2.649-0.95c0.067,0.4-0.149,2.217-0.649,5.45c-0.134,1.733-0.051,3.133,0.25,4.2
		c0.166,0.533,0.333,0.883,0.5,1.05l0.399,0.2c0.3,0.066,0.617-0.15,0.95-0.65c1.033-1.633,1.917-5.733,2.65-12.3
		c0.366-3.133,1.683-6.6,3.949-10.4c2.233-3.733,4-5.6,5.301-5.6c1.1,0,1.767,0.667,2,2c0.1,0.5,0.149,1.967,0.149,4.4
		c0,1.333,0.333,2.633,1,3.9c0.767,1.467,1.717,2.2,2.851,2.2c2.333,0,3.5-1.667,3.5-5C98.101,9.333,98,7.683,98,7.05
		c0.033-0.867,0.634-1.3,1.801-1.3c2.166,0,4.583,1.333,7.25,4c1.066,1.067,1.916,3.033,2.55,5.9c0.5,2.3,1.217,3.45,2.149,3.45
		c0.934,0,1.834-0.9,2.7-2.7c0.867-1.833,1.7-2.75,2.5-2.75c1.467,0,2.817,0.867,4.05,2.6
		C123.268,19.483,124.95,21.65,126.051,22.75z"/>
</g>
<g id="Layer_10">
	<path fill-rule="evenodd" clip-rule="evenodd" fill="#F07384" d="M87.5,85.85l-0.899,3.5c-0.634,2.566-0.95,4.4-0.95,5.5
		c0,3.267,0.117,5.733,0.35,7.4c0.634,4.567,2.084,9.65,4.351,15.25c0.6,1.767,0.649,4.117,0.149,7.05
		c-0.467,2.967-1.333,5.534-2.6,7.7c-1.4,2.467-2.95,3.783-4.65,3.95c-2,0.233-3.982-1.167-5.949-4.2
		c-2.634-4.067-3.4-10.783-2.301-20.15c0.733-6.467,2.301-13.783,4.7-21.95L87.5,85.85z"/>
</g>
<g id="Layer_9">
	<path fill-rule="evenodd" clip-rule="evenodd" fill="#6E9C38" d="M225.95,262.4c0.9,6-4.267,13.116-15.5,21.35
		c-4.433,3.233-8.733,5.767-12.899,7.6c-4.268,1.867-7.167,2.434-8.7,1.7c-4.267-2.033-8.3-4.483-12.101-7.35l-4.449-3.7
		c-3.867,1.4-7.967,2.566-12.301,3.5c-8.6,1.9-14,1.75-16.199-0.45c-5.601-5.633-9.95-15.55-13.051-29.75
		c-2.967-13.5-3.982-26.717-3.05-39.649c0.767-10.367,2.95-20.417,6.55-30.15c1.101-3.033,2.301-5.867,3.601-8.5l1.55-3
		c1.133,5.433,5.967,10.95,14.5,16.55c5.133,3.367,14.3,8.667,27.5,15.9c12.133,7.2,21.5,14.434,28.1,21.7
		C218.5,238.116,223.983,249.533,225.95,262.4z"/>
</g>
<g id="Layer_8">
	<path fill-rule="evenodd" clip-rule="evenodd" fill="#FDC130" d="M76.801,97.85c-2.2,0.733-4.983,0.8-8.351,0.2
		c-3.633-0.667-5.184-1.85-4.649-3.55c0.767-2.267,2.383-4.617,4.85-7.05c1.267-1.2,2.434-2.184,3.5-2.95
		c3.467-0.867,7.083-1.117,10.85-0.75c2,0.2,4.25,0.483,6.75,0.85c1.467,0,2.317,0.633,2.551,1.9c0.232,1.233-0.434,1.85-2,1.85
		c-1,0-2.9,1.333-5.7,4C81.5,95.317,78.9,97.15,76.801,97.85z"/>
</g>
<g id="Layer_7">
	<path fill-rule="evenodd" clip-rule="evenodd" fill="#F59331" d="M76.851,97.85c-1.967,0.633-4.517,0.733-7.65,0.3
		c-3.366-0.5-5.184-1.433-5.45-2.8c0.634,0.1,1.684,0.133,3.15,0.1c1.367-0.034,2.617,0.05,3.75,0.25
		c1.867,0.333,3.55,0.167,5.05-0.5c0.934-0.434,1.917-1.167,2.95-2.2c1.066-1.033,2.7-2.183,4.9-3.45c3.033-1.8,5.899-2.966,8.6-3.5
		c0.267,0.567,0.25,1.083-0.05,1.55c-0.333,0.5-0.917,0.75-1.75,0.75c-1,0-2.9,1.333-5.7,4C81.551,95.317,78.95,97.15,76.851,97.85z
		"/>
</g>
<g id="_x3C_Path_x3E__x5F_5">
	
		<use xlink:href="#chickens.ai_Assets_x2F_Layer_1_x2F__x3C_Path_x3E__x5F_5"  width="18.691" height="10.023" x="-0.041" y="-10.039" transform="matrix(1 0 0 -1 69.7002 83.6001)" overflow="visible" opacity="0.5703" enable-background="new    "/>
</g>
<g id="_x3C_Path_x3E__x5F_4">
	
		<use xlink:href="#chickens.ai_Assets_x2F_Layer_1_x2F__x3C_Path_x3E__x5F_4"  width="8.312" height="7.914" x="0.019" y="-7.932" transform="matrix(1 0 0 -1 89.9004 62.2998)" overflow="visible" opacity="0.8281" enable-background="new    "/>
</g>
<g id="_x3C_Path_x3E__x5F_3">
	
		<use xlink:href="#chickens.ai_Assets_x2F_Layer_1_x2F__x3C_Path_x3E__x5F_3"  width="3" height="2.65" y="-2.65" transform="matrix(1 0 0 -1 91.0508 71.6001)" overflow="visible" opacity="0.8281" enable-background="new    "/>
</g>
<g id="_x3C_Path_x3E__x5F_2">
	
		<use xlink:href="#chickens.ai_Assets_x2F_Layer_1_x2F__x3C_Path_x3E__x5F_2"  width="6.682" height="6.384" x="0.029" y="-6.361" transform="matrix(1 0 0 -1 55.9004 77.9502)" overflow="visible" opacity="0.8281" enable-background="new    "/>
</g>
<g id="_x3C_Path_x3E__x5F_1">
	
		<use xlink:href="#chickens.ai_Assets_x2F_Layer_1_x2F__x3C_Path_x3E__x5F_1"  width="2.4" height="2.15" y="-2.15" transform="matrix(1 0 0 -1 56.8506 85.3999)" overflow="visible" opacity="0.8281" enable-background="new    "/>
</g>
</svg>
