<?xml version="1.0" encoding="utf-8"?>
<!-- Generator: Adobe Illustrator 16.0.0, SVG Export Plug-In . SVG Version: 6.00 Build 0)  -->
<!DOCTYPE svg PUBLIC "-//W3C//DTD SVG 1.1//EN" "http://www.w3.org/Graphics/SVG/1.1/DTD/svg11.dtd">
<svg version="1.1" id="Layer_1" xmlns="http://www.w3.org/2000/svg" xmlns:xlink="http://www.w3.org/1999/xlink" x="0px" y="0px"
	 width="100px" height="100px" viewBox="0 0 100 100" enable-background="new 0 0 100 100" xml:space="preserve">
<symbol  id="bw" viewBox="0 -59.95 87.725 59.95">
	<g id="Layer_3_1_">
		<path fill-rule="evenodd" clip-rule="evenodd" d="M86.05-16.5c0.633-2.367,1.034-4.05,1.2-5.05c0.167-1.367,0.3-3,0.4-4.9
			c0.1-1.833,0.1-3.55,0-5.15c-0.033-0.667-0.2-2.483-0.5-5.45c-0.167-1.3-0.3-2.317-0.4-3.05c-0.1-0.233-0.217-0.517-0.35-0.85
			c-0.167-1.3-0.617-2.716-1.35-4.25c-0.933-2.033-2.066-3.617-3.4-4.75c-0.333-0.3-1.133-1.15-2.4-2.55
			c-0.933-1-1.917-1.817-2.95-2.45c-0.633-0.4-1.983-1.083-4.05-2.05c-1.833-0.833-3.2-1.35-4.1-1.55v0.05
			c-2-0.767-4.6-1.25-7.8-1.45l-3.8,0.15c-6.2,0.633-11.15,3.033-14.85,7.2c-0.233,0.167-0.434,0.367-0.6,0.6
			c-1.833,1.733-3.217,3.733-4.15,6l-0.05-0.05c-0.1,0.3-0.267,0.683-0.5,1.15c-0.267,0.633-0.483,1.117-0.65,1.45
			c-0.033,0.233-0.083,0.517-0.15,0.85c-0.1,0.6-0.2,1.033-0.3,1.3c-0.033,0.767-0.033,1.617,0,2.55
			c-0.833-0.767-1.9-1.517-3.2-2.25c-0.133-0.067-0.3-0.133-0.5-0.2c-0.1,0-0.184-0.033-0.25-0.1c-0.733-0.434-1.55-0.867-2.45-1.3
			c-2.3-1.1-4.316-1.75-6.05-1.95c-0.1-0.034-0.217-0.067-0.35-0.1h-0.05c-0.233-0.067-0.467-0.1-0.7-0.1
			c-0.7-0.1-1.5-0.217-2.4-0.35h-1.2c-0.133,0-1.117,0.117-2.95,0.35c-0.1,0.033-0.633,0.117-1.6,0.25
			c-0.434,0.1-0.867,0.167-1.3,0.2c-0.066,0.033-0.117,0.05-0.15,0.05c-0.733,0.2-1.533,0.5-2.4,0.9c-0.8,0.333-1.767,0.8-2.9,1.4
			C6.017-41.517,5.183-41,4.35-40.4c-0.467,0.333-1.133,0.816-2,1.45c-0.367,0.3-1.017,0.967-1.95,2c-0.033,0-0.083,0.034-0.15,0.1
			c-0.1,0.167-0.183,0.3-0.25,0.4c0.7-0.3,1.35-0.483,1.95-0.55c0.833-0.333,1.6-0.517,2.3-0.55c1.367-0.067,2.683,0.05,3.95,0.35
			c0.466,0.1,0.85,0.217,1.15,0.35c1.767,0.3,3.333,0.783,4.7,1.45c1.233,0.667,2.534,1.566,3.9,2.7
			c0.966,0.833,2.367,2.133,4.2,3.9c0.9,0.9,2.217,2.417,3.95,4.55c1.733,2.167,3.083,3.717,4.05,4.65
			c1.333,1.333,2.8,2.867,4.4,4.6c0.934,1.033,2.35,2.6,4.25,4.7c1.534,1.7,3.233,3.183,5.1,4.45c1.367,0.934,2.85,1.767,4.45,2.5
			c0.9,0.4,1.816,0.783,2.75,1.15c0.167,0.1,0.35,0.217,0.55,0.35c0.434,0.2,1.033,0.434,1.8,0.7c0.7,0.267,1.35,0.45,1.95,0.55
			c1,0.233,2.3,0.434,3.9,0.6l2.6-0.1c0.633-0.033,1.267-0.1,1.9-0.2c0.833,0,2-0.017,3.5-0.05c0.8-0.033,1.8-0.217,3-0.55
			c0.633-0.167,1.517-0.417,2.65-0.75c1.2-0.267,2.433-0.833,3.7-1.7c1-0.667,2.017-1.5,3.05-2.5c3.3-3.2,5.1-5.9,5.4-8.1
			C85.533-15.117,85.85-15.967,86.05-16.5z M83.8-34.75c0.133,3.567,0.117,6.1-0.05,7.6c-0.2,1.5-0.867,4.417-2,8.75
			c-0.467,1.7-0.933,3.066-1.4,4.1c-0.667,1.367-1.583,2.7-2.75,4c-0.133,0.133-0.283,0.267-0.45,0.4
			c-0.066,0.066-0.133,0.15-0.2,0.25c-0.833,0.8-1.9,1.617-3.2,2.45c-3.2,1.967-6.233,3.034-9.1,3.2C63.817-4,63.267-4.05,63-4.15
			c-1.867,0.033-3.367-0.067-4.5-0.3c-4.9-0.533-9.9-2.75-15-6.65c-1.967-1.6-3.867-3.35-5.7-5.25c-1.167-1.2-1.983-2.133-2.45-2.8
			c-3.1-4.2-7.033-8.317-11.8-12.35c-1.233-1.033-2.7-2.217-4.4-3.55c-0.4-0.267-0.717-0.517-0.95-0.75
			c-1.567-0.8-3.083-1.5-4.55-2.1c-2.333-0.9-4.133-1.317-5.4-1.25c-2.667,0.1-4.733,0.5-6.2,1.2c0.9-0.566,1.8-1.05,2.7-1.45
			c0.4-0.167,0.817-0.333,1.25-0.5c0.733-0.467,1.733-0.934,3-1.4c1.633-0.567,2.95-0.867,3.95-0.9c0.033,0,0.066,0,0.1,0
			c0.2-0.033,0.4-0.05,0.6-0.05c6.067-0.267,11.317,0.983,15.75,3.75c1.6,0.967,2.917,2.033,3.95,3.2c0.233,0.267,0.566,0.6,1,1
			c0.566,0.5,0.967,0.917,1.2,1.25c1.633,2.433,2.9,4.233,3.8,5.4c1.066,1.367,1.8,2.283,2.2,2.75c0.867,1.066,1.65,1.933,2.35,2.6
			c0.133,0.1,0.25,0.2,0.35,0.3c0.167,0.133,0.35,0.25,0.55,0.35c0.367,0.233,0.817,0.5,1.35,0.8c0.3,0.233,0.567,0.434,0.8,0.6
			c0.033,0,0.083,0.017,0.15,0.05v0.05c0.833,0.4,1.7,0.85,2.6,1.35c0.033,0,0.066,0.017,0.1,0.05
			c0.167,0.067,0.317,0.117,0.45,0.15c1.433,0.3,3.167,0.533,5.2,0.7v0.05l4.7-0.2c4.967-1.467,8.467-3.617,10.5-6.45
			c0.5-0.733,0.9-1.483,1.2-2.25c0.2-0.233,0.417-0.583,0.65-1.05c0.033-0.1,0.133-0.45,0.3-1.05c0.1-0.367,0.15-0.667,0.15-0.9
			c0.033-0.433,0.1-1.083,0.2-1.95c0.033-0.733,0.033-1.367,0-1.9c-0.033-0.667-0.25-1.65-0.65-2.95c-0.6-1.9-1.417-3.617-2.45-5.15
			c-3.1-4.667-7.6-6.883-13.5-6.65c-2.233,0.133-4.05,0.817-5.45,2.05c-0.9,0.566-1.6,1.25-2.1,2.05
			c-0.467,0.767-0.75,1.667-0.85,2.7c0,0.167,0,0.316,0,0.45c0,0.067,0,0.117,0,0.15c-0.033,0.267-0.033,0.534,0,0.8
			c0.033,1.5,0.45,2.566,1.25,3.2c-0.033-0.066-0.083-0.133-0.15-0.2c-0.133-0.567-0.2-0.917-0.2-1.05
			c-0.033-0.167-0.033-0.45,0-0.85c0.067-0.434,0.1-0.684,0.1-0.75c0.033-0.067,0.067-0.2,0.1-0.4c0-0.533,0.1-1,0.3-1.4
			c0.2-0.467,0.534-1.033,1-1.7c0.467-0.633,0.883-1.083,1.25-1.35c0.2-0.167,0.483-0.35,0.85-0.55
			c0.833-0.433,1.817-0.667,2.95-0.7h0.2c0.034,0,0.067,0,0.1,0c0.767-0.033,1.4-0.033,1.9,0c0.133,0,0.25-0.017,0.35-0.05h0.05
			c3.7,0.267,6.45,1.684,8.25,4.25c1.267,1.733,1.933,3.633,2,5.7c0.133,2.533-0.3,4.867-1.3,7c-1.3,2.767-3.383,4.967-6.25,6.6
			c-4.733,1.533-9.316,0.833-13.75-2.1c-1.566-1.033-2.883-2.2-3.95-3.5l-0.05-0.05c-0.566-0.534-1.3-1.2-2.2-2
			c-0.167-0.133-0.35-0.3-0.55-0.5c-0.167-0.434-0.35-0.883-0.55-1.35c-0.667-1.667-1.033-3.184-1.1-4.55
			c-0.033-1.167,0.017-2.283,0.15-3.35c0.2-4.1,1.45-7.467,3.75-10.1c3.167-3.6,8.083-5.533,14.75-5.8
			c5.934-0.267,10.667,0.65,14.2,2.75h0.05c1.667,0.8,3.184,1.75,4.55,2.85c1.633,1.333,2.917,2.817,3.85,4.45
			c0.2,0.367,0.367,0.7,0.5,1c0.367,0.7,0.733,1.483,1.1,2.35C82.717-39.833,83.433-37.317,83.8-34.75z M50.3-57.05
			C50.2-57.017,50.117-57,50.05-57c0.1-0.067,0.2-0.1,0.3-0.1L50.3-57.05z"/>
		<path fill-rule="evenodd" clip-rule="evenodd" fill="#FFFFFF" d="M83.8-34.75c-0.367-2.567-1.083-5.083-2.15-7.55
			c-0.367-0.867-0.733-1.65-1.1-2.35c-0.133-0.3-0.3-0.633-0.5-1c-0.933-1.633-2.216-3.117-3.85-4.45
			c-1.367-1.1-2.883-2.05-4.55-2.85H71.6c-3.533-2.1-8.267-3.017-14.2-2.75c-6.667,0.267-11.583,2.2-14.75,5.8
			c-2.3,2.633-3.55,6-3.75,10.1c-0.133,1.066-0.183,2.183-0.15,3.35c0.067,1.367,0.433,2.883,1.1,4.55
			c0.2,0.467,0.383,0.917,0.55,1.35c0.2,0.2,0.383,0.367,0.55,0.5c0.9,0.8,1.633,1.466,2.2,2L43.2-28
			c1.066,1.3,2.383,2.467,3.95,3.5c4.434,2.933,9.017,3.633,13.75,2.1c2.867-1.633,4.95-3.833,6.25-6.6c1-2.133,1.434-4.467,1.3-7
			c-0.067-2.067-0.733-3.967-2-5.7c-1.8-2.566-4.55-3.983-8.25-4.25h-0.05c-0.1,0.034-0.217,0.05-0.35,0.05
			c-0.5-0.033-1.133-0.033-1.9,0c-0.033,0-0.066,0-0.1,0h-0.2c-1.133,0.033-2.117,0.267-2.95,0.7C52.283-45,52-44.817,51.8-44.65
			c-0.367,0.267-0.783,0.717-1.25,1.35c-0.466,0.667-0.8,1.233-1,1.7c-0.2,0.4-0.3,0.867-0.3,1.4c-0.033,0.2-0.067,0.333-0.1,0.4
			c0,0.066-0.033,0.316-0.1,0.75c-0.033,0.4-0.033,0.683,0,0.85c0,0.133,0.067,0.483,0.2,1.05c0.067,0.066,0.117,0.133,0.15,0.2
			c-0.8-0.633-1.217-1.7-1.25-3.2c-0.033-0.267-0.033-0.533,0-0.8c0-0.033,0-0.083,0-0.15c0-0.133,0-0.283,0-0.45
			c0.1-1.034,0.383-1.934,0.85-2.7c0.5-0.8,1.2-1.483,2.1-2.05c1.4-1.233,3.217-1.917,5.45-2.05c5.9-0.233,10.4,1.983,13.5,6.65
			c1.034,1.534,1.85,3.25,2.45,5.15c0.4,1.3,0.617,2.283,0.65,2.95c0.033,0.533,0.033,1.167,0,1.9c-0.1,0.867-0.167,1.517-0.2,1.95
			c0,0.233-0.05,0.533-0.15,0.9c-0.167,0.6-0.267,0.95-0.3,1.05c-0.233,0.466-0.45,0.816-0.65,1.05c-0.3,0.767-0.7,1.517-1.2,2.25
			c-2.033,2.833-5.533,4.983-10.5,6.45l-4.7,0.2v-0.05c-2.034-0.167-3.767-0.4-5.2-0.7c-0.133-0.033-0.283-0.083-0.45-0.15
			c-0.033-0.033-0.066-0.05-0.1-0.05c-0.9-0.5-1.767-0.95-2.6-1.35v-0.05c-0.067-0.033-0.117-0.05-0.15-0.05
			c-0.233-0.167-0.5-0.367-0.8-0.6c-0.533-0.3-0.983-0.566-1.35-0.8c-0.2-0.1-0.383-0.217-0.55-0.35c-0.1-0.1-0.217-0.2-0.35-0.3
			c-0.7-0.667-1.483-1.534-2.35-2.6c-0.4-0.467-1.133-1.383-2.2-2.75c-0.9-1.167-2.167-2.967-3.8-5.4
			c-0.233-0.333-0.633-0.75-1.2-1.25c-0.434-0.4-0.767-0.733-1-1c-1.033-1.167-2.35-2.233-3.95-3.2
			c-4.433-2.767-9.683-4.017-15.75-3.75c-0.2,0-0.4,0.017-0.6,0.05c-0.033,0-0.066,0-0.1,0c-1,0.034-2.317,0.333-3.95,0.9
			c-1.267,0.466-2.267,0.933-3,1.4c-0.433,0.167-0.85,0.333-1.25,0.5c-0.9,0.4-1.8,0.883-2.7,1.45c1.467-0.7,3.534-1.1,6.2-1.2
			c1.267-0.067,3.067,0.35,5.4,1.25c1.467,0.6,2.983,1.3,4.55,2.1c0.233,0.233,0.55,0.483,0.95,0.75c1.7,1.333,3.167,2.517,4.4,3.55
			c4.767,4.033,8.7,8.15,11.8,12.35c0.467,0.667,1.283,1.6,2.45,2.8c1.833,1.9,3.733,3.65,5.7,5.25c5.1,3.9,10.1,6.117,15,6.65
			c1.133,0.233,2.633,0.333,4.5,0.3C63.267-4.05,63.817-4,64.65-4c2.867-0.167,5.9-1.233,9.1-3.2c1.3-0.833,2.367-1.65,3.2-2.45
			c0.066-0.1,0.133-0.184,0.2-0.25c0.167-0.133,0.317-0.267,0.45-0.4c1.167-1.3,2.083-2.633,2.75-4c0.467-1.034,0.933-2.4,1.4-4.1
			c1.133-4.333,1.8-7.25,2-8.75C83.917-28.65,83.933-31.183,83.8-34.75z"/>
		
			<radialGradient id="SVGID_1_" cx="35.75" cy="-10.8501" r="74.175" gradientTransform="matrix(1 0 0 0.9995 0 -0.0054)" gradientUnits="userSpaceOnUse">
			<stop  offset="0" style="stop-color:#9EDBF3"/>
			<stop  offset="0" style="stop-color:#94CCE2"/>
		</radialGradient>
		<path fill-rule="evenodd" clip-rule="evenodd" fill="url(#SVGID_1_)" d="M50.3-57.05l0.05-0.05c-0.1,0-0.2,0.033-0.3,0.1
			C50.117-57,50.2-57.017,50.3-57.05z"/>
	</g>
</symbol>
<use xlink:href="#bw"  width="87.725" height="59.95" y="-59.95" transform="matrix(1 0 0 -1 5.6499 23.5498)" overflow="visible"/>
</svg>
