
<svg xmlns="http://www.w3.org/2000/svg" version="1.1" xmlns:xlink="http://www.w3.org/1999/xlink" preserveAspectRatio="none" x="0px" y="0px" width="50px" height="50px" viewBox="0 0 50 50">
<defs>
<g id="game_0_Layer0_0_FILL">
<path fill="#221E1F" stroke="none" d="
M 36.9 39.35
L 36.95 39.35 36.9 39.25 36.9 39.35
M 38.3 37.65
L 38.35 37.65 38.35 37.7 38.4 37.65 38.4 37.6 38.3 37.65
M 10.25 13.55
L 10.2 13.55 10.2 13.6 10.25 13.6 10.25 13.55
M 0.75 18.9
L 0.7 18.9 0.7 18.95 0.75 18.95 0.75 18.9
M 1.5 17.3
L 1.5 17.4 1.6 17.4 1.5 17.3
M 2.5 16.55
L 2.5 16.6 2.55 16.55 2.5 16.55
M 2.9 14.95
Q 2.8740234375 14.9740234375 2.85 14.95
L 2.85 15.05 2.9 14.95
M 6.05 12.7
L 6.05 12.6 6 12.75 6.05 12.7
M 4.85 11.85
L 4.85 11.9 4.9 11.85 4.85 11.85
M 11.95 6.35
L 12 6.3 12 6.25 11.95 6.3 11.95 6.35
M 11.5 5.05
L 11.5 5.1 11.6 5.05
Q 11.55 5.05 11.5 5.05
M 22.35 21.8
L 22.35 21.7
Q 22.2 21.9 22.05 22.1 21.95 22.15 21.85 22.25 21.75 22.35 21.65 22.45 21.55 22.55 21.45 22.6 21.25 22.8 21.1 22.95 21 23.05 20.9 23.15 20.8 23.25 20.7 23.35
L 20.75 23.35
Q 20.75 23.3 20.8 23.3
L 20.85 23.3
Q 20.9 23.4 20.85 23.4 20.8 23.4 20.75 23.45 20.8 23.45 20.85 23.45
L 20.85 23.5 20.9 23.5
Q 20.95 23.5 20.95 23.55
L 21 23.6 21 23.55
Q 21.05 23.55 21.05 23.6
L 21.1 23.55
Q 21.1 23.6 21.1 23.65
L 21.15 23.65 21.2 23.7 21.25 23.7
Q 21.3 23.75 21.25 23.75
L 21.2 23.7 21.1 23.7 21.1 23.75 21.15 23.75
Q 21.2 23.75 21.2 23.8
L 21.3 23.8 21.3 23.85
Q 21.35 23.85 21.35 23.95 21.4 23.95 21.45 24
L 21.5 23.95
Q 21.55 23.95 21.6 24.05 21.65 24.1 21.55 24.1
L 21.55 24.2 21.6 24.2
Q 21.6 24.05 21.65 24.15
L 21.65 24.2 21.75 24.2
Q 21.85 24.2 21.75 24.25
L 21.75 24.4 21.85 24.35
Q 21.95 24.35 21.95 24.4 22.1 24.5 22 24.5
L 21.95 24.55 22 24.55
Q 22 24.6 22 24.65
L 22.05 24.65
Q 22.1 24.65 22.1 24.7
L 22.1 24.75 22.15 24.7
Q 22.15 24.75 22.2 24.8
L 22.3 24.8
Q 22.25 24.7 22.35 24.8 22.4 24.9 22.35 24.9
L 22.35 25 22.4 25 22.45 25.05 22.55 25.05 22.55 25.15 22.65 25.15
Q 22.6 25.05 22.7 25.1
L 22.7 25.15 22.75 25.2
Q 22.85 25.25 22.7 25.25
L 22.7 25.3 22.85 25.35 22.8 25.4 22.85 25.4
Q 22.9 25.4 22.95 25.4
L 22.95 25.45
Q 22.9 25.45 22.85 25.45 22.85 25.5 22.9 25.5 22.9 25.55 22.95 25.55 23 25.55 23 25.6
L 23.05 25.6 23.1 25.65 23.2 25.6 23.2 25.65
Q 23.25 25.65 23.25 25.7
L 23.3 25.7 23.25 25.75
Q 23.3 25.75 23.3 25.8 23.35 25.8 23.35 25.85
L 23.4 25.9 23.45 25.9 23.45 25.95
Q 23.55 25.95 23.6 26 23.65 26.05 23.6 26.05
L 23.6 26.2
Q 23.65 26.2 23.65 26.25
L 23.65 26.3 23.8 26.3
Q 23.85 26.3 23.8 26.35
L 23.8 26.4 23.85 26.35
Q 23.9 26.35 23.95 26.4
L 23.95 26.45
Q 23.951171875 26.401171875 24 26.45
L 24.1 26.5 24.05 26.65 24.1 26.65 24.1 26.7 24.15 26.75 24.2 26.75 24.15 26.7 24.2 26.65 24.25 26.7 24.3 26.7 24.3 26.75 24.35 26.75
Q 24.45 26.75 24.35 26.85
L 24.4 26.85
Q 24.45 26.9 24.35 26.9
L 24.35 26.95 24.4 26.95
Q 24.449609375 26.95 24.45 27 24.45078125 26.950390625 24.55 27 24.7 27 24.55 27.05
L 24.55 27.15 24.6 27.2 24.7 27.2
Q 24.8 27.2 24.75 27.25
L 24.75 27.35 24.8 27.35 24.8 27.4 24.85 27.4
Q 24.9 27.35 24.9 27.4
L 24.95 27.4 24.95 27.45
Q 25.05 27.5 25.05 27.55
L 25.1 27.55 25.15 27.6
Q 25.2 27.65 25.15 27.65 25.15 27.7 25.15 27.75
L 25.2 27.75
Q 25.2 27.65 25.3 27.65 25.3 27.7 25.3 27.75
L 25.3 27.8
Q 25.3 27.85 25.3 27.9
L 25.35 27.9
Q 25.4 27.9 25.4 27.95
L 25.4 28 25.45 28.05 25.55 28.05
Q 25.7 28.05 25.6 28.15
L 25.55 28.25 25.6 28.25
Q 25.7 28.25 25.65 28.3
L 25.7 28.3 25.7 28.25 25.75 28.25
Q 25.8 28.25 25.8 28.3
L 25.85 28.35 25.85 28.4
Q 25.9 28.4 25.9 28.45
L 25.95 28.4
Q 26 28.45 25.95 28.5
L 25.95 28.55 26 28.5 26.05 28.55 26.05 28.65
Q 26.1 28.6 26.1 28.75
L 26.15 28.75
Q 26.2 28.75 26.25 28.85
L 26.2 28.85 26.25 29 26.35 29 26.3 29.1 26.35 29.05 26.35 29.1 26.4 29.1 26.4 29.15
Q 26.45 29.15 26.45 29.25
L 26.55 29.25 26.55 29.3 26.6 29.3 26.6 29.35 26.65 29.35
Q 26.7 29.35 26.7 29.45 26.75 29.5 26.75 29.55
L 26.8 29.55
Q 26.8 29.5 26.85 29.55
L 26.85 29.6
Q 26.898828125 29.6 26.9 29.65 26.95 29.65 26.95 29.7 27 29.7 27.05 29.75
L 27.05 29.8
Q 27.05 29.85 27.05 29.9 27.1 29.9 27.1 29.95
L 27.1 30 27.2 30 27.2 30.1 27.25 30.1
Q 27.3 30.1 27.3 30.15
L 27.3 30.2
Q 27.35 30.2 27.4 30.2 27.4 30.25 27.4 30.3 27.45 30.3 27.45 30.35
L 27.55 30.35 27.55 30.4
Q 27.598828125 30.448828125 27.55 30.45
L 27.6 30.45
Q 27.64765625 30.49765625 27.65 30.6 27.6515625 30.453125 27.7 30.55
L 27.7 30.6 27.75 30.55
Q 27.8 30.55 27.8 30.65
L 27.85 30.65
Q 27.9 30.7 27.8 30.75
L 27.8 30.85 27.85 30.85
Q 27.9 30.8 27.9 30.85
L 27.9 30.95 28 30.95
Q 28.05 30.9 28.05 30.95
L 28.05 31.1 28.1 31.1 28.1 31.05 28.15 31.05 28.15 31.1 28.2 31.1 28.2 31.15
Q 28.25 31.2 28.2 31.2
L 28.2 31.3 28.25 31.3 28.25 31.35 28.3 31.35 28.35 31.3
Q 28.5 31.3 28.5 31.4 28.55 31.5 28.6 31.55 28.6 31.65 28.5 31.7
L 28.65 31.7
Q 28.7 31.7 28.75 31.7
L 28.75 31.8
Q 28.75 31.85 28.75 31.9
L 28.8 31.85 28.85 31.85 28.85 31.9
Q 28.85 31.95 28.9 31.95
L 28.9 32.05
Q 28.9 32.0986328125 28.9 32.15 28.9015625 32.1015625 28.95 32.15 29 32.2 28.95 32.2
L 28.95 32.25 29 32.25 29 32.3 29.05 32.3 29.05 32.35
Q 29.1 32.35 29.05 32.4
L 29.15 32.4 29.15 32.45 29.2 32.4
Q 29.2 32.35 29.25 32.35 29.3 32.45 29.25 32.45 29.35 32.5 29.35 32.55
L 29.4 32.55 29.4 32.65
Q 29.45 32.7 29.4 32.7
L 29.4 32.75
Q 29.4484375 32.7015625 29.45 32.8 29.4515625 32.7015625 29.5 32.75
L 29.5 32.8
Q 29.5 32.85 29.5 32.9
L 29.5 32.95 29.55 32.9 29.55 32.85
Q 29.55 32.8 29.6 32.85
L 29.65 32.85
Q 29.7 32.95 29.65 32.95
L 29.65 33.05 29.75 33.05 29.8 33.1 29.8 33.05
Q 29.9 33.05 29.85 33.15
L 29.85 33.2
Q 29.85 33.25 29.8 33.25
L 29.8 33.3 29.95 33.3 30 33.4
Q 30 33.3 30.1 33.45 30.1 33.5 30.15 33.55
L 30.2 33.55 30.2 33.6 30.25 33.6 30.25 33.7
Q 30.3 33.75 30.25 33.75
L 30.25 33.8
Q 30.3 33.8 30.35 33.75
L 30.35 33.8
Q 30.4 33.8 30.4 33.85
L 30.4 33.9
Q 30.45 33.9 30.5 33.95 30.55 34 30.55 34.05
L 30.6 34
Q 30.65 34 30.6 34.1
L 30.65 34.15 30.7 34.25 30.75 34.25 30.75 34.4
Q 30.8 34.4 30.75 34.45
L 30.8 34.45 30.8 34.4
Q 30.8 34.35 30.85 34.4 30.9 34.4 30.9 34.45 31 34.45 30.9 34.55 30.95 34.55 30.95 34.6
L 30.95 34.65 31 34.6 31 34.65
Q 31 34.7 31 34.75
L 31.05 34.75 31.05 34.65
Q 31.2 34.7 31.2 34.8 31.25 34.85 31.2 34.9
L 31.25 34.9 31.25 35.05
Q 31.3 35.05 31.35 35.05
L 31.35 35.1 31.4 35.1
Q 31.35 35 31.45 35.1
L 31.45 35.2 31.5 35.2 31.5 35.3 31.55 35.3
Q 31.6 35.3 31.6 35.4 31.7 35.35 31.6 35.45
L 31.65 35.45
Q 31.65 35.5 31.65 35.55
L 31.7 35.5 31.8 35.5
Q 31.85 35.5 31.8 35.55
L 31.85 35.6 31.85 35.65 31.9 35.65 31.85 35.7 31.95 35.7
Q 32.1 35.7 32 35.8
L 32.05 35.8 32.15 35.9 32.2 35.9
Q 32.25 35.95 32.2 36
L 32.2 36.15 32.3 36.2 32.35 36.2 32.35 36.15 32.4 36.2 32.4 36.25
Q 32.45 36.25 32.45 36.3
L 32.45 36.35
Q 32.5 36.25 32.5 36.35
L 32.5 36.4 32.45 36.4 32.5 36.45 32.6 36.45 32.6 36.65 32.65 36.65 32.65 36.7 32.7 36.7 32.7 36.65 32.75 36.65
Q 32.85 36.65 32.8 36.7 32.95 36.75 32.95 36.85 32.85 36.75 32.85 36.9
L 32.95 36.9 32.95 37 33 37 33 37.05 33.05 37.05 33.05 37 33.1 37
Q 33.15 37 33.2 37.05
L 33.2 37.2
Q 33.201171875 37.15 33.25 37.15
L 33.25 37.2 33.3 37.2
Q 33.4 37.25 33.35 37.3
L 33.4 37.35 33.35 37.4 33.35 37.45
Q 33.364453125 37.4 33.4 37.4
L 33.55 37.4
Q 33.55 37.45 33.55 37.5
L 33.6 37.55 33.6 37.65 33.7 37.65 33.7 37.7 33.65 37.75 33.7 37.75
Q 33.75 37.8 33.75 37.85
L 33.8 37.85
Q 33.9 37.9 33.8 38 33.85 38 33.85 38.05
L 33.9 38.05
Q 33.9 37.95 33.95 38
L 33.95 38.05 34 38.05
Q 34.05 38.05 34.05 38.1
L 34.05 38.15 34.15 38.15
Q 34.15 38.2 34.05 38.25
L 34.05 38.3 34.25 38.3
Q 34.25 38.35 34.3 38.35 34.3 38.4 34.35 38.45
L 34.35 38.55 34.4 38.55
Q 34.45 38.5 34.5 38.55
L 34.45 38.6 34.55 38.6
Q 34.6 38.7 34.55 38.7
L 34.55 38.75
Q 34.6 38.8 34.6 38.85
L 34.65 38.85
Q 34.7 38.85 34.7 38.95
L 34.8 39 34.75 39.05 34.8 39.05
Q 34.85 39 34.9 39 34.95 39.05 34.85 39.1
L 34.85 39.15 34.9 39.1
Q 35.05 39.1 34.95 39.2
L 35 39.25 35.05 39.25
Q 35.05 39.3 35.05 39.35
L 35.1 39.35 35.15 39.45 35.1 39.5 35.3 39.5 35.3 39.55
Q 35.35 39.55 35.35 39.6
L 35.45 39.6 35.45 39.65
Q 35.55 39.65 35.45 39.7
L 35.55 39.7
Q 35.6 39.65 35.65 39.65
L 35.65 39.6
Q 35.7 39.6 35.7 39.65
L 35.75 39.7 35.8 39.7
Q 35.95 39.6 35.85 39.7
L 35.9 39.7 35.9 39.65 35.95 39.65
Q 35.95 39.55 36.05 39.65
L 36.05 39.6 36.1 39.6 36.1 39.65 36.15 39.6
Q 36.15 39.55 36.2 39.6
L 36.25 39.6
Q 36.3 39.5 36.35 39.55 36.4 39.55 36.4 39.6
L 36.45 39.6
Q 36.45 39.55 36.45 39.5
L 36.5 39.5
Q 36.55 39.35 36.55 39.5
L 36.6 39.45 36.65 39.45 36.65 39.4
Q 36.7 39.35 36.7 39.4
L 36.8 39.35 36.8 39.3
Q 36.8 39.25 36.9 39.25 36.9 39.15 37 39.2
L 37.05 39.15 37.05 39.1
Q 37.1 39.1 37.15 39.05 37.15 39 37.2 39
L 37.25 39
Q 37.25 38.9 37.3 39
L 37.35 38.95
Q 37.35 38.9 37.35 38.85
L 37.4 38.85 37.4 38.8
Q 37.45 38.75 37.5 38.75 37.5 38.65 37.6 38.65 37.65 38.65 37.65 38.6 37.6 38.55 37.65 38.5
L 37.7 38.6 37.75 38.6
Q 37.65 38.5 37.7 38.5
L 37.85 38.45 37.85 38.4 37.8 38.45
Q 37.8 38.4 37.8 38.35
L 37.85 38.35
Q 37.9 38.35 37.9 38.3 37.85 38.25 37.85 38.2 37.9 38.1 37.95 38.15
L 38 38.2 38 38.15 38.05 38.15
Q 38.05 38.05 38.1 38
L 38.15 38 38.15 38.05 38.2 38
Q 38.25 38 38.25 37.95
L 38.25 37.85
Q 38.2 37.75 38.25 37.75
L 38.25 37.7
Q 38.25 37.665625 38.3 37.65 38.3 37.55 38.4 37.55
L 38.5 37.55 38.5 37.5 38.45 37.5 38.45 37.45 38.4 37.45 38.45 37.4 38.5 37.4 38.5 37.35 38.55 37.4 38.55 37.35 38.5 37.3
Q 38.4 37.15 38.45 37.15
L 38.5 37.1 38.5 37 38.4 36.9 38.35 36.9 38.4 36.85 38.45 36.85 38.45 36.8 38.35 36.8
Q 38.3 36.8 38.3 36.75
L 38.25 36.75
Q 38.3 36.7 38.25 36.65
L 38.25 36.7
Q 38.2 36.75 38.15 36.75
L 38.15 36.8 38.1 36.8
Q 38.05 36.8 38.05 36.85
L 38 36.85 38 36.9
Q 37.95 36.85 38 36.8
L 38 36.75 37.95 36.8 38 36.7 37.95 36.75 37.9 36.7 37.95 36.65
Q 38 36.55 38.1 36.6
L 38.1 36.55
Q 38.1 36.45 38.15 36.5
L 38.15 36.45 38.1 36.45 38.1 36.4 38 36.4 38 36.35 37.9 36.35 37.95 36.3 37.9 36.3 37.9 36.25 37.85 36.25 37.85 36.2 37.8 36.2 37.75 36.15 37.7 36.15 37.7 36.1 37.65 36.1
Q 37.65 36.05 37.65 36
L 37.55 36 37.5 35.95 37.55 35.9 37.55 35.8 37.5 35.8 37.5 35.7 37.4 35.7 37.4 35.65
Q 37.35 35.65 37.3 35.65
L 37.3 35.6 37.25 35.6 37.2 35.55 37.15 35.55 37.15 35.3 37.05 35.3 37.05 35.35 37 35.35 37 35.3 36.95 35.3 36.95 35.25 36.9 35.25 36.9 35.3 36.85 35.3 36.85 35.15 36.8 35.2 36.8 35.15
Q 36.85 35.1 36.85 35.05
L 36.8 35.1 36.8 35.05 36.7 35.05 36.65 35
Q 36.6 34.95 36.6 34.9
L 36.55 34.9 36.55 34.8 36.4 34.85 36.4 34.75 36.35 34.75 36.4 34.7
Q 36.346875 34.75 36.3 34.75 36.2 34.7 36.1 34.75
L 36.05 34.75 36.1 34.7
Q 36.05 34.65 36 34.6
L 35.95 34.6
Q 35.95 34.5 35.9 34.4
L 35.9 34.35
Q 36 34.3 36 34.35
L 36.05 34.3 36 34.3 36 34.25 35.95 34.25 35.9 34.3
Q 35.85 34.25 35.85 34.2
L 35.8 34.15 35.65 34.15
Q 35.65 34.1 35.65 34.05
L 35.55 34.05
Q 35.55 34 35.6 34
L 35.65 34 35.6 33.95 35.5 33.95 35.5 33.85 35.45 33.9 35.45 33.85 35.5 33.8 35.4 33.8
Q 35.35 33.75 35.35 33.7
L 35.3 33.65 35.3 33.6 35.15 33.6 35.15 33.55 35.05 33.6 35.05 33.45 35 33.45 35 33.4 34.85 33.35 34.85 33.3 34.9 33.3 34.9 33.25 34.8 33.25 34.8 33.2 34.75 33.25 34.75 33.2 34.7 33.2 34.7 33.15 34.65 33.15
Q 34.6 33.1 34.6 33.05
L 34.55 33.05 34.55 33 34.5 33 34.5 32.95 34.45 32.95 34.4 32.8 34.35 32.8 34.4 32.85
Q 34.35 32.85 34.3 32.85
L 34.3 32.8 34.25 32.8 34.25 32.75 34.2 32.75 34.2 32.8
Q 34.15 32.7 34.2 32.7
L 34.2 32.55 33.95 32.55 33.95 32.4 33.85 32.4 33.85 32.35 33.8 32.35 33.8 32.3 33.7 32.3 33.65 32.25 33.7 32.2 33.6 32.15
Q 33.5515625 32.053125 33.45 32.05
L 33.5 32.05 33.5 32 33.45 32 33.45 31.95
Q 33.4484375 32.0015625 33.4 32.05
L 33.35 31.95
Q 33.35 31.9 33.25 31.9
L 33.25 31.85 33.2 31.85 33.25 31.8 33.15 31.75 33.15 31.7 33.1 31.7 33.05 31.75 33.05 31.7 33 31.7
Q 32.95 31.65 32.85 31.6
L 32.85 31.5 32.8 31.5 32.75 31.45 32.65 31.45 32.65 31.4 32.7 31.4 32.7 31.35 32.6 31.35 32.6 31.3 32.65 31.3 32.65 31.25 32.6 31.25 32.55 31.2 32.55 31.15 32.5 31.15
Q 32.45 31.15 32.45 31.1
L 32.4 31.1 32.4 31.15 32.35 31.2 32.35 31.1 32.4 31.05 32.45 30.95 32.35 31 32.35 31.05 32.3 31.05 32.35 31 32.3 30.95
Q 32.25 31 32.2 31
L 32.2 30.9 32.15 30.9 32.1 30.85 32.1 30.8 32 30.85
Q 32 30.8 31.95 30.8
L 31.95 30.75 31.85 30.7 31.8 30.65 31.85 30.65 31.85 30.6 31.8 30.6 31.85 30.55 31.8 30.55 31.8 30.5 31.75 30.5
Q 31.75 30.55 31.7 30.55
L 31.7 30.45 31.6 30.45 31.55 30.4 31.5 30.4 31.5 30.35 31.4 30.35 31.4 30.3 31.45 30.25 31.35 30.2 31.25 30.2
Q 31.25 30.15 31.3 30.15
L 31.3 30.1 31.25 30.1 31.25 30.05 31.2 30.05
Q 31.2 30.1 31.15 30.1
L 31.15 30 31.1 30 31.1 29.9 31.05 29.85 31 29.85 31 29.95 30.9 29.85 31 29.85 31 29.8 30.95 29.8
Q 30.9 29.8 30.85 29.8
L 30.85 29.75 30.75 29.75
Q 30.798828125 29.748828125 30.75 29.7
L 30.75 29.6 30.7 29.6 30.65 29.55 30.6 29.6 30.6 29.55 30.5 29.5 30.5 29.45 30.4 29.4 30.45 29.35 30.4 29.35 30.4 29.25 30.35 29.25
Q 30.3 29.35 30.25 29.35
L 30.25 29.25 30.15 29.25 30.15 29.15 30.1 29.15 30.1 29.1 30.05 29.1 30.05 29.05 30 29.05 30 29 29.9 29
Q 29.9 28.95 29.85 28.95
L 29.85 28.9
Q 29.8 28.85 29.75 28.8 29.7 28.75 29.75 28.75
L 29.75 28.7 29.7 28.7
Q 29.65 28.7 29.65 28.75 29.6 28.75 29.55 28.75 29.55 28.7 29.6 28.65
L 29.6 28.6 29.55 28.6 29.5 28.65 29.5 28.6 29.45 28.6 29.45 28.5 29.35 28.5 29.35 28.45 29.3 28.45
Q 29.3 28.4 29.3 28.35
L 29.25 28.35 29.25 28.4
Q 29.248828125 28.35 29.2 28.35
L 29.15 28.25 29.1 28.25 29.1 28.2
Q 29.05 28.2 29.05 28.25
L 29 28.25 29 28.15 28.95 28.2 28.95 28.15 28.9 28.15 28.95 28.1 28.95 28.05 29 28 28.8 28 28.75 27.9 28.75 27.85 28.65 27.85 28.65 27.75 28.6 27.8 28.6 27.75 28.55 27.75 28.5 27.7
Q 28.45 27.7 28.5 27.65
L 28.5 27.6 28.45 27.6 28.45 27.55 28.4 27.55 28.4 27.5 28.35 27.5 28.35 27.45 28.3 27.4 28.15 27.4 28.15 27.35 28.05 27.35 28.05 27.3 28 27.3 28 27.15 27.85 27.15
Q 27.85 27.1 27.8 27.1
L 27.8 27.05
Q 27.8 27 27.75 27.05
L 27.75 26.95 27.7 26.95 27.7 26.9 27.55 26.9 27.6 26.85
Q 27.55390625 26.8943359375 27.5 26.9 27.55 26.89375 27.55 26.85
L 27.55 26.75 27.4 26.75 27.4 26.65 27.3 26.65
Q 27.25 26.65 27.25 26.6
L 27.25 26.5 27.15 26.5 27.2 26.4 27.15 26.4 27.15 26.45 27.05 26.5 27.1 26.4 27.05 26.35 27 26.35 27 26.3 27.05 26.3 27.05 26.25 26.95 26.25 26.95 26.2 26.85 26.25 26.85 26.3 26.8 26.3 26.8 26.25
Q 26.8 26.15 26.65 26.05 26.7 26.05 26.65 26
L 26.6 25.95
Q 26.55 25.95 26.55 25.9
L 26.55 25.85 26.5 25.85
Q 26.5 25.9 26.45 25.9 26.4 25.8 26.35 25.7
L 26.35 25.65 26.2 25.65
Q 26.25 25.6 26.25 25.55
L 26.2 25.5 26.05 25.5
Q 26.1 25.45 26.05 25.45 26 25.45 25.95 25.45
L 25.95 25.35
Q 25.95 25.3 25.9 25.3
L 25.8 25.3
Q 25.8 25.25 25.8 25.2
L 25.75 25.2 25.75 25.25 25.7 25.2
Q 25.65 25.1 25.75 25.2
L 25.75 25.1 25.7 25.05 25.65 25.05 25.6 24.9 25.55 24.9 25.55 24.85 25.5 24.9 25.45 24.9 25.45 24.75 25.3 24.75 25.3 24.8
Q 25.25 24.65 25.3 24.7
L 25.3 24.65 25.25 24.6 25.25 24.55 25.1 24.55
Q 25.05 24.55 25.05 24.5
L 25.05 24.45 24.9 24.45
Q 24.95 24.448828125 24.95 24.4
L 24.95 24.3 24.8 24.3 24.8 24.2 24.75 24.2
Q 24.7 24.2 24.7 24.15
L 24.65 24.15
Q 24.6 24.1 24.6 24.05
L 24.55 24.05
Q 24.55 24 24.5 24
L 24.55 23.95 24.55 23.9
Q 24.548828125 23.95 24.5 23.95
L 24.5 23.9 24.45 23.95 24.4 23.9 24.45 23.9 24.45 23.85 24.4 23.85 24.4 23.8
Q 24.398828125 23.848828125 24.35 23.8 24.25 23.75 24.2 23.65
L 24.2 23.6 24.15 23.55
Q 24.1 23.6 24.15 23.65
L 24.1 23.65 24.1 23.6 24.05 23.6 24.1 23.5 24.05 23.55 24.05 23.5 24 23.5 23.95 23.45 23.95 23.35 23.85 23.3 23.8 23.3 23.8 23.2 23.75 23.25
Q 23.75 23.2 23.7 23.2
L 23.7 23.15 23.65 23.15
Q 23.6 23.1 23.65 23.05
L 23.6 23 23.6 22.95 23.55 22.95 23.55 22.9
Q 23.5 22.9 23.45 22.85
L 23.45 22.8 23.25 22.8 23.3 22.7 23.2 22.7
Q 23.2 22.65 23.2 22.6
L 23.2 22.55 23.1 22.55
Q 23.1 22.6 23.05 22.55
L 23 22.55 23 22.5 22.95 22.5 22.95 22.4 22.9 22.35 22.85 22.35 22.85 22.3 22.8 22.3 22.75 22.2 22.7 22.25 22.7 22.2 22.6 22.2
Q 22.6 22.15 22.6 22.1
L 22.45 21.95
Q 22.35 21.95 22.45 21.9
L 22.45 21.7 22.4 21.75
Q 22.4 21.8 22.35 21.8
M 20.8 20.2
L 20.8 20.25 20.85 20.2 20.8 20.2
M 20.25 19.7
L 20.25 19.65 20.2 19.65 20.2 19.6 20.1 19.6 20.1 19.55 20.15 19.55 20.1 19.5 20 19.5 20 19.45 19.9 19.45
Q 19.95 19.4 19.95 19.35 19.95 19.3 19.9 19.3 19.884375 19.35 19.85 19.35 19.8 19.25 19.75 19.3
L 19.75 19.15 19.65 19.15 19.65 19.1 19.6 19.1
Q 19.5 19.1 19.55 19.05
L 19.6 19 19.55 19 19.45 18.95 19.5 18.9 19.5 18.85 19.45 18.8 19.45 18.85 19.4 18.85 19.4 18.8 19.35 18.8 19.35 18.7 19.3 18.7 19.3 18.65 19.25 18.7 19.25 18.65 19.1 18.65 19.15 18.6 19.1 18.6 19.1 18.5 19 18.5
Q 19.05 18.4 19 18.4
L 18.95 18.4
Q 18.9 18.4 18.9 18.35
L 18.9 18.3 18.85 18.3 18.85 18.25 18.75 18.25 18.8 18.15 18.75 18.15 18.7 18.05 18.65 18.05 18.65 18.1
Q 18.6484375 18.0484375 18.6 18
L 18.55 18 18.55 17.95 18.5 17.95 18.5 17.9 18.4 17.9 18.35 17.85
Q 18.35 17.8 18.4 17.75
L 18.25 17.75 18.3 17.7 18.3 17.65 18.25 17.55 18.15 17.55
Q 18.1515625 17.60078125 18.25 17.65
L 18.15 17.65 18.15 17.55 18.1 17.55
Q 18.1 17.5 18.05 17.5
L 18.05 17.45
Q 18 17.4 17.95 17.4
L 17.9 17.4
Q 17.95 17.35 17.9 17.35
L 17.9 17.3 17.85 17.3 17.85 17.2 17.9 17.15 17.75 17.15
Q 17.75 17.2 17.7 17.2 17.7 17.1 17.65 17.05
L 17.65 17 17.55 17 17.55 16.95 17.6 16.9 17.5 16.9 17.5 16.95 17.45 16.95 17.45 16.85 17.4 16.85 17.4 16.8 17.35 16.8
Q 17.3 16.8 17.3 16.7
L 17.3 16.65 17.2 16.65 17.2 16.6 17.15 16.65
Q 17.15 16.6 17.15 16.55
L 17.15 16.45 17 16.5
Q 17.05 16.45 17.05 16.4
L 16.9 16.4 16.9 16.3 16.85 16.25 16.8 16.15 16.65 16.15 16.65 16
Q 16.65 15.95 16.55 15.9
L 16.55 15.95
Q 16.548828125 15.9 16.5 15.9
L 16.5 15.85 16.4 15.8
Q 16.3 15.75 16.35 15.65
L 16.3 15.65 16.3 15.6 16.2 15.6 16.2 15.55 16.15 15.55 16.15 15.45 16.05 15.45 15.95 15.4 16 15.3 15.95 15.3
Q 15.9 15.35 15.85 15.35 15.85 15.315625 15.9 15.3 15.85 15.25 15.85 15.2
L 15.8 15.25 15.8 15.2 15.9 15.15 15.9 15.1 15.8 15.15
Q 15.75 15.15 15.7 15.15
L 15.7 15.1 15.65 15.1 15.65 15.05 15.7 15.05 15.7 15 15.65 15
Q 15.6 15 15.55 15 15.55 14.95 15.6 14.95
L 15.6 14.9 15.55 14.85 15.55 14.9
Q 15.5 14.95 15.45 14.95
L 15.45 14.8 15.4 14.8 15.4 14.75 15.3 14.75
Q 15.3 14.7 15.2 14.65 15.2 14.6 15.2 14.55
L 15.2 14.5
Q 15.15 14.55 15.1 14.55 15.05 14.5 15.1 14.45
L 15.05 14.45 15.05 14.4 15 14.4 15 14.35 15.05 14.3 14.85 14.3
Q 14.8 14.25 14.8 14.2 14.75 14.2 14.75 14.15
L 14.8 14.05 14.8 14 14.75 14.05
Q 14.701171875 14.05 14.7 14.1
L 14.7 14.05 14.65 13.95 14.6 13.95 14.6 13.9
Q 14.598828125 13.95 14.55 13.95
L 14.55 13.85 14.5 13.85 14.5 13.8 14.35 13.8 14.35 13.7 14.4 13.65 14.35 13.65 14.35 13.6 14.3 13.65 14.2 13.6
Q 14.2 13.55 14.15 13.45
L 14.1 13.4 14.05 13.45 14 13.4 14 13.35 13.95 13.35
Q 13.934375 13.315625 13.9 13.35
L 13.95 13.2 13.8 13.2 13.7 13.15 13.7 13.1 13.75 13.05 13.65 13.05 13.65 12.95 13.6 13.05
Q 13.6 12.95 13.5 12.95
L 13.55 12.85 13.45 12.85 13.45 12.65 13.4 12.65 13.4 12.7 13.35 12.7 13.3 12.65
Q 13.25 12.65 13.2 12.65 13.2 12.6 13.15 12.55
L 13.2 12.55 13.2 12.5 13.15 12.5 13.15 12.45 13.1 12.45 13.05 12.35
Q 13 12.35 13.05 12.4
L 13 12.45 12.95 12.4 12.95 12.35
Q 12.9 12.3 12.9 12.25
L 12.95 12.25 12.95 12.2 12.85 12.2 12.85 12.15 12.8 12.05 12.7 12.05 12.75 11.95 12.7 11.95 12.7 12 12.65 12.1
Q 12.7 11.95 12.65 12
L 12.6 12 12.6 11.95
Q 12.55 11.95 12.5 11.95 12.5 11.9 12.55 11.9
L 12.55 11.85 12.5 11.85
Q 12.5 11.8 12.5 11.75
L 12.5 11.7 12.45 11.7
Q 12.45 11.75 12.4 11.7
L 12.35 11.7 12.35 11.55 12.25 11.65 12.25 11.5 12.2 11.5 12.15 11.55
Q 12.1 11.45 12 11.35
L 11.9 11.35
Q 11.9 11.25 11.85 11.25
L 11.85 11.2 11.9 11.2 11.9 11.15 11.85 11.15 11.85 11.1
Q 11.85 11.05 11.8 11.05
L 11.8 11.1 11.75 11.1 11.75 11
Q 11.7 11 11.65 11
L 11.65 10.95 11.6 10.95 11.6 11
Q 11.55 11 11.5 10.95 11.5 10.9 11.55 10.85
L 11.6 10.8 11.5 10.75 11.4 10.75 11.4 10.7 11.35 10.7 11.35 10.6 11.25 10.6
Q 11.1533203125 10.5517578125 11.25 10.55
L 11.2 10.55 11.2 10.5 11.15 10.5
Q 11.1 10.45 11.1 10.4
L 11.1 10.35 11.05 10.35
Q 11.05 10.3 11 10.3 10.95 10.25 11 10.2
L 10.85 10.25
Q 10.85 10.2 10.9 10.2
L 10.85 10.1 10.75 10.1 10.75 10.05
Q 10.75 10 10.8 10 10.85 10 10.85 9.95
L 10.8 9.95 10.8 9.9 10.85 9.9
Q 10.85 9.85 10.9 9.75
L 10.9 9.65 10.95 9.65 10.95 9.55 10.9 9.55 10.85 9.5 10.75 9.55 10.8 9.5 10.75 9.5 10.75 9.35 10.65 9.35 10.65 9.3 10.6 9.3 10.5 9.25 10.55 9.25 10.55 9.2 10.5 9.2
Q 10.5 9.25 10.45 9.25 10.4 9.2 10.45 9.2 10.45 9.15 10.45 9.1
L 10.5 9.1 10.45 9 10.35 9 10.35 8.9 10.25 8.9 10.2 8.85
Q 10.15 8.8 10.2 8.8
L 10.2 8.75 10.15 8.75
Q 10.0533203125 8.7017578125 10.15 8.7
L 10.1 8.7
Q 10.15 8.65 10.15 8.6
L 10.2 8.6
Q 10.2 8.55 10.15 8.55 10.15 8.5 10.2 8.5
L 10.25 8.5 10.25 8.4 10.2 8.4
Q 10.25 8.35 10.25 8.3 10.3 8.25 10.35 8.25
L 10.35 8.2 10.4 8.2 10.35 8.15 10.3 8.15 10.3 8.1
Q 10.35 8.05 10.4 8
L 10.4 7.95 10.5 7.95 10.5 7.9 10.6 7.9
Q 10.55 7.85 10.6 7.8
L 10.65 7.8 10.65 7.7 10.75 7.7 10.75 7.65 10.85 7.65 10.85 7.45 10.9 7.5 10.95 7.45 10.95 7.35
Q 10.95 7.3 11 7.35
L 11 7.3
Q 10.95 7.15 11.1 7.2 11.1 7.24375 11.1 7.3 11.1033203125 7.2 11.15 7.2
L 11.15 7.15
Q 11.2 7.1 11.25 7.1
L 11.25 7.05
Q 11.25 7 11.3 7
L 11.3 7.05 11.35 7.05 11.35 6.95 11.25 6.95 11.35 6.9 11.35 6.85 11.4 6.85
Q 11.4 6.8 11.5 6.8 11.55 6.8 11.5 6.7
L 11.5 6.65 11.55 6.65
Q 11.6 6.65 11.55 6.6
L 11.6 6.6
Q 11.6 6.5 11.75 6.55
L 11.75 6.5
Q 11.8 6.45 11.85 6.45
L 11.9 6.4 11.85 6.35
Q 11.85 6.25 11.95 6.3 12 6.15 12.05 6.2
L 12.1 6.2 12.1 6.15 12.2 6.15 12.35 6 12.35 5.9
Q 12.35 5.8 12.4 5.85
L 12.5 5.85 12.5 5.8
Q 12.5 5.75 12.55 5.8
L 12.6 5.8 12.6 5.7 12.55 5.75
Q 12.5 5.65 12.55 5.65
L 12.6 5.65 12.7 5.7 12.65 5.65 12.7 5.65 12.75 5.55 12.8 5.55
Q 12.75 5.5 12.85 5.45
L 12.85 5.5 12.95 5.5 12.95 5.3 13.05 5.3
Q 13.05 5.25 13.1 5.25 13.15 5.2 13.2 5.2
L 13.3 5.2 13.3 5.15 13.4 5.15 13.45 5.1 13.45 4.95
Q 13.4 4.85 13.5 4.95
L 13.55 4.95
Q 13.55 4.85 13.6 4.95
L 13.6 4.85
Q 13.65 4.8 13.7 4.75
L 13.7 4.8
Q 13.75 4.8 13.8 4.8
L 13.85 4.8 13.85 4.75
Q 13.85 4.7 13.9 4.7 13.85 4.6 13.95 4.65
L 13.95 4.7 14.05 4.7 14.05 4.65 14.1 4.65 14.05 4.55 14.1 4.55 14.1 4.5 14.15 4.5 14.15 4.45
Q 14.2 4.45 14.2 4.5
L 14.25 4.45 14.25 4.4
Q 14.25 4.3 14.3 4.35
L 14.3 4.4 14.35 4.4 14.35 4.3
Q 14.4 4.3 14.45 4.25
L 14.5 4.25
Q 14.5 4.15 14.6 4.1
L 14.6 4.15 14.65 4.15 14.65 4.2 14.7 4.15 14.7 4.1 14.75 4.05 14.8 4.05
Q 14.8 4 14.85 4
L 14.95 4 14.95 3.95 15 3.95 15 3.9 14.95 3.9 14.95 3.85
Q 15 3.8 15.05 3.8
L 15.15 3.8 15.15 3.75 15.2 3.8 15.2 3.7
Q 15.2 3.65 15.25 3.65
L 15.3 3.65 15.3 3.6 15.4 3.55 15.5 3.55 15.5 3.5 15.55 3.5
Q 15.5 3.45 15.45 3.45 15.45 3.4 15.55 3.4 15.55 3.35 15.6 3.4
L 15.55 3.45 15.65 3.4 15.7 3.35
Q 15.7 3.2 15.8 3.3 15.8 3.25 15.85 3.25
L 15.85 3.2 15.9 3.2
Q 15.9 3.1 16.05 3.15
L 16.05 3.2 16.1 3.15 16.05 3.1 16.1 3.1
Q 16.1 3.05 16.1 3
L 16.15 3 16.15 3.05 16.2 3.05 16.2 2.95
Q 16.25 2.9 16.3 2.9
L 16.35 2.9 16.35 2.85 16.5 2.85 16.45 2.75 16.5 2.7
Q 16.5 2.65 16.55 2.7
L 16.65 2.7 16.65 2.6 16.75 2.6
Q 16.796875 2.50625 16.8 2.6
L 16.8 2.45
Q 16.85 2.45 16.85 2.5
L 16.9 2.5 16.95 2.45 17.05 2.4 17.05 2.35
Q 17.05 2.25 17.1 2.35
L 17.15 2.35 17.15 2.3 17.2 2.3 17.2 2.25
Q 17.15 2.2 17.25 2.2
L 17.3 2.2
Q 17.35 2.15 17.4 2.2
L 17.4 2.15 17.45 2.15 17.4 2.1 17.4 2.05
Q 17.5 2 17.5 2.1
L 17.55 2.1 17.55 2.05
Q 17.55 1.95 17.6 1.95
L 17.7 1.95 17.7 1.9 17.65 1.85
Q 17.65 1.8 17.7 1.85
L 17.8 1.85 17.8 1.8 17.85 1.8
Q 17.8 1.65 17.9 1.65
L 18.1 1.65 18.15 1.6 18.15 1.55
Q 18.15 1.5 18.2 1.45
L 18.25 1.45 18.3 1.4
Q 18.3 1.3 18.4 1.3
L 18.5 1.3 18.5 1.25
Q 18.55 1.1 18.55 1.2
L 18.55 1.25 18.6 1.25 18.65 1.1 18.7 1.1 18.7 1.15
Q 18.75 1.15 18.75 1.1
L 18.75 1.05
Q 18.7 0.95 18.8 0.9
L 18.8 0.95
Q 18.85 0.8 18.9 0.85
L 18.95 0.85
Q 19 0.75 19.05 0.75
L 19.05 0.8
Q 19.1 0.8 19.1 0.75
L 19.15 0.7
Q 19.1 0.6 19.15 0.6 19.15 0.55 19.2 0.55 19.2 0.5 19.25 0.5 19.3 0.45 19.35 0.5
L 19.45 0.5 19.45 0.4 19.5 0.4 19.5 0.35 19.3 0.35 19.25 0.25 19.2 0.3 19.25 0.4
Q 19.2 0.4 19.15 0.4
L 19.15 0.45 19.1 0.5 19.1 0.45 18.95 0.5 19 0.5 19 0.55
Q 18.95 0.6 18.85 0.55
L 18.85 0.5 18.8 0.5 18.8 0.6 18.75 0.6
Q 18.7 0.6 18.65 0.65
L 18.6 0.65
Q 18.55 0.65 18.5 0.65
L 18.5 0.7 18.55 0.7
Q 18.65 0.75 18.55 0.75
L 18.45 0.75
Q 18.4 0.8 18.35 0.8
L 18.35 0.85 18.15 0.85 18.1 0.9 18.1 0.95
Q 18.1 1 18.05 1 18 1 17.95 1.05
L 17.95 1 17.9 1
Q 17.9 1.05 17.85 1.1 17.85 1.05 17.8 1.05
L 17.75 1.1
Q 17.7 1.1 17.65 1.1
L 17.65 1.15 17.6 1.2 17.55 1.2 17.55 1.25 17.5 1.3 17.5 1.25 17.4 1.25
Q 17.35 1.25 17.3 1.25
L 17.3 1.35 17.25 1.4 17.25 1.35 17.15 1.35 17.15 1.4
Q 17.25 1.45 17.15 1.45 17.15 1.499609375 17.05 1.5 17.09921875 1.50078125 17.05 1.55
L 17.05 1.6 17 1.6 17 1.55 16.95 1.6 16.95 1.55 16.85 1.55 16.85 1.65
Q 16.8 1.7 16.75 1.65
L 16.8 1.6 16.7 1.6 16.65 1.65
Q 16.75 1.65 16.65 1.7
L 16.6 1.7 16.55 1.75 16.55 1.85
Q 16.548828125 1.8 16.5 1.8
L 16.45 1.8
Q 16.45 1.85 16.4 1.85
L 16.35 1.85
Q 16.4466796875 1.8517578125 16.35 1.9
L 16.3 1.85 16.25 1.85 16.25 1.9 16.15 1.9 16.2 1.95
Q 16.2 2.1 16.15 2.05
L 16.1 2.05 16.1 2 16.05 2.05
Q 16.034375 2.084375 16 2.05
L 15.95 2 15.95 2.1
Q 16 2.2 15.95 2.2
L 15.85 2.2 15.85 2.1 15.8 2.1 15.8 2.15 15.75 2.2
Q 15.85 2.25 15.8 2.3
L 15.75 2.25
Q 15.7015625 2.25 15.7 2.2
L 15.7 2.35
Q 15.65 2.35 15.6 2.35
L 15.45 2.35 15.45 2.4
Q 15.45 2.4484375 15.45 2.5 15.4484375 2.45 15.4 2.45
L 15.3 2.45 15.3 2.5
Q 15.25 2.55 15.2 2.55
L 15.15 2.6 15.2 2.6
Q 15.2 2.65 15.1 2.6
L 15.1 2.65
Q 15.05 2.6 15.05 2.65
L 15 2.7 15 2.65 14.95 2.7 14.8 2.7 14.8 2.75
Q 14.8 2.85 14.75 2.8
L 14.75 2.85 14.7 2.8 14.7 2.85
Q 14.8 2.9 14.7 2.9
L 14.6 2.95
Q 14.55 2.95 14.5 2.95
L 14.5 3 14.4 3.05 14.4 3.1 14.35 3.1
Q 14.4466796875 3.1017578125 14.35 3.15
L 14.35 3.2
Q 14.3 3.15 14.25 3.15
L 14.25 3.2 14.2 3.2 14.2 3.35
Q 14.15 3.3 14.15 3.2
L 14.1 3.25
Q 14.0966796875 3.35 14 3.35
L 13.95 3.35
Q 14.05 3.4 13.95 3.4
L 13.85 3.35 13.85 3.4
Q 13.9 3.4 13.85 3.45 13.9 3.5 13.85 3.5 13.75 3.45 13.7 3.5
L 13.65 3.5 13.65 3.55 13.7 3.55
Q 13.6484375 3.5515625 13.6 3.6
L 13.5 3.65
Q 13.451171875 3.65 13.45 3.6
L 13.45 3.7 13.5 3.7
Q 13.55 3.8 13.45 3.75 13.4 3.8 13.35 3.8
L 13.25 3.9 13.3 3.8 13.2 3.8 13.2 3.9 13.2 3.95 13.15 3.95 13.2 3.9 13.1 3.9 13.1 3.95
Q 13.15 4 13.1 4
L 13.1 4.05
Q 13.05 4.05 13 4
L 12.95 4.05
Q 12.95 4.1 12.9 4.1
L 12.95 4.15
Q 12.9 4.15 12.85 4.15
L 12.7 4.15 12.7 4.2
Q 12.7 4.25 12.65 4.3
L 12.6 4.25 12.6 4.35
Q 12.55 4.35 12.5 4.35
L 12.4 4.35 12.4 4.45 12.35 4.5 12.35 4.55 12.25 4.55 12.25 4.6
Q 12.3 4.65 12.25 4.7 12.2 4.65 12.2 4.6
L 12.2 4.55 12.1 4.55 12.1 4.6
Q 12.1 4.65 12.1 4.7
L 12 4.7 12 4.75 12.05 4.75 12 4.8 12 4.75 11.95 4.75 11.95 4.8
Q 11.9 4.8 11.85 4.8
L 11.8 4.85 11.75 4.85 11.8 4.95 11.75 4.9 11.75 4.95 11.7 4.95 11.7 5
Q 11.6 5 11.6 5.05 11.6 5.15 11.55 5.15
L 11.55 5.2
Q 11.6 5.2 11.5 5.3
L 11.5 5.25
Q 11.45 5.3 11.4 5.3
L 11.45 5.25 11.4 5.25 11.35 5.3
Q 11.35 5.4 11.25 5.35
L 11.25 5.4
Q 11.248828125 5.35 11.2 5.35
L 11.2 5.45 11.25 5.45
Q 11.25 5.5 11.1 5.45
L 11.05 5.5 11 5.5 11 5.55
Q 11 5.6 10.9 5.55
L 10.85 5.55 10.9 5.65 10.75 5.65 10.75 5.7 10.7 5.75
Q 10.7 5.798828125 10.65 5.8
L 10.65 5.85 10.55 5.85 10.55 5.9
Q 10.501171875 5.9 10.5 5.85
L 10.5 5.9 10.45 5.9 10.5 6 10.35 6.05 10.4 6.05 10.4 6.1 10.35 6.1 10.3 6.15 10.15 6.15 10.15 6.2 10.2 6.2
Q 10.25 6.25 10.2 6.3
L 10.05 6.3 10.1 6.4 10.15 6.4
Q 10.2 6.4 10.25 6.4
L 10.25 6.35
Q 10.3 6.3 10.3 6.4
L 10.35 6.4
Q 10.35 6.45 10.4 6.5
L 10.4 6.55
Q 10.5 6.65 10.4 6.75
L 10.4 6.8 10.35 6.8 10.35 6.75 10.25 6.75
Q 10.25 6.65 10.2 6.55
L 10.15 6.6
Q 10.1 6.55 10.05 6.55
L 10 6.55
Q 10.1 6.45 10 6.4
L 10 6.45 9.9 6.45
Q 9.95 6.55 9.9 6.55
L 9.85 6.6 9.75 6.6 9.75 6.65 9.8 6.65
Q 9.85 6.6 9.9 6.65 9.95 6.8 9.9 6.85
L 10 6.8 10.15 6.8
Q 10.2 7 10.15 7
L 10.1 7
Q 10 7 9.95 7.05
L 9.85 7.05 9.9 7
Q 9.85 7 9.85 6.95
L 9.75 6.95 9.75 6.9 9.7 6.85
Q 9.75 6.85 9.7 6.8
L 9.65 6.8
Q 9.65 6.9 9.55 6.9
L 9.55 6.85 9.45 6.85 9.45 6.9 9.4 6.9 9.45 7 9.4 7.05 9.4 7
Q 9.35 7.05 9.3 7.05
L 9.3 7.1 9.2 7.05 9.2 7.1 9.25 7.1 9.25 7.15 9.2 7.15 9.2 7.2
Q 9.2 7.25 9.15 7.25
L 9.15 7.3 9.1 7.3 9.1 7.25 9.05 7.25 9.05 7.3 9 7.35 8.95 7.35 8.95 7.5
Q 8.9 7.55 8.8 7.55
L 8.8 7.6 8.7 7.6 8.7 7.65 8.65 7.65 8.65 7.6 8.6 7.6 8.6 7.55 8.55 7.55 8.45 7.6
Q 8.5 7.5 8.55 7.5
L 8.55 7.45 8.5 7.45 8.5 7.4 8.35 7.4 8.35 7.35 8.3 7.35 8.3 7.3 8.2 7.3
Q 8.15 7.35 8.1 7.4
L 8.05 7.4
Q 8.15 7.5 8.1 7.5
L 8.05 7.45 8.05 7.4 7.9 7.4 7.9 7.45
Q 7.95 7.5 7.9 7.5 7.9 7.55 7.85 7.6
L 7.85 7.55 7.8 7.55 7.8 7.65 7.75 7.65
Q 7.8 7.7 7.75 7.75
L 7.75 7.7 7.7 7.7 7.7 7.75 7.55 7.75 7.55 7.85 7.6 7.8
Q 7.65 7.9 7.6 7.9
L 7.55 7.85 7.55 7.9
Q 7.55 7.95 7.45 7.95
L 7.5 7.9 7.45 7.9 7.4 8
Q 7.4 8.05 7.35 8.05
L 7.3 8.05 7.3 8.2 7.25 8.2 7.15 8.15 7.15 8.25
Q 7.165625 8.215625 7.2 8.25
L 7.15 8.3 7.15 8.25 7.1 8.25 7.05 8.3 7.1 8.3
Q 7.05 8.45 6.95 8.5
L 6.95 8.45 6.9 8.45 6.9 8.5
Q 6.95 8.6 6.9 8.6 6.85 8.65 6.8 8.65
L 6.75 8.65
Q 6.75 8.7 6.7 8.7
L 6.7 8.75
Q 6.7 8.8466796875 6.6 8.85
L 6.65 8.85
Q 6.65 8.9 6.55 8.9 6.55 8.95 6.5 8.95
L 6.45 9 6.4 9 6.35 8.95 6.35 9 6.3 9 6.35 9.05
Q 6.45 9 6.45 9.05 6.5 9.1 6.45 9.15
L 6.25 9.15
Q 6.3 9.2 6.25 9.2
L 6.2 9.25
Q 6.2 9.3 6.15 9.3
L 6.15 9.35 6.05 9.35 6.05 9.4 6.1 9.4
Q 6.15 9.45 6.05 9.45
L 6.05 9.5
Q 6.05 9.55 6.05 9.6
L 6 9.6 5.9 9.7
Q 5.9 9.75 5.85 9.75 5.85 9.8 5.85 9.85
L 5.9 9.85
Q 5.95 9.85 5.9 9.9
L 5.85 9.9 5.9 9.95 5.9 10 6.15 10 6.15 10.1 6.2 10.1 6.2 10.25
Q 6.15 10.4 6.05 10.4 6.05 10.45 6.05 10.5
L 5.85 10.5 5.8 10.6 5.8 10.65
Q 5.85 10.7 5.75 10.75
L 5.55 10.75 5.6 10.8 5.7 10.8
Q 5.7 10.9 5.65 10.9
L 5.6 10.95 5.6 10.85 5.55 10.85 5.55 10.95 5.5 10.95 5.5 11
Q 5.55 11.1 5.45 11.1
L 5.45 11.2 5.35 11.2
Q 5.4 11.3 5.3 11.35
L 5.3 11.3
Q 5.25 11.35 5.2 11.35 5.2 11.4 5.15 11.35
L 5.15 11.4 5.2 11.45 5.2 11.4 5.25 11.4
Q 5.25 11.45 5.2 11.45
L 5.1 11.45 5.1 11.55
Q 5.15 11.6 5.1 11.6
L 5.05 11.6
Q 5 11.6 4.95 11.65
L 4.95 11.7 5 11.65
Q 5.05 11.7 4.95 11.8
L 5 11.85 4.95 11.85
Q 4.9 11.9 4.85 11.9
L 4.85 11.95 4.75 11.9
Q 4.75 11.95 4.7 11.95
L 4.7 12 4.75 11.95
Q 4.85 12.05 4.7 12.1 4.85 12.15 4.7 12.15 4.75 12.2 4.7 12.2
L 4.65 12.25
Q 4.6 12.35 4.55 12.35
L 4.55 12.4
Q 4.5 12.4 4.45 12.45
L 4.5 12.45
Q 4.5 12.55 4.45 12.6
L 4.35 12.6 4.4 12.65 4.4 12.7 4.35 12.65 4.35 12.7
Q 4.35 12.75 4.3 12.75 4.25 12.8 4.2 12.8
L 4.15 12.85 4.15 12.9 4.2 12.9
Q 4.25 12.9 4.2 12.95
L 4.1 12.95 4.1 13
Q 4.15 13.05 4.1 13.05
L 4.05 13.05 4 13.1 4.05 13.15 4.1 13.15
Q 4.1 13.2 4.05 13.2
L 3.95 13.2 3.95 13.3 3.9 13.3
Q 3.95 13.35 3.9 13.35 3.85 13.4 3.9 13.45 3.95 13.5 3.85 13.5
L 3.85 13.55
Q 3.85 13.6 3.7 13.65
L 3.75 13.55 3.7 13.55 3.7 13.6 3.65 13.7 3.7 13.7
Q 3.75 13.7 3.7 13.75
L 3.65 13.8 3.6 13.8 3.6 13.85
Q 3.65 13.9 3.6 13.9
L 3.6 13.95 3.5 13.95 3.55 14 3.5 14.05
Q 3.45 14.1 3.45 14.2
L 3.4 14.2
Q 3.4 14.25 3.35 14.25 3.35 14.3 3.3 14.25
L 3.3 14.35
Q 3.35 14.4 3.3 14.4 3.3 14.448828125 3.25 14.45
L 3.2 14.45 3.2 14.5
Q 3.3 14.55 3.2 14.55
L 3.05 14.55 3.05 14.6
Q 3.05 14.7 3 14.7
L 2.95 14.7 3 14.8 3 14.9
Q 2.9712890625 14.9287109375 2.95 14.95
L 2.95 15 2.85 15.05
Q 2.95 15.15 2.85 15.15
L 2.7 15.15 2.7 15.3 2.75 15.3
Q 2.7 15.35 2.65 15.35
L 2.65 15.4
Q 2.7 15.4 2.65 15.45 2.65 15.5 2.6 15.5
L 2.6 15.55
Q 2.6 15.6 2.55 15.55
L 2.5 15.55 2.5 15.65 2.45 15.65
Q 2.4 15.65 2.4 15.75
L 2.45 15.75
Q 2.45 15.7 2.5 15.7 2.5 15.75 2.45 15.8
L 2.4 15.9 2.35 15.9 2.35 15.95
Q 2.4 16.05 2.3 16
L 2.25 16 2.25 16.05 2.2 16.05 2.25 16.1
Q 2.3 16.1 2.3 16.15
L 2.35 16.15 2.35 16.2
Q 2.35 16.3 2.4 16.3
L 2.45 16.3
Q 2.45 16.35 2.5 16.35
L 2.5 16.4 2.55 16.4 2.55 16.45 2.6 16.45 2.6 16.55
Q 2.55 16.6 2.5 16.6
L 2.5 16.65 2.45 16.65 2.5 16.75
Q 2.5484375 16.7015625 2.55 16.65
L 2.65 16.65 2.65 16.6
Q 2.7 16.55 2.75 16.55
L 2.85 16.55 2.85 16.5
Q 2.75 16.4 2.85 16.4 2.85 16.35 2.85 16.3
L 2.9 16.3
Q 2.9 16.15 3 16.15 3 16.1 3.1 16.1
L 3.1 16.05 3.2 16.05 3.15 15.85 3.2 15.9 3.2 15.85 3.1 15.8 3.15 15.8
Q 3.25 15.75 3.35 15.7
L 3.35 15.6 3.4 15.6 3.4 15.55 3.45 15.55 3.45 15.4 3.6 15.4 3.6 15.35
Q 3.6 15.3 3.6 15.25 3.6 15.15 3.65 15.2
L 3.65 15.25 3.7 15.25 3.7 15.2 3.75 15.2 3.75 15.1 3.7 15.1
Q 3.7 15.05 3.75 15.05
L 3.85 15.05 3.85 14.95
Q 3.85 14.85 3.9 14.8 3.95 14.75 4 14.85 4 14.8 4.05 14.85
L 4.05 14.75
Q 4.05 14.7 4.1 14.7
L 4.1 14.75 4.15 14.7
Q 4.1 14.6 4.15 14.6
L 4.2 14.65 4.25 14.65 4.2 14.55 4.25 14.55 4.25 14.45
Q 4.3 14.45 4.35 14.45 4.35 14.4 4.35 14.35 4.4 14.3 4.45 14.3
L 4.45 14.25
Q 4.5 14.2 4.55 14.2
L 4.65 14.2 4.7 14.15 4.7 14.05 4.8 14.05 4.85 14 4.85 13.95 4.95 13.95 4.95 13.7 5 13.7
Q 5 13.65 5.05 13.7
L 5.05 13.75 5.1 13.7 5.1 13.65 5.2 13.65 5.2 13.5
Q 5.2 13.45 5.25 13.45
L 5.3 13.5 5.3 13.4
Q 5.35 13.4 5.35 13.35
L 5.4 13.3
Q 5.448828125 13.3 5.45 13.35
L 5.45 13.3 5.55 13.25 5.55 13.2 5.5 13.2 5.5 13.15 5.6 13.15 5.65 13.05
Q 5.65 12.95 5.7 13
L 5.75 13.05 5.75 12.95 5.7 12.9 5.75 12.85 5.8 12.85
Q 5.8 12.8 5.85 12.8 5.9 12.7 5.95 12.7 5.95 12.65 6.05 12.6
L 6.1 12.6 6.1 12.45
Q 6 12.4 6.1 12.4 6.25 12.4 6.2 12.45
L 6.2 12.5 6.25 12.5 6.3 12.45 6.3 12.35 6.35 12.35
Q 6.35 12.3 6.4 12.3 6.4 12.2 6.45 12.2
L 6.55 12.25 6.55 12.15
Q 6.55 12.1 6.6 12.1
L 6.7 12.1 6.7 11.95 6.8 11.95 6.85 11.9
Q 6.8 11.85 6.85 11.85
L 6.85 11.8 6.8 11.8
Q 6.85 11.75 6.9 11.75
L 6.95 11.8
Q 6.95 11.7 7.05 11.75
L 7.1 11.75 7.1 11.7
Q 7.1 11.65 7.15 11.6 7.2 11.6 7.25 11.6
L 7.3 11.6 7.35 11.65 7.35 11.7
Q 7.351171875 11.65 7.4 11.65
L 7.45 11.65 7.45 11.6
Q 7.465625 11.565625 7.5 11.6
L 7.5 11.7 7.55 11.7 7.55 11.75 7.6 11.75 7.6 11.7
Q 7.6 11.65 7.65 11.7 7.7 11.7 7.7 11.75
L 7.65 11.8 7.7 11.85 7.7 11.9 7.9 11.9 7.9 11.95 7.95 11.95 7.95 12.05 8 12.05
Q 8.05 12.05 8.05 12.1
L 8.05 12.15 8.1 12.1
Q 8.15 12.05 8.15 12.1
L 8.2 12.15
Q 8.25 12.15 8.2 12.2 8.25 12.2 8.25 12.25 8.3 12.2 8.3 12.3 8.3 12.35 8.25 12.35
L 8.3 12.4 8.35 12.4
Q 8.398828125 12.4 8.4 12.45
L 8.4 12.4
Q 8.4 12.35 8.45 12.35
L 8.5 12.35
Q 8.5 12.3 8.55 12.35
L 8.55 12.3
Q 8.55 12.25 8.65 12.35
L 8.6 12.25 8.65 12.2 8.65 12.3 8.7 12.3
Q 8.75 12.25 8.8 12.3
L 8.8 12.25 8.85 12.25
Q 8.9 12.3 8.8 12.3
L 8.8 12.35 8.85 12.35
Q 8.9 12.35 8.9 12.4
L 8.95 12.4
Q 8.95 12.3 9 12.4 9.05 12.45 9 12.5
L 9 12.55 9.1 12.55 9.1 12.6 9.15 12.6 9.15 12.55
Q 9.25 12.5 9.2 12.65
L 9.25 12.65 9.2 12.7 9.25 12.7
Q 9.25 12.75 9.25 12.8
L 9.3 12.8
Q 9.35 12.85 9.4 12.85
L 9.4 12.9 9.45 12.85 9.45 12.9 9.5 12.9 9.5 12.85
Q 9.55 12.85 9.55 12.9
L 9.55 12.95 9.5 13.05 9.6 13.05 9.65 13.1 9.65 13.15 9.75 13.15 9.75 13.1
Q 9.75 13 9.8 13.05
L 9.8 13.1
Q 9.8 13.15 9.75 13.15
L 9.75 13.2 9.9 13.2
Q 10 13.25 9.9 13.3
L 9.9 13.35 10.05 13.4
Q 10.05 13.3 10.1 13.4
L 10.05 13.45
Q 10.15 13.45 10.1 13.5
L 10.1 13.55 10.15 13.55 10.15 13.5 10.2 13.5
Q 10.25 13.45 10.25 13.55
L 10.3 13.55
Q 10.35 13.6 10.3 13.6
L 10.35 13.65
Q 10.39921875 13.65 10.4 13.7 10.40078125 13.64921875 10.45 13.6
L 10.45 13.65 10.5 13.7 10.5 13.8
Q 10.5033203125 13.7033203125 10.55 13.75
L 10.55 13.8 10.6 13.8
Q 10.65 13.85 10.5 13.8
L 10.5 13.85 10.55 13.85
Q 10.6 13.85 10.65 13.95
L 10.65 14 10.7 14
Q 10.7 14.05 10.75 14.05
L 10.75 14.1 10.85 14.1 10.9 14.2 11 14.2
Q 10.95 14.1 11.05 14.2 11 14.25 11 14.3
L 11 14.35 11.1 14.35
Q 11.05 14.3 11.1 14.25
L 11.1 14.3 11.15 14.35 11.2 14.35
Q 11.25 14.45 11.3 14.5
L 11.35 14.55 11.35 14.6
Q 11.3826171875 14.6 11.35 14.65 11.411328125 14.561328125 11.45 14.6
L 11.4 14.7 11.45 14.65 11.5 14.7 11.5 14.75
Q 11.6 14.75 11.55 14.8
L 11.6 14.8
Q 11.7 14.8 11.75 14.9 11.8 14.95 11.75 14.95
L 11.65 14.95 11.75 15 11.75 15.05 11.8 15.05 11.75 15.1 11.8 15.1
Q 11.8484375 15.0515625 11.85 15
L 11.85 15.1
Q 11.9 15.1 11.85 15.15
L 12 15.15 12 15.1
Q 12.1 15.15 12.05 15.2
L 12.1 15.2 12.15 15.25
Q 12.2 15.25 12.2 15.3
L 12.25 15.3 12.25 15.4 12.35 15.4
Q 12.35 15.45 12.35 15.5
L 12.5 15.55
Q 12.6 15.6 12.5 15.65
L 12.5 15.7 12.55 15.7
Q 12.55 15.65 12.6 15.65
L 12.6 15.75 12.65 15.75 12.7 15.8
Q 12.75 15.8 12.8 15.8
L 12.85 15.8
Q 12.85 15.85 12.85 15.9
L 12.9 15.9
Q 12.9 15.95 12.95 15.95
L 12.95 16.1 13 16.1 13 16.15
Q 13.05 16.15 13.1 16.2
L 13.1 16.15
Q 13.1 16.1 13.15 16.15 13.2 16.15 13.15 16.2
L 13.1 16.2 13.1 16.25
Q 13.15 16.25 13.1 16.3
L 13.15 16.3 13.15 16.35 13.2 16.3
Q 13.2 16.25 13.3 16.3
L 13.35 16.35 13.35 16.3
Q 13.5 16.35 13.45 16.4
L 13.45 16.55
Q 13.5 16.45 13.6 16.55 13.65 16.6 13.6 16.65
L 13.6 16.75 13.65 16.75 13.65 16.7
Q 13.65 16.6 13.7 16.65
L 13.7 16.7
Q 13.85 16.7 13.7 16.75
L 13.7 16.8 13.75 16.8
Q 13.75 16.75 13.8 16.75
L 13.85 16.75 13.85 16.8
Q 13.9 16.8 13.9 16.85
L 13.95 16.85
Q 13.95 16.8 14 16.85 14.1 16.9 14.05 17
L 14.1 17
Q 14.15 17 14.15 17.05
L 14.1 17.1 14.05 17.1 14.05 17.15 14.1 17.15 14.15 17.2 14.2 17.2
Q 14.2 17.1 14.3 17.2 14.35 17.2 14.35 17.25 14.35 17.3 14.35 17.35
L 14.35 17.4
Q 14.45 17.3 14.5 17.4 14.6 17.4 14.55 17.5
L 14.6 17.5
Q 14.65 17.5 14.7 17.5 14.7 17.6 14.65 17.6
L 14.65 17.65 14.75 17.65
Q 14.75 17.7 14.8 17.75
L 14.95 17.75
Q 14.95 17.8 15 17.85
L 15.05 17.85
Q 15.05 17.9 15.05 17.95
L 15.05 18 15.1 18 15.1 18.05
Q 15.15 18.05 15.2 18.05
L 15.25 18.05
Q 15.3 18 15.3 18.15
L 15.3 18.25 15.45 18.25 15.45 18.3
Q 15.5 18.35 15.45 18.35
L 15.45 18.4 15.65 18.4 15.7 18.5
Q 15.75 18.5 15.75 18.55
L 15.75 18.6 15.7 18.6 15.7 18.65 15.8 18.65
Q 15.85 18.65 15.8 18.7
L 15.8 18.75 15.9 18.75
Q 15.95 18.75 15.95 18.85
L 16.05 18.8 16.05 18.85
Q 16.051171875 18.8005859375 16.15 18.85 16.2 18.95 16.15 18.95
L 16.15 19 16.2 19 16.25 19.1 16.3 19.1 16.25 19.15 16.3 19.15 16.3 19.2 16.4 19.15
Q 16.4 19.1 16.45 19.1
L 16.45 19.15 16.4 19.15 16.4 19.25 16.55 19.25
Q 16.65 19.3 16.5 19.3
L 16.45 19.3
Q 16.5 19.35 16.55 19.35
L 16.6 19.45 16.65 19.4
Q 16.8 19.4 16.7 19.5
L 16.75 19.5 16.7 19.55 16.7 19.6 16.75 19.6 16.75 19.55
Q 16.8 19.5 16.85 19.5
L 16.85 19.65 16.9 19.7 16.9 19.75 17 19.7 17 19.8 17.05 19.85
Q 17.05 19.75 17.1 19.8
L 17.1 19.85 17.05 19.85 17.1 19.9 17.25 19.9
Q 17.3 19.95 17.15 20
L 17.15 20.05 17.2 20.05 17.25 20.1 17.3 20.05
Q 17.444921875 20.0982421875 17.35 20.1
L 17.4 20.1
Q 17.4484375 20.1484375 17.45 20.25 17.4515625 20.1515625 17.5 20.2
L 17.55 20.2 17.55 20.4 17.65 20.35 17.7 20.45 17.7 20.5 17.8 20.5
Q 17.85 20.5 17.85 20.55
L 17.9 20.6
Q 18 20.6 17.9 20.65
L 17.9 20.7 18.05 20.7
Q 18.2 20.75 18.05 20.8
L 18.1 20.8
Q 18.14921875 20.8 18.15 20.85 18.15078125 20.80078125 18.2 20.85
L 18.25 20.95
Q 18.25 21 18.3 21
L 18.3 21.05 18.4 21.05 18.4 21.15 18.45 21.15
Q 18.45 21.1 18.5 21.1 18.5 21.2 18.45 21.2
L 18.5 21.3 18.55 21.25
Q 18.65 21.25 18.65 21.3
L 18.65 21.35 18.7 21.35 18.65 21.4 18.65 21.45 18.7 21.45 18.7 21.4 18.8 21.5 18.9 21.5
Q 18.95 21.55 19 21.6 18.95 21.65 18.9 21.65
L 18.9 21.7 18.95 21.7 19 21.7
Q 19.05 21.65 19.05 21.7
L 19.1 21.7
Q 19.15 21.7 19.15 21.75
L 19.2 21.8
Q 19.2 21.848828125 19.25 21.85 19.3 21.8 19.4 21.65 19.6 21.5 19.75 21.3 19.85 21.2 19.95 21.1 20 21 20.15 20.95 20.25 20.85 20.35 20.7 20.4 20.65 20.5 20.55 20.6 20.45 20.7 20.35 20.75 20.3 20.8 20.25
L 20.75 20.25 20.75 20.1
Q 20.7 20.1 20.65 20.1
L 20.6 20.1
Q 20.55 20.05 20.6 20.05
L 20.6 19.95 20.55 19.95 20.55 20 20.5 20 20.5 19.95 20.4 19.95 20.4 19.9 20.35 19.85 20.35 19.75 20.25 19.75
Q 20.2 19.75 20.25 19.7
M 6 11.45
Q 5.95 11.3 6 11.25
L 6.05 11.3
Q 6.1 11.3 6.2 11.25 6.25 11.25 6.25 11.3
L 6.3 11.3
Q 6.3 11.35 6.4 11.35
L 6.45 11.35 6.4 11.4
Q 6.45 11.55 6.4 11.6
L 6.45 11.65
Q 6.4 11.65 6.35 11.65
L 6.3 11.6 6.2 11.6 6.25 11.65 6.2 11.65
Q 6.1 11.65 6.2 11.6
L 6.2 11.45
Q 6.1 11.45 6.05 11.45
L 6 11.45
M 5.75 11.5
Q 5.8 11.5 5.8 11.55 5.85 11.65 5.8 11.7
L 5.85 11.75 5.9 11.75
Q 5.95 11.7 6.05 11.75
L 6.1 11.75
Q 6.1 11.85 6.05 11.9 6 11.85 5.95 11.85 5.85 11.9 5.8 11.9
L 5.75 11.9 5.75 11.85 5.7 11.8 5.7 11.75
Q 5.65 11.7 5.65 11.65
L 5.65 11.6 5.7 11.55 5.75 11.55 5.75 11.5
M 5.15 11.65
Q 5.2 11.7 5.15 11.7 5.1 11.65 5.15 11.6
L 5.15 11.65
M -0.05 20.4
Q -0.05 20.45 -0.1 20.45
L -0.1 20.55
Q -0.15 20.55 -0.15 20.6
L -0.2 20.6 -0.2 20.65 -0.15 20.7 -0.2 20.7 -0.2 20.85 -0.3 20.85 -0.3 20.9
Q -0.25 20.95 -0.3 21 -0.25 21.05 -0.35 21.1
L -0.35 21.2
Q -0.35 21.25 -0.4 21.25
L -0.4 21.3
Q -0.35 21.35 -0.45 21.35
L -0.5 21.4 -0.5 21.35 -0.55 21.4 -0.6 21.4 -0.6 21.45 -0.55 21.45
Q -0.5 21.5 -0.6 21.55
L -0.55 21.65
Q -0.55 21.7 -0.6 21.7
L -0.6 21.75
Q -0.6 21.8466796875 -0.7 21.85
L -0.65 21.85
Q -0.7 21.9 -0.75 21.9
L -0.75 21.85 -0.85 21.85 -0.8 22 -0.75 22
Q -0.7 22 -0.75 22.1
L -0.7 22.1 -0.7 22
Q -0.7 21.95 -0.6 22
L -0.6 21.9 -0.5 21.8 -0.35 21.85 -0.35 21.7
Q -0.35 21.65 -0.3 21.65
L -0.35 21.6 -0.3 21.6 -0.25 21.55
Q -0.25 21.5 -0.25 21.45
L -0.2 21.45 -0.2 21.4 -0.25 21.4
Q -0.2 21.35 -0.15 21.35 -0.15 21.3 -0.1 21.3
L -0.15 21.25 -0.1 21.25 -0.1 21.15 -0.05 21.1
Q -0.05 20.95 0 21.1
L 0 21.15
Q 0.05 21.15 0.05 21.1
L 0.1 21.1 0.1 21
Q 0.15 21 0.15 20.95
L 0.15 20.85 0.25 20.85 0.25 20.7 0.3 20.7
Q 0.3 20.65 0.35 20.65
L 0.3 20.6
Q 0.3 20.55 0.3 20.5
L 0.35 20.5
Q 0.4 20.55 0.4 20.5
L 0.45 20.5 0.45 20.45
Q 0.45 20.4 0.5 20.4
L 0.5 20.35
Q 0.5 20.3 0.5 20.25
L 0.5 20.15
Q 0.5 20.1 0.55 20.1 0.6 20 0.6 20.1
L 0.65 20.1 0.65 20 0.7 20 0.65 19.95 0.7 19.95
Q 0.65 19.85 0.75 19.9
L 0.75 19.85 0.8 19.9 0.8 19.85 0.85 19.85 0.85 19.8
Q 0.9 19.8 0.9 19.75
L 0.9 19.7 0.95 19.65 0.9 19.65 0.9 19.6
Q 0.9 19.5 0.95 19.6
L 1 19.6 1 19.5 1.05 19.4 1.1 19.4 1.1 19.35 1.05 19.25 1.1 19.25 1.15 19.2
Q 1.15 19.1 1.2 19.15
L 1.25 19.2 1.25 19
Q 1.25 18.9 1.25 18.85
L 1.3 18.85
Q 1.3 18.8 1.35 18.8 1.35 18.75 1.4 18.75
L 1.4 18.7 1.45 18.7 1.5 18.75 1.5 18.65 1.55 18.65
Q 1.55 18.55 1.55 18.5
L 1.6 18.55 1.6 18.5
Q 1.55 18.4 1.6 18.4
L 1.65 18.4
Q 1.7 18.35 1.75 18.35
L 1.75 18.15 1.8 18.15 1.8 18.1 1.75 18.1 1.75 18.05 1.8 18.05
Q 1.8 17.95 1.85 18
L 1.85 17.9
Q 1.9 17.85 1.95 17.75
L 2 17.8
Q 2 17.7 1.9 17.75
L 1.95 17.7
Q 2 17.65 2.05 17.75
L 2.05 17.7
Q 2.1 17.7 2.1 17.65
L 2.1 17.5 1.95 17.5 2 17.4 2.05 17.4
Q 2.1 17.35 2.05 17.25
L 2.05 17.2 2 17.2 2 17.15 2.05 17.1 2.1 17.1 2.1 17.05 2.05 17.05
Q 2.1 17.048828125 2.1 17
L 2.05 17
Q 2 17 1.95 16.95
L 1.85 17
Q 1.85 16.95 1.85 16.9
L 1.75 16.9 1.75 16.95
Q 1.75 17 1.7 17
L 1.65 17.05
Q 1.6 17.05 1.65 17.1
L 1.65 17.15
Q 1.7 17.25 1.6 17.25
L 1.6 17.4
Q 1.5 17.5 1.45 17.5
L 1.4 17.5 1.4 17.55 1.45 17.55
Q 1.55 17.6 1.45 17.6
L 1.45 17.65 1.35 17.65 1.35 17.7
Q 1.4 17.75 1.35 17.8
L 1.3 17.8 1.25 17.85 1.25 17.9 1.2 17.95 1.25 17.95
Q 1.35 18 1.15 18
L 1.15 18.2 1.1 18.2 1.1 18.3 1.05 18.4 1.05 18.45
Q 1 18.45 1 18.5 1 18.55 0.95 18.5
L 0.9 18.5 0.9 18.55
Q 0.9 18.6 0.9 18.65 0.95 18.65 0.9 18.7
L 0.85 18.7 0.85 18.75 0.9 18.75
Q 1 18.75 0.9 18.8 0.85 18.85 0.8 18.85
L 0.75 18.85 0.8 18.9
Q 0.85 18.95 0.75 18.95 0.75 19 0.75 19.05
L 0.7 19 0.65 19 0.7 19.1 0.65 19.15 0.65 19.2 0.6 19.2
Q 0.6 19.25 0.55 19.25 0.65 19.3 0.5 19.35
L 0.55 19.35
Q 0.6 19.45 0.55 19.5 0.55 19.4 0.5 19.35
L 0.45 19.35 0.5 19.45 0.45 19.5 0.5 19.5
Q 0.5 19.55 0.45 19.6
L 0.4 19.6 0.4 19.65
Q 0.45 19.75 0.4 19.75 0.35 19.75 0.3 19.75
L 0.3 19.8
Q 0.35 19.85 0.3 19.85
L 0.25 19.9
Q 0.35 19.95 0.25 19.95
L 0.25 20 0.2 20 0.2 19.9 0.15 19.9 0.15 19.95
Q 0.2 20 0.15 20 0.15 20.05 0.15 20.1
L 0.1 20.1
Q 0.15 20.15 0.05 20.15
L 0.05 20.2
Q 0.1 20.2 0.1 20.25
L 0 20.25 0 20.35
Q 0.1 20.35 0 20.4
L -0.05 20.35 -0.05 20.4
M 1.5 18.5
L 1.5 18.55 1.45 18.65 1.45 18.6 1.4 18.6
Q 1.35 18.5 1.5 18.5 Z"/>

<path fill="#000000" fill-opacity="0.6901960784313725" stroke="none" d="
M 7.65 34.35
Q 7.65 34.4 7.8 34.5 7.85 34.4 7.9 34.3 7.9 34.15 7.95 33.95 7.75 34.15 7.65 34.35
M 42.05 6.75
Q 41.95 6.65 41.9 6.55 41.8 6.65 41.7 6.75 41.75 6.8 41.9 6.85 42.1 6.95 42.25 6.9 42.2 6.8 42.05 6.75 Z"/>

<path fill="#000000" fill-opacity="0.3764705882352941" stroke="none" d="
M 9.65 36.4
Q 9.4 36.6 9.25 36.75 9.15 36.85 9.05 36.95
L 9.2 37
Q 9.9 36.75 9.65 36.4
M 27.8 16.2
Q 27.7 16.3 27.6 16.4 27.7 16.5 27.8 16.55 27.9 16.45 28 16.35 28.25 16.05 28.6 15.8 28.45 15.7 28.4 15.65 28.1 15.9 27.8 16.2 Z"/>

<path fill="#000000" fill-opacity="0.4745098039215686" stroke="none" d="
M 6.05 36.55
Q 5.95 36.65 5.85 36.75 6 36.85 6.05 36.95 6.2 36.85 6.3 36.75 6.95 36.25 6.8 35.8 6.45 36.15 6.05 36.55
M 28.2 12.8
Q 28.25 12.7 28.4 12.6 28.5 12.5 28.6 12.4 28.45 12.3 28.4 12.2 28.25 12.35 28.15 12.4 28.1 12.45 28 12.6 28.05 12.7 28.2 12.8 Z"/>

<path fill="#000000" fill-opacity="0.47843137254901963" stroke="none" d="
M 7.4 34.85
Q 7.2 35.05 7.15 35.3 7.1 35.3 7.15 35.4 7.3 35.3 7.3 35.2 7.4 35.05 7.4 34.85 Z"/>

<path fill="#000000" fill-opacity="0.5843137254901961" stroke="none" d="
M 8.4 32.8
Q 8.4 32.95 8.45 33 8.55 32.95 8.65 32.8 8.65 32.6 8.65 32.45 8.5 32.6 8.4 32.8 Z"/>

<path fill="#000000" fill-opacity="0.6666666666666666" stroke="none" d="
M 8.15 33.8
Q 8.2 33.7 8.25 33.55 8.3 33.4 8.3 33.2 8.15 33.4 8.05 33.6 8.05 33.7 8.15 33.8 Z"/>

<path fill="#000000" fill-opacity="0.7764705882352941" stroke="none" d="
M 9.25 31.85
Q 9.35 31.75 9.4 31.7 9.4 31.5 9.4 31.3 9.3 31.4 9.25 31.45 9.15 31.55 9.05 31.7 9.15 31.8 9.25 31.85 Z"/>

<path fill="#000000" fill-opacity="0.396078431372549" stroke="none" d="
M 9.05 32.05
Q 9.15 31.95 9.25 31.85 9.15 31.8 9.05 31.7 8.85 31.85 8.8 32.05 8.75 32.15 8.9 32.25 9 32.15 9.05 32.05 Z"/>

<path fill="#000000" fill-opacity="0.21176470588235294" stroke="none" d="
M 9.8 30.9
Q 9.9 30.85 10 30.7 10.1 30.6 10.2 30.55 10.1 30.45 10 30.35 9.75 30.5 9.7 30.7 9.7 30.8 9.8 30.9 Z"/>

<path fill="#000000" fill-opacity="0.48627450980392156" stroke="none" d="
M 10.4 33.75
Q 10.5 33.7 10.5 33.55 10.6 33.4 10.55 33.2 10.4 33.35 10.3 33.6 10.3 33.7 10.4 33.75 Z"/>

<path fill="#000000" fill-opacity="0.6352941176470588" stroke="none" d="
M 11.3 32.45
Q 11.25 32.3 11.15 32.2 10.95 32.45 10.9 32.6 10.85 32.7 10.9 32.8 11 32.7 11.1 32.65 11.2 32.5 11.3 32.45 Z"/>

<path fill="#000000" fill-opacity="0.3607843137254902" stroke="none" d="
M 11.5 32.2
Q 11.6 32.15 11.7 32.05 11.6 31.95 11.55 31.85 11.45 31.95 11.35 32.05 11.25 32.15 11.15 32.2 11.25 32.3 11.3 32.45 11.4 32.3 11.5 32.2 Z"/>

<path fill="#000000" fill-opacity="0.1411764705882353" stroke="none" d="
M 11.85 31.45
Q 11.85 31.6 11.75 31.65 11.6 31.75 11.55 31.85 11.6 31.95 11.7 32.05 11.8 31.95 11.85 31.85 11.9 31.7 11.85 31.45 Z"/>

<path fill="#000000" fill-opacity="0.8274509803921568" stroke="none" d="
M 12.85 30.5
Q 12.7 30.4 12.65 30.35 12.25 30.7 12 31.15 12 31.2 12.1 31.3 12.2 31.2 12.25 31.1 12.55 30.8 12.85 30.5 Z"/>

<path fill="#000000" fill-opacity="0.7647058823529411" stroke="none" d="
M 13 30.35
Q 13.35 29.95 13.75 29.6 13.65 29.5 13.55 29.35 13.15 29.75 12.85 30.15 12.75 30.2 12.65 30.35 12.7 30.4 12.85 30.5 12.95 30.45 13 30.35 Z"/>

<path fill="#000000" fill-opacity="0.8156862745098039" stroke="none" d="
M 13.95 29.35
Q 14.25 29.1 14.5 28.8 14.35 28.75 14.3 28.65 14.05 28.9 13.75 29.2 13.65 29.3 13.55 29.35 13.65 29.5 13.75 29.6 13.85 29.5 13.95 29.35
M 17.85 25.8
Q 17.95 25.7 18.05 25.65 17.95 25.55 17.9 25.45 17.8 25.55 17.65 25.6 17.65 25.75 17.55 25.8 17.6 25.9 17.7 26.05 17.8 25.9 17.85 25.8 Z"/>

<path fill="#000000" fill-opacity="0.9019607843137255" stroke="none" d="
M 14.9 28.5
Q 14.75 28.35 14.7 28.25 14.6 28.35 14.5 28.5 14.4 28.55 14.3 28.65 14.35 28.75 14.5 28.8 14.6 28.75 14.7 28.65 14.8 28.55 14.9 28.5 Z"/>

<path fill="#000000" fill-opacity="0.4117647058823529" stroke="none" d="
M 10.55 30.1
Q 10.45 30.05 10.35 29.95 10.25 30.05 10.15 30.15 10.1 30.2 10 30.35 10.1 30.45 10.2 30.55 10.25 30.4 10.4 30.35 10.5 30.25 10.55 30.1 Z"/>

<path fill="#000000" fill-opacity="0.5411764705882353" stroke="none" d="
M 11.1 29.6
Q 11.05 29.5 10.9 29.4 10.75 29.6 10.5 29.75 10.45 29.85 10.35 29.95 10.45 30.05 10.55 30.1 10.65 30.05 10.75 30 10.9 29.75 11.1 29.6
M 32.3 11.25
Q 32.45 11.35 32.5 11.45 32.6 11.35 32.65 11.25 32.75 11.2 32.85 11.1 32.8 11 32.65 10.95 32.6 11 32.45 11.05 32.4 11.2 32.3 11.25 Z"/>

<path fill="#000000" fill-opacity="0.4" stroke="none" d="
M 14.1 26.55
Q 14.2 26.5 14.35 26.4 14.2 26.3 14.1 26.15 14 26.3 13.95 26.4 13.85 26.45 13.7 26.6 13.85 26.65 13.95 26.75 14 26.65 14.1 26.55 Z"/>

<path fill="#000000" fill-opacity="0.6745098039215687" stroke="none" d="
M 13.15 27.5
Q 13.1 27.4 12.95 27.3 12.05 28.3 11.1 29.2 11 29.3 10.9 29.4 11.05 29.5 11.1 29.6 11.25 29.5 11.3 29.4 12.25 28.5 13.15 27.5 Z"/>

<path fill="#000000" fill-opacity="0.5725490196078431" stroke="none" d="
M 13.15 27.15
Q 13.05 27.25 12.95 27.3 13.1 27.4 13.15 27.5 13.25 27.45 13.35 27.35 13.45 27.25 13.55 27.15 13.45 27.05 13.35 26.95 13.2 27 13.15 27.15 Z"/>

<path fill="#000000" fill-opacity="0.49411764705882355" stroke="none" d="
M 13.55 26.75
Q 13.45 26.9 13.35 26.95 13.45 27.05 13.55 27.15 13.65 27.05 13.7 26.95 13.85 26.85 13.95 26.75 13.85 26.65 13.7 26.6 13.6 26.65 13.55 26.75 Z"/>

<path fill="#000000" fill-opacity="0.17647058823529413" stroke="none" d="
M 14.85 25.8
Q 14.95 25.7 15.05 25.65 14.95 25.55 14.85 25.45 14.75 25.55 14.65 25.6 14.6 25.75 14.45 25.8 14.6 25.9 14.7 26 14.75 25.9 14.85 25.8 Z"/>

<path fill="#000000" fill-opacity="0.2823529411764706" stroke="none" d="
M 14.45 25.8
Q 14.35 25.9 14.25 26.05 14.2 26.1 14.1 26.15 14.2 26.3 14.35 26.4 14.35 26.3 14.45 26.2 14.6 26.1 14.7 26 14.6 25.9 14.45 25.8 Z"/>

<path fill="#000000" fill-opacity="0.07058823529411765" stroke="none" d="
M 15.4 28.15
Q 15.65 28.1 15.8 27.9 15.75 27.8 15.65 27.7 15.55 27.8 15.45 27.9 15.35 28 15.3 28.1 15.35 28.2 15.4 28.15
M 15.25 25.4
Q 15.35 25.35 15.45 25.3 15.35 25.15 15.25 25.05 15.15 25.15 15.05 25.25 14.95 25.3 14.85 25.45 14.95 25.55 15.05 25.65 15.15 25.55 15.25 25.4 Z"/>

<path fill="#000000" fill-opacity="0.5490196078431373" stroke="none" d="
M 17 26.4
Q 16.9 26.45 16.8 26.6 16.9 26.65 16.95 26.75 17.05 26.65 17.15 26.6 17.2 26.5 17.3 26.4 17.2 26.3 17.15 26.15 17.05 26.3 17 26.4 Z"/>

<path fill="#000000" fill-opacity="0.4235294117647059" stroke="none" d="
M 16.8 26.6
Q 16.7 26.65 16.6 26.75 16.5 26.85 16.4 26.95 16.5 27.05 16.55 27.15 16.65 27 16.75 26.95 16.85 26.9 16.95 26.75 16.9 26.65 16.8 26.6 Z"/>

<path fill="#000000" fill-opacity="0.17254901960784313" stroke="none" d="
M 16 27.75
Q 16.05 27.6 16.2 27.5 16.1 27.4 16 27.35 15.95 27.4 15.8 27.5 15.7 27.65 15.65 27.7 15.75 27.8 15.8 27.9 15.9 27.8 16 27.75 Z"/>

<path fill="#000000" fill-opacity="0.2901960784313726" stroke="none" d="
M 16.2 27.15
Q 16.1 27.25 16 27.35 16.1 27.4 16.2 27.5 16.3 27.45 16.4 27.3 16.45 27.25 16.55 27.15 16.5 27.05 16.4 26.95 16.3 27 16.2 27.15
M 36.9 10.35
Q 36.8 10.1 36.65 9.95 36.65 10.2 36.75 10.3 36.75 10.4 36.85 10.5 36.9 10.45 36.9 10.35 Z"/>

<path fill="#000000" fill-opacity="0.8941176470588236" stroke="none" d="
M 15.8 25.1
Q 16 25.05 16.2 24.9 16.05 24.8 16 24.7 15.9 24.8 15.8 24.85 15.7 25 15.65 25.05 15.7 25.15 15.8 25.1
M 31.4 12.6
Q 31.5 12.5 31.6 12.4 31.5 12.3 31.35 12.2 31.25 12.4 31.1 12.65 31.15 12.7 31.25 12.8 31.35 12.7 31.4 12.6 Z"/>

<path fill="#000000" fill-opacity="0.6980392156862745" stroke="none" d="
M 17.35 26.05
Q 17.25 26.1 17.15 26.15 17.2 26.3 17.3 26.4 17.4 26.3 17.5 26.2 17.6 26.1 17.7 26.05 17.6 25.9 17.55 25.8 17.4 25.9 17.35 26.05 Z"/>

<path fill="#000000" fill-opacity="0.9294117647058824" stroke="none" d="
M 18.05 25.25
Q 18 25.3 17.9 25.45 17.95 25.55 18.05 25.65 18.15 25.55 18.25 25.4 18.35 25.35 18.4 25.25 18.3 25.15 18.25 25.05 18.15 25.15 18.05 25.25 Z"/>

<path fill="#000000" fill-opacity="0.10196078431372549" stroke="none" d="
M 18.6 25.05
Q 18.7 25.15 18.75 25.15 19 25.05 19.2 24.85 19.1 24.75 19 24.65 18.9 24.8 18.8 24.85 18.7 24.95 18.6 25.05 Z"/>

<path fill="#000000" fill-opacity="0.23529411764705882" stroke="none" d="
M 19.4 24.65
Q 19.5 24.55 19.6 24.5 19.5 24.4 19.4 24.3 19.25 24.4 19.15 24.5 19.1 24.55 19 24.65 19.1 24.75 19.2 24.85 19.25 24.8 19.4 24.65 Z"/>

<path fill="#000000" fill-opacity="0.3803921568627451" stroke="none" d="
M 19.55 24.1
Q 19.5 24.2 19.4 24.3 19.5 24.4 19.6 24.5 19.65 24.4 19.75 24.3 19.9 24.2 19.95 24.1 19.85 24.05 19.75 23.95 19.65 24 19.55 24.1
M 23.1 18.25
Q 23 18.15 22.95 18.05 22.55 18.45 22.2 18.85 22.1 18.9 22.05 19 22.1 19.1 22.15 19.2 22.25 19.1 22.35 19.05 22.7 18.65 23.1 18.25
M 26.5 17.5
Q 26.05 18 25.55 18.45 25.45 18.5 25.4 18.65 25.45 18.75 25.55 18.8 25.7 18.7 25.8 18.6 26.25 18.15 26.7 17.65 26.6 17.6 26.5 17.5 Z"/>

<path fill="#000000" fill-opacity="0.49019607843137253" stroke="none" d="
M 20.15 23.55
Q 20 23.65 19.9 23.7 19.8 23.8 19.75 23.95 19.85 24.05 19.95 24.1 20 24 20.15 23.95 20.25 23.8 20.3 23.7 20.25 23.6 20.15 23.55 Z"/>

<path fill="#000000" fill-opacity="0.25098039215686274" stroke="none" d="
M 18.2 22.45
Q 18.15 22.55 18.05 22.6 17.95 22.7 17.85 22.8 17.95 22.9 18.05 23 18.15 22.95 18.25 22.8 18.35 22.7 18.4 22.65 18.3 22.55 18.2 22.45
M 34.35 2.05
Q 34.25 2.15 34.2 2.25 34.25 2.3 34.35 2.4 34.45 2.35 34.55 2.2 34.75 2.05 34.95 1.85 34.8 1.7 34.75 1.7 34.55 1.85 34.35 2.05
M 41.5 6.15
Q 41.45 6.05 41.35 5.95 40.85 5.5 40.4 5 40.3 5.15 40.25 5.2 40.65 5.7 41.15 6.15 41.2 6.25 41.35 6.35 41.45 6.25 41.5 6.15 Z"/>

<path fill="#000000" fill-opacity="0.19215686274509805" stroke="none" d="
M 18.6 22.05
Q 18.5 22.15 18.4 22.25 18.3 22.35 18.2 22.45 18.3 22.55 18.4 22.65 18.5 22.5 18.6 22.45 18.7 22.35 18.8 22.2 18.65 22.15 18.6 22.05 Z"/>

<path fill="#000000" fill-opacity="0.13333333333333333" stroke="none" d="
M 19.2 21.85
Q 19.05 21.75 19 21.7
L 18.95 21.7
Q 18.9 21.8 18.8 21.85 18.7 21.95 18.6 22.05 18.65 22.15 18.8 22.2 18.9 22.15 19 22.1 19.1 21.95 19.2 21.85 Z"/>

<path fill="#000000" fill-opacity="0.6549019607843137" stroke="none" d="
M 16.55 24.5
Q 16.65 24.4 16.8 24.3 16.9 24.2 16.95 24.1 16.85 24.05 16.8 23.95 16.65 24 16.55 24.1 16.45 24.2 16.4 24.3 16.45 24.4 16.55 24.5 Z"/>

<path fill="#000000" fill-opacity="0.40784313725490196" stroke="none" d="
M 17.5 23.55
Q 17.55 23.45 17.65 23.3 17.55 23.25 17.45 23.2 17.4 23.25 17.3 23.35 17.2 23.45 17.15 23.55 17.2 23.65 17.3 23.75 17.4 23.65 17.5 23.55 Z"/>

<path fill="#000000" fill-opacity="0.5294117647058824" stroke="none" d="
M 17.15 23.95
Q 17.25 23.8 17.3 23.75 17.2 23.65 17.15 23.55 17.05 23.65 16.9 23.7 16.85 23.8 16.8 23.95 16.85 24.05 16.95 24.1 17.05 24.05 17.15 23.95
M 30.6 9.2
Q 30.75 9.15 30.75 9 30.85 8.8 30.8 8.65 30.6 8.85 30.55 9.05 30.5 9.1 30.6 9.2 Z"/>

<path fill="#000000" fill-opacity="0.7725490196078432" stroke="none" d="
M 16.4 24.3
Q 16.3 24.45 16.2 24.5 16.1 24.55 16 24.7 16.05 24.8 16.2 24.9 16.3 24.8 16.4 24.65 16.5 24.6 16.55 24.5 16.45 24.4 16.4 24.3 Z"/>

<path fill="#000000" fill-opacity="0.3215686274509804" stroke="none" d="
M 17.65 23
Q 17.55 23.1 17.45 23.2 17.55 23.25 17.65 23.3 17.8 23.25 17.9 23.2 17.95 23.05 18.05 23 17.95 22.9 17.85 22.8 17.8 22.9 17.65 23 Z"/>

<path fill="#000000" fill-opacity="0.8784313725490196" stroke="none" d="
M 20.15 20.95
Q 20 21 19.95 21.1 19.85 21.2 19.75 21.3 19.85 21.4 19.9 21.35 20.1 21.3 20.3 21.1 20.2 21 20.15 20.95
M 27.4 13.55
Q 27.3 13.65 27.25 13.75 27.15 13.8 27.05 13.95 27.15 14.05 27.25 14.15 27.3 14 27.4 13.9 27.4 13.75 27.4 13.55 Z"/>

<path fill="#000000" stroke="none" d="
M 2.1 16.65
L 2.2 16.65
Q 2.2 16.6 2.25 16.55
L 2.1 16.55 2.1 16.65
M 2.3 16.15
L 2.25 16.15 2.15 16.2 2.15 16.25 2.25 16.35 2.3 16.35 2.3 16.4 2.35 16.4
Q 2.35 16.45 2.35 16.5
L 2.35 16.55 2.3 16.55 2.2 16.65 2.15 16.7 2.2 16.75 2.1 16.75 2.1 16.8
Q 2.1 16.85 2.1 16.9
L 2.2 16.9 2.25 16.85 2.25 16.8
Q 2.3 16.8 2.35 16.8
L 2.35 16.7 2.35 16.65 2.4 16.65 2.45 16.65 2.5 16.65 2.5 16.6 2.5 16.55
Q 2.45 16.55 2.5 16.45
L 2.5 16.4 2.5 16.35 2.4 16.4 2.4 16.3
Q 2.35 16.3 2.35 16.2
L 2.25 16.2 2.3 16.15 Z"/>

<path fill="#252122" stroke="none" d="
M 2.1 16.9
L 2.1 17
Q 2.1 17.048828125 2.05 17.05
L 2.1 17.05
Q 2.1 17 2.2 17
L 2.2 17.05
Q 2.25 17.05 2.25 17.1
L 2.45 17.1
Q 2.45 17.05 2.5 17.05
L 2.5 16.9
Q 2.55 16.9 2.6 16.9 2.6 16.85 2.6 16.8
L 2.55 16.8 2.55 16.65
Q 2.5484375 16.7015625 2.5 16.75
L 2.45 16.65 2.4 16.65 2.45 16.7
Q 2.4 16.75 2.35 16.7
L 2.35 16.8
Q 2.3 16.8 2.25 16.8
L 2.25 16.85 2.2 16.9 2.1 16.9 Z"/>

<path fill="#000000" fill-opacity="0.07450980392156863" stroke="none" d="
M 30.8 13.5
Q 30.85 13.35 30.85 13.2 30.75 13.25 30.65 13.35 30.55 13.45 30.45 13.55 30.5 13.65 30.65 13.7 30.75 13.6 30.8 13.5 Z"/>

<path fill="#000000" fill-opacity="0.30196078431372547" stroke="none" d="
M 37.75 13.3
Q 37.65 13.2 37.55 13.15 37.25 13.45 37.8 13.6 37.85 13.6 37.95 13.55 37.85 13.45 37.75 13.3 Z"/>

<path fill="#000000" fill-opacity="0.5372549019607843" stroke="none" d="
M 40 12.85
Q 40.25 12.75 40.45 12.55 40.3 12.45 40.25 12.35 40.1 12.45 40 12.55 39.95 12.65 39.85 12.75 39.9 12.85 40 12.85 Z"/>

<path fill="#000000" fill-opacity="0.7843137254901961" stroke="none" d="
M 39.65 12.95
Q 39.55 12.85 39.45 12.7 39.35 12.85 39.25 12.95 39.2 13 39.1 13.15 39.2 13.2 39.25 13.2 39.5 13.1 39.65 12.95 Z"/>

<path fill="#000000" fill-opacity="0.6078431372549019" stroke="none" d="
M 20.9 23.15
Q 20.8 23.05 20.7 22.95 20.6 23.05 20.55 23.1 20.45 23.2 20.3 23.35 20.2 23.45 20.15 23.55 20.25 23.6 20.3 23.7 20.4 23.65 20.5 23.55 20.6 23.45 20.7 23.35 20.8 23.25 20.9 23.15 Z"/>

<path fill="#000000" fill-opacity="0.7294117647058823" stroke="none" d="
M 20.9 22.8
Q 20.8 22.85 20.7 22.95 20.8 23.05 20.9 23.15 21 23.05 21.1 22.95 21.25 22.8 21.45 22.6 21.35 22.5 21.25 22.45 21.05 22.6 20.9 22.8 Z"/>

<path fill="#000000" fill-opacity="0.8235294117647058" stroke="none" d="
M 21.85 22.25
Q 21.75 22.15 21.6 22.05 21.55 22.2 21.45 22.25 21.35 22.35 21.25 22.45 21.35 22.5 21.45 22.6 21.55 22.55 21.65 22.45 21.75 22.35 21.85 22.25 Z"/>

<path fill="#000000" fill-opacity="0.9137254901960784" stroke="none" d="
M 22.15 21.55
Q 22.125 21.575 22.1 21.6 21.975 21.725 21.85 21.85 21.75 21.95 21.6 22.05 21.75 22.15 21.85 22.25 21.95 22.15 22.05 22.1 22.2 21.9 22.35 21.7
L 22.4 21.65
Q 22.35 21.6 22.2 21.45 22.2 21.5 22.15 21.55 Z"/>

<path fill="#000000" fill-opacity="0.8117647058823529" stroke="none" d="
M 20.5 20.55
Q 20.4 20.65 20.35 20.7 20.25 20.85 20.15 20.95 20.2 21 20.3 21.1 20.4 21.05 20.5 20.9 20.6 20.85 20.7 20.75 20.6 20.65 20.5 20.55 Z"/>

<path fill="#000000" fill-opacity="0.7333333333333333" stroke="none" d="
M 21 20.45
Q 21.05 20.35 21.1 20.35 21 20.25 20.9 20.15 20.875 20.175 20.85 20.2
L 20.8 20.25
Q 20.75 20.3 20.7 20.35 20.6 20.45 20.5 20.55 20.6 20.65 20.7 20.75 20.75 20.6 20.85 20.55 20.95 20.5 21 20.45 Z"/>

<path fill="#000000" fill-opacity="0.611764705882353" stroke="none" d="
M 21.25 19.8
Q 21.15 19.85 21.05 20 21 20.1 20.9 20.15 21 20.25 21.1 20.35 21.1 20.25 21.25 20.2 21.35 20.05 21.45 20 21.35 19.85 21.25 19.8 Z"/>

<path fill="#000000" fill-opacity="0.45098039215686275" stroke="none" d="
M 21.6 19.75
Q 21.9 19.5 22.15 19.2 22.1 19.1 22.05 19 21.75 19.3 21.45 19.6 21.35 19.7 21.25 19.8 21.35 19.85 21.45 20 21.5 19.9 21.6 19.75 Z"/>

<path fill="#000000" fill-opacity="0.06274509803921569" stroke="none" d="
M 23.35 21.1
Q 23.2 21.05 23.1 20.95 23.05 21 22.95 21.1 22.85 21.2 22.7 21.3 22.85 21.4 22.9 21.35 23.1 21.25 23.35 21.1 Z"/>

<path fill="#000000" fill-opacity="0.12156862745098039" stroke="none" d="
M 23.5 20.85
Q 23.6 20.8 23.7 20.7 23.6 20.6 23.5 20.5 23.4 20.65 23.35 20.7 23.2 20.8 23.1 20.95 23.2 21.05 23.35 21.1 23.45 20.95 23.5 20.85 Z"/>

<path fill="#000000" fill-opacity="0.3254901960784314" stroke="none" d="
M 24.8 19.25
Q 24.75 19.3 24.65 19.35 24.7 19.5 24.8 19.55 24.95 19.45 25.05 19.35 25.3 19.1 25.55 18.8 25.45 18.75 25.4 18.65 25.1 18.95 24.8 19.25 Z"/>

<path fill="#000000" fill-opacity="0.19607843137254902" stroke="none" d="
M 24.25 20.1
Q 24.15 20.05 24.05 19.95 23.85 20.15 23.7 20.35 23.6 20.45 23.5 20.5 23.6 20.6 23.7 20.7 23.8 20.6 23.9 20.5 24.1 20.3 24.25 20.1
M 29.7 14.3
Q 29.6 14.4 29.5 14.45 29.6 14.55 29.7 14.65 29.8 14.55 29.9 14.45 30.1 14.3 30.3 14.05 30.15 14 30.1 13.9 29.9 14.1 29.7 14.3
M 32.3 6.4
Q 32.4 6.3 32.5 6.2 32.4 6.1 32.3 6 32.1 6.2 32 6.4 32.05 6.45 32.1 6.55 32.2 6.5 32.3 6.4 Z"/>

<path fill="#000000" fill-opacity="0.26666666666666666" stroke="none" d="
M 24.05 19.95
Q 24.15 20.05 24.25 20.1 24.35 20 24.45 19.95 24.65 19.75 24.8 19.55 24.7 19.5 24.65 19.35 24.45 19.6 24.25 19.8 24.15 19.85 24.05 19.95
M 29.15 15.2
Q 29.25 15.15 29.3 15.05 29.5 14.85 29.7 14.65 29.6 14.55 29.5 14.45 29.3 14.7 29.15 14.9 29 14.95 28.9 15.05 29 15.15 29.15 15.2
M 34.75 9.2
Q 34.7 9.15 34.55 9 34.05 9.5 33.6 9.95 33.55 10.1 33.45 10.15 33.55 10.25 33.65 10.35 33.75 10.25 33.8 10.15 34.3 9.7 34.75 9.2 Z"/>

<path fill="#000000" fill-opacity="0.3176470588235294" stroke="none" d="
M 24.45 16.95
Q 24.3 16.85 24.25 16.8 23.7 17.3 23.1 17.9 23.05 18 22.95 18.05 23 18.15 23.1 18.25 23.2 18.15 23.3 18.05 23.85 17.5 24.45 16.95
M 28.9 15.05
Q 28.75 15.25 28.55 15.45 28.5 15.55 28.4 15.65 28.45 15.7 28.6 15.8 28.65 15.7 28.75 15.6 28.95 15.4 29.15 15.2 29 15.15 28.9 15.05 Z"/>

<path fill="#000000" fill-opacity="0.37254901960784315" stroke="none" d="
M 24.45 16.95
Q 24.55 16.9 24.6 16.8 24.95 16.4 25.35 16.05 25.3 15.9 25.2 15.8 24.8 16.25 24.45 16.6 24.35 16.65 24.25 16.8 24.3 16.85 24.45 16.95 Z"/>

<path fill="#000000" fill-opacity="0.4392156862745098" stroke="none" d="
M 27.8 16.55
Q 27.7 16.5 27.6 16.4 27.15 16.9 26.7 17.3 26.6 17.4 26.5 17.5 26.6 17.6 26.7 17.65 26.8 17.6 26.9 17.45 27.35 17 27.8 16.55
M 25.95 15.45
Q 25.85 15.35 25.8 15.25 25.55 15.45 25.4 15.65 25.3 15.75 25.2 15.8 25.3 15.9 25.35 16.05 25.45 15.9 25.55 15.85 25.75 15.65 25.95 15.45
M 32.65 10.95
Q 32.8 11 32.85 11.1 32.95 11 33.05 10.95 33.15 10.85 33.25 10.75 33.15 10.6 33.05 10.5 32.95 10.65 32.85 10.75 32.75 10.8 32.65 10.95 Z"/>

<path fill="#000000" fill-opacity="0.7254901960784313" stroke="none" d="
M 26.65 14.7
Q 26.8 14.55 26.85 14.5 27.05 14.3 27.25 14.15 27.15 14.05 27.05 13.95 26.85 14.1 26.7 14.3 26.6 14.4 26.55 14.5 26.6 14.6 26.65 14.7 Z"/>

<path fill="#000000" fill-opacity="0.5019607843137255" stroke="none" d="
M 26.3 15.05
Q 26.2 14.95 26.15 14.9 26.05 14.95 25.95 15.05 25.85 15.15 25.8 15.25 25.85 15.35 25.95 15.45 26.05 15.35 26.15 15.3 26.25 15.15 26.3 15.05 Z"/>

<path fill="#000000" fill-opacity="0.592156862745098" stroke="none" d="
M 26.15 14.9
Q 26.2 14.95 26.3 15.05 26.4 15 26.5 14.9 26.6 14.8 26.65 14.7 26.6 14.6 26.55 14.5 26.4 14.6 26.3 14.7 26.2 14.8 26.15 14.9 Z"/>

<path fill="#000000" fill-opacity="0.2549019607843137" stroke="none" d="
M 28 12.95
Q 28.1 12.85 28.2 12.8 28.05 12.7 28 12.6 27.8 12.75 27.7 13 27.65 13.05 27.8 13.2 27.9 13.05 28 12.95 Z"/>

<path fill="#000000" fill-opacity="0.12941176470588237" stroke="none" d="
M 30.25 13.75
Q 30.15 13.8 30.1 13.9 30.15 14 30.3 14.05 30.35 14 30.45 13.9 30.55 13.8 30.65 13.7 30.5 13.65 30.45 13.55 30.35 13.6 30.25 13.75
M 42.6 7.3
Q 42.75 7.4 42.85 7.45 42.95 7.4 43 7.3 42.95 7.2 42.85 7.1 42.7 7 42.65 6.9 42.55 7 42.45 7.05 42.55 7.15 42.6 7.3 Z"/>

<path fill="#000000" fill-opacity="0.3568627450980392" stroke="none" d="
M 29.3 11.3
Q 29.4 11.2 29.5 11.1 29.4 11 29.3 10.95 29.1 11.1 29 11.35 29 11.4 29.15 11.45 29.25 11.4 29.3 11.3 Z"/>

<path fill="#000000" fill-opacity="0.7490196078431373" stroke="none" d="
M 28.5 12.05
Q 28.45 12.1 28.4 12.2 28.45 12.3 28.6 12.4 28.65 12.3 28.7 12.2 28.7 12 28.75 11.85 28.65 11.9 28.5 12.05 Z"/>

<path fill="#000000" fill-opacity="0.7372549019607844" stroke="none" d="
M 29.65 10.55
Q 29.55 10.65 29.5 10.75 29.4 10.8 29.3 10.95 29.4 11 29.5 11.1 29.6 11 29.65 10.9 29.7 10.75 29.65 10.55 Z"/>

<path fill="#000000" fill-opacity="0.5529411764705883" stroke="none" d="
M 30.2 10
Q 30.25 9.75 30.25 9.6 30.05 9.75 30 10 29.95 10.05 30.05 10.15 30.15 10.1 30.2 10 Z"/>

<path fill="#000000" fill-opacity="0.4823529411764706" stroke="none" d="
M 36.1 9.35
Q 36.15 9.5 36.25 9.6 36.4 9.65 36.45 9.75 36.55 9.7 36.55 9.6 36.45 9.4 36.3 9.2 36.15 9.3 36.1 9.35 Z"/>

<path fill="#000000" fill-opacity="0.14901960784313725" stroke="none" d="
M 36.3 9.2
Q 36.15 9.15 36.05 9 36 8.9 35.9 8.85 35.9 9 35.95 9.15 35.95 9.25 36.1 9.35 36.15 9.3 36.3 9.2 Z"/>

<path fill="#000000" fill-opacity="0.9411764705882353" stroke="none" d="
M 35.7 8.65
L 35.8 8.5
Q 35.7 8.25 35.5 8.1 35.4 8.15 35.3 8.25 35.45 8.4 35.5 8.5 35.6 8.55 35.7 8.65 Z"/>

<path fill="#000000" fill-opacity="0.33725490196078434" stroke="none" d="
M 33.25 10.35
Q 33.15 10.45 33.05 10.5 33.15 10.6 33.25 10.75 33.35 10.6 33.45 10.55 33.55 10.45 33.65 10.35 33.55 10.25 33.45 10.15 33.35 10.25 33.25 10.35 Z"/>

<path fill="#000000" fill-opacity="0.6431372549019608" stroke="none" d="
M 32.5 11.45
Q 32.45 11.35 32.3 11.25 32.2 11.35 32.1 11.45 32 11.55 31.9 11.6 32.05 11.7 32.1 11.85 32.2 11.75 32.35 11.65 32.4 11.55 32.5 11.45
M 31.1 8.15
L 31.2 8.25
Q 31.25 8.15 31.25 8.05 31.35 7.9 31.35 7.7 31.25 7.9 31.1 8.15 Z"/>

<path fill="#000000" fill-opacity="0.7686274509803922" stroke="none" d="
M 31.6 12.05
Q 31.5 12.1 31.35 12.2 31.5 12.3 31.6 12.4 31.65 12.35 31.7 12.2 31.95 12.05 32.1 11.85 32.05 11.7 31.9 11.6 31.7 11.85 31.6 12.05 Z"/>

<path fill="#000000" fill-opacity="0.41568627450980394" stroke="none" d="
M 31.7 7.3
Q 31.85 7.25 31.95 7.15 31.8 7.05 31.7 6.9 31.55 7.15 31.5 7.35 31.4 7.4 31.55 7.5 31.6 7.4 31.7 7.3 Z"/>

<path fill="#000000" fill-opacity="0.8431372549019608" stroke="none" d="
M 31.9 6.8
Q 31.85 6.85 31.7 6.9 31.8 7.05 31.95 7.15 32 7.05 32.05 6.9 32.1 6.75 32.1 6.55 32 6.65 31.9 6.8 Z"/>

<path fill="#000000" fill-opacity="0.3686274509803922" stroke="none" d="
M 34.55 9
Q 34.7 9.15 34.75 9.2 34.85 9.15 34.95 9.05 35.05 8.9 35.15 8.85 35.05 8.75 34.95 8.65 34.85 8.75 34.75 8.85 34.7 8.95 34.55 9 Z"/>

<path fill="#000000" fill-opacity="0.4666666666666667" stroke="none" d="
M 35.3 8.25
Q 35.2 8.4 35.1 8.45 35 8.55 34.95 8.65 35.05 8.75 35.15 8.85 35.2 8.75 35.3 8.65 35.45 8.55 35.5 8.5 35.45 8.4 35.3 8.25 Z"/>

<path fill="#000000" fill-opacity="0.4196078431372549" stroke="none" d="
M 32.65 5.65
Q 32.55 5.75 32.45 5.8 32.35 5.9 32.3 6 32.4 6.1 32.5 6.2 32.6 6.1 32.6 6 32.7 5.8 32.65 5.65 Z"/>

<path fill="#000000" fill-opacity="0.5137254901960784" stroke="none" d="
M 34.35 2.4
Q 34.25 2.3 34.2 2.25 33.45 3 32.75 3.8
L 32.85 3.9
Q 32.95 3.8 33.05 3.75 33.7 3.05 34.35 2.4 Z"/>

<path fill="#000000" fill-opacity="0.42745098039215684" stroke="none" d="
M 40 5.05
Q 40.1 5.1 40.25 5.2 40.3 5.15 40.4 5 40.3 4.95 40.2 4.85 40.1 4.75 40 4.65 39.9 4.8 39.8 4.85 39.95 4.95 40 5.05 Z"/>

<path fill="#000000" fill-opacity="0.7019607843137254" stroke="none" d="
M 39.05 3.35
Q 39 3.25 38.9 3.2 38.75 3.1 38.7 3 38.65 3.15 38.75 3.35 38.75 3.45 38.9 3.55 38.95 3.45 39.05 3.35 Z"/>

<path fill="#000000" fill-opacity="0.34901960784313724" stroke="none" d="
M 39.25 3.95
Q 39.35 3.8 39.35 3.75 39.25 3.55 39.05 3.35 38.95 3.45 38.9 3.55 39 3.6 39.05 3.7 39.15 3.8 39.25 3.95 Z"/>

<path fill="#000000" fill-opacity="0.6509803921568628" stroke="none" d="
M 39.85 4.45
Q 39.75 4.4 39.6 4.3 39.6 4.55 39.65 4.7 39.75 4.75 39.8 4.85 39.9 4.8 40 4.65 39.9 4.55 39.85 4.45 Z"/>

<path fill="#000000" fill-opacity="0.35294117647058826" stroke="none" d="
M 37.55 1.85
Q 37.65 1.95 37.75 2.05 37.85 1.9 37.95 1.85 37.85 1.7 37.75 1.65 37.65 1.55 37.55 1.5 37.5 1.55 37.4 1.7 37.45 1.75 37.55 1.85 Z"/>

<path fill="#000000" fill-opacity="0.47058823529411764" stroke="none" d="
M 35.8 1.25
Q 35.75 1.15 35.65 1.05 35.6 1.2 35.5 1.25 35.45 1.35 35.3 1.5
L 35.45 1.55
Q 35.65 1.45 35.8 1.25 Z"/>

<path fill="#000000" fill-opacity="0.1803921568627451" stroke="none" d="
M 37 1.3
Q 37.1 1.4 37.15 1.5 37.3 1.6 37.4 1.7 37.5 1.55 37.55 1.5 37.45 1.35 37.4 1.3 37.3 1.2 37.15 1.1 37.05 1.2 37 1.3 Z"/>

<path fill="#000000" fill-opacity="0.27058823529411763" stroke="none" d="
M 38.3 2.6
Q 38.4 2.5 38.5 2.4 38.4 2.35 38.3 2.2 38.1 2.05 37.95 1.85 37.85 1.9 37.75 2.05 37.9 2.2 38.15 2.45 38.2 2.55 38.3 2.6 Z"/>

<path fill="#000000" fill-opacity="0.8392156862745098" stroke="none" d="
M 43.45 9.55
Q 43.3 9.45 43.2 9.35 43.05 9.5 42.95 9.8
L 43.05 9.9
Q 43.15 9.8 43.2 9.75 43.3 9.6 43.45 9.55 Z"/>

<path fill="#000000" fill-opacity="0.8196078431372549" stroke="none" d="
M 40.6 12.35
Q 40.75 12.25 40.85 12.2 40.7 12.1 40.6 11.95 40.5 12.1 40.4 12.2 40.35 12.25 40.25 12.35 40.3 12.45 40.45 12.55 40.5 12.45 40.6 12.35 Z"/>

<path fill="#000000" fill-opacity="0.10980392156862745" stroke="none" d="
M 41 11.95
L 41.1 12.1
Q 41.35 12 41.55 11.8 41.45 11.7 41.35 11.6 41.25 11.7 41.15 11.8 41.1 11.9 41 11.95
M 42.65 10.25
Q 42.45 10.5 42.3 10.65 42.2 10.75 42.1 10.85 42.2 10.95 42.25 11 42.35 10.95 42.45 10.9 42.95 10.6 42.65 10.25 Z"/>

<path fill="#000000" fill-opacity="0.18823529411764706" stroke="none" d="
M 41.55 11.4
Q 41.45 11.5 41.35 11.6 41.45 11.7 41.55 11.8 41.6 11.7 41.7 11.6 42 11.3 42.25 11 42.2 10.95 42.1 10.85 41.85 11.1 41.55 11.4 Z"/>

<path fill="#000000" fill-opacity="0.4549019607843137" stroke="none" d="
M 41.5 6.55
Q 41.6 6.65 41.7 6.75 41.8 6.65 41.9 6.55 41.8 6.4 41.7 6.35 41.6 6.25 41.5 6.15 41.45 6.25 41.35 6.35 41.45 6.4 41.5 6.55 Z"/>

<path fill="#000000" fill-opacity="0.5333333333333333" stroke="none" d="
M 43.55 8.95
Q 43.45 9.1 43.4 9.15 43.3 9.25 43.2 9.35 43.3 9.45 43.45 9.55 43.55 9.45 43.55 9.35 43.55 9.2 43.55 8.95 Z"/>

<path fill="#000000" fill-opacity="0.3843137254901961" stroke="none" d="
M 43.75 8.4
L 43.85 8.3
Q 43.5 7.75 43 7.3 42.95 7.4 42.85 7.45 43.2 7.85 43.6 8.25 43.7 8.3 43.75 8.4 Z"/>

<path fill="#000000" fill-opacity="0.996078431372549" stroke="none" d="
M 43.55 8.95
Q 43.7 8.9 43.7 8.75 43.8 8.65 43.75 8.4 43.7 8.3 43.6 8.25 43.2 7.85 42.85 7.45 42.75 7.4 42.6 7.3 42.55 7.15 42.45 7.05 42.35 7 42.25 6.9 42.1 6.95 41.9 6.85 41.75 6.8 41.7 6.75 41.6 6.65 41.5 6.55 41.45 6.4 41.35 6.35 41.2 6.25 41.15 6.15 40.65 5.7 40.25 5.2 40.1 5.1 40 5.05 39.95 4.95 39.8 4.85 39.75 4.75 39.65 4.7 39.6 4.55 39.6 4.3 39.55 4.2 39.45 4.1 39.35 4 39.25 3.95 39.15 3.8 39.05 3.7 39 3.6 38.9 3.55 38.75 3.45 38.75 3.35 38.65 3.15 38.7 3 38.6 2.9 38.5 2.85 38.4 2.7 38.3 2.6 38.2 2.55 38.15 2.45 37.9 2.2 37.75 2.05 37.65 1.95 37.55 1.85 37.45 1.75 37.4 1.7 37.3 1.6 37.15 1.5 37.1 1.4 37 1.3 36.9 1.2 36.8 1.1 36.4 1.35 36 1.2 35.9 1.15 35.8 1.25 35.65 1.45 35.45 1.55
L 35.3 1.5
Q 35.25 1.55 35.15 1.6 35.05 1.75 34.95 1.85 34.75 2.05 34.55 2.2 34.45 2.35 34.35 2.4 33.7 3.05 33.05 3.75 32.95 3.8 32.85 3.9 32.2 4.7 32.75 5.5 32.75 5.55 32.65 5.65 32.7 5.8 32.6 6 32.6 6.1 32.5 6.2 32.4 6.3 32.3 6.4 32.2 6.5 32.1 6.55 32.1 6.75 32.05 6.9 32 7.05 31.95 7.15 31.85 7.25 31.7 7.3 31.6 7.4 31.55 7.5 31.5 7.6 31.35 7.7 31.35 7.9 31.25 8.05 31.25 8.15 31.2 8.25 31.1 8.35 31 8.4 30.9 8.55 30.8 8.65 30.85 8.8 30.75 9 30.75 9.15 30.6 9.2 30.55 9.3 30.45 9.35 30.35 9.5 30.25 9.6 30.25 9.75 30.2 10 30.15 10.1 30.05 10.15 29.95 10.25 29.85 10.35 29.75 10.45 29.65 10.55 29.7 10.75 29.65 10.9 29.6 11 29.5 11.1 29.4 11.2 29.3 11.3 29.25 11.4 29.15 11.45 29 11.55 28.9 11.65 28.85 11.75 28.75 11.85 28.7 12 28.7 12.2 28.65 12.3 28.6 12.4 28.5 12.5 28.4 12.6 28.25 12.7 28.2 12.8 28.1 12.85 28 12.95 27.9 13.05 27.8 13.2 27.7 13.25 27.6 13.35 27.55 13.45 27.4 13.55 27.4 13.75 27.4 13.9 27.3 14 27.25 14.15 27.05 14.3 26.85 14.5 26.8 14.55 26.65 14.7 26.6 14.8 26.5 14.9 26.4 15 26.3 15.05 26.25 15.15 26.15 15.3 26.05 15.35 25.95 15.45 25.75 15.65 25.55 15.85 25.45 15.9 25.35 16.05 24.95 16.4 24.6 16.8 24.55 16.9 24.45 16.95 23.85 17.5 23.3 18.05 23.2 18.15 23.1 18.25 22.7 18.65 22.35 19.05 22.25 19.1 22.15 19.2 21.9 19.5 21.6 19.75 21.5 19.9 21.45 20 21.35 20.05 21.25 20.2 21.1 20.25 21.1 20.35 21.05 20.35 21 20.45 20.95 20.5 20.85 20.55 20.75 20.6 20.7 20.75 20.6 20.85 20.5 20.9 20.4 21.05 20.3 21.1 20.1 21.3 19.9 21.35 19.85 21.4 19.75 21.3 19.6 21.5 19.4 21.65 19.3 21.8 19.25 21.85
L 19.2 21.85
Q 19.1 21.95 19 22.1 18.9 22.15 18.8 22.2 18.7 22.35 18.6 22.45 18.5 22.5 18.4 22.65 18.35 22.7 18.25 22.8 18.15 22.95 18.05 23 17.95 23.05 17.9 23.2 17.8 23.25 17.65 23.3 17.55 23.45 17.5 23.55 17.4 23.65 17.3 23.75 17.25 23.8 17.15 23.95 17.05 24.05 16.95 24.1 16.9 24.2 16.8 24.3 16.65 24.4 16.55 24.5 16.5 24.6 16.4 24.65 16.3 24.8 16.2 24.9 16 25.05 15.8 25.1 15.7 25.15 15.65 25.05 15.55 25.15 15.45 25.3 15.35 25.35 15.25 25.4 15.15 25.55 15.05 25.65 14.95 25.7 14.85 25.8 14.75 25.9 14.7 26 14.6 26.1 14.45 26.2 14.35 26.3 14.35 26.4 14.2 26.5 14.1 26.55 14 26.65 13.95 26.75 13.85 26.85 13.7 26.95 13.65 27.05 13.55 27.15 13.45 27.25 13.35 27.35 13.25 27.45 13.15 27.5 12.25 28.5 11.3 29.4 11.25 29.5 11.1 29.6 10.9 29.75 10.75 30 10.65 30.05 10.55 30.1 10.5 30.25 10.4 30.35 10.25 30.4 10.2 30.55 10.1 30.6 10 30.7 9.9 30.85 9.8 30.9 9.7 30.95 9.6 31.1 9.5 31.2 9.4 31.3 9.4 31.5 9.4 31.7 9.35 31.75 9.25 31.85 9.15 31.95 9.05 32.05 9 32.15 8.9 32.25 8.8 32.3 8.65 32.45 8.65 32.6 8.65 32.8 8.55 32.95 8.45 33 8.35 33.1 8.3 33.2 8.3 33.4 8.25 33.55 8.2 33.7 8.15 33.8 8.05 33.85 7.95 33.95 7.9 34.15 7.9 34.3 7.85 34.4 7.8 34.5 7.65 34.6 7.55 34.7 7.5 34.8 7.4 34.85 7.4 35.05 7.3 35.2 7.3 35.3 7.15 35.4 7.1 35.55 7 35.6 6.9 35.65 6.8 35.8 6.95 36.25 6.3 36.75 6.2 36.85 6.05 36.95 6.15 37 6.3 37.15 6.35 37.25 6.45 37.35
L 6.55 37.25
Q 7.9 37.85 9.05 36.95 9.15 36.85 9.25 36.75 9.4 36.6 9.65 36.4 9.7 36.25 9.7 36.15 9.55 34.9 10.4 33.75 10.3 33.7 10.3 33.6 10.4 33.35 10.55 33.2 10.65 33.05 10.75 33 10.85 32.95 10.9 32.8 10.85 32.7 10.9 32.6 10.95 32.45 11.15 32.2 11.25 32.15 11.35 32.05 11.45 31.95 11.55 31.85 11.6 31.75 11.75 31.65 11.85 31.6 11.85 31.45 12 31.35 12.1 31.3 12 31.2 12 31.15 12.25 30.7 12.65 30.35 12.75 30.2 12.85 30.15 13.15 29.75 13.55 29.35 13.65 29.3 13.75 29.2 14.05 28.9 14.3 28.65 14.4 28.55 14.5 28.5 14.6 28.35 14.7 28.25 14.75 28.35 14.9 28.5 14.95 28.35 15.05 28.25 15.2 28.2 15.3 28.1 15.35 28 15.45 27.9 15.55 27.8 15.65 27.7 15.7 27.65 15.8 27.5 15.95 27.4 16 27.35 16.1 27.25 16.2 27.15 16.3 27 16.4 26.95 16.5 26.85 16.6 26.75 16.7 26.65 16.8 26.6 16.9 26.45 17 26.4 17.05 26.3 17.15 26.15 17.25 26.1 17.35 26.05 17.4 25.9 17.55 25.8 17.65 25.75 17.65 25.6 17.8 25.55 17.9 25.45 18 25.3 18.05 25.25 18.15 25.15 18.25 25.05 18.3 25.15 18.4 25.25 18.5 25.15 18.6 25.05 18.7 24.95 18.8 24.85 18.9 24.8 19 24.65 19.1 24.55 19.15 24.5 19.25 24.4 19.4 24.3 19.5 24.2 19.55 24.1 19.65 24 19.75 23.95 19.8 23.8 19.9 23.7 20 23.65 20.15 23.55 20.2 23.45 20.3 23.35 20.45 23.2 20.55 23.1 20.6 23.05 20.7 22.95 20.8 22.85 20.9 22.8 21.05 22.6 21.25 22.45 21.35 22.35 21.45 22.25 21.55 22.2 21.6 22.05 21.75 21.95 21.85 21.85 21.975 21.725 22.1 21.6 22.125 21.575 22.15 21.55 22.2 21.5 22.2 21.45 22.35 21.6 22.4 21.65 22.45 21.6 22.55 21.5 22.65 21.4 22.7 21.3 22.85 21.2 22.95 21.1 23.05 21 23.1 20.95 23.2 20.8 23.35 20.7 23.4 20.65 23.5 20.5 23.6 20.45 23.7 20.35 23.85 20.15 24.05 19.95 24.15 19.85 24.25 19.8 24.45 19.6 24.65 19.35 24.75 19.3 24.8 19.25 25.1 18.95 25.4 18.65 25.45 18.5 25.55 18.45 26.05 18 26.5 17.5 26.6 17.4 26.7 17.3 27.15 16.9 27.6 16.4 27.7 16.3 27.8 16.2 28.1 15.9 28.4 15.65 28.5 15.55 28.55 15.45 28.75 15.25 28.9 15.05 29 14.95 29.15 14.9 29.3 14.7 29.5 14.45 29.6 14.4 29.7 14.3 29.9 14.1 30.1 13.9 30.15 13.8 30.25 13.75 30.35 13.6 30.45 13.55 30.55 13.45 30.65 13.35 30.75 13.25 30.85 13.2 30.95 13.05 31 12.95 31.1 12.9 31.25 12.8 31.15 12.7 31.1 12.65 31.25 12.4 31.35 12.2 31.5 12.1 31.6 12.05 31.7 11.85 31.9 11.6 32 11.55 32.1 11.45 32.2 11.35 32.3 11.25 32.4 11.2 32.45 11.05 32.6 11 32.65 10.95 32.75 10.8 32.85 10.75 32.95 10.65 33.05 10.5 33.15 10.45 33.25 10.35 33.35 10.25 33.45 10.15 33.55 10.1 33.6 9.95 34.05 9.5 34.55 9 34.7 8.95 34.75 8.85 34.85 8.75 34.95 8.65 35 8.55 35.1 8.45 35.2 8.4 35.3 8.25 35.4 8.15 35.5 8.1 35.7 8.25 35.8 8.5
L 35.7 8.65
Q 35.8 8.75 35.9 8.85 36 8.9 36.05 9 36.15 9.15 36.3 9.2 36.45 9.4 36.55 9.6 36.55 9.7 36.45 9.75 36.55 9.85 36.65 9.95 36.8 10.1 36.9 10.35 36.9 10.45 36.85 10.5 37.65 11.7 37.5 12.95 37.45 13.05 37.55 13.15 37.65 13.2 37.75 13.3 37.85 13.45 37.95 13.55 38 13.6 38.1 13.55 38.65 13.4 39.1 13.15 39.2 13 39.25 12.95 39.35 12.85 39.45 12.7 39.55 12.85 39.65 12.95 39.75 12.85 39.85 12.75 39.95 12.65 40 12.55 40.1 12.45 40.25 12.35 40.35 12.25 40.4 12.2 40.5 12.1 40.6 11.95 40.7 12.1 40.85 12.2 40.9 12.1 41 11.95 41.1 11.9 41.15 11.8 41.25 11.7 41.35 11.6 41.45 11.5 41.55 11.4 41.85 11.1 42.1 10.85 42.2 10.75 42.3 10.65 42.45 10.5 42.65 10.25 42.75 10.2 42.85 10.1 42.95 10 43.05 9.9
L 42.95 9.8
Q 43.05 9.5 43.2 9.35 43.3 9.25 43.4 9.15 43.45 9.1 43.55 8.95 Z"/>
</g>
</defs>

<g id="game" transform="matrix( 1, 0, 0, 1, 2.95,2.95) ">
<g transform="matrix( 1, 0, 0, 1, 0,0) ">
<use xlink:href="#game_0_Layer0_0_FILL"/>
</g>
</g>
</svg>
