<?xml version="1.0" encoding="utf-8"?>
<!-- Generator: Adobe Illustrator 16.0.0, SVG Export Plug-In . SVG Version: 6.00 Build 0)  -->
<!DOCTYPE svg PUBLIC "-//W3C//DTD SVG 1.1//EN" "http://www.w3.org/Graphics/SVG/1.1/DTD/svg11.dtd">
<svg version="1.1" xmlns="http://www.w3.org/2000/svg" xmlns:xlink="http://www.w3.org/1999/xlink" x="0px" y="0px"
	 width="249.262px" height="331.958px" viewBox="0 0 249.262 331.958" enable-background="new 0 0 249.262 331.958"
	 xml:space="preserve">
<symbol  id="chickens.ai_Assets_x2F_Layer_1_x2F__x3C_Path_x3E__x5F_22" viewBox="0.016 -11.545 19.159 11.545">
	<path fill-rule="evenodd" clip-rule="evenodd" fill="#FFFFFF" d="M12.85-4.4c2.295-1.067,4.403-1.617,6.325-1.65
		C17.329-6.074,15.438-6.458,13.5-7.2c-1.933-0.767-4.183-2-6.75-3.7c-1.7-1.167-3.567-0.75-5.6,1.25c-1.1,1.133-1.4,2.5-0.9,4.1
		C0.65-4.217,1.567-2.833,3-1.4C3.867-0.533,4.983-0.067,6.35,0c0.9-0.433,2.1-1.217,3.6-2.35C11.483-3.517,12.45-4.2,12.85-4.4z"/>
</symbol>
<symbol  id="chickens.ai_Assets_x2F_Layer_1_x2F__x3C_Path_x3E__x5F_28" viewBox="0 -7.9 8.3 7.9">
	<path fill-rule="evenodd" clip-rule="evenodd" fill="#FFFFFF" d="M8.3-3.95c0-1.066-0.4-2-1.2-2.8C6.267-7.517,5.283-7.9,4.15-7.9
		S2.033-7.517,1.2-6.75C0.4-5.95,0-5.017,0-3.95c0,1.1,0.4,2.034,1.2,2.8C2-0.383,2.983,0,4.15,0C5.317,0,6.3-0.383,7.1-1.15
		C7.9-1.917,8.3-2.85,8.3-3.95z"/>
</symbol>
<symbol  id="chickens.ai_Assets_x2F_Layer_1_x2F__x3C_Path_x3E__x5F_29" viewBox="0 -2.65 3.05 2.65">
	<path fill-rule="evenodd" clip-rule="evenodd" fill="#FFFFFF" d="M3.05-1.3c0-0.367-0.15-0.684-0.45-0.95
		c-0.3-0.267-0.65-0.4-1.05-0.4c-0.433,0-0.8,0.133-1.1,0.4C0.15-1.983,0-1.667,0-1.3s0.15,0.667,0.45,0.9
		C0.75-0.133,1.117,0,1.55,0C1.95,0,2.3-0.133,2.6-0.4C2.9-0.667,3.05-0.967,3.05-1.3z"/>
</symbol>
<symbol  id="chickens.ai_Assets_x2F_Layer_1_x2F__x3C_Path_x3E__x5F_30" viewBox="-0.018 -7.932 8.336 7.914">
	<path fill-rule="evenodd" clip-rule="evenodd" fill="#FFFFFF" d="M8.3-3.55c0.1-1.067-0.216-2.034-0.95-2.9
		C6.617-7.283,5.683-7.767,4.55-7.9S2.4-7.75,1.5-7.05C0.633-6.383,0.133-5.5,0-4.4c-0.1,1.1,0.217,2.066,0.95,2.9
		c0.733,0.867,1.667,1.35,2.8,1.45C4.883,0.083,5.9-0.2,6.8-0.9C7.667-1.567,8.167-2.45,8.3-3.55z"/>
</symbol>
<symbol  id="chickens.ai_Assets_x2F_Layer_1_x2F__x3C_Path_x3E__x5F_38" viewBox="0 -19.45 8.702 19.45">
	<path fill-rule="evenodd" clip-rule="evenodd" fill="#BF2932" d="M0-17.5L1-2.25c0.067,0.633,0.483,1.167,1.25,1.6
		C3.017-0.217,3.933,0,5,0s1.95-0.217,2.65-0.65c0.733-0.434,1.083-0.967,1.05-1.6l-1.15-17.2C4.717-17.517,2.2-16.867,0-17.5z"/>
</symbol>
<symbol  id="chickens.ai_Assets_x2F_Layer_1_x2F__x3C_Path_x3E__x5F_40" viewBox="0 -19.55 7.85 19.504">
	<path fill-rule="evenodd" clip-rule="evenodd" fill="#BF2932" d="M7.85-17.35c-2.1,0.567-4.633-0.167-7.6-2.2L0-2.35
		c0,0.6,0.367,1.133,1.1,1.6c0.767,0.433,1.667,0.667,2.7,0.7C4.867-0.017,5.783-0.2,6.55-0.6C7.283-1,7.667-1.517,7.7-2.15
		L7.85-17.35z"/>
</symbol>
<g id="Layer_23">
	<path fill-rule="evenodd" clip-rule="evenodd" fill="none" stroke="#000000" stroke-width="9" d="M169.051,54.407
		c0.067-6.5-2.816-9.017-8.65-7.55c-10.533,2.6-21.367,11.2-32.5,25.8c-0.133-10.767-1.283-19.467-3.45-26.1
		c-3.3-10.067-9.05-16.55-17.25-19.45h0.05l-0.1-0.05c-0.1-0.133-0.4-1.033-0.9-2.7c-0.367-1.367-0.55-2.183-0.55-2.45
		c0.1-1.033,0.9-1.833,2.4-2.4c1.667-0.1,2.5-0.483,2.5-1.15c0-0.7-0.967-1.2-2.9-1.5c-2.2-0.333-4.333,0.15-6.4,1.45
		c-0.966,0.633-1.083,0.4-0.35-0.7c0.7-1,1.8-1.816,3.3-2.45c3.1-1.233,4.217-2.05,3.35-2.45l-2.2-0.2
		c-0.433-0.067-0.983-0.067-1.65,0c-1.3,0.1-2.467,0.433-3.5,1c-2.567,1.566-4.017,2.417-4.35,2.55c-0.167,0.1-0.3,0-0.4-0.3
		c-0.4-1-0.517-2.133-0.35-3.4l0.4-1.65c0.733-1.566,1.233-2.95,1.5-4.15c0.5-2.4-0.433-2.7-2.8-0.9
		c-4.8,3.733-7.733,10.117-8.8,19.15c-4.333,0.7-8.367,2.25-12.1,4.65c-6.367,4.033-10.667,9.867-12.9,17.5l-0.55,2.05
		c-1.933,8.333-2.667,17.9-2.2,28.7c0.5,11.667,0.35,19.883-0.45,24.65c-0.167,1.034-0.367,2-0.6,2.9l-1.95,6.75l-7.4,15.2
		c-1.5,2.533-3.867,6.417-7.1,11.65c-2.967,4.834-5.4,9.101-7.3,12.8c-6.4,5.801-11.55,12.15-15.45,19.051
		c-6.934,12.333-11.233,27.6-12.9,45.8c-0.367,4.366,1.233,9.149,4.8,14.35c2.7,3.967,6.433,8,11.2,12.101
		c1.9,7.199,5.417,13.133,10.55,17.8c5.267,4.8,12.917,8.916,22.95,12.35l-2.35,35.8c-9.233,1.034-14.733,5.884-16.5,14.551
		c-0.2,0.966-0.3,1.517-0.3,1.649c0.1,0.467,0.6,0.7,1.5,0.7c0.967,0,1.684-0.483,2.15-1.45c0.133-0.366,0.333-1.166,0.6-2.399
		c0.233-0.867,1.184-2.101,2.85-3.7c2.533-2.4,5.667-3.983,9.4-4.75l1.15,9.899c-0.233,2.7,0.35,4.051,1.75,4.051
		c0.9,0,1.517-0.467,1.85-1.4c0.2-0.5,0.317-1.283,0.35-2.35l2.55-10.2c3.833,0.767,7.083,2.366,9.75,4.8
		c1.767,1.6,2.75,2.833,2.95,3.7c0.067,0.399,0.117,1.116,0.15,2.149c0.167,0.801,0.7,1.167,1.6,1.101
		c0.933-0.066,1.483-0.434,1.65-1.101c0.067-0.267,0.033-0.916-0.1-1.949c-0.4-3.101-1.517-5.684-3.35-7.75
		c-2.667-3.034-6.784-4.867-12.35-5.5l2.25-33.551c4.2,1.2,8.8,2.351,13.8,3.45c7.133,1.566,16.833,2.384,29.1,2.45
		c12.033,0.066,21.233-0.583,27.6-1.95l5.95-1.399l0.4,29.75c-5.6,0.833-9.817,2.816-12.65,5.949
		c-1.933,2.101-3.183,4.717-3.75,7.851c-0.2,0.934-0.267,1.566-0.2,1.899c0.133,0.7,0.65,1.067,1.55,1.101s1.467-0.367,1.7-1.2
		c0.133-1,0.233-1.717,0.3-2.15c0.1-0.733,1.133-2,3.1-3.8c2.8-2.5,6.133-4.184,10-5.05l2,10.1c0.067,1.2,0.15,1.967,0.25,2.301
		c0.267,0.966,0.867,1.433,1.8,1.399c1.4-0.066,2.05-1.45,1.95-4.149l1.65-9.9c3.7,0.634,6.767,2.116,9.2,4.45
		c1.633,1.566,2.5,2.767,2.6,3.6c0.2,1.267,0.367,2.05,0.5,2.351c0.4,1,1.083,1.483,2.05,1.449c0.933-0.033,1.45-0.3,1.55-0.8
		c0.034-0.1-0.033-0.633-0.2-1.6c-0.467-3.367-1.6-6.15-3.4-8.351c-2.733-3.333-6.85-5.233-12.35-5.699l-0.4-31.65
		c8.1-2.533,14.95-5.616,20.55-9.25c6.167-4,11.033-8.833,14.6-14.5c13.367-7.066,25.2-15.667,35.5-25.8
		c10.601-10.367,16.617-19.5,18.051-27.4c0.8-4.267-2.134-5.366-8.801-3.3c-6.833,2.9-10.25,4.25-10.25,4.05l2.65-2.649
		c2.4-2.2,5.2-4.4,8.4-6.601c6.233-4.3,10-8,11.3-11.1c1-2.4,0.566-4.533-1.3-6.4c-1.7-1.733-5.017-2.45-9.95-2.149l-6.851,0.949
		l8.801-5.55c1.166-0.733,3.25-2.017,6.25-3.85c2.8-1.767,4.949-3.283,6.449-4.55c4.4-3.834,4.834-7.034,1.301-9.601
		c-3.467-2.566-8.567-3.467-15.301-2.7l-9,1.95l3.601-2.45c3.233-2.1,6.883-4.283,10.95-6.55c7-3.899,10.35-7.149,10.05-9.75
		c-0.267-2.033-2.867-3.783-7.8-5.25c-3.801-1.133-9.9-0.966-18.301,0.5c-2.6,0.467-3.966,0.567-4.1,0.3
		c-0.134-0.3,1.333-1.4,4.4-3.3c7-4.3,12.216-7.75,15.649-10.35c2.167-1.667,4.617-3.883,7.351-6.65
		c1.866-1.867,3.083-4.017,3.649-6.45c0.634-2.667,0.3-4.867-1-6.6c-3.434-4.567-11.816-4.383-25.149,0.55
		c-4.7,1.733-9.617,4.05-14.75,6.95l-6.351,3.8c4.467-4.466,7.367-7.65,8.7-9.55c1.3-1.833,2.517-3.317,3.65-4.45
		c2.833-2.8,4.966-5.767,6.399-8.9c2-4.233,2.283-8.017,0.851-11.35c-1.167-2.733-3.983-3.95-8.45-3.65
		c-3.3,0.233-8.316,1.45-15.05,3.65c-7.7,2.5-16.434,7.383-26.2,14.65c-7.267,6-10.2,8.283-8.8,6.85
		c1.767-1.767,3.917-6.417,6.45-13.95l3.3-10.8C168.352,61.074,168.985,57.674,169.051,54.407z"/>
</g>
<g id="Layer_22">
	<path fill-rule="evenodd" clip-rule="evenodd" fill="#F59331" d="M158.452,313.157c1.8,2.2,2.933,4.983,3.4,8.351
		c0.167,0.967,0.233,1.5,0.2,1.6c-0.1,0.5-0.617,0.767-1.55,0.8c-0.967,0.034-1.65-0.449-2.05-1.449
		c-0.133-0.301-0.3-1.084-0.5-2.351c-0.1-0.833-0.967-2.033-2.6-3.6c-2.434-2.334-5.5-3.816-9.2-4.45l-1.65,9.9
		c0.1,2.699-0.55,4.083-1.95,4.149c-0.933,0.033-1.533-0.434-1.8-1.399c-0.1-0.334-0.183-1.101-0.25-2.301l-2-10.1
		c-3.867,0.866-7.2,2.55-10,5.05c-1.967,1.8-3,3.066-3.1,3.8c-0.066,0.434-0.167,1.15-0.3,2.15c-0.233,0.833-0.8,1.233-1.7,1.2
		s-1.417-0.4-1.55-1.101c-0.067-0.333,0-0.966,0.2-1.899c0.567-3.134,1.817-5.75,3.75-7.851c2.833-3.133,7.05-5.116,12.65-5.949
		l-0.5-38.051c0-0.6,0.367-1.133,1.1-1.6c0.767-0.434,1.684-0.667,2.75-0.7c1.034-0.033,1.934,0.15,2.7,0.55
		c0.733,0.4,1.117,0.917,1.15,1.551l0.45,38C151.602,307.923,155.718,309.824,158.452,313.157z"/>
</g>
<g id="_x3C_Path_x3E__x5F_40">
	
		<use xlink:href="#chickens.ai_Assets_x2F_Layer_1_x2F__x3C_Path_x3E__x5F_40"  width="7.85" height="19.504" y="-19.55" transform="matrix(1 0 0 -1 137.9517 267.2573)" overflow="visible" opacity="0.6719" enable-background="new    "/>
</g>
<g id="Layer_20">
	<path fill-rule="evenodd" clip-rule="evenodd" fill="#F59331" d="M61.852,270.857l-2.5,38.101c5.566,0.633,9.683,2.466,12.35,5.5
		c1.833,2.066,2.95,4.649,3.35,7.75c0.133,1.033,0.167,1.683,0.1,1.949c-0.167,0.667-0.717,1.034-1.65,1.101
		c-0.9,0.066-1.433-0.3-1.6-1.101c-0.033-1.033-0.083-1.75-0.15-2.149c-0.2-0.867-1.183-2.101-2.95-3.7
		c-2.667-2.434-5.917-4.033-9.75-4.8l-2.55,10.2c-0.033,1.066-0.15,1.85-0.35,2.35c-0.333,0.934-0.95,1.4-1.85,1.4
		c-1.4,0-1.983-1.351-1.75-4.051l-1.15-9.899c-3.733,0.767-6.867,2.35-9.4,4.75c-1.667,1.6-2.617,2.833-2.85,3.7
		c-0.267,1.233-0.467,2.033-0.6,2.399c-0.466,0.967-1.183,1.45-2.15,1.45c-0.9,0-1.4-0.233-1.5-0.7c0-0.133,0.1-0.684,0.3-1.649
		c1.767-8.667,7.267-13.517,16.5-14.551l2.5-38.05c0.066-0.633,0.483-1.166,1.25-1.6c0.767-0.434,1.683-0.65,2.75-0.65
		c1.066,0,1.95,0.217,2.65,0.65C61.585,269.691,61.918,270.224,61.852,270.857z"/>
</g>
<g id="_x3C_Path_x3E__x5F_38">
	
		<use xlink:href="#chickens.ai_Assets_x2F_Layer_1_x2F__x3C_Path_x3E__x5F_38"  width="8.702" height="19.45" y="-19.45" transform="matrix(1 0 0 -1 53.2017 268.5571)" overflow="visible" opacity="0.6719" enable-background="new    "/>
</g>
<g id="Layer_18">
	<path fill-rule="evenodd" clip-rule="evenodd" fill="#D5B47F" d="M208.652,88.107c-1.134,1.133-2.351,2.617-3.65,4.45
		c-1.333,1.9-4.233,5.083-8.7,9.55l6.351-3.8c5.133-2.9,10.05-5.217,14.75-6.95c13.333-4.933,21.716-5.117,25.149-0.55
		c1.3,1.733,1.634,3.933,1,6.6c-0.566,2.433-1.783,4.583-3.649,6.45c-2.733,2.767-5.184,4.983-7.351,6.65
		c-3.434,2.6-8.649,6.05-15.649,10.35c-3.067,1.9-4.534,3-4.4,3.3c0.134,0.267,1.5,0.167,4.1-0.3c8.4-1.466,14.5-1.633,18.301-0.5
		c4.933,1.467,7.533,3.217,7.8,5.25c0.3,2.601-3.05,5.851-10.05,9.75c-4.067,2.267-7.717,4.45-10.95,6.55l-3.601,2.45l9-1.95
		c6.733-0.767,11.834,0.134,15.301,2.7c3.533,2.566,3.1,5.767-1.301,9.601c-1.5,1.267-3.649,2.783-6.449,4.55
		c-3,1.833-5.084,3.116-6.25,3.85l-8.801,5.55l6.851-0.949c4.934-0.301,8.25,0.416,9.95,2.149c1.866,1.867,2.3,4,1.3,6.4
		c-1.3,3.1-5.066,6.8-11.3,11.1c-3.2,2.2-6,4.4-8.4,6.601l-2.65,2.649c0,0.2,3.417-1.149,10.25-4.05
		c6.667-2.066,9.601-0.967,8.801,3.3c-1.101,5.934-4.917,12.717-11.45,20.351c-6.267,7.366-14.066,14.433-23.4,21.199
		c-9.6,6.967-19.316,12.5-29.15,16.601c-10.667,4.5-20.2,6.75-28.6,6.75c-8.5,0-17.367-6.283-26.6-18.851
		c-8.767-11.966-15.817-26.649-21.15-44.05c-5.633-18.3-7.85-35.066-6.65-50.3c1.333-17.267,7-29.833,17-37.7
		c4.167-9.7,9.633-19.733,16.4-30.1c13.5-20.7,26.7-32.667,39.6-35.9c5.833-1.466,8.717,1.05,8.65,7.55
		c-0.066,3.267-0.7,6.667-1.9,10.2l-3.3,10.8c-2.533,7.533-4.684,12.183-6.45,13.95c-1.4,1.434,1.533-0.85,8.8-6.85
		c9.767-7.267,18.5-12.15,26.2-14.65c6.733-2.2,11.75-3.417,15.05-3.65c4.467-0.3,7.283,0.917,8.45,3.65
		c1.433,3.333,1.149,7.117-0.851,11.35C213.618,82.34,211.485,85.307,208.652,88.107z"/>
</g>
<g id="Layer_17">
	<path fill-rule="evenodd" clip-rule="evenodd" fill="#C3A16A" d="M40.352,151.708c1.566,0.933,3.1,1.866,4.6,2.8l-3.15,47.3
		l-11,48.9c-4.633-2.934-9.2-6.551-13.7-10.851c-9-8.633-13.184-16.416-12.55-23.35c1.867-20.4,7.017-37.066,15.45-50
		c2.733-4.2,5.867-8.05,9.4-11.55c1.833-1.801,3.833-3.684,6-5.65C35.602,149.107,37.251,149.907,40.352,151.708z"/>
</g>
<g id="Layer_16">
	<path fill-rule="evenodd" clip-rule="evenodd" fill="#C3A16A" d="M175.102,152.907c10.833,11.067,19.15,26.417,24.95,46.051
		c1.967,6.666-0.616,15.116-7.75,25.35c-3.566,5.1-7.333,9.533-11.3,13.3l-20.35-45.8l-12.35-45.75l3.95-3.6
		c2.7-2.4,4.167-3.517,4.4-3.351c0.867,0.634,3.2,2.084,7,4.351C167.785,146.191,171.602,149.34,175.102,152.907z"/>
</g>
<g id="Layer_15">
	<path fill-rule="evenodd" clip-rule="evenodd" fill="#E1C289" d="M157.901,141.458c4.6,5.566,8.517,10.866,11.75,15.899
		c9.167,14.267,15.034,29.7,17.6,46.3c3.667,23.733,0.184,41.7-10.45,53.9c-8.7,9.967-23.6,17.233-44.7,21.8
		c-6.367,1.367-15.567,2.017-27.6,1.95c-12.267-0.066-21.967-0.884-29.1-2.45c-14.6-3.2-25.85-6.85-33.75-10.95
		c-8.066-4.133-13.867-9.35-17.4-15.649c-3.3-5.834-5.167-13.584-5.6-23.25c-0.333-7.334,0.2-18.55,1.6-33.65
		c1.033-11.033,3.367-21.366,7-31c2.6-6.967,6.367-14.583,11.3-22.85c7.5-12.5,11.317-18.883,11.45-19.15
		c3.767-7.033,6.183-13.7,7.25-20c0.8-4.767,0.95-12.983,0.45-24.65c-0.467-10.8,0.267-20.367,2.2-28.7
		c2.233-9.434,7.35-16.317,15.35-20.65c4-2.167,7.783-3.4,11.35-3.7l5.95,0.2c4.5,0.233,8.067,0.617,10.7,1.15
		c10.8,2.167,18.033,9.6,21.7,22.3c1.966,6.833,2.95,16.85,2.95,30.05c0,7.6,1.934,16.434,5.8,26.5
		c3.833,9.934,8.35,17.983,13.55,24.15C149.318,131.474,152.868,135.624,157.901,141.458z"/>
</g>
<g id="Layer_14">
	<path fill-rule="evenodd" clip-rule="evenodd" fill="#ECD8B4" d="M162.751,154.607c3.2,6.7,5.217,12.434,6.05,17.2
		c2.034,11.5-2.433,21.517-13.4,30.05c-6.367,4.967-13.85,7-22.45,6.101c-2.667-0.301-5.3-0.867-7.9-1.7l-3.05-1.15
		c-3.033-0.833-6.55-1.416-10.55-1.75c-7.967-0.666-14.317,0.25-19.05,2.75c-6.133,3.233-12.733,4.816-19.8,4.75
		c-6.533-0.1-12.85-1.583-18.95-4.45c-5.933-2.8-10.867-6.566-14.8-11.3c-4.1-4.866-6.583-10.116-7.45-15.75
		c-1.267-8.5-0.066-19.033,3.6-31.6c6.267-10.267,10.75-17.783,13.45-22.55c4.7-8.267,7.633-15.883,8.8-22.85
		c0.8-4.767,0.95-12.983,0.45-24.65c-0.467-10.8,0.267-20.367,2.2-28.7c2.233-9.434,7.35-16.317,15.35-20.65
		c4-2.167,7.783-3.4,11.35-3.7l5.95,0.2c4.5,0.233,8.067,0.617,10.7,1.15c10.8,2.167,18.033,9.6,21.7,22.3
		c1.966,6.833,2.95,16.85,2.95,30.05c0,7.6,1.934,16.434,5.8,26.5c3.833,9.934,8.35,17.983,13.55,24.15l5.1,5.95
		C157.751,144.857,161.218,151.407,162.751,154.607z"/>
</g>
<g id="Layer_13">
	<g id="Layer_12">
		<path fill-rule="evenodd" clip-rule="evenodd" fill="#064947" d="M71.102,44.857c2.367,0,4.367,0.8,6,2.4
			c1.667,1.6,2.5,3.533,2.5,5.8s-0.833,4.183-2.5,5.75c-1.633,1.6-3.633,2.4-6,2.4s-4.383-0.8-6.05-2.4
			c-1.667-1.6-2.5-3.517-2.5-5.75c0-2.267,0.833-4.2,2.5-5.8C66.718,45.657,68.735,44.857,71.102,44.857z"/>
		
			<path fill-rule="evenodd" clip-rule="evenodd" fill="none" stroke="#14918C" stroke-linecap="round" stroke-linejoin="round" stroke-miterlimit="3" d="
			M71.102,44.857c2.367,0,4.367,0.8,6,2.4c1.667,1.6,2.5,3.533,2.5,5.8s-0.833,4.183-2.5,5.75c-1.633,1.6-3.633,2.4-6,2.4
			s-4.383-0.8-6.05-2.4c-1.667-1.6-2.5-3.517-2.5-5.75c0-2.267,0.833-4.2,2.5-5.8C66.718,45.657,68.735,44.857,71.102,44.857z"/>
	</g>
</g>
<g id="Layer_12_1_">
	<g>
		<path fill-rule="evenodd" clip-rule="evenodd" fill="#007070" d="M115.051,43.957c1.667,1.6,2.5,3.533,2.5,5.8
			c0,2.267-0.833,4.2-2.5,5.8c-1.633,1.6-3.633,2.4-6,2.4s-4.367-0.8-6-2.4c-1.667-1.6-2.5-3.533-2.5-5.8c0-2.267,0.833-4.2,2.5-5.8
			c1.667-1.6,3.667-2.4,6-2.4C111.385,41.557,113.385,42.357,115.051,43.957z"/>
		
			<path fill-rule="evenodd" clip-rule="evenodd" fill="none" stroke="#14918C" stroke-linecap="round" stroke-linejoin="round" stroke-miterlimit="3" d="
			M115.051,43.957c1.667,1.6,2.5,3.533,2.5,5.8c0,2.267-0.833,4.2-2.5,5.8c-1.633,1.6-3.633,2.4-6,2.4s-4.367-0.8-6-2.4
			c-1.667-1.6-2.5-3.533-2.5-5.8c0-2.267,0.833-4.2,2.5-5.8c1.667-1.6,3.667-2.4,6-2.4
			C111.385,41.557,113.385,42.357,115.051,43.957z"/>
	</g>
</g>
<g id="_x3C_Path_x3E__x5F_30">
	
		<use xlink:href="#chickens.ai_Assets_x2F_Layer_1_x2F__x3C_Path_x3E__x5F_30"  width="8.336" height="7.914" x="-0.018" y="-7.932" transform="matrix(1 0 0 -1 107.7515 44.1572)" overflow="visible" opacity="0.8281" enable-background="new    "/>
</g>
<g id="_x3C_Path_x3E__x5F_29">
	
		<use xlink:href="#chickens.ai_Assets_x2F_Layer_1_x2F__x3C_Path_x3E__x5F_29"  width="3.05" height="2.65" y="-2.65" transform="matrix(1 0 0 -1 108.8516 53.457)" overflow="visible" opacity="0.8281" enable-background="new    "/>
</g>
<g id="_x3C_Path_x3E__x5F_28">
	
		<use xlink:href="#chickens.ai_Assets_x2F_Layer_1_x2F__x3C_Path_x3E__x5F_28"  width="8.3" height="7.9" y="-7.9" transform="matrix(1 0 0 -1 69.3516 46.957)" overflow="visible" opacity="0.8281" enable-background="new    "/>
</g>
<g id="Layer_8">
	<path fill-rule="evenodd" clip-rule="evenodd" fill="#EB212E" d="M104.251,15.157c-1.5,0.633-2.6,1.45-3.3,2.45
		c-0.733,1.1-0.617,1.333,0.35,0.7c2.067-1.3,4.2-1.783,6.4-1.45c1.933,0.3,2.9,0.8,2.9,1.5c0,0.667-0.833,1.05-2.5,1.15
		c-1.5,0.566-2.3,1.367-2.4,2.4c0,0.267,0.183,1.083,0.55,2.45c0.401,1.458,0.685,2.359,0.85,2.7c-1.266-0.336-2.682-0.536-4.25-0.6
		c-3.267-0.1-5.667,0.617-7.2,2.15c-1.6,1.6-2.7,3.75-3.3,6.45c-0.4,1.7-0.6,3.8-0.6,6.3c0,1.733,0.15,4.083,0.45,7.05
		c0.267,3,0.4,5.2,0.4,6.6c0,0.566,0.15,2.583,0.45,6.05c0.167,1.933,0.017,3.133-0.45,3.6c-0.5,0.5-1.15,0.85-1.95,1.05l-1.05,0.15
		l-1.7-9.2c-1.6-6.434-2.533-13.4-2.8-20.9c-0.533-14.934,2.517-24.967,9.15-30.1c2.367-1.8,3.3-1.5,2.8,0.9
		c-0.267,1.2-0.767,2.583-1.5,4.15l-0.4,1.65c-0.167,1.267-0.05,2.4,0.35,3.4c0.1,0.3,0.233,0.4,0.4,0.3
		c0.333-0.133,1.783-0.983,4.35-2.55c1.033-0.567,2.2-0.9,3.5-1c0.667-0.067,1.217-0.067,1.65,0l2.2,0.2
		C108.468,13.107,107.352,13.924,104.251,15.157z"/>
</g>
<g id="Layer_7">
	<path fill-rule="evenodd" clip-rule="evenodd" fill="#BF2932" d="M88.751,70.357c0.233-0.733,0.633-1.283,1.2-1.65
		c0.533-0.367,0.966-0.383,1.3-0.05c0.2,0.233,0.633,2.85,1.3,7.85c0.733,5.633,1.35,9.35,1.85,11.15c0.5,1.867,0.434,3.533-0.2,5
		c-0.567,1.2-1.2,1.8-1.9,1.8c-1.5,0-2.35-0.05-2.55-0.15c-1.267-0.6-2.15-2.317-2.65-5.15c-0.6-3.434-0.5-7.6,0.3-12.5
		L88.751,70.357z"/>
</g>
<g id="Layer_6">
	<path fill-rule="evenodd" clip-rule="evenodd" fill="#EB212E" d="M92.901,70.357l2.85,6.8c1.9,5.467,2.85,10.533,2.85,15.2
		c0,5.534-0.95,8.3-2.85,8.3c-1.133,0-2.067-1.083-2.8-3.25c-0.867-2.7-1.15-6.617-0.85-11.75c0.267-4.633,0.2-8.367-0.2-11.2
		c-0.433-1.967-0.65-3.117-0.65-3.45c0-0.4,0.283-0.633,0.85-0.7C92.368,70.274,92.635,70.291,92.901,70.357z"/>
</g>
<g id="Layer_5">
	<path fill-rule="evenodd" clip-rule="evenodd" fill="#FDC130" d="M105.602,63.157c0.6,0,0.867,0.117,0.8,0.35
		c-0.066,0.167-0.417,0.583-1.05,1.25c-1.6,2-3.117,3.833-4.55,5.5c-2.833,3.267-5.15,5.267-6.95,6c-1.267,0.5-2.467,0.617-3.6,0.35
		c-1.233-0.3-2.517-1.117-3.85-2.45c-1.133-1.133-2.9-2.367-5.3-3.7l-3.2-1.6c-0.3-0.1-0.533-0.233-0.7-0.4
		c-0.333-0.4-0.15-0.833,0.55-1.3l2.05-1.4c1.633-1.167,3.067-2.367,4.3-3.6c0.5-0.5,1.45-1.717,2.85-3.65
		c0.767-1.067,1.7-1.733,2.8-2c1.133-0.267,2.783,0.35,4.95,1.85c1.133,0.8,2.6,1.85,4.4,3.15
		C101.468,62.607,103.635,63.157,105.602,63.157z"/>
</g>
<g id="Layer_4">
	<path fill-rule="evenodd" clip-rule="evenodd" fill="#F59331" d="M106.401,63.357c0.067,0.133-0.283,0.6-1.05,1.4
		c-1.6,2-3.117,3.833-4.55,5.5c-2.833,3.267-5.15,5.267-6.95,6c-1.267,0.5-2.467,0.617-3.6,0.35c-1.233-0.3-2.517-1.117-3.85-2.45
		c-1.133-1.133-2.9-2.367-5.3-3.7l-3.2-1.6c-0.2-0.066-0.367-0.15-0.5-0.25c-0.333-0.267-0.417-0.55-0.25-0.85
		c3.133-0.2,6.333,0.316,9.6,1.55c1.7,0.667,3.283,0.95,4.75,0.85c1.367-0.067,2.4-0.45,3.1-1.15c0.7-0.733,2.25-1.717,4.65-2.95
		C101.985,64.657,104.368,63.757,106.401,63.357z"/>
</g>
<g id="_x3C_Path_x3E__x5F_22">
	
		<use xlink:href="#chickens.ai_Assets_x2F_Layer_1_x2F__x3C_Path_x3E__x5F_22"  width="19.159" height="11.545" x="0.016" y="-11.545" transform="matrix(1 0 0 -1 86.2515 57.1069)" overflow="visible" opacity="0.5703" enable-background="new    "/>
</g>
<g id="Layer_2">
	<path fill-rule="evenodd" clip-rule="evenodd" fill="#F07384" d="M107.602,12.707c0.867,0.4-0.25,1.217-3.35,2.45
		c-1.5,0.633-2.6,1.45-3.3,2.45c-0.733,1.1-0.617,1.333,0.35,0.7c2.067-1.3,4.2-1.783,6.4-1.45c1.933,0.3,2.9,0.8,2.9,1.5
		c0,0.667-0.833,1.05-2.5,1.15c-1.5,0.566-2.3,1.367-2.4,2.4c0,0.267,0.183,1.083,0.55,2.45l0.3,1.05
		c-0.2-0.067-1.433-0.567-3.7-1.5c-1.6-0.7-3.133-1.05-4.6-1.05c-0.933,0-1.9,0.517-2.9,1.55c-1,1.167-1.684,1.917-2.05,2.25
		c-1.133,0.967-1.883-1.517-2.25-7.45c-0.3-5.167,1.5-10.066,5.4-14.7c0.867-0.034,0.966,0.983,0.3,3.05
		c-0.3,1.067-0.7,2.117-1.2,3.15l-0.4,1.65c-0.167,1.267-0.05,2.4,0.35,3.4c0.1,0.3,0.233,0.4,0.4,0.3
		c0.333-0.133,1.783-0.983,4.35-2.55c1.033-0.567,2.2-0.9,3.5-1c0.667-0.067,1.217-0.067,1.65,0L107.602,12.707z"/>
</g>
</svg>
