
<svg xmlns="http://www.w3.org/2000/svg" version="1.1" xmlns:xlink="http://www.w3.org/1999/xlink" preserveAspectRatio="none" x="0px" y="0px" width="1000px" height="1000px" viewBox="0 0 1000 1000">
<defs>
<g id="tile0_0_Layer1_0_FILL">
<path fill="#CCCCCC" stroke="none" d="
M 1065.6 -26
L -40 -26 -40 1021.65 1065.6 1021.65 1065.6 -26 Z"/>
</g>

<g id="tile0_0_Layer0_0_FILL">
<path fill="#5EB142" fill-opacity="0.6470588235294118" stroke="none" d="
M 0 509.8
L 2 509.8 325.9 509.8 325.9 0 0 0 0 509.8
M 325.2 265.85
Q 325.85 266.75 325.85 267.75 325.85 270.3 324.1 271.1 322.55 271.85 317.85 271.85 294.2 271.85 272.2 267.85 272 267.85 271.85 267.85 266.05 267.85 256.3 264.85 245.35 261.45 244.6 261.35
L 204.1 261.35
Q 165.9 260.8 145.8 309.3 138.9 325.9 135.25 345.75 132.45 361.1 132.85 368.75 136.75 435.8 103.65 459.7 90.8 469 71.5 472.45 58.4 474.75 37.5 474.75 20.25 474.75 3 470.3
L 3 461.1
Q 5.45 461.6 8.3 462.3 24.35 466.15 25 466.25
L 50.75 466.25
Q 95.05 460.7 109.6 443 114.45 437.1 117.35 427.95 121.5 415 121.85 414.25 122.55 407.55 123.25 386.05 123.8 368.5 125.85 358 128.4 339.45 129.95 329.6 132.65 311.85 138.15 300.15 153.8 266.6 204.85 252.85
L 222.7 252.85
Q 209.5 247.1 197.05 239.65 179.55 229.15 165.35 216.25 156.85 208.55 152.6 203.1 130.15 174.55 122.85 125.85 119.6 103.75 110.45 86.4 98.95 64.6 77.25 48 67.6 40.55 45.8 28.65 22.2 16.25 14.75 12.25 7.6 7.9 3 5.15
L 3 1 10.55 1
Q 13.35 2.5 16 4 26.05 9.5 49.5 21.15 70.3 31.95 81 40.5 101.2 56.8 113.85 78.55 124.7 97.15 128.85 117.6 130.1 123.75 132.5 136.65 134.75 148.35 137.1 156.45 143.7 179.5 156.6 194.85 185 228.85 242.65 248.8 242.9 248.9 243.2 249 240.45 243 238.4 233.95 236.5 225.5 235.5 215.35 234.85 206.85 234.85 206.75 234.85 191.75 242.8 176.9 245.75 171.4 251 163.75 254 159.35 260.35 150.1 272.25 132.35 277.9 116.55 285.85 94.25 285.85 66.5 285.85 42 275.35 17.2 273.4 12.65 268.9 3.45
L 268.9 1 278.85 1
Q 285.2 11.6 289.6 24.75 292.95 33 293.65 45.4 293.85 48.7 293.85 66.25 293.85 94.9 285.9 118.1 280.15 134.85 268.35 152.8 267.35 154.35 259 166.55 253.65 174.35 250.8 179.4 242.85 193.55 242.85 206.85 242.85 222.3 251.85 239.65 253.6 243.05 258.05 250.45 259.45 252.8 260.15 254.3 274 258.15 287.95 260.65 308.2 264.25 321.85 263.85 324.2 264.45 325.2 265.85 Z"/>

<path fill="#5EB142" fill-opacity="0.9294117647058824" stroke="none" d="
M 325.85 267.75
Q 325.85 266.75 325.2 265.85 324.2 264.45 321.85 263.85 308.2 264.25 287.95 260.65 274 258.15 260.15 254.3 259.45 252.8 258.05 250.45 253.6 243.05 251.85 239.65 242.85 222.3 242.85 206.85 242.85 193.55 250.8 179.4 253.65 174.35 259 166.55 267.35 154.35 268.35 152.8 280.15 134.85 285.9 118.1 293.85 94.9 293.85 66.25 293.85 48.7 293.65 45.4 292.95 33 289.6 24.75 285.2 11.6 278.85 1
L 268.9 1 268.9 3.45
Q 273.4 12.65 275.35 17.2 285.85 42 285.85 66.5 285.85 94.25 277.9 116.55 272.25 132.35 260.35 150.1 254 159.35 251 163.75 245.75 171.4 242.8 176.9 234.85 191.75 234.85 206.75 234.85 206.85 235.5 215.35 236.5 225.5 238.4 233.95 240.45 243 243.2 249 242.9 248.9 242.65 248.8 185 228.85 156.6 194.85 143.7 179.5 137.1 156.45 134.75 148.35 132.5 136.65 130.1 123.75 128.85 117.6 124.7 97.15 113.85 78.55 101.2 56.8 81 40.5 70.3 31.95 49.5 21.15 26.05 9.5 16 4 13.35 2.5 10.55 1
L 3 1 3 5.15
Q 7.6 7.9 14.75 12.25 22.2 16.25 45.8 28.65 67.6 40.55 77.25 48 98.95 64.6 110.45 86.4 119.6 103.75 122.85 125.85 130.15 174.55 152.6 203.1 156.85 208.55 165.35 216.25 179.55 229.15 197.05 239.65 209.5 247.1 222.7 252.85
L 204.85 252.85
Q 153.8 266.6 138.15 300.15 132.65 311.85 129.95 329.6 128.4 339.45 125.85 358 123.8 368.5 123.25 386.05 122.55 407.55 121.85 414.25 121.5 415 117.35 427.95 114.45 437.1 109.6 443 95.05 460.7 50.75 466.25
L 25 466.25
Q 24.35 466.15 8.3 462.3 5.45 461.6 3 461.1
L 3 470.3
Q 20.25 474.75 37.5 474.75 58.4 474.75 71.5 472.45 90.8 469 103.65 459.7 136.75 435.8 132.85 368.75 132.45 361.1 135.25 345.75 138.9 325.9 145.8 309.3 165.9 260.8 204.1 261.35
L 244.6 261.35
Q 245.35 261.45 256.3 264.85 266.05 267.85 271.85 267.85 272 267.85 272.2 267.85 294.2 271.85 317.85 271.85 322.55 271.85 324.1 271.1 325.85 270.3 325.85 267.75 Z"/>

<path fill="#DDDDDD" stroke="none" d="
M 999.65 769.7
L 809.8 769.7 809.8 961.65 999.65 961.65 999.65 769.7
M 999.65 275.9
L 809.8 275.9 809.8 511.85 999.65 511.85 999.65 275.9
M 809.8 526.8
L 809.8 749.7 999.65 749.7 999.65 526.8 809.8 526.8
M 999.65 259.9
L 999.65 16.05 809.8 16.05 809.8 259.9 999.65 259.9
M 651.75 769.7
L 513.8 769.7 513.8 961.65 651.75 961.65 651.75 769.7
M 325.85 770.15
L 187.9 770.15 187.9 962.1 325.85 962.1 325.85 770.15
M 501.8 769.7
L 339.85 769.7 339.85 961.65 501.8 961.65 501.8 769.7
M 339.85 526.85
L 339.85 749.7 501.8 749.7 501.8 526.85 339.85 526.85
M 13.95 527.3
L 13.95 750.15 175.9 750.15 175.9 527.3 13.95 527.3
M 187.9 527.3
L 187.9 750.15 325.85 750.15 325.85 527.3 187.9 527.3
M 175.9 770.15
L 13.95 770.15 13.95 962.1 175.9 962.1 175.9 770.15
M 501.8 275.9
L 341.85 275.9 341.85 510.85 501.8 510.85 501.8 275.9
M 341.85 259.9
L 501.8 259.9 501.8 15.05 341.85 15.05 341.85 259.9
M 653.75 510.85
L 653.75 275.9 513.8 275.9 513.8 510.85 653.75 510.85
M 651.75 749.7
L 651.75 526.85 513.8 526.85 513.8 749.7 651.75 749.7
M 797.7 769.7
L 667.75 769.7 667.75 961.65 797.7 961.65 797.7 769.7
M 797.7 526.8
L 667.75 526.8 667.75 749.7 797.7 749.7 797.7 526.8
M 653.75 259.9
L 653.75 15.05 513.8 15.05 513.8 259.9 653.75 259.9
M 797.7 275.9
L 667.75 275.9 667.75 511.85 797.7 511.85 797.7 275.9
M 797.7 16.05
L 667.75 16.05 667.75 259.9 797.7 259.9 797.7 16.05 Z"/>

<path fill="#CCCCCC" stroke="none" d="
M 999.65 16.05
L 999.65 0 325.9 0 325.9 509.8 2 509.8 2 1000 999.65 1000 999.65 961.65 809.8 961.65 809.8 769.7 999.65 769.7 999.65 749.7 809.8 749.7 809.8 526.8 999.65 526.8 999.65 511.85 809.8 511.85 809.8 275.9 999.65 275.9 999.65 259.9 809.8 259.9 809.8 16.05 999.65 16.05
M 667.75 16.05
L 797.7 16.05 797.7 259.9 667.75 259.9 667.75 16.05
M 667.75 275.9
L 797.7 275.9 797.7 511.85 667.75 511.85 667.75 275.9
M 653.75 15.05
L 653.75 259.9 513.8 259.9 513.8 15.05 653.75 15.05
M 667.75 526.8
L 797.7 526.8 797.7 749.7 667.75 749.7 667.75 526.8
M 667.75 769.7
L 797.7 769.7 797.7 961.65 667.75 961.65 667.75 769.7
M 651.75 526.85
L 651.75 749.7 513.8 749.7 513.8 526.85 651.75 526.85
M 653.75 275.9
L 653.75 510.85 513.8 510.85 513.8 275.9 653.75 275.9
M 501.8 259.9
L 341.85 259.9 341.85 15.05 501.8 15.05 501.8 259.9
M 341.85 275.9
L 501.8 275.9 501.8 510.85 341.85 510.85 341.85 275.9
M 13.95 770.15
L 175.9 770.15 175.9 962.1 13.95 962.1 13.95 770.15
M 187.9 750.15
L 187.9 527.3 325.85 527.3 325.85 750.15 187.9 750.15
M 13.95 750.15
L 13.95 527.3 175.9 527.3 175.9 750.15 13.95 750.15
M 339.85 749.7
L 339.85 526.85 501.8 526.85 501.8 749.7 339.85 749.7
M 339.85 769.7
L 501.8 769.7 501.8 961.65 339.85 961.65 339.85 769.7
M 187.9 770.15
L 325.85 770.15 325.85 962.1 187.9 962.1 187.9 770.15
M 513.8 769.7
L 651.75 769.7 651.75 961.65 513.8 961.65 513.8 769.7 Z"/>
</g>
</defs>

<g transform="matrix( 1, 0, 0, 1, -2,0) ">
<g transform="matrix( 1, 0, 0, 1, 0,0) ">
<use xlink:href="#tile0_0_Layer1_0_FILL"/>
</g>

<g transform="matrix( 1, 0, 0, 1, 0,0) ">
<use xlink:href="#tile0_0_Layer0_0_FILL"/>
</g>
</g>
</svg>
