
<svg xmlns="http://www.w3.org/2000/svg" version="1.1" xmlns:xlink="http://www.w3.org/1999/xlink" preserveAspectRatio="none" x="0px" y="0px" width="300px" height="40px" viewBox="0 0 300 40">
<defs>
<g id="maglevCaboose_0_Layer0_0_FILL">
<path fill="#000000" stroke="none" d="
M 100.1 0.4
L 100.1 0 7.85 0 6.55 0.2
Q 6.484375 0.276953125 6.45 0.3 6.13203125 0.3908203125 5.95 0.45 5.8328125 0.5146484375 5.7 0.6 5.559765625 0.6841796875 5.45 0.75 5.417578125 0.7765625 5.4 0.8 5.19140625 1.0275390625 5 1.15 4.6873046875 2.1005859375 4.35 3.15 4.3 3.25 4.3 3.35 3.85 4.55 3.45 5.9
L 4.2 5.9
Q 4.617578125 4.5673828125 5 3.35 5.0271484375 3.3375 5 3.3 5.04765625 3.233984375 5.05 3.15
L 5.1 3.15 6.05 1.15 6.15 0.95 8.05 0.4 8.4 0.4 100 0.4 100.1 0.4
M 33.65 4
L 33.65 3.5 24.15 3.5 24.15 4 33.65 4
M 44.4 4
L 44.4 3.5 34.9 3.5 34.9 4 44.4 4
M 24.15 6.2
L 23.85 6.2 23.85 27.65 24.15 27.65 24.15 27.4 33.65 27.4 33.65 26.9 24.15 26.9 24.15 19.85 24.15 14.5 24.15 6.2
M 100 35.45
L 100 33.75 3.5 33.75 2.2 27.6 1.75 25.25
Q 1.6984375 24.7306640625 1.65 24.2 1.56328125 22.5994140625 1.6 20.9
L 0.8 20.9
Q 0.791796875 22.2724609375 0.85 23.55 0.877734375 23.892578125 0.9 24.2 0.9 24.75 0.95 25.25
L 4 40.15 4.75 40 4.45 38.4 3.85 35.45 100 35.45
M 44.4 27.4
L 44.4 26.9 37.4 26.9 34.9 26.9 34.9 27.4 44.4 27.4
M 31.4 7.4
L 31.4 4.75 28.4 4.75 28.4 10.35 28.4 14.95 29.15 14.95 31.4 14.95 31.4 12.8 31.4 7.4
M 30.95 5.45
L 30.95 8.6 30.95 13.05 28.65 13.05 28.65 8.6 28.65 5.45 30.95 5.45
M 39.15 4.95
L 36.65 4.95 36.65 15.2 38.15 15.2 39.15 15.2 39.15 14.25 39.15 4.95
M 36.9 5.4
L 38.7 5.4 38.7 8.6 38.7 13.05 36.9 13.05 36.9 8.6 36.9 5.4 Z"/>

<path fill="#FFFFFF" stroke="none" d="
M 100 3.15
L 100 0.4 8.4 0.4 8.05 0.4 6.15 0.95 6.05 1.15 5.1 3.15 22 3.15 22 3.25 24.15 3.25 24.15 3.5 33.65 3.5 33.65 4 33.65 5.2 33.65 10.6 33.65 20.55 33.65 26.9 33.65 27.4 33.65 27.65 34.9 27.65 34.9 27.4 34.9 26.9 34.9 26.1 34.9 21.05 34.9 18.4 34.9 4 34.9 3.5 34.9 3.25 46.75 3.25 46.75 3.15 100 3.15
M 23.85 6.2
L 22.9 6.2 22.9 11.55 22 11.55 22 11.5 21.4 11.5 21.4 12.65 21.45 12.65 21.45 16.85 22 16.85 22 16.9 22.9 16.9 22.9 24.25 22 24.25 22 24.2 1.65 24.2
Q 1.6984375 24.7306640625 1.75 25.25
L 2.2 27.6 22 27.6 22 27.65 23.85 27.65 23.85 6.2
M 100 27.6
L 100 24.2 46.75 24.2 46.75 24.25 44.4 24.25 44.4 26.9 44.4 27.4 44.4 27.65 46.75 27.65 46.75 27.6 100 27.6
M 44.4 11.55
L 44.4 11.8 44.4 16.9 46.6 16.9 46.6 11.55 44.4 11.55 Z"/>

<path fill="#F0F0F0" stroke="none" d="
M 21.55 5.95
Q 21.5 5.95 21.45 5.95
L 21.45 6.9 21.4 6.9 21.4 11.5 22 11.5 22 11.55 22.9 11.55 22.9 6.2 23.85 6.2 24.15 6.2 24.15 4 24.15 3.5 24.15 3.25 22 3.25 22 3.15 5.1 3.15 5.05 3.15
Q 5.04765625 3.233984375 5 3.3 5.0271484375 3.3375 5 3.35 4.617578125 4.5673828125 4.2 5.9
L 21.55 5.9 21.55 5.95
M 97 5.85
L 97 5.9
Q 96.95 5.8990234375 96.9 5.9
L 96.9 6.85 96.9 12.6 96.9 20.1 96.85 20.1 96.85 20.85 95.35 20.85 71.4 20.85 46.6 20.85 46.6 16.9 44.4 16.9 44.4 17.65 44.4 20.1 44.4 24.25 46.75 24.25 46.75 24.2 100 24.2 100 20.85 101.15 20.85 99.85 20.75 99.85 5.85 100 5.85 100 3.15 46.75 3.15 46.75 3.25 34.9 3.25 34.9 3.5 44.4 3.5 44.4 4 44.4 9.1 44.4 11.55 46.6 11.55 46.6 5.85 97 5.85
M 22.9 16.9
L 22 16.9 22 16.85 21.45 16.85 21.45 20.15 21.4 20.15 21.4 20.9 19.9 20.9 1.6 20.9
Q 1.56328125 22.5994140625 1.65 24.2
L 22 24.2 22 24.25 22.9 24.25 22.9 16.9 Z"/>

<path fill="#082F2D" stroke="none" d="
M 21.45 5.95
Q 21.5 5.95 21.55 5.95
L 21.55 5.9 4.2 5.9 3.45 5.9 3.4 5.9
Q 3.3412109375 6.2216796875 3.25 6.55 3.2130859375 6.6751953125 3.15 6.8
L 3.95 6.8 19.9 6.8 19.9 6.9 20.45 6.9 20.45 12.55 21.2 12.65 21.4 12.65 21.4 11.5 21.4 6.9 21.45 6.9 21.45 5.95
M 97 5.9
L 97 5.85 46.6 5.85 46.6 11.55 46.6 16.9 46.6 20.85 71.4 20.85 71.4 20.1 47.5 20.1 47.5 12.6 47.5 6.85 71.4 6.85 71.4 6.75 95.35 6.75 95.35 6.85 95.9 6.85 95.9 12.45 96.65 12.6 96.85 12.6 96.85 6.85 96.9 6.85 96.9 5.9
Q 96.95 5.8990234375 97 5.9
M 21.4 20.9
L 21.4 20.15 19.9 20.15 19.9 20.9 21.4 20.9
M 95.35 20.1
L 95.35 20.85 96.85 20.85 96.85 20.1 95.35 20.1 Z"/>

<path fill="#FFFF0D" stroke="none" d="
M 33.65 5.2
L 33.65 4 24.15 4 24.15 6.2 24.15 14.5 28.4 10.35 28.4 4.75 31.4 4.75 31.4 7.4 33.65 5.2
M 29.15 14.95
L 24.15 19.85 24.15 26.9 33.65 20.55 33.65 10.6 31.4 12.8 31.4 14.95 29.15 14.95
M 44.4 17.65
L 44.4 16.9 44.4 11.8 34.9 21.05 34.9 26.1 44.4 17.65 Z"/>

<path fill="#FFFF00" stroke="none" d="
M 100 33.75
L 100 27.6 46.75 27.6 46.75 27.65 44.4 27.65 44.4 27.4 34.9 27.4 34.9 27.65 33.65 27.65 33.65 27.4 24.15 27.4 24.15 27.65 23.85 27.65 22 27.65 22 27.6 2.2 27.6 3.5 33.75 100 33.75
M 92.8 28.9
L 89.05 32.6 73.55 32.6 77.3 28.9 92.8 28.9
M 55.05 29.15
L 51.3 32.85 35.8 32.85 39.55 29.15 55.05 29.15
M 10.55 32.85
L 14.3 29.15 37.8 29.15 34.05 32.85 10.55 32.85
M 44.4 9.1
L 44.4 4 34.9 4 34.9 18.4 38.15 15.2 36.65 15.2 36.65 4.95 39.15 4.95 39.15 14.25 44.4 9.1
M 44.4 24.25
L 44.4 20.1 37.4 26.9 44.4 26.9 44.4 24.25 Z"/>

<path fill="#ECEC13" stroke="none" d="
M 14.3 29.15
L 10.55 32.85 34.05 32.85 37.8 29.15 14.3 29.15
M 51.3 32.85
L 55.05 29.15 39.55 29.15 35.8 32.85 51.3 32.85
M 89.05 32.6
L 92.8 28.9 77.3 28.9 73.55 32.6 89.05 32.6 Z"/>

<path fill="#0C3B38" stroke="none" d="
M 21.45 16.85
L 21.45 12.65 21.4 12.65 21.2 12.65 3.05 12.65 3.05 12.45 2.6 12.45
Q 2.144140625 14.718359375 1.9 16.85 1.65078125 18.9408203125 1.6 20.9
L 19.9 20.9 19.9 20.15 21.4 20.15 21.45 20.15 21.45 16.85
M 96.85 12.6
L 96.65 12.6 78.5 12.6 78.5 12.4 77.2 12.4 77.2 12.6 47.5 12.6 47.5 20.1 71.4 20.1 71.4 20.85 95.35 20.85 95.35 20.1 96.85 20.1 96.9 20.1 96.9 12.6 96.85 12.6
M 100 38.4
L 100 35.45 3.85 35.45 4.45 38.4 100 38.4
M 28.65 8.6
L 28.65 13.05 30.95 13.05 30.95 8.6 28.65 8.6
M 38.7 8.6
L 36.9 8.6 36.9 13.05 38.7 13.05 38.7 8.6 Z"/>

<path fill="#1B534F" stroke="none" d="
M 95.35 6.85
L 95.35 6.75 71.4 6.75 71.4 6.85 47.5 6.85 47.5 12.6 77.2 12.6 77.2 12.4 78.5 12.4 78.5 12.6 96.65 12.6 95.9 12.45 95.9 6.85 95.35 6.85
M 88.5 7.75
L 84.5 11.75 78 11.75 82 7.75 88.5 7.75
M 72.25 9
L 70.5 10.75 54.05 10.75 55.75 9 72.25 9
M 21.2 12.65
L 20.45 12.55 20.45 6.9 19.9 6.9 19.9 6.8 3.95 6.8
Q 3.2828125 9.217578125 2.8 11.5 2.695703125 11.978125 2.6 12.45
L 3.05 12.45 3.05 12.65 21.2 12.65
M 13.6 7.35
L 20.1 7.35 16.1 11.35 9.6 11.35 13.6 7.35
M 96.9 6.85
L 96.85 6.85 96.85 12.6 96.9 12.6 96.9 6.85
M 30.95 8.6
L 30.95 5.45 28.65 5.45 28.65 8.6 30.95 8.6
M 38.7 5.4
L 36.9 5.4 36.9 8.6 38.7 8.6 38.7 5.4 Z"/>

<path fill="#1E5A56" stroke="none" d="
M 70.5 10.75
L 72.25 9 55.75 9 54.05 10.75 70.5 10.75
M 84.5 11.75
L 88.5 7.75 82 7.75 78 11.75 84.5 11.75
M 20.1 7.35
L 13.6 7.35 9.6 11.35 16.1 11.35 20.1 7.35 Z"/>

<path fill="#072F2D" stroke="none" d="
M 2.8 11.5
Q 3.2828125 9.217578125 3.95 6.8
L 3.15 6.8
Q 2.475390625 9.2177734375 2 11.5 1.8958984375 11.97734375 1.8 12.45 1.3478515625 14.7013671875 1.1 16.85 0.8587890625 18.9408203125 0.8 20.9
L 1.6 20.9
Q 1.65078125 18.9408203125 1.9 16.85 2.144140625 14.718359375 2.6 12.45 2.695703125 11.978125 2.8 11.5 Z"/>

<path fill="#062220" stroke="none" d="
M 100 40
L 100 38.4 4.45 38.4 4.75 40 100 40 Z"/>

<path fill="#F0F008" stroke="none" d="
M 24.15 26.9
L 33.65 26.9 33.65 20.55 24.15 26.9
M 33.65 10.6
L 33.65 5.2 31.4 7.4 31.4 12.8 33.65 10.6
M 44.4 20.1
L 44.4 17.65 34.9 26.1 34.9 26.9 37.4 26.9 44.4 20.1
M 44.4 11.55
L 44.4 9.1 39.15 14.25 39.15 15.2 38.15 15.2 34.9 18.4 34.9 21.05 44.4 11.8 44.4 11.55
M 29.15 14.95
L 28.4 14.95 28.4 10.35 24.15 14.5 24.15 19.85 29.15 14.95 Z"/>
</g>

<g id="maglevCabin_0_Layer0_0_FILL">
<path fill="#000000" stroke="none" d="
M 21.9 0
L 21.9 0.4 23.6 0.4 23.6 0 21.9 0
M 21.9 0.4
L 21.9 0 -0.1 0 -0.1 0.4 21.9 0.4
M 108.3 0.4
L 108.3 0 23.6 0 23.6 0.4 108.3 0.4
M 100 35.45
L 100 33.75 71.25 33.75 2.5 33.75 0 33.75 0 35.45 100 35.45 Z"/>

<path fill="#FFFFFF" stroke="none" d="
M 21.9 0.4
L 21.9 1.9 23.6 1.9 23.6 0.4 21.9 0.4
M 108.3 2.6
L 108.3 0.4 23.6 0.4 23.6 1.9 21.9 1.9 21.9 0.4 -0.1 0.4 -0.1 2.3 0 2.3 0 3.15 100 3.15 100 2.6 108.3 2.6
M 2.95 11.5
L 0 11.5 0 16.85 2.95 16.85 2.95 11.5
M 100 27.6
L 100 24.2 0 24.2 0 27.6 100 27.6
M 100 11.5
L 96.45 11.5 96.45 16.85 100 16.85 100 11.5 Z"/>

<path fill="#F0F0F0" stroke="none" d="
M 96.45 5.75
L 96.45 11.5 100 11.5 100 3.15 0 3.15 0 11.5 2.95 11.5 2.95 5.75 96.45 5.75
M 96.45 16.85
L 96.45 20.75 2.95 20.75 2.95 16.85 0 16.85 0 24.2 100 24.2 100 16.85 96.45 16.85 Z"/>

<path fill="#0C3B38" stroke="none" d="
M 100 38.4
L 100 35.45 0 35.45 0 38.4 100 38.4
M 33.55 20
L 33.55 12.5 3.85 12.5 3.85 20 33.55 20
M 95.4 20
L 95.4 12.5 65.7 12.5 65.7 20 95.4 20
M 64.5 20
L 64.5 12.5 34.85 12.5 34.85 20 64.5 20 Z"/>

<path fill="#062220" stroke="none" d="
M 100 40
L 100 38.4 0 38.4 0 40 100 40 Z"/>

<path fill="#FFFF00" stroke="none" d="
M 100 33.75
L 100 32.5 57.65 32.5 57.45 32.7 41.95 32.7 42.15 32.5 40.4 32.5 40.2 32.7 16.7 32.7 20.45 29 43.95 29 40.5 32.35 42.3 32.35 45.7 29 61.2 29 58.15 32 80.6 31.55 83.45 28.75 98.95 28.75 96.45 31.2 100 31.15 100 27.6 0 27.6 0 33.75 2.5 33.75 71.25 33.75 100 33.75
M 11.7 32.7
L 2.55 32.7 10.15 29 15.45 29 11.7 32.7 Z"/>

<path fill="#F9F90D" stroke="none" d="
M 2.55 32.7
L 11.7 32.7 15.45 29 10.15 29 2.55 32.7
M 100 32.5
L 100 31.15 96.45 31.2 95.2 32.45 79.7 32.45 80.6 31.55 58.15 32 57.65 32.5 100 32.5
M 42.15 32.5
L 42.3 32.35 40.5 32.35 40.4 32.5 42.15 32.5 Z"/>

<path fill="#082F2D" stroke="none" d="
M 96.45 11.5
L 96.45 5.75 2.95 5.75 2.95 11.5 2.95 16.85 2.95 20.75 96.45 20.75 96.45 16.85 96.45 11.5
M 64.5 6.75
L 64.5 12.5 64.5 20 34.85 20 34.85 12.5 34.85 6.75 64.5 6.75
M 95.4 12.5
L 95.4 20 65.7 20 65.7 12.5 65.7 6.75 95.4 6.75 95.4 12.5
M 33.55 6.75
L 33.55 12.5 33.55 20 3.85 20 3.85 12.5 3.85 6.75 33.55 6.75 Z"/>

<path fill="#1B534F" stroke="none" d="
M 33.55 12.5
L 33.55 6.75 3.85 6.75 3.85 12.5 33.55 12.5
M 27.1 11.6
L 20.6 11.6 24.6 7.6 31.1 7.6 27.1 11.6
M 18.35 11.85
L 11.85 11.85 15.85 7.85 22.35 7.85 18.35 11.85
M 95.4 12.5
L 95.4 6.75 65.7 6.75 65.7 12.5 95.4 12.5
M 90.35 11.6
L 83.85 11.6 87.85 7.6 94.35 7.6 90.35 11.6
M 86.1 7.85
L 82.1 11.85 75.6 11.85 79.6 7.85 86.1 7.85
M 77.35 7.6
L 73.35 11.6 66.85 11.6 70.85 7.6 77.35 7.6
M 64.5 12.5
L 64.5 6.75 34.85 6.75 34.85 12.5 64.5 12.5
M 47.1 7.6
L 43.1 11.6 36.6 11.6 40.6 7.6 47.1 7.6
M 59.85 11.6
L 53.35 11.6 57.35 7.6 63.85 7.6 59.85 11.6 Z"/>

<path fill="#1E5A56" stroke="none" d="
M 11.85 11.85
L 18.35 11.85 22.35 7.85 15.85 7.85 11.85 11.85
M 20.6 11.6
L 27.1 11.6 31.1 7.6 24.6 7.6 20.6 11.6
M 73.35 11.6
L 77.35 7.6 70.85 7.6 66.85 11.6 73.35 11.6
M 82.1 11.85
L 86.1 7.85 79.6 7.85 75.6 11.85 82.1 11.85
M 83.85 11.6
L 90.35 11.6 94.35 7.6 87.85 7.6 83.85 11.6
M 53.35 11.6
L 59.85 11.6 63.85 7.6 57.35 7.6 53.35 11.6
M 43.1 11.6
L 47.1 7.6 40.6 7.6 36.6 11.6 43.1 11.6 Z"/>

<path fill="#ECEC13" stroke="none" d="
M 95.2 32.45
L 96.45 31.2 98.95 28.75 83.45 28.75 80.6 31.55 79.7 32.45 95.2 32.45
M 57.45 32.7
L 57.65 32.5 58.15 32 61.2 29 45.7 29 42.3 32.35 42.15 32.5 41.95 32.7 57.45 32.7
M 40.5 32.35
L 43.95 29 20.45 29 16.7 32.7 40.2 32.7 40.4 32.5 40.5 32.35 Z"/>
</g>

<g id="maglevEngine_0_Layer0_0_FILL">
<path fill="#FFFFFF" stroke="none" d="
M 0.5 0.4
L 0 0.4 0 2.6 0.5 2.6 0.5 0.4
M 58.95 3.2
Q 57.4 2.55 55.8 1.9 52.2 1.5 48.45 1.2 46.95 1.05 45.45 0.95 41.1529296875 0.6431640625 37 0.4 36.6544921875 0.4072265625 36.3 0.4
L 0.5 0.4 0.5 2.6 0 2.6 0 3.25 14.4 3.25 14.4 3.5 23.9 3.5 23.9 4 23.9 5.2 23.9 10.6 23.9 20.55 23.9 26.9 23.9 27.4 23.9 27.65 25.15 27.65 25.15 27.4 25.15 26.9 25.15 26.1 25.15 21.05 25.15 18.4 25.15 4 25.15 3.5 25.15 3.25 58.95 3.2
M 85 27.65
Q 84.2546875 26.1591796875 83.45 24.75 83.007421875 23.9888671875 82.55 23.25
L 80.9 23.25 79.25 23.5 72.4 23.5 63.3 21.35
Q 62.8 21.05 62.3 20.8
L 62.3 24.25 60.5 24.25 61.35 25.45 59.65 25.75 58.85 24.6 58.45 24.55 58.3 24.25 56.4 24.25 56.85 25.35 52.4 25 52.45 24.25 34.65 24.25 34.65 26.9 34.65 27.4 34.65 27.65 85 27.65
M 13.15 6.2
L 13.15 11.55 0 11.55 0 16.9 13.15 16.9 13.15 24.25 0 24.25 0 27.65 13.65 27.65 13.65 6.2 13.15 6.2
M 47.9 14.8
L 47.6 13.9 47.6 11.55 34.65 11.55 34.65 11.8 34.65 16.9 52.95 16.9
Q 52.75 16.85 52.6 16.85 52.5 16.85 52.4 16.8 50.6 16.3 48.85 16
L 48.6 15.65 48.55 15.6 47.9 14.8 Z"/>

<path fill="#000000" stroke="none" d="
M 0.5 0.4
L 0.5 0 0.05 0 0.05 0.1 0 0.1 0 0.4 0.5 0.4
M 83.45 24.75
Q 84.2546875 26.1591796875 85 27.65 85.3 28.25 85.6 28.85 86 29.7 86.35 30.55 86.6072265625 31.1611328125 86.85 31.8 86.55 30.8 86.15 29.9 85.8 29.05 85.4 28.2 85.1 27.6 84.8 27 83.65 24.7 82.35 22.6 80.5 19.65 78.3 17.05 78.16484375 16.8900390625 78 16.7 72.040234375 9.7599609375 63.4 4.9 60.6142578125 3.4228515625 57.55 2.2
L 55.3 1.5 38.8 0 0.5 0 0.5 0.4 36.3 0.4
Q 36.6544921875 0.4072265625 37 0.4 41.1529296875 0.6431640625 45.45 0.95 46.95 1.05 48.45 1.2 52.2 1.5 55.8 1.9 57.4 2.55 58.95 3.2 70.5431640625 8.5275390625 78 17.15 80.5154296875 20.0171875 82.55 23.25 83.007421875 23.9888671875 83.45 24.75
M 87.85 33.75
L 87.6 33.75 82.4 33.75 71.4 33.75 55.15 33.75 39.65 33.75 38.15 33.75 14.4 33.75 13.65 33.75 10.4 33.75 4.35 33.75 0 33.75 0 35.45 75 35.45 88.2 35.45 87.85 33.75
M 14.4 6.2
L 13.65 6.2 13.65 27.65 14.4 27.65 14.4 27.4 23.9 27.4 23.9 26.9 14.4 26.9 14.4 19.85 14.4 14.5 14.4 6.2
M 62.3 20.8
Q 62.8 21.05 63.3 21.35
L 72.4 23.5 79.25 23.5
Q 73.25 14.5 64.75 8.9 61.45 6.8 58.1 5.35 57.05 4.9 56.05 4.6
L 52.4 3.5 52.4 3.65 48.25 3.65 47.6 3.55 47.6 11.55 47.6 13.9 47.9 14.8 48.55 15.6 48.6 15.65 48.85 16
Q 50.6 16.3 52.4 16.8 52.5 16.85 52.6 16.85 52.75 16.85 52.95 16.9 54.55 17.4 56.25 18 59.35 19.15 62.3 20.8
M 66.1 15.45
L 66.95 18.55 59.95 18.15 54.4 15.35 54.05 12.1 53.55 7.9 54.05 5.95 58.6 6.9 65.35 12.85 66.1 15.45
M 34.65 27.4
L 34.65 26.9 27.65 26.9 25.15 26.9 25.15 27.4 34.65 27.4
M 21.65 7.4
L 21.65 4.75 18.65 4.75 18.65 10.35 18.65 14.95 19.4 14.95 21.65 14.95 21.65 12.8 21.65 7.4
M 21.2 5.45
L 21.2 8.6 21.2 13.05 18.9 13.05 18.9 8.6 18.9 5.45 21.2 5.45
M 23.9 4
L 23.9 3.5 14.4 3.5 14.4 4 23.9 4
M 29.4 4.95
L 26.9 4.95 26.9 15.2 28.4 15.2 29.4 15.2 29.4 14.25 29.4 4.95
M 27.15 5.4
L 28.95 5.4 28.95 8.6 28.95 13.05 27.15 13.05 27.15 8.6 27.15 5.4
M 34.65 4
L 34.65 3.5 25.15 3.5 25.15 4 34.65 4 Z"/>

<path fill="#F0F0F0" stroke="none" d="
M 14.4 4
L 14.4 3.5 14.4 3.25 0 3.25 0 11.55 13.15 11.55 13.15 6.2 13.65 6.2 14.4 6.2 14.4 4
M 79.25 23.5
L 80.9 23.25 82.55 23.25
Q 80.5154296875 20.0171875 78 17.15 70.5431640625 8.5275390625 58.95 3.2
L 25.15 3.25 25.15 3.5 34.65 3.5 34.65 4 34.65 9.1 34.65 11.55 47.6 11.55 47.6 3.55 48.25 3.65 52.4 3.65 52.4 3.5 56.05 4.6
Q 57.05 4.9 58.1 5.35 61.45 6.8 64.75 8.9 73.25 14.5 79.25 23.5
M 0 16.9
L 0 24.25 13.15 24.25 13.15 16.9 0 16.9
M 62.3 24.25
L 62.3 20.8
Q 59.35 19.15 56.25 18 54.55 17.4 52.95 16.9
L 34.65 16.9 34.65 17.65 34.65 20.1 34.65 24.25 52.45 24.25 52.6 22.9 51.75 21.6 50.25 19.25 52.7 18.85 55.55 22.35 55.6 22.4 56.4 24.25 58.3 24.25 57.2 22.65 56.15 21.05 58.2 20.95 59.7 23.1 60.5 24.25 62.3 24.25 Z"/>

<path fill="#FFFF00" stroke="none" d="
M 85.6 28.85
Q 85.3 28.25 85 27.65
L 34.65 27.65 34.65 27.4 25.15 27.4 25.15 27.65 23.9 27.65 23.9 27.4 14.4 27.4 14.4 27.65 13.65 27.65 0 27.65 0 33.75 4.35 33.75 10.4 33.75 13.65 33.75 14.4 33.75 38.15 33.75 39.65 33.75 55.15 33.75 71.4 33.75 82.4 33.75 87.6 33.75
Q 87.4 33.1 87.15 32.55
L 81.9 32.55 67.65 32.55 71.4 28.85 80.25 28.85 85.6 28.85
M 56.4 32.55
L 40.9 32.55 44.65 28.85 60.15 28.85 56.4 32.55
M 15.65 32.55
L 10.65 32.55 1.5 32.55 9.1 28.85 14.4 28.85 19.4 28.85 42.9 28.85 39.15 32.55 15.65 32.55
M 34.65 24.25
L 34.65 20.1 27.65 26.9 34.65 26.9 34.65 24.25
M 34.65 9.1
L 34.65 4 25.15 4 25.15 18.4 28.4 15.2 26.9 15.2 26.9 4.95 29.4 4.95 29.4 14.25 34.65 9.1 Z"/>

<path fill="#ECEC13" stroke="none" d="
M 19.4 28.85
L 15.65 32.55 39.15 32.55 42.9 28.85 19.4 28.85
M 40.9 32.55
L 56.4 32.55 60.15 28.85 44.65 28.85 40.9 32.55
M 81.9 32.55
Q 81.76484375 32.14140625 81.6 31.75 81.25 30.9 80.85 30.05 80.55 29.45 80.25 28.85
L 71.4 28.85 67.65 32.55 81.9 32.55 Z"/>

<path fill="#F9F90D" stroke="none" d="
M 10.65 32.55
L 14.4 28.85 9.1 28.85 1.5 32.55 10.65 32.55 Z"/>

<path fill="#FFFF0D" stroke="none" d="
M 10.65 32.55
L 15.65 32.55 19.4 28.85 14.4 28.85 10.65 32.55
M 81.6 31.75
Q 81.76484375 32.14140625 81.9 32.55
L 87.15 32.55
Q 87.0072265625 32.175390625 86.85 31.8 86.6072265625 31.1611328125 86.35 30.55 86 29.7 85.6 28.85
L 80.25 28.85
Q 80.55 29.45 80.85 30.05 81.25 30.9 81.6 31.75
M 34.65 17.65
L 34.65 16.9 34.65 11.8 25.15 21.05 25.15 26.1 34.65 17.65
M 21.65 12.8
L 21.65 14.95 19.4 14.95 14.4 19.85 14.4 26.9 23.9 20.55 23.9 10.6 21.65 12.8
M 23.9 5.2
L 23.9 4 14.4 4 14.4 6.2 14.4 14.5 18.65 10.35 18.65 4.75 21.65 4.75 21.65 7.4 23.9 5.2 Z"/>

<path fill="#F0F008" stroke="none" d="
M 34.65 11.55
L 34.65 9.1 29.4 14.25 29.4 15.2 28.4 15.2 25.15 18.4 25.15 21.05 34.65 11.8 34.65 11.55
M 14.4 26.9
L 23.9 26.9 23.9 20.55 14.4 26.9
M 19.4 14.95
L 18.65 14.95 18.65 10.35 14.4 14.5 14.4 19.85 19.4 14.95
M 34.65 20.1
L 34.65 17.65 25.15 26.1 25.15 26.9 27.65 26.9 34.65 20.1
M 23.9 10.6
L 23.9 5.2 21.65 7.4 21.65 12.8 23.9 10.6 Z"/>

<path fill="#0C798D" stroke="none" d="
M 51.75 21.6
L 52.6 22.9 52.45 24.25 52.4 25 56.85 25.35 56.4 24.25 55.6 22.4 55.55 22.35 51.75 21.6
M 60.5 24.25
L 59.7 23.1 57.2 22.65 58.3 24.25 58.45 24.55 58.85 24.6 59.65 25.75 61.35 25.45 60.5 24.25 Z"/>

<path fill="#1B534F" stroke="none" d="
M 66.1 15.45
L 65.35 12.85 58.6 6.9 54.05 5.95 53.55 7.9 54.05 12.1 66.1 15.45
M 21.2 8.6
L 21.2 5.45 18.9 5.45 18.9 8.6 21.2 8.6
M 28.95 5.4
L 27.15 5.4 27.15 8.6 28.95 8.6 28.95 5.4 Z"/>

<path fill="#0D3B38" stroke="none" d="
M 66.95 18.55
L 66.1 15.45 54.05 12.1 54.4 15.35 59.95 18.15 66.95 18.55 Z"/>

<path fill="#0C3B38" stroke="none" d="
M 21.2 13.05
L 21.2 8.6 18.9 8.6 18.9 13.05 21.2 13.05
M 28.95 8.6
L 27.15 8.6 27.15 13.05 28.95 13.05 28.95 8.6
M 68 40
L 70.35 40
Q 71 39.1 71.6 38.4 73.35 36.35 75 35.45
L 0 35.45 0 38.4 69.65 38.4 68 40 Z"/>

<path fill="#062220" stroke="none" d="
M 68 40
L 69.65 38.4 0 38.4 0 40 68 40 Z"/>

<path fill="#046779" stroke="none" d="
M 58.2 20.95
L 56.15 21.05 57.2 22.65 59.7 23.1 58.2 20.95
M 55.55 22.35
L 52.7 18.85 50.25 19.25 51.75 21.6 55.55 22.35 Z"/>
</g>

<path id="maglevCaboose_0_Layer0_0_1_STROKES" stroke="#FF00FF" stroke-width="1" stroke-linejoin="round" stroke-linecap="round" fill="none" d="
M 4.025 40.15
L 4.45 42.25"/>

<path id="maglevCaboose_0_Layer0_0_2_STROKES" stroke="#FFFFFF" stroke-width="1" stroke-linejoin="round" stroke-linecap="round" fill="none" d="
M 6.075 1.15
L 6.175 0.95 8.05 0.4 8.4 0.4"/>
</defs>

<g id="maglevCaboose" transform="matrix( 1, 0, 0, 1, 0,0) ">
<g transform="matrix( 1, 0, 0, 1, 0,0) ">
<use xlink:href="#maglevCaboose_0_Layer0_0_FILL"/>

<use xlink:href="#maglevCaboose_0_Layer0_0_1_STROKES"/>

<use xlink:href="#maglevCaboose_0_Layer0_0_2_STROKES"/>
</g>
</g>

<g id="maglevCabin" transform="matrix( 1, 0, 0, 1, 100,0) ">
<g transform="matrix( 1, 0, 0, 1, 0,0) ">
<use xlink:href="#maglevCabin_0_Layer0_0_FILL"/>
</g>
</g>

<g id="maglevEngine" transform="matrix( 1, 0, 0, 1, 200,0) ">
<g transform="matrix( 1, 0, 0, 1, 0,0) ">
<use xlink:href="#maglevEngine_0_Layer0_0_FILL"/>
</g>
</g>
</svg>
