
<svg xmlns="http://www.w3.org/2000/svg" version="1.1" xmlns:xlink="http://www.w3.org/1999/xlink" preserveAspectRatio="none" x="0px" y="0px" width="50px" height="50px" viewBox="0 0 50 50">
<defs>
<g id="Layer0_0_FILL">
<path fill="#000000" stroke="none" d="
M 35.9 11.45
Q 33.85 8.3 30.45 6.2 24.35 2.4 17.3 4 10.25 5.65 6.4 11.75 2.6 17.9 4.2 24.95 5.85 32 11.95 35.8 14.9 37.65 18.1 38.2 21.5 38.85 25.15 38 32.15 36.4 35.95 30.25
L 36 30.2
Q 39.85 24.1 38.2 17.1 37.5 13.95 35.9 11.45
M 30.6 11.3
Q 33.4 14 34.3 18 35.55 23.4 32.6 28.15 29.65 32.85 24.25 34.1 19.85 35.1 15.95 33.35 14.95 32.95 14.1 32.4 9.35 29.45 8.1 24.05 6.9 18.6 9.8 13.9
L 9.85 13.85
Q 12.8 9.15 18.2 7.9 23.6 6.65 28.35 9.65 29.5 10.35 30.6 11.3
M 17.1 14.75
Q 16.55 14.25 15.75 14.25 15 14.3 14.55 14.8 13.95 15.3 13.95 16.15
L 14 25.65
Q 14 26.45 14.55 26.9 15.1 27.5 15.9 27.45 16.6 27.45 17.15 26.85 17.7 26.4 17.7 25.65
L 17.65 16.1
Q 17.65 15.3 17.1 14.75
M 22.7 23.15
Q 22.15 22.75 21.45 22.7 20.65 22.7 20.2 23.2 19.7 23.7 19.65 24.45 19.7 25.15 20.2 25.7 20.7 26.2 21.45 26.2 22.2 26.2 22.7 25.7 23.2 25.15 23.2 24.4 23.2 23.65 22.7 23.15
M 22.6 18.5
Q 23.15 17.95 23.15 17.2 23.15 16.55 22.6 16 22.15 15.45 21.4 15.45 20.65 15.5 20.15 16 19.65 16.55 19.65 17.25 19.65 18 20.15 18.5 20.65 19 21.4 19 22.2 19 22.6 18.5
M 28.5 15.95
Q 28.55 15.2 28.05 14.65 27.5 14.1 26.7 14.1 25.95 14.1 25.45 14.7 24.9 15.25 24.9 16
L 24.95 25.55
Q 24.95 26.35 25.5 26.8 26 27.35 26.75 27.35 27.5 27.35 28.15 26.75 28.6 26.35 28.55 25.5
L 28.5 15.95
M 41.65 47.45
Q 42.8 48.6 44.35 48.55 46.05 48.5 47.25 47.35 48.4 46.15 48.3 44.45 48.35 42.8 47.15 41.6
L 36.6 31.6
Q 34.2 35.1 30.7 37 30.7 37.05 30.75 37.1
L 41.65 47.45 Z"/>
</g>
</defs>

<g transform="matrix( 1, 0, 0, 1, 0,0) ">
<use xlink:href="#Layer0_0_FILL"/>
</g>
</svg>
