
<svg xmlns="http://www.w3.org/2000/svg" version="1.1" xmlns:xlink="http://www.w3.org/1999/xlink" preserveAspectRatio="none" x="0px" y="0px" width="50px" height="50px" viewBox="0 0 50 50">
<defs>
<g id="Layer0_0_FILL">
<path fill="#000000" stroke="none" d="
M 3.15 40
L 36.85 40
Q 40 40 40 36.95
L 40 3.1
Q 40 0 36.85 0
L 3.15 0
Q 0 0 0 3.1
L 0 36.95
Q 0 40 3.15 40
M 35.25 20.75
L 26.15 14.35 14.25 24.65 10.5 21.8 4.5 27 4.5 5.75
Q 4.5 3.75 6.5 3.75
L 33.25 3.75
Q 35.25 3.75 35.25 5.75
L 35.25 20.75 Z"/>
</g>
</defs>

<g transform="matrix( 1, 0, 0, 1, 5,5) ">
<g transform="matrix( 1, 0, 0, 1, 0,0) ">
<use xlink:href="#Layer0_0_FILL"/>
</g>
</g>
</svg>
