
<svg xmlns="http://www.w3.org/2000/svg" version="1.1" xmlns:xlink="http://www.w3.org/1999/xlink" preserveAspectRatio="none" x="0px" y="0px" width="50px" height="50px" viewBox="0 0 50 50">
<defs>
<g id="drag_btn_0_Layer0_0_FILL">
<path fill="#000000" fill-opacity="0.9686274509803922" stroke="none" d="
M 40.55 30.3
L 47 23.9
Q 47.25 23.6 47.25 23.15 47.25 22.7 47 22.45
L 40.55 16
Q 40.25 15.7 39.8 15.7 39.35 15.7 39.1 16 38.75 16.25 38.75 16.7
L 38.75 21.4 25.25 21.4 25.25 8.5 29.45 8.5
Q 29.85 8.5 30.15 8.15 30.45 7.9 30.45 7.45 30.45 7 30.15 6.7
L 23.75 0.25
Q 23.45 0 23 0 22.55 0 22.3 0.25
L 15.85 6.7
Q 15.55 7 15.55 7.45 15.55 7.9 15.85 8.15 16.1 8.5 16.55 8.5
L 21.25 8.5 21.25 21.4 8.5 21.4 8.5 16.7
Q 8.5 16.25 8.15 16 7.9 15.7 7.45 15.7 7 15.7 6.7 16
L 0.25 22.45
Q 0 22.7 0 23.15 0 23.6 0.25 23.9
L 6.7 30.3
Q 7 30.6 7.45 30.6 7.9 30.6 8.15 30.3 8.5 30 8.5 29.6
L 8.5 25.4 21.25 25.4 21.25 38.75 16.55 38.75
Q 16.1 38.75 15.85 39.1 15.55 39.35 15.55 39.8 15.55 40.25 15.85 40.55
L 22.3 47
Q 22.55 47.25 23 47.25 23.45 47.25 23.75 47
L 30.15 40.55
Q 30.45 40.25 30.45 39.8 30.45 39.35 30.15 39.1 29.85 38.75 29.45 38.75
L 25.25 38.75 25.25 25.4 38.75 25.4 38.75 29.6
Q 38.75 30 39.1 30.3 39.35 30.6 39.8 30.6 40.25 30.6 40.55 30.3 Z"/>
</g>
</defs>

<g id="drag_btn" transform="matrix( 1, 0, 0, 1, 1.75,1.6) ">
<g transform="matrix( 1, 0, 0, 1, 0,0) ">
<use xlink:href="#drag_btn_0_Layer0_0_FILL"/>
</g>
</g>
</svg>
