
<svg xmlns="http://www.w3.org/2000/svg" version="1.1" xmlns:xlink="http://www.w3.org/1999/xlink" preserveAspectRatio="none" x="0px" y="0px" width="100px" height="100px" viewBox="0 0 100 100">
<defs>
<g id="forest_0_Layer3_0_FILL">
<path fill="#FFFFFF" stroke="none" d="
M 46.5 -39.75
Q 46.5 -44.75 41.5 -44.75
L -39.75 -44.75
Q -44.75 -44.75 -44.75 -39.75
L -44.75 41.5
Q -44.75 46.5 -39.75 46.5
L 41.5 46.5
Q 46.5 46.5 46.5 41.5
L 46.5 -39.75 Z"/>
</g>

<g id="forestTreeAdd_0_Layer3_0_FILL">
<path fill="#000000" stroke="none" d="
M 21.75 17.3
Q 22.45 16.55 23.45 16.5 23.35 16.1 23.35 15.7 23.35 14.45 23.9 13.45 23.7 13.1 23.45 12.85 22.6 11.85 21.3 11.85 20.1 11.85 19.25 12.75 19 12.15 18.6 11.65 17.7 10.7 16.4 10.7 15.15 10.7 14.3 11.65 14.2 11.75 14.15 11.85 12.9 10.65 11.25 10.65 9.5 10.65 8.25 12 7 13.4 7 15.3 7 15.7 7.1 16.1 6.1 16.2 5.4 16.9 4.6 17.85 4.6 19.1 4.6 20.4 5.4 21.3 5.6 21.55 5.9 21.75 5.45 22.45 5.45 23.35 5.45 23.7 5.5 24.05 4.75 24.05 4.25 24.65 3.75 25.25 3.75 26.05 3.75 26.85 4.25 27.4 4.3 27.5 4.4 27.6 4.3 27.7 4.25 27.75 3.5 28.6 3.5 29.75 3.5 30.9 4.25 31.7 5 32.6 6.05 32.6 7.1 32.6 7.85 31.7 8.35 31.85 8.95 31.85 9 31.85 9.1 31.85 9.55 32.3 10.2 32.3 10.85 32.3 11.3 31.8 11.8 31.3 11.8 30.6
L 11.8 30.5
Q 11.85 30.45 11.9 30.45
L 11.95 30.5
Q 12.4 31 13 31.2 13.15 31.25 13.35 31.3 13.85 31.6 14.55 31.6 15.05 31.6 15.4 31.4
L 16.25 33.05 16.25 35.55
Q 16.25 35.95 16.6 36.25 16.85 36.55 17.25 36.55
L 18.15 36.55
Q 18.45 36.55 18.75 36.25 19.05 36 19.05 35.55
L 19.05 33.05 20.05 31.25
Q 19.85 30.75 19.85 30.15 19.85 29 20.6 28.15 20.65 28.05 20.75 28 20.65 27.85 20.6 27.8 20.1 27.25 20.1 26.4 20.1 25.65 20.6 25.05 21.1 24.45 21.85 24.45 21.8 24.1 21.8 23.75 21.8 22.85 22.25 22.15 22 21.95 21.75 21.7 20.95 20.8 20.95 19.5 20.95 18.2 21.75 17.3
M 41.35 14.05
Q 41.1 13.65 40.75 13.25 39.85 12.25 38.6 12.25 37.4 12.25 36.55 13.15 36.3 12.55 35.85 12.05 35 11.05 33.7 11.05 32.45 11.05 31.55 12.05 31.5 12.15 31.4 12.25 30.2 11.05 28.55 11.05 26.8 11.05 25.55 12.4 25.1 12.9 24.85 13.45 24.3 14.45 24.3 15.7 24.3 16.1 24.35 16.5 23.4 16.55 22.7 17.3 21.85 18.2 21.85 19.5 21.85 20.8 22.7 21.7 22.9 21.95 23.2 22.15 22.7 22.85 22.7 23.75 22.7 24.1 22.8 24.45
L 22.75 24.45
Q 22.05 24.45 21.5 25.05 21 25.65 21 26.4 21 27.25 21.5 27.8 21.6 27.85 21.7 28 21.6 28.05 21.5 28.15 20.75 29 20.75 30.15 20.75 30.75 21 31.25 21.15 31.7 21.5 32.1 22.3 33 23.35 33 24.35 33 25.1 32.1
L 25.15 32.1
Q 25.65 32.25 26.2 32.25 26.3 32.25 26.4 32.25 26.85 32.7 27.45 32.7 28.15 32.7 28.6 32.2 29.05 31.7 29.05 31
L 29.05 30.95 29.15 30.85 29.2 30.9
Q 29.65 31.4 30.3 31.6 30.45 31.65 30.65 31.7 31.15 32 31.8 32 32.3 32 32.7 31.8
L 33.55 33.45 33.55 35.95
Q 33.55 36.35 33.9 36.65 34.15 36.95 34.5 36.95
L 35.4 36.95
Q 35.75 36.95 36.05 36.65 36.35 36.4 36.35 35.95
L 36.35 33.45 37.75 30.85
Q 37.9 31 38.1 31.1 38.7 31.35 39.45 31.35 40.95 31.35 42 30.2 43.05 29.05 43.05 27.4 43.05 27.35 43.05 27.3 43.85 27.05 44.55 26.25 45.7 24.95 45.7 23.1 45.7 21.3 44.55 20 43.9 19.3 43.05 18.95 42.95 18 42.25 17.3 41.95 16.9 41.55 16.65 41.65 16.2 41.65 15.65 41.65 14.75 41.35 14.05 Z"/>
</g>

<path id="forestTreeAdd_0_Layer2_0_1_STROKES" stroke="#454545" stroke-width="4" stroke-linejoin="round" stroke-linecap="round" fill="none" d="
M 49 24.5
Q 49 34.65 41.8 41.8 34.65 49 24.5 49 14.35 49 7.15 41.8 0 34.65 0 24.5 0 14.35 7.15 7.15 14.35 0 24.5 0 34.65 0 41.8 7.15 49 14.35 49 24.5 Z"/>
</defs>

<g id="forest" transform="matrix( 1, 0, 0, 1, 50.15,50.55) ">
<g transform="matrix( 1, 0, 0, 1, 0,0) ">
<use xlink:href="#forest_0_Layer3_0_FILL"/>
</g>

<g transform="matrix( 1.4596099853515625, 0, 0, 1.4596099853515625, -35.5,-33.25) ">
<g transform="matrix( 1, 0, 0, 1, 0,0) ">
<use xlink:href="#forestTreeAdd_0_Layer3_0_FILL"/>
</g>

<g transform="matrix( 1, 0, 0, 1, 0,0) ">
<use xlink:href="#forestTreeAdd_0_Layer2_0_1_STROKES"/>
</g>
</g>
</g>
</svg>
