
<svg xmlns="http://www.w3.org/2000/svg" version="1.1" xmlns:xlink="http://www.w3.org/1999/xlink" preserveAspectRatio="none" x="0px" y="0px" width="50px" height="50px" viewBox="0 0 50 50">
<defs>
<g id="Layer1_0_FILL">
<path fill="#000000" fill-opacity="0.00392156862745098" stroke="none" d="
M -3.05 -4.5
L -3.05 41.75 41.2 41.75 41.2 -4.5 -3.05 -4.5 Z"/>
</g>

<g id="Layer0_0_FILL">
<path fill="#55B88B" stroke="none" d="
M 23.8 15.15
L 22.95 14.15 21.7 15.15 16.95 15.15 15.7 14.15 14.85 15.15 6.6 15.15 4.1 17.65 4.7 17.65 4.7 19.05 5.2 19.05 5.2 35.9 6.1 36.8 6.75 36.8 7.6 37.65 31.05 37.65 31.9 36.8 32.55 36.8 33.45 35.9 33.45 19.05 33.95 19.05 33.95 17.65 34.55 17.65 32.05 15.15 23.8 15.15
M 26.2 24.25
L 28.85 21.6 32.5 21.6 32.5 35.15
Q 32.5 36.55 31.1 36.55
L 11.75 36.55 18.15 30.15 13.4 25.4 8.7 30.1 6.2 30 6.2 17.9
Q 6.2 16.5 7.6 16.5
L 21.8 16.5 20.2 18.1 18.95 18.1 18.95 20.6 14.5 25.05 18.5 29.05 23.35 24.25 26.2 24.25 Z"/>

<path fill="#FFFFFF" stroke="none" d="
M 17.05 6.6
L 17 6.7 17.05 6.65 17.05 6.6
M 21.5 6.65
L 21.55 6.65 21.55 6.6 21.5 6.65 Z"/>

<path fill="#009999" stroke="none" d="
M 23.05 8.55
L 22.9 8.3 23.35 7.5 21.95 6.85 21.55 6.65 21.5 6.65 21.1 6.45 21 6.15 19.35 6.55 19.3 6.55 17.65 6.15 17.55 6.45 17.05 6.65 17 6.7 16.75 6.8 15.3 7.5 15.7 8.3 15.55 8.55 12.7 10.15 13.4 11.9 14.55 11.9 17.25 14.5 19.1 14.85 19.55 14.85 21.35 14.5 24.1 11.9 25.25 11.9 25.9 10.15 23.05 8.55
M 22.05 12.45
L 21 13.9 20 14.15 19.85 13.2 21.55 9.5 22.05 12.45
M 18.6 14.15
L 17.65 13.9 16.6 12.45 17.05 9.5 18.75 13.2 18.6 14.15 Z"/>

<path fill="#00B88B" stroke="none" d="
M 17.65 13.9
L 18.6 14.15 18.75 13.2 17.05 9.5 16.6 12.45 17.65 13.9
M 21 13.9
L 22.05 12.45 21.55 9.5 19.85 13.2 20 14.15 21 13.9 Z"/>

<path fill="#015F5C" stroke="none" d="
M 36.5 -0.5
L 2.2 -0.5
Q 1.1 -0.1 0.55 0.6 -0.55 2.05 2.45 3.75 2.95 3.4 3.45 3 4.5 2.25 4.7 2.25
L 8.2 4 11.2 4
Q 11.25 4 13.9 5.65 14.18046875 5.8037109375 14.45 5.95
L 15.65 5.25 15.3 4.6 17.55 3.55 17.65 3.25 18 3.3 18 3.9 16.35 5.05 16.75 6.8 17 6.7 17.05 6.6 17.05 6.65 17.55 6.45 17.65 6.15 19.3 6.55 19.35 6.55 21 6.15 21.1 6.45 21.5 6.65 21.55 6.6 21.55 6.65 21.95 6.85 22.35 5.1 20.7 3.95 20.7 3.3 21 3.25 21.1 3.55 23.35 4.6 22.95 5.25 24.2 5.95
Q 24.50234375 5.81328125 24.8 5.65 27.45 4 27.5 4
L 30.5 4 34 2.25
Q 34.2 2.25 35.25 3 35.75 3.4 36.25 3.75 39.25 2.05 38.15 0.6 37.6 -0.1 36.5 -0.5 Z"/>
</g>
</defs>

<g transform="matrix( 1.28472900390625, 0, 0, 1.28472900390625, 0.05,0.6) ">
<g transform="matrix( 1, 0, 0, 1, 0,0) ">
<use xlink:href="#Layer1_0_FILL"/>
</g>

<g transform="matrix( 1, 0, 0, 1, 0,0) ">
<use xlink:href="#Layer0_0_FILL"/>
</g>
</g>
</svg>
