
<svg xmlns="http://www.w3.org/2000/svg" version="1.1" xmlns:xlink="http://www.w3.org/1999/xlink" preserveAspectRatio="none" x="0px" y="0px" width="50px" height="50px" viewBox="0 0 50 50">
<defs>
<g id="imageOption_0_Layer2_0_FILL">
<path fill="#000000" fill-opacity="0.00392156862745098" stroke="none" d="
M -3.05 -4.5
L -3.05 41.75 41.2 41.75 41.2 -4.5 -3.05 -4.5 Z"/>
</g>

<g id="imageOption_0_Layer1_0_FILL">
<path fill="#009999" stroke="none" d="
M 21.1 3.55
L 21 3.25 19.35 3.65 19.3 3.65 17.65 3.25 17.55 3.55 15.3 4.6 15.65 5.25 15.7 5.4 15.55 5.65 12.7 7.25 13.4 9 14.55 9 17.25 11.6 19.1 11.95 19.55 11.95 21.35 11.6 24.1 9 25.25 9 25.9 7.25 23.05 5.65 22.9 5.4 22.95 5.25 23.35 4.6 21.1 3.55
M 21.55 6.6
L 22.05 9.55 21 11 20 11.25 19.85 10.3 21.55 6.6
M 18.6 11.25
L 17.65 11 16.6 9.55 17.05 6.6 18.75 10.3 18.6 11.25 Z"/>

<path fill="#00BC9C" stroke="none" d="
M 17.65 11
L 18.6 11.25 18.75 10.3 17.05 6.6 16.6 9.55 17.65 11
M 22.05 9.55
L 21.55 6.6 19.85 10.3 20 11.25 21 11 22.05 9.55 Z"/>

<path fill="#015F5C" stroke="none" d="
M 36.5 -0.5
L 2.2 -0.5
Q 1.1 -0.1 0.55 0.6 -0.55 2.05 2.45 3.75 2.95 3.4 3.45 3 4.5 2.25 4.7 2.25
L 8.2 4 11.2 4
Q 11.25 4 13.9 5.65 14.18046875 5.8037109375 14.45 5.95
L 15.65 5.25 15.3 4.6 17.55 3.55 17.65 3.25 19.3 3.65 19.35 3.65 21 3.25 21.1 3.55 23.35 4.6 22.95 5.25 24.2 5.95
Q 24.50234375 5.81328125 24.8 5.65 27.45 4 27.5 4
L 30.5 4 34 2.25
Q 34.2 2.25 35.25 3 35.75 3.4 36.25 3.75 39.25 2.05 38.15 0.6 37.6 -0.1 36.5 -0.5 Z"/>
</g>

<g id="imageOption_0_Layer0_0_FILL">
<path fill="#015F5C" stroke="none" d="
M 33.8 14.9
L 34.4 14.9 31.9 12.4 23.65 12.4 22.8 11.4 21.55 12.4 16.8 12.4 15.55 11.4 14.7 12.4 6.45 12.4 3.95 14.9 4.55 14.9 4.55 16.3 5.05 16.3 5.05 33.15 5.95 34.05 6.6 34.05 7.45 34.9 30.9 34.9 31.75 34.05 32.4 34.05 33.3 33.15 33.3 16.3 33.8 16.3 33.8 14.9
M 30.95 13.75
Q 32.35 13.75 32.35 15.15
L 32.35 22.7 32.35 32.4
Q 32.35 33.8 30.95 33.8
L 11.6 33.8 18 27.4 17.9 27.3 15.4 24.8 13.25 22.65 9.9 26 8.55 27.35 6.05 27.25 6.05 15.15
Q 6.05 13.75 7.45 13.75
L 30.95 13.75
M 26.3 19.15
L 26.3 19.1 26.2 19.2 26.3 19.15 Z"/>

<path fill="#00BC9C" stroke="none" d="
M 8.25 17.85
Q 6.8 19.3 6.8 21.35 6.8 23.45 8.25 24.9 9 25.65 9.9 26
L 13.25 22.65 15.4 24.8
Q 16.75 23.35 16.75 21.35 16.75 19.3 15.3 17.85 13.85 16.4 11.8 16.4 9.75 16.4 8.25 17.85
M 29.6 21.3
L 29.6 22.05 30.45 22.05 30.4 21.3 29.6 21.3 Z"/>

<path fill="#00A096" stroke="none" d="
M 22.35 22.3
L 23.9 20.25 26.2 19.2 26.3 19.1 26.3 19.15 29.15 22 29.6 22.05 29.6 21.3 30.4 21.3 30.45 22.05 31.15 22.05 32.35 22.7 32.35 15.15
Q 32.35 13.75 30.95 13.75
L 7.45 13.75
Q 6.05 13.75 6.05 15.15
L 6.05 27.25 8.55 27.35 9.9 26
Q 9 25.65 8.25 24.9 6.8 23.45 6.8 21.35 6.8 19.3 8.25 17.85 9.75 16.4 11.8 16.4 13.85 16.4 15.3 17.85 16.75 19.3 16.75 21.35 16.75 23.35 15.4 24.8
L 17.9 27.3 19.45 23.45 22.35 22.3 Z"/>

<path fill="#017260" stroke="none" d="
M 23.9 20.25
L 22.35 22.3 19.45 23.45 17.9 27.3 18 27.4 11.6 33.8 30.95 33.8
Q 32.35 33.8 32.35 32.4
L 32.35 22.7 31.15 22.05 30.45 22.05 29.6 22.05 29.15 22 26.3 19.15 26.2 19.2 23.9 20.25 Z"/>
</g>
</defs>

<g id="imageOption" transform="matrix( 1.2961273193359375, 0, 0, 1.2961273193359375, -0.15,0.4) ">
<g transform="matrix( 1, 0, 0, 1, 0,0) ">
<use xlink:href="#imageOption_0_Layer2_0_FILL"/>
</g>

<g transform="matrix( 1, 0, 0, 1, 0,0) ">
<use xlink:href="#imageOption_0_Layer1_0_FILL"/>
</g>

<g transform="matrix( 1, 0, 0, 1, 0,0) ">
<use xlink:href="#imageOption_0_Layer0_0_FILL"/>
</g>
</g>
</svg>
