
<svg xmlns="http://www.w3.org/2000/svg" version="1.1" xmlns:xlink="http://www.w3.org/1999/xlink" preserveAspectRatio="none" x="0px" y="0px" width="320px" height="320px" viewBox="0 0 320 320">
<defs>
<filter id="Filter_1" x="-20%" y="-20%" width="140%" height="140%" color-interpolation-filters="sRGB">
<feColorMatrix in="SourceGraphic" type="matrix" values="1 0 0 0 0 0 1 0 0 0 0 0 1 0 0 0 0 0 0.4 0" result="result1"/>
</filter>

<g id="wisp_0_Layer0_0_FILL">
<path fill="#3AC4AD" fill-opacity="0.4" stroke="none" d="
M -30.9 102.95
Q -31.55 102.95 -31.55 103.6
L -31.55 127.95
Q -31.55 128.65 -30.9 128.65
L -17.95 128.65
Q -17.25 128.65 -17.25 127.95
L -17.25 125.9
Q -17.25 125.15 -17.95 125.15
L -27.2 125.15
Q -27.7 125.15 -27.7 124.75
L -27.7 103.6
Q -27.7 102.95 -28.4 102.95
L -30.9 102.95
M 102.25 110.55
L 102.25 109.15
Q 102.25 106.15 100.65 104.55 99 102.95 96.05 102.95
L 91.75 102.95
Q 90.3 102.95 89.15 103.35 88 103.75 87.2 104.55 85.55 106.15 85.55 109.15
L 85.55 122.45
Q 85.55 125.35 87.2 127 88 127.85 89.15 128.25 90.3 128.65 91.75 128.65
L 96.05 128.65
Q 97.5 128.65 98.65 128.25 99.8 127.85 100.6 127 102.25 125.35 102.25 122.45
L 102.25 115.7
Q 102.25 114.9 101.4 114.9
L 94.7 114.9
Q 94 114.9 94 115.55
L 94 117.6
Q 94 118.3 94.7 118.3
L 97.95 118.3
Q 98.35 118.3 98.35 118.7
L 98.35 122.3
Q 98.35 123.75 97.65 124.5 96.95 125.25 95.5 125.25
L 92.35 125.25
Q 90.9 125.25 90.2 124.5 89.45 123.75 89.45 122.3
L 89.45 109.3
Q 89.45 106.35 92.35 106.35
L 95.5 106.35
Q 98.35 106.35 98.35 109.3
L 98.35 110.55
Q 98.35 111.3 99.05 111.3
L 101.55 111.3
Q 102.25 111.3 102.25 110.55
M 3.1 109.15
Q 3.1 106.15 1.45 104.55 -0.15 102.95 -3.15 102.95
L -7.8 102.95
Q -9.25 102.95 -10.4 103.35 -11.55 103.75 -12.35 104.55 -14 106.15 -14 109.15
L -14 122.45
Q -14 125.35 -12.35 127 -11.55 127.85 -10.4 128.25 -9.25 128.65 -7.8 128.65
L -3.15 128.65
Q -1.65 128.65 -0.5 128.25 0.65 127.85 1.45 127 3.1 125.35 3.1 122.45
L 3.1 109.15
M -1.55 107.05
Q -0.8 107.8 -0.8 109.3
L -0.8 122.3
Q -0.8 123.75 -1.55 124.5 -2.3 125.25 -3.75 125.25
L -7.2 125.25
Q -8.65 125.25 -9.35 124.5 -10.1 123.75 -10.1 122.3
L -10.1 109.3
Q -10.1 106.35 -7.2 106.35
L -3.75 106.35
Q -2.3 106.35 -1.55 107.05
M 19.5 103.6
Q 19.3 102.95 18.5 102.95
L 14.5 102.95
Q 13.75 102.95 13.55 103.6
L 6.6 127.95
Q 6.45 128.65 7 128.65
L 9.85 128.65
Q 10.45 128.65 10.6 127.95
L 12.1 122.75 20.9 122.75 22.65 128.5 23.15 128.65 26 128.65
Q 26.6 128.65 26.45 127.95
L 19.5 103.6
M 16.45 106.8
L 16.6 106.8 20.15 119.55 12.9 119.55 16.45 106.8
M 45.5 104.55
Q 43.8 102.95 40.9 102.95
L 31.05 102.95
Q 30.4 102.95 30.4 103.6
L 30.4 127.95
Q 30.4 128.65 31.05 128.65
L 40.9 128.65
Q 42.35 128.65 43.5 128.25 44.65 127.85 45.5 127 46.3 126.2 46.7 125.05 47.15 123.9 47.15 122.45
L 47.15 109.15
Q 47.15 107.65 46.7 106.5 46.3 105.35 45.5 104.55
M 43.2 109.3
L 43.2 122.3
Q 43.2 123.75 42.5 124.5 41.75 125.25 40.3 125.25
L 34.7 125.25
Q 34.25 125.25 34.25 124.8
L 34.25 106.75
Q 34.25 106.35 34.7 106.35
L 40.3 106.35
Q 43.2 106.35 43.2 109.3
M 56.65 103.6
Q 56.65 102.95 56 102.95
L 53.45 102.95
Q 52.8 102.95 52.8 103.6
L 52.8 127.95
Q 52.8 128.65 53.45 128.65
L 56 128.65
Q 56.65 128.65 56.65 127.95
L 56.65 103.6
M 79.5 102.95
L 77 102.95
Q 76.3 102.95 76.3 103.6
L 76.3 120.8 76.15 120.8 66.45 103.4
Q 66.25 102.95 65.6 102.95
L 63.35 102.95
Q 62.7 102.95 62.7 103.6
L 62.7 127.95
Q 62.7 128.65 63.35 128.65
L 65.8 128.65
Q 66.5 128.65 66.5 127.95
L 66.5 110.8 66.65 110.8 76.25 128
Q 76.65 128.65 77.3 128.65
L 79.5 128.65
Q 80.15 128.65 80.15 127.95
L 80.15 103.6
Q 80.15 102.95 79.5 102.95 Z"/>
</g>

<g id="drone_0_Layer0_0_FILL">
<path fill="#666666" stroke="none" d="
M 14.8 26.85
Q 14.65 26.85 14.55 26.85 13.9 27.1 13.25 27.2 14 27.1 14.8 26.85
M 11.95 21.3
Q 11.95 21.25 11.85 21.25
L 11.45 21.25
Q 11.25 21.25 11.15 21.4
L 10.25 24.4
Q 10.2 24.5 10.2 24.6
L 10.2 25
Q 10.2 25.15 10.35 25.15
L 11.85 25.15 11.85 25.85
Q 11.85 26 12.05 26
L 12.35 26
Q 12.5 26 12.5 25.85
L 12.5 25.15 12.85 25.15
Q 13.05 25.15 13.05 25
L 13.05 24.6
Q 12.95 24.5 12.85 24.5
L 12.5 24.5 12.5 23.75
Q 12.5 23.65 12.35 23.6
L 12.05 23.6
Q 11.85 23.65 11.85 23.75
L 11.85 24.5 11 24.5
Q 11.4 23.35 11.95 21.3
M 11.65 6.05
Q 11.3 6.05 10.95 6.1 10.95 6.5 10.9 7.05 10.8 7.85 10.75 8.75 10.25 13.55 9.25 18 8.3 22.65 6.9 26.2 7.55 26.5 8.3 26.75 10 22.9 10.8 17.5 11.45 13.85 11.5 9.85 11.55 9.15 11.55 8.5 11.55 8.05 11.5 7.65 11.5 7.25 11.5 7 11.55 7 11.65 7 11.65 7.3 11.65 7.7 11.6 8.65 11.65 9.95 11.75 13.95 12.3 17.6 13.05 22.5 14.55 26.1 14.7 26.45 14.85 26.8 15.65 26.55 16.4 26.2 14.95 22.65 13.9 17.9 13 13.55 12.45 8.65 12.4 7.85 12.3 7.05 12.25 6.55 12.25 6.1 11.95 6.05 11.65 6.05 Z"/>

<path fill="#999999" stroke="none" d="
M 11.55 8.5
Q 11.55 9.15 11.5 9.85 11.45 13.85 10.8 17.5 10 22.9 8.3 26.75 9.65 27.25 11.2 27.3 11.4 27.3 11.65 27.3 11.75 27.3 11.85 27.3
L 13.25 27.2
Q 13.9 27.1 14.55 26.85 14.65 26.85 14.8 26.85
L 14.85 26.8
Q 14.7 26.45 14.55 26.1 13.05 22.5 12.3 17.6 11.75 13.95 11.65 9.95 11.6 8.65 11.65 7.7 11.65 7.3 11.65 7 11.55 7 11.5 7 11.5 7.25 11.5 7.65 11.55 8.05 11.55 8.5
M 11.85 21.25
Q 11.95 21.25 11.95 21.3 11.4 23.35 11 24.5
L 11.85 24.5 11.85 23.75
Q 11.85 23.65 12.05 23.6
L 12.35 23.6
Q 12.5 23.65 12.5 23.75
L 12.5 24.5 12.85 24.5
Q 12.95 24.5 13.05 24.6
L 13.05 25
Q 13.05 25.15 12.85 25.15
L 12.5 25.15 12.5 25.85
Q 12.5 26 12.35 26
L 12.05 26
Q 11.85 26 11.85 25.85
L 11.85 25.15 10.35 25.15
Q 10.2 25.15 10.2 25
L 10.2 24.6
Q 10.2 24.5 10.25 24.4
L 11.15 21.4
Q 11.25 21.25 11.45 21.25
L 11.85 21.25
M 18.9 23.55
Q 18.55 23.75 18.5 24.1 18.4 24.4 18.6 24.65
L 18.7 24.7
Q 18.85 24.95 19.15 25.05 19.4 25.1 19.7 24.95 20 24.75 20.1 24.45 20.2 24.1 20 23.8 19.9 23.65 19.75 23.55 19.65 23.45 19.5 23.45 19.15 23.35 18.9 23.55
M 17.35 22.8
Q 17.25 23 17.35 23.2 17.5 23.35 17.65 23.35 17.85 23.4 18 23.3 18.2 23.2 18.2 23 18.25 22.8 18.15 22.65 18.05 22.5 17.9 22.4 17.7 22.35 17.5 22.5 17.35 22.6 17.35 22.8
M 21.05 20.8
Q 20.8 20.4 20.3 20.3 20.1 20.25 20 20.25 19.7 20.25 19.35 20.45 18.95 20.7 18.85 21.2 18.7 21.7 19 22.1 19.25 22.6 19.7 22.7 20.1 22.8 20.55 22.6 20.65 22.55 20.7 22.5 21.1 22.2 21.2 21.75 21.25 21.55 21.25 21.4 21.2 21.3 21.2 21.2 21.15 21 21.05 20.8
M 6.05 23.2
Q 6.15 23.05 6.1 22.85 6.05 22.65 5.85 22.55 5.7 22.4 5.55 22.5 5.3 22.5 5.2 22.7 5.1 22.9 5.2 23.1 5.2 23.25 5.4 23.35 5.55 23.45 5.75 23.45 5.95 23.35 6.05 23.2
M 3.65 23.6
Q 3.45 23.7 3.35 23.85 3.2 24.2 3.25 24.5 3.35 24.8 3.65 25 3.95 25.15 4.3 25.1 4.55 25.05 4.75 24.75 4.95 24.45 4.85 24.15 4.8 23.75 4.5 23.6 4.25 23.45 3.9 23.45 3.75 23.5 3.65 23.6
M 4.05 20.5
Q 3.75 20.3 3.35 20.3 3.2 20.3 3.1 20.35 2.65 20.45 2.35 20.85 2.25 21.1 2.2 21.2 2.15 21.3 2.15 21.45 2.15 21.6 2.2 21.8 2.3 22.25 2.75 22.6 2.8 22.65 2.85 22.65 3.2 22.85 3.65 22.75 4.15 22.6 4.4 22.15 4.65 21.75 4.55 21.3 4.5 20.75 4.05 20.5
M 10.8 1.2
Q 10.8 0.8 10.55 0.55 10.45 0.5 10.35 0.4 10.15 0.3 9.85 0.3 9.45 0.3 9.15 0.55 8.9 0.8 8.85 1.15 8.95 1.15 9 1.15
L 9.05 1.15
Q 9.15 1.15 9.15 1.2 9.2 1.25 9.2 1.4 9.2 1.5 9.15 1.5
L 9.15 1.55
Q 9.05 1.6 9 1.6
L 8.95 1.6
Q 9 1.8 9.15 1.9 9.2 2 9.25 2 9.6 2.2 9.85 2.2 10.25 2.2 10.55 1.9 10.8 1.65 10.8 1.2
M 14.2 1.25
Q 14.15 1.2 14.15 1.1 14.15 1.05 14.2 1 14.25 0.9 14.35 0.9
L 14.4 0.9
Q 14.35 0.7 14.15 0.55 13.85 0.3 13.5 0.3 13.25 0.3 13 0.4 12.85 0.5 12.85 0.55 12.5 0.8 12.5 1.2 12.5 1.65 12.85 1.9 13.1 2.2 13.5 2.2 13.8 2.2 14 2 14.05 2 14.15 1.9 14.45 1.7 14.45 1.35 14.4 1.35 14.35 1.35 14.25 1.35 14.2 1.25 Z"/>

<path fill="#CCCCCC" stroke="none" d="
M 12.25 6
Q 12.25 6.05 12.25 6.1 12.25 6.55 12.3 7.05 12.4 7.85 12.45 8.65 13 13.55 13.9 17.9 14.95 22.65 16.4 26.2 16.75 27.3 17.25 28.2
L 18.3 28.2
Q 18.4 28.15 18.5 28.05 19.9 27.05 21 25.35 23.6 21.5 23.15 16.35 22.7 11.25 19.45 8.05 16.5 5.1 12.85 5.2
L 12.75 5.2
Q 12.4 5.2 12.2 5.25 12.25 5.55 12.25 6
M 20.3 20.3
Q 20.8 20.4 21.05 20.8 21.15 21 21.2 21.2 21.2 21.3 21.25 21.4 21.25 21.55 21.2 21.75 21.1 22.2 20.7 22.5 20.65 22.55 20.55 22.6 20.1 22.8 19.7 22.7 19.25 22.6 19 22.1 18.7 21.7 18.85 21.2 18.95 20.7 19.35 20.45 19.7 20.25 20 20.25 20.1 20.25 20.3 20.3
M 17.35 23.2
Q 17.25 23 17.35 22.8 17.35 22.6 17.5 22.5 17.7 22.35 17.9 22.4 18.05 22.5 18.15 22.65 18.25 22.8 18.2 23 18.2 23.2 18 23.3 17.85 23.4 17.65 23.35 17.5 23.35 17.35 23.2
M 18.5 24.1
Q 18.55 23.75 18.9 23.55 19.15 23.35 19.5 23.45 19.65 23.45 19.75 23.55 19.9 23.65 20 23.8 20.2 24.1 20.1 24.45 20 24.75 19.7 24.95 19.4 25.1 19.15 25.05 18.85 24.95 18.7 24.7
L 18.6 24.65
Q 18.4 24.4 18.5 24.1
M 10.5 5.25
Q 10.45 5.25 10.4 5.25 6.7 5.15 3.8 8.05 0.55 11.35 0.05 16.45 -0.4 21.55 2.3 25.4 3.3 27.1 4.65 28.1 4.75 28.15 4.85 28.2
L 6.05 28.2
Q 6.45 27.25 6.9 26.2 8.3 22.65 9.25 18 10.25 13.55 10.75 8.75 10.8 7.85 10.9 7.05 10.95 6.5 10.95 6.1
L 10.95 6.05
Q 10.95 5.65 11 5.25 10.75 5.25 10.5 5.25
M 3.35 20.3
Q 3.75 20.3 4.05 20.5 4.5 20.75 4.55 21.3 4.65 21.75 4.4 22.15 4.15 22.6 3.65 22.75 3.2 22.85 2.85 22.65 2.8 22.65 2.75 22.6 2.3 22.25 2.2 21.8 2.15 21.6 2.15 21.45 2.15 21.3 2.2 21.2 2.25 21.1 2.35 20.85 2.65 20.45 3.1 20.35 3.2 20.3 3.35 20.3
M 3.35 23.85
Q 3.45 23.7 3.65 23.6 3.75 23.5 3.9 23.45 4.25 23.45 4.5 23.6 4.8 23.75 4.85 24.15 4.95 24.45 4.75 24.75 4.55 25.05 4.3 25.1 3.95 25.15 3.65 25 3.35 24.8 3.25 24.5 3.2 24.2 3.35 23.85
M 6.1 22.85
Q 6.15 23.05 6.05 23.2 5.95 23.35 5.75 23.45 5.55 23.45 5.4 23.35 5.2 23.25 5.2 23.1 5.1 22.9 5.2 22.7 5.3 22.5 5.55 22.5 5.7 22.4 5.85 22.55 6.05 22.65 6.1 22.85
M 12.85 0.55
Q 12.85 0.5 13 0.4 12.4 0 11.65 0 10.9 0 10.35 0.4 10.45 0.5 10.55 0.55 10.8 0.8 10.8 1.2 10.8 1.65 10.55 1.9 10.25 2.2 9.85 2.2 9.6 2.2 9.25 2 9.25 2.2 9.25 2.45 9.25 3.45 9.95 4.15 10.65 4.9 11.65 4.9 12.7 4.9 13.4 4.15 14.05 3.45 14.05 2.45 14.05 2.2 14 2 13.8 2.2 13.5 2.2 13.1 2.2 12.85 1.9 12.5 1.65 12.5 1.2 12.5 0.8 12.85 0.55 Z"/>
</g>
</defs>

<g transform="matrix( 1, 0, 0, 1, 99.95,15.05) ">
<g transform="matrix( 1, 0, 0, 1, 0,0) ">
<use xlink:href="#wisp_0_Layer0_0_FILL"/>
</g>

<g transform="matrix( 1, 0, 0, 1, -32.5,143.9) ">
<g id="drone" transform="matrix( 1, 0, 0, 1, 158.45,-10) ">
<g transform="matrix( 1, 0, 0, 1, 0,0) ">
<g transform="matrix( 1, 0, 0, 1, 0,0) ">
<use filter="url(#Filter_1)" xlink:href="#drone_0_Layer0_0_FILL"/>
</g>
</g>
</g>
</g>
</g>
</svg>
