
<svg xmlns="http://www.w3.org/2000/svg" version="1.1" xmlns:xlink="http://www.w3.org/1999/xlink" preserveAspectRatio="none" x="0px" y="0px" width="100px" height="100px" viewBox="0 0 100 100">
<defs>
<g id="maker_0_Layer3_0_FILL">
<path fill="#FFFFFF" stroke="none" d="
M 46.5 -39.75
Q 46.5 -44.75 41.5 -44.75
L -39.75 -44.75
Q -44.75 -44.75 -44.75 -39.75
L -44.75 41.5
Q -44.75 46.5 -39.75 46.5
L 41.5 46.5
Q 46.5 46.5 46.5 41.5
L 46.5 -39.75 Z"/>
</g>

<g id="makerGroup_0_Layer1_0_FILL">
<path fill="#000000" stroke="none" d="
M 12.8 33.6
L 11.45 40.4 17.85 37.7 12.8 33.6
M 30.3 11.75
L 35.45 15.9 38.85 11.75 33.7 7.6 30.3 11.75
M 35 16.5
L 29.85 12.35 13.05 33.1 18.2 37.25 35 16.5 Z"/>
</g>

<path id="makerGroup_0_Layer0_0_1_STROKES" stroke="#454545" stroke-width="4" stroke-linejoin="round" stroke-linecap="round" fill="none" d="
M 49 24.5
Q 49 34.65 41.8 41.8 34.65 49 24.5 49 14.35 49 7.15 41.8 0 34.65 0 24.5 0 14.35 7.15 7.15 14.35 0 24.5 0 34.65 0 41.8 7.15 49 14.35 49 24.5 Z"/>
</defs>

<g id="maker" transform="matrix( 1, 0, 0, 1, 50.15,50.55) ">
<g transform="matrix( 1, 0, 0, 1, 0,0) ">
<use xlink:href="#maker_0_Layer3_0_FILL"/>
</g>

<g transform="matrix( 1.4596099853515625, 0, 0, 1.4596099853515625, -35.5,-33.25) ">
<g transform="matrix( 1, 0, 0, 1, 0,0) ">
<use xlink:href="#makerGroup_0_Layer1_0_FILL"/>
</g>

<g transform="matrix( 1, 0, 0, 1, 0,0) ">
<use xlink:href="#makerGroup_0_Layer0_0_1_STROKES"/>
</g>
</g>
</g>
</svg>
