
<svg xmlns="http://www.w3.org/2000/svg" version="1.1" xmlns:xlink="http://www.w3.org/1999/xlink" preserveAspectRatio="none" x="0px" y="0px" width="50px" height="50px" viewBox="0 0 50 50">
<defs>
<g id="next_0_Layer0_0_FILL">
<path fill="#000000" fill-opacity="0.9686274509803922" stroke="none" d="
M 23.9 22.1
Q 24.75 21.25 24.8 20.05
L 24.8 20
Q 24.8 19.9 24.8 19.85 24.75 18.6 23.9 17.75
L 17.25 11.1
Q 17.1 10.95 16.95 10.95 16.15 10.85 15.55 10.3
L 11.3 6.1
Q 10.65 5.45 10.55 4.55 10.55 4.4 10.4 4.25
L 6.85 0.7
Q 5.9 -0.25 4.55 -0.25 3.15 -0.25 2.25 0.7
L 2.3 0.7
Q 1.75 1.15 1.5 1.85 1.45 2 1.45 2.15 1.5 2.25 1.6 2.4
L 6.5 7.3
Q 6.65 7.45 6.85 7.45 6.95 7.45 7 7.45 7.15 7.45 7.3 7.45 8.15 7.55 8.8 8.2
L 13.05 12.4 13.05 12.45
Q 13.7 13 13.8 13.8
L 13.8 13.85
Q 13.8 13.9 13.8 13.95
L 13.8 14
Q 13.8 14.15 13.8 14.3 13.8 14.4 13.8 14.55 13.85 14.65 13.95 14.7
L 17.45 18.2
Q 18.05 18.8 18.05 19.75 18.05 19.8 18.05 19.85 18.05 19.9 18.05 20
L 18.05 20.1
Q 18.05 21.05 17.45 21.65
L 13.95 25.15
Q 13.8 25.3 13.8 25.5 13.8 25.7 13.8 25.9 13.8 25.95 13.8 26 13.7 26.8 13.05 27.45
L 8.8 31.65
Q 8.15 32.3 7.35 32.4
L 7.3 32.4
Q 7.15 32.4 7 32.4 6.95 32.4 6.85 32.4 6.65 32.4 6.5 32.55
L 1.6 37.45
Q 1.5 37.55 1.45 37.7 1.45 37.85 1.5 38 1.7849609375 38.6650390625 2.25 39.15 2.275 39.175 2.3 39.2 3.187890625 40.1 4.55 40.1 5.9 40.1 6.85 39.15
L 10.4 35.6
Q 10.55 35.45 10.55 35.3 10.65 34.4 11.3 33.75
L 15.55 29.55 15.55 29.6
Q 16.15 29 16.95 28.9 17.15 28.9 17.25 28.75
L 23.9 22.1 Z"/>
</g>
</defs>

<g id="next" transform="matrix( 1, 0, 0, 1, 15,5) ">
<g transform="matrix( 1, 0, 0, 1, 0,0) ">
<use xlink:href="#next_0_Layer0_0_FILL"/>
</g>
</g>
</svg>
