
<svg xmlns="http://www.w3.org/2000/svg" version="1.1" xmlns:xlink="http://www.w3.org/1999/xlink" preserveAspectRatio="none" x="0px" y="0px" width="50px" height="50px" viewBox="0 0 50 50">
<defs>
<g id="Layer0_0_FILL">
<path fill="#000000" fill-opacity="0.9686274509803922" stroke="none" d="
M 24.7 21.1
Q 25 20.55 27.45 20.8 30.45 21.1 31.95 20.55 33.8 20 33.25 19.05
L 32.25 18.25 14.05 5.8 13.75 5.9 14.75 27.9 14.95 29.15
Q 15.45 30.15 16.9 28.9 18.1 27.9 19.45 25.15 20.55 22.95 21.15 23 21.95 23.1 25.25 29.45 26.9 32.6 28.4 35.75
L 29.2 36.65
Q 29.6486328125 36.9640625 30.05 36.9
L 30.1 36.95 30.35 36.95
Q 30.5248046875 36.8625 30.65 36.75 30.8103515625 36.74296875 30.95 36.65 31.244921875 36.5275390625 31.5 36.25 32.0251953125 35.98671875 32.1 35.4 32.09765625 35.3552734375 32.1 35.3 32.103125 35.2271484375 32.1 35.15
L 31.75 33.95
Q 29.85 31 28.05 27.95 24.4 21.8 24.7 21.1 Z"/>
</g>
</defs>

<g transform="matrix( 1, 0, 0, 1, 0,0) ">
<use xlink:href="#Layer0_0_FILL"/>
</g>
</svg>
