
<svg xmlns="http://www.w3.org/2000/svg" version="1.1" xmlns:xlink="http://www.w3.org/1999/xlink" preserveAspectRatio="none" x="0px" y="0px" width="50px" height="50px" viewBox="0 0 50 50">
<defs>
<g id="previous_0_Layer0_0_FILL">
<path fill="#000000" fill-opacity="0.9686274509803922" stroke="none" d="
M 24.8 1.85
Q 24.54921875 1.1748046875 23.95 0.65
L 24 0.7
Q 23.1251953125 -0.250390625 21.75 -0.25 20.3935546875 -0.246875 19.45 0.7
L 15.9 4.25
Q 15.76953125 4.3751953125 15.75 4.55 15.665625 5.4283203125 15 6.1
L 10.75 10.3 10.75 10.25
Q 10.126171875 10.86640625 9.35 10.95 9.175390625 10.96953125 9.05 11.1
L 2.4 17.75
Q 1.5607421875 18.5791015625 1.5 19.8
L 1.5 19.85
Q 1.5 19.9240234375 1.5 20
L 1.5 20
Q 1.561328125 21.271484375 2.4 22.1
L 9.05 28.75
Q 9.174609375 28.877734375 9.35 28.9 10.1322265625 28.98984375 10.75 29.55
L 10.75 29.55 15 33.75
Q 15.665625 34.421484375 15.75 35.3 15.76953125 35.474609375 15.9 35.6
L 19.45 39.15
Q 20.3935546875 40.0970703125 21.75 40.1 23.1251953125 40.1001953125 24 39.15
L 23.95 39.15
Q 24.506640625 38.70625 24.8 38 24.8693359375 37.853125 24.85 37.7 24.813671875 37.5548828125 24.7 37.45
L 19.8 32.55
Q 19.6552734375 32.4017578125 19.45 32.4 19.35 32.4 19.3 32.4 19.149609375 32.4 18.95 32.4
L 18.95 32.4
Q 18.1484375 32.29375 17.5 31.65
L 13.25 27.45 13.25 27.4
Q 12.5900390625 26.813671875 12.5 26 12.5 25.9365234375 12.5 25.9 12.5 25.7 12.5 25.5 12.4982421875 25.2947265625 12.35 25.15
L 8.85 21.65
Q 8.2482421875 21.036328125 8.25 20.1 8.25 20.0625 8.25 20
L 8.25 20
Q 8.25234375 19.91328125 8.25 19.8 8.25 19.787890625 8.25 19.75 8.2482421875 18.813671875 8.85 18.2
L 12.35 14.7
Q 12.4337890625 14.62578125 12.45 14.5 12.512890625 14.41484375 12.5 14.3 12.4845703125 14.158984375 12.5 14
L 12.5 13.95
Q 12.5 13.9 12.5 13.85
L 12.5 13.8
Q 12.6099609375 13.017578125 13.25 12.4
L 13.25 12.4 17.5 8.2
Q 18.1681640625 7.5365234375 19 7.45 19.132421875 7.45 19.3 7.45 19.3609375 7.45 19.4 7.45 19.6302734375 7.4486328125 19.75 7.3
L 24.65 2.35
Q 24.7853515625 2.2685546875 24.8 2.1 24.853125 1.9853515625 24.8 1.85 Z"/>
</g>
</defs>

<g transform="matrix( 1, 0, 0, 1, 9.45,5) ">
<g transform="matrix( 1, 0, 0, 1, 0,0) ">
<use xlink:href="#previous_0_Layer0_0_FILL"/>
</g>
</g>
</svg>
