
<svg xmlns="http://www.w3.org/2000/svg" version="1.1" xmlns:xlink="http://www.w3.org/1999/xlink" preserveAspectRatio="none" x="0px" y="0px" width="50px" height="50px" viewBox="0 0 50 50">
<defs>
<g id="Layer0_0_FILL">
<path fill="#000000" stroke="none" d="
M 6.1 14.3
L 6.6 14.3 5.9 16.2 6.6 16.2 5.7 18.65 9.25 18.75 9.25 22 10.6 22 10.6 18.75 13.85 18.75 13.25 16.3 14.05 16.3 13.55 14.35 14.25 14.35 11 1.35 6.1 14.3
M 23.9 18.65
L 23 16.2 23.7 16.2 23 14.3 23.5 14.3 18.6 1.35 15.35 14.35 16 14.35 15.55 16.3 16.35 16.3 15.75 18.75 19 18.75 19 22 20.35 22 20.35 18.75 23.9 18.65
M 42.4 17.35
L 42.4 6 31.15 6 31.15 17.35 31.65 17.35 31.65 22 33.1 22 33.1 17.35 40.4 17.35 40.4 22 41.85 22 41.85 17.35 42.4 17.35
M 38.5 11.7
L 38.5 7.4 40.35 7.4 40.35 11.7 38.5 11.7
M 7.1 40.65
Q 6.75 41 6.75 41.45
L 6.75 41.5
Q 6.75 41.95 7.1 42.2 7.5 42.55 8.05 42.55
L 14.2 42.55
Q 14.75 42.55 15.1 42.2 15.5 41.95 15.5 41.5
L 15.5 41.45
Q 15.5 41 15.1 40.65 14.75 40.4 14.2 40.4
L 8.05 40.4
Q 7.5 40.4 7.1 40.65
M 42.45 31.8
Q 42.15 31.5 41.65 31.5
L 7.55 31.5
Q 7.05 31.5 6.7 31.8 6.4 32.15 6.4 32.65 6.4 33.15 6.7 33.45 7.05 33.8 7.55 33.8
L 41.65 33.8
Q 42.15 33.8 42.45 33.45 42.8 33.15 42.8 32.65 42.8 32.15 42.45 31.8
M 42.45 35.9
Q 42.15 35.6 41.65 35.6
L 7.55 35.6
Q 7.05 35.6 6.7 35.9 6.4 36.25 6.4 36.75 6.4 37.25 6.7 37.55 7.05 37.9 7.55 37.9
L 41.65 37.9
Q 42.15 37.9 42.45 37.55 42.8 37.25 42.8 36.75 42.8 36.25 42.45 35.9
M 42.8 28.55
Q 42.8 28.05 42.45 27.7 42.15 27.4 41.65 27.4
L 7.55 27.4
Q 7.05 27.4 6.7 27.7 6.4 28.05 6.4 28.55 6.4 29.05 6.7 29.35 7.05 29.7 7.55 29.7
L 41.65 29.7
Q 42.15 29.7 42.45 29.35 42.8 29.05 42.8 28.55
M 42.8 24.45
Q 42.8 23.95 42.45 23.6 42.15 23.3 41.65 23.3
L 7.55 23.3
Q 7.05 23.3 6.7 23.6 6.4 23.95 6.4 24.45 6.4 24.95 6.7 25.25 7.05 25.6 7.55 25.6
L 41.65 25.6
Q 42.15 25.6 42.45 25.25 42.8 24.95 42.8 24.45 Z"/>
</g>
</defs>

<g transform="matrix( 1, 0, 0, 1, 0,0) ">
<use xlink:href="#Layer0_0_FILL"/>
</g>
</svg>
