
<svg xmlns="http://www.w3.org/2000/svg" version="1.1" xmlns:xlink="http://www.w3.org/1999/xlink" preserveAspectRatio="none" x="0px" y="0px" width="50px" height="50px" viewBox="0 0 50 50">
<defs>
<g id="settings_0_Layer0_0_FILL">
<path fill="#000000" stroke="none" d="
M 42.4 26.35
Q 44.6 26.35 44.65 24.35
L 44.75 19.3
Q 44.8 17.3 42.55 17.25
L 38.75 17.2 38.75 17.55
Q 38.3 15.9 37.45 14.35
L 40.1 11.65
Q 41.65 10 40.2 8.65
L 36.55 5.1
Q 35.1 3.75 33.55 5.35
L 31.2 7.8
Q 30.8 7.5 30.3 7.25
L 30 7.1
Q 28.55 6.3 26.95 5.85
L 26.95 2.2
Q 26.95 0 24.95 0
L 19.85 0
Q 19.3 0 18.9 0.15 18.15 0.5 17.95 1.35 17.8 1.75 17.8 2.35
L 17.8 5.8
Q 16.4 6.2 15.05 6.8 14.25 7.2 13.55 7.65
L 11.2 5.2
Q 9.65 3.6 8.2 5
L 4.55 8.5
Q 3.1 9.9 4.65 11.5
L 7.3 14.25
Q 6.45 15.75 6 17.45
L 6 17.05 2.2 17.15
Q -0.05 17.15 0 19.15
L 0.1 24.25
Q 0.15 26.25 2.35 26.2
L 5.8 26.15
Q 6.4 28.7 7.8 30.95
L 5.45 33.25
Q 3.9 34.8 5.3 36.25
L 8.85 39.85
Q 10.25 41.3 11.85 39.75
L 14.4 37.15
Q 15.95 38 17.6 38.5
L 17.6 42.05
Q 17.55 44.3 19.55 44.3
L 24.65 44.3
Q 25.2 44.3 25.65 44.15 27.2 43.9 27.15 41.9
L 27.15 38.55
Q 28.45 38.2 29.7 37.6 30 37.45 30.35 37.3
L 32.9 39.85
Q 34.5 41.4 35.9 40
L 39.45 36.35
Q 40.85 34.95 39.3 33.4
L 36.95 31.1
Q 38.35 28.85 38.95 26.25
L 42.4 26.35
M 26.65 18
Q 28.4 19.8 28.4 22.35 28.4 24.85 26.65 26.65 26.5 26.8 26.4 26.9 24.9 28.15 23 28.3 22.8 28.3 22.55 28.3 22.5 28.3 22.45 28.3 19.9 28.3 18.1 26.55 16.3 24.75 16.3 22.2 16.3 19.65 18.1 17.85 18.25 17.75 18.4 17.65 19.85 16.4 21.75 16.2 21.95 16.2 22.2 16.2 22.25 16.2 22.3 16.2 24.85 16.2 26.65 18 Z"/>
</g>
</defs>

<g id="settings" transform="matrix( 1, 0, 0, 1, 2.95,2.95) ">
<g transform="matrix( 1, 0, 0, 1, 0,0) ">
<use xlink:href="#settings_0_Layer0_0_FILL"/>
</g>
</g>
</svg>
