
<svg xmlns="http://www.w3.org/2000/svg" version="1.1" xmlns:xlink="http://www.w3.org/1999/xlink" preserveAspectRatio="none" x="0px" y="0px" width="100px" height="100px" viewBox="0 0 100 100">
<defs>
<g id="settingsLarge_mc_0_Layer1_0_FILL">
<path fill="#FFFFFF" stroke="none" d="
M 46.5 -39.75
Q 46.5 -44.75 41.5 -44.75
L -39.75 -44.75
Q -44.75 -44.75 -44.75 -39.75
L -44.75 41.5
Q -44.75 46.5 -39.75 46.5
L 41.5 46.5
Q 46.5 46.5 46.5 41.5
L 46.5 -39.75 Z"/>
</g>

<g id="settingsLarge_mc_0_Layer0_0_FILL">
<path fill="#000000" stroke="none" d="
M 26 -33
Q 23.25 -35.55 20.3 -32.5
L 15.85 -27.85
Q 15.1 -28.45 14.15 -28.9
L 13.55 -29.2
Q 10.8 -30.7 7.75 -31.55
L 7.75 -38.5
Q 7.75 -42.7 3.95 -42.7
L -5.75 -42.7
Q -6.8 -42.7 -7.55 -42.4 -9 -41.75 -9.35 -40.15 -9.65 -39.35 -9.65 -38.25
L -9.65 -31.65
Q -12.3 -30.9 -14.85 -29.75 -16.4 -29 -17.75 -28.15
L -22.2 -32.8
Q -25.15 -35.85 -27.9 -33.2
L -34.85 -26.55
Q -37.6 -23.85 -34.65 -20.85
L -29.6 -15.6
Q -31.25 -12.75 -32.1 -9.5
L -32.1 -10.25 -39.3 -10.1
Q -43.6 -10.1 -43.5 -6.3
L -43.3 3.45
Q -43.2 7.25 -39.05 7.15
L -32.45 7.05
Q -31.35 11.9 -28.65 16.15
L -33.15 20.55
Q -36.1 23.5 -33.4 26.25
L -26.65 33.1
Q -24 35.85 -20.95 32.9
L -16.1 27.95
Q -13.15 29.6 -10 30.55
L -10 37.3
Q -10.1 41.55 -6.3 41.55
L 3.4 41.55
Q 4.45 41.55 5.3 41.3 8.25 40.8 8.15 37
L 8.15 30.65
Q 10.6 29.95 13 28.8 13.55 28.55 14.25 28.25
L 19.1 33.1
Q 22.1 36.05 24.8 33.4
L 31.55 26.45
Q 34.2 23.8 31.25 20.85
L 26.8 16.45
Q 29.45 12.2 30.6 7.25
L 37.15 7.4
Q 41.35 7.4 41.45 3.6
L 41.6 -6
Q 41.7 -9.8 37.45 -9.9
L 30.2 -10 30.2 -9.3
Q 29.35 -12.45 27.75 -15.4
L 32.75 -20.55
Q 35.7 -23.7 32.95 -26.25
L 26 -33
M 7.2 -8.45
Q 10.5 -5.05 10.5 -0.2 10.5 4.55 7.2 8 6.9 8.3 6.7 8.45 3.85 10.85 0.25 11.15 -0.15 11.15 -0.6 11.15 -0.7 11.15 -0.8 11.15 -5.65 11.15 -9.05 7.8 -12.5 4.4 -12.5 -0.45 -12.5 -5.3 -9.05 -8.75 -8.8 -8.95 -8.5 -9.15 -5.75 -11.5 -2.15 -11.9 -1.75 -11.9 -1.25 -11.9 -1.2 -11.9 -1.1 -11.9 3.75 -11.9 7.2 -8.45 Z"/>
</g>
</defs>

<g id="settingsLarge" transform="matrix( 1, 0, 0, 1, 50.15,50.55) ">
<g transform="matrix( 1, 0, 0, 1, 0,0) ">
<use xlink:href="#settingsLarge_mc_0_Layer1_0_FILL"/>
</g>

<g transform="matrix( 1, 0, 0, 1, 0,0) ">
<use xlink:href="#settingsLarge_mc_0_Layer0_0_FILL"/>
</g>
</g>
</svg>
