
<svg xmlns="http://www.w3.org/2000/svg" version="1.1" xmlns:xlink="http://www.w3.org/1999/xlink" preserveAspectRatio="none" x="0px" y="0px" width="50px" height="50px" viewBox="0 0 50 50">
<defs>
<g id="Layer0_0_FILL">
<path fill="#000000" fill-opacity="0.9686274509803922" stroke="none" d="
M 40 2.75
Q 40 1.6 39.2 0.8 38.4 0 37.25 0
L 4.35 0
Q 3.2 0 2.4 0.8 1.6 1.6 1.6 2.75 1.6 3.9 2.4 4.7 3.2 5.5 4.35 5.5
L 5.05 5.5 5.05 39.75 36.3 39.75 36.3 5.5 37.25 5.5
Q 38.4 5.5 39.2 4.7 40 3.9 40 2.75
M 30.8 5.5
L 30.8 34.25 10.55 34.25 10.55 5.5 30.8 5.5
M 16.55 7.8
Q 16.05 7.3 15.3 7.3 14.6 7.3 14.1 7.8 13.55 8.3 13.55 9.05
L 13.55 31
Q 13.55 31.7 14.1 32.25 14.6 32.75 15.3 32.75 16.05 32.75 16.55 32.25 17.05 31.7 17.05 31
L 17.05 9.05
Q 17.05 8.3 16.55 7.8
M 27.55 7.8
Q 27.05 7.3 26.3 7.3 25.6 7.3 25.1 7.8 24.55 8.3 24.55 9.05
L 24.55 31
Q 24.55 31.7 25.1 32.25 25.6 32.75 26.3 32.75 27.05 32.75 27.55 32.25 28.05 31.7 28.05 31
L 28.05 9.05
Q 28.05 8.3 27.55 7.8
M 22.05 7.8
Q 21.55 7.3 20.8 7.3 20.1 7.3 19.6 7.8 19.05 8.3 19.05 9.05
L 19.05 31
Q 19.05 31.7 19.6 32.25 20.1 32.75 20.8 32.75 21.55 32.75 22.05 32.25 22.55 31.7 22.55 31
L 22.55 9.05
Q 22.55 8.3 22.05 7.8 Z"/>
</g>
</defs>

<g transform="matrix( 1, 0, 0, 1, 4.45,5) ">
<g transform="matrix( 1, 0, 0, 1, 0,0) ">
<use xlink:href="#Layer0_0_FILL"/>
</g>
</g>
</svg>
