
<svg xmlns="http://www.w3.org/2000/svg" version="1.1" xmlns:xlink="http://www.w3.org/1999/xlink" preserveAspectRatio="none" x="0px" y="0px" width="50px" height="50px" viewBox="0 0 50 50">
<defs>
<g id="Layer0_0_FILL">
<path fill="#000000" fill-opacity="0.9686274509803922" stroke="none" d="
M 44.35 28.2
L 40.8 24.65
Q 40.65 24.5 40.5 24.5 39.6 24.4 38.95 23.75
L 34.75 19.5
Q 34.2 18.9 34.1 18.1 34.1 17.95 33.95 17.8
L 27.3 11.15
Q 26.45 10.3 25.2 10.25 25.15 10.25 25.05 10.25
L 25 10.25
Q 23.8 10.3 22.95 11.15
L 16.3 17.8
Q 16.15 17.9 16.15 18.1 16.05 18.9 15.45 19.5
L 15.5 19.5 11.3 23.75
Q 10.65 24.4 9.75 24.5 9.6 24.5 9.45 24.65
L 5.9 28.2
Q 4.95 29.15 4.95 30.5 4.95 31.85 5.85 32.75
L 5.9 32.8
Q 6.4 33.25 7.05 33.55 7.2 33.6 7.35 33.6 7.5 33.55 7.6 33.45
L 12.5 28.55
Q 12.65 28.4 12.65 28.2 12.65 28.1 12.65 28.05 12.65 27.9 12.65 27.75
L 12.65 27.7
Q 12.75 26.9 13.4 26.25
L 17.6 22
Q 18.25 21.35 19.05 21.25 19.1 21.25 19.15 21.25 19.35 21.25 19.55 21.25 19.75 21.25 19.9 21.1
L 23.4 17.6
Q 24 17 24.95 17
L 25.05 17
Q 25.15 17 25.2 17 25.25 17 25.3 17 26.25 17 26.85 17.6
L 30.35 21.1
Q 30.4 21.2 30.5 21.25 30.65 21.25 30.75 21.25 30.9 21.25 31.05 21.25
L 31.1 21.25
Q 31.15 21.25 31.2 21.25
L 31.25 21.25
Q 32.05 21.35 32.6 22
L 32.65 22 36.85 26.25
Q 37.5 26.9 37.6 27.75 37.6 27.9 37.6 28.05 37.6 28.1 37.6 28.2 37.6 28.4 37.75 28.55
L 42.65 33.45
Q 42.8 33.55 42.9 33.6 43.05 33.6 43.2 33.55 43.9 33.3 44.35 32.75
L 44.35 32.8
Q 45.3 31.9 45.3 30.5 45.3 29.15 44.35 28.2 Z"/>
</g>
</defs>

<g transform="matrix( 1, 0, 0, 1, 0,0) ">
<use xlink:href="#Layer0_0_FILL"/>
</g>
</svg>
