
<svg xmlns="http://www.w3.org/2000/svg" version="1.1" xmlns:xlink="http://www.w3.org/1999/xlink" preserveAspectRatio="none" x="0px" y="0px" width="50px" height="50px" viewBox="0 0 50 50">
<defs>
<g id="Layer0_0_FILL">
<path fill="#060606" stroke="none" d="
M 32.85 24.3
Q 32.85 20.85 30.4 18.4 27.95 16 24.55 16 21.15 16 18.65 18.4 17.75 19.35 17.2 20.4 16.25 22.2 16.25 24.3 16.25 27.7 18.65 30.1 21.15 32.6 24.55 32.6 27.95 32.6 30.4 30.1 30.95 29.6 31.35 29.05 32.85 26.95 32.85 24.3 Z"/>
</g>

<path id="Layer0_0_1_STROKES" stroke="#000000" stroke-width="4" stroke-linejoin="round" stroke-linecap="round" fill="none" d="
M 43.3 24.4
Q 43.3 29.35 37.85 32.9 32.5 36.4 24.85 36.4 17.2 36.4 11.8 32.9 6.4 29.35 6.4 24.4 6.4 19.4 11.8 15.9 17.2 12.35 24.85 12.35 32.5 12.35 37.85 15.9 43.3 19.4 43.3 24.4 Z"/>
</defs>

<g transform="matrix( 1, 0, 0, 1, 0,0) ">
<use xlink:href="#Layer0_0_FILL"/>

<use xlink:href="#Layer0_0_1_STROKES"/>
</g>
</svg>
