<?xml version="1.0" encoding="utf-8"?>
<!-- Generator: Adobe Illustrator 16.0.0, SVG Export Plug-In . SVG Version: 6.00 Build 0)  -->
<!DOCTYPE svg PUBLIC "-//W3C//DTD SVG 1.1//EN" "http://www.w3.org/Graphics/SVG/1.1/DTD/svg11.dtd">
<svg version="1.1" xmlns="http://www.w3.org/2000/svg" xmlns:xlink="http://www.w3.org/1999/xlink" x="0px" y="0px"
	 width="148.418px" height="352.16px" viewBox="0 0 148.418 352.16" enable-background="new 0 0 148.418 352.16"
	 xml:space="preserve">
<symbol  id="winnie__x26__andy__x26__mrs_chan.ai_Assets_x2F_Layer_1_x2F__x3C_Path_x3E__x5F_27" viewBox="0.03 -16.513 53.676 16.513">
	<path fill-rule="evenodd" clip-rule="evenodd" fill="#EA6B3F" d="M53.7,0c0.066-0.533-0.434-1.55-1.5-3.05
		c-1.1-1.6-2.483-3.267-4.15-5c-2.1-2.233-5.117-4.317-9.05-6.25c-4.067-1.967-6.483-2.45-7.25-1.45c-0.9,1.233-1.717,1.9-2.45,2
		L28.45-14c-0.333-0.267-0.667-0.55-1-0.85c-0.667-0.6-1-1.017-1-1.25c0-0.2-0.717-0.333-2.15-0.4
		c-1.733-0.067-3.617,0.117-5.65,0.55C12.517-14.75,6.967-11.8,2-7.1C0.3-5.433-0.3-4.483,0.2-4.25c0.367,0.167,1.216,0,2.55-0.5
		C7.35-9.583,13.7-12,21.8-12c1.767,0,3.35,0.5,4.75,1.5c0.7,0.5,1.233,1,1.6,1.5l7.15-1.75h1.3c1.133,0.1,2.367,0.4,3.7,0.9
		C44.533-8.25,49-4.967,53.7,0z"/>
</symbol>
<symbol  id="winnie__x26__andy__x26__mrs_chan.ai_Assets_x2F_Layer_1_x2F__x3C_Path_x3E__x5F_29" viewBox="0.048 -81.707 120.316 81.712">
	<path fill-rule="evenodd" clip-rule="evenodd" fill="#EA6B3F" d="M84.6-13.1c0-0.9,0.4-1.733,1.2-2.5
		c0.767-0.8,1.15-1.633,1.15-2.5c0-1.5,0.183-2.7,0.55-3.6c0.433-1.066,1.083-1.6,1.95-1.6c0.333,0,1.233-0.467,2.7-1.4
		c1.467-0.933,3.167-1.4,5.1-1.4c1.667,0,3.05,0.067,4.15,0.2c0.5-0.067,1.517-0.867,3.05-2.4l5.5-5.5
		c0.767-0.767,1.683-1.7,2.75-2.8c0.867-0.566,1.833-0.3,2.9,0.8l2.5,2.5l1.65-2.35c0.867-1.8,0.817-3.184-0.15-4.15
		c-0.267-0.267-1.45-0.983-3.55-2.15c-1.2-0.667-1.8-1.716-1.8-3.15c0-2.467-0.05-3.933-0.15-4.4c-0.267-1.067-0.983-1.6-2.15-1.6
		h-7.7c-1.667,0-2.867-0.117-3.6-0.35c-0.933-0.3-1.4-0.85-1.4-1.65c0-0.2,0.65-0.833,1.95-1.9c0.933-0.767,0.733-1.8-0.6-3.1
		c-0.7-0.7-2.1-1.617-4.2-2.75c-1.1-0.6-1.65-1.633-1.65-3.1c0-0.633,0.717-2.8,2.15-6.5c1.067-2.733,0.967-4.733-0.3-6
		c-0.7-0.7-1.8-1.966-3.3-3.8c-0.733-0.9-1.35-1.35-1.85-1.35c-0.633,0-1.1,1.533-1.4,4.6c-0.233,2.3-0.35,4.933-0.35,7.9
		c0,1.367,0.133,3.833,0.4,7.4c0.267,3.567,0.4,6.233,0.4,8c0,0.434,0.4,2.784,1.2,7.05c0.433,2.467,0.033,4.316-1.2,5.55
		c-2.7,2.7-4.217,4.267-4.55,4.7c-1.3,1.8-1.417,3.233-0.35,4.3c1.233,1.233,2.066,2.733,2.5,4.5c0.433,1.733,0.2,2.6-0.7,2.6
		l-5.15-0.1c-0.333,0.767-0.967,1.533-1.9,2.3c-1.9,1.566-4.367,2.35-7.4,2.35c-3.1,0-4.75-0.066-4.95-0.2
		c0.067-0.434-0.183-0.917-0.75-1.45c-2.567-2.633-4.35-4.367-5.35-5.2c-3.533-2.833-7.417-4.883-11.65-6.15
		c-4.833-1.333-7.7-2.167-8.6-2.5c-0.9-0.3-1.967-1.083-3.2-2.35c-0.934-0.934-1.55-2.383-1.85-4.35c-0.333-1.967-1-3.45-2-4.45
		c-1.267-1.267-2-3.117-2.2-5.55c-0.1-1.367-0.083-3.3,0.05-5.8c0-0.633,0.95-2.433,2.85-5.4c1.934-3,2.917-6.3,2.95-9.9
		c0.033-3.133,0.233-5.667,0.6-7.6c0-0.333-0.184-0.433-0.55-0.3c-0.7,0.267-1.417,0.517-2.15,0.75
		c-2.633,0.566-4.367,1.017-5.2,1.35c-1.367,0.466-2.05,1.483-2.05,3.05v7.4c0,0.4,0.3,1.283,0.9,2.65c0.333,0.767,0.034,2.1-0.9,4
		c-1.267,2.5-1.967,3.983-2.1,4.45c-0.2,0.667-0.3,1.967-0.3,3.9c0,1.233-1.033,2.283-3.1,3.15c-2.333,0.967-3.816,2.467-4.45,4.5
		c-0.333,1.067-1.567,3.367-3.7,6.9c-1.533,2.566-2.3,5.267-2.3,8.1c0,3.267-0.5,5.917-1.5,7.95c-0.633,1.233-1.7,2.583-3.2,4.05
		c-2.5,1.4-4.433,2.5-5.8,3.3c-2.467,1.433-3.034,2.833-1.7,4.2C2.15-10.55,3.767-9.567,5.6-9c0.933,0.267,1.717,0.4,2.35,0.4
		l-1.3-3.6c-0.167-2.4,1.483-3.6,4.95-3.6s5.816,0.65,7.05,1.95c1.3,2.033,2.733,3.833,4.3,5.4c2.4,2.4,4.233,3.767,5.5,4.1
		c1.433,0.333,3.6-0.15,6.5-1.45c2-0.9,3.7-1.667,5.1-2.3c0.667-0.233,1.967-0.35,3.9-0.35c1.333,0,2.833,0.917,4.5,2.75
		c1.933,2.067,4.15,3.434,6.65,4.1c4.033,1,6.683,1.533,7.95,1.6c1.8,0.067,3.317-0.533,4.55-1.8c1.533-1.534,2.816-2.633,3.85-3.3
		c1.333-0.9,2.6-1.35,3.8-1.35c1.233,0,2.233-0.216,3-0.65c0.467-0.267,1.2-0.883,2.2-1.85c0.133-0.133,1.033-0.7,2.7-1.7
		C84.117-11.25,84.6-12.067,84.6-13.1z"/>
</symbol>
<symbol  id="winnie__x26__andy__x26__mrs_chan.ai_Assets_x2F_Layer_1_x2F__x3C_Path_x3E__x5F_38" viewBox="0 -19.15 17.25 19.15">
	<path fill-rule="evenodd" clip-rule="evenodd" fill="#ED8885" d="M17.25-9.6c0-2.633-0.85-4.883-2.55-6.75
		c-1.7-1.867-3.733-2.8-6.1-2.8s-4.4,0.933-6.1,2.8C0.833-14.483,0-12.233,0-9.6s0.833,4.9,2.5,6.8C4.2-0.933,6.233,0,8.6,0
		s4.4-0.933,6.1-2.8C16.4-4.7,17.25-6.967,17.25-9.6z"/>
</symbol>
<symbol  id="winnie__x26__andy__x26__mrs_chan.ai_Assets_x2F_Layer_1_x2F__x3C_Path_x3E__x5F_39" viewBox="0 -19.15 17.2 19.15">
	<path fill-rule="evenodd" clip-rule="evenodd" fill="#ED8885" d="M17.2-9.55c0-2.667-0.833-4.934-2.5-6.8
		c-1.7-1.867-3.733-2.8-6.1-2.8s-4.4,0.933-6.1,2.8C0.833-14.483,0-12.217,0-9.55C0-6.917,0.833-4.667,2.5-2.8
		C4.2-0.933,6.233,0,8.6,0s4.4-0.933,6.1-2.8C16.367-4.667,17.2-6.917,17.2-9.55z"/>
</symbol>
<symbol  id="winnie__x26__andy__x26__mrs_chan.ai_Assets_x2F_Layer_1_x2F__x3C_Path_x3E__x5F_40" viewBox="0 -3.25 3.45 3.25">
	<path fill-rule="evenodd" clip-rule="evenodd" fill="#FDFDFC" d="M3.45-1.6c0-0.467-0.167-0.85-0.5-1.15
		c-0.333-0.333-0.733-0.5-1.2-0.5S0.867-3.083,0.5-2.75C0.167-2.45,0-2.067,0-1.6c0,0.434,0.167,0.8,0.5,1.1
		C0.867-0.167,1.283,0,1.75,0s0.867-0.167,1.2-0.5C3.283-0.8,3.45-1.167,3.45-1.6z"/>
</symbol>
<symbol  id="winnie__x26__andy__x26__mrs_chan.ai_Assets_x2F_Layer_1_x2F__x3C_Path_x3E__x5F_41" viewBox="0 -4.85 4.45 4.85">
	<path fill-rule="evenodd" clip-rule="evenodd" fill="#FDFDFC" d="M4.45-2.4c0-0.667-0.217-1.25-0.65-1.75
		c-0.433-0.467-0.966-0.7-1.6-0.7c-0.6,0-1.117,0.233-1.55,0.7C0.217-3.65,0-3.067,0-2.4c0,0.667,0.217,1.233,0.65,1.7
		C1.083-0.233,1.6,0,2.2,0c0.633,0,1.167-0.233,1.6-0.7C4.233-1.167,4.45-1.733,4.45-2.4z"/>
</symbol>
<symbol  id="winnie__x26__andy__x26__mrs_chan.ai_Assets_x2F_Layer_1_x2F__x3C_Path_x3E__x5F_42" viewBox="0 -3.25 3.45 3.25">
	<path fill-rule="evenodd" clip-rule="evenodd" fill="#FDFDFC" d="M3.45-1.6c0-0.467-0.167-0.85-0.5-1.15
		c-0.367-0.333-0.784-0.5-1.25-0.5c-0.467,0-0.867,0.167-1.2,0.5C0.167-2.45,0-2.067,0-1.6c0,0.434,0.167,0.817,0.5,1.15
		C0.833-0.15,1.233,0,1.7,0c0.466,0,0.883-0.15,1.25-0.45C3.283-0.783,3.45-1.167,3.45-1.6z"/>
</symbol>
<symbol  id="winnie__x26__andy__x26__mrs_chan.ai_Assets_x2F_Layer_1_x2F__x3C_Path_x3E__x5F_43" viewBox="0 -4.85 4.45 4.85">
	<path fill-rule="evenodd" clip-rule="evenodd" fill="#FDFDFC" d="M4.45-2.4c0-0.667-0.217-1.25-0.65-1.75
		c-0.433-0.467-0.966-0.7-1.6-0.7s-1.15,0.233-1.55,0.7C0.217-3.65,0-3.067,0-2.4c0,0.667,0.217,1.233,0.65,1.7
		C1.05-0.233,1.567,0,2.2,0s1.167-0.233,1.6-0.7C4.233-1.167,4.45-1.733,4.45-2.4z"/>
</symbol>
<g id="Layer_37">
	
		<path fill-rule="evenodd" clip-rule="evenodd" fill="none" stroke="#000000" stroke-width="9" stroke-linecap="round" stroke-linejoin="round" stroke-miterlimit="3" d="
		M80.904,20.06c0-1.233-0.95-2.367-2.85-3.4c-1.767-1-3.5-1.5-5.2-1.5l-0.6-0.05l-0.15-0.05l-0.35-0.05l-0.1-0.051l-0.35-0.1
		l-0.05-0.05l-0.35-0.2c-0.6-0.566-1.034-0.983-1.3-1.25c-0.533-0.5-1.183-0.75-1.95-0.75h-8.7c-0.333,0-0.65,0.05-0.95,0.15h-0.1
		l-0.4,0.149l-0.05,0.05l-0.4,0.15l-0.05,0.1l-0.45,0.25l-0.65,0.601l-0.1,0.05l-0.25,0.3l-1.95,1.95h-0.05l-0.3,0.25h-0.05
		l-0.35,0.15h-0.05l-0.35,0.1l-0.4,0.05c-0.8,0-1.65-0.399-2.55-1.2c-0.867-0.8-1.816-1.199-2.85-1.199l-2.25,0.05
		c-0.633,0.1-1.233,0.333-1.8,0.7c-0.533,0.366-1.3,1.05-2.3,2.05l-0.65,0.6l-0.85,0.55c-0.4,0.2-0.867,0.351-1.4,0.45l-0.2,0.05
		l-0.55,0.051l-0.2,0.05l-6.3-0.4l-0.15-0.05c-0.466-0.033-0.783-0.2-0.95-0.5c-0.2-0.4-0.017-1.35,0.55-2.85
		c0.633-1.801,0.95-3.2,0.95-4.2c0-1.033-0.167-1.733-0.5-2.101c-0.3-0.333-0.817-0.5-1.55-0.5c-1.4,0.2-2.6,0.317-3.6,0.351h-0.75
		c-1.333,0-2.4-0.334-3.2-1c-1.233-0.967-3.117-1.8-5.65-2.5c-2.2-0.601-3.867-0.867-5-0.8c-1.1,0.033-1.85,0.333-2.25,0.899
		c-0.267,0.4-0.4,1.033-0.4,1.9c-0.567,0.666-1.45,2-2.65,4c-0.733,1.2-0.667,3.467,0.2,6.8c1.067,4.066,1.6,6.2,1.6,6.4
		c0,0.466,0.233,1.1,0.7,1.899c0.7,1.233,1.15,2.101,1.35,2.601l0.05,0.05l0.65,2l0.45,3.149l-0.65,10.9l0.4,2.85v0.051l1.1,3.35
		l0.9,1.75l0.05,0.05l1.75,2.5l4.85,4.95l3.25,2.3c1.433,0.9,2.3,1.517,2.6,1.851c0.567,0.533,0.583,1.05,0.05,1.55
		c-0.7,0.733-0.917,1.916-0.65,3.55c0.433,2.8,0.65,4.283,0.65,4.45c0,1,0.383,2.416,1.15,4.25c0.7,1.733,1.6,3.483,2.7,5.25
		l0.05,0.05l0.55,0.9l0.05,0.05l0.55,0.85l0.05,0.05l0.6,0.75l0.05,0.051l1.25,1.5c1.1,1.066,2.733,1.583,4.9,1.55
		c1.667-0.033,2.5,0.434,2.5,1.399l0.05,0.801c0.1,0.699,0.383,1.6,0.85,2.699c-1.433,1.667-2.083,4.15-1.95,7.45
		c0.1,2.566,0.633,5.351,1.6,8.351c3.6,11.6,7.784,17.583,12.55,17.949c1.6,9.034,3.45,15.217,5.55,18.551
		c2.2,3.566,5,7.267,8.4,11.1c3.2,3.6,6.467,6.816,9.8,9.65l-1.45,24.149l-0.2,0.2c-3.3,3.3-6.684,7.517-10.15,12.65
		c-3.7,5.6-6.65,11.116-8.85,16.55c-2.567,6.366-4.967,17.75-7.2,34.149c-2.267,16.801-3.833,35.067-4.7,54.801l-1.7,37.649h91
		c0.167-11.733-0.1-25.517-0.8-41.35c-1.367-31.7-4.183-57.816-8.45-78.351c-0.633-3.033-2.117-6.816-4.45-11.35
		c-2.267-4.4-4.967-8.833-8.1-13.3l-0.05-0.101l-10.85-13.199c-0.1-3.934-0.25-7.817-0.45-11.65l-0.8-13.9
		c2.934-3.899,5.4-8.116,7.4-12.649c2.3-5.2,3.75-10.217,4.35-15.05c0.233-1.834,0.483-4.584,0.75-8.25h1.65
		c0.6,0,1.367-0.5,2.3-1.5c1.167-1.233,2.316-2.95,3.45-5.15c1.467-0.3,2.517-0.45,3.15-0.45c1.333,0,2.667-0.75,4-2.25
		c1.233-1.399,1.85-2.6,1.85-3.6c0-0.7,1.184-2.101,3.55-4.2c1.267-1.134,2.933-2.583,5-4.35c0.8-0.801,1.05-3.851,0.75-9.15
		c-0.5-5.733-0.75-9.184-0.75-10.35c0-1.4,0.833-2.667,2.5-3.801c0.933-0.633,2.267-1.533,4-2.699c1-1,1.533-2.634,1.6-4.9
		c0.1-2.267-0.317-3.866-1.25-4.8c-0.767-0.767-1.25-2.167-1.45-4.2c-0.033-0.4-0.05-1.717-0.05-3.95c0-0.366,0.433-1.1,1.3-2.2
		c0.667-0.899,0.733-1.616,0.2-2.149c-0.467-0.467-0.784-0.634-0.95-0.5c-0.533,0.333-1.383,0.5-2.55,0.5
		c-1.367,0-2.417,0.616-3.15,1.85c-1.3,2.2-2.133,3.483-2.5,3.851c-1.066,1.033-1.95,0.833-2.65-0.601
		c-1.2-2.566-1.933-3.983-2.2-4.25c-1-1-2.5-1.833-4.5-2.5c-1.8-0.566-3.517-0.85-5.15-0.85c-2.466,0-4.316-0.101-5.55-0.3
		c-2.2-0.334-3.3-1-3.3-2c0-1.534-0.067-2.634-0.2-3.301c-0.2-1.133-0.633-2.033-1.3-2.699c-1-1-1.784-1.684-2.35-2.051
		c-0.967-0.633-1.967-0.949-3-0.949c-0.733,0-1.067-0.301-1-0.9c0.267-0.967,0.483-1.816,0.65-2.55l0.2-0.75v-0.15l0.1-0.6
		l0.05-1.05c0.233-2.067,0.383-3.45,0.45-4.15c0.067-1.1-0.3-2.05-1.1-2.85c-0.567-0.567-1.583-1.417-3.05-2.551
		c-1.5-1.166-2.816-2.316-3.95-3.449l-0.7-0.551l-0.25-0.149l-0.55-0.25l-0.85-0.25l-0.95-0.15h-1.25l-2.8,0.5h-0.05l-3.25,0.8
		l-0.7,0.051l-0.55-0.051l-0.5-0.149l-0.1-0.05l-0.4-0.301h-0.05l-0.35-0.399l-0.05-0.101l-0.3-0.35l-0.6-1.3l-0.4-1.9v-0.05
		L80.904,20.06z"/>
</g>
<g id="Layer_36">
	<path fill-rule="evenodd" clip-rule="evenodd" fill="#E4E4E5" d="M131.504,306.31c0.7,15.833,0.967,29.616,0.8,41.35h-91
		l1.7-37.649c0.867-19.733,2.434-38,4.7-54.801c2.233-16.399,4.633-27.783,7.2-34.149c3.033-7.434,7.15-14.566,12.35-21.4
		c2.6-3.399,4.883-6.066,6.85-8l1.35-2.899c1.233-2.167,2.683-3.817,4.35-4.95c5.367-3.7,11.967-1.634,19.8,6.2
		c5.067,5.066,9.983,11.433,14.75,19.1c4.8,7.767,7.7,14.05,8.7,18.85C127.321,248.494,130.137,274.61,131.504,306.31z"/>
</g>
<g id="Layer_35">
	<path fill-rule="evenodd" clip-rule="evenodd" fill="#FFFFFF" d="M70.954,195.06c1.3-1.467,2.35-2.601,3.15-3.4l1.35-2.899
		c1.233-2.167,2.683-3.817,4.35-4.95c5.367-3.7,11.967-1.634,19.8,6.2c3.533,3.533,7.167,7.967,10.9,13.3l-7.5,17.7l-14.75-14.75
		l-16.25,16.25l-8.25-18C66.021,201.143,68.421,197.994,70.954,195.06z"/>
</g>
<g id="Layer_34">
	<path fill-rule="evenodd" clip-rule="evenodd" fill="#F09840" d="M142.654,58.81c0.533,0.533,0.466,1.25-0.2,2.149
		c-0.867,1.101-1.3,1.834-1.3,2.2c0,2.233,0.017,3.55,0.05,3.95c0.2,2.033,0.683,3.434,1.45,4.2c0.933,0.934,1.35,2.533,1.25,4.8
		c-0.067,2.267-0.6,3.9-1.6,4.9c-1.733,1.166-3.067,2.066-4,2.699c-1.667,1.134-2.5,2.4-2.5,3.801c0,1.166,0.25,4.616,0.75,10.35
		c0.3,5.3,0.05,8.35-0.75,9.15c-2.067,1.767-3.733,3.217-5,4.35c-2.367,2.1-3.55,3.5-3.55,4.2c0,1-0.617,2.2-1.85,3.6
		c-1.333,1.5-2.667,2.25-4,2.25c-1.2,0-5.133,0.767-11.8,2.3l-9.6,2.301l-39.7-16.351c-3.167-1.566-6.333-3.2-9.5-4.899
		c-6.333-3.367-9.5-5.4-9.5-6.101c0-0.433-0.434-1.55-1.3-3.35s-1.3-3.25-1.3-4.351c0-0.966-0.833-1.433-2.5-1.399
		c-2.167,0.033-3.8-0.483-4.9-1.55c-1.567-1.601-3.133-3.9-4.7-6.9c-1.533-3.033-2.3-5.3-2.3-6.8c0-0.167-0.217-1.65-0.65-4.45
		c-0.267-1.633-0.05-2.816,0.65-3.55c0.7-0.667,0.233-1.533-1.4-2.601c-2.9-1.866-4.867-3.333-5.9-4.399
		c-2.867-2.833-4.816-5.3-5.85-7.4c-1.733-3.467-2.233-7.55-1.5-12.25c0.667-4.3,0.4-7.85-0.8-10.649
		c-1.367-2.167-2.05-3.667-2.05-4.5c0-0.2-0.534-2.334-1.6-6.4c-0.867-3.333-0.934-5.6-0.2-6.8c1.2-2,2.083-3.334,2.65-4
		c0-1.3,0.366-2.134,1.1-2.5c1.1-0.567,3.284-0.4,6.55,0.5c2.533,0.7,4.417,1.533,5.65,2.5c0.8,0.666,1.867,1,3.2,1
		c1.4,0,2.983-0.117,4.75-0.351c1.1,0.101,1.65,0.967,1.65,2.601c0,0.7-0.45,2.467-1.35,5.3c-0.5,1.533-0.05,2.3,1.35,2.3
		c1.233,0,2.966,0.134,5.2,0.4c1.867,0.033,3.383-0.55,4.55-1.75c1.367-1.334,2.4-2.15,3.1-2.45c0.6-0.233,1.683-0.35,3.25-0.35
		c1.033,0,1.983,0.399,2.85,1.199c0.9,0.801,1.75,1.2,2.55,1.2c0.8,0,1.85-0.717,3.15-2.149c1.3-1.434,2.55-2.15,3.75-2.15h8.7
		c0.833,0,1.633,0.434,2.4,1.3c0.767,0.833,1.7,1.25,2.8,1.25c1.7,0,3.434,0.5,5.2,1.5c1.9,1.033,2.85,2.167,2.85,3.4
		c0,1.5,0.267,2.816,0.8,3.95c0.633,1.333,1.5,2,2.6,2c0.8,0,2.6-0.4,5.4-1.2c2.7-0.467,4.683-0.067,5.95,1.2
		c1.133,1.133,2.45,2.283,3.95,3.449c1.467,1.134,2.483,1.983,3.05,2.551c0.8,0.8,1.167,1.75,1.1,2.85
		c-0.066,0.7-0.216,2.083-0.45,4.15c0,0.833-0.283,2.283-0.85,4.35c-0.3,1.1-0.017,1.65,0.85,1.65c1.033,0,2.033,0.316,3,0.949
		c0.566,0.367,1.35,1.051,2.35,2.051c0.667,0.666,1.1,1.566,1.3,2.699c0.133,0.667,0.2,1.768,0.2,3.301c0,1,1.1,1.666,3.3,2
		c1.233,0.199,3.083,0.3,5.55,0.3c1.633,0,3.35,0.283,5.15,0.85c2,0.667,3.5,1.5,4.5,2.5c0.267,0.267,1,1.684,2.2,4.25
		c0.7,1.434,1.583,1.634,2.65,0.601c0.367-0.367,1.2-1.65,2.5-3.851c0.733-1.233,1.784-1.85,3.15-1.85c1.167,0,2.017-0.167,2.55-0.5
		C141.871,58.176,142.188,58.343,142.654,58.81z"/>
</g>
<g id="Layer_33">
	<path fill-rule="evenodd" clip-rule="evenodd" fill="#F4E7C9" d="M76.354,194.36l-2.25-2.7c0.733-12.2,1.233-20.6,1.5-25.2
		c0.467-7.666,0.483-11.716,0.05-12.149l3.4-2.45c2.733-1.8,5.233-3.167,7.5-4.1c7.3-3.067,11.05-1.267,11.25,5.399
		c0.1,3,0.4,8.851,0.9,17.55c0.5,8.4,0.8,14.834,0.9,19.301c0.033,1.467-1.117,2.933-3.45,4.399c-2.8,1.733-6.3,2.601-10.5,2.601
		C81.754,197.01,78.654,196.126,76.354,194.36z"/>
</g>
<g id="Layer_32">
	<path fill-rule="evenodd" clip-rule="evenodd" fill="#EFD8AB" d="M122.754,110.26c-1.767,6.1-3.767,10.866-6,14.3
		c-1.733,2.633-3.15,3.95-4.25,3.95h-5.25l2.5-30l4.3-4.801c3.1-3,5.167-3.982,6.2-2.949c0.434,0.433,1.133,1.066,2.1,1.899
		c0.833,0.867,1.434,1.834,1.8,2.9C125.188,98.593,124.721,103.494,122.754,110.26z"/>
</g>
<g id="Layer_31">
	<path fill-rule="evenodd" clip-rule="evenodd" fill="#EFD8AB" d="M46.604,95.06c1.4,0.934,2.7,1.917,3.9,2.95l2.1,3.85
		c1.633,3.1,2.967,6.033,4,8.8c3.3,8.867,3.017,14.4-0.85,16.601c-6.267,3.566-11.767-2.101-16.5-17c-1.1-3.5-1.633-6.634-1.6-9.4
		c0.033-3.667,1.15-6.2,3.35-7.6C41.938,92.626,43.804,93.227,46.604,95.06z"/>
</g>
<g id="Layer_30">
	<path fill-rule="evenodd" clip-rule="evenodd" fill="#DBCCAC" d="M75.654,154.31l3.4-2.45c2.733-1.8,5.233-3.167,7.5-4.1
		c7.3-3.067,11.05-1.267,11.25,5.399c0.167,4.7,0.617,13.084,1.35,25.15c-6,5.566-10.05,8.35-12.15,8.35
		c-2.433,0-6.45-3.116-12.05-9.35c0.533-8.934,0.833-14.217,0.9-15.851C76.054,157.06,75.987,154.676,75.654,154.31z"/>
</g>
<g id="Layer_29">
	<path fill-rule="evenodd" clip-rule="evenodd" fill="#F4E7C9" d="M47.554,87.11c-0.333-5.6,0.133-10.883,1.4-15.85
		c1.467-5.767,3.867-10.434,7.2-14c3.2-3.4,7.566-5.783,13.1-7.15c3.767-0.934,8.667-1.467,14.7-1.6
		c4.2-0.101,7.783,0.767,10.75,2.6c1.567,0.967,4.517,3.533,8.85,7.7c2.867,2.733,4.983,8.316,6.35,16.75
		c0.7,4.2,1.1,8.133,1.2,11.8l0.35,17.65c0.067,13.366-0.383,23.949-1.35,31.75c-1.033,8.633-4.5,17.25-10.4,25.85
		c-5.333,7.733-9.55,11.634-12.65,11.7c-2.7,0.066-7.317-2.9-13.85-8.9c-6.633-6.066-11.917-12.283-15.85-18.649
		c-3.233-5.2-5.833-16.7-7.8-34.5L47.554,87.11z"/>
</g>
<g id="Layer_28">
	<g id="Layer_11">
		<path fill-rule="evenodd" clip-rule="evenodd" fill="#574933" d="M67.654,90.61c0,2-0.4,3.717-1.2,5.15
			c-0.833,1.399-1.817,2.1-2.95,2.1c-1.167,0-2.167-0.7-3-2.1c-0.8-1.434-1.2-3.15-1.2-5.15s0.4-3.7,1.2-5.1
			c0.833-1.434,1.833-2.15,3-2.15c1.133,0,2.117,0.717,2.95,2.15C67.254,86.91,67.654,88.61,67.654,90.61z"/>
		<path fill-rule="evenodd" clip-rule="evenodd" fill="none" stroke="#816A3D" d="M67.654,90.61c0,2-0.4,3.717-1.2,5.15
			c-0.833,1.399-1.817,2.1-2.95,2.1c-1.167,0-2.167-0.7-3-2.1c-0.8-1.434-1.2-3.15-1.2-5.15s0.4-3.7,1.2-5.1
			c0.833-1.434,1.833-2.15,3-2.15c1.133,0,2.117,0.717,2.95,2.15C67.254,86.91,67.654,88.61,67.654,90.61z"/>
	</g>
</g>
<g id="Layer_27">
	<g>
		<path fill-rule="evenodd" clip-rule="evenodd" fill="#574933" d="M97.604,88.56c0.167,2-0.1,3.75-0.8,5.25
			c-0.667,1.467-1.583,2.25-2.75,2.35c-1.133,0.101-2.184-0.517-3.15-1.85c-0.934-1.367-1.483-3.05-1.65-5.05
			c-0.167-1.967,0.1-3.7,0.8-5.2c0.7-1.467,1.617-2.25,2.75-2.351c1.167-0.1,2.217,0.518,3.15,1.851S97.438,86.56,97.604,88.56z"/>
		<path fill-rule="evenodd" clip-rule="evenodd" fill="none" stroke="#816A3D" d="M97.604,88.56c0.167,2-0.1,3.75-0.8,5.25
			c-0.667,1.467-1.583,2.25-2.75,2.35c-1.133,0.101-2.184-0.517-3.15-1.85c-0.934-1.367-1.483-3.05-1.65-5.05
			c-0.167-1.967,0.1-3.7,0.8-5.2c0.7-1.467,1.617-2.25,2.75-2.351c1.167-0.1,2.217,0.518,3.15,1.851S97.438,86.56,97.604,88.56z"/>
	</g>
</g>
<g id="Layer_26">
	<path fill-rule="evenodd" clip-rule="evenodd" fill="#EA6B3F" d="M88.754,71.26c0.8-0.834,1.684-1.367,2.65-1.601
		c0.933-0.233,1.667-0.083,2.2,0.45c0.367,0.367,1.167,0.767,2.4,1.2c1.767,0.633,3.267,1.283,4.5,1.95c1.6,0.833,2.45,1.6,2.55,2.3
		c0.066,0.434-0.033,1.1-0.3,2c0,0.566-0.417,0.717-1.25,0.45c-1.466-0.467-2.5-0.7-3.1-0.7c-1.467,0.167-2.617,0.267-3.45,0.3
		c-1.533,0.033-2.65-0.3-3.35-1c-0.566-0.566-1.283-0.85-2.15-0.85s-1.6-0.301-2.2-0.9c-0.733-0.733-0.7-1.55,0.1-2.45
		C87.754,71.943,88.221,71.56,88.754,71.26z"/>
</g>
<g id="Layer_25">
	<path fill-rule="evenodd" clip-rule="evenodd" fill="#EA6B3F" d="M67.204,73.959l1.4,1.15c0.8,0.9,0.833,1.717,0.1,2.45
		c-0.6,0.6-1.333,0.899-2.2,0.899c-0.9,0.034-1.633,0.317-2.2,0.851c-0.667,0.7-1.767,1.033-3.3,1c-1.7-0.2-2.867-0.3-3.5-0.3
		c-0.6,0-1.617,0.233-3.05,0.699c-0.833,0.268-1.25,0.117-1.25-0.449c-0.267-0.9-0.367-1.567-0.3-2c0.1-0.7,0.95-1.467,2.55-2.301
		c1.167-0.6,2.65-1.232,4.45-1.899c1.233-0.434,2.033-0.851,2.4-1.25c0.533-0.533,1.283-0.684,2.25-0.45
		C65.487,72.593,66.371,73.126,67.204,73.959z"/>
</g>
<g id="_x3C_Path_x3E__x5F_43">
	
		<use xlink:href="#winnie__x26__andy__x26__mrs_chan.ai_Assets_x2F_Layer_1_x2F__x3C_Path_x3E__x5F_43"  width="4.45" height="4.85" y="-4.85" transform="matrix(1 0 0 -1 92.4541 84.4595)" overflow="visible" opacity="0.6211" enable-background="new    "/>
</g>
<g id="_x3C_Path_x3E__x5F_42">
	
		<use xlink:href="#winnie__x26__andy__x26__mrs_chan.ai_Assets_x2F_Layer_1_x2F__x3C_Path_x3E__x5F_42"  width="3.45" height="3.25" y="-3.25" transform="matrix(1 0 0 -1 93.8042 87.8101)" overflow="visible" opacity="0.75" enable-background="new    "/>
</g>
<g id="_x3C_Path_x3E__x5F_41">
	
		<use xlink:href="#winnie__x26__andy__x26__mrs_chan.ai_Assets_x2F_Layer_1_x2F__x3C_Path_x3E__x5F_41"  width="4.45" height="4.85" y="-4.85" transform="matrix(1 0 0 -1 62.604 85.6099)" overflow="visible" opacity="0.6211" enable-background="new    "/>
</g>
<g id="_x3C_Path_x3E__x5F_40">
	
		<use xlink:href="#winnie__x26__andy__x26__mrs_chan.ai_Assets_x2F_Layer_1_x2F__x3C_Path_x3E__x5F_40"  width="3.45" height="3.25" y="-3.25" transform="matrix(1 0 0 -1 63.9541 88.9595)" overflow="visible" opacity="0.75" enable-background="new    "/>
</g>
<g id="_x3C_Path_x3E__x5F_39">
	
		<use xlink:href="#winnie__x26__andy__x26__mrs_chan.ai_Assets_x2F_Layer_1_x2F__x3C_Path_x3E__x5F_39"  width="17.2" height="19.15" y="-19.15" transform="matrix(1 0 0 -1 52.2041 103.9097)" overflow="visible" opacity="0.1484" enable-background="new    "/>
</g>
<g id="_x3C_Path_x3E__x5F_38">
	
		<use xlink:href="#winnie__x26__andy__x26__mrs_chan.ai_Assets_x2F_Layer_1_x2F__x3C_Path_x3E__x5F_38"  width="17.25" height="19.15" y="-19.15" transform="matrix(1 0 0 -1 91.7041 101.4097)" overflow="visible" opacity="0.1484" enable-background="new    "/>
</g>
<g id="Layer_18">
	<g>
		<path fill-rule="evenodd" clip-rule="evenodd" fill="#D29393" d="M82.654,131.01c1.167-0.167,2.667-0.634,4.5-1.4
			c1.466-0.633,2.267-0.883,2.4-0.75c0.3,0.3,0.333,0.5,0.1,0.6c-0.567,0.2-0.934,0.384-1.1,0.551c-1.233,1.1-2.067,1.816-2.5,2.149
			c-0.767,0.533-1.533,0.867-2.3,1c-1.033,0.2-2.283,0-3.75-0.6c-1.667-0.7-2.8-1.05-3.4-1.05c-0.533,0-0.816-0.051-0.85-0.15
			c-0.033-0.066,0.1-0.333,0.4-0.8c0.1-0.101,0.833-0.033,2.2,0.2C80.054,131.093,81.487,131.176,82.654,131.01z"/>
	</g>
</g>
<g id="Layer_17">
	<path fill-rule="evenodd" clip-rule="evenodd" fill="#EA6B3F" d="M130.754,72.81c0.867,0.566,1.833,0.3,2.9-0.8l2.5-2.5l1.65,2.35
		c0.867,1.8,0.816,3.184-0.15,4.15c-0.267,0.267-1.45,0.983-3.55,2.149c-1.2,0.667-1.8,1.717-1.8,3.15
		c0,2.467-0.05,3.934-0.15,4.399c-0.267,1.067-0.983,1.601-2.15,1.601h-7.7c-1.667,0-2.867,0.116-3.6,0.35
		c-0.933,0.3-1.4,0.851-1.4,1.65c0,0.2,0.65,0.833,1.95,1.899c0.934,0.768,0.733,1.801-0.6,3.101c-0.7,0.7-2.1,1.616-4.2,2.75
		c-1.1,0.6-1.65,1.633-1.65,3.1c0,0.634,0.717,2.8,2.15,6.5c1.067,2.733,0.967,4.733-0.3,6c-0.7,0.7-1.8,1.967-3.3,3.8
		c-0.733,0.9-1.35,1.351-1.85,1.351c-0.633,0-1.1-1.533-1.4-4.601c-0.233-2.3-0.35-4.933-0.35-7.899c0-1.367,0.133-3.833,0.4-7.4
		c0.267-3.566,0.4-6.233,0.4-8c0-0.433,0.4-2.783,1.2-7.05c0.434-2.467,0.034-4.316-1.2-5.55c-2.7-2.7-4.217-4.267-4.55-4.7
		c-1.3-1.8-1.417-3.233-0.35-4.3c1.233-1.233,2.066-2.733,2.5-4.5c0.433-1.733,0.2-2.601-0.7-2.601l-5.15,0.101
		c-0.333-0.767-0.967-1.533-1.9-2.3c-1.9-1.567-4.367-2.351-7.4-2.351c-3.1,0-4.75,0.067-4.95,0.2
		c0.066,0.434-0.184,0.917-0.75,1.45c-2.567,2.633-4.35,4.366-5.35,5.2c-3.533,2.833-7.417,4.883-11.65,6.149
		c-4.833,1.334-7.7,2.167-8.6,2.5c-0.9,0.3-1.967,1.084-3.2,2.351c-0.933,0.933-1.55,2.383-1.85,4.35c-0.333,1.967-1,3.45-2,4.45
		c-1.267,1.267-2,3.116-2.2,5.55c-0.1,1.367-0.083,3.3,0.05,5.8c0,0.634,0.95,2.434,2.85,5.4c1.934,3,2.917,6.3,2.95,9.899
		c0.033,3.134,0.233,5.667,0.6,7.601c0,0.333-0.184,0.434-0.55,0.3c-0.7-0.267-1.417-0.517-2.15-0.75
		c-2.633-0.566-4.367-1.017-5.2-1.35c-1.367-0.467-2.05-1.483-2.05-3.051v-7.399c0-0.4,0.3-1.283,0.9-2.65
		c0.333-0.767,0.033-2.1-0.9-4c-1.267-2.5-1.967-3.983-2.1-4.45c-0.2-0.666-0.3-1.966-0.3-3.899c0-1.233-1.033-2.283-3.1-3.15
		c-2.333-0.967-3.817-2.467-4.45-4.5c-0.333-1.066-1.566-3.366-3.7-6.899c-1.534-2.567-2.3-5.267-2.3-8.101
		c0-3.267-0.5-5.916-1.5-7.95c-0.633-1.232-1.7-2.583-3.2-4.05c-2.5-1.399-4.434-2.5-5.8-3.3c-2.466-1.434-3.033-2.833-1.7-4.2
		c1.4-1.399,3.017-2.383,4.85-2.95c0.933-0.267,1.716-0.399,2.35-0.399l-1.3,3.6c-0.167,2.4,1.483,3.601,4.95,3.601
		c3.466,0,5.816-0.65,7.05-1.95c0.8-0.834,2.233-2.634,4.3-5.4c2.4-2.399,4.233-3.767,5.5-4.1c1.434-0.334,3.6,0.149,6.5,1.45
		c2,0.899,3.7,1.666,5.1,2.3c0.667,0.233,1.967,0.35,3.9,0.35c1.333,0,2.833-0.917,4.5-2.75c1.934-2.066,4.15-3.434,6.65-4.1
		c4.033-1,6.683-1.533,7.95-1.601c1.8-0.066,3.317,0.533,4.55,1.801c1.533,1.533,2.816,2.633,3.85,3.3
		c1.333,0.899,2.6,1.35,3.8,1.35c1.233,0,2.233,0.217,3,0.65c0.467,0.267,1.2,0.883,2.2,1.85c0.133,0.134,1.034,0.7,2.7,1.7
		c0.967,0.6,1.45,1.417,1.45,2.45c0,0.899,0.4,1.733,1.2,2.5c0.767,0.8,1.15,1.633,1.15,2.5c0,1.5,0.184,2.7,0.55,3.6
		c0.433,1.067,1.083,1.601,1.95,1.601c0.333,0,1.233,0.467,2.7,1.399c1.467,0.934,3.167,1.4,5.1,1.4c1.667,0,3.05-0.066,4.15-0.2
		c0.5,0.066,1.517,0.867,3.05,2.4l5.5,5.5C128.771,70.777,129.688,71.709,130.754,72.81z"/>
</g>
<g id="Layer_16">
	<path fill-rule="evenodd" clip-rule="evenodd" fill="#EA6B3F" d="M43.404,14.86c0.6-0.233,1.683-0.35,3.25-0.35
		c1.033,0,1.983,0.399,2.85,1.199c0.9,0.801,1.75,1.2,2.55,1.2l0.4-0.05c-3.033,10.566-9.45,18.583-19.25,24.05
		c-6.7,3.733-14.517,6.083-23.45,7.05c-0.533-2.5-0.566-5.267-0.1-8.3c0.233-1.399,0.35-2.95,0.35-4.649
		c10.133-3.5,18.15-8.851,24.05-16.051c1.4,0.134,2.483,0.117,3.25-0.05c1.133-0.2,2.133-0.733,3-1.6
		C41.671,15.976,42.704,15.16,43.404,14.86z"/>
</g>
<g id="Layer_15">
	<path fill-rule="evenodd" clip-rule="evenodd" fill="#F8C63F" d="M30.554,11.06c0,1-0.317,2.399-0.95,4.2
		c-0.566,1.5-0.75,2.449-0.55,2.85c-4.733,2.633-12.067,5.116-22,7.45c-0.133-0.3-0.2-0.65-0.2-1.05c0-0.2-0.533-2.334-1.6-6.4
		c-0.9-3.333-0.983-5.6-0.25-6.8c1.233-2,2.117-3.334,2.65-4c0-1.3,0.366-2.134,1.1-2.5c1.1-0.567,3.284-0.4,6.55,0.5
		c2.533,0.7,4.417,1.533,5.65,2.5c0.8,0.666,1.867,1,3.2,1c1.4,0,2.983-0.117,4.75-0.351C30.004,8.56,30.554,9.426,30.554,11.06z"/>
</g>
<g id="Layer_14">
	<path fill-rule="evenodd" clip-rule="evenodd" fill="#F09840" d="M34.054,18.959c-5.9,7.2-13.917,12.551-24.05,16.051
		c-0.033-2.301-0.433-4.351-1.2-6.15c-0.9-1.6-1.483-2.7-1.75-3.3c9.933-2.334,17.267-4.817,22-7.45c0.2,0.366,0.7,0.55,1.5,0.55
		C31.421,18.66,32.587,18.76,34.054,18.959z"/>
</g>
<g id="Layer_13">
	<path fill-rule="evenodd" clip-rule="evenodd" fill="#F8C63F" d="M58.454,12.66c-0.767,6.566-2.467,12.833-5.1,18.8
		c-3.867,8.767-9.45,15.95-16.75,21.551c-5.733,4.433-10.717,7.733-14.95,9.899c-2.067-1.333-3.617-2.533-4.65-3.6
		c-1.933-1.9-3.367-3.483-4.3-4.75c-1.467-2.066-2.45-4.267-2.95-6.601c8.934-0.967,16.75-3.316,23.45-7.05
		c9.8-5.467,16.217-13.483,19.25-24.05c0.667-0.134,1.583-0.833,2.75-2.1C56.371,13.493,57.454,12.793,58.454,12.66z"/>
</g>
<g id="Layer_12">
	<path fill-rule="evenodd" clip-rule="evenodd" fill="#EA6B3F" d="M84.304,26.01c0.367,0,1.683-0.284,3.95-0.851
		c-2.167,3.833-4.333,7.517-6.5,11.05c-16,26.634-28.7,44-38.1,52.101c-1.667,1.467-3.3,2.616-4.9,3.45l-0.05-0.801
		c0-0.966-0.833-1.433-2.5-1.399c-2.167,0.033-3.8-0.483-4.9-1.55l-0.05-0.051c3.434,0.167,6.333-0.35,8.7-1.55
		c2.3-1.1,4.15-2.816,5.55-5.149c0.267-0.467,3.717-5.783,10.35-15.95c6.167-9.467,10.8-16.983,13.9-22.55l2.55-4.7
		c3.133-5.634,5-9,5.6-10.101c1.533-2.633,2.65-4.383,3.35-5.25C81.821,24.91,82.837,26.01,84.304,26.01z"/>
</g>
<g id="Layer_11_1_">
	<path fill-rule="evenodd" clip-rule="evenodd" fill="#F8C63F" d="M80.904,20.06c0,0.933,0.117,1.816,0.35,2.649
		c-0.7,0.867-1.816,2.617-3.35,5.25c-0.6,1.101-2.467,4.467-5.6,10.101l-2.55,4.7c-3.1,5.566-7.733,13.083-13.9,22.55
		c-6.633,10.167-10.083,15.483-10.35,15.95c-1.4,2.333-3.25,4.05-5.55,5.149c-2.367,1.2-5.267,1.717-8.7,1.55
		c-1.667-1.699-3.25-4.066-4.75-7.1c2.833,0.533,5.767-0.083,8.8-1.85c7.767-4.467,15.833-15.934,24.2-34.4
		c2.934-6.434,5.717-13.367,8.35-20.8c1.3-3.7,2.317-6.767,3.05-9.2c0.566,0.366,1.216,0.55,1.95,0.55c1.7,0,3.434,0.5,5.2,1.5
		C79.954,17.693,80.904,18.827,80.904,20.06z"/>
</g>
<g id="Layer_10">
	<path fill-rule="evenodd" clip-rule="evenodd" fill="#F8C63F" d="M102.654,32.01c0.8,0.8,1.167,1.75,1.1,2.85
		c-0.066,0.7-0.216,2.083-0.45,4.15c0,1.066-0.184,2.149-0.55,3.25c-1.4,0.8-2.85,1.732-4.35,2.8
		c-4.267,3.133-8.15,7.017-11.65,11.649h-0.05l-0.2,0.051h-0.2l-0.15,0.05l-0.1,0.05l-0.1,0.1l-0.05,0.301l-0.05,0.1v0.15l-0.05,0.1
		l-0.05,0.15l-0.1,0.149l-0.05,0.05l-0.05,0.15l-0.05,0.05l-0.2,0.15c-2.567,2.633-4.35,4.366-5.35,5.2
		c-3.533,2.833-7.417,4.883-11.65,6.149c-4.833,1.334-7.7,2.167-8.6,2.5c-0.9,0.3-1.967,1.084-3.2,2.351
		c-0.933,0.933-1.55,2.383-1.85,4.35c-0.333,1.967-1,3.45-2,4.45c-1.267,1.267-2,3.116-2.2,5.55c-0.1,1.367-0.083,3.3,0.05,5.8
		l0.05,0.601l0.15,0.6l0.3,0.6l0.05,0.15l0.3,0.55h0.05c0.466,0.767,1.35,2.117,2.65,4.05c1.1,1.967,1.8,4.084,2.1,6.351l1.5,0.8
		l-1.2,2l-0.1,0.25l0.25,4.5l0.1,0.45l0.2,1.649v0.101l-0.05,0.5c-0.066,0.1-0.15,0.133-0.25,0.1l-1.65-0.55l-0.05-0.05l-2.7-0.75
		l-0.1-0.05l-1.95-0.4h-0.05l-0.1-0.05l-1.05-0.3l-0.45-0.2h-0.05l-0.75-0.55l-0.1-0.101l-0.4-0.6l-0.15-0.45l-0.05-0.25l-0.05-8.3
		l0.05-0.601v-0.05l0.1-0.5l0.05-0.1v-0.101l0.2-0.449l0.05-0.051l0.25-0.399l0.25-0.601v-0.05l0.1-0.35v-0.4l-0.05-0.149
		l-0.05-0.351l-0.15-0.6l-0.1-0.2l-0.7-1.7c-1.3-2.566-2.017-4.116-2.15-4.649c-1.867-0.967-3.133-1.217-3.8-0.75
		c-0.5,0.333-0.966,0.733-1.4,1.199c-0.433-1.1-0.717-2-0.85-2.699c1.6-0.834,3.233-1.983,4.9-3.45
		c9.4-8.101,22.1-25.467,38.1-52.101c2.167-3.533,4.333-7.217,6.5-11.05c1.633-0.366,2.95-0.533,3.95-0.5
		c1.433,0.033,2.583,0.483,3.45,1.351c1.133,1.133,2.45,2.283,3.95,3.449C101.071,30.593,102.087,31.443,102.654,32.01z"/>
</g>
<g id="_x3C_Path_x3E__x5F_29">
	
		<use xlink:href="#winnie__x26__andy__x26__mrs_chan.ai_Assets_x2F_Layer_1_x2F__x3C_Path_x3E__x5F_29"  width="120.316" height="81.712" x="0.048" y="-81.707" transform="matrix(1 0 0 -1 18.0542 36.2095)" overflow="visible" opacity="0.6289" enable-background="new    "/>
</g>
<g id="Layer_8">
	<path fill-rule="evenodd" clip-rule="evenodd" fill="#F09840" d="M107.754,111.91c0.667-0.033,0.467,0.834-0.6,2.601
		c-1.133,1.767-2.7,3.699-4.7,5.8c-2.1,2.233-5.117,4.316-9.05,6.25c-4.067,1.967-6.483,2.45-7.25,1.45c-0.9-1.233-1.717-1.9-2.45-2
		l-0.85,0.199c-0.333,0.268-0.667,0.551-1,0.851c-0.667,0.6-1,1.017-1,1.25c0.033,0.233-0.683,0.366-2.15,0.399
		c-1.733,0.067-3.617-0.1-5.65-0.5c-6.133-1.232-11.684-4.199-16.65-8.899c-2.9-2.8-2.583-3.566,0.95-2.3
		c1.067,0.399,2.5,0.717,4.3,0.949c2.267,0.301,4.133,0.268,5.6-0.1c0.833-0.2,2.617-0.967,5.35-2.3
		c2.333-1.101,4.15-1.667,5.45-1.7c1.167-0.033,2.683-0.083,4.55-0.15c1.567,0,3.25,0.101,5.05,0.301
		c1.066,0.133,2.883,0.6,5.45,1.399c2.6,0.567,5.117,0.434,7.55-0.399c1.566-0.5,3.133-1.184,4.7-2.051
		C106.521,112.26,107.321,111.91,107.754,111.91z"/>
</g>
<g id="_x3C_Path_x3E__x5F_27">
	
		<use xlink:href="#winnie__x26__andy__x26__mrs_chan.ai_Assets_x2F_Layer_1_x2F__x3C_Path_x3E__x5F_27"  width="53.676" height="16.513" x="0.03" y="-16.513" transform="matrix(1 0 0 -1 54.5542 112.2603)" overflow="visible" opacity="0.7109" enable-background="new    "/>
</g>
<g id="Layer_6">
	<path fill-rule="evenodd" clip-rule="evenodd" fill="#F8EEDE" d="M76.104,84.51l0.55-0.95c0.5-0.533,1.017-0.467,1.55,0.2
		c3.333,4.1,6.183,10.267,8.55,18.5c1.934,6.866,2.767,11.366,2.5,13.5c-0.233,1.566-1.066,3.25-2.5,5.05
		c-1.433,1.8-2.633,2.7-3.6,2.7c-1.367,0-3.083-0.5-5.15-1.5c-2.333-1.101-3.667-2.267-4-3.5c-1.566-6.2-1.683-13.717-0.35-22.551
		L76.104,84.51z"/>
</g>
<g id="Layer_5">
	<path fill-rule="evenodd" clip-rule="evenodd" fill="#EFD8AB" d="M76.104,84.51l0.25-0.551c0.233-0.366,0.467-0.6,0.7-0.699
		c1.7,18.133,3.733,31.55,6.1,40.25c-1.367,0-3.083-0.5-5.15-1.5c-2.333-1.101-3.667-2.267-4-3.5
		c-1.566-6.2-1.683-13.717-0.35-22.551L76.104,84.51z"/>
</g>
<g id="Layer_4">
	
		<line fill-rule="evenodd" clip-rule="evenodd" fill="none" stroke="#FFFFFF" stroke-width="2" x1="88.254" y1="206.26" x2="83.554" y2="347.66"/>
</g>
<g id="Layer_3">
	
		<line fill-rule="evenodd" clip-rule="evenodd" fill="none" stroke="#FFFFFF" stroke-width="2" x1="61.504" y1="239.01" x2="80.004" y2="240.01"/>
</g>
<g id="Layer_2">
	
		<line fill-rule="evenodd" clip-rule="evenodd" fill="none" stroke="#FFFFFF" stroke-width="2" x1="97.004" y1="238.01" x2="113.504" y2="238.01"/>
</g>
</svg>
