
<svg xmlns="http://www.w3.org/2000/svg" version="1.1" xmlns:xlink="http://www.w3.org/1999/xlink" preserveAspectRatio="none" x="0px" y="0px" width="1000px" height="1000px" viewBox="0 0 1000 1000">
<defs>
<g id="tile1_0_Layer0_0_FILL">
<path fill="#CCCCCC" stroke="none" d="
M 1000 0
L 0 0 0 1000 1000 1000 1000 0
M 987.7 16.05
L 987.7 259.9 813.75 259.9 813.75 16.05 987.7 16.05
M 665.75 16.05
L 795.7 16.05 795.7 259.9 665.75 259.9 665.75 16.05
M 665.75 275.9
L 795.7 275.9 795.7 511.85 665.75 511.85 665.75 275.9
M 651.75 15.05
L 651.75 259.9 511.8 259.9 511.8 15.05 651.75 15.05
M 665.75 526.8
L 795.7 526.8 795.7 749.7 665.75 749.7 665.75 526.8
M 665.75 769.7
L 795.7 769.7 795.7 985.4 665.75 985.4 665.75 769.7
M 813.75 749.7
L 813.75 526.8 987.7 526.8 987.7 749.7 813.75 749.7
M 649.75 526.85
L 649.75 749.7 511.8 749.7 511.8 526.85 649.75 526.85
M 651.75 275.9
L 651.75 510.85 511.8 510.85 511.8 275.9 651.75 275.9
M 813.75 275.9
L 987.7 275.9 987.7 511.85 813.75 511.85 813.75 275.9
M 813.75 769.7
L 987.7 769.7 987.7 985.4 813.75 985.4 813.75 769.7
M 339.85 15.05
L 499.8 15.05 499.8 259.9 339.85 259.9 339.85 15.05
M 325.85 15
L 325.85 259.85 185.9 259.85 185.9 15 325.85 15
M 339.85 275.9
L 499.8 275.9 499.8 510.85 339.85 510.85 339.85 275.9
M 13.95 15
L 173.9 15 173.9 259.85 13.95 259.85 13.95 15
M 13.95 275.85
L 173.9 275.85 173.9 510.8 13.95 510.8 13.95 275.85
M 185.9 527.3
L 323.85 527.3 323.85 750.15 185.9 750.15 185.9 527.3
M 185.9 770.15
L 323.85 770.15 323.85 986.1 185.9 986.1 185.9 770.15
M 11.95 770.15
L 173.9 770.15 173.9 986.1 11.95 986.1 11.95 770.15
M 173.9 527.3
L 173.9 750.15 11.95 750.15 11.95 527.3 173.9 527.3
M 337.85 769.7
L 499.8 769.7 499.8 985.4 337.85 985.4 337.85 769.7
M 499.8 526.85
L 499.8 749.7 337.85 749.7 337.85 526.85 499.8 526.85
M 325.85 510.8
L 185.9 510.8 185.9 275.85 325.85 275.85 325.85 510.8
M 649.75 985.4
L 511.8 985.4 511.8 769.7 649.75 769.7 649.75 985.4 Z"/>

<path fill="#DDDDDD" stroke="none" d="
M 511.8 985.4
L 649.75 985.4 649.75 769.7 511.8 769.7 511.8 985.4
M 185.9 510.8
L 325.85 510.8 325.85 275.85 185.9 275.85 185.9 510.8
M 499.8 749.7
L 499.8 526.85 337.85 526.85 337.85 749.7 499.8 749.7
M 499.8 769.7
L 337.85 769.7 337.85 985.4 499.8 985.4 499.8 769.7
M 173.9 750.15
L 173.9 527.3 11.95 527.3 11.95 750.15 173.9 750.15
M 173.9 770.15
L 11.95 770.15 11.95 986.1 173.9 986.1 173.9 770.15
M 323.85 770.15
L 185.9 770.15 185.9 986.1 323.85 986.1 323.85 770.15
M 323.85 527.3
L 185.9 527.3 185.9 750.15 323.85 750.15 323.85 527.3
M 173.9 275.85
L 13.95 275.85 13.95 510.8 173.9 510.8 173.9 275.85
M 173.9 15
L 13.95 15 13.95 259.85 173.9 259.85 173.9 15
M 499.8 275.9
L 339.85 275.9 339.85 510.85 499.8 510.85 499.8 275.9
M 325.85 259.85
L 325.85 15 185.9 15 185.9 259.85 325.85 259.85
M 499.8 15.05
L 339.85 15.05 339.85 259.9 499.8 259.9 499.8 15.05
M 987.7 769.7
L 813.75 769.7 813.75 985.4 987.7 985.4 987.7 769.7
M 987.7 275.9
L 813.75 275.9 813.75 511.85 987.7 511.85 987.7 275.9
M 651.75 510.85
L 651.75 275.9 511.8 275.9 511.8 510.85 651.75 510.85
M 649.75 749.7
L 649.75 526.85 511.8 526.85 511.8 749.7 649.75 749.7
M 813.75 526.8
L 813.75 749.7 987.7 749.7 987.7 526.8 813.75 526.8
M 795.7 769.7
L 665.75 769.7 665.75 985.4 795.7 985.4 795.7 769.7
M 795.7 526.8
L 665.75 526.8 665.75 749.7 795.7 749.7 795.7 526.8
M 651.75 259.9
L 651.75 15.05 511.8 15.05 511.8 259.9 651.75 259.9
M 795.7 275.9
L 665.75 275.9 665.75 511.85 795.7 511.85 795.7 275.9
M 795.7 16.05
L 665.75 16.05 665.75 259.9 795.7 259.9 795.7 16.05
M 987.7 259.9
L 987.7 16.05 813.75 16.05 813.75 259.9 987.7 259.9 Z"/>
</g>
</defs>

<g transform="matrix( 1, 0, 0, 1, 0,0) ">
<g transform="matrix( 1, 0, 0, 1, 0,0) ">
<use xlink:href="#tile1_0_Layer0_0_FILL"/>
</g>
</g>
</svg>
