<?xml version="1.0" encoding="utf-8"?>
<!-- Generator: Adobe Illustrator 16.0.0, SVG Export Plug-In . SVG Version: 6.00 Build 0)  -->
<!DOCTYPE svg PUBLIC "-//W3C//DTD SVG 1.1//EN" "http://www.w3.org/Graphics/SVG/1.1/DTD/svg11.dtd">
<svg version="1.1" xmlns="http://www.w3.org/2000/svg" xmlns:xlink="http://www.w3.org/1999/xlink" x="0px" y="0px"
	 width="231.756px" height="266.802px" viewBox="0 0 231.756 266.802" enable-background="new 0 0 231.756 266.802"
	 xml:space="preserve">
<symbol  id="winnie__x26__andy__x26__mrs_chan.ai_Assets_x2F_Layer_1_x2F__x3C_Path_x3E__x5F_1" viewBox="0 -20.8 16.15 20.8">
	<polygon fill-rule="evenodd" clip-rule="evenodd" fill="#FFFFFF" points="3.3,-19.85 0,-20.8 14.65,0 16.15,-0.35 	"/>
</symbol>
<symbol  id="winnie__x26__andy__x26__mrs_chan.ai_Assets_x2F_Layer_1_x2F__x3C_Path_x3E__x5F_11" viewBox="-0.329 -26.835 68.679 26.835">
	<path fill-rule="evenodd" clip-rule="evenodd" fill="#FDFEFF" d="M68.35-14.55c-1.3-2.967-3.633-5.633-7-8
		c-6.733-4.7-15.3-5.534-25.7-2.5c-11.633,3.367-21.233,7.017-28.8,10.95c-7.1,3.667-8.934,5.55-5.5,5.65
		C3.917-8.417,11.017-7,22.65-4.2C28.45-2.8,34-1.4,39.3,0l12.2-3.75C60.167-7.017,65.783-10.617,68.35-14.55z"/>
</symbol>
<symbol  id="winnie__x26__andy__x26__mrs_chan.ai_Assets_x2F_Layer_1_x2F__x3C_Path_x3E__x5F_12" viewBox="0 -26.835 68.679 26.835">
	<path fill-rule="evenodd" clip-rule="evenodd" fill="#FDFEFF" d="M45.7-4.2C57.333-7,64.433-8.417,67-8.45
		c3.433-0.1,1.6-1.983-5.5-5.65c-7.567-3.933-17.167-7.583-28.8-10.95c-10.4-3.034-18.967-2.2-25.7,2.5c-3.367,2.367-5.7,5.033-7,8
		c2.567,3.933,8.183,7.533,16.85,10.8c4.333,1.633,8.4,2.883,12.2,3.75C34.35-1.4,39.9-2.8,45.7-4.2z"/>
</symbol>
<symbol  id="winnie__x26__andy__x26__mrs_chan.ai_Assets_x2F_Layer_1_x2F__x3C_Path_x3E__x5F_13" viewBox="-0.022 -73.2 130.081 73.15">
	<path fill-rule="evenodd" clip-rule="evenodd" fill="#B8B7B7" d="M122.3-35.6c1.633-1.667,2.45-3.367,2.45-5.1
		c0-1.466,0.15-2.533,0.45-3.2c0.267-0.7,1-1.65,2.2-2.85c1.467-1.433,2.3-2.5,2.5-3.2c0.367-1.233,0.1-3.4-0.8-6.5
		c-0.133-0.4-0.717-1.433-1.75-3.1c-0.767-1.233-1.15-2.7-1.15-4.4c0-1.566-0.767-3.216-2.3-4.95s-2.3-3.067-2.3-4l-9.5-0.3
		l-2.25,2.25c-0.934,0.934-1.317,1.9-1.15,2.9l0.55,1.2l-1.95,3.4l-0.8,3.55c2.133,2.167,3.2,3.883,3.2,5.15l0.25,4.15l-1.7,1.7
		L100-43.6l-4.6,0.75l-2.15-2.2c-0.5,0.066-1.1,0.033-1.8-0.1c-1.4-0.267-2.583-0.883-3.55-1.85c-0.967-0.933-1.816-1.217-2.55-0.85
		L84.5-47l-3.4-0.95c-1.934-0.633-3.533-1.6-4.8-2.9c-0.7-0.7-1.816-1.417-3.35-2.15c-1.534-0.733-2.517-1.317-2.95-1.75
		c-0.633-0.6-1.55-0.783-2.75-0.55l-8.9,2.5l-4.85-0.5l-5.35-1.45c-0.4,0-0.9-0.1-1.5-0.3c-1.2-0.4-2.316-1.1-3.35-2.1
		c-1.6-1.633-3.216-3.417-4.85-5.35H32.2l-7.3,2.9c-0.633,0-1.333-0.066-2.1-0.2c-1.533-0.233-2.6-0.65-3.2-1.25l-2.95-2.9
		l-9.7-3.85c-0.767-0.133-1.6-0.184-2.5-0.15c-1.833,0.034-3.1,0.4-3.8,1.1v7.75c0.333,0,0.733,0.083,1.2,0.25
		c1,0.333,1.9,0.9,2.7,1.7C5.417-56.283,5.7-55.5,5.4-54.8c-0.167,0.3-0.933,1.133-2.3,2.5c-0.7,0.7-1.083,1.4-1.15,2.1
		c-0.034,0.667-0.467,1.417-1.3,2.25c-1,1.034-0.883,1.75,0.35,2.15c0.6,0.2,1.3,0.3,2.1,0.3c2.267,1.6,4.05,3.05,5.35,4.35
		c0.733,0.767,0.966,1.517,0.7,2.25c-0.467,1.3-0.7,2.167-0.7,2.6c0,1-0.483,1.7-1.45,2.1l-1.5,0.3l-2.4,2.45l5.1,10.9l1.9,1.95
		c-0.333,0.4-0.583,0.9-0.75,1.5c-0.367,1.2-0.117,2.233,0.75,3.1c0.967,0.933,1.583,1.867,1.85,2.8c0.167,0.633,0.25,1.8,0.25,3.5
		c0,1.5,0.066,2.417,0.2,2.75c0.167,0.4,0.917,1.267,2.25,2.6c0.934,0.934,1.4,1.2,1.4,0.8c0.034-0.534,0.5-0.483,1.4,0.15
		c1.133,0.733,2.4,1.167,3.8,1.3c0.7,0.067,1.317,0.067,1.85,0c0.933-0.3,1.7-0.733,2.3-1.3c1.167-1.167,2.35-1.867,3.55-2.1
		c1.8-0.333,3.517-0.933,5.15-1.8c2.533-1.333,4.133-2.05,4.8-2.15c1-0.133,1.5,0.583,1.5,2.15c0,1.533,0.983,2.517,2.95,2.95
		c1.2,0.3,3.617,0.45,7.25,0.45c2.467,0,4.117-0.367,4.95-1.1c0.534-0.433,1.217-1.283,2.05-2.55c1.3-1.3,2.117-2.917,2.45-4.85
		L60-13.45c0.167-2,0.75-3,1.75-3c1.933,0,4.267,1.367,7,4.1c1.167,1.167,2.65,1.583,4.45,1.25c1.933-0.367,3.883-1.55,5.85-3.55
		c1.733-1.7,3.65-2.833,5.75-3.4c1.034-0.3,1.9-0.417,2.6-0.35l2.95-0.9c1.933-1.034,2.9-2.667,2.9-4.9c0-2,1.217-4.4,3.65-7.2
		c2.4-2.833,3.6-4.633,3.6-5.4c0-1.067,0.85-1.517,2.55-1.35c2.034,0.233,3.25,0.15,3.65-0.25c0.3-0.3,0.667-0.2,1.1,0.3
		c0.267,0.3,0.767,0.967,1.5,2c1.7,2.267,3.7,3.4,6,3.4C118.067-32.7,120.4-33.667,122.3-35.6z"/>
</symbol>
<symbol  id="winnie__x26__andy__x26__mrs_chan.ai_Assets_x2F_Layer_1_x2F__x3C_Path_x3E__x5F_2" viewBox="0 -25.268 27.7 25.268">
	<path fill-rule="evenodd" clip-rule="evenodd" fill="#FFFFFF" d="M21.2,0l6.5-1.65L8.65-25.25C5.483-25.35,2.6-25.033,0-24.3
		L21.2,0z"/>
</symbol>
<symbol  id="winnie__x26__andy__x26__mrs_chan.ai_Assets_x2F_Layer_1_x2F__x3C_Path_x3E__x5F_3" viewBox="0 -22.35 16.75 22.35">
	<polygon fill-rule="evenodd" clip-rule="evenodd" fill="#FFFFFF" points="15.2,0 16.75,-0.45 2.3,-22.35 0,-21.6 	"/>
</symbol>
<symbol  id="winnie__x26__andy__x26__mrs_chan.ai_Assets_x2F_Layer_1_x2F__x3C_Path_x3E__x5F_4" viewBox="0 -18.65 21.95 18.65">
	<polygon fill-rule="evenodd" clip-rule="evenodd" fill="#FFFFFF" points="11.5,-2.6 21.95,0 6.9,-18.65 0,-15.8 	"/>
</symbol>
<symbol  id="winnie__x26__andy__x26__mrs_chan.ai_Assets_x2F_Layer_1_x2F__x3C_Path_x3E__x5F_5" viewBox="0 -2.7 3.15 2.7">
	<path fill-rule="evenodd" clip-rule="evenodd" fill="#FFFFFF" d="M3.15-1.35C3.15-1.717,3-2.033,2.7-2.3
		C2.4-2.567,2.033-2.7,1.6-2.7c-0.434,0-0.817,0.133-1.15,0.4C0.15-2.033,0-1.717,0-1.35S0.15-0.667,0.45-0.4
		C0.783-0.133,1.167,0,1.6,0c0.433,0,0.8-0.133,1.1-0.4C3-0.667,3.15-0.983,3.15-1.35z"/>
</symbol>
<symbol  id="winnie__x26__andy__x26__mrs_chan.ai_Assets_x2F_Layer_1_x2F__x3C_Path_x3E__x5F_6" viewBox="0 -4.3 5.75 4.3">
	<path fill-rule="evenodd" clip-rule="evenodd" fill="#FFFFFF" d="M5.75-2.15c0-0.6-0.283-1.117-0.85-1.55
		c-0.566-0.4-1.233-0.6-2-0.6c-0.8,0-1.483,0.2-2.05,0.6C0.283-3.267,0-2.75,0-2.15s0.283,1.1,0.85,1.5C1.417-0.217,2.1,0,2.9,0
		c0.767,0,1.434-0.217,2-0.65C5.467-1.05,5.75-1.55,5.75-2.15z"/>
</symbol>
<symbol  id="winnie__x26__andy__x26__mrs_chan.ai_Assets_x2F_Layer_1_x2F__x3C_Path_x3E__x5F_7" viewBox="0 -2.7 3.15 2.7">
	<path fill-rule="evenodd" clip-rule="evenodd" fill="#FFFFFF" d="M3.15-1.35C3.15-1.717,3-2.033,2.7-2.3
		C2.4-2.567,2.033-2.7,1.6-2.7c-0.434,0-0.817,0.133-1.15,0.4C0.15-2.033,0-1.717,0-1.35S0.15-0.667,0.45-0.4
		C0.783-0.133,1.167,0,1.6,0c0.433,0,0.8-0.133,1.1-0.4C3-0.667,3.15-0.983,3.15-1.35z"/>
</symbol>
<symbol  id="winnie__x26__andy__x26__mrs_chan.ai_Assets_x2F_Layer_1_x2F__x3C_Path_x3E__x5F_8" viewBox="0 -4.3 5.7 4.3">
	<path fill-rule="evenodd" clip-rule="evenodd" fill="#FFFFFF" d="M5.7-2.15c0-0.6-0.284-1.117-0.85-1.55
		c-0.567-0.4-1.233-0.6-2-0.6c-0.8,0-1.467,0.2-2,0.6C0.283-3.267,0-2.75,0-2.15s0.283,1.1,0.85,1.5C1.383-0.217,2.05,0,2.85,0
		c0.767,0,1.433-0.217,2-0.65C5.417-1.05,5.7-1.55,5.7-2.15z"/>
</symbol>
<symbol  id="winnie__x26__andy__x26__mrs_chan.ai_Assets_x2F_Layer_1_x2F__x3C_Path_x3E__x5F_82" viewBox="0 -23.9 23.9 23.9">
	<path fill-rule="evenodd" clip-rule="evenodd" fill="#E3895A" d="M23.9-11.95c0-3.3-1.167-6.117-3.5-8.45
		c-2.333-2.333-5.15-3.5-8.45-3.5c-3.3,0-6.117,1.167-8.45,3.5C1.167-18.067,0-15.25,0-11.95c0,3.3,1.167,6.117,3.5,8.45
		S8.65,0,11.95,0c3.3,0,6.117-1.167,8.45-3.5C22.733-5.833,23.9-8.65,23.9-11.95z"/>
</symbol>
<symbol  id="winnie__x26__andy__x26__mrs_chan.ai_Assets_x2F_Layer_1_x2F__x3C_Path_x3E__x5F_83" viewBox="0 -23.85 23.9 23.85">
	<path fill-rule="evenodd" clip-rule="evenodd" fill="#E3895A" d="M23.9-11.9c0-3.3-1.167-6.117-3.5-8.45
		c-2.333-2.333-5.15-3.5-8.45-3.5c-3.3,0-6.117,1.167-8.45,3.5C1.167-18.017,0-15.2,0-11.9c0,3.3,1.167,6.1,3.5,8.4
		C5.833-1.167,8.65,0,11.95,0c3.3,0,6.117-1.167,8.45-3.5C22.733-5.8,23.9-8.6,23.9-11.9z"/>
</symbol>
<symbol  id="winnie__x26__andy__x26__mrs_chan.ai_Assets_x2F_Layer_1_x2F__x3C_Path_x3E__x5F_84" viewBox="0 -6.5 6.75 6.5">
	<path fill-rule="evenodd" clip-rule="evenodd" fill="#FDFEFF" d="M6.75-3.25c0-0.9-0.333-1.667-1-2.3S4.283-6.5,3.35-6.5
		C2.417-6.5,1.633-6.183,1-5.55c-0.667,0.633-1,1.4-1,2.3s0.333,1.667,1,2.3C1.633-0.317,2.417,0,3.35,0
		c0.933,0,1.733-0.317,2.4-0.95S6.75-2.35,6.75-3.25z"/>
</symbol>
<g id="Layer_38">
	
		<path fill-rule="evenodd" clip-rule="evenodd" fill="none" stroke="#000000" stroke-width="9" stroke-linecap="round" stroke-linejoin="round" stroke-miterlimit="3" d="
		M126.1,16.802c-0.333,0.2-0.567,0.383-0.7,0.55c-2.733,2.733-5.066,4.1-7,4.1c-1,0-1.583-1-1.75-3l0.05-3.05
		c-0.067-0.467-0.217-1-0.45-1.6v-0.05l-0.75-1.55v-0.05l-0.55-0.8v-0.05l-0.7-0.75c-0.833-1.267-1.517-2.117-2.05-2.55
		c-0.833-0.733-2.483-1.1-4.95-1.1c-3.633,0-6.05,0.15-7.25,0.45c-1.967,0.433-2.95,1.417-2.95,2.95v0.55L97,11.102v0.25l-0.25,0.6
		v0.05l-0.2,0.2l-0.2,0.15H96.3l-0.25,0.1h-0.3c-0.7-0.033-2.367-0.75-5-2.15l-1.05-0.55l-0.3-0.1l-0.65-0.3l-1.65-0.55h-0.05
		l-0.3-0.05l-0.1-0.05c-0.867-0.133-1.466-0.25-1.8-0.35l-0.1-0.05l-0.3-0.1H84.4l-0.75-0.4l-0.1-0.1l-0.4-0.3l-0.1-0.05l-1-0.95
		l-1.3-0.9l-0.3-0.15l-0.7-0.25c-1.9-0.633-4.233-0.767-7-0.4c-2.5,0.3-4.083,0.8-4.75,1.5c-0.333,0.333-1.1,1.45-2.3,3.35
		c-1.167,1.9-2.35,3.45-3.55,4.65c-1.3,1.3-1.85,2.983-1.65,5.05c0.1,1.033,0.333,1.933,0.7,2.7h-0.1l-0.2,0.1h-0.05
		c-4.367,1.8-7.433,3.35-9.2,4.65l-0.95,0.85l-0.25,0.35l-0.05,0.05l-0.15,0.25v0.1l-0.05,0.3c0,1.4-0.3,2.883-0.9,4.45
		c-0.733,1.9-1.767,3.517-3.1,4.85l-0.7,0.65l-0.5,0.35v0.05l-1.15,0.7v0.05c-0.233,0.167-0.383,0.35-0.45,0.55l-0.2,0.75v0.05
		l-0.1,0.9v0.1l-0.05,0.5v4.9l0.1,0.9v0.15l0.15,0.75v0.05l0.2,0.7v0.1l0.25,0.6v0.05l0.25,0.55h0.05l0.3,0.45v0.05
		c0.433,0.434,0.733,0.7,0.9,0.8c0.267,0.2,0.9,0.483,1.9,0.85l0.45,0.15l0.65,0.3h0.05l0.5,0.3l0.05,0.05l0.5,0.4l0.3,0.4
		l0.05,0.15l0.1,0.2v0.4l-0.1,0.4l-0.2,0.4l-1,1.2v0.05l-1.25,1.5l-0.85,1.45l-0.45,1.25l-0.2,1l-0.05,12.8l-0.3,0.1v0.25l1.3,1.4
		c1.033,1.167,1.95,2.267,2.75,3.3c-2.633,1.1-5.633,2.467-9,4.1c-1.567,0.8-2.667,1.767-3.3,2.9l-0.5,1.5l2.2-0.35
		c2.033-0.433,4.45-1.083,7.25-1.95c1.867,1.7,5.85,3.883,11.95,6.55l0.4,0.2c-0.633,2.7-0.05,6.117,1.75,10.25
		c1.7,3.9,3.9,6.65,6.6,8.25c1.867,1.1,3.9,1.583,6.1,1.45l0.45,1.1l-2.25,0.8c-27.8,7.9-47.217,32.633-58.25,74.2
		c-5.567,20.833-8.35,41.25-8.35,61.25v10.2l222.45,0.95c0.233-2.167,0.333-5.217,0.3-9.15c-0.066-7.9-0.816-16.316-2.25-25.25
		c-5.833-37.1-16.25-65.85-31.25-86.25c-10.367-14.1-22.233-23.483-35.6-28.15l0.8-2.4c2.133,0.066,4.133-0.483,6-1.65
		c2.533-1.6,4.617-4.283,6.25-8.05c1.233-2.7,1.9-5.183,2-7.45c6.133-2.667,10.3-4.917,12.5-6.75c4.3,1.333,7.3,2.067,9,2.2
		c0-0.4-0.15-0.9-0.45-1.5c-0.6-1.133-1.7-2.1-3.3-2.9c-5.033-2.434-9.267-4.283-12.7-5.55v-1.55c0-0.933,0.767-2.267,2.3-4
		c1.533-1.733,2.3-3.383,2.3-4.95c0-1.7,0.383-3.167,1.15-4.4c1.033-1.667,1.617-2.7,1.75-3.1c0.9-3.1,1.167-5.267,0.8-6.5
		c-0.2-0.7-1.034-1.767-2.5-3.2c-1.2-1.2-1.934-2.15-2.2-2.85c-0.3-0.667-0.45-1.733-0.45-3.2c0-1.733-0.816-3.433-2.45-5.1
		c-1.9-1.934-4.233-2.9-7-2.9c-2.3,0-4.3,1.133-6,3.4c-1.4,1.867-2.267,2.633-2.6,2.3c-0.4-0.4-1.617-0.483-3.65-0.25
		c-1.7,0.167-2.55-0.283-2.55-1.35c0-0.767-1.2-2.566-3.6-5.4c-2.434-2.8-3.65-5.2-3.65-7.2c0-1.966-0.767-3.466-2.3-4.5
		c-0.9-0.633-1.967-1.05-3.2-1.25l-0.15-0.05h-0.2c-0.7,0.067-1.567-0.05-2.6-0.35c-2.1-0.566-4.017-1.7-5.75-3.4
		c-0.167-0.2-0.45-0.467-0.85-0.8l-0.25-0.25l-1.7-1.25l-0.65-0.35l-0.15-0.1c-1.167-0.533-2.233-0.833-3.2-0.9
		c-0.667,0-1.3,0.1-1.9,0.3l-0.05,0.05l-0.75,0.35L126.1,16.802z"/>
</g>
<g id="Layer_37">
	<path fill-rule="evenodd" clip-rule="evenodd" fill="#E3CD43" d="M147.7,111.052c2.3,0.233,4.7,0.717,7.2,1.45
		c8.034,2.233,15.733,6.35,23.1,12.35c23.534,19.233,39.2,53.583,47,103.05c1.434,8.934,2.184,17.35,2.25,25.25
		c0.034,3.934-0.066,6.983-0.3,9.15L4.5,261.352v-10.2c0-6.233,0.45-13.7,1.35-22.4c1.767-17.267,4.917-33.066,9.45-47.399
		c6.267-19.934,14.8-35.6,25.6-47c13.467-14.2,30.083-21.3,49.85-21.3c29.434,0,47.317-0.35,53.65-1.05
		c3.167-0.367,3.384-0.733,0.65-1.1L147.7,111.052z"/>
</g>
<g id="Layer_36">
	<rect x="114.8" y="164.152" fill-rule="evenodd" clip-rule="evenodd" fill="#EBD55F" width="4.3" height="56.3"/>
</g>
<g id="Layer_35">
	<path fill-rule="evenodd" clip-rule="evenodd" fill="#EBD55F" d="M157.35,107.202c3.267,0,6.583,2.15,9.95,6.45
		c1.667,2.133,3.017,4.267,4.05,6.4l-9.6,69.4c-3.033-1-6.7-2.083-11-3.25c-8.566-2.333-15.95-3.899-22.15-4.7l-12-14.899
		l-10.55,14.399c-6.4,0.301-14.784,1.801-25.15,4.5l-13.65,3.95l-8.8-68.65l3.4-6.6c2.934-4.4,6.017-6.6,9.25-6.6
		c3.267,0,10.483,1.233,21.65,3.7c5.6,1.2,10.867,2.417,15.8,3.65h11.95l15.5-3.85C146.967,108.502,154.083,107.202,157.35,107.202z
		"/>
</g>
<g id="Layer_34">
	<path fill-rule="evenodd" clip-rule="evenodd" fill="#B4A047" d="M112.2,101.752l46.9,8.85c-3.3,9.133-7.55,18.267-12.75,27.4
		c-10.4,18.233-20.4,27.35-30,27.35c-9.566,0-19.983-8.267-31.25-24.8c-3.5-5.2-6.883-10.9-10.15-17.1l-3.85-7.75L112.2,101.752z"/>
</g>
<g id="Layer_33">
	<path fill-rule="evenodd" clip-rule="evenodd" fill="#F0D08F" d="M155.95,110.602l1.45-18.65c1.067-2.767,2.617-4.683,4.65-5.75
		c1.733-0.9,3.5-1.083,5.3-0.55c2.1,0.667,3.633,1.733,4.6,3.2c1.9,2.9,1.65,7.083-0.75,12.55c-2.367,5.434-5.617,8.6-9.75,9.5
		c-1.3,0.267-2.6,0.3-3.9,0.1L155.95,110.602z"/>
</g>
<g id="Layer_32">
	<path fill-rule="evenodd" clip-rule="evenodd" fill="#F0D08F" d="M74,94.652l1.45,18.65c-1.6,0.633-3.434,0.717-5.5,0.25
		c-4.133-0.9-7.383-4.05-9.75-9.45c-2.4-5.5-2.65-9.7-0.75-12.6c0.967-1.434,2.5-2.483,4.6-3.15c1.767-0.567,3.533-0.383,5.3,0.55
		C71.383,89.969,72.934,91.885,74,94.652z"/>
</g>
<g id="Layer_31">
	<path fill-rule="evenodd" clip-rule="evenodd" fill="#F4E1B2" d="M163.45,71.702c0.233,14.067-1.217,27.034-4.35,38.9
		c-2.167,8.133-8.783,16.583-19.85,25.35c-9.2,7.3-16.517,11.617-21.95,12.95c-3.833,0.934-10.367-1.717-19.6-7.95
		c-9.367-6.333-16.45-12.966-21.25-19.9c-4.7-6.8-7.6-19.55-8.7-38.25c-0.333-5.833-0.483-11.9-0.45-18.2l0.2-7.75l15.5-16.5
		c46.534,7.1,71.733,10.65,75.6,10.65C161.6,51.002,163.217,57.902,163.45,71.702z"/>
</g>
<g id="Layer_30">
	<path fill-rule="evenodd" clip-rule="evenodd" fill="#504F4F" d="M114.25,10.552c1.3,1.3,2.117,2.917,2.45,4.85l-0.05,3.05
		c0.167,2,0.75,3,1.75,3c1.934,0,4.267-1.367,7-4.1c1.167-1.167,2.65-1.583,4.45-1.25c1.934,0.367,3.883,1.55,5.85,3.55
		c1.733,1.7,3.65,2.833,5.75,3.4c1.033,0.3,1.9,0.417,2.6,0.35l2.95,0.9c1.934,1.033,2.9,2.667,2.9,4.9c0,2,1.217,4.4,3.65,7.2
		c2.4,2.833,3.6,4.633,3.6,5.4c0,1.067,0.85,1.517,2.55,1.35c2.033-0.233,3.25-0.15,3.65,0.25c0.333,0.333,1.2-0.433,2.6-2.3
		c1.7-2.267,3.7-3.4,6-3.4c2.767,0,5.1,0.967,7,2.9c1.633,1.667,2.45,3.367,2.45,5.1c0,1.467,0.15,2.534,0.45,3.2
		c0.267,0.7,1,1.65,2.2,2.85c1.466,1.433,2.3,2.5,2.5,3.2c0.367,1.233,0.1,3.4-0.8,6.5c-0.133,0.4-0.716,1.434-1.75,3.1
		c-0.767,1.233-1.15,2.7-1.15,4.4c0,1.567-0.767,3.217-2.3,4.95c-1.534,1.733-2.3,3.067-2.3,4c0,3.267-0.066,5.483-0.2,6.65
		c-0.3,2.833-0.967,4.25-2,4.25c-0.233,0-1.5-0.417-3.8-1.25c-1.333-0.5-2-0.083-2,1.25c0,2.434-0.083,4.067-0.25,4.9
		c-0.333,1.4-0.983,1.634-1.95,0.7c-0.9-0.9-2.117-1.533-3.65-1.9l-2-0.3c-0.733-2.233-1.483-4.683-2.25-7.35
		c-1.5-5.333-2.25-9.1-2.25-11.3c0-0.667,0.217-3.15,0.65-7.45c0.233-2.467,0.017-4.017-0.65-4.65c-0.6-0.6-0.917-1.35-0.95-2.25
		c-0.033-0.966-0.283-1.767-0.75-2.4l-1.45-1.9c-1.566,2.5-3.917,4.9-7.05,7.2c-6.2,4.6-13.15,6.4-20.85,5.4
		c-9.733-1.267-15.083-1.8-16.05-1.6c-0.233,0.033-0.567,0.283-1,0.75c-0.434,0.5-1.284,0.934-2.55,1.3
		c-1.167,0.333-1.883,1.267-2.15,2.8c-0.2,1.367-1.017,2.05-2.45,2.05c-1.466,0-3.167,0.7-5.1,2.1
		c-1.934,1.367-3.383,2.05-4.35,2.05c-1.7,0-6.167,0.117-13.4,0.35s-9.717,0.35-7.45,0.35c0.367,0-0.383,0.75-2.25,2.25
		c-1.9,2.167-2.583,4.567-2.05,7.2l1.25,2.9c0.466,2.233-0.133,4.183-1.8,5.85c-1.533,1.533-3.2,2.017-5,1.45
		c-1.867-0.6-3.233-2.133-4.1-4.6c-0.533-1.566-1.716-2.767-3.55-3.6c-1.566-0.7-2.35-1.6-2.35-2.7c0-1.4-1.133-3.517-3.4-6.35
		l-3.4-3.85v-12.1c0-2.034,0.883-4.067,2.65-6.1c1.333-1.567,1.667-2.684,1-3.35c-0.4-0.4-1.033-0.767-1.9-1.1
		c-1.067-0.4-1.75-0.7-2.05-0.9c-1.566-0.967-2.35-3.133-2.35-6.5c0-3.567,0.15-5.6,0.45-6.1c0.3-0.433,1.2-1.15,2.7-2.15
		c1.333-1.333,2.367-2.95,3.1-4.85c0.6-1.566,0.9-3.05,0.9-4.45c0-1.034,1.833-2.45,5.5-4.25c1.833-0.9,3.667-1.7,5.5-2.4
		c-0.367-0.767-0.6-1.667-0.7-2.7c-0.2-2.067,0.35-3.75,1.65-5.05c1.2-1.2,2.384-2.75,3.55-4.65c1.2-1.9,1.967-3.017,2.3-3.35
		c0.9-0.9,3.017-1.45,6.35-1.65c3.667-0.233,6.233,0.383,7.7,1.85c1.167,1.167,2.35,1.867,3.55,2.1c1.8,0.333,3.517,0.933,5.15,1.8
		c2.534,1.333,4.133,2.05,4.8,2.15c1,0.133,1.5-0.583,1.5-2.15c0-1.533,0.983-2.517,2.95-2.95c1.2-0.3,3.617-0.45,7.25-0.45
		c2.467,0,4.117,0.367,4.95,1.1C112.733,8.435,113.417,9.285,114.25,10.552z"/>
</g>
<g id="Layer_29">
	<path fill-rule="evenodd" clip-rule="evenodd" fill="#F0D08F" d="M120.65,111.952c-1.5,1.2-3.233,1.8-5.2,1.8
		c-1.333,0-2.75-0.417-4.25-1.25c-1.667-0.934-2.184-1.85-1.55-2.75l1.55-1.95c1.433-1.333,3.1-2,5-2c2.033,0,3.667,0.733,4.9,2.2
		c0.633,0.7,1.05,1.417,1.25,2.15C121.983,110.752,121.417,111.352,120.65,111.952z"/>
</g>
<g id="Layer_28">
	<path fill-rule="evenodd" clip-rule="evenodd" fill="#E3895A" d="M101.3,123.952l8.9-1.05c7.167-0.5,13.767-0.217,19.8,0.85
		c1.767,0.3,0.967,1.25-2.4,2.85c-3.467,1.633-6.967,2.45-10.5,2.45c-3.467,0-6.917-0.633-10.35-1.9
		C103.75,126.019,101.934,124.952,101.3,123.952z"/>
</g>
<g id="_x3C_Path_x3E__x5F_84">
	
		<use xlink:href="#winnie__x26__andy__x26__mrs_chan.ai_Assets_x2F_Layer_1_x2F__x3C_Path_x3E__x5F_84"  width="6.75" height="6.5" y="-6.5" transform="matrix(1 0 0 -1 112.3501 103.252)" overflow="visible" opacity="0.5508" enable-background="new    "/>
</g>
<g id="_x3C_Path_x3E__x5F_83">
	
		<use xlink:href="#winnie__x26__andy__x26__mrs_chan.ai_Assets_x2F_Layer_1_x2F__x3C_Path_x3E__x5F_83"  width="23.9" height="23.85" y="-23.85" transform="matrix(1 0 0 -1 76.3003 97.252)" overflow="visible" opacity="0.1484" enable-background="new    "/>
</g>
<g id="_x3C_Path_x3E__x5F_82">
	
		<use xlink:href="#winnie__x26__andy__x26__mrs_chan.ai_Assets_x2F_Layer_1_x2F__x3C_Path_x3E__x5F_82"  width="23.9" height="23.9" y="-23.9" transform="matrix(1 0 0 -1 129.9502 96.9019)" overflow="visible" opacity="0.1484" enable-background="new    "/>
</g>
<g id="Layer_24">
	
		<line fill-rule="evenodd" clip-rule="evenodd" fill="none" stroke="#686767" stroke-width="5" stroke-linecap="round" x1="128.65" y1="78.452" x2="150.5" y2="75.552"/>
</g>
<g id="Layer_23">
	
		<line fill-rule="evenodd" clip-rule="evenodd" fill="none" stroke="#686767" stroke-width="5" stroke-linecap="round" x1="79.85" y1="76.552" x2="101.75" y2="78.602"/>
</g>
<g id="Layer_22">
	<path fill-rule="evenodd" clip-rule="evenodd" fill="#858484" d="M144.05,23.402l1.95,0.5c1.434,0.533,2.483,1.333,3.15,2.4
		c-17.733,13.6-38.833,25.5-63.3,35.7c-14.033,5.867-27.417,10.517-40.15,13.95v-11.85c0-1.333,0.316-2.583,0.95-3.75
		c0.367-0.667,0.983-1.517,1.85-2.55c6.7-0.3,13.117-1.183,19.25-2.65c7.767-1.867,15.85-4.85,24.25-8.95
		c11.434-5.566,23.733-15.633,36.9-30.2c2.267,0.1,4.534,1.316,6.8,3.65c1.733,1.7,3.65,2.833,5.75,3.4
		C142.483,23.352,143.35,23.469,144.05,23.402z"/>
</g>
<g id="Layer_21">
	<path fill-rule="evenodd" clip-rule="evenodd" fill="#B8B7B7" d="M65.7,9.552c1.2-1.9,1.967-3.017,2.3-3.35
		c0.9-0.9,3.017-1.45,6.35-1.65c3.667-0.233,6.233,0.383,7.7,1.85c0.966,1,1.833,1.633,2.6,1.9c0.467,0.167,1.267,0.333,2.4,0.5
		c-6.233,7.367-13.2,12.55-20.9,15.55c-5.066,1.966-10.083,2.9-15.05,2.8c1.767-1.567,5.133-3.3,10.1-5.2
		c-0.367-0.767-0.6-1.667-0.7-2.7c-0.2-2.067,0.35-3.75,1.65-5.05C63.35,13.002,64.534,11.452,65.7,9.552z"/>
</g>
<g id="Layer_20">
	<path fill-rule="evenodd" clip-rule="evenodd" fill="#686767" d="M95.75,12.452c0.867,0.034,1.3-0.683,1.3-2.15
		c0-1.533,0.983-2.517,2.95-2.95c1.2-0.3,3.617-0.45,7.25-0.45c2.467,0,4.117,0.367,4.95,1.1c0.533,0.433,1.217,1.283,2.05,2.55
		c0.767,0.767,1.434,1.833,2,3.2c-6.3,9-18.6,17.6-36.9,25.8c-10.767,4.833-22.316,9.034-34.65,12.6c-1.1-1.1-1.65-3.1-1.65-6
		c0-3.067,0.066-4.883,0.2-5.45c16.733-1.833,30.5-7.083,41.3-15.75C89.95,20.585,93.684,16.418,95.75,12.452z"/>
</g>
<g id="Layer_19">
	<path fill-rule="evenodd" clip-rule="evenodd" fill="#858484" d="M87.05,8.802c1.133,0.333,2.367,0.833,3.7,1.5
		c2.633,1.4,4.3,2.117,5,2.15c-2.066,3.967-5.8,8.133-11.2,12.5c-10.8,8.667-24.567,13.917-41.3,15.75
		c0.133-0.5,0.434-0.917,0.9-1.25c0.867-0.533,1.55-1.05,2.05-1.55c1.333-1.333,2.367-2.95,3.1-4.85c0.6-1.566,0.9-3.05,0.9-4.45
		c0-0.434,0.3-0.917,0.9-1.45c4.967,0.1,9.983-0.833,15.05-2.8C73.85,21.352,80.817,16.168,87.05,8.802z"/>
</g>
<g id="Layer_18">
	<path fill-rule="evenodd" clip-rule="evenodd" fill="#504F4F" d="M116.25,13.752l0.45,1.65l-0.05,3.05c0.167,2,0.75,3,1.75,3
		c1.934,0,4.267-1.367,7-4.1c0.967-0.934,2.134-1.383,3.5-1.35c-13.167,14.566-25.466,24.633-36.9,30.2
		c-8.4,4.1-16.483,7.083-24.25,8.95c-6.133,1.467-12.55,2.35-19.25,2.65c0.667-0.767,1.067-1.316,1.2-1.65
		c0.233-0.533,0.117-1.033-0.35-1.5c-0.433-0.433-1.2-0.85-2.3-1.25c-1.1-0.367-1.883-0.783-2.35-1.25
		c12.333-3.566,23.883-7.767,34.65-12.6C97.65,31.352,109.95,22.752,116.25,13.752z"/>
</g>
<g id="Layer_17">
	<path fill-rule="evenodd" clip-rule="evenodd" fill="#686767" d="M148.85,26.302c0.5,0.9,0.75,1.867,0.75,2.9
		c0,2,1.217,4.4,3.65,7.2c2.4,2.833,3.6,4.633,3.6,5.4c-0.333,0.233-7.783,3.767-22.35,10.6c-13.6,6.333-21.383,10.8-23.35,13.4
		c-0.633,0.034-1.133,0.267-1.5,0.7c-0.466,0.6-1.366,1.083-2.7,1.45c-1.167,0.333-1.883,1.267-2.15,2.8
		c-0.2,1.367-1.017,2.05-2.45,2.05c-1.433,0-3.133,0.7-5.1,2.1c-1.933,1.367-3.383,2.05-4.35,2.05c-1.7,0-6.167,0.117-13.4,0.35
		s-9.716,0.35-7.45,0.35c0.367,0-0.383,0.75-2.25,2.25c-1.9,2.167-2.583,4.567-2.05,7.2l1.25,2.9c0.467,2.233-0.133,4.183-1.8,5.85
		c-1.533,1.533-3.2,2.017-5,1.45c-1.833-0.6-3.2-2.133-4.1-4.6c-0.533-1.566-1.717-2.767-3.55-3.6c-1.567-0.7-2.35-1.6-2.35-2.7
		c0-1.4-1.133-3.517-3.4-6.35l-3.4-3.85v-0.25c12.733-3.433,26.117-8.083,40.15-13.95C110.017,51.802,131.117,39.902,148.85,26.302z
		"/>
</g>
<g id="_x3C_Path_x3E__x5F_13">
	
		<use xlink:href="#winnie__x26__andy__x26__mrs_chan.ai_Assets_x2F_Layer_1_x2F__x3C_Path_x3E__x5F_13"  width="130.081" height="73.15" x="-0.022" y="-73.2" transform="matrix(1 0 0 -1 56.6499 5.002)" overflow="visible" opacity="0.6094" enable-background="new    "/>
</g>
<g id="Layer_15">
	<g id="Layer_25">
		<g>
			<path fill-rule="evenodd" clip-rule="evenodd" fill="#394B34" d="M161.5,135.302c1.067,1.2,1.7,1.85,1.9,1.95
				c0.3,0.133,1.517,0.267,3.65,0.4c-2,0.7-3.35,0.967-4.05,0.8c-0.933-0.2-1.533-1.15-1.8-2.85c-0.467,0.333-0.55,1.117-0.25,2.35
				c0.367,1.534,0.5,2.583,0.4,3.15c-0.7-0.367-1.117-0.6-1.25-0.7c-0.367-0.333-0.467-0.816-0.3-1.45
				c-0.367,0.534-0.333,1.233,0.1,2.1c0.534,0.934,0.65,1.784,0.35,2.55c1.5,0.066,2.55,0.25,3.15,0.55
				c-0.767,1.333-1.783,2.017-3.05,2.05c-0.033,0.7,0.217,1.367,0.75,2c0.733,0.9,1.15,1.45,1.25,1.65c0,0.033-0.233-0.217-0.7-0.75
				c-0.633-0.667-0.883-0.367-0.75,0.9c-1.3,0.033-2.233-0.333-2.8-1.1c-0.267-0.066-0.383,0.167-0.35,0.7
				c0.034,0.533-0.083,0.767-0.35,0.7c0.1,0.667,0.7,1.1,1.8,1.3c0.933,0.167,1.833,0.15,2.7-0.05c-0.5,0.767-1.466,1.034-2.9,0.8
				c-2.066-0.3-3.133-0.45-3.2-0.45c0.066-0.2,0.033-0.417-0.1-0.65s-0.15-0.5-0.05-0.8c-0.533,1.2-0.566,2.733-0.1,4.6
				c0.5,2.067,0.683,3.434,0.55,4.1c0.434-0.233,0.95-0.767,1.55-1.6c0.4,0.767,0.35,1.633-0.15,2.6
				c-0.6,1.133-0.883,1.983-0.85,2.55c0.2-0.466,0.534-0.633,1-0.5c0.467,0.167,0.6,0.55,0.4,1.15c0.367-0.1,0.867-0.284,1.5-0.55
				c0.6-0.233,1.183-0.333,1.75-0.3c0.333,0.467,0.35,0.983,0.05,1.55c-0.267,0.567-0.633,0.883-1.1,0.95
				c0.067,0.233,0.434,0.5,1.1,0.8c0.567,0.233,0.817,0.6,0.75,1.1c-0.833,0.434-1.717,0.55-2.65,0.35c-0.033,0.3,0,0.816,0.1,1.55
				c0.066,0.6,0.05,1.15-0.05,1.65c-1.233-0.133-2.066-0.683-2.5-1.65c-0.167,0.133-0.5,0.517-1,1.15c-0.4,0.5-0.8,0.817-1.2,0.95
				c-0.4-0.2-0.383-0.583,0.05-1.15c0.5-0.667,0.567-1.233,0.2-1.7c-0.4,0.034-0.75,0.3-1.05,0.8c-0.367,0.6-0.65,0.95-0.85,1.05
				c0-0.1,0.567-1.233,1.7-3.4c0.967-1.934,1.2-3.333,0.7-4.2c-0.167,0.133-0.483,0.25-0.95,0.35
				c-0.433,0.067-0.717,0.184-0.85,0.35c-0.667-0.733-1.2-1.25-1.6-1.55c0.1-0.2,0.333-0.15,0.7,0.15
				c0.467,0.333,0.883,0.433,1.25,0.3c-0.533-0.5-0.867-0.883-1-1.15c-0.3-0.5-0.367-1.117-0.2-1.85
				c-0.066-0.033-0.667,0.25-1.8,0.85c-1.033,0.533-1.8,0.617-2.3,0.25c0.033-1.333,0.5-2.45,1.4-3.35c-0.9-0.333-1.567-0.6-2-0.8
				c-0.833-0.333-1.25-0.833-1.25-1.5c0.233-0.034,0.65-0.184,1.25-0.45c0.467-0.2,0.933-0.267,1.4-0.2
				c0-0.333-0.217-0.816-0.65-1.45c-0.367-0.533-0.45-1.133-0.25-1.8c0.667-0.3,1.4-0.216,2.2,0.25l1.75,1.25
				c0.034-0.533,0.284-1.083,0.75-1.65c0.609-0.774,1-1.283,1.175-1.525c-0.328,0.425-0.937,0.683-1.825,0.775
				c-0.9,0.1-1.683-0.033-2.35-0.4l-1-1l1.35,0.25c0.434,0.167,1.434,0.317,3,0.45c-0.033-0.2-0.267-0.4-0.7-0.6
				c-0.4-0.167-0.617-0.383-0.65-0.65c0.4-1.167,1.15-2.083,2.25-2.75c-0.333-0.633-0.583-1.117-0.75-1.45
				c-0.3-0.6-0.433-1.2-0.4-1.8c0.534,0.033,1.05,0.167,1.55,0.4c0.3,0.133,0.716,0.367,1.25,0.7c0.5-0.6,0.966-1.483,1.4-2.65
				c0.467-1.333,0.816-2.316,1.05-2.95c-0.9,0.367-1.917,1.033-3.05,2c-1.167,1-2.117,2-2.85,3c0.2-0.9,0.95-1.934,2.25-3.1
				c1.075-0.947,1.875-1.655,2.4-2.125c-2.287,1.85-3.204,0.325-2.75-4.575c0.833,1.9,1.35,2.934,1.55,3.1
				c0.667,0.567,1.783,0.317,3.35-0.75c-0.033-0.1,0.083-0.583,0.35-1.45c0.267-0.833,0.383-1.316,0.35-1.45l1.65-3.45
				c0.867-1.6,0.717-0.716-0.45,2.65C161.784,133.085,161.767,134.535,161.5,135.302z M154.65,160.402
				c-0.066,0.6,0.15,1.033,0.65,1.3c0.433-0.6,0.65-1.183,0.65-1.75c0-0.633-0.317-1.116-0.95-1.45
				C154.967,159.002,154.85,159.635,154.65,160.402z M157.5,136.877c0.402-0.355,0.644-0.572,0.725-0.65
				C158.144,136.305,157.902,136.521,157.5,136.877z"/>
			
				<path fill-rule="evenodd" clip-rule="evenodd" fill="none" stroke="#73C6AC" stroke-linecap="round" stroke-linejoin="round" stroke-miterlimit="3" d="
				M161.5,135.302c1.067,1.2,1.7,1.85,1.9,1.95c0.3,0.133,1.517,0.267,3.65,0.4c-2,0.7-3.35,0.967-4.05,0.8
				c-0.933-0.2-1.533-1.15-1.8-2.85c-0.467,0.333-0.55,1.117-0.25,2.35c0.367,1.534,0.5,2.583,0.4,3.15
				c-0.7-0.367-1.117-0.6-1.25-0.7c-0.367-0.333-0.467-0.816-0.3-1.45c-0.367,0.534-0.333,1.233,0.1,2.1
				c0.534,0.934,0.65,1.784,0.35,2.55c1.5,0.066,2.55,0.25,3.15,0.55c-0.767,1.333-1.783,2.017-3.05,2.05
				c-0.033,0.7,0.217,1.367,0.75,2c0.733,0.9,1.15,1.45,1.25,1.65c0,0.033-0.233-0.217-0.7-0.75c-0.633-0.667-0.883-0.367-0.75,0.9
				c-1.3,0.033-2.233-0.333-2.8-1.1c-0.267-0.066-0.383,0.167-0.35,0.7c0.034,0.533-0.083,0.767-0.35,0.7c0.1,0.667,0.7,1.1,1.8,1.3
				c0.933,0.167,1.833,0.15,2.7-0.05c-0.5,0.767-1.466,1.034-2.9,0.8c-2.066-0.3-3.133-0.45-3.2-0.45
				c0.066-0.2,0.033-0.417-0.1-0.65s-0.15-0.5-0.05-0.8c-0.533,1.2-0.566,2.733-0.1,4.6c0.5,2.067,0.683,3.434,0.55,4.1
				c0.434-0.233,0.95-0.767,1.55-1.6c0.4,0.767,0.35,1.633-0.15,2.6c-0.6,1.133-0.883,1.983-0.85,2.55c0.2-0.466,0.534-0.633,1-0.5
				c0.467,0.167,0.6,0.55,0.4,1.15c0.367-0.1,0.867-0.284,1.5-0.55c0.6-0.233,1.183-0.333,1.75-0.3
				c0.333,0.467,0.35,0.983,0.05,1.55c-0.267,0.567-0.633,0.883-1.1,0.95c0.067,0.233,0.434,0.5,1.1,0.8
				c0.567,0.233,0.817,0.6,0.75,1.1c-0.833,0.434-1.717,0.55-2.65,0.35c-0.033,0.3,0,0.816,0.1,1.55c0.066,0.6,0.05,1.15-0.05,1.65
				c-1.233-0.133-2.066-0.683-2.5-1.65c-0.167,0.133-0.5,0.517-1,1.15c-0.4,0.5-0.8,0.817-1.2,0.95c-0.4-0.2-0.383-0.583,0.05-1.15
				c0.5-0.667,0.567-1.233,0.2-1.7c-0.4,0.034-0.75,0.3-1.05,0.8c-0.367,0.6-0.65,0.95-0.85,1.05c0-0.1,0.567-1.233,1.7-3.4
				c0.967-1.934,1.2-3.333,0.7-4.2c-0.167,0.133-0.483,0.25-0.95,0.35c-0.433,0.067-0.717,0.184-0.85,0.35
				c-0.667-0.733-1.2-1.25-1.6-1.55c0.1-0.2,0.333-0.15,0.7,0.15c0.467,0.333,0.883,0.433,1.25,0.3c-0.533-0.5-0.867-0.883-1-1.15
				c-0.3-0.5-0.367-1.117-0.2-1.85c-0.066-0.033-0.667,0.25-1.8,0.85c-1.033,0.533-1.8,0.617-2.3,0.25
				c0.033-1.333,0.5-2.45,1.4-3.35c-0.9-0.333-1.567-0.6-2-0.8c-0.833-0.333-1.25-0.833-1.25-1.5c0.233-0.034,0.65-0.184,1.25-0.45
				c0.467-0.2,0.933-0.267,1.4-0.2c0-0.333-0.217-0.816-0.65-1.45c-0.367-0.533-0.45-1.133-0.25-1.8c0.667-0.3,1.4-0.216,2.2,0.25
				l1.75,1.25c0.034-0.533,0.284-1.083,0.75-1.65c0.609-0.774,1-1.283,1.175-1.525c-0.328,0.425-0.937,0.683-1.825,0.775
				c-0.9,0.1-1.683-0.033-2.35-0.4l-1-1l1.35,0.25c0.434,0.167,1.434,0.317,3,0.45c-0.033-0.2-0.267-0.4-0.7-0.6
				c-0.4-0.167-0.617-0.383-0.65-0.65c0.4-1.167,1.15-2.083,2.25-2.75c-0.333-0.633-0.583-1.117-0.75-1.45
				c-0.3-0.6-0.433-1.2-0.4-1.8c0.534,0.033,1.05,0.167,1.55,0.4c0.3,0.133,0.716,0.367,1.25,0.7c0.5-0.6,0.966-1.483,1.4-2.65
				c0.467-1.333,0.816-2.316,1.05-2.95c-0.9,0.367-1.917,1.033-3.05,2c-1.167,1-2.117,2-2.85,3c0.2-0.9,0.95-1.934,2.25-3.1
				c1.075-0.947,1.875-1.655,2.4-2.125c-2.287,1.85-3.204,0.325-2.75-4.575c0.833,1.9,1.35,2.934,1.55,3.1
				c0.667,0.567,1.783,0.317,3.35-0.75c-0.033-0.1,0.083-0.583,0.35-1.45c0.267-0.833,0.383-1.316,0.35-1.45l1.65-3.45
				c0.867-1.6,0.717-0.716-0.45,2.65C161.784,133.085,161.767,134.535,161.5,135.302z M154.65,160.402
				c-0.066,0.6,0.15,1.033,0.65,1.3c0.433-0.6,0.65-1.183,0.65-1.75c0-0.633-0.317-1.116-0.95-1.45
				C154.967,159.002,154.85,159.635,154.65,160.402z M157.5,136.877c0.402-0.355,0.644-0.572,0.725-0.65"/>
		</g>
		<g>
			<path fill-rule="evenodd" clip-rule="evenodd" fill="#394B34" d="M133.95,164.152c0.533,0.233,1.017,0.583,1.45,1.05
				c0.267,0.3,0.617,0.733,1.05,1.3c0.967-0.7,2.1-1.033,3.4-1c0.267,0.133,0.4,0.417,0.4,0.85c0,0.466,0.067,0.767,0.2,0.9
				c0.467-1.167,0.733-2.05,0.8-2.65v-1.65l0.85,1.65c0,0.733-0.217,1.466-0.65,2.2c-0.442,0.694-0.917,1.086-1.425,1.175
				c0.317-0.045,0.958-0.203,1.925-0.475c0.7-0.2,1.3-0.217,1.8-0.05c-0.267-0.866-0.417-1.566-0.45-2.1
				c-0.1-0.9,0.117-1.6,0.65-2.1c0.667,0.1,1.183,0.417,1.55,0.95c0.467,0.634,0.833,1.017,1.1,1.15c0.1-0.467,0.35-0.867,0.75-1.2
				c0.5-0.433,0.8-0.75,0.9-0.95c0.633,0.267,0.917,0.833,0.85,1.7c-0.033,1.4-0.05,2.133-0.05,2.2
				c1.133-0.434,2.35-0.417,3.65,0.05c0.133,0.6-0.25,1.267-1.15,2c-1,0.8-1.5,1.25-1.5,1.35c0.733,0.133,1.267,0.433,1.6,0.9
				c0.2,0.233,0.417,0.7,0.65,1.4c0.267-0.3,0.333-0.733,0.2-1.3c-0.1-0.467-0.05-0.7,0.15-0.7c0.167,0.567,0.45,1.267,0.85,2.1
				c-0.2,0.067-0.433,0.283-0.7,0.65c-0.3,0.367-0.534,0.6-0.7,0.7c0.567,0.8,1.934,1.133,4.1,1c2.467-0.167,3.75-0.217,3.85-0.15
				c-0.2,0.133-0.65,0.25-1.35,0.35c-0.567,0.067-0.95,0.284-1.15,0.65c0.3,0.533,0.867,0.7,1.7,0.5c0.7-0.167,1.05-0.034,1.05,0.4
				c-0.3,0.333-0.75,0.583-1.35,0.75c-0.8,0.2-1.3,0.35-1.5,0.45c0.7,0.7,0.883,1.667,0.55,2.9c-0.5-0.101-1-0.3-1.5-0.601
				c-0.6-0.366-1.066-0.6-1.4-0.699c-0.2,0.899-0.667,1.666-1.4,2.3c-0.434-0.134-0.667-0.517-0.7-1.15
				c-0.033-0.733-0.133-1.183-0.3-1.35c-0.267,0.399-0.7,0.634-1.3,0.7c-0.633,0.033-1.1-0.2-1.4-0.7
				c0.2-0.534,0.517-1.034,0.95-1.5c0.267-0.233,0.65-0.6,1.15-1.1c-0.667-0.067-0.967-0.35-0.9-0.85c0.066-0.5,0.333-0.733,0.8-0.7
				c-0.5-0.267-1.4-0.35-2.7-0.25c-1.034,0.067-1.833-0.233-2.4-0.9c0.1-0.033,0.467-0.133,1.1-0.3c0.467-0.133,0.8-0.3,1-0.5
				c-0.667-0.133-1.85-0.85-3.55-2.15c-1.533-1.167-2.95-1.733-4.25-1.7c0.3,0,0.533,0.1,0.7,0.3c0.167,0.233,0.35,0.367,0.55,0.4
				c0,0.033-0.283,1.066-0.85,3.1c-0.333,1.4-0.967,2.184-1.9,2.35c0.566-0.667,0.95-1.483,1.15-2.45
				c0.233-1.067,0.067-1.784-0.5-2.15c-0.033,0.267-0.283,0.284-0.75,0.05c-0.467-0.267-0.733-0.267-0.8,0
				c0.466,0.867,0.433,1.867-0.1,3c-1.1-0.633-1.467-0.517-1.1,0.35l0.35,0.95c-0.1-0.133-0.417-0.733-0.95-1.8
				c-0.4-0.733-0.917-1.233-1.55-1.5c-0.567,1.167-1.6,1.833-3.1,2c-0.066-0.6,0.167-1.633,0.7-3.1c-0.8-0.033-1.534-0.483-2.2-1.35
				c-0.6-0.767-1.217-1.083-1.85-0.95c0.633,0.1,1.034,0.383,1.2,0.85c0.066,0.167,0.117,0.65,0.15,1.45
				c-0.6-0.1-1.517-0.633-2.75-1.6c-1-0.767-1.75-1.017-2.25-0.75c1.6,1.034,2.483,1.983,2.65,2.85c0.2,0.934-0.35,2.1-1.65,3.5
				c0.633-1.7,0.75-2.9,0.35-3.6c-0.7-0.767-1.283-1.617-1.75-2.55c-0.434-0.434-0.867-0.783-1.3-1.05
				c-1.833,0-2.316-0.133-1.45-0.4c0.433-0.167,1.05-0.316,1.85-0.45c0.133,0.1,0.316,0.083,0.55-0.05
				c0.267-0.1,0.45-0.117,0.55-0.05c1.7-1.1,2.667-2.367,2.9-3.8c0.167-1.3-0.284-2.533-1.35-3.7c2.433,0.8,3.617,1.967,3.55,3.5
				c-0.066,1.4-1.117,2.517-3.15,3.35c0.2-0.067,1.483-0.65,3.85-1.75c1.566-0.733,2.8-1.017,3.7-0.85
				c-1.233,0.267-2.533,0.733-3.9,1.4c-1.367,0.7-2.383,1.383-3.05,2.05c0.7,0.034,1.767,0.1,3.2,0.2c1.2,0.033,2.167-0.05,2.9-0.25
				c-0.067-0.6-0.117-1.066-0.15-1.4C133.65,165.185,133.75,164.652,133.95,164.152z M149.8,173.702c0.466,0.2,1.083,0.233,1.85,0.1
				c-0.033-0.566-0.35-0.95-0.95-1.15c-0.767-0.133-1.383-0.283-1.85-0.45C148.883,172.935,149.2,173.435,149.8,173.702z"/>
			
				<path fill-rule="evenodd" clip-rule="evenodd" fill="none" stroke="#73C6AC" stroke-linecap="round" stroke-linejoin="round" stroke-miterlimit="3" d="
				M133.95,164.152c0.533,0.233,1.017,0.583,1.45,1.05c0.267,0.3,0.617,0.733,1.05,1.3c0.967-0.7,2.1-1.033,3.4-1
				c0.267,0.133,0.4,0.417,0.4,0.85c0,0.466,0.067,0.767,0.2,0.9c0.467-1.167,0.733-2.05,0.8-2.65v-1.65l0.85,1.65
				c0,0.733-0.217,1.466-0.65,2.2c-0.442,0.694-0.917,1.086-1.425,1.175c0.317-0.045,0.958-0.203,1.925-0.475
				c0.7-0.2,1.3-0.217,1.8-0.05c-0.267-0.866-0.417-1.566-0.45-2.1c-0.1-0.9,0.117-1.6,0.65-2.1c0.667,0.1,1.183,0.417,1.55,0.95
				c0.467,0.634,0.833,1.017,1.1,1.15c0.1-0.467,0.35-0.867,0.75-1.2c0.5-0.433,0.8-0.75,0.9-0.95c0.633,0.267,0.917,0.833,0.85,1.7
				c-0.033,1.4-0.05,2.133-0.05,2.2c1.133-0.434,2.35-0.417,3.65,0.05c0.133,0.6-0.25,1.267-1.15,2c-1,0.8-1.5,1.25-1.5,1.35
				c0.733,0.133,1.267,0.433,1.6,0.9c0.2,0.233,0.417,0.7,0.65,1.4c0.267-0.3,0.333-0.733,0.2-1.3c-0.1-0.467-0.05-0.7,0.15-0.7
				c0.167,0.567,0.45,1.267,0.85,2.1c-0.2,0.067-0.433,0.283-0.7,0.65c-0.3,0.367-0.534,0.6-0.7,0.7c0.567,0.8,1.934,1.133,4.1,1
				c2.467-0.167,3.75-0.217,3.85-0.15c-0.2,0.133-0.65,0.25-1.35,0.35c-0.567,0.067-0.95,0.284-1.15,0.65
				c0.3,0.533,0.867,0.7,1.7,0.5c0.7-0.167,1.05-0.034,1.05,0.4c-0.3,0.333-0.75,0.583-1.35,0.75c-0.8,0.2-1.3,0.35-1.5,0.45
				c0.7,0.7,0.883,1.667,0.55,2.9c-0.5-0.101-1-0.3-1.5-0.601c-0.6-0.366-1.066-0.6-1.4-0.699c-0.2,0.899-0.667,1.666-1.4,2.3
				c-0.434-0.134-0.667-0.517-0.7-1.15c-0.033-0.733-0.133-1.183-0.3-1.35c-0.267,0.399-0.7,0.634-1.3,0.7
				c-0.633,0.033-1.1-0.2-1.4-0.7c0.2-0.534,0.517-1.034,0.95-1.5c0.267-0.233,0.65-0.6,1.15-1.1c-0.667-0.067-0.967-0.35-0.9-0.85
				c0.066-0.5,0.333-0.733,0.8-0.7c-0.5-0.267-1.4-0.35-2.7-0.25c-1.034,0.067-1.833-0.233-2.4-0.9c0.1-0.033,0.467-0.133,1.1-0.3
				c0.467-0.133,0.8-0.3,1-0.5c-0.667-0.133-1.85-0.85-3.55-2.15c-1.533-1.167-2.95-1.733-4.25-1.7c0.3,0,0.533,0.1,0.7,0.3
				c0.167,0.233,0.35,0.367,0.55,0.4c0,0.033-0.283,1.066-0.85,3.1c-0.333,1.4-0.967,2.184-1.9,2.35
				c0.566-0.667,0.95-1.483,1.15-2.45c0.233-1.067,0.067-1.784-0.5-2.15c-0.033,0.267-0.283,0.284-0.75,0.05
				c-0.467-0.267-0.733-0.267-0.8,0c0.466,0.867,0.433,1.867-0.1,3c-1.1-0.633-1.467-0.517-1.1,0.35l0.35,0.95
				c-0.1-0.133-0.417-0.733-0.95-1.8c-0.4-0.733-0.917-1.233-1.55-1.5c-0.567,1.167-1.6,1.833-3.1,2c-0.066-0.6,0.167-1.633,0.7-3.1
				c-0.8-0.033-1.534-0.483-2.2-1.35c-0.6-0.767-1.217-1.083-1.85-0.95c0.633,0.1,1.034,0.383,1.2,0.85
				c0.066,0.167,0.117,0.65,0.15,1.45c-0.6-0.1-1.517-0.633-2.75-1.6c-1-0.767-1.75-1.017-2.25-0.75
				c1.6,1.034,2.483,1.983,2.65,2.85c0.2,0.934-0.35,2.1-1.65,3.5c0.633-1.7,0.75-2.9,0.35-3.6c-0.7-0.767-1.283-1.617-1.75-2.55
				c-0.434-0.434-0.867-0.783-1.3-1.05c-1.833,0-2.316-0.133-1.45-0.4c0.433-0.167,1.05-0.316,1.85-0.45
				c0.133,0.1,0.316,0.083,0.55-0.05c0.267-0.1,0.45-0.117,0.55-0.05c1.7-1.1,2.667-2.367,2.9-3.8c0.167-1.3-0.284-2.533-1.35-3.7
				c2.433,0.8,3.617,1.967,3.55,3.5c-0.066,1.4-1.117,2.517-3.15,3.35c0.2-0.067,1.483-0.65,3.85-1.75
				c1.566-0.733,2.8-1.017,3.7-0.85c-1.233,0.267-2.533,0.733-3.9,1.4c-1.367,0.7-2.383,1.383-3.05,2.05
				c0.7,0.034,1.767,0.1,3.2,0.2c1.2,0.033,2.167-0.05,2.9-0.25c-0.067-0.6-0.117-1.066-0.15-1.4
				C133.65,165.185,133.75,164.652,133.95,164.152z M149.8,173.702c0.466,0.2,1.083,0.233,1.85,0.1
				c-0.033-0.566-0.35-0.95-0.95-1.15c-0.767-0.133-1.383-0.283-1.85-0.45C148.883,172.935,149.2,173.435,149.8,173.702z"/>
		</g>
		<g>
			<path fill-rule="evenodd" clip-rule="evenodd" fill="#394B34" d="M73.7,135.402c0.2-0.2,0.683-1.25,1.45-3.15
				c0.333,2.7,0.233,4.4-0.3,5.1c-0.48,0.564-1.296,0.39-2.45-0.525c0.535,0.454,1.385,1.179,2.55,2.175
				c1.333,1.133,2.1,2.15,2.3,3.05c-0.7-1-1.667-1.983-2.9-2.95c-1.167-0.967-2.2-1.617-3.1-1.95c0.3,0.633,0.684,1.617,1.15,2.95
				c0.467,1.167,0.95,2.033,1.45,2.6c0.3-0.167,0.717-0.417,1.25-0.75c0.467-0.267,0.983-0.417,1.55-0.45
				c0.034,0.6-0.083,1.217-0.35,1.85c-0.167,0.333-0.417,0.833-0.75,1.5c1.033,0.533,1.8,1.417,2.3,2.65c0,0.267-0.2,0.483-0.6,0.65
				c-0.433,0.2-0.667,0.417-0.7,0.65c1.466-0.133,2.466-0.316,3-0.55l1.3-0.3l-0.95,1.05c-0.667,0.4-1.45,0.566-2.35,0.5
				c-0.934-0.1-1.567-0.4-1.9-0.9c0.1,0.167,0.534,0.7,1.3,1.6c0.5,0.567,0.767,1.117,0.8,1.65c0.9-0.767,1.467-1.2,1.7-1.3
				c0.767-0.466,1.5-0.566,2.2-0.3c0.2,0.667,0.134,1.267-0.2,1.8c-0.434,0.7-0.65,1.2-0.65,1.5c0.466-0.1,0.95-0.05,1.45,0.15
				c0.633,0.267,1.05,0.417,1.25,0.45c0,0.667-0.4,1.167-1.2,1.5l-2.05,0.85c0.9,0.833,1.417,1.933,1.55,3.3
				c-0.5,0.367-1.284,0.3-2.35-0.2c-1.133-0.567-1.75-0.833-1.85-0.8c0.167,0.733,0.117,1.35-0.15,1.85
				c-0.1,0.233-0.417,0.633-0.95,1.2c0.367,0.1,0.784-0.034,1.25-0.4c0.367-0.267,0.6-0.3,0.7-0.1c-0.4,0.3-0.917,0.833-1.55,1.6
				c-0.167-0.167-0.466-0.283-0.9-0.35c-0.466-0.1-0.767-0.217-0.9-0.35c-0.5,0.867-0.233,2.25,0.8,4.15
				c1.134,2.133,1.7,3.267,1.7,3.4c-0.167-0.1-0.433-0.45-0.8-1.05c-0.333-0.467-0.7-0.717-1.1-0.75
				c-0.333,0.5-0.25,1.083,0.25,1.75c0.433,0.533,0.45,0.9,0.05,1.1c-0.4-0.1-0.8-0.4-1.2-0.9c-0.5-0.633-0.85-1.017-1.05-1.15
				c-0.333,0.934-1.15,1.5-2.45,1.7c-0.133-0.5-0.167-1.05-0.1-1.65c0.1-0.667,0.117-1.184,0.05-1.55
				c-0.9,0.233-1.767,0.133-2.6-0.3c-0.066-0.467,0.167-0.833,0.7-1.1c0.667-0.3,1.033-0.566,1.1-0.8
				c-0.5-0.067-0.883-0.367-1.15-0.9c-0.3-0.566-0.3-1.1,0-1.6c0.6-0.034,1.2,0.05,1.8,0.25c0.333,0.1,0.833,0.283,1.5,0.55
				c-0.233-0.6-0.117-0.983,0.35-1.15c0.467-0.133,0.8,0.017,1,0.45c0.033-0.566-0.267-1.417-0.9-2.55
				c-0.5-0.933-0.567-1.783-0.2-2.55c0.133,0.1,0.383,0.367,0.75,0.8c0.3,0.367,0.583,0.617,0.85,0.75
				c-0.167-0.7-0.017-2.083,0.45-4.15c0.4-1.867,0.333-3.383-0.2-4.55c0.1,0.267,0.083,0.517-0.05,0.75
				c-0.133,0.233-0.167,0.467-0.1,0.7c-0.034,0-1.1,0.184-3.2,0.55c-1.367,0.233-2.333-0.033-2.9-0.8c0.867,0.2,1.767,0.2,2.7,0
				c1.1-0.233,1.7-0.683,1.8-1.35c-0.267,0.1-0.383-0.117-0.35-0.65c0-0.533-0.133-0.767-0.4-0.7c-0.533,0.767-1.45,1.15-2.75,1.15
				c0.1-1.267-0.167-1.55-0.8-0.85c-0.466,0.533-0.7,0.783-0.7,0.75c0.066-0.167,0.483-0.717,1.25-1.65
				c0.5-0.667,0.733-1.35,0.7-2.05c-1.267,0-2.3-0.667-3.1-2c0.5-0.267,1.533-0.466,3.1-0.6c-0.3-0.767-0.2-1.633,0.3-2.6
				c0.433-0.867,0.467-1.567,0.1-2.1c0.167,0.633,0.066,1.133-0.3,1.5c-0.133,0.1-0.533,0.333-1.2,0.7
				c-0.133-0.566-0.034-1.616,0.3-3.15c0.233-1.233,0.117-2.017-0.35-2.35c-0.2,1.7-0.767,2.684-1.7,2.95
				c-0.7,0.2-2.067-0.05-4.1-0.75c2.167-0.2,3.383-0.367,3.65-0.5c0.233-0.1,0.85-0.75,1.85-1.95c-0.233-0.7-0.283-2.15-0.15-4.35
				c-1.233-3.367-1.4-4.25-0.5-2.65c0.466,0.8,1.05,1.934,1.75,3.4c-0.034,0.133,0.1,0.617,0.4,1.45c0.3,0.867,0.433,1.35,0.4,1.45
				C71.95,135.785,73.067,136.002,73.7,135.402z M75.55,158.452c-0.633,0.333-0.95,0.833-0.95,1.5c0,0.534,0.233,1.1,0.7,1.7
				c0.5-0.3,0.716-0.733,0.65-1.3C75.717,159.585,75.583,158.952,75.55,158.452z M72.4,136.827c-0.194-0.16-0.403-0.343-0.625-0.55
				C71.997,136.483,72.206,136.667,72.4,136.827z"/>
			
				<path fill-rule="evenodd" clip-rule="evenodd" fill="none" stroke="#73C6AC" stroke-linecap="round" stroke-linejoin="round" stroke-miterlimit="3" d="
				M73.7,135.402c0.2-0.2,0.683-1.25,1.45-3.15c0.333,2.7,0.233,4.4-0.3,5.1c-0.48,0.564-1.296,0.39-2.45-0.525
				c0.535,0.454,1.385,1.179,2.55,2.175c1.333,1.133,2.1,2.15,2.3,3.05c-0.7-1-1.667-1.983-2.9-2.95
				c-1.167-0.967-2.2-1.617-3.1-1.95c0.3,0.633,0.684,1.617,1.15,2.95c0.467,1.167,0.95,2.033,1.45,2.6
				c0.3-0.167,0.717-0.417,1.25-0.75c0.467-0.267,0.983-0.417,1.55-0.45c0.034,0.6-0.083,1.217-0.35,1.85
				c-0.167,0.333-0.417,0.833-0.75,1.5c1.033,0.533,1.8,1.417,2.3,2.65c0,0.267-0.2,0.483-0.6,0.65c-0.433,0.2-0.667,0.417-0.7,0.65
				c1.466-0.133,2.466-0.316,3-0.55l1.3-0.3l-0.95,1.05c-0.667,0.4-1.45,0.566-2.35,0.5c-0.934-0.1-1.567-0.4-1.9-0.9
				c0.1,0.167,0.534,0.7,1.3,1.6c0.5,0.567,0.767,1.117,0.8,1.65c0.9-0.767,1.467-1.2,1.7-1.3c0.767-0.466,1.5-0.566,2.2-0.3
				c0.2,0.667,0.134,1.267-0.2,1.8c-0.434,0.7-0.65,1.2-0.65,1.5c0.466-0.1,0.95-0.05,1.45,0.15c0.633,0.267,1.05,0.417,1.25,0.45
				c0,0.667-0.4,1.167-1.2,1.5l-2.05,0.85c0.9,0.833,1.417,1.933,1.55,3.3c-0.5,0.367-1.284,0.3-2.35-0.2
				c-1.133-0.567-1.75-0.833-1.85-0.8c0.167,0.733,0.117,1.35-0.15,1.85c-0.1,0.233-0.417,0.633-0.95,1.2
				c0.367,0.1,0.784-0.034,1.25-0.4c0.367-0.267,0.6-0.3,0.7-0.1c-0.4,0.3-0.917,0.833-1.55,1.6c-0.167-0.167-0.466-0.283-0.9-0.35
				c-0.466-0.1-0.767-0.217-0.9-0.35c-0.5,0.867-0.233,2.25,0.8,4.15c1.134,2.133,1.7,3.267,1.7,3.4c-0.167-0.1-0.433-0.45-0.8-1.05
				c-0.333-0.467-0.7-0.717-1.1-0.75c-0.333,0.5-0.25,1.083,0.25,1.75c0.433,0.533,0.45,0.9,0.05,1.1c-0.4-0.1-0.8-0.4-1.2-0.9
				c-0.5-0.633-0.85-1.017-1.05-1.15c-0.333,0.934-1.15,1.5-2.45,1.7c-0.133-0.5-0.167-1.05-0.1-1.65
				c0.1-0.667,0.117-1.184,0.05-1.55c-0.9,0.233-1.767,0.133-2.6-0.3c-0.066-0.467,0.167-0.833,0.7-1.1
				c0.667-0.3,1.033-0.566,1.1-0.8c-0.5-0.067-0.883-0.367-1.15-0.9c-0.3-0.566-0.3-1.1,0-1.6c0.6-0.034,1.2,0.05,1.8,0.25
				c0.333,0.1,0.833,0.283,1.5,0.55c-0.233-0.6-0.117-0.983,0.35-1.15c0.467-0.133,0.8,0.017,1,0.45
				c0.033-0.566-0.267-1.417-0.9-2.55c-0.5-0.933-0.567-1.783-0.2-2.55c0.133,0.1,0.383,0.367,0.75,0.8
				c0.3,0.367,0.583,0.617,0.85,0.75c-0.167-0.7-0.017-2.083,0.45-4.15c0.4-1.867,0.333-3.383-0.2-4.55
				c0.1,0.267,0.083,0.517-0.05,0.75c-0.133,0.233-0.167,0.467-0.1,0.7c-0.034,0-1.1,0.184-3.2,0.55
				c-1.367,0.233-2.333-0.033-2.9-0.8c0.867,0.2,1.767,0.2,2.7,0c1.1-0.233,1.7-0.683,1.8-1.35c-0.267,0.1-0.383-0.117-0.35-0.65
				c0-0.533-0.133-0.767-0.4-0.7c-0.533,0.767-1.45,1.15-2.75,1.15c0.1-1.267-0.167-1.55-0.8-0.85c-0.466,0.533-0.7,0.783-0.7,0.75
				c0.066-0.167,0.483-0.717,1.25-1.65c0.5-0.667,0.733-1.35,0.7-2.05c-1.267,0-2.3-0.667-3.1-2c0.5-0.267,1.533-0.466,3.1-0.6
				c-0.3-0.767-0.2-1.633,0.3-2.6c0.433-0.867,0.467-1.567,0.1-2.1c0.167,0.633,0.066,1.133-0.3,1.5c-0.133,0.1-0.533,0.333-1.2,0.7
				c-0.133-0.566-0.034-1.616,0.3-3.15c0.233-1.233,0.117-2.017-0.35-2.35c-0.2,1.7-0.767,2.684-1.7,2.95
				c-0.7,0.2-2.067-0.05-4.1-0.75c2.167-0.2,3.383-0.367,3.65-0.5c0.233-0.1,0.85-0.75,1.85-1.95c-0.233-0.7-0.283-2.15-0.15-4.35
				c-1.233-3.367-1.4-4.25-0.5-2.65c0.466,0.8,1.05,1.934,1.75,3.4c-0.034,0.133,0.1,0.617,0.4,1.45c0.3,0.867,0.433,1.35,0.4,1.45
				C71.95,135.785,73.067,136.002,73.7,135.402z M75.55,158.452c-0.633,0.333-0.95,0.833-0.95,1.5c0,0.534,0.233,1.1,0.7,1.7
				c0.5-0.3,0.716-0.733,0.65-1.3C75.717,159.585,75.583,158.952,75.55,158.452z M72.4,136.827c-0.194-0.16-0.403-0.343-0.625-0.55"
				/>
		</g>
		<g>
			<path fill-rule="evenodd" clip-rule="evenodd" fill="#394B34" d="M89.45,164.252c0.066,0.533,0.333,1.4,0.8,2.6
				c0.167-0.133,0.25-0.434,0.25-0.9c0-0.433,0.117-0.716,0.35-0.85c1.267-0.1,2.4,0.216,3.4,0.95c0.233-0.3,0.567-0.75,1-1.35
				c0.434-0.5,0.934-0.866,1.5-1.1c0.2,0.5,0.3,1.033,0.3,1.6c-0.034,0.333-0.083,0.8-0.15,1.4c0.733,0.2,1.717,0.25,2.95,0.15
				c0.7-0.033,1.75-0.117,3.15-0.25c-0.667-0.667-1.683-1.317-3.05-1.95c-1.4-0.633-2.717-1.066-3.95-1.3
				c0.9-0.233,2.15,0.017,3.75,0.75c2.434,1.066,3.717,1.617,3.85,1.65c-2.033-0.767-3.1-1.867-3.2-3.3
				c-0.1-1.5,1.05-2.684,3.45-3.55c-1.033,1.2-1.45,2.45-1.25,3.75c0.233,1.434,1.233,2.667,3,3.7c0.067-0.067,0.233-0.05,0.5,0.05
				s0.467,0.1,0.6,0l1.85,0.4c0.867,0.3,0.367,0.467-1.5,0.5c-0.4,0.233-0.817,0.583-1.25,1.05c-0.4,0.933-0.95,1.8-1.65,2.6
				c-0.366,0.7-0.216,1.9,0.45,3.6c-1.333-1.366-1.917-2.517-1.75-3.45c0.133-0.867,0.983-1.833,2.55-2.9
				c-0.5-0.267-1.233-0.017-2.2,0.75c-1.233,0.966-2.133,1.517-2.7,1.65c0-0.767,0.034-1.233,0.1-1.4c0.133-0.5,0.533-0.8,1.2-0.9
				c-0.633-0.133-1.25,0.2-1.85,1c-0.667,0.867-1.4,1.333-2.2,1.4c0.567,1.4,0.833,2.417,0.8,3.05c-1.534-0.1-2.583-0.733-3.15-1.9
				c-0.633,0.267-1.133,0.783-1.5,1.55c-0.533,1.067-0.85,1.667-0.95,1.8c-0.033,0.033,0.083-0.284,0.35-0.95
				c0.333-0.867-0.034-0.967-1.1-0.3c-0.567-1.167-0.633-2.167-0.2-3c-0.033-0.267-0.283-0.267-0.75,0
				c-0.466,0.233-0.733,0.216-0.8-0.05c-0.533,0.4-0.667,1.133-0.4,2.2c0.233,0.9,0.633,1.7,1.2,2.4c-0.9-0.167-1.55-0.933-1.95-2.3
				c-0.6-2-0.917-3.017-0.95-3.05c0.2-0.033,0.383-0.183,0.55-0.45c0.167-0.2,0.4-0.317,0.7-0.35c-1.3,0.033-2.7,0.65-4.2,1.85
				c-1.667,1.333-2.85,2.066-3.55,2.2c0.4,0.333,1.117,0.583,2.15,0.75c-0.533,0.7-1.333,1.017-2.4,0.95
				c-1.3-0.067-2.2,0.033-2.7,0.3c0.5,0,0.784,0.233,0.85,0.7c0.067,0.5-0.233,0.783-0.9,0.85c0.267,0.267,0.667,0.633,1.2,1.1
				c0.433,0.467,0.767,0.967,1,1.5c-0.3,0.5-0.767,0.733-1.4,0.7c-0.6-0.033-1.05-0.25-1.35-0.65
				c-0.167,0.167-0.25,0.617-0.25,1.351c0,0.634-0.233,1.017-0.7,1.149c-0.733-0.566-1.2-1.316-1.4-2.25
				c-0.3,0.101-0.75,0.351-1.35,0.75c-0.533,0.334-1.05,0.551-1.55,0.65c-0.367-1.2-0.2-2.184,0.5-2.95
				c-0.233-0.1-0.733-0.25-1.5-0.45c-0.633-0.133-1.1-0.35-1.4-0.65c0.034-0.434,0.384-0.583,1.05-0.45
				c0.833,0.167,1.383-0.017,1.65-0.55c-0.2-0.367-0.583-0.583-1.15-0.65c-0.7-0.033-1.133-0.116-1.3-0.25
				c0.134-0.066,1.4-0.05,3.8,0.05c2.167,0.1,3.533-0.267,4.1-1.1c-0.167-0.1-0.4-0.333-0.7-0.7c-0.267-0.366-0.5-0.583-0.7-0.65
				c0.4-0.966,0.65-1.667,0.75-2.1c0.2,0,0.267,0.233,0.2,0.7c-0.133,0.567-0.066,1,0.2,1.3c0.267-0.733,0.466-1.2,0.6-1.4
				c0.367-0.466,0.917-0.783,1.65-0.95c-0.034-0.1-0.55-0.534-1.55-1.3c-0.9-0.733-1.3-1.4-1.2-2c1.267-0.5,2.483-0.533,3.65-0.1
				c0-0.033-0.05-0.767-0.15-2.2c-0.067-0.9,0.216-1.483,0.85-1.75c0.1,0.2,0.4,0.517,0.9,0.95c0.4,0.333,0.667,0.733,0.8,1.2
				c0.267-0.133,0.617-0.533,1.05-1.2c0.367-0.566,0.884-0.9,1.55-1c0.566,0.5,0.8,1.2,0.7,2.1c-0.033,0.5-0.167,1.2-0.4,2.1
				c0.5-0.2,1.1-0.2,1.8,0c0.867,0.204,1.458,0.337,1.775,0.4c-0.477-0.128-0.919-0.512-1.325-1.15c-0.433-0.7-0.667-1.417-0.7-2.15
				l0.85-1.65L89.45,164.252z M80.15,172.502c-0.566,0.2-0.866,0.583-0.9,1.15c0.767,0.133,1.383,0.1,1.85-0.1
				c0.6-0.267,0.9-0.767,0.9-1.5C81.1,172.252,80.483,172.402,80.15,172.502z"/>
			
				<path fill-rule="evenodd" clip-rule="evenodd" fill="none" stroke="#73C6AC" stroke-linecap="round" stroke-linejoin="round" stroke-miterlimit="3" d="
				M89.45,164.252c0.066,0.533,0.333,1.4,0.8,2.6c0.167-0.133,0.25-0.434,0.25-0.9c0-0.433,0.117-0.716,0.35-0.85
				c1.267-0.1,2.4,0.216,3.4,0.95c0.233-0.3,0.567-0.75,1-1.35c0.434-0.5,0.934-0.866,1.5-1.1c0.2,0.5,0.3,1.033,0.3,1.6
				c-0.034,0.333-0.083,0.8-0.15,1.4c0.733,0.2,1.717,0.25,2.95,0.15c0.7-0.033,1.75-0.117,3.15-0.25
				c-0.667-0.667-1.683-1.317-3.05-1.95c-1.4-0.633-2.717-1.066-3.95-1.3c0.9-0.233,2.15,0.017,3.75,0.75
				c2.434,1.066,3.717,1.617,3.85,1.65c-2.033-0.767-3.1-1.867-3.2-3.3c-0.1-1.5,1.05-2.684,3.45-3.55
				c-1.033,1.2-1.45,2.45-1.25,3.75c0.233,1.434,1.233,2.667,3,3.7c0.067-0.067,0.233-0.05,0.5,0.05s0.467,0.1,0.6,0l1.85,0.4
				c0.867,0.3,0.367,0.467-1.5,0.5c-0.4,0.233-0.817,0.583-1.25,1.05c-0.4,0.933-0.95,1.8-1.65,2.6c-0.366,0.7-0.216,1.9,0.45,3.6
				c-1.333-1.366-1.917-2.517-1.75-3.45c0.133-0.867,0.983-1.833,2.55-2.9c-0.5-0.267-1.233-0.017-2.2,0.75
				c-1.233,0.966-2.133,1.517-2.7,1.65c0-0.767,0.034-1.233,0.1-1.4c0.133-0.5,0.533-0.8,1.2-0.9c-0.633-0.133-1.25,0.2-1.85,1
				c-0.667,0.867-1.4,1.333-2.2,1.4c0.567,1.4,0.833,2.417,0.8,3.05c-1.534-0.1-2.583-0.733-3.15-1.9
				c-0.633,0.267-1.133,0.783-1.5,1.55c-0.533,1.067-0.85,1.667-0.95,1.8c-0.033,0.033,0.083-0.284,0.35-0.95
				c0.333-0.867-0.034-0.967-1.1-0.3c-0.567-1.167-0.633-2.167-0.2-3c-0.033-0.267-0.283-0.267-0.75,0
				c-0.466,0.233-0.733,0.216-0.8-0.05c-0.533,0.4-0.667,1.133-0.4,2.2c0.233,0.9,0.633,1.7,1.2,2.4c-0.9-0.167-1.55-0.933-1.95-2.3
				c-0.6-2-0.917-3.017-0.95-3.05c0.2-0.033,0.383-0.183,0.55-0.45c0.167-0.2,0.4-0.317,0.7-0.35c-1.3,0.033-2.7,0.65-4.2,1.85
				c-1.667,1.333-2.85,2.066-3.55,2.2c0.4,0.333,1.117,0.583,2.15,0.75c-0.533,0.7-1.333,1.017-2.4,0.95
				c-1.3-0.067-2.2,0.033-2.7,0.3c0.5,0,0.784,0.233,0.85,0.7c0.067,0.5-0.233,0.783-0.9,0.85c0.267,0.267,0.667,0.633,1.2,1.1
				c0.433,0.467,0.767,0.967,1,1.5c-0.3,0.5-0.767,0.733-1.4,0.7c-0.6-0.033-1.05-0.25-1.35-0.65
				c-0.167,0.167-0.25,0.617-0.25,1.351c0,0.634-0.233,1.017-0.7,1.149c-0.733-0.566-1.2-1.316-1.4-2.25
				c-0.3,0.101-0.75,0.351-1.35,0.75c-0.533,0.334-1.05,0.551-1.55,0.65c-0.367-1.2-0.2-2.184,0.5-2.95
				c-0.233-0.1-0.733-0.25-1.5-0.45c-0.633-0.133-1.1-0.35-1.4-0.65c0.034-0.434,0.384-0.583,1.05-0.45
				c0.833,0.167,1.383-0.017,1.65-0.55c-0.2-0.367-0.583-0.583-1.15-0.65c-0.7-0.033-1.133-0.116-1.3-0.25
				c0.134-0.066,1.4-0.05,3.8,0.05c2.167,0.1,3.533-0.267,4.1-1.1c-0.167-0.1-0.4-0.333-0.7-0.7c-0.267-0.366-0.5-0.583-0.7-0.65
				c0.4-0.966,0.65-1.667,0.75-2.1c0.2,0,0.267,0.233,0.2,0.7c-0.133,0.567-0.066,1,0.2,1.3c0.267-0.733,0.466-1.2,0.6-1.4
				c0.367-0.466,0.917-0.783,1.65-0.95c-0.034-0.1-0.55-0.534-1.55-1.3c-0.9-0.733-1.3-1.4-1.2-2c1.267-0.5,2.483-0.533,3.65-0.1
				c0-0.033-0.05-0.767-0.15-2.2c-0.067-0.9,0.216-1.483,0.85-1.75c0.1,0.2,0.4,0.517,0.9,0.95c0.4,0.333,0.667,0.733,0.8,1.2
				c0.267-0.133,0.617-0.533,1.05-1.2c0.367-0.566,0.884-0.9,1.55-1c0.566,0.5,0.8,1.2,0.7,2.1c-0.033,0.5-0.167,1.2-0.4,2.1
				c0.5-0.2,1.1-0.2,1.8,0c0.867,0.204,1.458,0.337,1.775,0.4c-0.477-0.128-0.919-0.512-1.325-1.15c-0.433-0.7-0.667-1.417-0.7-2.15
				l0.85-1.65L89.45,164.252z M80.15,172.502c-0.566,0.2-0.866,0.583-0.9,1.15c0.767,0.133,1.383,0.1,1.85-0.1
				c0.6-0.267,0.9-0.767,0.9-1.5C81.1,172.252,80.483,172.402,80.15,172.502z"/>
		</g>
	</g>
</g>
<g id="_x3C_Path_x3E__x5F_12">
	
		<use xlink:href="#winnie__x26__andy__x26__mrs_chan.ai_Assets_x2F_Layer_1_x2F__x3C_Path_x3E__x5F_12"  width="68.679" height="26.835" y="-26.835" transform="matrix(1 0 0 -1 118.3999 76.7017)" overflow="visible" opacity="0.5508" enable-background="new    "/>
</g>
<g id="_x3C_Path_x3E__x5F_11">
	
		<use xlink:href="#winnie__x26__andy__x26__mrs_chan.ai_Assets_x2F_Layer_1_x2F__x3C_Path_x3E__x5F_11"  width="68.679" height="26.835" x="-0.329" y="-26.835" transform="matrix(1 0 0 -1 45.1499 76.7017)" overflow="visible" opacity="0.5508" enable-background="new    "/>
</g>
<g id="Layer_12">
	<g>
		<path fill-rule="evenodd" clip-rule="evenodd" fill="#706151" d="M98,91.952c-0.966,0.634-2.433,0.884-4.4,0.75
			c-3.133-0.233-5.583-0.683-7.35-1.35c-2.267-0.833-2.8-1.833-1.6-3l5.8-2.05c4.133-0.933,6.8-0.267,8,2
			C99.317,89.969,99.167,91.185,98,91.952z"/>
		
			<path fill-rule="evenodd" clip-rule="evenodd" fill="none" stroke="#AE9D8A" stroke-linecap="round" stroke-linejoin="round" stroke-miterlimit="3" d="
			M98,91.952c-0.966,0.634-2.433,0.884-4.4,0.75c-3.133-0.233-5.583-0.683-7.35-1.35c-2.267-0.833-2.8-1.833-1.6-3l5.8-2.05
			c4.133-0.933,6.8-0.267,8,2C99.317,89.969,99.167,91.185,98,91.952z"/>
	</g>
</g>
<g id="Layer_11">
	<g>
		<path fill-rule="evenodd" clip-rule="evenodd" fill="#706151" d="M132.95,91.952c-1.2-0.767-1.35-1.983-0.45-3.65
			c1.2-2.267,3.867-2.933,8-2c2.067,0.467,4,1.15,5.8,2.05c1.2,1.167,0.667,2.167-1.6,3c-1.767,0.667-4.217,1.117-7.35,1.35
			C135.383,92.835,133.917,92.585,132.95,91.952z"/>
		
			<path fill-rule="evenodd" clip-rule="evenodd" fill="none" stroke="#AE9D8A" stroke-linecap="round" stroke-linejoin="round" stroke-miterlimit="3" d="
			M132.95,91.952c0.967,0.634,2.433,0.884,4.4,0.75c3.133-0.233,5.583-0.683,7.35-1.35c2.267-0.833,2.8-1.833,1.6-3
			c-1.8-0.9-3.733-1.583-5.8-2.05c-4.133-0.933-6.8-0.267-8,2C131.6,89.969,131.75,91.185,132.95,91.952z"/>
	</g>
</g>
<g id="_x3C_Path_x3E__x5F_8">
	
		<use xlink:href="#winnie__x26__andy__x26__mrs_chan.ai_Assets_x2F_Layer_1_x2F__x3C_Path_x3E__x5F_8"  width="5.7" height="4.3" y="-4.3" transform="matrix(1 0 0 -1 139.0503 86.2017)" overflow="visible" opacity="0.7109" enable-background="new    "/>
</g>
<g id="_x3C_Path_x3E__x5F_7">
	
		<use xlink:href="#winnie__x26__andy__x26__mrs_chan.ai_Assets_x2F_Layer_1_x2F__x3C_Path_x3E__x5F_7"  width="3.15" height="2.7" y="-2.7" transform="matrix(1 0 0 -1 136.1001 89.002)" overflow="visible" opacity="0.5195" enable-background="new    "/>
</g>
<g id="_x3C_Path_x3E__x5F_6">
	
		<use xlink:href="#winnie__x26__andy__x26__mrs_chan.ai_Assets_x2F_Layer_1_x2F__x3C_Path_x3E__x5F_6"  width="5.75" height="4.3" y="-4.3" transform="matrix(1 0 0 -1 92.4502 86.7017)" overflow="visible" opacity="0.7109" enable-background="new    "/>
</g>
<g id="_x3C_Path_x3E__x5F_5">
	
		<use xlink:href="#winnie__x26__andy__x26__mrs_chan.ai_Assets_x2F_Layer_1_x2F__x3C_Path_x3E__x5F_5"  width="3.15" height="2.7" y="-2.7" transform="matrix(1 0 0 -1 89.5503 89.502)" overflow="visible" opacity="0.5195" enable-background="new    "/>
</g>
<g id="_x3C_Path_x3E__x5F_4">
	
		<use xlink:href="#winnie__x26__andy__x26__mrs_chan.ai_Assets_x2F_Layer_1_x2F__x3C_Path_x3E__x5F_4"  width="21.95" height="18.65" y="-18.65" transform="matrix(1 0 0 -1 58.0503 77.8521)" overflow="visible" opacity="0.7109" enable-background="new    "/>
</g>
<g id="_x3C_Path_x3E__x5F_3">
	
		<use xlink:href="#winnie__x26__andy__x26__mrs_chan.ai_Assets_x2F_Layer_1_x2F__x3C_Path_x3E__x5F_3"  width="16.75" height="22.35" y="-22.35" transform="matrix(1 0 0 -1 71.3999 77.4019)" overflow="visible" opacity="0.7109" enable-background="new    "/>
</g>
<g id="_x3C_Path_x3E__x5F_2">
	
		<use xlink:href="#winnie__x26__andy__x26__mrs_chan.ai_Assets_x2F_Layer_1_x2F__x3C_Path_x3E__x5F_2"  width="27.7" height="25.268" y="-25.268" transform="matrix(1 0 0 -1 132.3501 78.252)" overflow="visible" opacity="0.7109" enable-background="new    "/>
</g>
<g id="_x3C_Path_x3E__x5F_1">
	
		<use xlink:href="#winnie__x26__andy__x26__mrs_chan.ai_Assets_x2F_Layer_1_x2F__x3C_Path_x3E__x5F_1"  width="16.15" height="20.8" y="-20.8" transform="matrix(1 0 0 -1 150.4502 81.1519)" overflow="visible" opacity="0.7109" enable-background="new    "/>
</g>
<g id="Layer_2">
	<path fill-rule="evenodd" clip-rule="evenodd" fill="#535AA6" d="M128.3,81.252c8.367-4.5,16.933-6.75,25.7-6.75
		c6.667,0,13.95,1.35,21.85,4.05c4.434,1.534,9.467,3.684,15.1,6.45c1.6,0.8,2.7,1.767,3.3,2.9c0.3,0.6,0.45,1.1,0.45,1.5
		c-0.8-0.066-2.15-0.333-4.05-0.8c-3.8-0.934-8.433-2.417-13.9-4.45c-5.033-1.867-9.633-3.1-13.8-3.7
		c-4.333-0.667-9.317-0.833-14.95-0.5c-9.367,0.534-16.683,2.684-21.95,6.45c-1.667,1.2-3.017,2.483-4.05,3.85l-1.05,1.7l0.1,1.3
		c-0.267,0.833-1.15,1.25-2.65,1.25H113c-1.533,0-2.417-0.417-2.65-1.25l0.1-1.3c-0.767-1.8-2.467-3.65-5.1-5.55
		c-5.267-3.767-12.583-5.917-21.95-6.45c-5.633-0.333-10.616-0.167-14.95,0.5c-4.167,0.6-8.767,1.833-13.8,3.7
		c-5.466,2.033-10.116,3.517-13.95,4.45l-4.05,0.8l0.5-1.5c0.634-1.133,1.733-2.1,3.3-2.9c5.633-2.767,10.667-4.917,15.1-6.45
		c7.9-2.7,15.183-4.05,21.85-4.05c8.767,0,17.333,2.25,25.7,6.75c4.167,2.233,7.467,4.467,9.9,6.7h5.4l2.6-2.1
		C123.267,84.185,125.7,82.652,128.3,81.252z"/>
</g>
</svg>
