
<svg xmlns="http://www.w3.org/2000/svg" version="1.1" xmlns:xlink="http://www.w3.org/1999/xlink" preserveAspectRatio="none" x="0px" y="0px" width="200px" height="200px" viewBox="0 0 200 200">
<defs>
<filter id="Filter_1" x="-20%" y="-20%" width="140%" height="140%" color-interpolation-filters="sRGB">
<feColorMatrix in="SourceGraphic" type="matrix" values="1 0 0 0 0 0 1 0 0 0 0 0 1 0 0 0 0 0 0.62 0" result="result1"/>
</filter>

<filter id="Filter_2" x="-20%" y="-20%" width="140%" height="140%" color-interpolation-filters="sRGB">
<feColorMatrix in="SourceGraphic" type="matrix" values="1 0 0 0 0 0 1 0 0 0 0 0 1 0 0 0 0 0 0.75 0" result="result1"/>
</filter>

<filter id="Filter_3" x="-20%" y="-20%" width="140%" height="140%" color-interpolation-filters="sRGB">
<feColorMatrix in="SourceGraphic" type="matrix" values="1 0 0 0 0 0 1 0 0 0 0 0 1 0 0 0 0 0 0.15 0" result="result1"/>
</filter>

<filter id="Filter_4" x="-20%" y="-20%" width="140%" height="140%" color-interpolation-filters="sRGB">
<feColorMatrix in="SourceGraphic" type="matrix" values="1 0 0 0 0 0 1 0 0 0 0 0 1 0 0 0 0 0 0.63 0" result="result1"/>
</filter>

<filter id="Filter_5" x="-20%" y="-20%" width="140%" height="140%" color-interpolation-filters="sRGB">
<feColorMatrix in="SourceGraphic" type="matrix" values="1 0 0 0 0 0 1 0 0 0 0 0 1 0 0 0 0 0 0.71 0" result="result1"/>
</filter>

<g id="Mask_3_MASK_0_FILL">
<path fill="#FFFFFF" stroke="none" d="
M 163.5 164.2
Q 190 137.7 190 100.2 190 62.7 163.5 36.2 137 9.7 99.5 9.7 62 9.7 35.5 36.2 9 62.7 9 100.2 9 137.7 35.5 164.2 62 190.7 99.5 190.7 137 190.7 163.5 164.2 Z"/>
</g>

<g id="Layer3_0_FILL">
<path fill="#D8E5B2" stroke="none" d="
M 0 0
L 0 200 200 200 200 0 0 0 Z"/>
</g>

<g id="Layer2_1_FILL">
<path fill="#EAEAE7" stroke="none" d="
M 101.4 149.4
Q 99.55 150.65 98.2 153.1
L 97.2 155.25
Q 95 157.4 92.1 161.2 86.3 168.8 82.9 177.1 80.05 184.2 77.55 202.45 75.05 221.2 74.05 243.2
L 72.8 271.15 140.45 271.15
Q 140.6 258.1 139.85 240.45 138.3 205.1 133.55 182.2 132.45 176.85 127.1 168.2 121.8 159.65 116.15 154 107.4 145.3 101.4 149.4 Z"/>
</g>

<g id="Layer2_2_FILL">
<path fill="#FFFFFF" stroke="none" d="
M 414.1 358.2
Q 412.9 359.4 410.95 361.6 407.15 366 403.75 371.05
L 412 389.05 428.25 372.8 443 387.55 450.5 369.85
Q 444.9 361.85 439.6 356.55 427.85 344.8 419.8 350.35 417.3 352.05 415.45 355.3
L 414.1 358.2 Z"/>
</g>

<g id="Layer2_3_FILL">
<path fill="#FB952F" stroke="none" d="
M 347.65 173.85
Q 346.8 174.85 345 177.85 343.9 179.65 345.2 184.65 346.8 190.75 346.8 191.05 346.8 192.3 348.85 195.55 350.65 199.75 349.65 206.2 348.55 213.25 351.15 218.45 352.7 221.6 357 225.85 358.55 227.45 362.9 230.25 365.35 231.85 364.3 232.85 363.25 233.95 363.65 236.4 364.3 240.6 364.3 240.85 364.3 243.1 366.6 247.65 368.95 252.15 371.3 254.55 372.95 256.15 376.2 256.1 378.7 256.05 378.7 257.5 378.7 259.15 380 261.85 381.3 264.55 381.3 265.2 381.3 266.25 390.8 271.3 395.55 273.85 400.3 276.2
L 440 292.55 449.6 290.25
Q 459.6 287.95 461.4 287.95 463.4 287.95 465.4 285.7 467.25 283.6 467.25 282.1 467.25 281.05 470.8 277.9 472.7 276.2 475.8 273.55 477 272.35 476.55 264.4 475.8 255.8 475.8 254.05 475.8 251.95 478.3 250.25 479.7 249.3 482.3 247.55 483.8 246.05 483.9 242.65 484.05 239.25 482.65 237.85 481.5 236.7 481.2 233.65 481.15 233.05 481.15 229.7 481.15 229.15 482.45 227.5 483.45 226.15 482.65 225.35 481.95 224.65 481.7 224.85 480.9 225.35 479.15 225.35 477.1 225.35 476 227.2 474.05 230.5 473.5 231.05 471.9 232.6 470.85 230.45 469.05 226.6 468.65 226.2 467.15 224.7 464.15 223.7 461.45 222.85 459 222.85 455.3 222.85 453.45 222.55 450.15 222.05 450.15 220.55 450.15 218.25 449.95 217.25 449.65 215.55 448.65 214.55 447.15 213.05 446.3 212.5 444.85 211.55 443.3 211.55 442 211.55 442.45 209.9 443.3 206.8 443.3 205.55 443.65 202.45 443.75 201.4 443.85 199.75 442.65 198.55 441.8 197.7 439.6 196 437.35 194.25 435.65 192.55 433.75 190.65 429.7 191.35 425.5 192.55 424.3 192.55 422.65 192.55 421.7 190.55 420.9 188.85 420.9 186.6 420.9 184.75 418.05 183.2 415.4 181.7 412.85 181.7 411.2 181.7 410.05 180.45 408.9 179.15 407.65 179.15
L 398.95 179.15
Q 397.15 179.15 395.2 181.3 393.25 183.45 392.05 183.45 390.85 183.45 389.5 182.25 388.2 181.05 386.65 181.05 384.3 181.05 383.4 181.4 382.35 181.85 380.3 183.85 378.55 185.65 375.75 185.6 372.4 185.2 370.55 185.2 368.45 185.2 369.2 182.9 370.55 178.65 370.55 177.6 370.55 175.15 368.9 175 366.25 175.35 364.15 175.35 362.15 175.35 360.95 174.35 359.1 172.9 355.3 171.85 350.4 170.5 348.75 171.35 347.65 171.9 347.65 173.85 Z"/>
</g>

<g id="Layer2_4_FILL">
<path fill="#F5ECC9" stroke="none" d="
M 415.65 320.85
Q 416.3 321.5 415.6 333 415.2 339.9 414.1 358.2
L 416.35 360.9
Q 419.8 363.55 425.65 363.55 431.95 363.55 436.15 360.95 439.65 358.75 439.6 356.55 439.45 349.85 438.7 337.25 437.95 324.2 437.8 319.7 437.5 309.7 426.55 314.3 423.15 315.7 419.05 318.4
L 415.65 320.85 Z"/>
</g>

<g id="Layer2_5_FILL">
<path fill="#F1DDA8" stroke="none" d="
M 454.05 260.25
L 449.75 265.05 447.25 295.05 452.5 295.05
Q 454.15 295.05 456.75 291.1 460.1 285.95 462.75 276.8 465.7 266.65 464.15 262.1 463.6 260.5 462.35 259.2 460.9 257.95 460.25 257.3 458.7 255.75 454.05 260.25 Z"/>
</g>

<g id="Layer2_6_FILL">
<path fill="#F1DDA8" stroke="none" d="
M 392.6 268.4
L 390.5 264.55
Q 388.7 263 386.6 261.6 382.4 258.85 381 259.8 377.7 261.9 377.65 267.4 377.6 271.55 379.25 276.8 386.35 299.15 395.75 293.8 401.55 290.5 396.6 277.2 395.05 273.05 392.6 268.4 Z"/>
</g>

<g id="Layer2_7_FILL">
<path fill="#DFD1A9" stroke="none" d="
M 419.05 318.4
L 415.65 320.85
Q 416.15 321.4 415.85 328 415.75 330.45 414.95 343.85 423.35 353.2 427 353.2 430.15 353.2 439.15 344.85 438.05 326.75 437.8 319.7 437.5 309.7 426.55 314.3 423.15 315.7 419.05 318.4 Z"/>
</g>

<g id="Layer2_8_FILL">
<path fill="#F5ECC9" stroke="none" d="
M 119.05 56.5
Q 114.25 51.85 112.5 50.8 109.2 48.75 104.5 48.85 97.8 49 93.6 50.05 87.4 51.55 83.85 55.35 80.15 59.35 78.5 65.75 77.1 71.3 77.45 77.55
L 78.95 96.25
Q 81.15 116.1 84.75 121.85 89.1 128.95 96.5 135.75 103.8 142.4 106.8 142.35 110.25 142.25 116.2 133.65 122.8 124.05 123.95 114.45 125 105.75 124.95 90.85
L 124.7 77.75
Q 124.55 73.65 123.8 68.95 122.25 59.55 119.05 56.5 Z"/>
</g>

<g id="Layer2_9_FILL">
<path fill="#492F10" stroke="none" d="
M 407.65 257.15
Q 407.65 254.15 406.45 252.05 405.2 249.9 403.5 249.9 401.75 249.9 400.5 252.05 399.3 254.15 399.3 257.15 399.3 260.15 400.5 262.3 401.75 264.4 403.5 264.4 405.2 264.4 406.45 262.3 407.65 260.15 407.65 257.15 Z"/>
</g>

<g id="Layer2_10_FILL">
<path fill="#492F10" stroke="none" d="
M 437.6 255.1
Q 437.35 252.1 435.95 250.1 434.55 248.1 432.8 248.25 431.1 248.4 430.05 250.6 429 252.85 429.25 255.8 429.5 258.8 430.9 260.85 432.35 262.85 434.05 262.7 435.8 262.55 436.8 260.35 437.85 258.1 437.6 255.1 Z"/>
</g>

<g id="Layer2_11_FILL">
<path fill="#FE5C26" stroke="none" d="
M 431.4 236.2
Q 429.95 236.55 428.75 237.8 427.95 238.25 427.35 238.95 426.15 240.3 427.25 241.4 428.15 242.3 429.45 242.3 430.75 242.3 431.6 243.15 432.65 244.2 434.95 244.15 436.2 244.1 438.4 243.85 439.3 243.85 441.5 244.55 442.75 244.95 442.75 244.1 443.15 242.75 443.05 242.1 442.9 241.05 440.5 239.8 438.65 238.8 436 237.85 434.15 237.2 433.6 236.65 432.8 235.85 431.4 236.2 Z"/>
</g>

<g id="Layer2_12_FILL">
<path fill="#FE5C26" stroke="none" d="
M 406.5 245
Q 407.8 245 408.7 244.1 409.8 243 408.6 241.65
L 407.2 240.5
Q 405.95 239.25 404.55 238.9 403.1 238.55 402.3 239.35 401.75 239.95 399.9 240.6 397.2 241.6 395.45 242.5 393.05 243.75 392.9 244.8 392.8 245.45 393.2 246.8 393.2 247.65 394.45 247.25 396.6 246.55 397.5 246.55 398.45 246.55 401 246.85 403.3 246.9 404.3 245.85 405.15 245.05 406.5 245 Z"/>
</g>

<g id="winnie___andy___mrs_chan_ai_Layer_1__Path__43_0_Layer0_0_FILL">
<path fill="#FEFEFE" stroke="none" d="
M 4.45 2.4
Q 4.45 1.4 3.8 0.7 3.15 0 2.2 0 1.25 0 0.65 0.7 0 1.4 0 2.4 0 3.4 0.65 4.15 1.25 4.85 2.2 4.85 3.15 4.85 3.8 4.15 4.45 3.4 4.45 2.4 Z"/>
</g>

<g id="winnie___andy___mrs_chan_ai_Layer_1__Path__42_0_Layer0_0_FILL">
<path fill="#FEFEFE" stroke="none" d="
M 3.45 1.6
Q 3.45 0.95 2.95 0.45 2.4 0 1.7 0 1 0 0.5 0.45 0 0.95 0 1.6 0 2.3 0.5 2.75 1 3.25 1.7 3.25 2.4 3.25 2.95 2.75 3.45 2.3 3.45 1.6 Z"/>
</g>

<g id="winnie___andy___mrs_chan_ai_Layer_1__Path__41_0_Layer0_0_FILL">
<path fill="#FEFEFE" stroke="none" d="
M 4.45 2.4
Q 4.45 1.4 3.8 0.7 3.15 0 2.2 0 1.3 0 0.65 0.7 0 1.4 0 2.4 0 3.4 0.65 4.15 1.3 4.85 2.2 4.85 3.15 4.85 3.8 4.15 4.45 3.4 4.45 2.4 Z"/>
</g>

<g id="winnie___andy___mrs_chan_ai_Layer_1__Path__40_0_Layer0_0_FILL">
<path fill="#FEFEFE" stroke="none" d="
M 3.45 1.6
Q 3.45 0.95 2.95 0.5 2.45 0 1.75 0 1.05 0 0.5 0.5 0 0.95 0 1.6 0 2.3 0.5 2.75 1.05 3.25 1.75 3.25 2.45 3.25 2.95 2.75 3.45 2.3 3.45 1.6 Z"/>
</g>

<g id="winnie___andy___mrs_chan_ai_Layer_1__Path__39_0_Layer0_0_FILL">
<path fill="#FB827F" stroke="none" d="
M 17.2 9.55
Q 17.2 5.6 14.7 2.8 12.15 0 8.6 0 5.05 0 2.5 2.8 0 5.6 0 9.55 0 13.55 2.5 16.35 5.05 19.15 8.6 19.15 12.15 19.15 14.7 16.35 17.2 13.55 17.2 9.55 Z"/>
</g>

<g id="winnie___andy___mrs_chan_ai_Layer_1__Path__38_0_Layer0_0_FILL">
<path fill="#FB827F" stroke="none" d="
M 17.25 9.6
Q 17.25 5.65 14.7 2.8 12.15 0 8.6 0 5.05 0 2.5 2.8 0 5.65 0 9.6 0 13.55 2.5 16.35 5.05 19.15 8.6 19.15 12.15 19.15 14.7 16.35 17.25 13.55 17.25 9.6 Z"/>
</g>

<g id="Layer2_19_MEMBER_0_FILL">
<path fill="#DE8F8E" stroke="none" d="
M 429.55 295.4
Q 429.35 295.2 427.15 296.15 424.4 297.3 422.65 297.55 420.9 297.8 418.35 297.3 416.3 296.95 416.15 297.1 415.7 297.8 415.75 297.9 415.8 298.05 416.6 298.05 417.5 298.05 420 299.1 422.2 300 423.75 299.7 424.9 299.5 426.05 298.7 426.7 298.2 428.55 296.55 428.8 296.3 429.65 296 430 295.85 429.55 295.4 Z"/>
</g>

<g id="Layer2_20_FILL">
<path fill="#FE5C26" stroke="none" d="
M 447.5 226.05
Q 446.2 226.05 445.55 224.45 445 223.1 445 220.85 445 219.55 443.85 218.35 442.65 217.2 442.65 215.85 442.65 214.3 441.2 213.4 438.7 211.9 438.5 211.7 437 210.25 436.3 209.85 435.15 209.2 433.3 209.2 431.5 209.2 429.5 207.85 427.95 206.85 425.65 204.55 423.8 202.65 421.1 202.75 419.2 202.85 413.15 204.35 409.4 205.35 406.5 208.45 404 211.2 402 211.2 399.1 211.2 398.1 210.85 396 209.9 393 208.55 388.65 206.6 386.5 207.1 384.6 207.6 381 211.2 377.9 215.35 376.7 216.6 374.85 218.55 369.65 218.55 364.45 218.55 364.7 214.95
L 366 211.35
Q 365.05 211.35 363.65 211.75 360.9 212.6 358.8 214.7 356.8 216.75 360.5 218.9 362.55 220.1 366.3 222.2 368.55 224.4 369.5 226.25 371 229.3 371 234.2 371 238.45 373.3 242.3 376.5 247.6 377 249.2 377.95 252.25 381.45 253.7 384.55 255 384.55 256.85 384.55 259.75 384.85 260.75 385.05 261.45 386.95 265.2 388.35 268.05 387.85 269.2 386.95 271.25 386.95 271.85
L 386.95 279.25
Q 386.95 281.6 389 282.3 390.25 282.8 394.2 283.65 395.3 284 396.35 284.4 396.9 284.6 396.9 284.1 396.35 281.2 396.3 276.5 396.25 271.1 393.35 266.6 390.5 262.15 390.5 261.2 390.3 257.45 390.45 255.4 390.75 251.75 392.65 249.85 394.15 248.35 394.65 245.4 395.1 242.45 396.5 241.05 398.35 239.15 399.7 238.7 401.05 238.2 408.3 236.2 414.65 234.3 419.95 230.05 421.45 228.8 425.3 224.85 426.15 224.05 426.05 223.4 426.35 223.2 431 223.2 435.55 223.2 438.4 225.55 439.8 226.7 440.3 227.85
L 445.45 227.75
Q 446.8 227.75 446.15 230.35 445.5 233 443.65 234.85 442.05 236.45 444 239.15 444.5 239.8 448.55 243.85 450.4 245.7 449.75 249.4 448.55 255.8 448.55 256.45 448.55 259.1 448.15 264.45 447.75 269.8 447.75 271.85 447.75 276.3 448.1 279.75 448.55 284.35 449.5 284.35 450.25 284.35 451.35 283 453.6 280.25 454.65 279.2 456.55 277.3 454.95 273.2 452.8 267.65 452.8 266.7 452.8 264.5 454.45 263.6 457.6 261.9 458.65 260.85 460.65 258.9 459.25 257.75 457.3 256.15 457.3 255.85 457.3 254.65 458.7 254.2 459.8 253.85 462.3 253.85
L 470 253.85
Q 471.75 253.85 472.15 252.25 472.3 251.55 472.3 247.85 472.3 245.7 474.1 244.7 477.25 242.95 477.65 242.55 479.1 241.1 477.8 238.4
L 476.15 236.05 473.65 238.55
Q 472.05 240.2 470.75 239.35 469.15 237.7 468 236.55
L 462.5 231.05
Q 460.2 228.75 459.45 228.65 457.8 228.85 455.3 228.85 452.4 228.85 450.2 227.45 448 226.05 447.5 226.05 Z"/>
</g>

<g id="Layer2_21_FILL">
<path fill="#FE5C26" stroke="none" d="
M 377.3 185.45
Q 376.15 185.7 374.05 185.5 365.2 196.3 350 201.55 350 204.1 349.65 206.2 348.95 210.75 349.75 214.5 363.15 213.05 373.2 207.45 387.9 199.25 392.45 183.4
L 392.05 183.45
Q 390.85 183.45 389.5 182.25 388.2 181.05 386.65 181.05 384.3 181.05 383.4 181.4 382.35 181.85 380.3 183.85 379 185.15 377.3 185.45 Z"/>
</g>

<g id="Layer2_22_FILL">
<path fill="#F8CB3A" stroke="none" d="
M 346.85 191.05
Q 346.85 191.65 347.05 192.1 361.95 188.6 369.05 184.65 368.75 184.05 369.6 181.8 370.55 179.1 370.55 177.6 370.55 175.15 368.9 175 366.25 175.35 364.15 175.35 362.15 175.35 360.95 174.35 359.1 172.9 355.3 171.85 350.4 170.5 348.75 171.35 347.65 171.9 347.65 173.85 346.85 174.85 345 177.85 343.9 179.65 345.25 184.65 346.85 190.75 346.85 191.05 Z"/>
</g>

<g id="Layer2_23_FILL">
<path fill="#FB952F" stroke="none" d="
M 347.05 192.1
Q 347.45 193 348.8 195.4 349.95 198.1 350 201.55 365.2 196.3 374.05 185.5 371.85 185.2 370.55 185.2 369.35 185.2 369.05 184.65 361.95 188.6 347.05 192.1 Z"/>
</g>

<g id="Layer2_24_FILL">
<path fill="#F8CB3A" stroke="none" d="
M 395.2 181.3
Q 393.45 183.2 392.45 183.4 387.9 199.25 373.2 207.45 363.15 213.05 349.75 214.5 350.5 218 352.7 221.1 354.1 223 357 225.85 358.55 227.45 361.65 229.45 368 226.2 376.6 219.55 387.55 211.15 393.35 198 397.3 189.05 398.45 179.2 396.95 179.4 395.2 181.3 Z"/>
</g>

<g id="Layer2_25_FILL">
<path fill="#FE5C26" stroke="none" d="
M 428.25 191.7
Q 424.85 192.55 424.3 192.55 422.1 192.55 421.25 189.25 420.2 190.55 417.9 194.5 417 196.15 412.3 204.6
L 409.75 209.3
Q 405.1 217.65 395.85 231.85 385.9 247.1 385.5 247.8 383.4 251.3 379.95 252.95 376.4 254.75 371.25 254.5
L 371.3 254.55
Q 372.95 256.15 376.2 256.1 378.7 256.05 378.7 257.5
L 378.75 258.3
Q 381.15 257.05 383.65 254.85 397.75 242.7 421.75 202.75 425 197.45 428.25 191.7 Z"/>
</g>

<g id="Layer2_26_FILL">
<path fill="#F8CB3A" stroke="none" d="
M 421.25 189.25
Q 420.9 188 420.9 186.6 420.9 184.75 418.05 183.2 415.4 181.7 412.85 181.7 411.75 181.7 410.9 181.15
L 407.85 190.35
Q 403.9 201.5 399.5 211.15 386.95 238.85 375.3 245.55 370.75 248.2 366.5 247.4 368.75 251.95 371.25 254.5 376.4 254.75 379.95 252.95 383.4 251.3 385.5 247.8 385.9 247.1 395.85 231.85 405.1 217.65 409.75 209.3
L 412.3 204.6
Q 417 196.15 417.9 194.5 420.2 190.55 421.25 189.25 Z"/>
</g>

<g id="Layer2_27_FILL">
<path fill="#F8CB3A" stroke="none" d="
M 432.2 191.2
Q 430.7 191.15 428.25 191.7 425 197.45 421.75 202.75 397.75 242.7 383.65 254.85 381.15 257.05 378.75 258.3 378.95 259.35 379.6 261 380.25 260.3 381 259.8 382 259.1 384.8 260.55 385 261.35 386.95 265.2
L 387.65 266.9 387.75 267.1 387.9 267.7 387.95 268.05 388 268.2 388 268.6 387.9 268.95 387.9 269 387.65 269.6 387.4 270 387.35 270.05 387.15 270.5 387.15 270.6 387.1 270.7 387 271.2 387 271.25 386.95 271.85 387 280.15 387.05 280.4 387.2 280.85 387.6 281.45 387.7 281.55 388.45 282.1 388.5 282.1 388.95 282.3 390 282.6 390.1 282.65 390.15 282.65 392.1 283.05 392.2 283.1 394.9 283.85 394.95 283.9 396.6 284.45
Q 396.75 284.5 396.85 284.35
L 396.9 283.85 396.9 283.75 396.7 282.1 396.6 281.65 396.35 277.15 396.45 276.9 397.65 274.9 396.15 274.1
Q 395.7 270.7 394.05 267.75 392.1 264.85 391.4 263.7
L 391.35 263.7 391.05 263.15 391 263 390.7 262.4 390.55 261.8 390.5 261.2
Q 390.3 257.45 390.45 255.4 390.75 251.75 392.65 249.85 394.15 248.35 394.65 245.4 395.1 242.45 396.5 241.05 398.35 239.15 399.7 238.7 401.05 238.2 408.3 236.2 414.65 234.3 419.95 230.05 421.45 228.8 425.3 224.85
L 425.5 224.7 425.55 224.65 425.6 224.5 425.65 224.45 425.75 224.3 425.8 224.15 425.85 224.05 425.85 223.9 425.9 223.8 425.95 223.5 426.05 223.4 426.15 223.35 426.3 223.3 426.5 223.3 426.7 223.25 426.75 223.25
Q 432 216.3 438.4 211.6 440.65 210 442.75 208.8 443.3 207.15 443.3 205.55 443.65 202.45 443.75 201.4 443.85 199.75 442.65 198.55 441.8 197.7 439.6 196 437.35 194.25 435.65 192.55 434.35 191.25 432.2 191.2 Z"/>
</g>

<g id="winnie___andy___mrs_chan_ai_Layer_1__Path__29_0_Layer0_0_FILL">
<path fill="#FE5C26" stroke="none" d="
M 84.6 13.1
Q 84.6 11.55 83.15 10.65 80.65 9.15 80.45 8.95 78.95 7.5 78.25 7.1 77.1 6.45 75.25 6.45 73.45 6.45 71.45 5.1 69.9 4.1 67.6 1.8 65.75 -0.1 63.05 0 61.15 0.1 55.1 1.6 51.35 2.6 48.45 5.7 45.95 8.45 43.95 8.45 41.05 8.45 40.05 8.1 37.95 7.15 34.95 5.8 30.6 3.85 28.45 4.35 26.55 4.85 22.95 8.45 20.6 10.8 18.65 13.85 16.8 15.8 11.6 15.8 6.4 15.8 6.65 12.2
L 7.95 8.6
Q 7 8.6 5.6 9 2.85 9.85 0.75 11.95 -1.25 14 2.45 16.15 4.5 17.35 8.25 19.45 10.5 21.65 11.45 23.5 12.95 26.55 12.95 31.45 12.95 35.7 15.25 39.55 18.45 44.85 18.95 46.45 19.9 49.5 23.4 50.95 26.5 52.25 26.5 54.1 26.5 57 26.8 58 27 58.7 28.9 62.45 30.3 65.3 29.8 66.45 28.9 68.5 28.9 69.1
L 28.9 76.5
Q 28.9 78.85 30.95 79.55 32.2 80.05 36.15 80.9 37.25 81.25 38.3 81.65 38.85 81.85 38.85 81.35 38.3 78.45 38.25 73.75 38.2 68.35 35.3 63.85 32.45 59.4 32.45 58.45 32.25 54.7 32.4 52.65 32.7 49 34.6 47.1 36.1 45.6 36.6 42.65 37.05 39.7 38.45 38.3 40.3 36.4 41.65 35.95 43 35.45 50.25 33.45 56.6 31.55 61.9 27.3 63.4 26.05 67.25 22.1 68.1 21.3 68 20.65 68.3 20.45 72.95 20.45 77.5 20.45 80.35 22.8 81.75 23.95 82.25 25.1
L 87.4 25
Q 88.75 25 88.1 27.6 87.45 30.25 85.6 32.1 84 33.7 85.95 36.4 86.45 37.05 90.5 41.1 92.35 42.95 91.7 46.65 90.5 53.05 90.5 53.7 90.5 56.35 90.1 61.7 89.7 67.05 89.7 69.1 89.7 73.55 90.05 77 90.5 81.6 91.45 81.6 92.2 81.6 93.3 80.25 95.55 77.5 96.6 76.45 98.5 74.55 96.9 70.45 94.75 64.9 94.75 63.95 94.75 61.75 96.4 60.85 99.55 59.15 100.6 58.1 102.6 56.15 101.2 55 99.25 53.4 99.25 53.1 99.25 51.9 100.65 51.45 101.75 51.1 104.25 51.1
L 111.95 51.1
Q 113.7 51.1 114.1 49.5 114.25 48.8 114.25 45.1 114.25 42.95 116.05 41.95 119.2 40.2 119.6 39.8 121.05 38.35 119.75 35.65
L 118.1 33.3 115.6 35.8
Q 114 37.45 112.7 36.6 111.1 34.95 109.95 33.8
L 104.45 28.3
Q 102.15 26 101.4 25.9 99.75 26.1 97.25 26.1 94.35 26.1 92.15 24.7 89.95 23.3 89.45 23.3 88.15 23.3 87.5 21.7 86.95 20.35 86.95 18.1 86.95 16.8 85.8 15.6 84.6 14.45 84.6 13.1 Z"/>
</g>

<g id="Layer2_29_FILL">
<path fill="#FB952F" stroke="none" d="
M 413.05 294.75
Q 416.1 295.35 418.7 295.25 420.9 295.2 420.85 294.85 420.85 294.5 421.85 293.6 422.35 293.15 422.85 292.75
L 423.7 292.55
Q 424.8 292.7 426.15 294.55 427.3 296.05 433.4 293.1 439.3 290.2 442.45 286.85 445.45 283.7 447.15 281.05 448.75 278.4 447.75 278.45 447.1 278.45 445.35 279.5 443 280.8 440.65 281.55 437 282.8 433.1 281.95 429.25 280.75 427.65 280.55 424.95 280.25 422.6 280.25 419.8 280.35 418.05 280.4 416.1 280.45 412.6 282.1 408.5 284.1 407.25 284.4 405.05 284.95 401.65 284.5 398.95 284.15 397.35 283.55 392.05 281.65 396.4 285.85 403.85 292.9 413.05 294.75 Z"/>
</g>

<g id="winnie___andy___mrs_chan_ai_Layer_1__Path__27_0_Layer0_0_FILL">
<path fill="#FE5C26" stroke="none" d="
M 52.2 3.05
Q 53.8 0.8 53.7 0 46.65 7.45 40.3 9.85 38.3 10.6 36.6 10.75
L 35.3 10.75 28.15 9
Q 27.6 9.75 26.55 10.5 24.45 12 21.8 12 9.65 12 2.75 4.75 0.75 4 0.2 4.25 -0.55 4.6 2 7.1 9.45 14.15 18.65 15.95 21.7 16.6 24.3 16.5 26.45 16.4 26.45 16.1 26.45 15.75 27.45 14.85 27.95 14.4 28.45 14
L 29.3 13.75
Q 30.4 13.9 31.75 15.75 32.9 17.25 39 14.3 44.9 11.4 48.05 8.05 50.55 5.45 52.2 3.05 Z"/>
</g>

<g id="Layer2_31_FILL">
<path fill="#FAF3E1" stroke="none" d="
M 416.65 250.1
L 416.1 251.05 413.65 262.5
Q 411.65 275.75 414 285.05 414.5 286.9 418 288.55 421.1 290.05 423.15 290.05 424.6 290.05 426.75 287.35 428.9 284.65 429.25 282.3 429.65 279.1 426.75 268.8 423.2 256.45 418.2 250.3 417.4 249.3 416.65 250.1 Z"/>
</g>

<g id="Layer2_32_FILL">
<path fill="#F1DDA8" stroke="none" d="
M 416.35 250.5
L 416.1 251.05 413.65 262.5
Q 411.65 275.75 414 285.05 414.5 286.9 418 288.55 421.1 290.05 423.15 290.05 419.6 277 417.05 249.8 416.7 249.95 416.35 250.5 Z"/>
</g>

<path id="Layer2_0_1_STROKES" stroke="#D8E5B2" stroke-width="8" stroke-linejoin="round" stroke-linecap="round" fill="none" d="
M 148.1 65.8
Q 147.25 64.95 147.05 62.7 147 62.25 147 59.75 147 59.35 147.95 58.1 148.7 57.1 148.1 56.5 147.6 56 147.4 56.15 146.8 56.5 145.5 56.5 144 56.5 143.2 57.9 141.75 60.35 141.3 60.75 140.15 61.9 139.35 60.3 138 57.45 137.7 57.15 136.6 56.05 134.4 55.3 132.35 54.65 130.55 54.65 127.8 54.65 126.4 54.45 123.95 54.05 123.95 52.95 123.95 51.25 123.8 50.5 123.6 49.25 122.85 48.5 121.75 47.35 121.1 46.95 120.05 46.25 118.9 46.25 118.05 46.25 118.15 45.6 118.45 44.5 118.6 43.7
L 118.75 43.15 118.75 43.05 118.85 42.6 118.9 41.8
Q 119.15 39.5 119.2 38.7 119.3 37.5 118.4 36.6 117.75 35.95 116.15 34.7 114.45 33.4 113.2 32.15
L 112.5 31.6 111.45 31.25 110.75 31.15 109.8 31.15 107.75 31.5 107.7 31.5 105.3 32.1 104.75 32.15 104.35 32.1 104 32 103.9 31.95 103.6 31.75 103.55 31.75 103.3 31.45 103.3 31.35 103.05 31.1 102.6 30.15 102.3 28.7 102.25 27.7
Q 102.25 26.35 100.1 25.2 98.15 24.1 96.25 24.1
L 95.8 24.05 95.7 24 95.45 23.95 95.35 23.95 95.1 23.85 95.05 23.8 94.8 23.65
Q 94.15 23.05 93.85 22.75 93.25 22.2 92.4 22.2
L 85.9 22.2
Q 85.55 22.2 85.2 22.3
L 85.15 22.3 84.85 22.4 84.8 22.45 84.5 22.55 84.45 22.65 84.15 22.8 81.95 24.95 81.9 24.95 81.7 25.15 81.65 25.15 81.4 25.25 81.35 25.25 81.1 25.35 80.8 25.4
Q 79.9 25.4 78.9 24.5 77.95 23.6 76.8 23.6
L 75.1 23.65
Q 74.4 23.75 73.75 24.15 73.2 24.55 72.05 25.7 71.9 25.9 71.6 26.1
L 70.95 26.55
Q 70.5 26.75 69.9 26.85
L 69.75 26.9 69.35 26.95 69.2 27 64.5 26.7 64.4 26.65
Q 63.9 26.6 63.7 26.25 63.5 25.8 64.1 24.15 64.8 22.15 64.8 21.05 64.8 19.9 64.45 19.45 64.1 19.1 63.3 19.1 61.75 19.3 60.6 19.35
L 60.05 19.35
Q 58.6 19.35 57.7 18.6 56.3 17.55 53.5 16.75 51.05 16.1 49.75 16.15 48.55 16.2 48.1 16.85 47.8 17.3 47.8 18.25 47.15 19 45.85 21.2 45 22.55 46 26.25 47.15 30.8 47.15 31.05 47.15 31.55 47.7 32.45 48.45 33.8 48.7 34.35
L 48.75 34.4 49.45 37.3 49.05 46.35 49.35 48.45 49.35 48.5 50.2 51 50.85 52.3 50.9 52.3 51.5 53.2 53.7 55.9 55.8 57.85 58.2 59.55
Q 59.8 60.55 60.15 60.95 60.75 61.55 60.15 62.1 59.4 62.9 59.7 64.75 60.15 67.85 60.15 68.05 60.15 69.15 61.05 71.2 61.8 73.1 63.05 75.1
L 63.05 75.15 63.5 75.8 63.5 75.85 63.95 76.45 63.95 76.5 64.4 77.05 64.45 77.1 65.4 78.2
Q 66.6 79.4 69 79.35 70.85 79.35 70.85 80.4
L 70.9 81
Q 71 81.8 71.55 83 69.95 84.85 70.1 88.55 70.2 91.4 71.3 94.75 75.3 107.7 80.6 108.1 82.4 118.15 84.75 121.85 87.2 125.85 91 130.1 94.55 134.15 98.25 137.3
L 97.2 155.25 97.05 155.4
Q 93.35 159.05 89.5 164.8 85.35 171.05 82.9 177.1 80.05 184.2 77.55 202.45 75.05 221.2 74.05 243.2
L 72.8 271.15 140.45 271.15
Q 140.6 258.1 139.85 240.45 138.3 205.1 133.55 182.2 132.85 178.85 130.25 173.8 127.7 168.9 124.25 163.9
L 124.2 163.8 116.15 154
Q 116 149.65 115.8 145.35
L 115.2 135.05
Q 118.45 130.7 120.7 125.65 123.25 119.85 123.95 114.45 124.2 112.4 124.5 108.3
L 125.7 108.3
Q 126.4 108.3 127.45 107.2 128.75 105.8 130 103.35 131.65 103.05 132.35 103.05 133.8 103.05 135.3 101.35 136.7 99.8 136.7 98.7 136.7 97.9 139.3 95.55 140.75 94.3 143.05 92.35 143.9 91.45 143.6 85.55 143.05 79.15 143.05 77.85 143.05 76.3 144.9 75 145.95 74.3 147.85 73 149 71.9 149.05 69.35 149.15 66.85 148.1 65.8 Z"/>

<path id="Layer2_9_1_STROKES" stroke="#7F591A" stroke-width="1" stroke-linejoin="miter" stroke-linecap="butt" stroke-miterlimit="4" fill="none" d="
M 92.38838958740234 80.14679107666014
Q 92.38838958740234 82.37619171142576 91.49662933349606 83.9739288330078 90.56771240234372 85.53450927734373 89.30438537597655 85.53450927734373 88.00390167236327 85.53450927734373 87.07498474121093 83.9739288330078 86.1832244873047 82.37619171142576 86.1832244873047 80.14679107666014 86.1832244873047 77.91739044189454 87.07498474121093 76.35680999755859 88.00390167236327 74.75907287597657 89.30438537597655 74.75907287597657 90.56771240234372 74.75907287597657 91.49662933349606 76.35680999755859 92.38838958740234 77.91739044189454 92.38838958740234 80.14679107666014 Z"/>

<path id="Layer2_10_1_STROKES" stroke="#7F591A" stroke-width="1" stroke-linejoin="miter" stroke-linecap="butt" stroke-miterlimit="4" fill="none" d="
M 114.64523925781248 78.6233673095703
Q 114.83102264404295 80.85276794433595 114.05073242187501 82.52481842041017 113.30759887695314 84.15971221923827 112.00711517333986 84.27118225097657 110.74378814697263 84.38265228271486 109.66624450683594 82.89638519287111 108.6258575439453 81.37296142578124 108.44007415771483 79.14356079101562 108.25429077148436 76.95131683349608 109.03458099365236 75.27926635742186 109.81487121582029 73.64437255859376 111.07819824218751 73.53290252685547 112.37868194580079 73.42143249511717 113.41906890869137 74.90769958496092 114.45945587158201 76.39396667480467 114.64523925781248 78.6233673095703 Z"/>

<path id="Layer2_33_1_STROKES" stroke="#FFFFFF" stroke-width="2" stroke-linejoin="miter" stroke-linecap="butt" stroke-miterlimit="4" fill="none" d="
M 107.7 166.1
L 104.2 271.15"/>

<path id="Layer2_34_1_STROKES" stroke="#FFFFFF" stroke-width="2" stroke-linejoin="miter" stroke-linecap="butt" stroke-miterlimit="4" fill="none" d="
M 87.8181182861328 190.42780914306644
L 101.56608886718749 191.17094268798832"/>

<path id="Layer2_35_1_STROKES" stroke="#FFFFFF" stroke-width="2" stroke-linejoin="miter" stroke-linecap="butt" stroke-miterlimit="4" fill="none" d="
M 114.19935913085936 189.68467559814457
L 126.4610626220703 189.68467559814457"/>

<path id="Layer0_0_1_STROKES" stroke="#000000" stroke-width="5" stroke-linejoin="round" stroke-linecap="round" fill="none" d="
M 190 100.2
Q 190 137.7 163.5 164.2 137 190.7 99.5 190.7 62 190.7 35.5 164.2 9 137.7 9 100.2 9 62.7 35.5 36.2 62 9.7 99.5 9.7 137 9.7 163.5 36.2 190 62.7 190 100.2 Z"/>
</defs>

<mask id="Mask_Mask_1">
<g transform="matrix( 1, 0, 0, 1, 0,0) ">
<use xlink:href="#Mask_3_MASK_0_FILL"/>
</g>
</mask>

<g mask="url(#Mask_Mask_1)">
<g transform="matrix( 1, 0, 0, 1, 0,0) ">
<use xlink:href="#Layer3_0_FILL"/>
</g>
</g>

<g mask="url(#Mask_Mask_1)">
<g transform="matrix( 1, 0, 0, 1, 0,0) ">
<use xlink:href="#Layer2_0_1_STROKES"/>
</g>

<g transform="matrix( 1, 0, 0, 1, 0,0) ">
<use xlink:href="#Layer2_1_FILL"/>
</g>

<g transform="matrix( 0.743133544921875, 0, 0, 0.743133544921875, -210.55,-110.95) ">
<use xlink:href="#Layer2_2_FILL"/>
</g>

<g transform="matrix( 0.743133544921875, 0, 0, 0.743133544921875, -210.55,-110.95) ">
<use xlink:href="#Layer2_3_FILL"/>
</g>

<g transform="matrix( 0.743133544921875, 0, 0, 0.743133544921875, -210.55,-110.95) ">
<use xlink:href="#Layer2_4_FILL"/>
</g>

<g transform="matrix( 0.743133544921875, 0, 0, 0.743133544921875, -210.55,-110.95) ">
<use xlink:href="#Layer2_5_FILL"/>
</g>

<g transform="matrix( 0.743133544921875, 0, 0, 0.743133544921875, -210.55,-110.95) ">
<use xlink:href="#Layer2_6_FILL"/>
</g>

<g transform="matrix( 0.743133544921875, 0, 0, 0.743133544921875, -210.55,-110.95) ">
<use xlink:href="#Layer2_7_FILL"/>
</g>

<g transform="matrix( 1, 0, 0, 1, 0,0) ">
<use xlink:href="#Layer2_8_FILL"/>
</g>

<g transform="matrix( 0.743133544921875, 0, 0, 0.743133544921875, -210.55,-110.95) ">
<use xlink:href="#Layer2_9_FILL"/>

<use xlink:href="#Layer2_9_1_STROKES" transform="matrix( 1.3456573486328125, 0, 0, 1.3456573486328125, 283.35,149.3) "/>
</g>

<g transform="matrix( 0.743133544921875, 0, 0, 0.743133544921875, -210.55,-110.95) ">
<use xlink:href="#Layer2_10_FILL"/>

<use xlink:href="#Layer2_10_1_STROKES" transform="matrix( 1.3456573486328125, 0, 0, 1.3456573486328125, 283.35,149.3) "/>
</g>

<g transform="matrix( 0.743133544921875, 0, 0, 0.743133544921875, -210.55,-110.95) ">
<use xlink:href="#Layer2_11_FILL"/>
</g>

<g transform="matrix( 0.743133544921875, 0, 0, 0.743133544921875, -210.55,-110.95) ">
<use xlink:href="#Layer2_12_FILL"/>
</g>

<g transform="matrix( 0.743133544921875, 0, 0, 0.743133544921875, 110.8,75.6) ">
<g transform="matrix( 1, 0, 0, 1, 0,0) ">
<use filter="url(#Filter_1)" xlink:href="#winnie___andy___mrs_chan_ai_Layer_1__Path__43_0_Layer0_0_FILL"/>
</g>
</g>

<g transform="matrix( 0.743133544921875, 0, 0, 0.743133544921875, 111.75,78.05) ">
<g transform="matrix( 1, 0, 0, 1, 0,0) ">
<use filter="url(#Filter_2)" xlink:href="#winnie___andy___mrs_chan_ai_Layer_1__Path__42_0_Layer0_0_FILL"/>
</g>
</g>

<g transform="matrix( 0.743133544921875, 0, 0, 0.743133544921875, 88.6,76.4) ">
<g transform="matrix( 1, 0, 0, 1, 0,0) ">
<use filter="url(#Filter_1)" xlink:href="#winnie___andy___mrs_chan_ai_Layer_1__Path__41_0_Layer0_0_FILL"/>
</g>
</g>

<g transform="matrix( 0.743133544921875, 0, 0, 0.743133544921875, 89.6,78.95) ">
<g transform="matrix( 1, 0, 0, 1, 0,0) ">
<use filter="url(#Filter_2)" xlink:href="#winnie___andy___mrs_chan_ai_Layer_1__Path__40_0_Layer0_0_FILL"/>
</g>
</g>

<g transform="matrix( 0.743133544921875, 0, 0, 0.743133544921875, 80.9,90) ">
<g transform="matrix( 1, 0, 0, 1, 0,0) ">
<use filter="url(#Filter_3)" xlink:href="#winnie___andy___mrs_chan_ai_Layer_1__Path__39_0_Layer0_0_FILL"/>
</g>
</g>

<g transform="matrix( 0.743133544921875, 0, 0, 0.743133544921875, 110.2,88.2) ">
<g transform="matrix( 1, 0, 0, 1, 0,0) ">
<use filter="url(#Filter_3)" xlink:href="#winnie___andy___mrs_chan_ai_Layer_1__Path__38_0_Layer0_0_FILL"/>
</g>
</g>

<g transform="matrix( 0.7431488037109375, 0, 0, 0.7431488037109375, -210.75,-110.95) ">
<use xlink:href="#Layer2_19_MEMBER_0_FILL"/>
</g>

<g transform="matrix( 0.743133544921875, 0, 0, 0.743133544921875, -210.55,-110.95) ">
<use xlink:href="#Layer2_20_FILL"/>
</g>

<g transform="matrix( 0.743133544921875, 0, 0, 0.743133544921875, -210.55,-110.95) ">
<use xlink:href="#Layer2_21_FILL"/>
</g>

<g transform="matrix( 0.743133544921875, 0, 0, 0.743133544921875, -210.55,-110.95) ">
<use xlink:href="#Layer2_22_FILL"/>
</g>

<g transform="matrix( 0.743133544921875, 0, 0, 0.743133544921875, -210.55,-110.95) ">
<use xlink:href="#Layer2_23_FILL"/>
</g>

<g transform="matrix( 0.743133544921875, 0, 0, 0.743133544921875, -210.55,-110.95) ">
<use xlink:href="#Layer2_24_FILL"/>
</g>

<g transform="matrix( 0.743133544921875, 0, 0, 0.743133544921875, -210.55,-110.95) ">
<use xlink:href="#Layer2_25_FILL"/>
</g>

<g transform="matrix( 0.743133544921875, 0, 0, 0.743133544921875, -210.55,-110.95) ">
<use xlink:href="#Layer2_26_FILL"/>
</g>

<g transform="matrix( 0.743133544921875, 0, 0, 0.743133544921875, -210.55,-110.95) ">
<use xlink:href="#Layer2_27_FILL"/>
</g>

<g transform="matrix( 0.743133544921875, 0, 0, 0.743133544921875, 55.5,39.7) ">
<g transform="matrix( 1, 0, 0, 1, 0,0) ">
<use filter="url(#Filter_4)" xlink:href="#winnie___andy___mrs_chan_ai_Layer_1__Path__29_0_Layer0_0_FILL"/>
</g>
</g>

<g transform="matrix( 0.743133544921875, 0, 0, 0.743133544921875, -210.55,-110.95) ">
<use xlink:href="#Layer2_29_FILL"/>
</g>

<g transform="matrix( 0.743133544921875, 0, 0, 0.743133544921875, 82.6,96.2) ">
<g transform="matrix( 1, 0, 0, 1, 0,0) ">
<use filter="url(#Filter_5)" xlink:href="#winnie___andy___mrs_chan_ai_Layer_1__Path__27_0_Layer0_0_FILL"/>
</g>
</g>

<g transform="matrix( 0.743133544921875, 0, 0, 0.743133544921875, -210.55,-110.95) ">
<use xlink:href="#Layer2_31_FILL"/>
</g>

<g transform="matrix( 0.743133544921875, 0, 0, 0.743133544921875, -210.55,-110.95) ">
<use xlink:href="#Layer2_32_FILL"/>
</g>

<g transform="matrix( 1, 0, 0, 1, 0,0) ">
<use xlink:href="#Layer2_33_1_STROKES"/>
</g>

<g transform="matrix( 0.743133544921875, 0, 0, 0.743133544921875, -210.55,-110.95) ">
<use xlink:href="#Layer2_34_1_STROKES" transform="matrix( 1.3456573486328125, 0, 0, 1.3456573486328125, 283.35,149.3) "/>
</g>

<g transform="matrix( 0.743133544921875, 0, 0, 0.743133544921875, -210.55,-110.95) ">
<use xlink:href="#Layer2_35_1_STROKES" transform="matrix( 1.3456573486328125, 0, 0, 1.3456573486328125, 283.35,149.3) "/>
</g>
</g>

<g transform="matrix( 1, 0, 0, 1, 0,0) ">
<use xlink:href="#Layer0_0_1_STROKES"/>
</g>
</svg>
