<?xml version="1.0" encoding="utf-8"?>
<!-- Generator: Adobe Illustrator 16.0.0, SVG Export Plug-In . SVG Version: 6.00 Build 0)  -->
<!DOCTYPE svg PUBLIC "-//W3C//DTD SVG 1.1//EN" "http://www.w3.org/Graphics/SVG/1.1/DTD/svg11.dtd">
<svg version="1.1" xmlns="http://www.w3.org/2000/svg" xmlns:xlink="http://www.w3.org/1999/xlink" x="0px" y="0px"
	 width="173.428px" height="295.796px" viewBox="0 0 173.428 295.796" enable-background="new 0 0 173.428 295.796"
	 xml:space="preserve">
<symbol  id="winnie__x26__andy__x26__mrs_chan.ai_Assets_x2F_Layer_1_x2F__x3C_Path_x3E__x5F_55" viewBox="0 -3.15 2.4 3.15">
	<path fill-rule="evenodd" clip-rule="evenodd" fill="#FDFDFC" d="M2.4-1.6c0-0.433-0.117-0.8-0.35-1.1C1.817-3,1.533-3.15,1.2-3.15
		C0.867-3.15,0.583-3,0.35-2.7C0.117-2.4,0-2.033,0-1.6c0,0.434,0.117,0.817,0.35,1.15C0.583-0.15,0.867,0,1.2,0
		c0.333,0,0.617-0.15,0.85-0.45C2.283-0.783,2.4-1.167,2.4-1.6z"/>
</symbol>
<symbol  id="winnie__x26__andy__x26__mrs_chan.ai_Assets_x2F_Layer_1_x2F__x3C_Path_x3E__x5F_56" viewBox="0 -4.7 3.1 4.7">
	<path fill-rule="evenodd" clip-rule="evenodd" fill="#FDFDFC" d="M3.1-2.35C3.1-2.983,2.95-3.533,2.65-4
		c-0.3-0.467-0.667-0.7-1.1-0.7c-0.433,0-0.8,0.233-1.1,0.7C0.15-3.533,0-2.983,0-2.35S0.15-1.167,0.45-0.7
		C0.75-0.233,1.117,0,1.55,0c0.434,0,0.8-0.233,1.1-0.7C2.95-1.167,3.1-1.717,3.1-2.35z"/>
</symbol>
<symbol  id="winnie__x26__andy__x26__mrs_chan.ai_Assets_x2F_Layer_1_x2F__x3C_Path_x3E__x5F_57" viewBox="0 -6.35 6.3 6.35">
	<path fill-rule="evenodd" clip-rule="evenodd" fill="#FDFDFC" d="M6.3-3.2c0-0.867-0.3-1.617-0.9-2.25
		c-0.633-0.6-1.383-0.9-2.25-0.9s-1.617,0.3-2.25,0.9C0.3-4.817,0-4.067,0-3.2s0.3,1.617,0.9,2.25C1.533-0.317,2.283,0,3.15,0
		S4.767-0.317,5.4-0.95C6-1.583,6.3-2.333,6.3-3.2z"/>
</symbol>
<symbol  id="winnie__x26__andy__x26__mrs_chan.ai_Assets_x2F_Layer_1_x2F__x3C_Path_x3E__x5F_58" viewBox="0 -21.25 21 21.25">
	<path fill-rule="evenodd" clip-rule="evenodd" fill="#ED8885" d="M21-10.65c0-2.934-1.017-5.434-3.05-7.5
		c-2.067-2.067-4.55-3.1-7.45-3.1s-5.367,1.033-7.4,3.1C1.033-16.083,0-13.583,0-10.65C0-7.717,1.033-5.2,3.1-3.1
		C5.133-1.033,7.6,0,10.5,0s5.383-1.033,7.45-3.1C19.983-5.2,21-7.717,21-10.65z"/>
</symbol>
<symbol  id="winnie__x26__andy__x26__mrs_chan.ai_Assets_x2F_Layer_1_x2F__x3C_Path_x3E__x5F_59" viewBox="0 -19.7 16.7 19.7">
	<path fill-rule="evenodd" clip-rule="evenodd" fill="#ED8885" d="M16.7-9.85c0-2.733-0.817-5.05-2.45-6.95
		c-1.633-1.934-3.6-2.9-5.9-2.9c-2.3,0-4.267,0.967-5.9,2.9C0.817-14.9,0-12.583,0-9.85S0.817-4.8,2.45-2.9
		C4.083-0.967,6.05,0,8.35,0c2.3,0,4.267-0.967,5.9-2.9C15.883-4.8,16.7-7.117,16.7-9.85z"/>
</symbol>
<symbol  id="winnie__x26__andy__x26__mrs_chan.ai_Assets_x2F_Layer_1_x2F__x3C_Path_x3E__x5F_60" viewBox="0 -3.15 2.35 3.15">
	<path fill-rule="evenodd" clip-rule="evenodd" fill="#FDFDFC" d="M2.35-1.55C2.35-2.017,2.233-2.4,2-2.7C1.8-3,1.533-3.15,1.2-3.15
		C0.867-3.15,0.583-3,0.35-2.7C0.117-2.367,0-1.983,0-1.55c0,0.433,0.117,0.8,0.35,1.1C0.583-0.15,0.867,0,1.2,0
		C1.533,0,1.8-0.15,2-0.45C2.233-0.75,2.35-1.117,2.35-1.55z"/>
</symbol>
<symbol  id="winnie__x26__andy__x26__mrs_chan.ai_Assets_x2F_Layer_1_x2F__x3C_Path_x3E__x5F_61" viewBox="0 -4.7 3.05 4.7">
	<path fill-rule="evenodd" clip-rule="evenodd" fill="#FDFDFC" d="M3.05-2.35C3.05-3.017,2.9-3.567,2.6-4
		C2.333-4.467,1.983-4.7,1.55-4.7c-0.433,0-0.8,0.233-1.1,0.7C0.15-3.533,0-2.983,0-2.35S0.15-1.167,0.45-0.7
		C0.75-0.233,1.117,0,1.55,0C1.983,0,2.333-0.233,2.6-0.7C2.9-1.133,3.05-1.683,3.05-2.35z"/>
</symbol>
<symbol  id="winnie__x26__andy__x26__mrs_chan.ai_Assets_x2F_Layer_1_x2F__x3C_Path_x3E__x5F_63" viewBox="0 -19.154 5.1 19.154">
	<path fill-rule="evenodd" clip-rule="evenodd" fill="#EEBB83" d="M4.9,0C4.933-2.133,5-5.533,5.1-10.2c0-4-0.15-6.983-0.45-8.95
		c-0.333-0.033-0.667,0.117-1,0.45c-1.233,0.833-2.083,1.417-2.55,1.75c-0.733,0.534-1.1,1-1.1,1.4c0,0.267,0.383,0.85,1.15,1.75
		c0.833,0.933,1.317,1.833,1.45,2.7l1.8,10C4.533-0.633,4.7-0.267,4.9,0z"/>
</symbol>
<symbol  id="winnie__x26__andy__x26__mrs_chan.ai_Assets_x2F_Layer_1_x2F__x3C_Path_x3E__x5F_69" viewBox="-0.005 -170 72.257 170">
	<path fill-rule="evenodd" clip-rule="evenodd" fill="#4D4C38" d="M45.5-9.45c0.667-1.3,2.65-3.316,5.95-6.05
		c6.1-5.033,9.316-7.7,9.65-8c8.433-7.5,12.083-14.15,10.95-19.95c-0.367-1.867-0.466-3.95-0.3-6.25c0.2-2.6,0.25-4.267,0.15-5
		c-0.367-3.5-3.467-7.4-9.3-11.7l-3.75-2.55c-2.7-2.7-4.4-4.75-5.1-6.15c0-2.033,0.05-3.367,0.15-4c0.133-1,0.483-1.667,1.05-2
		c0.566-0.367,2.117-0.967,4.65-1.8c2.467-1.133,4.283-2.817,5.45-5.05c1.733-3.267,0.45-6.65-3.85-10.15
		c-2.233-1.833-5.133-3.833-8.7-6c-1.633-1.633-2.383-2.75-2.25-3.35c0.133-0.667,1.533-2.333,4.2-5c2.333-2.3,2.55-4.867,0.65-7.7
		c-0.167-0.233-1.717-1.817-4.65-4.75c-1.3-1.333-2.233-2.35-2.8-3.05c-1.1-1.466-1.65-2.8-1.65-4c0-0.933,0.117-3.083,0.35-6.45
		c-0.167-3-1.317-4.684-3.45-5.05c-1.367-0.233-2.717-0.933-4.05-2.1c-0.633-0.567-1.15-1.117-1.55-1.65l1.55-1.1
		c0.933-1.1,1.083-2.517,0.45-4.25c-0.333-0.967-1.333-1.867-3-2.7c-2.033-1.067-3.216-1.75-3.55-2.05
		c-0.833-0.867-1.25-1.517-1.25-1.95c0-0.467,0.483-1.2,1.45-2.2c0.8-0.8,0.316-2.466-1.45-5c-0.867-1.267-1.817-2.45-2.85-3.55
		c0.5,0.7,0.934,1.45,1.3,2.25c0.733,1.633,0.833,2.733,0.3,3.3c-0.333,0.3-1.117,0.733-2.35,1.3c-0.733,0.333-1.3,1.167-1.7,2.5
		c-0.7,2.3-0.333,3.633,1.1,4c0.934,0.2,1.45,0.333,1.55,0.4c0.433,0.267,0.566,0.783,0.4,1.55c-0.533,2.233-0.333,3.85,0.6,4.85
		c0.633,0.733,0.683,1.367,0.15,1.9c-2.367,2.333-2.833,4.65-1.4,6.95c0.033,0.1,0.667,0.95,1.9,2.55
		c0.733,0.934,1.1,1.717,1.1,2.35c0,2.067-0.3,3.4-0.9,4c-0.633,0.6-1.95,0.9-3.95,0.9c-3.367,0-5.15,0.75-5.35,2.25
		c0.4,1.667,0.434,2.667,0.1,3c-0.267,0.267-0.517,0.284-0.75,0.05c-0.367-0.367-1.083-0.383-2.15-0.05
		c-1.833,0.567-2.85,1.483-3.05,2.75l0.2,1.75c0.433,0.2,0.617,0.45,0.55,0.75c-0.133,0.567-1.4,1.067-3.8,1.5
		c-2.633,0.467-2.683,2.267-0.15,5.4c3.2,3.133,4.917,4.833,5.15,5.1c1.033,0.6,1.767,1.184,2.2,1.75c0.867,1,0.667,2.133-0.6,3.4
		c-2.8,2.8-3.967,5.267-3.5,7.4c0.133,0.633,0.417,1.217,0.85,1.75l0.65,0.55c-4.133,0.9-7.15,2.383-9.05,4.45
		c-1.8,2.7-3.316,4.85-4.55,6.45c-0.933,1.167-1.017,2.35-0.25,3.55c0.667,1.133,0.95,1.733,0.85,1.8
		c-2.6,2.434-3.967,4.817-4.1,7.15c-0.067,1.4,0.483,3.534,1.65,6.4c0.333,0.867,1.317,2.383,2.95,4.55
		c1.033,1.4,1.333,2.583,0.9,3.55c-3.233,7.233-3.933,16.1-2.1,26.6C3.8-26.983,5.95-18.9,9.85-5.1c1.033-0.8,1.8-2.45,2.3-4.95
		c1.033-5.034,0.267-11.833-2.3-20.4C7.083-39.717,6.983-47.233,9.55-53c2.034-4.533,5.267-7.35,9.7-8.45
		c2.1-0.533,3.867-0.6,5.3-0.2c0.867,0.267,2.35,0.783,4.45,1.55c1.033,0.267,3.05-0.417,6.05-2.05c2.967-1.667,6.067-2.033,9.3-1.1
		c4.3,1.233,6.967,3.883,8,7.95c0.333,2,0.566,3.383,0.7,4.15c0.267,1.267,0.684,2,1.25,2.2c0.867,0.3,1.833,0.267,2.9-0.1
		c0.6-0.2,1.55,0.35,2.85,1.65c3.267,3.267,4.934,6.967,5,11.1c0.067,4.433-1.867,7.933-5.8,10.5
		c-4.467,2.933-8.167,6.583-11.1,10.95c-3.267,4.934-4.9,9.883-4.9,14.85C43.817-4.533,44.567-7.683,45.5-9.45z"/>
</symbol>
<symbol  id="winnie__x26__andy__x26__mrs_chan.ai_Assets_x2F_Layer_1_x2F__x3C_Path_x3E__x5F_81" viewBox="-0.042 -130.2 69.342 130.2">
	<path fill-rule="evenodd" clip-rule="evenodd" fill="#4D4C38" d="M63.7-6.45c0.333,1.333,0.667,3.483,1,6.45
		c1.3-3,2.367-6.183,3.2-9.55c0.934-3.8,1.4-7.184,1.4-10.15c0-3.267-0.783-6.683-2.35-10.25c-2.667-6.167-7.3-11.6-13.9-16.3
		c-1.5-2.633-1.333-6.217,0.5-10.75c0.867-2.133,1.333-3.683,1.4-4.65c0.133-1.633-0.417-3.067-1.65-4.3
		c-0.667-0.667-1.833-1.2-3.5-1.6c-0.966-0.6-0.633-1.983,1-4.15c1.167-1.566,1.383-2.917,0.65-4.05
		c-0.534-0.833-2.417-2.45-5.65-4.85l-3-1.95c-0.667-0.667-0.417-1.5,0.75-2.5c1.5-1.267,2.25-2.483,2.25-3.65
		c0-2.333-0.4-4.083-1.2-5.25c-1.333-1.966-4.1-3.583-8.3-4.85l-2.2-1.6c-1.267-1.233-1.417-2.333-0.45-3.3
		c2.367-2.333,4.033-4.867,5-7.6c1.133-3.167,0.65-5.25-1.45-6.25c-3.2-1.534-4.25-3.717-3.15-6.55c0.2-0.533,0.767-1.65,1.7-3.35
		c0.7-1.233,1.05-2.15,1.05-2.75c-0.767,0.434-1.55,0.967-2.35,1.6c-1.567,1.333-2.35,2.567-2.35,3.7c0,0.367-0.35,1.217-1.05,2.55
		c-0.6,1.2-0.767,2.067-0.5,2.6c0.534,0.733,0.934,1.3,1.2,1.7c0.467,0.767,0.733,1.833,0.8,3.2c0.1,2.567-0.1,4.067-0.6,4.5
		c-0.5,0.434-2.3,0.65-5.4,0.65c-1.466,0-2.4,0.6-2.8,1.8c-0.3,0.9-0.3,1.883,0,2.95c-2.333,0-3.717,0.383-4.15,1.15
		c-0.367,0.633-0.55,2.7-0.55,6.2c0,4.067,0.534,6.717,1.6,7.95c-2.566,0.2-4.367,0.9-5.4,2.1c-1.4,1.633-2.383,4.917-2.95,9.85
		c-1.167,1.934-2.066,3.467-2.7,4.6c-1.167,2.067-0.7,3.667,1.4,4.8c-3.5,1-5.633,2.683-6.4,5.05c-0.2,0.667-0.3,2.85-0.3,6.55
		c0,1.034,2.284,3.267,6.85,6.7c1.1,1.5,1.65,2.933,1.65,4.3c0,2.1-0.95,3.3-2.85,3.6c-2.733,0.4-4.45,0.95-5.15,1.65
		C2.533-38.183,1.017-34.3,0.25-28.8c-0.967,6.966,0.467,13,4.3,18.1C5.217-9.833,6.767-8.017,9.2-5.25
		c-0.934-2.6-2.067-5.25-3.4-7.95c-2.667-5.433-3.283-9.216-1.85-11.35c1.1-1.6,3.65-2.417,7.65-2.45
		c0.9-0.033,2.083-0.917,3.55-2.65s2.667-2.583,3.6-2.55c1.167,0,2.483,0.684,3.95,2.05c1.3,1.233,2.3,1.717,3,1.45
		c2.3-0.867,4.716-2.883,7.25-6.05c2.233-2.733,3.966-4.1,5.2-4.1c4.5,0,7.367,0.867,8.6,2.6c0.3,0.433,0.617,1.033,0.95,1.8
		c0.333,0.534,0.85,0.8,1.55,0.8c4,0,6.967,1.383,8.9,4.15c1.8,2.667,1.817,4.867,0.05,6.6c-2.6,2.633-3.667,4.7-3.2,6.2
		c0.333,1.133,2.133,2.833,5.4,5.1C62.033-10.467,63.133-8.75,63.7-6.45z"/>
</symbol>
<symbol  id="winnie__x26__andy__x26__mrs_chan.ai_Assets_x2F_Layer_1_x2F__x3C_Path_x3E__x5F_91" viewBox="0 -3.15 2.25 3.15">
	<path fill-rule="evenodd" clip-rule="evenodd" fill="#FDFDFC" d="M2.25-1.6c0-0.433-0.117-0.8-0.35-1.1C1.7-3,1.433-3.15,1.1-3.15
		C0.8-3.15,0.55-3,0.35-2.7C0.117-2.4,0-2.033,0-1.6c0,0.434,0.117,0.817,0.35,1.15C0.55-0.15,0.8,0,1.1,0
		c0.333,0,0.6-0.15,0.8-0.45C2.133-0.783,2.25-1.167,2.25-1.6z"/>
</symbol>
<symbol  id="winnie__x26__andy__x26__mrs_chan.ai_Assets_x2F_Layer_1_x2F__x3C_Path_x3E__x5F_92" viewBox="0 -4.7 2.9 4.7">
	<path fill-rule="evenodd" clip-rule="evenodd" fill="#FDFDFC" d="M2.9-2.35C2.9-3.017,2.767-3.567,2.5-4
		C2.2-4.467,1.85-4.7,1.45-4.7c-0.4,0-0.733,0.233-1,0.7C0.15-3.567,0-3.017,0-2.35C0-1.717,0.15-1.167,0.45-0.7
		c0.267,0.467,0.6,0.7,1,0.7C1.85,0,2.2-0.233,2.5-0.7C2.767-1.167,2.9-1.717,2.9-2.35z"/>
</symbol>
<g id="Layer_97">
	<g id="Layer_2">
		
			<polygon fill-rule="evenodd" clip-rule="evenodd" fill="none" stroke="#73C6AC" stroke-width="9" stroke-linecap="round" stroke-linejoin="round" stroke-miterlimit="3" points="
			70.528,116.646 71.028,116.896 71.078,118.146 		"/>
		
			<path fill-rule="evenodd" clip-rule="evenodd" fill="none" stroke="#000000" stroke-width="9" stroke-linecap="round" stroke-linejoin="round" stroke-miterlimit="3" d="
			M107.428,12.846h-4.35c-1.9-2.933-5.066-5.2-9.5-6.8c-8.933-3.2-19.816-1.434-32.65,5.3c-8,4.167-14.283,11.817-18.85,22.95
			c-2.767,6.7-5.033,15.3-6.8,25.8l-0.75,4.6c-1.6,11.267-2.934,18.85-4,22.75c-1.2,4.367-3.617,10.05-7.25,17.05
			c-3.033,5.867-6.15,10.617-9.35,14.25l-0.35,0.4l0.15-0.351c-2.433,2.767-3.983,4.584-4.65,5.45
			c-3.733,4.967-5.183,10.851-4.35,17.65c0.667,5.3,2.117,9.25,4.35,11.85l0.35,0.351c0.233,0.233,0.55,0.483,0.95,0.75l0.55,0.25
			l1.05,0.35h0.1c0.7,0.134,1.7,0.283,3,0.45h0.1l0.5,0.149l0.45,0.2l0.1,0.101l0.3,0.199l0.05,0.051c0.5,0.6,0.75,1.483,0.75,2.649
			c0,1.367-0.55,2.8-1.65,4.3c-4.567,3.434-6.85,5.667-6.85,6.7c0,1-0.017,2.517-0.05,4.55c0.133,1.733,0.683,3.15,1.65,4.25
			c1.133,1.233,2.8,2.167,5,2.801c-2.033,1.166-2.467,2.783-1.3,4.85c0.133,0.267,0.683,1.083,1.65,2.45
			c0.633,0.899,0.983,1.6,1.05,2.1c0.6,5,1.617,8.316,3.05,9.95c0.433,0.467,0.85,0.816,1.25,1.05
			c-1.233,17.3-2.017,37.334-2.35,60.101c-0.133,11.366-0.167,21.017-0.1,28.949l129.25-0.5c0-20.1-0.367-43.983-1.1-71.649
			l0.25-0.25c1.567-1.267,2.817-2.467,3.75-3.601l-0.05,0.051l0.1-0.15c0.966-1.134,1.6-2.233,1.9-3.3l0.05-0.101l0.1-0.35v-0.2
			l0.1-0.5v-0.85l-0.25-1.101l-0.55-1.149l-0.15-0.15l-0.05-0.149l-0.9-1c-1.5-1.5-2.483-2.517-2.95-3.051l-0.15-0.149l-0.9-1.25
			l-0.1-0.25c-0.2-0.533-0.133-1.05,0.2-1.55l0.25-0.101c0.167-0.267,0.8-0.95,1.9-2.05c2.867-1.8,5.316-3.45,7.35-4.95
			c3.9-2.866,5.883-5.616,5.95-8.25l-0.2,0.05l-0.05-0.649v-0.05l-0.1-0.65v-0.1l-0.25-0.75l-1.05-1.95l-1.1-1.3l-0.9-0.851
			l-1.25-0.899l-0.75-0.4l-0.15-0.1l-1.35-0.601c-1.934-0.633-3.167-1.083-3.7-1.35l-0.6-0.45l-0.3-0.4l-0.1-0.199l-0.25-0.95
			l-0.05-0.3l-0.1-3.851c0.7-1.399,2.4-3.45,5.1-6.149l3.75-2.551c5.833-4.3,8.933-8.199,9.3-11.699c0.1-0.733,0.05-2.4-0.15-5
			c-0.167-2.301-0.067-4.384,0.3-6.25l0.2-1.2l-0.1-2.9l-1.25-4l-1.9-3.3l-0.8-1.05v-0.101c-1.233-1.633-2.784-3.333-4.65-5.1
			l-1-0.95c-1.7-1.6-4.033-3.6-7-6c-3.3-2.666-5.367-4.366-6.2-5.1l-1.65-1.5v-0.05l-1.35-1.45c-0.367-0.467-0.65-0.9-0.85-1.3
			l-0.4-0.85l-0.35-1.05l-0.05-0.05l-0.6-2.45l-1.05-7l-0.8-13.85l-0.05-0.1l-0.05-6.4l-0.05-0.35l-0.2-6l-0.05-0.3l-0.05-0.95
			l-0.05-0.2c-0.5-5.867-1.333-11.483-2.5-16.85c-1.567-7.267-3.567-12.967-6-17.1c-3.333-5.633-7.3-10-11.9-13.1
			C114.162,14.146,110.628,12.846,107.428,12.846z"/>
	</g>
</g>
<g id="Layer_96">
	<path fill-rule="evenodd" clip-rule="evenodd" fill="#2D3633" d="M91.728,137.646c2.8,0.733,11.684,3.833,26.65,9.3
		c6.1,2.2,10.133,3.7,12.1,4.5c5.833,2.467,9.817,4.767,11.95,6.9c2.1,2.1,3.65,23.433,4.65,64
		c0.567,24.166,0.85,46.983,0.85,68.449l-129.3,0.5c-0.2-21.232,0.15-42.783,1.05-64.649c1.767-43.733,5.35-67.167,10.75-70.3
		c4.8-2.767,12.633-6.184,23.5-10.25c11.267-4.2,18.1-6.95,20.5-8.25C78.395,135.713,84.162,135.646,91.728,137.646z"/>
</g>
<g id="Layer_95">
	<path fill-rule="evenodd" clip-rule="evenodd" fill="#F4E7C9" d="M74.428,137.847c3.3-1.801,7.683-2.184,13.15-1.15
		c4.033,0.733,10.317,2.684,18.85,5.85l3.5,6.45c-2.267,13.834-5.95,26.066-11.05,36.7c-1.567,3.3-4.633,8.483-9.2,15.55
		c-1,1.566-2.5,3.2-4.5,4.9c-1.033,0.833-1.95,1.517-2.75,2.05c-0.7-0.434-1.533-1.083-2.5-1.95c-1.967-1.7-3.633-3.55-5-5.55
		c-4.133-5.967-8.433-16.217-12.9-30.75l-5.45-19.95c0.7-2.133,1.55-4.066,2.55-5.8C66.961,141.229,72.062,139.113,74.428,137.847z"
		/>
</g>
<g id="Layer_94">
	<path fill-rule="evenodd" clip-rule="evenodd" fill="#A1A07F" d="M107.428,12.846c3.2,0,6.733,1.3,10.6,3.9
		c4.6,3.1,8.566,7.467,11.9,13.1c3.1,5.233,5.483,12.934,7.15,23.1c1.133,6.933,1.7,12.567,1.7,16.9c0,17.934,1.133,29.1,3.4,33.5
		c0.667,1.3,2.65,3.317,5.95,6.05c6.1,5.033,9.316,7.7,9.65,8c8.433,7.5,12.083,14.149,10.95,19.95
		c-0.367,1.866-0.466,3.949-0.3,6.25c0.2,2.6,0.25,4.267,0.15,5c-0.367,3.5-3.467,7.399-9.3,11.699l-3.75,2.551
		c-2.7,2.699-4.4,4.75-5.1,6.149c0,2.033,0.05,3.367,0.15,4c0.133,1,0.483,1.667,1.05,2c0.566,0.367,2.117,0.967,4.65,1.8
		c2.467,1.134,4.283,2.817,5.45,5.051c1.733,3.267,0.45,6.649-3.85,10.149c-2.233,1.833-5.133,3.833-8.7,6
		c-1.633,1.634-2.383,2.75-2.25,3.351c0.133,0.666,1.533,2.333,4.2,5c2.333,2.3,2.55,4.866,0.65,7.699
		c-0.167,0.233-1.717,1.817-4.65,4.75c-1.3,1.334-2.233,2.351-2.8,3.051c-1.1,1.466-1.65,2.8-1.65,4c0,0.933,0.117,3.083,0.35,6.449
		c-0.167,3-1.317,4.684-3.45,5.051c-1.367,0.233-2.717,0.933-4.05,2.1c-0.633,0.566-1.15,1.117-1.55,1.65l1.55,1.1
		c0.933,1.1,1.083,2.517,0.45,4.25c-0.333,0.967-1.333,1.867-3,2.7c-2.033,1.066-3.216,1.75-3.55,2.05
		c-0.833,0.867-1.25,1.517-1.25,1.95c0,0.467,0.483,1.2,1.45,2.2c0.8,0.8,0.316,2.467-1.45,5c-0.867,1.267-1.817,2.449-2.85,3.55
		c0.5-0.7,0.934-1.45,1.3-2.25c0.733-1.634,0.833-2.733,0.3-3.3c-0.333-0.301-1.117-0.733-2.35-1.301
		c-0.733-0.333-1.3-1.166-1.7-2.5c-0.7-2.3-0.333-3.633,1.1-4c0.934-0.199,1.45-0.333,1.55-0.399c0.433-0.267,0.566-0.783,0.4-1.55
		c-0.533-2.233-0.333-3.851,0.6-4.851c0.633-0.733,0.683-1.366,0.15-1.899c-2.367-2.334-2.833-4.65-1.4-6.95
		c0.033-0.101,0.667-0.95,1.9-2.55c0.733-0.934,1.1-1.717,1.1-2.351c0-2.066-0.3-3.399-0.9-4c-0.633-0.6-1.95-0.899-3.95-0.899
		c-3.367,0-5.15-0.75-5.35-2.25c0.4-1.667,0.434-2.667,0.1-3c-0.267-0.268-0.517-0.284-0.75-0.051
		c-0.367,0.367-1.083,0.384-2.15,0.051c-1.833-0.567-2.85-1.483-3.05-2.75l0.2-1.75c0.433-0.2,0.617-0.45,0.55-0.75
		c-0.133-0.567-1.4-1.067-3.8-1.5c-2.633-0.467-2.683-2.268-0.15-5.4c3.2-3.134,4.917-4.833,5.15-5.1
		c1.033-0.601,1.767-1.184,2.2-1.75c0.867-1,0.667-2.134-0.6-3.4c-2.8-2.8-3.967-5.267-3.5-7.4c0.133-0.633,0.417-1.217,0.85-1.75
		l0.65-0.55c-4.133-0.899-7.15-2.383-9.05-4.45c-1.8-2.699-3.316-4.85-4.55-6.449c-0.933-1.167-1.017-2.351-0.25-3.551
		c0.667-1.133,0.95-1.733,0.85-1.8c-2.6-2.434-3.967-4.816-4.1-7.149c-0.067-1.4,0.483-3.534,1.65-6.4
		c0.333-0.866,1.317-2.384,2.95-4.55c1.033-1.4,1.333-2.584,0.9-3.55c-3.233-7.233-3.933-16.101-2.1-26.601
		c0.4-2.366,2.55-10.45,6.45-24.25c0.367-1.333-5.983-0.8-19.05,1.6c-13.133,2.4-20.483,4.567-22.05,6.5
		c1.767,1.6,3.583,5.1,5.45,10.5c2.033,5.866,3.05,11.116,3.05,15.75c0,3.233-0.783,6.649-2.35,10.25
		c-2.7,6.166-7.333,11.6-13.9,16.3c-1.5,2.633-1.333,6.217,0.5,10.75c0.867,2.133,1.333,3.684,1.4,4.649
		c0.133,1.634-0.417,3.067-1.65,4.301c-0.667,0.666-1.833,1.199-3.5,1.6c-0.967,0.6-0.633,1.983,1,4.15
		c1.167,1.566,1.383,2.916,0.65,4.05c-0.533,0.833-2.417,2.45-5.65,4.85l-3,1.95c-0.667,0.667-0.417,1.5,0.75,2.5
		c1.5,1.267,2.25,2.483,2.25,3.65c0,2.3-0.417,4.05-1.25,5.25c-1.333,1.933-4.1,3.55-8.3,4.85l-2.15,1.6
		c-1.267,1.233-1.417,2.334-0.45,3.301c2.367,2.333,4.033,4.866,5,7.6c1.133,3.167,0.65,5.25-1.45,6.25
		c-3.2,1.533-4.25,3.717-3.15,6.55c0.2,0.533,0.767,1.65,1.7,3.351c0.7,1.233,1.05,2.149,1.05,2.75
		c-0.767-0.434-1.55-0.967-2.35-1.601c-1.566-1.333-2.35-2.566-2.35-3.7c0-0.333-0.35-1.183-1.05-2.55c-0.6-1.2-0.767-2.066-0.5-2.6
		c0.533-0.733,0.933-1.3,1.2-1.7c0.466-0.767,0.733-1.833,0.8-3.2c0.067-2.566-0.15-4.066-0.65-4.5s-2.283-0.649-5.35-0.649
		c-1.467,0-2.4-0.601-2.8-1.801c-0.3-0.899-0.3-1.883,0-2.949c-2.333,0-3.717-0.384-4.15-1.15c-0.367-0.634-0.55-2.7-0.55-6.2
		c0-4.1,0.517-6.767,1.55-8c-2.533-0.167-4.316-0.85-5.35-2.05c-1.4-1.634-2.383-4.917-2.95-9.85c-0.067-0.5-0.417-1.217-1.05-2.15
		c-0.967-1.367-1.517-2.184-1.65-2.45c-1.167-2.066-0.716-3.684,1.35-4.85c-3.5-1-5.617-2.667-6.35-5c-0.2-0.634-0.3-2.816-0.3-6.55
		c0-1.134,2.283-3.367,6.85-6.7c1.1-1.5,1.65-2.934,1.65-4.3c0-2.101-0.95-3.301-2.85-3.601c-2.733-0.399-4.45-0.95-5.15-1.649
		c-2.267-2.267-3.783-6.15-4.55-11.65c-0.967-6.967,0.466-13,4.3-18.1c2.667-3.067,4.717-5.467,6.15-7.2
		c2.533-3.134,5.184-7.351,7.95-12.65c3.6-6.933,6.033-12.983,7.3-18.15c0.434-1.8,2-10.55,4.7-26.25
		c1.767-10.5,4.033-19.1,6.8-25.8c4.567-11.133,10.85-18.783,18.85-22.95c12.833-6.733,23.717-8.5,32.65-5.3
		c4.434,1.6,7.6,3.867,9.5,6.8H107.428z"/>
</g>
<g id="Layer_93">
	<path fill-rule="evenodd" clip-rule="evenodd" fill="#8D8A6C" d="M57.678,159.896c-1,1.767-1.367,3.684-1.1,5.75
		c-15.333,10.5-29.083,18.116-41.25,22.85c-0.7-0.967-1.167-1.717-1.4-2.25c-0.4-0.866-0.5-1.633-0.3-2.3
		c15.433-5,32.733-15.35,51.9-31.05C63.295,155.43,60.678,157.763,57.678,159.896z"/>
</g>
<g id="Layer_92">
	<path fill-rule="evenodd" clip-rule="evenodd" fill="#A1A07F" d="M54.528,139.896c-11.333,10.467-25.85,19.684-43.55,27.649
		c1.2-1.1,2.8-2.399,4.8-3.899c1.1-1.5,1.65-2.934,1.65-4.3c0-1.733-0.567-2.834-1.7-3.301c-1.566-0.199-2.8-0.399-3.7-0.6
		c11.5-2.267,24.467-9.467,38.9-21.6c11.1-9.367,16.683-15.65,16.75-18.851l1.8-1c0.567,1.334,1.184,2.983,1.85,4.95
		C67.628,125.946,62.028,132.93,54.528,139.896z"/>
</g>
<g id="Layer_91">
	<path fill-rule="evenodd" clip-rule="evenodd" fill="#7C785D" d="M56.378,188.746c-0.233,0.667-0.85,1.434-1.85,2.3
		c-0.6,0.533-1.967,1.601-4.1,3.2l-3,1.95c-0.667,0.667-0.417,1.5,0.75,2.5c1.5,1.267,2.25,2.483,2.25,3.65
		c0,1.466-0.117,2.6-0.35,3.399c-0.4,1.3-1.183,2.434-2.35,3.4c-8.833,3.166-15.566,6.3-20.2,9.399c-1.9-0.033-3.033-0.483-3.4-1.35
		c-0.3-0.634-0.45-2.617-0.45-5.95c0-3.633,0.417-6.133,1.25-7.5c3.933-1.899,8.467-4.366,13.6-7.399
		C44.361,192.88,50.312,190.347,56.378,188.746z"/>
</g>
<g id="Layer_90">
	<path fill-rule="evenodd" clip-rule="evenodd" fill="#565343" d="M35.178,233.396c0.2-0.367,0.417-0.7,0.65-1
		c2.4-2,4.934-4.283,7.6-6.851c0.867,2.834,0.333,4.717-1.6,5.65c-3.2,1.533-4.25,3.717-3.15,6.55c0.2,0.533,0.767,1.65,1.7,3.351
		c0.7,1.233,1.05,2.149,1.05,2.75c-0.767-0.434-1.55-0.967-2.35-1.601c-1.566-1.333-2.35-2.566-2.35-3.7
		c0-0.333-0.35-1.183-1.05-2.55C35.078,234.796,34.912,233.93,35.178,233.396z"/>
</g>
<g id="Layer_89">
	<path fill-rule="evenodd" clip-rule="evenodd" fill="#7C785D" d="M73.928,133.347c0,2.267-0.417,4.699-1.25,7.3
		c-1.4,4.366-3.783,8.45-7.15,12.25c-19.167,15.7-36.467,26.05-51.9,31.05c0.3-0.8,0.95-1.483,1.95-2.05c-3.5-1-5.617-2.667-6.35-5
		c-0.2-0.634-0.3-2.816-0.3-6.55c0-0.601,0.683-1.534,2.05-2.801c17.7-7.966,32.217-17.183,43.55-27.649
		c7.5-6.967,13.1-13.95,16.8-20.95C73.062,124.312,73.928,129.113,73.928,133.347z"/>
</g>
<g id="Layer_88">
	<path fill-rule="evenodd" clip-rule="evenodd" fill="#6A6650" d="M54.428,181.196c-0.967,0.6-0.633,1.983,1,4.15
		c1,1.366,1.317,2.5,0.95,3.399c-6.067,1.601-12.017,4.134-17.85,7.601c-5.133,3.033-9.667,5.5-13.6,7.399l0.3-0.5
		c-2.533-0.167-4.316-0.85-5.35-2.05c-1.4-1.634-2.383-4.917-2.95-9.85c-0.067-0.5-0.6-1.45-1.6-2.851
		c12.167-4.733,25.917-12.35,41.25-22.85c0.267,1.8,1.1,4.283,2.5,7.45c0.867,2.699,0.483,4.866-1.15,6.5
		C57.262,180.263,56.095,180.796,54.428,181.196z"/>
</g>
<g id="Layer_87">
	<path fill-rule="evenodd" clip-rule="evenodd" fill="#6A6650" d="M38.728,214.046c-1.267,1.233-1.417,2.334-0.45,3.301
		c1.133,1.1,2.167,2.383,3.1,3.85c0.966,1.533,1.65,2.983,2.05,4.35c-2.133,2.101-4.667,4.4-7.6,6.9
		c0.434-0.467,0.733-0.917,0.9-1.35c0.267-0.634,0.417-1.5,0.45-2.601c0.1-2.533-0.1-4.017-0.6-4.45c-0.5-0.433-2.3-0.649-5.4-0.649
		c-1.467,0-2.4-0.601-2.8-1.8c-0.3-0.934-0.3-1.934,0-3h-0.85c4.6-3.034,11.333-6.184,20.2-9.45c-1.466,1.267-3.733,2.383-6.8,3.35
		L38.728,214.046z"/>
</g>
<g id="Layer_86">
	<path fill-rule="evenodd" clip-rule="evenodd" fill="#8D8A6C" d="M9.178,124.347c0.733-0.967,2.317-2.834,4.75-5.601
		c6.567-3.767,13.333-9.3,20.3-16.6c6.434-6.733,10.567-12.233,12.4-16.5c1.9-4.4,5.6-1.15,11.1,9.75
		c2.767,5.466,5.333,11.367,7.7,17.7l1.3,0.25c0.8,0.366,1.1,1.083,0.9,2.149c-0.6,3.367-6.167,9.483-16.7,18.351
		c-14.433,12.133-27.4,19.333-38.9,21.6c-1.1-0.233-1.967-0.684-2.6-1.35c-2.267-2.267-3.783-6.15-4.55-11.65
		C3.912,135.479,5.345,129.446,9.178,124.347z"/>
</g>
<g id="Layer_85">
	<path fill-rule="evenodd" clip-rule="evenodd" fill="#6A6650" d="M135.428,247.347c-0.5,0.666-1.5,1.366-3,2.1
		c-1.6,0.767-2.6,1.35-3,1.75c-0.833,0.867-1.25,1.517-1.25,1.95c0,0.467,0.483,1.2,1.45,2.2c0.8,0.8,0.316,2.467-1.45,5
		c-0.867,1.267-1.817,2.449-2.85,3.55c0.5-0.7,0.934-1.45,1.3-2.25c0.733-1.634,0.833-2.733,0.3-3.3
		c-0.333-0.301-1.117-0.733-2.35-1.301c-0.733-0.333-1.3-1.166-1.7-2.5c-0.6-2.033-0.45-3.283,0.45-3.75
		c1.233-0.199,2.017-0.466,2.35-0.8C127.278,249.529,130.528,248.646,135.428,247.347z"/>
</g>
<g id="Layer_84">
	<path fill-rule="evenodd" clip-rule="evenodd" fill="#565343" d="M125.978,248.746c-0.466-2.033-0.367-3.55,0.3-4.55
		c0.667-0.934,0.983-1.434,0.95-1.5c2.267-0.833,4.817-1.65,7.65-2.45l-0.85,0.95l1.55,1.15c0.934,1.1,1.083,2.517,0.45,4.25
		c-0.133,0.333-0.317,0.633-0.55,0.899c-2.367,0.567-5.617,1.45-9.75,2.65C126.028,249.88,126.111,249.413,125.978,248.746z"/>
</g>
<g id="_x3C_Path_x3E__x5F_92">
	
		<use xlink:href="#winnie__x26__andy__x26__mrs_chan.ai_Assets_x2F_Layer_1_x2F__x3C_Path_x3E__x5F_92"  width="2.9" height="4.7" y="-4.7" transform="matrix(1 0 0 -1 97.6782 63.1465)" overflow="visible" opacity="0.6289" enable-background="new    "/>
</g>
<g id="_x3C_Path_x3E__x5F_91">
	
		<use xlink:href="#winnie__x26__andy__x26__mrs_chan.ai_Assets_x2F_Layer_1_x2F__x3C_Path_x3E__x5F_91"  width="2.25" height="3.15" y="-3.15" transform="matrix(1 0 0 -1 98.5781 68.4463)" overflow="visible" opacity="0.6289" enable-background="new    "/>
</g>
<g id="_x3C_Path_x3E__x5F_81">
	
		<use xlink:href="#winnie__x26__andy__x26__mrs_chan.ai_Assets_x2F_Layer_1_x2F__x3C_Path_x3E__x5F_81"  width="69.342" height="130.2" x="-0.042" y="-130.2" transform="matrix(1 0 0 -1 4.5283 113.5459)" overflow="visible" opacity="0.4414" enable-background="new    "/>
</g>
<g id="Layer_80">
	<path fill-rule="evenodd" clip-rule="evenodd" fill="#F4E7C9" d="M80.578,105.546c7.167-5.333,12.617-6.9,16.35-4.7
		c0.8,0.467,1.917,1.333,3.35,2.6c1.433,1.233,2.4,2,2.9,2.3c0.367,0.2,0.183,6.667-0.55,19.4c-0.367,6.366-0.767,12.717-1.2,19.05
		l-0.5,1.8c-0.533,1.434-1.233,2.733-2.1,3.9c-2.8,3.8-6.85,5.7-12.15,5.7c-5.833,0-10-1.65-12.5-4.95c-1.5-2-2.25-4.267-2.25-6.8
		c0-1.634-0.333-11.517-1-29.65C73.762,111.097,76.978,108.213,80.578,105.546z"/>
</g>
<g id="Layer_79">
	<path fill-rule="evenodd" clip-rule="evenodd" fill="#DBCCAC" d="M79.678,133.097c-2.533,0-5.283-1.7-8.25-5.101l-0.5-13.8
		c2.833-3.1,6.05-5.983,9.65-8.65c7.167-5.333,12.617-6.9,16.35-4.7c4.567,2.733,6.85,4.45,6.85,5.15c0,0.167-0.217,2.217-0.65,6.15
		c-0.467,4.633-0.767,8.717-0.9,12.25c-4.867,3.8-9.3,6.316-13.3,7.55C86.461,132.713,83.378,133.097,79.678,133.097z"/>
</g>
<g id="Layer_78">
	<path fill-rule="evenodd" clip-rule="evenodd" fill="#A1A07F" d="M99.228,129.796c0.434-5.399,1.784-12,4.05-19.8l37.45-11.2
		c0.467,2.1,0.95,3.617,1.45,4.55c0.667,1.3,2.65,3.317,5.95,6.05c6.1,5.033,9.316,7.7,9.65,8c8.433,7.5,12.083,14.149,10.95,19.95
		c-0.367,1.866-0.466,3.949-0.3,6.25c0.2,2.6,0.25,4.267,0.15,5c-0.367,3.5-3.467,7.399-9.3,11.699l-3.75,2.551
		c-2.7,2.699-4.4,4.75-5.1,6.149c0,2.033,0.05,3.367,0.15,4c0.133,1,0.483,1.667,1.05,2c0.566,0.367,2.117,0.967,4.65,1.8
		c2.467,1.134,4.283,2.817,5.45,5.051c1.733,3.267,0.45,6.649-3.85,10.149c-2.233,1.833-5.133,3.833-8.7,6
		c-1.633,1.634-2.383,2.75-2.25,3.351c0.133,0.666,1.533,2.333,4.2,5c2.333,2.3,2.55,4.866,0.65,7.699
		c-0.167,0.233-1.717,1.817-4.65,4.75c-1.3,1.334-2.233,2.351-2.8,3.051c-1.1,1.466-1.65,2.8-1.65,4c0,0.933,0.117,3.083,0.35,6.449
		c-0.167,3-1.317,4.684-3.45,5.051c-1.367,0.233-2.717,0.933-4.05,2.1c-0.633,0.566-1.15,1.117-1.55,1.65l1.55,1.1
		c0.933,1.1,1.083,2.517,0.45,4.25c-0.333,0.967-1.333,1.867-3,2.7c-2.033,1.066-3.216,1.75-3.55,2.05
		c-0.833,0.867-1.25,1.517-1.25,1.95c0,0.467,0.483,1.2,1.45,2.2c0.8,0.8,0.316,2.467-1.45,5c-0.867,1.267-1.817,2.449-2.85,3.55
		c0.5-0.7,0.934-1.45,1.3-2.25c0.733-1.634,0.833-2.733,0.3-3.3c-0.333-0.301-1.117-0.733-2.35-1.301
		c-0.733-0.333-1.3-1.166-1.7-2.5c-0.7-2.3-0.333-3.633,1.1-4c0.934-0.199,1.45-0.333,1.55-0.399c0.433-0.267,0.566-0.783,0.4-1.55
		c-0.533-2.233-0.333-3.851,0.6-4.851c0.633-0.733,0.683-1.366,0.15-1.899c-2.367-2.334-2.833-4.65-1.4-6.95
		c0.033-0.101,0.667-0.95,1.9-2.55c0.733-0.934,1.1-1.717,1.1-2.351c0-2.066-0.3-3.399-0.9-4c-0.633-0.6-1.95-0.899-3.95-0.899
		c-3.367,0-5.15-0.75-5.35-2.25c0.4-1.667,0.434-2.667,0.1-3c-0.267-0.268-0.517-0.284-0.75-0.051
		c-0.367,0.367-1.083,0.384-2.15,0.051c-1.833-0.567-2.85-1.483-3.05-2.75l0.2-1.75c0.433-0.2,0.617-0.45,0.55-0.75
		c-0.133-0.567-1.4-1.067-3.8-1.5c-2.633-0.467-2.683-2.268-0.15-5.4c3.2-3.134,4.917-4.833,5.15-5.1
		c1.033-0.601,1.767-1.184,2.2-1.75c0.867-1,0.667-2.134-0.6-3.4c-2.8-2.8-3.967-5.267-3.5-7.4c0.133-0.633,0.417-1.217,0.85-1.75
		l0.65-0.55c-4.133-0.899-7.15-2.383-9.05-4.45c-1.8-2.699-3.316-4.85-4.55-6.449c-0.933-1.167-1.017-2.351-0.25-3.551
		c0.667-1.133,0.95-1.733,0.85-1.8c-2.6-2.434-3.967-4.816-4.1-7.149c-0.067-1.4,0.483-3.534,1.65-6.4
		c0.333-0.866,1.317-2.384,2.95-4.55c1.033-1.4,1.333-2.584,0.9-3.55C99.611,144.113,98.628,137.43,99.228,129.796z"/>
</g>
<g id="Layer_77">
	<path fill-rule="evenodd" clip-rule="evenodd" fill="#7C785D" d="M164.678,124.597c3.5,4.533,4.85,8.783,4.05,12.75
		c-0.367,1.866-0.466,3.949-0.3,6.25c0.2,2.6,0.25,4.267,0.15,5c-0.367,3.5-3.467,7.399-9.3,11.699l-3.75,2.551
		c-2.7,2.699-4.4,4.75-5.1,6.149v1.25c-10.633,6.233-23.167,11.983-37.6,17.25c-3.7-0.899-6.45-2.366-8.25-4.399
		c-1.733-2.634-3.2-4.717-4.4-6.25c-0.9-1.134-1.017-2.284-0.35-3.45c0.7-1.2,1.033-1.816,1-1.851
		c4.7-1.699,14.15-6.433,28.35-14.199c14.533-7.934,24-13.601,28.4-17C163.078,136.08,165.445,130.83,164.678,124.597z"/>
</g>
<g id="Layer_76">
	<path fill-rule="evenodd" clip-rule="evenodd" fill="#6A6650" d="M139.528,237.446c-1.7,0.267-3.283,1.184-4.75,2.75
		c-2.533,0.7-5.083,1.517-7.65,2.45c-0.034-0.167-0.2-0.4-0.5-0.7c-1.934-1.934-2.617-3.8-2.05-5.6c0.167-0.5,1.05-1.851,2.65-4.051
		c9.1-7.767,16.967-13.433,23.6-17c-0.933,1.134-2.183,2.334-3.75,3.601c-1.3,1.333-2.233,2.35-2.8,3.05c-1.1,1.467-1.65,2.8-1.65,4
		v0.55c0.033,0.434,0.117,1.2,0.25,2.3c0.1,1.067,0.15,1.967,0.15,2.7C143.028,235.097,141.861,237.08,139.528,237.446z"/>
</g>
<g id="Layer_75">
	<path fill-rule="evenodd" clip-rule="evenodd" fill="#A1A07F" d="M128.778,135.146c11.833-9.334,17.65-18.45,17.45-27.351
		c1.7,1.5,4.8,4.067,9.3,7.7c4.133,3.467,7.25,6.566,9.35,9.3c0.733,6.267-1.633,11.517-7.1,15.75c-4.4,3.4-13.867,9.067-28.4,17
		c-14.2,7.767-23.65,12.5-28.35,14.2l-0.1-0.1c-2.6-2.434-3.95-4.816-4.05-7.15c-0.067-1.399,0.483-3.533,1.65-6.399
		c0.4-1,1.267-2.351,2.6-4.051c1.033-1.333,1.517-2.383,1.45-3.149C112.745,146.097,121.478,140.847,128.778,135.146z"/>
</g>
<g id="Layer_74">
	<path fill-rule="evenodd" clip-rule="evenodd" fill="#565343" d="M118.428,221.097c0.133-0.7,0.117-1.134-0.05-1.301
		c-0.3-0.3-0.534-0.35-0.7-0.149c-0.3,0.333-0.8,0.433-1.5,0.3c4.133-2.5,10.617-8.134,19.45-16.9
		c9.1-9.133,18.117-15.233,27.05-18.3c-0.067,2.634-2.05,5.384-5.95,8.25c-2.033,1.5-4.483,3.15-7.35,4.95
		c-1.1,1.1-1.733,1.783-1.9,2.05l-1,0.5c-6.133,3.267-11.9,7.25-17.3,11.95C123.645,217.312,120.062,220.196,118.428,221.097z"/>
</g>
<g id="Layer_73">
	<path fill-rule="evenodd" clip-rule="evenodd" fill="#8D8A6C" d="M151.628,174.996l0.2,0.15
		c-12.633,9.833-24.283,17.899-34.95,24.2c-0.067-0.634-0.434-1.268-1.1-1.9c-2.8-2.8-3.967-5.267-3.5-7.4
		c0.133-0.633,0.417-1.217,0.85-1.75l0.65-0.55l-0.95-0.25c14.434-5.267,26.967-11.017,37.6-17.25c0,1.467,0.067,2.5,0.2,3.101
		C150.795,174.146,151.128,174.696,151.628,174.996z"/>
</g>
<g id="Layer_72">
	<path fill-rule="evenodd" clip-rule="evenodd" fill="#8D8A6C" d="M118.428,223.746c-0.367-0.5-0.433-1.35-0.2-2.55
		c1.633-0.9,5.217-3.783,10.75-8.65c5.4-4.699,11.167-8.683,17.3-11.949l1-0.5c-0.467,0.666-0.434,1.399,0.1,2.199
		c0.4,0.601,1.65,1.95,3.75,4.051c2.633,2.6,2.55,5.55-0.25,8.85c-6.733,3.667-14.6,9.333-23.6,17c0.667-0.833,1-1.566,1-2.2
		c0-2.066-0.3-3.399-0.9-4c-0.633-0.6-1.95-0.899-3.95-0.899C120.762,225.097,119.095,224.646,118.428,223.746z"/>
</g>
<g id="Layer_71">
	<path fill-rule="evenodd" clip-rule="evenodd" fill="#6A6650" d="M151.828,175.146c0.667,0.333,2.217,0.916,4.65,1.75
		c2.367,1.133,4.117,2.783,5.25,4.95c0.5,0.966,0.75,1.966,0.75,3c-8.933,3.066-17.95,9.149-27.05,18.25
		c-8.8,8.8-15.283,14.449-19.45,16.949l-0.7-0.199c-1.833-0.567-2.85-1.483-3.05-2.75l0.2-1.75c0.433-0.2,0.617-0.45,0.55-0.75
		c-0.133-0.567-1.4-1.067-3.8-1.5c-2.633-0.467-2.683-2.268-0.15-5.4c3.2-3.134,4.917-4.833,5.15-5.1
		c0.667-0.434,1.217-0.817,1.65-1.15c0.8-0.667,1.15-1.367,1.05-2.1C127.545,193.046,139.195,184.979,151.828,175.146z"/>
</g>
<g id="Layer_70">
	<path fill-rule="evenodd" clip-rule="evenodd" fill="#8D8A6C" d="M126.728,86.296c4-6.8,7.867-14.7,11.6-23.7
		c0.3,3,0.45,5.417,0.45,7.25c0,13.133,0.65,22.783,1.95,28.95c0.233,1.1,0.45,1.933,0.65,2.5l0.3,1l0.5,1.05
		c0.2,0.4,0.483,0.833,0.85,1.3l3,3c0.2,8.899-5.617,18-17.45,27.3c-7.367,5.8-16.1,11.05-26.2,15.75c0-0.167-0.067-0.45-0.2-0.85
		c-0.133-0.267-0.433-0.983-0.9-2.15l-0.85-2.7l-0.05-0.1l-0.95-4.9l-0.05-0.149l-0.25-2.65l0.1-7.65l0.6-4.75
		c3.033-5.699,6.65-11.383,10.85-17.05c3.9-4.933,6.75-8.533,8.55-10.8C122.395,92.913,124.895,89.363,126.728,86.296z"/>
</g>
<g id="_x3C_Path_x3E__x5F_69">
	
		<use xlink:href="#winnie__x26__andy__x26__mrs_chan.ai_Assets_x2F_Layer_1_x2F__x3C_Path_x3E__x5F_69"  width="72.257" height="170" x="-0.005" y="-170" transform="matrix(1 0 0 -1 96.6782 93.8965)" overflow="visible" opacity="0.4414" enable-background="new    "/>
</g>
<g id="Layer_68">
	<path fill-rule="evenodd" clip-rule="evenodd" fill="#F4E7C9" d="M100.928,17.346l20,20l4.5,25.5l-1.05,6.4
		c-0.934,5.7-1.917,12.083-2.95,19.15c-1.033,6.9-6.5,14.1-16.4,21.6c-9.6,7.267-17.467,10.65-23.6,10.15
		c-5.933-0.5-12.3-3.483-19.1-8.95c-6.467-5.2-10.85-10.567-13.15-16.1c-1.7-4.033-2.583-13.867-2.65-29.5l0.4-22.25l12-18l15-13
		L100.928,17.346z"/>
</g>
<g id="Layer_67">
	<g>
		<path fill-rule="evenodd" clip-rule="evenodd" fill="#E85754" d="M69.428,105.846c-1.067-1.7-1.617-2.6-1.65-2.7l3.9-1.5l4.75,0.7
			l1.65-0.25c0.033,0,0.883,0.067,2.55,0.2c1.867,0.133,3.283,0.2,4.25,0.2l0.55,0.45c0.033,0.033,0.183,0.067,0.45,0.1
			c0.2,0.066,0.3,0.15,0.3,0.25c0,1.1-0.833,2.267-2.5,3.5c-1.867,1.333-3.95,1.95-6.25,1.85
			C73.828,108.479,71.162,107.546,69.428,105.846z"/>
	</g>
</g>
<g id="Layer_66">
	<g>
		<path fill-rule="evenodd" clip-rule="evenodd" fill="#394B34" d="M94.778,59.246c2.3,0.1,4.1,0.8,5.4,2.1
			c1.333,1.333,2.183,2.967,2.55,4.9c0.133,0.733,0.2,2.017,0.2,3.85c0,1.7-0.517,2.8-1.55,3.3c-0.867,0.466-2.684,0.7-5.45,0.7
			c-4.567,0-6.633-2.433-6.2-7.3c0.133-1.5,0.517-3.167,1.15-5l0.9-2.3L94.778,59.246z"/>
		
			<path fill-rule="evenodd" clip-rule="evenodd" fill="none" stroke="#73C6AC" stroke-linecap="round" stroke-linejoin="round" stroke-miterlimit="3" d="
			M94.778,59.246l-3,0.25l-0.9,2.3c-0.633,1.833-1.017,3.5-1.15,5c-0.433,4.867,1.633,7.3,6.2,7.3c2.767,0,4.583-0.233,5.45-0.7
			c1.033-0.5,1.55-1.6,1.55-3.3c0-1.833-0.067-3.117-0.2-3.85c-0.367-1.933-1.216-3.566-2.55-4.9
			C98.878,60.046,97.078,59.346,94.778,59.246z"/>
	</g>
</g>
<g id="Layer_65">
	<g>
		<path fill-rule="evenodd" clip-rule="evenodd" fill="#36352E" d="M102.578,60.896c0.833,1.1,1.35,2.2,1.55,3.3
			c0.133,0.633,0.267,1.567,0.4,2.8c0.133,0.467-0.083,1.6-0.65,3.4c-0.6,1.8-0.983,2.617-1.15,2.45
			c-0.133-0.133-0.283-0.883-0.45-2.25c-0.2-1.7-0.317-2.6-0.35-2.7c-0.167-1.133-0.3-1.967-0.4-2.5
			c-0.167-0.934-0.467-1.784-0.9-2.55c-0.9-1.566-2.917-2.467-6.05-2.7c-2.967-0.2-4.467-0.367-4.5-0.5
			c-0.167-0.833,1.467-1.317,4.9-1.45C98.578,58.063,101.111,58.963,102.578,60.896z"/>
	</g>
</g>
<g id="Layer_64">
	<g>
		<path fill-rule="evenodd" clip-rule="evenodd" fill="#8D8A6C" d="M108.928,49.746c-0.233,0.167-1.133-0.083-2.7-0.75
			c-2.3-0.933-4.433-1.633-6.4-2.1c-2.1-0.467-4.083-0.534-5.95-0.2c-1.467,0.467-2.217,0.7-2.25,0.7
			c-0.333,0.267-0.75,0.383-1.25,0.35c-0.467-0.033-0.85-0.183-1.15-0.45c-0.333-0.267-0.5-0.583-0.5-0.95
			c0.034-0.367,0.217-0.667,0.55-0.9c0.467-0.4,1.7-0.767,3.7-1.1c2.7-0.433,5.133-0.233,7.3,0.6c1.967,0.767,3.95,1.683,5.95,2.75
			C108.328,48.83,109.228,49.513,108.928,49.746z"/>
	</g>
</g>
<g id="Layer_63">
	<path fill-rule="evenodd" clip-rule="evenodd" fill="#F8EEDE" d="M75.078,78.696c0.833-2.467,1.684-1.633,2.55,2.5
		c0.733,3.6,1.066,6.183,1,7.75c0,0.4,0.583,1.167,1.75,2.3c1.1,1.034,1.55,1.633,1.35,1.8c-4.3,3.433-6.9,4.667-7.8,3.7
		c-0.1-0.1-0.817-0.75-2.15-1.95c-0.767-0.667-1.133-1.2-1.1-1.6c0-0.267,0.383-0.85,1.15-1.75c0.8-0.967,1.283-1.883,1.45-2.75
		L75.078,78.696z"/>
</g>
<g id="Layer_62">
	<path fill-rule="evenodd" clip-rule="evenodd" fill="#D0373E" d="M72.728,100.196c0.2-0.133,0.4-0.15,0.6-0.05l2.45,1.6l2.75-1.85
		c0.133-0.067,0.267-0.083,0.4-0.05c0.033,0.033,1.5,0.467,4.4,1.3c3.133,0.8,5.267,1.1,6.4,0.9c0.7,0.4-0.783,0.9-4.45,1.5
		c-1.633,0.233-3.917,0.316-6.85,0.25c-0.2,0-0.583,0.083-1.15,0.25c-0.533,0.167-1.033,0.25-1.5,0.25c-0.4,0-0.9-0.1-1.5-0.3
		c-0.6-0.2-0.967-0.3-1.1-0.3l-5.3-0.35c-0.5,0-1.133-0.25-1.9-0.75c-0.833-0.5-1.133-0.733-0.9-0.7
		c1.233,0.2,2.883-0.017,4.95-0.65C71.062,100.913,71.961,100.563,72.728,100.196z"/>
</g>
<g id="Layer_61">
	<g>
		<path fill-rule="evenodd" clip-rule="evenodd" fill="#394B34" d="M62.278,61.746c0.633,1.833,1.033,3.517,1.2,5.05
			c0.467,4.867-1.6,7.3-6.2,7.3c-2.767,0-4.583-0.233-5.45-0.7c-1.033-0.5-1.55-1.6-1.55-3.3c0-1.867,0.066-3.15,0.2-3.85
			c0.367-1.933,1.217-3.566,2.55-4.9c1.3-1.3,3.083-2,5.35-2.1c1.133-0.066,2.133,0,3,0.2L62.278,61.746z"/>
		
			<path fill-rule="evenodd" clip-rule="evenodd" fill="none" stroke="#73C6AC" stroke-linecap="round" stroke-linejoin="round" stroke-miterlimit="3" d="
			M62.278,61.746c0.633,1.833,1.033,3.517,1.2,5.05c0.467,4.867-1.6,7.3-6.2,7.3c-2.767,0-4.583-0.233-5.45-0.7
			c-1.033-0.5-1.55-1.6-1.55-3.3c0-1.867,0.066-3.15,0.2-3.85c0.367-1.933,1.217-3.566,2.55-4.9c1.3-1.3,3.083-2,5.35-2.1
			c1.133-0.066,2.133,0,3,0.2L62.278,61.746z"/>
	</g>
</g>
<g id="Layer_60">
	<path fill-rule="evenodd" clip-rule="evenodd" fill="#A1A07F" d="M103.078,12.846h4.35c3.2,0,6.733,1.3,10.6,3.9
		c4.6,3.1,8.566,7.467,11.9,13.1c3.1,5.233,5.483,12.934,7.15,23.1c1.133,6.933,1.7,12.567,1.7,16.9c0,12.6,0.6,22.017,1.8,28.25
		c-5.6-4.133-12.283-10.066-20.05-17.8c-2.033-2.033-4.767-8.4-8.2-19.1c-0.9-2.8-3.2-10.583-6.9-23.35
		c-1.233-4.267-2.683-7.633-4.35-10.1l-2.15-2.4c-2.9,4.434-7.45,9.3-13.65,14.6c-12.367,10.533-26.783,17.883-43.25,22.05
		c-1.767,0.434-3.233,0.967-4.4,1.6c-1,0.567-2.034,0.934-3.1,1.1l0.75-4.6c1.767-10.5,4.033-19.1,6.8-25.8
		c4.567-11.133,10.85-18.783,18.85-22.95c12.833-6.733,23.717-8.5,32.65-5.3C98.012,7.646,101.178,9.913,103.078,12.846z"/>
</g>
<g id="_x3C_Path_x3E__x5F_63">
	
		<use xlink:href="#winnie__x26__andy__x26__mrs_chan.ai_Assets_x2F_Layer_1_x2F__x3C_Path_x3E__x5F_63"  width="5.1" height="19.154" y="-19.154" transform="matrix(1 0 0 -1 70.6782 77.7964)" overflow="visible" opacity="0.5195" enable-background="new    "/>
</g>
<g id="Layer_58">
	<path fill-rule="evenodd" clip-rule="evenodd" fill="#DAA466" d="M74.678,94.146c2.367,0.1,4.25-0.184,5.65-0.85
		c1.8-0.833,2.017-0.717,0.65,0.35c-0.8,0.633-2.133,1.667-4,3.1c-0.7,0.633-1.883,0.383-3.55-0.75l-2.3-1.95
		c-0.5-0.533-0.55-0.733-0.15-0.6C72.278,93.879,73.512,94.113,74.678,94.146z"/>
</g>
<g id="_x3C_Path_x3E__x5F_61">
	
		<use xlink:href="#winnie__x26__andy__x26__mrs_chan.ai_Assets_x2F_Layer_1_x2F__x3C_Path_x3E__x5F_61"  width="3.05" height="4.7" y="-4.7" transform="matrix(1 0 0 -1 58.8784 62.6465)" overflow="visible" opacity="0.6289" enable-background="new    "/>
</g>
<g id="_x3C_Path_x3E__x5F_60">
	
		<use xlink:href="#winnie__x26__andy__x26__mrs_chan.ai_Assets_x2F_Layer_1_x2F__x3C_Path_x3E__x5F_60"  width="2.35" height="3.15" y="-3.15" transform="matrix(1 0 0 -1 59.8281 67.9463)" overflow="visible" opacity="0.6289" enable-background="new    "/>
</g>
<g id="_x3C_Path_x3E__x5F_59">
	
		<use xlink:href="#winnie__x26__andy__x26__mrs_chan.ai_Assets_x2F_Layer_1_x2F__x3C_Path_x3E__x5F_59"  width="16.7" height="19.7" y="-19.7" transform="matrix(1 0 0 -1 48.5283 77.3965)" overflow="visible" opacity="0.1016" enable-background="new    "/>
</g>
<g id="_x3C_Path_x3E__x5F_58">
	
		<use xlink:href="#winnie__x26__andy__x26__mrs_chan.ai_Assets_x2F_Layer_1_x2F__x3C_Path_x3E__x5F_58"  width="21" height="21.25" y="-21.25" transform="matrix(1 0 0 -1 88.6782 77.8462)" overflow="visible" opacity="0.1016" enable-background="new    "/>
</g>
<g id="_x3C_Path_x3E__x5F_57">
	
		<use xlink:href="#winnie__x26__andy__x26__mrs_chan.ai_Assets_x2F_Layer_1_x2F__x3C_Path_x3E__x5F_57"  width="6.3" height="6.35" y="-6.35" transform="matrix(1 0 0 -1 72.5283 88.3965)" overflow="visible" opacity="0.6289" enable-background="new    "/>
</g>
<g id="_x3C_Path_x3E__x5F_56">
	
		<use xlink:href="#winnie__x26__andy__x26__mrs_chan.ai_Assets_x2F_Layer_1_x2F__x3C_Path_x3E__x5F_56"  width="3.1" height="4.7" y="-4.7" transform="matrix(1 0 0 -1 97.5283 63.7964)" overflow="visible" opacity="0.6289" enable-background="new    "/>
</g>
<g id="_x3C_Path_x3E__x5F_55">
	
		<use xlink:href="#winnie__x26__andy__x26__mrs_chan.ai_Assets_x2F_Layer_1_x2F__x3C_Path_x3E__x5F_55"  width="2.4" height="3.15" y="-3.15" transform="matrix(1 0 0 -1 98.478 69.0962)" overflow="visible" opacity="0.6289" enable-background="new    "/>
</g>
<g id="Layer_50">
	<g>
		<path fill-rule="evenodd" clip-rule="evenodd" fill="#36352E" d="M58.178,58.196c3.433,0.133,5.067,0.617,4.9,1.45
			c-0.033,0.133-1.533,0.3-4.5,0.5c-3.133,0.233-5.15,1.133-6.05,2.7c-0.4,0.767-0.684,1.617-0.85,2.55
			c-0.1,0.533-0.233,1.367-0.4,2.5c-0.067,0.2-0.2,1.1-0.4,2.7c-0.167,1.367-0.317,2.117-0.45,2.25
			c-0.167,0.167-0.533-0.65-1.1-2.45c-0.566-1.8-0.8-2.934-0.7-3.4c0.133-1.233,0.267-2.167,0.4-2.8c0.2-1.1,0.717-2.2,1.55-3.3
			C52.045,58.963,54.578,58.063,58.178,58.196z"/>
	</g>
</g>
</svg>
