<?xml version="1.0"?>
<!DOCTYPE svg PUBLIC "-//W3C//DTD SVG 1.1//EN"
  "http://www.w3.org/Graphics/SVG/1.1/DTD/svg11.dtd">
<svg xmlns="http://www.w3.org/2000/svg" version="1.1" xmlns:xlink="http://www.w3.org/1999/xlink" preserveAspectRatio="none" x="0px" y="0px" width="200px" height="200px" viewBox="0 0 200 200">
<defs>
<filter id="Filter_1" x="-20%" y="-20%" width="140%" height="140%" color-interpolation-filters="sRGB">
<feColorMatrix in="SourceGraphic" type="matrix" values="1 0 0 0 0 0 1 0 0 0 0 0 1 0 0 0 0 0 0.63 0" result="result1"/>
</filter>

<filter id="Filter_2" x="-20%" y="-20%" width="140%" height="140%" color-interpolation-filters="sRGB">
<feColorMatrix in="SourceGraphic" type="matrix" values="1 0 0 0 0 0 1 0 0 0 0 0 1 0 0 0 0 0 0.44 0" result="result1"/>
</filter>

<filter id="Filter_3" x="-20%" y="-20%" width="140%" height="140%" color-interpolation-filters="sRGB">
<feColorMatrix in="SourceGraphic" type="matrix" values="1 0 0 0 0 0 1 0 0 0 0 0 1 0 0 0 0 0 0.52 0" result="result1"/>
</filter>

<filter id="Filter_4" x="-20%" y="-20%" width="140%" height="140%" color-interpolation-filters="sRGB">
<feColorMatrix in="SourceGraphic" type="matrix" values="1 0 0 0 0 0 1 0 0 0 0 0 1 0 0 0 0 0 0.1 0" result="result1"/>
</filter>

<g id="Mask_portrait_0_3_MASK_0_FILL">
<path fill="#FFFFFF" stroke="none" d="
M -0.5 -90.3
Q -38 -90.3 -64.5 -63.8 -91 -37.3 -91 0.2 -91 37.7 -64.5 64.2 -38 90.7 -0.5 90.7 37 90.7 63.5 64.2 90 37.7 90 0.2 90 -37.3 63.5 -63.8 37 -90.3 -0.5 -90.3 Z"/>
</g>

<g id="portrait_0_Layer3_0_FILL">
<path fill="#D8E5B2" stroke="none" d="
M -100 -100
L -100 100 100 100 100 -100 -100 -100 Z"/>
</g>

<g id="portrait_0_Layer2_0_FILL">
<path fill="#0D1412" stroke="none" d="
M 74.25 134.5
Q 61.35 139.3 55.7 142.6 49.25 146.3 47.2 198.15 46.1 224.1 46.35 249.25
L 148.55 248.85
Q 148.55 223.4 147.85 194.75 146.7 146.65 144.2 144.2 141.65 141.65 134.75 138.7 132.4 137.8 125.2 135.15 107.45 128.7 104.15 127.8 95.15 125.45 90.45 128 87.6 129.5 74.25 134.5 Z"/>
</g>

<g id="portrait_0_Layer2_1_FILL">
<path fill="#F5ECC9" stroke="none" d="
M 195.15 372.7
L 200.6 392.65
Q 207.3 414.45 213.5 423.4 215.55 426.4 218.5 428.95 219.95 430.25 221 430.9 222.2 430.1 223.75 428.85 226.75 426.3 228.25 423.95 235.1 413.35 237.45 408.4 245.1 392.45 248.5 371.7
L 245 365.25
Q 232.2 360.5 226.15 359.4 217.95 357.85 213 360.55 209.45 362.45 197.7 366.9 196.2 369.5 195.15 372.7 Z"/>
</g>

<g id="portrait_0_Layer2_2_FILL">
<path fill="#A39F71" stroke="none" d="
M 164.75 132.5
Q 164.55 129.8 165 127.6 166.35 120.7 156.35 111.8 155.95 111.45 148.7 105.5 144.8 102.25 144 100.7 141.3 95.5 141.3 74.25 141.3 69.1 139.95 60.85 138 48.8 134.3 42.6 130.35 35.95 124.9 32.25 120.35 29.2 116.55 29.2
L 113.1 29.2
Q 110.85 25.7 105.6 23.8 95 20 79.8 28 70.3 32.95 64.9 46.15 61.6 54.05 59.5 66.5 56.3 85.15 55.8 87.25 54.3 93.4 50 101.6 46.75 107.9 43.75 111.6 42.05 113.65 38.9 117.3 34.35 123.35 35.5 131.6 36.4 138.15 39.1 140.8 39.9 141.65 43.15 142.1 45.4 142.5 45.4 144.95 45.4 146.6 44.1 148.35 38.7 152.3 38.7 153.65 38.7 158.1 38.9 158.85 39.8 161.6 43.95 162.8 41.5 164.15 42.85 166.65 43.05 166.95 44.2 168.55 44.95 169.65 45 170.25 45.7 176.1 47.35 178.05 48.55 179.45 51.55 179.65 50.35 181.15 50.35 186 50.35 190.15 50.8 190.9 51.3 191.8 54.05 191.8 53.7 193.05 54.05 194.15 54.55 195.55 56.25 195.55 59.9 195.55 60.5 196.05 61.1 196.6 61 199.6 60.95 201.25 60.4 202.15 60.05 202.65 59.45 203.5 59.1 204.15 59.85 205.55 60.65 207.15 60.65 207.55 60.65 208.9 62.5 210.5 63.45 211.25 64.35 211.75 64.35 211.05 63.55 209.6 62.45 207.55 62.2 206.95 60.9 203.6 64.7 201.75 67.2 200.55 65.85 196.8 64.7 193.6 61.9 190.8 60.75 189.65 62.25 188.2
L 63.95 186.95
Q 68.9 185.4 70.5 183.1 71.5 181.7 71.5 178.95 71.5 177.55 69.7 176.05 68.3 174.9 69.1 174.1
L 71.5 172.55
Q 75.3 169.7 75.95 168.7 76.8 167.4 75.45 165.5 73.5 162.95 74.65 162.25 76.6 161.75 77.4 160.95 78.85 159.5 78.7 157.6 78.65 156.45 77.6 153.9 75.45 148.55 77.2 145.4 85 139.85 88.2 132.5 90.05 128.25 90.05 124.4 90.05 118.95 87.65 111.95 85.45 105.55 83.35 103.65 85.2 101.4 100.75 98.55 116.25 95.7 115.8 97.25 111.2 113.65 110.75 116.45 108.55 128.9 112.4 137.45 112.9 138.6 111.7 140.25 109.75 142.85 109.35 143.85 107.95 147.25 108.05 148.9 108.2 151.7 111.3 154.55 111.4 154.65 110.6 156 109.7 157.4 110.8 158.8 112.25 160.7 114.4 163.9 116.65 166.35 121.55 167.4
L 121.05 167.85
Q 120.55 168.5 120.35 169.25 119.8 171.75 123.15 175.1 124.65 176.6 123.6 177.75 123.1 178.45 121.85 179.15 121.6 179.45 117.8 183.2 114.8 186.9 117.9 187.45 120.75 187.95 120.9 188.65 121 189 120.5 189.25
L 120.35 190.6
Q 120.55 192.1 122.75 192.8 124 193.2 124.45 192.75 124.7 192.45 125.05 192.8 125.45 193.2 124.95 195.15 125.2 196.95 129.2 196.95 131.55 196.95 132.3 197.65 133 198.35 133 200.8 133 201.55 132.15 202.65 130.7 204.55 130.65 204.7 128.95 207.4 131.75 210.2 132.4 210.8 131.65 211.7 130.55 212.85 131.15 215.5 131.35 216.4 130.85 216.75 130.7 216.8 129.6 217.05 127.9 217.5 128.75 220.2 129.2 221.8 130.1 222.2 131.55 222.85 131.95 223.2 132.6 223.9 131.7 225.85 131.3 226.75 130.7 227.6 131.9 226.3 132.95 224.8 135.05 221.8 134.1 220.85 132.95 219.65 132.95 219.1 132.95 218.6 133.9 217.55 134.3 217.2 136.75 215.95 138.7 214.95 139.1 213.8 139.85 211.75 138.75 210.45
L 137.5 209.6
Q 138 208.95 138.75 208.3 140.35 206.9 141.95 206.6 144.5 206.2 144.65 202.65 144.4 198.65 144.4 197.55 144.4 196.1 145.7 194.35 146.35 193.55 147.9 191.95 151.4 188.5 151.6 188.2 153.85 184.85 151.1 182.1 147.9 178.95 147.75 178.15 147.6 177.45 149.55 175.5 153.75 172.95 156.4 170.75 161.5 166.65 159.45 162.75 158.05 160.1 155.15 158.75 152.15 157.75 151.45 157.35 150.8 156.95 150.65 155.75 150.5 155 150.5 152.6 151.35 150.95 154.55 147.75
L 157.5 145.7
Q 164.45 140.6 164.85 136.45 165 135.6 164.75 132.5 Z"/>
</g>

<g id="portrait_0_Layer2_3_FILL">
<path fill="#8B8359" stroke="none" d="
M 195.15 388.35
Q 194.75 385.25 196.25 382.6 200.75 379.4 204.1 375.6 175.35 399.15 152.2 406.65 151.9 407.65 152.5 408.95 152.85 409.75 153.9 411.2 172.15 404.1 195.15 388.35 Z"/>
</g>

<g id="portrait_0_Layer2_4_FILL">
<path fill="#A39F71" stroke="none" d="
M 150.6 378.15
Q 151.95 378.45 154.3 378.75 156 379.45 156 382.05 156 384.1 154.35 386.35 151.35 388.6 149.55 390.25 176.1 378.3 193.1 362.6 204.35 352.15 209.9 341.65 208.9 338.7 208.05 336.7
L 206.25 337.7
Q 206.15 342.5 189.5 356.55 167.85 374.75 150.6 378.15 Z"/>
</g>

<g id="portrait_0_Layer2_5_FILL">
<path fill="#766C47" stroke="none" d="
M 193.1 413.75
Q 194.6 412.45 194.95 411.45 185.85 413.85 177.1 419.05 169.4 423.6 163.5 426.45 162.25 428.5 162.25 433.95 162.25 438.95 162.7 439.9 163.25 441.2 166.1 441.25 173.05 436.6 186.3 431.85 188.05 430.4 188.65 428.45 189 427.25 189 425.05 189 423.3 186.75 421.4 185 419.9 186 418.9
L 189 416.95
Q 192.2 414.55 193.1 413.75 Z"/>
</g>

<g id="portrait_0_Layer2_6_FILL">
<path fill="#483C27" stroke="none" d="
M 182 448.25
Q 178 452.1 174.4 455.1 174.05 455.55 173.75 456.1 173.35 456.9 174.25 458.7 175.3 460.75 175.3 461.25 175.3 462.95 177.65 464.95 178.85 465.9 180 466.55 180 465.65 178.95 463.8 177.55 461.25 177.25 460.45 175.6 456.2 180.4 453.9 183.3 452.5 182 448.25 Z"/>
</g>

<g id="portrait_0_Layer2_7_FILL">
<path fill="#766C47" stroke="none" d="
M 149.55 390.25
Q 147.5 392.15 147.5 393.05 147.5 398.65 147.8 399.6 148.9 403.1 154.15 404.6 152.65 405.45 152.2 406.65 175.35 399.15 204.1 375.6 209.15 369.9 211.25 363.35 212.5 359.45 212.5 356.05 212.5 349.7 209.9 341.65 204.35 352.15 193.1 362.6 176.1 378.3 149.55 390.25 Z"/>
</g>

<g id="portrait_0_Layer2_8_FILL">
<path fill="#615537" stroke="none" d="
M 197.65 395.8
Q 195.55 391.05 195.15 388.35 172.15 404.1 153.9 411.2 155.4 413.3 155.5 414.05 156.35 421.45 158.45 423.9 160 425.7 163.8 425.95
L 163.5 426.45
Q 169.4 423.6 177.1 419.05 185.85 413.85 194.95 411.45 195.5 410.1 194 408.05 191.55 404.8 193 403.9 195.5 403.3 196.5 402.3 198.95 399.85 197.65 395.8 Z"/>
</g>

<g id="portrait_0_Layer2_9_FILL">
<path fill="#615537" stroke="none" d="
M 166.1 441.3
L 166.95 441.3
Q 166.5 442.9 166.95 444.3 167.55 446.1 169.75 446.1 174.4 446.1 175.15 446.75 175.9 447.4 175.75 451.2 175.7 452.85 175.3 453.8 175.05 454.45 174.4 455.15 178.8 451.4 182 448.25 181.4 446.2 179.95 443.9 178.55 441.7 176.85 440.05 175.4 438.6 177.3 436.75
L 179.5 435.2
Q 184.1 433.75 186.3 431.85 173 436.75 166.1 441.3 Z"/>
</g>

<g id="portrait_0_Layer2_10_FILL">
<path fill="#8B8359" stroke="none" d="
M 148 376.8
Q 148.95 377.8 150.6 378.15 167.85 374.75 189.5 356.55 205.3 343.25 206.2 338.2 206.5 336.6 205.3 336.05
L 204 335.8
Q 200.45 326.3 196.3 318.1 188.05 301.75 185.2 308.35 182.45 314.75 172.8 324.85 162.35 335.8 152.5 341.45 148.85 345.6 147.75 347.05 142 354.7 143.45 365.15 144.6 373.4 148 376.8 Z"/>
</g>

<g id="portrait_0_Layer2_11_FILL">
<path fill="#615537" stroke="none" d="
M 261.9 473.5
Q 260.55 474.2 261.45 477.25 262.05 479.25 263.15 479.75 265 480.6 265.5 481.05 266.3 481.9 265.2 484.35 264.65 485.55 263.9 486.6 265.45 484.95 266.75 483.05 269.4 479.25 268.2 478.05 266.75 476.55 266.75 475.85 266.75 475.2 268 473.9 268.6 473.3 271 472.15 273.25 471.05 274 470.05 266.65 472 264.25 472.7 263.75 473.2 261.9 473.5 Z"/>
</g>

<g id="portrait_0_Layer2_12_FILL">
<path fill="#483C27" stroke="none" d="
M 274.05 470.2
Q 274.4 469.8 274.6 469.3 275.55 466.7 274.15 465.05
L 272.6 463.9 273.45 462.95
Q 269.2 464.15 265.8 465.4 265.85 465.5 264.85 466.9 263.85 468.4 264.55 471.45 264.75 472.45 264.3 472.85 270.5 471.05 274.05 470.2 Z"/>
</g>

<g id="winnie___andy___mrs_chan_ai_Layer_1__Path__92_0_Layer0_0_FILL">
<path fill="#FEFEFE" stroke="none" d="
M 2.9 2.35
Q 2.9 1.4 2.5 0.7 2.05 0 1.45 0 0.85 0 0.45 0.7 0 1.4 0 2.35 0 3.35 0.45 4 0.85 4.7 1.45 4.7 2.05 4.7 2.5 4 2.9 3.35 2.9 2.35 Z"/>
</g>

<g id="winnie___andy___mrs_chan_ai_Layer_1__Path__91_0_Layer0_0_FILL">
<path fill="#FEFEFE" stroke="none" d="
M 2.25 1.6
Q 2.25 0.95 1.9 0.45 1.6 0 1.1 0 0.65 0 0.35 0.45 0 0.95 0 1.6 0 2.25 0.35 2.7 0.65 3.15 1.1 3.15 1.6 3.15 1.9 2.7 2.25 2.25 2.25 1.6 Z"/>
</g>

<g id="winnie___andy___mrs_chan_ai_Layer_1__Path__81_0_Layer0_0_FILL">
<path fill="#3C3317" stroke="none" d="
M 64.7 0
Q 64.2 4.45 63.7 6.45 62.85 9.9 60.4 11.6 55.5 15 55 16.7 54.3 18.95 58.2 22.9 60.85 25.5 58.15 29.5 55.25 33.65 49.25 33.65 48.2 33.65 47.7 34.45 47.2 35.6 46.75 36.25 44.9 38.85 38.15 38.85 36.3 38.85 32.95 34.75 29.15 30 25.7 28.7 24.65 28.3 22.7 30.15 20.5 32.2 18.75 32.2 17.35 32.25 15.15 29.65 12.95 27.05 11.6 27 5.6 26.95 3.95 24.55 1.8 21.35 5.8 13.2 7.8 9.15 9.2 5.25 5.55 9.4 4.55 10.7 -1.2 18.35 0.25 28.8 1.4 37.05 4.8 40.45 5.85 41.5 9.95 42.1 12.8 42.55 12.8 45.7 12.8 47.75 11.15 50 4.3 55.15 4.3 56.7 4.3 62.25 4.6 63.25 5.75 66.8 11 68.3 7.85 70 9.6 73.1 10.55 74.8 12.3 77.7 13.15 85.1 15.25 87.55 16.8 89.35 20.65 89.65 19.05 91.5 19.05 97.6 19.05 102.85 19.6 103.8 20.25 104.95 23.75 104.95 23.3 106.55 23.75 107.9 24.35 109.7 26.55 109.7 31.2 109.7 31.95 110.35 32.7 111 32.55 114.85 32.45 116.9 31.75 118.05 31.35 118.65 30.55 119.75 30.15 120.55 31.05 122.35 32.1 124.35 32.1 124.9 32.1 126.6 34.45 128.6 35.65 129.55 36.8 130.2 36.8 129.3 35.75 127.45 34.35 124.9 34.05 124.1 32.4 119.85 37.2 117.55 40.35 116.05 38.65 111.3 37.2 107.2 33.65 103.7 32.2 102.25 34.1 100.4
L 36.3 98.8
Q 42.6 96.9 44.6 93.95 45.8 92.2 45.8 88.7 45.8 86.95 43.55 85.05 41.8 83.55 42.8 82.55
L 45.8 80.6
Q 50.65 77 51.45 75.75 52.55 74.05 50.8 71.7 48.35 68.45 49.8 67.55 52.3 66.95 53.3 65.95 55.15 64.1 54.95 61.65 54.85 60.2 53.55 57 50.8 50.2 53.05 46.25 62.95 39.2 66.95 29.95 69.3 24.6 69.3 19.7 69.3 15.25 67.9 9.55 66.65 4.5 64.7 0 Z"/>
</g>

<g id="portrait_0_Layer2_16_FILL">
<path fill="#F5ECC9" stroke="none" d="
M 241.75 328.45
Q 241 328 238.85 326.15 236.7 324.25 235.5 323.55 229.9 320.25 219.15 328.25 213.75 332.25 209.5 336.9 210.5 364.1 210.5 366.55 210.5 370.35 212.75 373.35 216.5 378.3 225.25 378.3 233.2 378.3 237.4 372.6 238.7 370.85 239.5 368.7
L 240 366.9
Q 240.65 357.4 241.2 347.85 242.3 328.75 241.75 328.45 Z"/>
</g>

<g id="portrait_0_Layer2_17_FILL">
<path fill="#DFD1A9" stroke="none" d="
M 242.35 328.7
Q 242.35 327.65 235.5 323.55 229.9 320.25 219.15 328.25 213.75 332.25 209.5 336.9
L 210 350.7
Q 214.45 355.8 218.25 355.8 223.8 355.8 227.5 354.65 233.5 352.8 240.8 347.1 241 341.8 241.7 334.85 242.35 328.95 242.35 328.7 Z"/>
</g>

<g id="portrait_0_Layer2_18_FILL">
<path fill="#A39F71" stroke="none" d="
M 237.8 352.5
Q 236.9 363.95 240.75 372.55 241.4 374 239.85 376.1 237.4 379.35 236.9 380.65 235.15 384.95 235.25 387.05 235.45 390.55 239.35 394.2 239.5 394.3 238.5 396 237.35 397.8 238.75 399.55 240.6 401.95 243.3 406 246.15 409.1 252.35 410.45
L 251.7 411
Q 251.05 411.8 250.85 412.75 250.15 415.95 254.35 420.15 256.25 422.05 254.95 423.55 254.3 424.4 252.75 425.3 252.4 425.7 247.6 430.4 243.8 435.1 247.75 435.8 251.35 436.45 251.55 437.3 251.65 437.75 251 438.05
L 250.8 439.8
Q 251.1 441.7 253.85 442.55 255.45 443.05 256 442.5 256.35 442.15 256.75 442.55 257.25 443.05 256.65 445.55 256.95 447.8 262 447.8 265 447.8 265.95 448.7 266.85 449.6 266.85 452.7 266.85 453.65 265.75 455.05 263.9 457.45 263.85 457.6 261.7 461.05 265.25 464.55 266.05 465.35 265.1 466.45 263.7 467.95 264.5 471.3 264.75 472.45 264.1 472.85 263.95 472.95 262.55 473.25 260.4 473.8 261.45 477.25 262.05 479.25 263.15 479.75 265 480.6 265.5 481.05 266.3 481.9 265.2 484.35 264.65 485.55 263.9 486.6 265.45 484.95 266.75 483.05 269.4 479.25 268.2 478.05 266.75 476.55 266.75 475.85 266.75 475.2 268 473.9 268.5 473.45 271.55 471.85 274.05 470.6 274.55 469.15 275.5 466.55 274.1 464.9
L 272.55 463.8
Q 273.15 463 274.1 462.15 276.1 460.4 278.15 460.05 281.35 459.5 281.6 455 281.25 449.95 281.25 448.55 281.25 446.75 282.9 444.55 283.75 443.5 285.7 441.5 290.1 437.1 290.35 436.75 293.2 432.5 289.7 429.05 285.7 425.05 285.5 424.05 285.3 423.15 287.75 420.7 293.1 417.45 296.45 414.7 302.9 409.45 300.3 404.55 298.55 401.2 294.85 399.5 291.05 398.25 290.2 397.7 289.35 397.2 289.15 395.7 289 394.75 289 391.7 290.05 389.6 294.1 385.55
L 297.85 383
Q 306.6 376.55 307.15 371.3 307.3 370.2 307 366.3 306.75 362.85 307.3 360.05 309 351.35 296.35 340.1 295.85 339.65 286.7 332.1 281.75 328 280.75 326.05 280 324.65 279.3 321.5
L 241.85 332.7
Q 238.45 344.4 237.8 352.5 Z"/>
</g>

<g id="portrait_0_Layer2_19_FILL">
<path fill="#766C47" stroke="none" d="
M 289 392.95
L 289 391.7
Q 290.05 389.6 294.1 385.55
L 297.85 383
Q 306.6 376.55 307.15 371.3 307.3 370.2 307 366.3 306.75 362.85 307.3 360.05 308.5 354.1 303.25 347.3 304.4 356.65 296.15 363.05 289.55 368.15 267.75 380.05 246.45 391.7 239.4 394.25 239.45 394.3 238.4 396.1 237.4 397.85 238.75 399.55 240.55 401.85 243.15 405.8 245.85 408.85 251.4 410.2 273.05 402.3 289 392.95 Z"/>
</g>

<g id="portrait_0_Layer2_20_FILL">
<path fill="#615537" stroke="none" d="
M 285.65 441.6
Q 288 439.7 289.4 438 279.45 443.35 265.8 455 263.4 458.3 263.15 459.05 262.3 461.75 265.2 464.65 265.65 465.1 265.7 465.35 269.55 463.95 273.35 462.9 275.55 460.55 278.1 460.15 281.6 459.6 281.6 454.2 281.6 453.1 281.45 451.5 281.25 449.85 281.2 449.2
L 281.2 448.65
Q 281.2 446.85 282.85 444.65 283.7 443.6 285.65 441.6 Z"/>
</g>

<g id="portrait_0_Layer2_21_FILL">
<path fill="#A39F71" stroke="none" d="
M 239.5 394.35
L 239.6 394.45
Q 246.65 391.9 267.95 380.25 289.75 368.35 296.35 363.25 304.55 356.9 303.45 347.5 300.3 343.4 294.1 338.2 287.35 332.75 284.8 330.5 285.1 343.85 267.35 357.85 256.4 366.4 241.15 373.6 241.25 374.75 239.7 376.75 237.7 379.3 237.1 380.8 235.35 385.1 235.45 387.2 235.6 390.7 239.5 394.35 Z"/>
</g>

<g id="portrait_0_Layer2_22_FILL">
<path fill="#483C27" stroke="none" d="
M 285.05 423.2
L 286.05 422.7
Q 286.3 422.3 287.95 420.65 292.25 417.95 295.3 415.7 301.15 411.4 301.25 407.45 287.85 412.05 274.2 425.75 260.95 438.9 254.75 442.65 255.8 442.85 256.25 442.35 256.5 442.05 256.95 442.5 257.2 442.75 257 443.8 259.45 442.45 267.75 435.15 275.85 428.1 285.05 423.2 Z"/>
</g>

<g id="portrait_0_Layer2_23_FILL">
<path fill="#8B8359" stroke="none" d="
M 290.4 397.85
L 290.2 397.7
Q 289.45 397.25 289.2 396.05 289 395.15 289 392.95 273.05 402.3 251.4 410.2
L 252.35 410.45 251.7 411
Q 251.05 411.8 250.85 412.75 250.15 415.95 254.35 420.15 255.35 421.1 255.45 422.05 271.45 412.6 290.4 397.85 Z"/>
</g>

<g id="portrait_0_Layer2_24_FILL">
<path fill="#8B8359" stroke="none" d="
M 289.45 437.9
Q 293.65 432.95 289.7 429.05 286.55 425.9 285.95 425 285.15 423.8 285.85 422.8
L 284.85 423.3
Q 275.65 428.2 267.55 435.25 259.25 442.55 256.8 443.9 256.45 445.7 257 446.45 258 447.8 262 447.8 265 447.8 265.95 448.7 266.85 449.6 266.85 452.7 266.85 453.65 265.85 454.9 279.35 443.4 289.45 437.9 Z"/>
</g>

<g id="portrait_0_Layer2_25_FILL">
<path fill="#615537" stroke="none" d="
M 295.05 399.6
Q 291.4 398.35 290.4 397.85 271.45 412.6 255.45 422.05 255.6 423.15 254.4 424.15 253.75 424.65 252.75 425.3 252.4 425.7 247.6 430.4 243.8 435.1 247.75 435.8 251.35 436.45 251.55 437.3 251.65 437.75 251 438.05
L 250.8 439.8
Q 251.1 441.7 253.85 442.55
L 254.55 442.75
Q 260.8 439 274 425.8 287.65 412.15 301.05 407.55 301.05 406 300.3 404.55 298.6 401.3 295.05 399.6 Z"/>
</g>

<g id="portrait_0_Layer2_26_FILL">
<path fill="#8B8359" stroke="none" d="
M 277.35 292.55
Q 277.35 289.8 276.9 285.3 271.3 298.8 265.3 309 262.55 313.6 257.8 319.65 255.1 323.05 249.25 330.45 242.95 338.95 238.4 347.5
L 237.8 352.25 237.7 359.9 237.95 362.55 238 362.7 238.95 367.6 239 367.7 239.85 370.4
Q 240.55 372.15 240.75 372.55 240.95 373.15 240.95 373.4 256.1 366.35 267.15 357.65 284.9 343.7 284.6 330.35
L 281.6 327.35
Q 281.05 326.65 280.75 326.05
L 280.25 325 279.95 324
Q 279.65 323.15 279.3 321.5 277.35 312.25 277.35 292.55 Z"/>
</g>

<g id="winnie___andy___mrs_chan_ai_Layer_1__Path__69_0_Layer0_0_FILL">
<path fill="#3C3317" stroke="none" d="
M 51.45 15.5
Q 46.5 11.4 45.5 9.45 44.1 6.8 43.25 0 43.25 7.45 48.15 14.85 52.55 21.4 59.25 25.8 65.15 29.65 65.05 36.3 64.95 42.5 60.05 47.4 58.1 49.35 57.2 49.05 55.6 48.5 54.3 48.95 53.45 49.25 53.05 51.15 52.85 52.3 52.35 55.3 50.8 61.4 44.35 63.25 39.5 64.65 35.05 62.15 30.55 59.7 29 60.1 25.85 61.25 24.55 61.65 22.4 62.25 19.25 61.45 12.6 59.8 9.55 53 5.7 44.35 9.85 30.45 13.7 17.6 12.15 10.05 11.4 6.3 9.85 5.1 4 25.8 3.4 29.35 0.65 45.1 5.5 55.95 6.15 57.4 4.6 59.5 2.15 62.75 1.65 64.05 -0.1 68.35 0 70.45 0.2 73.95 4.1 77.6 4.25 77.7 3.25 79.4 2.1 81.2 3.5 82.95 5.35 85.35 8.05 89.4 10.9 92.5 17.1 93.85
L 16.45 94.4
Q 15.8 95.2 15.6 96.15 14.9 99.35 19.1 103.55 21 105.45 19.7 106.95 19.05 107.8 17.5 108.7 17.15 109.1 12.35 113.8 8.55 118.5 12.5 119.2 16.1 119.85 16.3 120.7 16.4 121.15 15.75 121.45
L 15.55 123.2
Q 15.85 125.1 18.6 125.95 20.2 126.45 20.75 125.9 21.1 125.55 21.5 125.95 22 126.45 21.4 128.95 21.7 131.2 26.75 131.2 29.75 131.2 30.7 132.1 31.6 133 31.6 136.1 31.6 137.05 30.5 138.45 28.65 140.85 28.6 141 26.45 144.45 30 147.95 30.8 148.75 29.85 149.85 28.45 151.35 29.25 154.7 29.5 155.85 28.85 156.25 28.7 156.35 27.3 156.65 25.15 157.2 26.2 160.65 26.8 162.65 27.9 163.15 29.75 164 30.25 164.45 31.05 165.3 29.95 167.75 29.4 168.95 28.65 170 30.2 168.35 31.5 166.45 34.15 162.65 32.95 161.45 31.5 159.95 31.5 159.25 31.5 158.6 32.75 157.3 33.25 156.85 36.3 155.25 38.8 154 39.3 152.55 40.25 149.95 38.85 148.3
L 37.3 147.2
Q 37.9 146.4 38.85 145.55 40.85 143.8 42.9 143.45 46.1 142.9 46.35 138.4 46 133.35 46 131.95 46 130.15 47.65 127.95 48.5 126.9 50.45 124.9 54.85 120.5 55.1 120.15 57.95 115.9 54.45 112.45 50.45 108.45 50.25 107.45 50.05 106.55 52.5 104.1 57.85 100.85 61.2 98.1 67.65 92.85 65.05 87.95 63.3 84.6 59.6 82.9 55.8 81.65 54.95 81.1 54.1 80.6 53.9 79.1 53.75 78.15 53.75 75.1 54.8 73 58.85 68.95
L 62.6 66.4
Q 71.35 59.95 71.9 54.7 72.05 53.6 71.75 49.7 71.5 46.25 72.05 43.45 73.75 34.75 61.1 23.5 60.6 23.05 51.45 15.5 Z"/>
</g>

<g id="portrait_0_Layer2_28_FILL">
<path fill="#F5ECC9" stroke="none" d="
M 264 285.55
L 259.5 260.05 239.5 240.05 212.5 235.05 197.5 248.05 185.5 266.05 185.1 288.3
Q 185.2 311.75 187.75 317.8 191.2 326.1 200.9 333.9 211.1 342.1 220 342.85 229.2 343.6 243.6 332.7 258.45 321.45 260 311.1 261.55 300.5 262.95 291.95
L 264 285.55 Z"/>
</g>

<g id="portrait_0_Layer2_29_MEMBER_0_FILL">
<path fill="#FC483B" stroke="none" d="
M 215 325.05
L 210.25 324.35 206.35 325.85
Q 206.4 326 208 328.55 210.6 331.1 216 331.35 219.45 331.5 222.25 329.5 224.75 327.65 224.75 326 224.75 325.85 224.45 325.75 224.05 325.7 224 325.65
L 223.45 325.2
Q 222 325.2 219.2 325 216.7 324.8 216.65 324.8
L 215 325.05 Z"/>
</g>

<g id="portrait_0_Layer2_30_FILL">
<path fill="#1D2F11" stroke="none" d="
M 238.75 284.05
Q 236.8 282.1 233.35 281.95
L 230.35 282.2 229.45 284.5
Q 228.5 287.25 228.3 289.5 227.65 296.8 234.5 296.8 238.65 296.8 239.95 296.1 241.5 295.35 241.5 292.8 241.5 290.05 241.3 288.95 240.75 286.05 238.75 284.05 Z"/>
</g>

<g id="portrait_0_Layer2_31_MEMBER_0_FILL">
<path fill="#19130C" stroke="none" d="
M 241.15 283.6
Q 238.95 280.7 233.55 280.9 228.4 281.1 228.65 282.35 228.7 282.55 233.15 282.85 237.85 283.2 239.2 285.55 239.85 286.7 240.1 288.1 240.25 288.9 240.5 290.6 240.55 290.75 240.85 293.3 241.1 295.35 241.3 295.55 241.55 295.8 242.45 293.1 243.3 290.4 243.1 289.7 242.9 287.85 242.7 286.9 242.4 285.25 241.15 283.6 Z"/>
</g>

<g id="portrait_0_Layer2_32_MEMBER_0_FILL">
<path fill="#8B8359" stroke="none" d="
M 247.5 272.45
Q 247.95 272.1 244.8 270.4 241.8 268.8 238.85 267.65 235.6 266.4 231.55 267.05 228.55 267.55 227.85 268.15 227.35 268.5 227.3 269.05 227.3 269.6 227.8 270 228.25 270.4 228.95 270.45 229.7 270.5 230.2 270.1 230.25 270.1 232.45 269.4 235.25 268.9 238.4 269.6 241.35 270.3 244.8 271.7 247.15 272.7 247.5 272.45 Z"/>
</g>

<g id="portrait_0_Layer2_33_FILL">
<path fill="#FAF3E1" stroke="none" d="
M 216.2 303.9
Q 214.9 297.7 213.65 301.4
L 211.85 311.4
Q 211.6 312.7 210.4 314.15 209.25 315.5 209.25 315.9 209.2 316.5 210.35 317.5 212.35 319.3 212.5 319.45 213.85 320.9 220.3 315.75 220.6 315.5 218.95 313.95 217.2 312.25 217.2 311.65 217.3 309.3 216.2 303.9 Z"/>
</g>

<g id="portrait_0_Layer2_34_FILL">
<path fill="#E92C1E" stroke="none" d="
M 217.5 322.55
Q 217.3 322.5 217.1 322.6
L 214.35 324.45 211.9 322.85
Q 211.6 322.7 211.3 322.9 210.15 323.45 208.6 323.95 205.5 324.9 203.65 324.6 203.3 324.55 204.55 325.3 205.7 326.05 206.45 326.05
L 211.75 326.4
Q 211.95 326.4 212.85 326.7 213.75 327 214.35 327 215.05 327 215.85 326.75 216.7 326.5 217 326.5 221.4 326.6 223.85 326.25 229.35 325.35 228.3 324.75 226.6 325.05 221.9 323.85 217.55 322.6 217.5 322.55 Z"/>
</g>

<g id="portrait_0_Layer2_35_FILL">
<path fill="#1D2F11" stroke="none" d="
M 199.95 282.15
Q 198.65 281.85 196.95 281.95 193.55 282.1 191.6 284.05 189.6 286.05 189.05 288.95 188.85 290 188.85 292.8 188.85 295.35 190.4 296.1 191.7 296.8 195.85 296.8 202.75 296.8 202.05 289.5 201.8 287.2 200.85 284.45
L 199.95 282.15 Z"/>
</g>

<g id="portrait_0_Layer2_36_FILL">
<path fill="#A39F71" stroke="none" d="
M 256.6 239.45
Q 250.8 235.55 246 235.55
L 241.65 235.55
Q 238.8 231.15 232.15 228.75 218.75 223.95 199.5 234.05 187.5 240.3 180.65 257 176.5 267.05 173.85 282.8
L 173.1 287.4
Q 174.7 287.15 176.2 286.3 177.95 285.35 180.6 284.7 205.3 278.45 223.85 262.65 233.15 254.7 237.5 248.05
L 239.65 250.45
Q 242.15 254.15 244 260.55 249.55 279.7 250.9 283.9 256.05 299.95 259.1 303 270.75 314.6 279.15 320.8 277.35 311.45 277.35 292.55 277.35 286.05 275.65 275.65 273.15 260.4 268.5 252.55 263.5 244.1 256.6 239.45 Z"/>
</g>

<g id="winnie___andy___mrs_chan_ai_Layer_1__Path__63_0_Layer0_0_FILL">
<path fill="#F4BE78" stroke="none" d="
M 5.1 10.2
Q 4.95 3.2 4.9 0 4.6 0.4 4.4 1.1
L 2.6 11.1
Q 2.4 12.4 1.15 13.8 0 15.15 0 15.55 0 16.15 1.1 16.95 1.8 17.45 3.65 18.7 4.15 19.2 4.65 19.15 5.1 16.2 5.1 10.2 Z"/>
</g>

<g id="portrait_0_Layer2_38_FILL">
<path fill="#E1A353" stroke="none" d="
M 218.9 316
Q 216.8 317 213.25 316.85 211.5 316.8 209.55 316.15 208.95 315.95 209.7 316.75
L 212 318.7
Q 214.5 320.4 215.55 319.45 218.35 317.3 219.55 316.35 221.6 314.75 218.9 316 Z"/>
</g>

<g id="winnie___andy___mrs_chan_ai_Layer_1__Path__61_0_Layer0_0_FILL">
<path fill="#FEFEFE" stroke="none" d="
M 3.05 2.35
Q 3.05 1.35 2.6 0.7 2.2 0 1.55 0 0.9 0 0.45 0.7 0 1.4 0 2.35 0 3.3 0.45 4 0.9 4.7 1.55 4.7 2.2 4.7 2.6 4 3.05 3.35 3.05 2.35 Z"/>
</g>

<g id="winnie___andy___mrs_chan_ai_Layer_1__Path__60_0_Layer0_0_FILL">
<path fill="#FEFEFE" stroke="none" d="
M 2.35 1.55
Q 2.35 0.9 2 0.45 1.7 0 1.2 0 0.7 0 0.35 0.45 0 0.9 0 1.55 0 2.2 0.35 2.7 0.7 3.15 1.2 3.15 1.7 3.15 2 2.7 2.35 2.25 2.35 1.55 Z"/>
</g>

<g id="winnie___andy___mrs_chan_ai_Layer_1__Path__59_0_Layer0_0_FILL">
<path fill="#FB827F" stroke="none" d="
M 16.7 9.85
Q 16.7 5.75 14.25 2.9 11.8 0 8.35 0 4.9 0 2.45 2.9 0 5.75 0 9.85 0 13.95 2.45 16.8 4.9 19.7 8.35 19.7 11.8 19.7 14.25 16.8 16.7 13.95 16.7 9.85 Z"/>
</g>

<g id="winnie___andy___mrs_chan_ai_Layer_1__Path__58_0_Layer0_0_FILL">
<path fill="#FB827F" stroke="none" d="
M 21 10.65
Q 21 6.25 17.95 3.1 14.85 0 10.5 0 6.15 0 3.1 3.1 0 6.25 0 10.65 0 15.05 3.1 18.15 6.15 21.25 10.5 21.25 14.85 21.25 17.95 18.15 21 15.05 21 10.65 Z"/>
</g>

<g id="winnie___andy___mrs_chan_ai_Layer_1__Path__57_0_Layer0_0_FILL">
<path fill="#FEFEFE" stroke="none" d="
M 6.3 3.2
Q 6.3 1.9 5.4 0.95 4.45 0 3.15 0 1.85 0 0.9 0.95 0 1.9 0 3.2 0 4.5 0.9 5.45 1.85 6.35 3.15 6.35 4.45 6.35 5.4 5.45 6.3 4.5 6.3 3.2 Z"/>
</g>

<g id="winnie___andy___mrs_chan_ai_Layer_1__Path__56_0_Layer0_0_FILL">
<path fill="#FEFEFE" stroke="none" d="
M 3.1 2.35
Q 3.1 1.4 2.65 0.7 2.2 0 1.55 0 0.9 0 0.45 0.7 0 1.4 0 2.35 0 3.3 0.45 4 0.9 4.7 1.55 4.7 2.2 4.7 2.65 4 3.1 3.3 3.1 2.35 Z"/>
</g>

<g id="winnie___andy___mrs_chan_ai_Layer_1__Path__55_0_Layer0_0_FILL">
<path fill="#FEFEFE" stroke="none" d="
M 2.4 1.6
Q 2.4 0.95 2.05 0.45 1.7 0 1.2 0 0.7 0 0.35 0.45 0 0.95 0 1.6 0 2.25 0.35 2.7 0.7 3.15 1.2 3.15 1.7 3.15 2.05 2.7 2.4 2.25 2.4 1.6 Z"/>
</g>

<g id="portrait_0_Layer2_46_MEMBER_0_FILL">
<path fill="#19130C" stroke="none" d="
M 201.65 282.35
Q 201.9 281.1 196.75 280.9 191.35 280.7 189.15 283.6 187.9 285.25 187.6 286.9 187.4 287.85 187.2 289.7 187.05 290.4 187.9 293.1 188.75 295.8 189 295.55 189.2 295.35 189.45 293.3 189.75 290.9 189.85 290.6 190.1 288.9 190.25 288.1 190.5 286.7 191.1 285.55 192.45 283.2 197.15 282.85 201.6 282.55 201.65 282.35 Z"/>
</g>

<path id="portrait_0_Layer2_30_1_STROKES" stroke="#71C9A0" stroke-width="1" stroke-linejoin="round" stroke-linecap="round" fill="none" d="
M 4.166339874267578 -33.951937866210955
L 3.4549888610839616 -32.13404083251953
Q 2.704118347167963 -29.960468292236328 2.5460403442382926 -28.182090759277344 2.0322868347167855 -22.412243652343733 7.446458435058588 -22.412243652343733 10.726576995849598 -22.412243652343733 11.754084014892555 -22.96551666259765 12.97918853759765 -23.55830917358398 12.97918853759765 -25.573803710937483 12.97918853759765 -27.747376251220686 12.82111053466798 -28.616805267334 12.386396026611322 -30.908936309814436 10.805615997314447 -32.48971633911131 9.264355468750011 -34.030976867675776 6.537509918212891 -34.149535369873064
L 4.166339874267578 -33.951937866210955 Z"/>

<path id="portrait_0_Layer2_35_1_STROKES" stroke="#71C9A0" stroke-width="1" stroke-linejoin="round" stroke-linecap="round" fill="none" d="
M -19.861516571044945 -33.991457366943365
L -19.150165557861328 -32.17356033325197
Q -18.3992950439453 -29.999987792968767 -18.20169754028319 -28.182090759277344 -17.648424530029303 -22.412243652343733 -23.102115631103516 -22.412243652343733 -26.382234191894554 -22.412243652343733 -27.40974121093751 -22.96551666259765 -28.634845733642578 -23.55830917358398 -28.634845733642578 -25.573803710937483 -28.634845733642578 -27.786895751953125 -28.47676773071288 -28.616805267334 -28.04205322265625 -30.908936309814436 -26.461273193359375 -32.48971633911131 -24.92001266479491 -34.030976867675776 -22.232686614990257 -34.149535369873064 -20.889023590087902 -34.228574371337885 -19.861516571044945 -33.991457366943365 Z"/>

<path id="portrait_0_Layer0_0_1_STROKES" stroke="#000000" stroke-width="5" stroke-linejoin="round" stroke-linecap="round" fill="none" d="
M 90 0.2
Q 90 37.7 63.5 64.2 37 90.7 -0.5 90.7 -38 90.7 -64.5 64.2 -91 37.7 -91 0.2 -91 -37.3 -64.5 -63.8 -38 -90.3 -0.5 -90.3 37 -90.3 63.5 -63.8 90 -37.3 90 0.2 Z"/>
</defs>

<g id="winnie" transform="matrix( 1, 0, 0, 1, 100.5,103.8) ">
<mask id="Mask_Mask_1">
<g transform="matrix( 1, 0, 0, 1, 0,0) ">
<use xlink:href="#Mask_portrait_0_3_MASK_0_FILL"/>
</g>
</mask>

<g mask="url(#Mask_Mask_1)">
<g transform="matrix( 1, 0, 0, 1, 0,0) ">
<use xlink:href="#portrait_0_Layer3_0_FILL"/>
</g>
</g>

<g mask="url(#Mask_Mask_1)">
<g transform="matrix( 1, 0, 0, 1, -100,-100) ">
<use xlink:href="#portrait_0_Layer2_0_FILL"/>
</g>

<g transform="matrix( 0.7903900146484375, 0, 0, 0.7903900146484375, -177.9,-257) ">
<use xlink:href="#portrait_0_Layer2_1_FILL"/>
</g>

<g transform="matrix( 1, 0, 0, 1, -100,-100) ">
<use xlink:href="#portrait_0_Layer2_2_FILL"/>
</g>

<g transform="matrix( 0.7903900146484375, 0, 0, 0.7903900146484375, -177.9,-257) ">
<use xlink:href="#portrait_0_Layer2_3_FILL"/>
</g>

<g transform="matrix( 0.7903900146484375, 0, 0, 0.7903900146484375, -177.9,-257) ">
<use xlink:href="#portrait_0_Layer2_4_FILL"/>
</g>

<g transform="matrix( 0.7903900146484375, 0, 0, 0.7903900146484375, -177.9,-257) ">
<use xlink:href="#portrait_0_Layer2_5_FILL"/>
</g>

<g transform="matrix( 0.7903900146484375, 0, 0, 0.7903900146484375, -177.9,-257) ">
<use xlink:href="#portrait_0_Layer2_6_FILL"/>
</g>

<g transform="matrix( 0.7903900146484375, 0, 0, 0.7903900146484375, -177.9,-257) ">
<use xlink:href="#portrait_0_Layer2_7_FILL"/>
</g>

<g transform="matrix( 0.7903900146484375, 0, 0, 0.7903900146484375, -177.9,-257) ">
<use xlink:href="#portrait_0_Layer2_8_FILL"/>
</g>

<g transform="matrix( 0.7903900146484375, 0, 0, 0.7903900146484375, -177.9,-257) ">
<use xlink:href="#portrait_0_Layer2_9_FILL"/>
</g>

<g transform="matrix( 0.7903900146484375, 0, 0, 0.7903900146484375, -177.9,-257) ">
<use xlink:href="#portrait_0_Layer2_10_FILL"/>
</g>

<g transform="matrix( 0.7903900146484375, 0, 0, 0.7903900146484375, -177.9,-257) ">
<use xlink:href="#portrait_0_Layer2_11_FILL"/>
</g>

<g transform="matrix( 0.7903900146484375, 0, 0, 0.7903900146484375, -177.9,-257) ">
<use xlink:href="#portrait_0_Layer2_12_FILL"/>
</g>

<g transform="matrix( 0.7903900146484375, 0, 0, 0.7903900146484375, 8.8,-31.05) ">
<g transform="matrix( 1, 0, 0, 1, 0,0) ">
<use filter="url(#Filter_1)" xlink:href="#winnie___andy___mrs_chan_ai_Layer_1__Path__92_0_Layer0_0_FILL"/>
</g>
</g>

<g transform="matrix( 0.7903900146484375, 0, 0, 0.7903900146484375, 9.5,-26.85) ">
<g transform="matrix( 1, 0, 0, 1, 0,0) ">
<use filter="url(#Filter_1)" xlink:href="#winnie___andy___mrs_chan_ai_Layer_1__Path__91_0_Layer0_0_FILL"/>
</g>
</g>

<g transform="matrix( 0.7903900146484375, 0, 0, 0.7903900146484375, -64.8,8.8) ">
<g transform="matrix( 1, 0, 0, 1, 0,0) ">
<use filter="url(#Filter_2)" xlink:href="#winnie___andy___mrs_chan_ai_Layer_1__Path__81_0_Layer0_0_FILL"/>
</g>
</g>

<g transform="matrix( 0.7903900146484375, 0, 0, 0.7903900146484375, -177.9,-257) ">
<use xlink:href="#portrait_0_Layer2_16_FILL"/>
</g>

<g transform="matrix( 0.7903900146484375, 0, 0, 0.7903900146484375, -177.9,-257) ">
<use xlink:href="#portrait_0_Layer2_17_FILL"/>
</g>

<g transform="matrix( 0.7903900146484375, 0, 0, 0.7903900146484375, -177.9,-257) ">
<use xlink:href="#portrait_0_Layer2_18_FILL"/>
</g>

<g transform="matrix( 0.7903900146484375, 0, 0, 0.7903900146484375, -177.9,-257) ">
<use xlink:href="#portrait_0_Layer2_19_FILL"/>
</g>

<g transform="matrix( 0.7903900146484375, 0, 0, 0.7903900146484375, -177.9,-257) ">
<use xlink:href="#portrait_0_Layer2_20_FILL"/>
</g>

<g transform="matrix( 0.7903900146484375, 0, 0, 0.7903900146484375, -177.9,-257) ">
<use xlink:href="#portrait_0_Layer2_21_FILL"/>
</g>

<g transform="matrix( 0.7903900146484375, 0, 0, 0.7903900146484375, -177.9,-257) ">
<use xlink:href="#portrait_0_Layer2_22_FILL"/>
</g>

<g transform="matrix( 0.7903900146484375, 0, 0, 0.7903900146484375, -177.9,-257) ">
<use xlink:href="#portrait_0_Layer2_23_FILL"/>
</g>

<g transform="matrix( 0.7903900146484375, 0, 0, 0.7903900146484375, -177.9,-257) ">
<use xlink:href="#portrait_0_Layer2_24_FILL"/>
</g>

<g transform="matrix( 0.7903900146484375, 0, 0, 0.7903900146484375, -177.9,-257) ">
<use xlink:href="#portrait_0_Layer2_25_FILL"/>
</g>

<g transform="matrix( 0.7903900146484375, 0, 0, 0.7903900146484375, -177.9,-257) ">
<use xlink:href="#portrait_0_Layer2_26_FILL"/>
</g>

<g transform="matrix( 0.7903900146484375, 0, 0, 0.7903900146484375, 8,-6.75) ">
<g transform="matrix( 1, 0, 0, 1, 0,0) ">
<use filter="url(#Filter_2)" xlink:href="#winnie___andy___mrs_chan_ai_Layer_1__Path__69_0_Layer0_0_FILL"/>
</g>
</g>

<g transform="matrix( 0.7903900146484375, 0, 0, 0.7903900146484375, -177.9,-257) ">
<use xlink:href="#portrait_0_Layer2_28_FILL"/>
</g>

<g transform="matrix( 0.7903900146484375, 0, 0, 0.7903900146484375, -177.95,-256.85) ">
<use xlink:href="#portrait_0_Layer2_29_MEMBER_0_FILL"/>
</g>

<g transform="matrix( 0.7903900146484375, 0, 0, 0.7903900146484375, -177.9,-257) ">
<use xlink:href="#portrait_0_Layer2_30_FILL"/>

<use xlink:href="#portrait_0_Layer2_30_1_STROKES" transform="matrix( 1.26519775390625, 0, 0, 1.26519775390625, 225.1,325.15) "/>
</g>

<g transform="matrix( 0.7903900146484375, 0, 0, 0.7903900146484375, -177.95,-256.85) ">
<use xlink:href="#portrait_0_Layer2_31_MEMBER_0_FILL"/>
</g>

<g transform="matrix( 0.7903900146484375, 0, 0, 0.7903900146484375, -177.95,-256.85) ">
<use xlink:href="#portrait_0_Layer2_32_MEMBER_0_FILL"/>
</g>

<g transform="matrix( 0.7903900146484375, 0, 0, 0.7903900146484375, -177.9,-257) ">
<use xlink:href="#portrait_0_Layer2_33_FILL"/>
</g>

<g transform="matrix( 0.7903900146484375, 0, 0, 0.7903900146484375, -177.9,-257) ">
<use xlink:href="#portrait_0_Layer2_34_FILL"/>
</g>

<g transform="matrix( 0.7903900146484375, 0, 0, 0.7903900146484375, -177.9,-257) ">
<use xlink:href="#portrait_0_Layer2_35_FILL"/>

<use xlink:href="#portrait_0_Layer2_35_1_STROKES" transform="matrix( 1.26519775390625, 0, 0, 1.26519775390625, 225.1,325.15) "/>
</g>

<g transform="matrix( 0.7903900146484375, 0, 0, 0.7903900146484375, -177.9,-257) ">
<use xlink:href="#portrait_0_Layer2_36_FILL"/>
</g>

<g transform="matrix( 0.7903900146484375, 0, 0, 0.7903900146484375, -12.55,-19.5) ">
<g transform="matrix( 1, 0, 0, 1, 0,0) ">
<use filter="url(#Filter_3)" xlink:href="#winnie___andy___mrs_chan_ai_Layer_1__Path__63_0_Layer0_0_FILL"/>
</g>
</g>

<g transform="matrix( 0.7903900146484375, 0, 0, 0.7903900146484375, -177.9,-257) ">
<use xlink:href="#portrait_0_Layer2_38_FILL"/>
</g>

<g transform="matrix( 0.7903900146484375, 0, 0, 0.7903900146484375, -21.85,-31.45) ">
<g transform="matrix( 1, 0, 0, 1, 0,0) ">
<use filter="url(#Filter_1)" xlink:href="#winnie___andy___mrs_chan_ai_Layer_1__Path__61_0_Layer0_0_FILL"/>
</g>
</g>

<g transform="matrix( 0.7903900146484375, 0, 0, 0.7903900146484375, -21.1,-27.25) ">
<g transform="matrix( 1, 0, 0, 1, 0,0) ">
<use filter="url(#Filter_1)" xlink:href="#winnie___andy___mrs_chan_ai_Layer_1__Path__60_0_Layer0_0_FILL"/>
</g>
</g>

<g transform="matrix( 0.7903900146484375, 0, 0, 0.7903900146484375, -30.05,-19.8) ">
<g transform="matrix( 1, 0, 0, 1, 0,0) ">
<use filter="url(#Filter_4)" xlink:href="#winnie___andy___mrs_chan_ai_Layer_1__Path__59_0_Layer0_0_FILL"/>
</g>
</g>

<g transform="matrix( 0.7903900146484375, 0, 0, 0.7903900146484375, 1.7,-19.45) ">
<g transform="matrix( 1, 0, 0, 1, 0,0) ">
<use filter="url(#Filter_4)" xlink:href="#winnie___andy___mrs_chan_ai_Layer_1__Path__58_0_Layer0_0_FILL"/>
</g>
</g>

<g transform="matrix( 0.7903900146484375, 0, 0, 0.7903900146484375, -11.05,-11.1) ">
<g transform="matrix( 1, 0, 0, 1, 0,0) ">
<use filter="url(#Filter_1)" xlink:href="#winnie___andy___mrs_chan_ai_Layer_1__Path__57_0_Layer0_0_FILL"/>
</g>
</g>

<g transform="matrix( 0.7903900146484375, 0, 0, 0.7903900146484375, 8.7,-30.55) ">
<g transform="matrix( 1, 0, 0, 1, 0,0) ">
<use filter="url(#Filter_1)" xlink:href="#winnie___andy___mrs_chan_ai_Layer_1__Path__56_0_Layer0_0_FILL"/>
</g>
</g>

<g transform="matrix( 0.7903900146484375, 0, 0, 0.7903900146484375, 9.45,-26.35) ">
<g transform="matrix( 1, 0, 0, 1, 0,0) ">
<use filter="url(#Filter_1)" xlink:href="#winnie___andy___mrs_chan_ai_Layer_1__Path__55_0_Layer0_0_FILL"/>
</g>
</g>

<g transform="matrix( 0.7903900146484375, 0, 0, 0.7903900146484375, -177.95,-256.85) ">
<use xlink:href="#portrait_0_Layer2_46_MEMBER_0_FILL"/>
</g>
</g>

<g transform="matrix( 1, 0, 0, 1, 0,0) ">
<use xlink:href="#portrait_0_Layer0_0_1_STROKES"/>
</g>
</g>
</svg>
