<?xml version="1.0" encoding="utf-8"?>
<!-- Generator: Adobe Illustrator 16.0.0, SVG Export Plug-In . SVG Version: 6.00 Build 0)  -->
<!DOCTYPE svg PUBLIC "-//W3C//DTD SVG 1.1//EN" "http://www.w3.org/Graphics/SVG/1.1/DTD/svg11.dtd">
<svg xmlns="http://www.w3.org/2000/svg" version="1.1" xmlns:xlink="http://www.w3.org/1999/xlink" preserveAspectRatio="none" x="0px" y="0px" width="200px" height="200px" viewBox="0 0 200 200">
<defs>
<g id="shadow_0_Layer1_0_FILL">
<path fill="#628A00" stroke="none" d="
M 45.25 0.1
Q 47.8279296875 0.1369140625 50.25 0.2 46.5 0 42.45 0 40.8578125 0 39.3 0.05 40.8794921875 0.05 42.5 0.05 43.9 0.05 45.25 0.1
M 77.55 5.95
Q 80.5 7.7251953125 80.5 9.8 80.5 13.85 69.35 16.7 59.25 19.3 45.25 19.55 43.9 19.55 42.5 19.55 26.75 19.55 15.6 16.7 4.5 13.85 4.5 9.8 4.5 7.6939453125 7.5 5.9 0 9.3642578125 0 13.75 0 19.45 12.45 23.45 24.9 27.5 42.45 27.5 60.05 27.5 72.5 23.45 84.95 19.45 84.95 13.75 84.95 9.401953125 77.55 5.95 Z"/>

<path fill="#62B500" stroke="none" d="
M 69.35 2.9
Q 66.159765625 2.0787109375 62.55 1.55
L 50.25 0.2
Q 47.8279296875 0.1369140625 45.25 0.1 43.9 0.05 42.5 0.05 40.8794921875 0.05 39.3 0.05
L 30.35 0.5 22.6 1.5
Q 18.89453125 2.0580078125 15.6 2.9 10.2720703125 4.26796875 7.5 5.9 4.5 7.6939453125 4.5 9.8 4.5 13.85 15.6 16.7 26.75 19.55 42.5 19.55 43.9 19.55 45.25 19.55 59.25 19.3 69.35 16.7 80.5 13.85 80.5 9.8 80.5 7.7251953125 77.55 5.95 75.2162109375 4.55625 70.95 3.35 70.15 3.1 69.35 2.9
M 41.75 4.05
Q 50.15 4.05 56.05 5.65 62 7.25 62 9.55 62 11.85 56.05 13.45 50.15 15.05 41.75 15.05 33.35 15.05 27.4 13.45 21.5 11.85 21.5 9.55 21.5 7.25 27.4 5.65 33.35 4.05 41.75 4.05 Z"/>

<path fill="#62B501" stroke="none" d="
M 56.05 5.65
Q 50.15 4.05 41.75 4.05 33.35 4.05 27.4 5.65 21.5 7.25 21.5 9.55 21.5 11.85 27.4 13.45 33.35 15.05 41.75 15.05 50.15 15.05 56.05 13.45 62 11.85 62 9.55 62 7.25 56.05 5.65 Z"/>
</g>

<g id="shadow_0_Layer0_0_FILL">
<path fill="#003300" fill-opacity="0.20784313725490197" stroke="none" d="
M 62 9.55
Q 62 7.25 56.05 5.65 50.15 4.05 41.75 4.05 33.35 4.05 27.4 5.65 21.5 7.25 21.5 9.55 21.5 11.85 27.4 13.45 33.35 15.05 41.75 15.05 50.15 15.05 56.05 13.45 62 11.85 62 9.55 Z"/>
</g>

<g id="lumberjack_legs0_0_Layer0_0_FILL">
<path fill="#000000" stroke="none" d="
M 1.35 -7.9
Q 1 -7.75 0.65 -7.65 0.05 -7.4 -0.4 -7.05 -0.55 -6.95 -0.65 -6.85 -0.65 -6.75 -0.7 -6.65 -0.75 -6.5 -0.85 -6.45 -0.85 -6.4 -0.85 -6.35 -0.9 -6.05 -0.95 -5.75 -0.8931640625 -5.4236328125 -0.85 -5.1 -0.85 -5 -0.85 -4.9 -0.8 -4.8 -0.75 -4.7 -0.7 -4.55 -0.7 -4.4 -0.5 -3.5 -0.25 -2.65 -0.15 -2.15 -0.15 -1.6 -0.15 -0.85 -0.15 -0.15 -0.15 -0.05 -0.2 0 -0.25 0.15 -0.1 0.15 0.0791015625 0.15 0.25 0.15 0.3435546875 0.6900390625 0.35 1.25 0.3181640625 1.2818359375 0.3 1.3 0.3 1.35 0.25 1.35
L 0.2 1.4
Q 0.15 1.5 0.2 1.55 0.25 1.65 0.25 1.8
L 0.3 1.85
Q 0.3 1.95 0.35 1.95 0.4 2 0.5 2
L 0.55 2.05
Q 1.05 2.1 1.55 2 1.6880859375 2 1.75 1.95 1.8328125 1.9037109375 1.9 1.85
L 1.9 1.8
Q 1.844921875 1.6990234375 1.85 1.55 1.77734375 1.55 1.7 1.55 1.3208984375 1.55 1.2 1.35 1.08671875 1.34921875 0.95 1.35 1.0275390625 1.2876953125 1 1.15 0.95 0.8 1.05 0.5 1.05 0.4 1.1 0.35 1.1 0.25 1.15 0.15 1.325 0.15 1.5 0.15 1.5 0.1 1.5 0.05 1.45 0.05 1.45 0 1.4 -0.05 1.4 -0.15 1.4 -0.75 1.45 -1.35 1.45 -1.4 1.5 -1.5 1.55 -1.6 1.55 -1.75 1.55 -2.05 1.6 -2.35 1.65 -2.65 1.8 -2.9 1.85 -2.9 1.85 -2.95 2.05 -3.15 2.1 -3.4
L 2.1 -3.45
Q 2.15 -3.5 2.2 -3.6 2.2 -3.65 2.25 -3.7 2.35 -3.85 2.4 -4 2.4 -4.05 2.45 -4.15
L 2.45 -4.2
Q 2.5 -4.25 2.5 -4.35 2.5 -4.6 2.45 -4.85
L 2.45 -4.9
Q 2.4 -5 2.4 -5.1 2.45 -5.9 2.05 -6.6 2 -6.75 1.9 -6.9 1.8 -7.05 1.85 -7.25 1.85 -7.65 1.75 -7.95 1.75 -8 1.65 -8 1.5 -7.95 1.35 -7.9 Z"/>
</g>

<g id="lumberjack_body0_0_Layer0_0_FILL">
<path fill="#000000" stroke="none" d="
M 6.55 -0.2
Q 6.55 -0.15 6.5 -0.15 6.25 0.25 6.05 0.65 6.05 0.75 6 0.8 5.95 0.9 5.9 1 5.85 1.3 5.85 1.6 5.85 1.7 5.85 1.8 5.65 2.15 5.45 2.45 5.15 2.8 5 3.2 5 3.25 5 3.3 4.95 3.4 4.95 3.45 4.95 3.5 4.9 3.5 4.9 3.75 4.9 3.95 4.85 4.2 5 4.35 5.1 4.4 5.1 4.5 5.25 4.85 5.55 5.15 5.55 5.2 5.55 5.3
L 5.6 5.35
Q 5.6 5.75 5.6 6.2 5.65 6.6 5.7 6.95 5.75 7.1 5.8 7.25 5.8 7.35 5.85 7.45 6 7.75 6.15 7.95
L 6.2 8
Q 6.45 8.05 6.6 8.2
L 6.65 8.25
Q 7.1 8.35 7.6 8.3 7.9 8.3 8.15 8.2 8.45 8.05 8.8 8 9.021875 8 9.05 7.8 9 7.196484375 9 7.15 9 6.723828125 9.1 6.3 9.0703125 6.1919921875 9.05 6.05 9 5.3 9 5.25 9 4.4 9.25 3.8 9.5 3.25 9.5 2.8 9.5 2.55 9.25 2.05 9.21484375 1.9798828125 9.15 1.9 9.14375 1.8828125 9.1 1.85 8.985546875 1.7609375 8.9 1.65 8.5791015625 1.5484375 8.4 1.25 8.25 0.75 8.25 0.7
L 8.25 0.65
Q 8.25 0.6 8.25 0.55 8.2 0.05 8.3 -0.4 8.35 -0.6 8.45 -0.85 8.45 -0.9 8.5 -1 8.5 -1.05 8.5 -1.15
L 8.55 -1.15 8.5 -1.2
Q 8.3 -1.25 8.1 -1.25 8 -1.3 7.9 -1.35 7.85 -1.35 7.75 -1.35 7.55 -1.35 7.3 -1.3 7.25 -1.25 7.15 -1.2 7.1 -1.2 7.05 -1.1 7 -1 6.9 -0.95 6.85 -0.95 6.8 -0.9 6.8 -0.8 6.75 -0.7 6.7 -0.6 6.65 -0.5 6.6 -0.4 6.55 -0.2 Z"/>
</g>

<g id="lumberjack_head0_0_Layer0_0_FILL">
<path fill="#000000" stroke="none" d="
M 5.45 2.4
Q 5.3 2.25 5.15 2.15 4.65 2.05 4.25 2.05 4.15 2.05 4.1 2.05 4.05 2.1 3.95 2.15 3.85 2.25 3.8 2.45 3.8 2.5 3.75 2.5 3.5 2.65 3.15 2.7 2.9 2.8 2.65 2.85 2.6 2.9 2.6 2.95 2.55 3.05 2.55 3.15 2.55 3.6 2.5 4.05 2.5 4.25 2.45 4.5 2.45 4.6 2.45 4.7 2.5 4.9 2.35 5 2.15 5.3 1.95 5.65 1.9 5.75 1.8 5.85 1.5 6.2 1.3 6.65 1.25 6.8 1.25 6.95 1.3 7.3 1.3 7.65
L 1.3 7.75
Q 1.3 7.85 1.2 7.95 1.05 8.1 0.95 8.3 0.95 8.35 0.9 8.45 0.85 8.55 0.8 8.7 0.75 8.75 0.75 8.8 0.6 9.15 0.8 9.45 0.95 9.6 1.1 9.8 1.1 9.9 1.2 9.95 1.25 10 1.4 10.05 1.4 10.1 1.4 10.15 1.45 10.35 1.35 10.5
L 1.3 10.55
Q 1.3 10.7 1.35 10.8 1.4 10.85 1.4 10.9 1.55 11 1.65 11.15
L 1.65 11.2
Q 1.65 11.5 1.85 11.7 1.95 11.8 2.05 11.85 2.3 12 2.5 12.3 2.6 12.4 2.65 12.5 2.7 12.6 2.75 12.65 2.8 12.75 2.8 12.8 2.85 12.95 2.85 13.05
L 2.85 13.1
Q 2.9 13.2 2.9 13.25 2.85 13.45 2.95 13.6 2.95 13.65 2.95 13.7 3 13.85 3 14 3 14.05 3 14.15
L 3 14.2
Q 3.25 14.2 3.3 13.95 3.35 13.8 3.35 13.65 3.35 13.45 3.45 13.25 3.45 13.2 3.5 13.1
L 3.5 13
Q 3.5 12.65 3.7 12.45 3.75 12.35 3.8 12.3 3.95 11.95 4.1 11.65 4.3 11.25 4.5 10.9 4.6 10.8 4.6 10.65 4.65 10.6 4.7 10.55
L 4.75 10.55
Q 4.8 10.5 4.85 10.4 5.05 10.1 5.05 9.75 5.05 9.7 5.05 9.6 5.05 9.15 4.95 8.75
L 4.9 8.7
Q 4.75 8.6 4.8 8.45 4.85 8.45 4.85 8.35 4.85 7.95 5.05 7.65
L 5.1 7.65 5.1 7.6
Q 5.15 7.5 5.2 7.4 5.2 7.35 5.25 7.3 5.3 7.15 5.4 6.95 5.45 6.85 5.5 6.85 5.55 6.8 5.55 6.7 5.6 6.7 5.6 6.6 5.7 6.5 5.75 6.35 5.8 6.3 5.85 6.2
L 5.9 6.15 6 6.15
Q 6.05 6.1 6.2 6.05 6.3 6.05 6.4 6 6.45 6 6.45 5.95 6.5 5.85 6.5 5.8 6.55 5.4 6.55 5 6.55 4.95 6.6 4.9 6.65 4.85 6.55 4.75 6.55 4.7 6.55 4.6 6.5 4.6 6.45 4.55 6.4 4.5 6.4 4.45 6.4 4.4 6.35 4.3 6.35 4.25 6.3 4.25 6.25 4.15 6.2 4.1 6.2 3.95 6.2 3.8 6.2 3.75 6.15 3.7 6.15 3.65 6.1 3.55
L 6.05 3.5
Q 6.05 3.45 6.05 3.4 6.05 3.2 5.95 3.1 5.75 2.7 5.45 2.4 Z"/>
</g>
</defs>

<g transform="matrix( 1, 0, 0, 1, 59.5,161.45) ">
<g transform="matrix( 1, 0, 0, 1, 0,0) ">
<use xlink:href="#shadow_0_Layer1_0_FILL"/>
</g>

<g transform="matrix( 1, 0, 0, 1, 0,0) ">
<use xlink:href="#shadow_0_Layer0_0_FILL"/>
</g>
</g>

<g transform="matrix( 12.417221069335938, 0, 0, 8.685272216796875, 92.65,154.65) ">
<g transform="matrix( 1, 0, 0, 1, 0,0) ">
<use xlink:href="#lumberjack_legs0_0_Layer0_0_FILL"/>
</g>
</g>

<g transform="matrix( 8.685272216796875, 0, 0, 8.685272216796875, 35.8,50.35) ">
<g transform="matrix( 1, 0, 0, 1, 0,0) ">
<use xlink:href="#lumberjack_body0_0_Layer0_0_FILL"/>
</g>
</g>

<g transform="matrix( 12.417221069335938, 0, 0, 8.685272216796875, 49.1,-9.1) ">
<g transform="matrix( 1, 0, 0, 1, 0,0) ">
<use xlink:href="#lumberjack_head0_0_Layer0_0_FILL"/>
</g>
</g>
</svg>
