
<svg xmlns="http://www.w3.org/2000/svg" version="1.1" xmlns:xlink="http://www.w3.org/1999/xlink" preserveAspectRatio="none" x="0px" y="0px" width="1000px" height="1000px" viewBox="0 0 1000 1000">
<defs>
<filter id="Filter_1" x="-20%" y="-20%" width="140%" height="140%" color-interpolation-filters="sRGB">
<feColorMatrix in="SourceGraphic" type="matrix" values="1 0 0 0 0 0 1 0 0 0 0 0 1 0 0 0 0 0 0.67 0" result="result1"/>
</filter>

<filter id="Filter_2" x="-20%" y="-20%" width="140%" height="140%" color-interpolation-filters="sRGB">
<feColorMatrix in="SourceGraphic" type="matrix" values="1 0 0 0 0 0 1 0 0 0 0 0 1 0 0 0 0 0 0.83 0" result="result1"/>
</filter>

<filter id="Filter_3" x="-20%" y="-20%" width="140%" height="140%" color-interpolation-filters="sRGB">
<feColorMatrix in="SourceGraphic" type="matrix" values="1 0 0 0 0 0 1 0 0 0 0 0 1 0 0 0 0 0 0.57 0" result="result1"/>
</filter>

<filter id="Filter_4" x="-20%" y="-20%" width="140%" height="140%" color-interpolation-filters="sRGB">
<feColorMatrix in="SourceGraphic" type="matrix" values="1 0 0 0 0 0 1 0 0 0 0 0 1 0 0 0 0 0 0.36 0" result="result1"/>
</filter>

<g id="rat_0_Layer0_0_FILL">
<path fill="#000000" stroke="none" d="
M 19 9.5
Q 19 5.55 16.2 2.75 13.45 0 9.5 0 5.55 0 2.75 2.75 0 5.55 0 9.5 0 13.45 2.75 16.2 5.55 19 9.5 19 13.45 19 16.2 16.2 19 13.45 19 9.5 Z"/>
</g>

<g id="sun_0_Layer2_0_FILL">
<path fill="#DAAF01" fill-opacity="0.5294117647058824" stroke="none" d="
M 146.65 -6.05
Q 114.3 -38.4 68.55 -38.4 22.8 -38.4 -9.55 -6.05 -41.9 26.3 -41.9 72.05 -41.9 117.8 -9.55 150.15 22.8 182.5 68.55 182.5 114.3 182.5 146.65 150.15 179 117.8 179 72.05 179 26.3 146.65 -6.05 Z"/>
</g>

<g id="sun_0_Layer1_0_FILL">
<path fill="#FFCC00" fill-opacity="0.5882352941176471" stroke="none" d="
M 158.05 70.05
Q 158.05 33 131.85 6.8 105.65 -19.4 68.6 -19.4 31.55 -19.4 5.35 6.8 -20.85 33 -20.85 70.05 -20.85 107.1 5.35 133.3 31.55 159.5 68.6 159.5 105.65 159.5 131.85 133.3 158.05 107.1 158.05 70.05 Z"/>
</g>

<g id="sun_0_Layer0_0_FILL">
<path fill="#FFFF00" stroke="none" d="
M 139 69.5
Q 139 40.7 118.65 20.35 98.3 0 69.5 0 40.7 0 20.35 20.35 0 40.7 0 69.5 0 98.3 20.35 118.65 40.7 139 69.5 139 98.3 139 118.65 118.65 139 98.3 139 69.5 Z"/>
</g>

<g id="house_0_Layer5_0_FILL">
<path fill="#C8C8C8" stroke="none" d="
M 141.65 162.35
L 159.95 162.35 159.95 49.5 0 49.5 0 162.35 108.85 162.35 108.85 105.3 141.65 105.3 141.65 162.35
M 10.4 150.8
L 10.4 110.5 96.15 110.5 96.15 150.8 10.4 150.8 Z"/>

<path fill="#999999" stroke="none" d="
M 0 162.35
L 0 196.25 159.95 196.25 159.95 162.35 141.65 162.35 141.65 162.9 108.85 162.9 108.85 162.35 0 162.35
M 9.25 187.65
L 9.25 177.85 39.75 177.85 39.75 187.65 9.25 187.65 Z"/>

<path fill="#CCCCCC" stroke="none" d="
M 9.25 177.85
L 9.25 187.65 39.75 187.65 39.75 177.85 9.25 177.85 Z"/>

<path fill="#FFFFFF" stroke="none" d="
M 159.95 49.5
L 159.95 45.45 0 45.45 0 49.5 159.95 49.5 Z"/>

<path fill="#5B752D" stroke="none" d="
M 159.95 34.25
L 159.95 25.6 0 25.6 0 34.25 159.95 34.25 Z"/>

<path fill="#556D2B" stroke="none" d="
M 159.95 45.45
L 159.95 34.25 0 34.25 0 45.45 159.95 45.45 Z"/>

<path fill="#658135" stroke="none" d="
M 159.95 25.6
L 159.95 14.1 0 14.1 0 25.6 159.95 25.6 Z"/>

<path fill="#73923F" stroke="none" d="
M 159.95 14.1
L 159.95 6.35 0 6.35 0 14.1 159.95 14.1 Z"/>

<path fill="#81A349" stroke="none" d="
M 159.95 6.35
L 159.95 0 0 0 0 6.35 159.95 6.35 Z"/>
</g>

<g id="door_0_Layer1_0_FILL">
<path fill="#000000" stroke="none" d="
M 57.05 0
L 0 0 0 100.05 57.05 100.05 57.05 0
M 51.95 3.65
L 51.95 48.25 34.55 48.25 34.55 43.55 30.95 43.55 30.95 3.65 51.95 3.65
M 25.5 43.55
L 22.55 43.55 22.55 48.1 4.5 48.1 4.5 3.5 25.5 3.5 25.5 43.55
M 31.2 56.3
L 34.55 56.3 34.55 52.7 52.2 52.7 52.2 97.3 31.2 97.3 31.2 56.3
M 22.55 52.6
L 22.55 56.3 25.75 56.3 25.75 97.2 4.75 97.2 4.75 52.6 22.55 52.6 Z"/>

<path fill="#292929" stroke="none" d="
M 22.55 56.3
L 22.55 52.6 4.75 52.6 4.75 97.2 25.75 97.2 25.75 56.3 22.55 56.3
M 34.55 56.3
L 31.2 56.3 31.2 97.3 52.2 97.3 52.2 52.7 34.55 52.7 34.55 56.3
M 22.55 43.55
L 25.5 43.55 25.5 3.5 4.5 3.5 4.5 48.1 22.55 48.1 22.55 43.55
M 51.95 48.25
L 51.95 3.65 30.95 3.65 30.95 43.55 34.55 43.55 34.55 48.25 51.95 48.25 Z"/>
</g>

<g id="door_0_Layer0_0_FILL">
<path fill="#5D4C07" stroke="none" d="
M 24.8 44.9
L 24.8 49.15 24.05 49.15 24.05 53.15 25.25 53.15 25.25 54.5 26.05 54.5 26.05 55.15 31.15 55.15 31.15 54.4 31.8 54.4 31.8 53.15 33.2 53.15 33.2 49.15 32.3 49.15 32.3 44.9 24.8 44.9
M 30.55 53.15
L 30.55 54 26.25 54 26.25 53.15 30.55 53.15 Z"/>
</g>

<g id="house_0_Layer3_0_FILL">
<path fill="#FFFFFF" stroke="none" d="
M 8.9 110.5
L 8.9 150.75 101.6 150.75 101.6 110.5 8.9 110.5
M 11.55 147.95
L 11.55 112.8 99.05 112.8 99.05 147.95 11.55 147.95 Z"/>

<path fill="#DFDFDF" stroke="none" d="
M 11.55 112.8
L 11.55 147.95 99.05 147.95 99.05 112.8 11.55 112.8 Z"/>
</g>

<g id="window_top_0_Layer0_0_FILL">
<path fill="#FFFFFF" stroke="none" d="
M 0 0
L 0 70 49 70 49 0 0 0
M 44.4 3.8
L 45.05 3.8 45.05 66.05 4.25 66.05 3.55 66.05 3.55 3.8 44.4 3.8 Z"/>

<path fill="#DFDFDF" stroke="none" d="
M 3.55 66.05
L 4.25 66.05 44.4 3.8 3.55 3.8 3.55 66.05 Z"/>

<path fill="#EAEAEA" stroke="none" d="
M 45.05 3.8
L 44.4 3.8 4.25 66.05 45.05 66.05 45.05 3.8 Z"/>
</g>

<g id="house_0_Layer1_0_FILL">
<path fill="#999999" stroke="none" d="
M 46.3 145.2
L 61.1 145.2 61.1 162.9 65.1 162.9 65.1 145.2 79.9 145.2 79.9 162.9 83.95 162.9 83.95 145.2 98.75 145.2 98.75 162.9 102.75 162.9 102.75 145.2 108.6 145.2 108.6 140.6 0.05 140.6 0.05 145.2 4.65 145.2 4.65 162.9 8.65 162.9 8.65 145.2 23.45 145.2 23.45 162.9 27.5 162.9 27.5 145.2 42.25 145.2 42.25 162.9 46.3 162.9 46.3 145.2 Z"/>
</g>

<g id="house_0_Layer0_0_FILL">
<path fill="#666666" stroke="none" d="
M 101.6 179.85
L 101.6 187.95 147.1 187.95 147.1 179.85 143.9 179.85 105.4 179.85 101.6 179.85 Z"/>

<path fill="#4E4D4D" stroke="none" d="
M 99.35 188.25
L 99.35 196.9 149.4 196.9 149.4 188.25 147.1 188.25 147.1 187.95 101.6 187.95 101.6 188.25 99.35 188.25 Z"/>

<path fill="#777777" stroke="none" d="
M 108 171.5
L 108 171.25 105.4 171.25 105.4 179.85 143.9 179.85 143.9 171.25 141.35 171.25 141.35 171.5 108 171.5 Z"/>

<path fill="#8D8D8D" stroke="none" d="
M 108 162.85
L 108 171.25 108 171.5 141.35 171.5 141.35 171.25 141.35 162.85 108 162.85 Z"/>
</g>

<g id="possum_0_Layer0_0_FILL">
<path fill="#FFFFFF" stroke="none" d="
M 22 11
Q 22 6.45 18.75 3.2 15.55 0 11 0 6.45 0 3.2 3.2 0 6.45 0 11 0 15.55 3.2 18.75 6.45 22 11 22 15.55 22 18.75 18.75 22 15.55 22 11 Z"/>
</g>

<g id="wisp_0_Layer0_0_FILL">
<path fill="#0099FF" stroke="none" d="
M 16 8
Q 16 4.7 13.65 2.35 11.3 0 8 0 4.7 0 2.35 2.35 0 4.7 0 8 0 11.3 2.35 13.65 4.7 16 8 16 11.3 16 13.65 13.65 16 11.3 16 8 Z"/>
</g>

<g id="seagull_0_Layer0_0_FILL">
<path fill="#D6C9BB" stroke="none" d="
M 249.2 62.8
Q 249.7 60.95 249.7 59.5 249.7 46.35 214.7 33.05 202.8 28.5 189.5 24.95 178.35 22 175.7 22 175.5 22 168.45 26.5 161.35 31 161.2 31 159.9 31 158.25 30 156.65 29 155.7 29 155.7 25.5 157.7 18.85 159.7 12.25 159.7 10 159.7 3 156.7 1.05 155.1 0 150.2 0 140.6 0 133.75 7.05 131.5 9.3 129.9 12 128.7 14.05 128.7 14.5 128.7 18.7 133 22.55 133.7 23.2 134.55 23.9 133.3 25.4 130.7 28
L 130.35 27.85
Q 130.05 28.75 129.95 30
L 117.7 30
Q 112.3 30.9 87.65 33.4 63.5 35.85 49.2 38.35 3.85 46.2 0 62.5
L 8.7 65
Q 25.15 65 49.25 62 72.45 59.1 79.7 59 79.7 57.4 97.75 59.05 106.85 59.85 116.7 61 118.65 61 124.8 59.5 130.9 58 132.7 58 133.85 65.15 136.2 67.8 140.6 72.75 143.7 79 144.7 80.95 144.8 92.85 144.85 98.8 144.7 104.5 144.7 107.6 145.7 110.35 146.7 113.15 146.7 115 149.65 114.3 152.95 110.7 156.6 106.2 158.8 104.15 166.9 96.5 179.7 102 179.7 97.95 181.2 91.1 182.7 84.25 182.7 82.5 182.7 72.15 178.65 65.3 176.05 60.85 172.7 59 172.7 58.5 172.2 58 171.7 57.5 171.7 57
L 207.7 57
Q 216.05 58.55 231.85 62.55 241.45 65 248.7 65 248.7 64.7 249.2 62.8 Z"/>
</g>

<g id="cat_0_Layer0_0_FILL">
<path fill="#333333" stroke="none" d="
M 31.7 15.5
Q 31.7 11.6 29.7 8.6
L 34.95 0.3 26.45 5.25
Q 23.3 3 19.2 3 18.9 3 18.65 3 17.25 2.7 15.75 2.7 11.65 2.7 8.5 4.95
L 0 0 5.25 8.3
Q 3.25 11.3 3.25 15.2 3.25 20.4 6.9 24.05 10.55 27.7 15.75 27.7 16.05 27.7 16.3 27.7 17.7 28 19.2 28 24.4 28 28.05 24.35 31.7 20.7 31.7 15.5 Z"/>
</g>

<g id="racoon_0_Layer0_0_FILL">
<path fill="#FFFFFF" stroke="none" d="
M 27.65 18.45
Q 26.3 18.65 24.45 18.65 22.9 18.65 18.6 16.65 14.3 14.65 12.85 14.65 12.3 14.65 11.5 14.85 9.95 15.25 7.5 16.3 3.7 17.9 3.6 17.9
L 3.55 17.9
Q 4.25 21.4 6.9 24.05 10.55 27.7 15.75 27.7 16.05 27.7 16.3 27.7 17.7 28 19.2 28 24.4 28 28.05 24.35 31.7 20.7 31.7 15.5 31.7 11.6 29.7 8.6
L 34.95 0.3 26.45 5.25
Q 23.3 3 19.2 3 18.9 3 18.65 3 17.25 2.7 15.75 2.7 11.65 2.7 8.5 4.95
L 0 0 5.05 7.95
Q 7.75 7.35 13.7 7.2 15.6 7.65 16.45 7.4
L 16.5 7.4
Q 17.4 7.15 19.6 7.15 24.95 7.15 27.7 8.4 31.45 10.1 31.45 14.4 31.45 16.4 30.7 17.15 29.8 18.05 27.65 18.45
M 10.85 10.05
Q 10.75 10 10.65 9.95 8.45 10.25 7.65 10.75 6.95 11.2 6.95 12.15 6.95 13 8.7 13.4 9.8 13.65 11.1 13.65 11.85 13.65 11.95 13.4 11.95 12.95 11.95 12.4 11.95 11.1 10.95 10.15 10.9 10.1 10.85 10.05
M 26.6 11.8
Q 25.2 11.1 23.2 11.3 22.2 12.7 22.05 12.95 21.95 13.1 21.95 14.05 21.95 16.15 25.85 16.15 26.7 16.15 27.25 16.05 27.75 15.9 27.95 15.65 28.2 15.35 28.2 14.15 28.2 12.6 26.6 11.8 Z"/>

<path fill="#000000" stroke="none" d="
M 24.45 18.65
Q 26.3 18.65 27.65 18.45 29.8 18.05 30.7 17.15 31.45 16.4 31.45 14.4 31.45 10.1 27.7 8.4 24.95 7.15 19.6 7.15 17.4 7.15 16.5 7.4
L 16.45 7.4
Q 15.6 7.65 13.7 7.2 7.75 7.35 5.05 7.95
L 5.25 8.3
Q 3.25 11.3 3.25 15.2 3.25 16.6 3.55 17.9
L 3.6 17.9
Q 3.7 17.9 7.5 16.3 9.95 15.25 11.5 14.85 12.3 14.65 12.85 14.65 14.3 14.65 18.6 16.65 22.9 18.65 24.45 18.65
M 23.2 11.3
Q 25.2 11.1 26.6 11.8 28.2 12.6 28.2 14.15 28.2 15.35 27.95 15.65 27.75 15.9 27.25 16.05 26.7 16.15 25.85 16.15 21.95 16.15 21.95 14.05 21.95 13.1 22.05 12.95 22.2 12.7 23.2 11.3
M 10.65 9.95
Q 10.75 10 10.85 10.05 10.9 10.1 10.95 10.15 11.95 11.1 11.95 12.4 11.95 12.95 11.95 13.4 11.85 13.65 11.1 13.65 9.8 13.65 8.7 13.4 6.95 13 6.95 12.15 6.95 11.2 7.65 10.75 8.45 10.25 10.65 9.95 Z"/>
</g>

<g id="skunk_0_Layer0_0_FILL">
<path fill="#FFFFFF" stroke="none" d="
M 13.2 7.25
Q 12.4 4.95 11.5 3.4 9.9 3.95 8.5 4.95
L 0 0 5.05 7.95
Q 7.65 7.4 13.2 7.25
M 21.2 3.6
Q 21.3 3.4 21.45 3.2 20.35 3 19.2 3 18.9 3 18.65 3 17.25 2.7 15.75 2.7 15.1 2.7 14.5 2.75 15.45 5.4 15.95 7.5 16.2 7.45 16.45 7.4
L 16.5 7.4
Q 17.4 7.15 19.6 7.15 19.9 7.15 20.2 7.15 20.25 5.5 21.2 3.6
M 25 4.35
Q 24 5.6 22.85 7.3 25.85 7.55 27.7 8.4 31.45 10.1 31.45 14.4 31.45 16.4 30.7 17.15 29.8 18.05 27.65 18.45 26.3 18.65 24.45 18.65 22.9 18.65 18.6 16.65 14.3 14.65 12.85 14.65 12.3 14.65 11.5 14.85 9.95 15.25 7.5 16.3 3.7 17.9 3.6 17.9
L 3.55 17.9
Q 4.25 21.4 6.9 24.05 10.55 27.7 15.75 27.7 16.05 27.7 16.3 27.7 17.7 28 19.2 28 24.4 28 28.05 24.35 31.7 20.7 31.7 15.5 31.7 11.6 29.7 8.6
L 34.95 0.3 26.45 5.25
Q 25.75 4.75 25 4.35
M 10.85 10.05
Q 10.75 10 10.65 9.95 8.45 10.25 7.65 10.75 6.95 11.2 6.95 12.15 6.95 13 8.7 13.4 9.8 13.65 11.1 13.65 11.85 13.65 11.95 13.4 11.95 12.95 11.95 12.4 11.95 11.1 10.95 10.15 10.9 10.1 10.85 10.05
M 26.6 11.8
Q 25.2 11.1 23.2 11.3 22.2 12.7 22.05 12.95 21.95 13.1 21.95 14.05 21.95 16.15 25.85 16.15 26.7 16.15 27.25 16.05 27.75 15.9 27.95 15.65 28.2 15.35 28.2 14.15 28.2 12.6 26.6 11.8 Z"/>

<path fill="#000000" stroke="none" d="
M 25 4.35
Q 23.3 3.5 21.45 3.2 21.3 3.4 21.2 3.6 20.25 5.5 20.2 7.15 19.9 7.15 19.6 7.15 17.4 7.15 16.5 7.4
L 16.45 7.4
Q 16.2 7.45 15.95 7.5 15.45 5.4 14.5 2.75 12.9 2.9 11.5 3.4 12.4 4.95 13.2 7.25 7.65 7.4 5.05 7.95
L 5.25 8.3
Q 3.25 11.3 3.25 15.2 3.25 16.6 3.55 17.9
L 3.6 17.9
Q 3.7 17.9 7.5 16.3 9.95 15.25 11.5 14.85 12.3 14.65 12.85 14.65 14.3 14.65 18.6 16.65 22.9 18.65 24.45 18.65 26.3 18.65 27.65 18.45 29.8 18.05 30.7 17.15 31.45 16.4 31.45 14.4 31.45 10.1 27.7 8.4 25.85 7.55 22.85 7.3 24 5.6 25 4.35
M 23.2 11.3
Q 25.2 11.1 26.6 11.8 28.2 12.6 28.2 14.15 28.2 15.35 27.95 15.65 27.75 15.9 27.25 16.05 26.7 16.15 25.85 16.15 21.95 16.15 21.95 14.05 21.95 13.1 22.05 12.95 22.2 12.7 23.2 11.3
M 10.65 9.95
Q 10.75 10 10.85 10.05 10.9 10.1 10.95 10.15 11.95 11.1 11.95 12.4 11.95 12.95 11.95 13.4 11.85 13.65 11.1 13.65 9.8 13.65 8.7 13.4 6.95 13 6.95 12.15 6.95 11.2 7.65 10.75 8.45 10.25 10.65 9.95 Z"/>
</g>

<g id="fence_0_Layer0_0_FILL">
<path fill="#999999" stroke="none" d="
M 380.95 297.3
L 380.95 0 0 0 0 297.3 380.95 297.3 Z"/>
</g>

<g id="yard_0_Layer0_0_FILL">
<path fill="#CCCCCC" stroke="none" d="
M 0 0
L 0 212 278.95 212 278.95 0 0 0 Z"/>
</g>

<g id="coop_0_Layer0_0_FILL">
<path fill="#CC9900" stroke="none" d="
M 84 35
L 84 0 0 0 0 35 84 35 Z"/>
</g>

<g id="legs_0_Layer0_0_FILL">
<path fill="#000000" stroke="none" d="
M 0 0
L 0 7.6 7.6 7.6 7.6 6.5 6.15 6.5 6.15 0 0 0 Z"/>
</g>

<g id="head_0_Layer0_0_FILL">
<path fill="#000000" stroke="none" d="
M 0 0
L 0 7.2 0.4 7.2 0.4 10.25 4.35 10.25 4.35 7.2 7.6 7.2 7.6 0 0 0 Z"/>
</g>

<g id="body_0_Layer0_0_FILL">
<path fill="#000000" stroke="none" d="
M 13.1 0
L 0 0 0 18.1 13.1 18.1 13.1 0 Z"/>
</g>

<g id="hat_0_Layer0_0_FILL">
<path fill="#000000" stroke="none" d="
M 2.25 1.5
L 1.9 1.5 1.9 1 1.75 1 1.75 0 1.45 0 1.45 1 1.25 1 1.25 1.5 0.9 1.5 0.9 9.1 1.25 9.1 1.25 9.7 0 9.7 0 12.45 10.4 12.45 10.4 9.7 1.9 9.7 1.9 9.1 2.25 9.1 2.25 1.5 Z"/>
</g>

<g id="finishline_0_Layer0_0_FILL">
<path fill="#FF0000" stroke="none" d="
M 11 0
L 0 0 0 71.5 11 71.5 11 0 Z"/>
</g>

<g id="startingline_0_Layer0_0_FILL">
<path fill="#00CC00" stroke="none" d="
M 14 0
L 0 0 0 74.5 14 74.5 14 0 Z"/>
</g>

<g id="mrskim_0_Layer0_0_FILL">
<path fill="#339966" stroke="none" d="
M 14 7
Q 14 4.1 11.95 2.05 9.9 0 7 0 4.1 0 2.05 2.05 0 4.1 0 7 0 9.9 2.05 11.95 4.1 14 7 14 9.9 14 11.95 11.95 14 9.9 14 7 Z"/>
</g>

<g id="cop_0_Layer0_0_FILL">
<path fill="#0066FF" stroke="none" d="
M 13 6.5
Q 13 3.8 11.1 1.9 9.2 0 6.5 0 3.8 0 1.9 1.9 0 3.8 0 6.5 0 9.2 1.9 11.1 3.8 13 6.5 13 9.2 13 11.1 11.1 13 9.2 13 6.5 Z"/>
</g>

<g id="gfx_hen_0_Layer0_1_FILL">
<path fill="#F59331" stroke="none" d="
M 383.25 479.7
Q 382.15 480.4 382.15 481.3
L 382.65 519.35
Q 374.25 520.6 370 525.3 367.1 528.45 366.25 533.15 365.95 534.55 366.05 535.05 366.25 536.1 367.6 536.15 368.95 536.2 369.3 534.95 369.5 533.45 369.6 532.8 369.75 531.7 372.7 529 376.9 525.25 382.7 523.95
L 384.7 534.05
Q 384.8 535.85 384.95 536.35 385.35 537.8 386.75 537.75 388.85 537.65 388.7 533.6
L 390.35 523.7
Q 395.9 524.65 399.55 528.15 402 530.5 402.15 531.75 402.45 533.65 402.65 534.1 403.25 535.6 404.7 535.55 406.1 535.5 406.25 534.75 406.3 534.6 406.05 533.15 405.35 528.1 402.65 524.8 398.55 519.8 390.3 519.1
L 389.85 481.1
Q 389.8 480.15 388.7 479.55 387.55 478.95 386 479 384.4 479.05 383.25 479.7 Z"/>
</g>

<g id="chickens_ai_Layer_1__Path__40_0_Layer0_0_FILL">
<path fill="#BF2932" stroke="none" d="
M 0.25 19.55
Q 4.7 16.5 7.85 17.35
L 7.7 2.15
Q 7.65 1.2 6.55 0.6 5.4 0 3.8 0.05 2.25 0.1 1.1 0.75 0 1.45 0 2.35
L 0.25 19.55 Z"/>
</g>

<g id="gfx_hen_0_Layer0_3_FILL">
<path fill="#F59331" stroke="none" d="
M 306.05 482.5
Q 306.15 481.55 305.05 480.9 304 480.25 302.4 480.25 300.8 480.25 299.65 480.9 298.5 481.55 298.4 482.5
L 295.9 520.55
Q 282.05 522.1 279.4 535.1 279.1 536.55 279.1 536.75 279.25 537.45 280.6 537.45 282.05 537.45 282.75 536 282.95 535.45 283.35 533.6 283.7 532.3 286.2 529.9 290 526.3 295.6 525.15
L 296.75 535.05
Q 296.4 539.1 298.5 539.1 299.85 539.1 300.35 537.7 300.65 536.95 300.7 535.35
L 303.25 525.15
Q 309 526.3 313 529.95 315.65 532.35 315.95 533.65 316.05 534.25 316.1 535.8 316.35 537 317.7 536.9 319.1 536.8 319.35 535.8 319.45 535.4 319.25 533.85 318.65 529.2 315.9 526.1 311.9 521.55 303.55 520.6
L 306.05 482.5 Z"/>
</g>

<g id="chickens_ai_Layer_1__Path__38_0_Layer0_0_FILL">
<path fill="#BF2932" stroke="none" d="
M 0 17.5
Q 3.3 16.55 7.55 19.45
L 8.7 2.25
Q 8.75 1.3 7.65 0.65 6.6 0 5 0 3.4 0 2.25 0.65 1.1 1.3 1 2.25
L 0 17.5 Z"/>
</g>

<g id="gfx_hen_0_Layer0_5_FILL">
<path fill="#D5B47F" stroke="none" d="
M 436.6 279.5
Q 425.05 283.25 410.4 294.15 399.5 303.15 401.6 301 404.25 298.35 408.05 287.05
L 411.35 276.25
Q 413.15 270.95 413.25 266.05 413.35 256.3 404.6 258.5 385.25 263.35 365 294.4 354.85 309.95 348.6 324.5 333.6 336.3 331.6 362.2 329.8 385.05 338.25 412.5 346.25 438.6 359.4 456.55 373.25 475.4 386 475.4 398.6 475.4 414.6 468.65 429.35 462.5 443.75 452.05 457.75 441.9 467.15 430.85 476.95 419.4 478.6 410.5 479.8 404.1 469.8 407.2 459.55 411.55 459.55 411.25
L 462.2 408.6
Q 465.8 405.3 470.6 402 479.95 395.55 481.9 390.9 483.4 387.3 480.6 384.5 478.05 381.9 470.65 382.35
L 463.8 383.3 472.6 377.75
Q 474.35 376.65 478.85 373.9 483.05 371.25 485.3 369.35 491.9 363.6 486.6 359.75 481.4 355.9 471.3 357.05
L 462.3 359 465.9 356.55
Q 470.75 353.4 476.85 350 487.35 344.15 486.9 340.25 486.5 337.2 479.1 335 473.4 333.3 460.8 335.5 456.9 336.2 456.7 335.8 456.5 335.35 461.1 332.5 471.6 326.05 476.75 322.15 480 319.65 484.1 315.5 486.9 312.7 487.75 309.05 488.7 305.05 486.75 302.45 481.6 295.6 461.6 303 454.55 305.6 446.85 309.95
L 440.5 313.75
Q 447.2 307.05 449.2 304.2 451.15 301.45 452.85 299.75 457.1 295.55 459.25 290.85 462.25 284.5 460.1 279.5 458.35 275.4 451.65 275.85 446.7 276.2 436.6 279.5 Z"/>
</g>

<g id="gfx_hen_0_Layer0_6_FILL">
<path fill="#C3A16A" stroke="none" d="
M 273.6 366.6
Q 268.3 371.85 264.2 378.15 251.55 397.55 248.75 428.15 247.8 438.55 261.3 451.5 268.05 457.95 275 462.35
L 286 413.45 289.15 366.15
Q 286.9 364.75 284.55 363.35 279.9 360.65 279.6 360.95 278.55 362.15 273.6 366.6 Z"/>
</g>

<g id="gfx_hen_0_Layer0_7_FILL">
<path fill="#C3A16A" stroke="none" d="
M 400.85 350.75
Q 400.5 350.5 396.45 354.1
L 392.5 357.7 404.85 403.45 425.2 449.25
Q 431.15 443.6 436.5 435.95 447.2 420.6 444.25 410.6 435.55 381.15 419.3 364.55 414.05 359.2 407.85 355.1 402.15 351.7 400.85 350.75 Z"/>
</g>

<g id="gfx_hen_0_Layer0_8_FILL">
<path fill="#E1C289" stroke="none" d="
M 336.75 236.5
L 330.8 236.3
Q 325.45 236.75 319.45 240 307.45 246.5 304.1 260.65 301.2 273.15 301.9 289.35 302.65 306.85 301.45 314 299.85 323.45 294.2 334 294 334.4 282.75 353.15 275.35 365.55 271.45 376 266 390.45 264.45 407 262.35 429.65 262.85 440.65 263.5 455.15 268.45 463.9 273.75 473.35 285.85 479.55 297.7 485.7 319.6 490.5 330.3 492.85 348.7 492.95 366.75 493.05 376.3 491 407.95 484.15 421 469.2 436.95 450.9 431.45 415.3 427.6 390.4 413.85 369 409 361.45 402.1 353.1 394.55 344.35 391.45 340.65 383.65 331.4 377.9 316.5 372.1 301.4 372.1 290 372.1 270.2 369.15 259.95 363.65 240.9 347.45 237.65 343.5 236.85 336.75 236.5 Z"/>
</g>

<g id="gfx_hen_0_Layer0_9_FILL">
<path fill="#ECD8B4" stroke="none" d="
M 336.75 236.5
L 330.8 236.3
Q 325.45 236.75 319.45 240 307.45 246.5 304.1 260.65 301.2 273.15 301.9 289.35 302.65 306.85 301.45 314 299.7 324.45 292.65 336.85 288.6 344 279.2 359.4 273.7 378.25 275.6 391 276.9 399.45 283.05 406.75 288.95 413.85 297.85 418.05 307 422.35 316.8 422.5 327.4 422.6 336.6 417.75 343.7 414 355.65 415 361.65 415.5 366.2 416.75
L 369.25 417.9
Q 373.15 419.15 377.15 419.6 390.05 420.95 399.6 413.5 416.05 400.7 413 383.45 411.75 376.3 406.95 366.25 404.65 361.45 396.55 346.6
L 391.45 340.65
Q 383.65 331.4 377.9 316.5 372.1 301.4 372.1 290 372.1 270.2 369.15 259.95 363.65 240.9 347.45 237.65 343.5 236.85 336.75 236.5 Z"/>
</g>

<g id="gfx_hen_0_Layer0_10_FILL">
<path fill="#064947" stroke="none" d="
M 323.8 264.7
Q 323.8 261.3 321.3 258.9 318.85 256.5 315.3 256.5 311.75 256.5 309.25 258.9 306.75 261.3 306.75 264.7 306.75 268.05 309.25 270.45 311.75 272.85 315.3 272.85 318.85 272.85 321.3 270.45 323.8 268.1 323.8 264.7 Z"/>
</g>

<g id="gfx_hen_0_Layer0_11_FILL">
<path fill="#007070" stroke="none" d="
M 361.75 261.4
Q 361.75 258 359.25 255.6 356.75 253.2 353.25 253.2 349.75 253.2 347.25 255.6 344.75 258 344.75 261.4 344.75 264.8 347.25 267.2 349.7 269.6 353.25 269.6 356.8 269.6 359.25 267.2 361.75 264.8 361.75 261.4 Z"/>
</g>

<g id="chickens_ai_Layer_1__Path__30_0_Layer0_0_FILL">
<path fill="#FFFFFF" stroke="none" d="
M 8.3 3.55
Q 8.1 1.9 6.8 0.9 5.45 -0.15 3.75 0.05 2.05 0.2 0.95 1.5 -0.15 2.75 0 4.4 0.2 6.05 1.5 7.05 2.85 8.1 4.55 7.9 6.25 7.7 7.35 6.45 8.45 5.15 8.3 3.55 Z"/>
</g>

<g id="chickens_ai_Layer_1__Path__29_0_Layer0_0_FILL">
<path fill="#FFFFFF" stroke="none" d="
M 3.05 1.3
Q 3.05 0.8 2.6 0.4 2.15 0 1.55 0 0.9 0 0.45 0.4 0 0.75 0 1.3 0 1.85 0.45 2.25 0.9 2.65 1.55 2.65 2.15 2.65 2.6 2.25 3.05 1.85 3.05 1.3 Z"/>
</g>

<g id="chickens_ai_Layer_1__Path__28_0_Layer0_0_FILL">
<path fill="#FFFFFF" stroke="none" d="
M 8.3 3.95
Q 8.3 2.3 7.1 1.15 5.9 0 4.15 0 2.4 0 1.2 1.15 0 2.3 0 3.95 0 5.55 1.2 6.75 2.45 7.9 4.15 7.9 5.85 7.9 7.1 6.75 8.3 5.55 8.3 3.95 Z"/>
</g>

<g id="gfx_hen_0_Layer0_15_FILL">
<path fill="#EB212E" stroke="none" d="
M 341.25 218.2
Q 342 214.6 338.45 217.3 328.5 225 329.3 247.4 329.7 258.65 332.1 268.3
L 333.8 277.5 334.85 277.35
Q 336.05 277.05 336.8 276.3 337.5 275.6 337.25 272.7 336.8 267.5 336.8 266.65 336.8 264.55 336.4 260.05 335.95 255.6 335.95 253 335.95 249.25 336.55 246.7 337.45 242.65 339.85 240.25 342.15 237.95 347.05 238.1 349.401953125 238.1958984375 351.3 238.7 351.05234375 238.1876953125 350.45 236 349.9 233.95 349.9 233.55 350.05 232 352.3 231.15 354.8 231 354.8 230 354.8 228.95 351.9 228.5 348.6 228 345.5 229.95 344.05 230.9 345.15 229.25 346.2 227.75 348.45 226.8 353.1 224.95 351.8 224.35
L 349.6 224.15
Q 348.95 224.05 347.95 224.15 346 224.3 344.45 225.15 340.6 227.5 340.1 227.7 339.85 227.85 339.7 227.4 339.1 225.9 339.35 224
L 339.75 222.35
Q 340.85 220 341.25 218.2 Z"/>
</g>

<g id="gfx_hen_0_Layer0_16_FILL">
<path fill="#BF2932" stroke="none" d="
M 334.15 280.35
Q 333.3 280.9 332.95 282
L 331.6 288.3
Q 330.4 295.65 331.3 300.8 332.05 305.05 333.95 305.95 334.25 306.1 336.5 306.1 337.55 306.1 338.4 304.3 339.35 302.1 338.6 299.3 337.85 296.6 336.75 288.15 335.75 280.65 335.45 280.3 334.95 279.8 334.15 280.35 Z"/>
</g>

<g id="gfx_hen_0_Layer0_17_FILL">
<path fill="#EB212E" stroke="none" d="
M 337.1 282
Q 336.7 281.9 336.3 281.95 335.45 282.05 335.45 282.65 335.45 283.15 336.1 286.1 336.7 290.35 336.3 297.3 335.85 305 337.15 309.05 338.25 312.3 339.95 312.3 342.8 312.3 342.8 304 342.8 297 339.95 288.8
L 337.1 282 Z"/>
</g>

<g id="gfx_hen_0_Layer0_18_FILL">
<path fill="#FDC130" stroke="none" d="
M 333.95 268.15
Q 332.3 268.55 331.15 270.15 329.05 273.05 328.3 273.8 326.45 275.65 324 277.4
L 321.95 278.8
Q 320.9 279.5 321.4 280.1 321.65 280.35 322.1 280.5
L 325.3 282.1
Q 328.9 284.1 330.6 285.8 332.6 287.8 334.45 288.25 336.15 288.65 338.05 287.9 340.75 286.8 345 281.9 347.15 279.4 349.55 276.4 350.5 275.4 350.6 275.15 350.7 274.8 349.8 274.8 346.85 274.8 343.3 273.15 340.6 271.2 338.9 270 335.65 267.75 333.95 268.15 Z"/>
</g>

<g id="gfx_hen_0_Layer0_19_FILL">
<path fill="#F59331" stroke="none" d="
M 335.7 281.8
Q 333.5 281.95 330.95 280.95 326.05 279.1 321.35 279.4 321.1 279.85 321.6 280.25 321.8 280.4 322.1 280.5
L 325.3 282.1
Q 328.9 284.1 330.6 285.8 332.6 287.8 334.45 288.25 336.15 288.65 338.05 287.9 340.75 286.8 345 281.9 347.15 279.4 349.55 276.4 350.7 275.2 350.6 275 347.55 275.6 343.45 277.7 339.85 279.55 338.8 280.65 337.75 281.7 335.7 281.8 Z"/>
</g>

<g id="chickens_ai_Layer_1__Path__22_0_Layer0_0_FILL">
<path fill="#FFFFFF" stroke="none" d="
M 19.15 6.05
Q 16.29296875 6.0001953125 12.85 4.4 12.25 4.1 9.95 2.35 7.7 0.65 6.35 0 4.3 0.1 3 1.4 0.85 3.55 0.25 5.55 -0.5 7.95 1.15 9.65 4.2 12.65 6.75 10.9 10.6 8.35 13.5 7.2 16.40625 6.0859375 19.15 6.05 Z"/>
</g>

<g id="gfx_hen_0_Layer0_21_FILL">
<path fill="#F07384" stroke="none" d="
M 340.95 219.2
Q 341.95 216.1 340.65 216.15 334.8 223.1 335.25 230.85 335.8 239.75 337.5 238.3 338.05 237.8 339.55 236.05 341.05 234.5 342.45 234.5 344.65 234.5 347.05 235.55 350.45 236.95 350.75 237.05
L 350.45 236
Q 349.9 233.95 349.9 233.55 350.05 232 352.3 231.15 354.8 231 354.8 230 354.8 228.95 351.9 228.5 348.6 228 345.5 229.95 344.05 230.9 345.15 229.25 346.2 227.75 348.45 226.8 353.1 224.95 351.8 224.35
L 349.6 224.15
Q 348.95 224.05 347.95 224.15 346 224.3 344.45 225.15 340.6 227.5 340.1 227.7 339.85 227.85 339.7 227.4 339.1 225.9 339.35 224
L 339.75 222.35
Q 340.5 220.8 340.95 219.2 Z"/>
</g>

<g id="gfx_chick_0_Layer0_2_FILL">
<path fill="#F59331" stroke="none" d="
M 169.2 535.2
Q 169.2 535.05 169.1 533.75 167.85 522.1 160.65 520.9
L 159.9 486.6
Q 159.85 485.75 159.25 485.2 158.65 484.6 157.85 484.65 157 484.65 156.45 485.25 155.85 485.85 155.9 486.65
L 156.65 521
Q 149.25 522.65 148.3 533.2 148.2 534.55 148.25 534.95 148.35 535.85 149.05 535.9 149.75 535.95 149.95 534.9 150 533.5 150.05 532.95 150.05 532 151.6 529.55 153.75 526.25 156.75 525.15
L 157.95 534.25
Q 158.05 535.95 158.1 536.35 158.35 537.65 159.05 537.6 159.75 537.6 159.95 536.2 160.05 535.6 160.05 533.95
L 160.75 525
Q 163.65 525.95 165.6 529.15 166.9 531.25 167.05 532.45 167.2 534.05 167.35 534.6 167.65 535.95 168.4 535.9 169.1 535.85 169.2 535.2 Z"/>
</g>

<g id="chickens_ai_Layer_1__Path__57_0_Layer0_0_FILL">
<path fill="#BF2932" stroke="none" d="
M 0.35 17.55
Q 2.6 14.85 4.3 15.7
L 4 1.95
Q 3.95 1.1 3.35 0.55 2.75 -0.05 1.95 0 1.15 0 0.55 0.6 -0.05 1.25 0 2.05
L 0.35 17.55 Z"/>
</g>

<g id="gfx_chick_0_Layer0_4_FILL">
<path fill="#F59331" stroke="none" d="
M 116.2 486.65
Q 116.2 485.8 115.65 485.25 115.05 484.65 114.25 484.65 113.45 484.6 112.8 485.2 112.2 485.8 112.2 486.6
L 111.4 520.9
Q 104.1 522.15 103 533.75 102.85 535.15 102.9 535.2 102.95 535.85 103.65 535.9 104.4 535.95 104.75 534.6 104.9 534.05 105.05 532.45 105.25 531.25 106.45 529.15 108.4 525.95 111.3 525
L 112.05 533.95
Q 111.9 537.6 113 537.6 113.75 537.65 114 536.35 114.1 535.9 114.15 534.25
L 115.3 525.15
Q 118.35 526.2 120.45 529.55 121.9 531.8 122.05 532.95 122.1 533.5 122.2 534.9 122.35 535.95 123.05 535.9 123.75 535.85 123.9 534.95 123.9 534.55 123.8 533.2 122.75 522.6 115.4 521
L 116.2 486.65 Z"/>
</g>

<g id="chickens_ai_Layer_1__Path__55_0_Layer0_0_FILL">
<path fill="#BF2932" stroke="none" d="
M 0 15.7
Q 1.7 14.85 3.95 17.55
L 4.3 2.05
Q 4.3 1.2 3.75 0.6 3.15 0 2.35 0 1.55 -0.05 0.9 0.55 0.3 1.15 0.3 1.95
L 0 15.7 Z"/>
</g>

<g id="gfx_chick_0_Layer0_6_FILL">
<path fill="#FDE431" stroke="none" d="
M 96.15 411.05
Q 94.15 413.3 92.15 417.4 85.85 430.5 82.45 457.3 82.1 460.25 86 463.8 89.55 467 91.6 467 93 467 96.35 458.65
L 99.45 450.3 97.8 409.65 96.15 411.05 Z"/>
</g>

<g id="gfx_chick_0_Layer0_7_FILL">
<path fill="#FDE431" stroke="none" d="
M 176.95 414.05
Q 174.95 409.95 172.95 407.7
L 171.3 406.25 169.65 446.95 172.75 455.3
Q 176.15 463.6 177.5 463.6 179.55 463.6 183.1 460.4 187 456.85 186.65 453.95 183.25 427.15 176.95 414.05 Z"/>
</g>

<g id="gfx_chick_0_Layer0_8_FILL">
<path fill="#FDF6BD" stroke="none" d="
M 137.85 344.75
Q 137.85 343.55 140 342.2 141.95 341 143.45 340.85 149.45 340.25 143.55 339.95 138.55 339.95 128.4 344.8 115.25 351.1 108.6 360.5 97.15 376.65 92.4 415.1 89.35 439.35 89.35 468 89.35 470.65 89.7 475.75 90 480.85 90 482 90 484.5 91.05 485.8 91.55 486.45 92.05 486.6
L 105.25 491.3
Q 121.4 496 136.1 496 151.2 496 164.6 490.3 173.55 486.5 177.3 482.75 179.1 480.95 179.4 479.4 179.65 478.25 179.65 472.45 179.65 467 179.5 452.7 179.35 434.6 179.1 429 178.55 412.4 177.85 405.75 176.3 390 172.05 375.75 167.85 361.65 156.75 352.45 153.3 349.6 149.55 347.55
L 146.5 346.1
Q 146.5 345.8 146.7 345.5 147.15 344.85 148.25 344.8 150.8 344.7 153.25 344.6 154.3 344.55 153.9 344.15 153.65 343.9 150.5 343.4 147.5 342.95 147 343 142 343.3 139.1 344.85 138.2 345.35 138.05 345.4 137.85 345.45 137.85 344.75 Z"/>
</g>

<g id="gfx_chick_0_Layer0_9_FILL">
<path fill="#064947" stroke="none" d="
M 117.55 366.2
Q 114.35 366.2 112.1 368.35 109.85 370.55 109.85 373.6 109.85 376.65 112.1 378.85 114.35 381 117.55 381 120.7 381 122.95 378.85 125.2 376.65 125.2 373.6 125.2 370.55 122.95 368.35 120.7 366.2 117.55 366.2 Z"/>
</g>

<g id="gfx_chick_0_Layer0_10_FILL">
<path fill="#007070" stroke="none" d="
M 161.45 370.65
Q 161.45 367.55 159.2 365.4 157 363.25 153.8 363.25 150.6 363.25 148.35 365.4 146.1 367.6 146.1 370.65 146.1 373.7 148.35 375.9 150.6 378.05 153.8 378.05 157 378.05 159.2 375.9 161.45 373.75 161.45 370.65 Z"/>
</g>

<g id="gfx_chick_0_Layer0_11_FILL">
<path fill="#FDC130" stroke="none" d="
M 124.35 385
Q 122.85 386.5 126.75 388.5 130.7 390.5 135.35 390.5 139.8 390.5 143.85 387.65 147.75 384.9 146.35 383.5 144.9 382.05 141.55 380.6 137.9 379 135.1 379 131.8 379 127.75 382 125.75 383.5 124.35 385 Z"/>
</g>

<g id="gfx_chick_0_Layer0_12_FILL">
<path fill="#F59331" stroke="none" d="
M 127.2 388.7
Q 131.05 390.5 135.4 390.5 139.75 390.5 143.8 387.7 147.65 385 146.4 383.55 144.35 385 142.35 385.7 139.3 386.75 135 386.75 128.6 386.75 124.1 385.35 123.4 386.9 127.2 388.7 Z"/>
</g>

<g id="chickens_ai_Layer_1__Path__47_0_Layer0_0_FILL">
<path fill="#FFFFFF" stroke="none" d="
M 4.5 0.25
Q 0.6 2.75 0.05 4.3 -0.7 6.5 5.5 6.5 9.85 6.5 12.55 5.35 14.6 4.45 15.45 3 13.4 1.8 11.05 0.95 8.3 0 6.25 0 5.5 0 4.5 0.25 Z"/>
</g>

<g id="chickens_ai_Layer_1__Path__46_0_Layer0_0_FILL">
<path fill="#FFFFFF" stroke="none" d="
M 7.45 3.2
Q 7.3 1.7 6.1 0.8 4.95 -0.15 3.4 0 1.85 0.2 0.85 1.35 -0.15 2.5 0 3.95 0.15 5.4 1.35 6.35 2.55 7.3 4.1 7.1 5.65 6.95 6.65 5.8 7.65 4.65 7.45 3.2 Z"/>
</g>

<g id="chickens_ai_Layer_1__Path__45_0_Layer0_0_FILL">
<path fill="#FFFFFF" stroke="none" d="
M 2.75 1.15
Q 2.75 0.65 2.35 0.35 1.95 0 1.4 0 0.85 0 0.4 0.35 0 0.65 0 1.15 0 1.65 0.4 2 0.85 2.35 1.4 2.35 1.95 2.35 2.35 2 2.75 1.65 2.75 1.15 Z"/>
</g>

<g id="chickens_ai_Layer_1__Path__44_0_Layer0_0_FILL">
<path fill="#FFFFFF" stroke="none" d="
M 7.5 3.55
Q 7.5 2.1 6.4 1.05 5.3 0 3.75 0 2.2 0 1.1 1.05 0 2.1 0 3.55 0 5.05 1.1 6.1 2.2 7.15 3.75 7.15 5.3 7.15 6.4 6.1 7.5 5.05 7.5 3.55 Z"/>
</g>

<g id="chickens_ai_Layer_1__Path__43_0_Layer0_0_FILL">
<path fill="#FFFFFF" stroke="none" d="
M 2.7 1.15
Q 2.7 0.65 2.3 0.35 1.9 0 1.35 0 0.8 0 0.4 0.35 0 0.65 0 1.15 0 1.65 0.4 2 0.8 2.35 1.35 2.35 1.9 2.35 2.3 2 2.7 1.65 2.7 1.15 Z"/>
</g>

<g id="chickens_ai_Layer_1__Path__42_0_Layer0_0_FILL">
<path fill="#FDE431" stroke="none" d="
M 85.4 0.6
Q 86.95 23.95 86.55 33.95 85.9 51.25 80.45 58.1 73.6 66.75 63.5 70.2 60.3 71.25 57.2 71.7
L 54.75 71.9 42.6 71.75
Q 18.05 70.5 10.5 45.55 5.05 27.75 8.65 0 3.6 18.6 1.45 45.65 0 63.6 0 82.6 0 85.25 0.35 90.35 0.65 95.45 0.65 96.6 0.65 99.1 1.7 100.4 2.2 101.05 2.7 101.2 7.85 103.55 15.9 105.9 32.05 110.6 46.75 110.6 61.85 110.6 75.25 104.9 84.2 101.1 87.95 97.35 89.75 95.55 90.05 94 90.3 92.85 90.3 87.05 90.3 81.6 90.15 67.3 90 49.2 89.75 43.6 89.2 28.65 88.9 24.6 87.9 11.85 85.4 0.6 Z"/>
</g>

<g id="action_feed_me_0_Layer0_0_FILL">
<path fill="#0A0601" fill-opacity="0.043137254901960784" stroke="none" d="
M 96 183
Q 96 183.5 96 184 96 185 96.5 185.65 99.45 189.75 102 186 102.5 186 103 186.05 108.65 186.35 112 189 112.5 189 113 189 116 189 119 189 119 188.5 119.2 188.35 122.15 186.65 126 186 126.5 186 126.8 186.25 129.05 187.95 132 189 132.5 189 133 189 136 189 139 189 140.5 188 142.1 187.2 146.95 184.7 150 188 150.5 188 151 188 155 188 154 183 153.5 183 153.25 182.75 149.9 179.1 142 180 142 180.5 141.75 180.65 138.7 182.7 134 183 133.5 183 133.2 182.75 130.95 181.05 128 180 127.5 180 127 180 124 180 121 180 121 180.5 120.8 180.65 117.85 182.4 114 183 113.5 183 113.2 182.75 110.95 181.05 108 180 107.5 180 107 179.95 99.35 179.35 96 183 Z"/>

<path fill="#3D2408" fill-opacity="0.2549019607843137" stroke="none" d="
M 68 71
Q 67.5 71 67 71 67 91.5 67.5 112
L 68 112
Q 68 111.5 68 111 68 91 68 71 Z"/>

<path fill="#76450E" fill-opacity="0.48627450980392156" stroke="none" d="
M 98 63
Q 98.5 63 99 63
L 99 62.5
Q 87 62 75 62 75 62.5 75 63 86.5 63 98 63 Z"/>

<path fill="#F38F1D" fill-opacity="0.984313725490196" stroke="none" d="
M 363.65 91
Q 363.25 83.75 360.75 78.1 360.5 77.5 360.45 76.95 360.25 74.3 359.25 72.85 354.7 66.3 349.5 60.45 335.6 44.9 315.1 35.75 314.5 35.5 313.95 35.4 307.25 34.25 303 31 302 31 301 30.95 298.2 30.8 295.95 30.3 292.05 29.45 288.85 28.55 287 28 285.1 27.6 276.55 25.95 266 26.1 237.1 26.6 216.85 35.65 216 36 215.25 36.45 211.3 38.85 207.1 41.15 188.05 51.55 180.7 73.9 180.5 74.5 180.5 74.95 180.7 78.7 179 80 179 85.5 179.65 90.9 180.25 95.75 181.3 100.15 183.75 110.25 190 116 190.5 116.5 190.6 117.1 191.05 118.95 192 120 199.45 127.55 208 134 208 134.5 208.05 135 208.8 145.7 209 157 209.5 157 209.55 157.15 210.45 159.55 212 161 212.5 161 212.95 161.15 218.25 163.15 222 160 222.5 160 223 160 225 160 227 160 230.2 158.2 233.95 156.9 238 155.5 242.15 154.6 245.8 153.8 248 152 254.1 153.4 260.95 154.4 261.5 154.5 262.05 154.55 266 155 269.95 155.55 281.9 157.2 294 154.9 296 154.5 298.05 154.3 305.1 153.6 310.95 151.8 316.6 150.1 322.1 148.3 323 148 323.8 147.6 325 147 326.2 146.5 347.6 138.1 358.35 119.2 359 118 359.45 116.8 361.65 111.15 364 106 364 98.5 363.65 91
M 342.05 115.05
Q 335.45 123.45 325.3 128.6 324.5 129 323.7 129.35 318.25 131.75 312.95 133.85 310 135 306.95 135.35 303.25 135.75 302 138 291.75 139.25 280 139.3 267.7 139.3 257 138 256.7 136.3 254 136.5
L 254 136
Q 247.2 135.7 242.15 137.4 233.3 140.3 224 143 224 135 224 127 224 126.5 224 126 211.1 117.4 201.7 105.25 201.5 105 201 105 200 102 198.55 99.25 197.25 96.75 196 94 196 87 196 80 196 79.5 196 79 197.25 76.75 198.4 74.2 199.45 71.95 200 69 205.55 62.05 212.75 56.7 213 56.5 213 56 220.15 53.15 226.35 49.65 227.5 49 228.85 48.55 232 47.5 235.15 46.45 236.5 46 237.95 45.75 240.35 45.35 242 44 248.5 43 255.95 42.55 256.5 42.5 257 42.5 287.2 41.3 307.2 50.6 308 51 308.85 51.35 329.7 59.8 342.25 76.8 349.25 86.25 348 104 345.35 108.8 342.8 113.9 342.5 114.5 342.05 115.05
M 259 88
Q 259 88.5 258.95 89 258.25 94.25 260 97 261.25 99.75 265 99.95 266.95 100.05 268.2 100.55 273.25 102.7 278 101 282.25 84.75 286.4 68.85 288.15 62.1 287 57 284.8 55.2 281 55.05 279.05 54.95 277.8 54.5 272.9 52.75 269 54 266.75 55.75 266.3 59.95 266 63 265.3 66.05 263.65 73.15 262.35 80.05 261.45 84.95 259 88 Z"/>

<path fill="#EF8D1D" fill-opacity="0.9686274509803922" stroke="none" d="
M 274.05 120.05
Q 275.95 115.75 274 112 269.55 109 263 108 258.25 107.25 256 109 253.25 109.75 253.25 114 253.25 116.75 252 119 251.2 124.3 254.85 125.5 258 126.5 261 128 263 128 264.95 128.25 269.2 128.7 271 127 271.5 127 271.9 126.8 272.5 126.5 272.55 125.95 272.95 122.45 274.05 120.05 Z"/>

<path fill="#F5911D" fill-opacity="0.9921568627450981" stroke="none" d="
M 498.2 90.5
Q 496.4 85 493.25 80.55 481.1 63.25 456.5 58.05 450.95 56.9 443.4 57.4 436.45 57.9 432.4 55.45 431.55 53.3 429.6 52.1 429.4 51.95 429.4 51.45 429.4 39.95 428.9 28.45 428.9 27.95 428.85 27.4 428.6 24.75 427.4 23.45 425.4 21.95 423.25 20.65 422.9 20.45 422.4 20.45 421.9 20.45 421.4 20.45 409.9 20.45 398.4 20.45 397.9 20.45 397.5 20.65 394.05 22.6 391.4 25.45 391.4 26.45 391.4 27.45 391.4 27.95 391.4 28.45 391.4 48.45 391.4 68.45 391.4 68.95 391.4 69.45 391.4 69.95 391.55 70.4 392.7 73.65 392.4 78.45 392.9 78.45 393 78.65 394.4 81.45 395.4 84.45 395.9 84.45 396.05 84.7 400.2 90.65 405.4 95.45 405.4 95.95 405.6 96.4 407.3 100.55 409.4 104.45 409.4 113.45 409.3 122.45 409.2 131.75 406.25 138.35 402.85 145.9 397.4 151.45 396.9 151.45 396.45 151.65 392.3 153.35 388.4 155.45 387.9 155.45 387.4 155.45 379.9 155.45 372.4 155.45
L 372.4 155.95
Q 369.7 155.75 369.4 157.45 368.9 157.45 368.4 157.45 366.4 157.45 364.4 157.45 362.75 158.8 360.5 159.65 355.9 161.45 351.4 163.45 346.4 168.95 341.55 174.55 339.65 176.7 338.8 179.55 337.6 183.65 335.4 186.45 335.4 202.45 335.4 218.45 335.4 218.95 335.4 219.45 337.25 223.1 341.2 224.85 341.4 224.95 341.4 225.45 353.9 225.45 366.4 225.45 366.9 225.45 367.4 225.45 371.05 223.6 372.8 219.65 372.9 219.45 373.4 219.45 373.4 210.45 373.4 201.45 373.4 200.95 373.4 200.45 376.2 194.75 383.4 193.55 383.9 193.45 384.4 193.45 387.6 193.7 388.8 196.25 388.9 196.45 389.4 196.45 392.75 206.6 397.2 215.55 397.4 215.95 397.4 216.45 401.5 220.85 406.15 224.75 406.4 224.95 406.4 225.45 412.2 227.65 418.25 229.9 418.4 229.95 418.4 230.45 428.9 230.45 439.4 229.95 439.9 229.95 440.5 229.75 449.9 226.45 458.4 222.45 466.4 215.45 473.9 207.95 474.4 207.45 474.9 206.95 478.6 203.15 481.65 198.6 486.85 190.9 490.9 181.65 491.9 179.45 492.85 177.2 493.4 175.95 493.8 174.55 494.65 171.7 496 169.25 496.4 168.45 496.6 167.5 497.05 165.1 498.4 163.45 498.4 161.45 498.4 159.45 498.4 158.95 498.4 158.45 500.85 155.4 501.5 150.45 502.2 144.75 502.8 139.4 503.4 134.45 503.5 129.45 503.75 114.6 502.4 101.45 500.05 96.3 498.2 90.5
M 425.6 98.25
Q 427.73203125 92.328125 434.15 88.25 442.65 82.8 454.25 82.8 467 82.8 476.35 90.5 476.964453125 91.0083984375 477.55 91.5 478.3353515625 93.5982421875 478.85 96 479.85 100.65 479.85 110.35 479.85 143 472.5 170.1 472.121875 171.48828125 471.7 172.8 469.590234375 176.6916015625 467.55 179.85 463.2658203125 182.8 458.55 182.8 455.5 182.8 453.95 181.8 452.45 180.4 451.2 179.6 446.25 176.4 428.75 176.4 428.75 174.7 425.25 169.9 421.5 164.7 419.2 164.7 417.9 164.7 415.45 165.75 413.05 166.8 411.7 166.8 406.4 166.8 405.1 164.2 404.541796875 163.105859375 404.3 160.75 404.559765625 159.833984375 405.4 158.65 406.070703125 157.6833984375 408.55 154.25 408.8416015625 153.989453125 409.15 153.7 428.75 134.35 428.75 121.1 428.75 115.7 427.2 109.45 425.6884765625 103.4986328125 425.6 98.25 Z"/>
</g>

<path id="gfx_hen_0_Layer0_0_1_STROKES" stroke="#CBD93E" stroke-width="9" stroke-linejoin="miter" stroke-linecap="butt" stroke-miterlimit="4" fill="none" d="
M 194.74732055664063 117.55359344482423
Q 190.49042358398438 114.4018524169922 182.22221984863282 115.34328155517579
L 174.8545135498047 116.93961791992189 177.80159606933594 114.93396453857423
Q 181.7719711303711 112.35526733398439 186.76563873291016 109.57191162109376 195.36129608154297 104.78290252685548 194.99291076660157 101.59022979736329 194.66545715332032 99.09339599609376 188.6075653076172 97.29240112304689 183.94135131835938 95.90072326660157 173.6265625 97.70171813964845 170.43388977050782 98.27476196289064 170.2701629638672 97.94730834960939 170.10643615722657 97.57892303466798 173.87215270996094 95.24581604003907 182.46781005859376 89.96562652587892 186.68377532958985 86.77295379638673 189.3443359375 84.72636871337892 192.70073547363282 81.32903747558595 194.99291076660157 79.0368621826172 195.68874969482422 76.04884796142579 196.4664520263672 72.77431182861329 194.8701156616211 70.64586334228517 190.654150390625 65.03822021484379 174.2814697265625 71.09611206054689 168.51009979248047 73.22456054687504 162.2066177368164 76.7856185913086
L 157.00829162597657 79.89642791748048
Q 162.4931396484375 74.41157989501954 164.13040771484376 72.07847290039064 165.72674407958985 69.82722930908204 167.11842193603516 68.43555145263673 170.59761657714844 64.9972885131836 172.35767974853516 61.149708557128946 174.81358184814454 55.951382446289074 173.05351867675782 51.85821228027345 171.62090911865235 48.50181274414061 166.1360610961914 48.87019805908207 162.08382263183594 49.156719970703136 153.81561889648438 51.85821228027345 144.3603958129883 54.92808990478517 132.3674072265625 63.8512008666992 123.44429626464844 71.21890716552733 125.163427734375 69.45884399414064 127.33280792236329 67.28946380615238 130.44361724853516 58.03889923095704
L 133.14510955810547 49.19765167236329
Q 134.6186508178711 44.85889129638673 134.7005142211914 40.84758453369142 134.78237762451172 32.86590270996095 127.61932983398438 34.666897583007824 114.684912109375 37.85957031249998 101.01372375488282 55.78765563964845 100.8499969482422 42.56671600341795 98.18943634033204 34.421307373046886 94.13719787597657 22.0599334716797 84.06799926757813 18.498875427246105
L 84.10893096923829 18.498875427246105 84.02706756591797 18.45794372558595
Q 83.9042724609375 18.294216918945324 83.29029693603516 16.24763183593751 82.84004821777344 14.569432067871105 82.84004821777344 14.241978454589855 82.96284332275391 12.973095703125011 84.80476989746094 12.277256774902355 86.85135498046876 12.154461669921886 86.85135498046876 11.335827636718761 86.85135498046876 10.47626190185548 84.4773162841797 10.107876586914074 81.77582397460938 9.698559570312511 79.2380584716797 11.294895935058605 78.05103912353516 12.072598266601574 78.9515365600586 10.721852111816418 79.81110229492188 9.49390106201173 81.65302886962891 8.716198730468761 85.45967712402344 7.20172576904298 84.39545288085938 6.710545349121105
L 82.5944580078125 6.54681854248048
Q 82.06234588623047 6.464955139160168 81.24371185302735 6.54681854248048 79.64737548828126 6.669613647460949 78.37849273681641 7.365452575683605 75.22675170898438 9.289242553710949 74.81743469238282 9.452969360351574 74.61277618408204 9.575764465332043 74.48998107910157 9.207379150390636 73.9988006591797 7.979428100585949 74.20345916748047 6.424023437500011
L 74.53091278076172 5.073277282714855
Q 75.43141021728516 3.1494873046875114 75.75886383056641 1.6759460449218864 76.37283935546876 -1.2711364746093636 73.46668853759766 0.9391754150390739 67.57252349853516 5.523526000976574 66.26270904541016 16.616017150878918 60.94158782958985 17.4755828857422 56.35723724365235 20.42266540527345 48.539282226562506 25.375401306152355 45.79685821533201 34.748760986328165
L 45.34660949707035 36.426960754394514
Q 42.972570800781256 46.65988616943358 43.545614624023415 59.92175750732426 44.15959014892576 74.24785308837895 43.17722930908204 80.10108642578126 42.972570800781256 81.3699691772461 42.68604888916019 82.47512512207032
L 41.41716613769532 87.05947570800782 38.715673828125006 93.60854797363282 35.03182067871094 100.44414215087892
Q 33.18989410400391 103.55495147705079 29.219519042968727 109.98122863769532 25.57659759521485 115.91632537841798 23.24349060058597 120.45974426269532 15.384603881835943 127.58186035156251 10.595594787597634 136.05472259521486 2.081800842285162 151.19945220947267 0.035215759277349434 173.54816131591798 -0.4150329589843693 178.91021423339845 3.9646591186523494 185.29555969238282 7.280126953125034 190.16643218994142 13.13336029052735 195.20103149414064 15.466467285156284 204.0422790527344 21.769949340820318 209.77271728515626 28.237158203125006 215.66688232421876 40.55760040283204 219.88284759521486
L 38.633810424804665 249.18994598388667
Q 27.295729064941412 250.45882873535157 25.126348876953102 261.1010711669922 24.88075866699222 262.2880905151367 24.88075866699222 262.45181732177736 25.003553771972662 263.0248611450196 26.10870971679691 263.0248611450196 27.295729064941412 263.0248611450196 27.8687728881836 261.837841796875 28.032499694824224 261.38759307861335 28.359953308105503 259.8731201171875 28.646475219726568 258.8088958740234 30.69306030273438 256.84417419433595 33.803869628906256 253.89709167480464 38.388220214843784 252.9556625366211
L 39.32964935302735 261.060139465332
Q 39.04312744140623 264.3756072998047 40.76225891113282 264.3756072998047 41.867414855957065 264.3756072998047 42.27673187255863 263.2295196533204 42.52232208251951 262.61554412841804 42.56325378417969 261.305729675293
L 44.65077056884766 252.9556625366211
Q 49.35791625976563 253.89709167480464 52.63245239257813 256.88510589599616 54.80183258056641 258.8498275756836 55.04742279052735 259.91405181884767 55.12928619384766 260.40523223876954 55.17021789550782 261.67411499023433 55.3748764038086 262.65647583007814 56.48003234863282 262.5746124267578 57.62611999511719 262.49274902343745 57.830778503417974 261.67411499023433 57.91264190673829 261.34666137695314 57.74891510009766 260.0777786254883 57.25773468017579 256.2711303710938 55.00649108886719 253.73336486816407 51.731954956054665 250.0085800170898 44.8963607788086 249.2308776855469
L 46.73828735351563 221.76570587158204
Q 51.89568176269535 223.23924713134767 58.035437011718756 224.58999328613282 66.7948211669922 226.51378326416017 81.8576873779297 226.59564666748048 96.6340316772461 226.6775100708008 104.45198669433594 224.9993103027344
L 109.32285919189454 223.85322265625 109.65031280517579 248.20758514404298
Q 102.77378692626954 249.2308776855469 99.29459228515626 253.07845764160152 96.9205535888672 255.65715484619147 96.22471466064454 259.5047348022461 95.9791244506836 260.6508224487304 96.06098785400391 261.060139465332 96.22471466064454 261.9197052001953 97.32987060546876 261.9606369018555 98.43502655029297 262.0015686035157 98.72154846191407 260.9782760620118 98.8852752685547 259.7503250122071 98.967138671875 259.21821289062495 99.08993377685547 258.31771545410163 101.5049041748047 256.10740356445314 104.94316711425782 253.03752593994142 109.69124450683594 251.9733016967774
L 111.3285125732422 260.24150543212886
Q 111.4103759765625 261.71504669189454 111.53317108154297 262.1243637084961 111.86062469482422 263.3113830566406 113.0067123413086 263.2704513549805 114.72584381103516 263.18858795166017 114.6030487060547 259.8731201171875
L 115.95379486083985 251.76864318847663
Q 120.4972137451172 252.54634552001954 123.4852279663086 255.41156463623048 125.49088134765626 257.3353546142578 125.61367645263672 258.35864715576173 125.85926666259766 259.91405181884767 126.02299346923829 260.2824371337891 126.51417388916016 261.51038818359376 127.7011932373047 261.46945648193355 128.84728088378907 261.42852478027345 128.97007598876954 260.8145492553711 129.0110076904297 260.69175415039064 128.8063491821289 259.5047348022461 128.23330535888672 255.37063293457032 126.02299346923829 252.66914062499995 122.66659393310547 248.57597045898433 115.9128631591797 248.0029266357422
L 115.58540954589844 222.0931594848633
Q 125.53181304931641 218.98235015869142 132.40833892822266 214.5207946777344 139.98070373535157 209.60899047851564 144.3603958129883 202.65060119628907 160.77400817871094 193.97308044433595 173.42190399169922 181.52984313964845 186.4381851196289 168.80008392333986 188.19824829101563 159.09927062988282 189.18060913085938 153.86001281738282 180.99426879882813 156.3977783203125 172.6032699584961 159.9588363647461 172.6032699584961 159.71324615478517
L 174.77265014648438 157.5438659667969
Q 177.71973266601563 154.84237365722657 181.64917602539063 152.14088134765626 189.30340423583985 146.8606918334961 190.89974060058594 143.05404357910157 192.12769165039063 140.10696105957032 189.83551635742188 137.81478576660157 187.7479995727539 135.68633728027345 181.6901077270508 136.05472259521486
L 176.08246459960938 136.83242492675782 183.28644409179688 132.28900604248048
Q 184.71905364990235 131.38850860595704 188.4029067993164 129.13726501464845 191.84116973876954 126.96788482666017 193.68309631347657 125.41248016357423 199.0860809326172 120.70533447265626 194.74732055664063 117.55359344482423 Z"/>

<path id="gfx_hen_0_Layer0_10_1_STROKES" stroke="#14918C" stroke-width="1" stroke-linejoin="round" stroke-linecap="round" fill="none" d="
M 61.47369995117188 39.7424285888672
Q 61.47369995117188 42.52578430175785 59.42711486816407 44.44957427978517 57.42146148681641 46.414295959472696 54.51531066894532 46.414295959472696 51.609159851074224 46.414295959472696 49.56257476806641 44.44957427978517 47.5159896850586 42.48485260009767 47.5159896850586 39.7424285888672 47.5159896850586 36.959072875976574 49.56257476806641 34.994351196289045 51.609159851074224 33.029629516601574 54.51531066894532 33.029629516601574 57.42146148681641 33.029629516601574 59.42711486816407 34.994351196289045 61.47369995117188 36.959072875976574 61.47369995117188 39.7424285888672 Z"/>

<path id="gfx_hen_0_Layer0_11_1_STROKES" stroke="#14918C" stroke-width="1" stroke-linejoin="round" stroke-linecap="round" fill="none" d="
M 92.54086151123047 37.04093627929686
Q 92.54086151123047 39.82429199218751 90.49427642822266 41.78901367187501 88.488623046875 43.75373535156254 85.58247222900391 43.75373535156254 82.67632141113282 43.75373535156254 80.67066802978516 41.78901367187501 78.62408294677735 39.82429199218751 78.62408294677735 37.04093627929686 78.62408294677735 34.25758056640626 80.67066802978516 32.29285888671876 82.71725311279297 30.32813720703126 85.58247222900391 30.32813720703126 88.44769134521485 30.32813720703126 90.49427642822266 32.29285888671876 92.54086151123047 34.25758056640626 92.54086151123047 37.04093627929686 Z"/>

<path id="gfx_chick_0_Layer0_0_1_STROKES" stroke="#CBD93E" stroke-width="9" stroke-linejoin="miter" stroke-linecap="butt" stroke-miterlimit="4" fill="none" d="
M 186.65 453.95
Q 183.85 431.6 178.75 418.2 178.25 407.3 177.05 398.8 175.4 386.8 172.05 375.75 167.85 361.65 156.75 352.45 153.3 349.6 149.55 347.55
L 146.5 346.1
Q 146.5 345.8 146.7 345.5 147.15 344.85 148.25 344.8 150.8 344.7 153.25 344.6 154.3 344.55 153.9 344.15 153.65 343.9 150.5 343.4 147.5 342.95 147 343 142 343.3 139.1 344.85 138.2 345.35 138.05 345.4 137.85 345.45 137.85 344.75 137.85 343.55 140 342.2 141.95 341 143.45 340.85 149.45 340.25 143.55 339.95 138.55 339.95 128.4 344.8 115.25 351.1 108.6 360.5 102.3 369.45 98 385.4
L 97.95 385.5 95.9 393.95
Q 95.05 397.95 94.4 401.8
L 94.3 402.2 93.8 405.3
Q 93.15 409.2 92.6 413.45
L 92.1 417.5
Q 85.85 430.65 82.45 457.3 82.2 459.6 84.65 462.4 86.7 464.75 89.4 466.2
L 89.35 468
Q 89.35 470.65 89.7 475.75 90 480.85 90 482 90 484.5 91.05 485.8 91.55 486.45 92.05 486.6
L 97.6 488.8
Q 104.6 491.35 112.05 493.05
L 111.4 520.9
Q 104.1 522.15 103 533.75 102.85 535.15 102.9 535.2 102.95 535.85 103.65 535.9 104.4 535.95 104.75 534.6 104.9 534.05 105.05 532.45 105.25 531.25 106.45 529.15 108.4 525.95 111.3 525
L 112.05 533.95
Q 111.9 537.6 113 537.6 113.75 537.65 114 536.35 114.1 535.9 114.15 534.25
L 115.3 525.15
Q 118.35 526.2 120.45 529.55 121.9 531.8 122.05 532.95 122.1 533.5 122.2 534.9 122.35 535.95 123.05 535.9 123.75 535.85 123.9 534.95 123.9 534.55 123.8 533.2 122.9 522.65 115.4 521
L 116.05 493.9
Q 126.75 496 136.1 496 146.1 496 156.05 493.3
L 156.25 502.15 156.65 521
Q 149.25 522.65 148.3 533.2 148.2 534.55 148.25 534.95 148.35 535.85 149.05 535.9 149.75 535.95 149.95 534.9 150 533.5 150.05 532.95 150.05 532 151.6 529.55 153.75 526.25 156.75 525.15
L 157.95 534.25
Q 158.05 535.95 158.1 536.35 158.35 537.65 159.05 537.6 159.75 537.6 159.95 536.2 160.05 535.6 160.05 533.95
L 160.75 525
Q 163.65 525.95 165.6 529.15 166.9 531.25 167.05 532.45 167.2 534.05 167.35 534.6 167.65 535.95 168.4 535.9 169.1 535.85 169.2 535.2 169.2 535.05 169.1 533.75 167.85 522.1 160.65 520.9
L 160 492.05
Q 166.4 489.85 171.75 486.7 175.65 484.4 177.3 482.75
L 178.45 481.5
Q 179.3 480.4 179.5 478.85 179.65 477.75 179.65 473.75
L 179.6 462.9
Q 182.3 461.5 184.4 459.1 186.95 456.25 186.65 453.95 Z"/>

<path id="gfx_chick_0_Layer0_1_1_STROKES" stroke="#CBD93E" stroke-width="5" stroke-linejoin="miter" stroke-linecap="butt" stroke-miterlimit="4" fill="none" d="
M 186.65 453.95
Q 183.85 431.6 178.75 418.2 178.25 407.3 177.05 398.8 175.4 386.8 172.05 375.75 167.85 361.65 156.75 352.45 153.3 349.6 149.55 347.55
L 146.5 346.1
Q 146.5 345.8 146.7 345.5 147.15 344.85 148.25 344.8 150.8 344.7 153.25 344.6 154.3 344.55 153.9 344.15 153.65 343.9 150.5 343.4 147.5 342.95 147 343 142 343.3 139.1 344.85 138.2 345.35 138.05 345.4 137.85 345.45 137.85 344.75 137.85 343.55 140 342.2 141.95 341 143.45 340.85 149.45 340.25 143.55 339.95 138.55 339.95 128.4 344.8 115.25 351.1 108.6 360.5 102.3 369.45 98 385.4
L 97.95 385.5 95.9 393.95
Q 95.05 397.95 94.4 401.8
L 94.3 402.2 93.8 405.3
Q 93.15 409.2 92.6 413.45
L 92.1 417.5
Q 85.85 430.65 82.45 457.3 82.2 459.6 84.65 462.4 86.7 464.75 89.4 466.2
L 89.35 468
Q 89.35 470.65 89.7 475.75 90 480.85 90 482 90 484.5 91.05 485.8 91.55 486.45 92.05 486.6
L 97.6 488.8
Q 104.6 491.35 112.05 493.05
L 111.4 520.9
Q 104.1 522.15 103 533.75 102.85 535.15 102.9 535.2 102.95 535.85 103.65 535.9 104.4 535.95 104.75 534.6 104.9 534.05 105.05 532.45 105.25 531.25 106.45 529.15 108.4 525.95 111.3 525
L 112.05 533.95
Q 111.9 537.6 113 537.6 113.75 537.65 114 536.35 114.1 535.9 114.15 534.25
L 115.3 525.15
Q 118.35 526.2 120.45 529.55 121.9 531.8 122.05 532.95 122.1 533.5 122.2 534.9 122.35 535.95 123.05 535.9 123.75 535.85 123.9 534.95 123.9 534.55 123.8 533.2 122.75 522.6 115.4 521
L 116.05 493.9
Q 126.75 496 136.1 496 146.1 496 156.05 493.3
L 156.25 502.15 156.65 521
Q 149.25 522.65 148.3 533.2 148.2 534.55 148.25 534.95 148.35 535.85 149.05 535.9 149.75 535.95 149.95 534.9 150 533.5 150.05 532.95 150.05 532 151.6 529.55 153.75 526.25 156.75 525.15
L 157.95 534.25
Q 158.05 535.95 158.1 536.35 158.35 537.65 159.05 537.6 159.75 537.6 159.95 536.2 160.05 535.6 160.05 533.95
L 160.75 525
Q 163.65 525.95 165.6 529.15 166.9 531.25 167.05 532.45 167.2 534.05 167.35 534.6 167.65 535.95 168.4 535.9 169.1 535.85 169.2 535.2 169.2 535.05 169.1 533.75 167.85 522.1 160.65 520.9
L 160 492.05
Q 166.4 489.85 171.75 486.7 175.65 484.4 177.3 482.75
L 178.45 481.5
Q 179.3 480.4 179.5 478.85 179.65 477.75 179.65 473.75
L 179.6 462.9
Q 182.3 461.5 184.4 459.1 186.95 456.25 186.65 453.95 Z"/>

<path id="gfx_chick_0_Layer0_9_1_STROKES" stroke="#14918C" stroke-width="1" stroke-linejoin="round" stroke-linecap="round" fill="none" d="
M 125.2 373.6
Q 125.2 376.65 122.95 378.85 120.7 381 117.55 381 114.35 381 112.1 378.85 109.85 376.65 109.85 373.6 109.85 370.55 112.1 368.35 114.35 366.2 117.55 366.2 120.7 366.2 122.95 368.35 125.2 370.55 125.2 373.6 Z"/>

<path id="gfx_chick_0_Layer0_10_1_STROKES" stroke="#14918C" stroke-width="1" stroke-linejoin="round" stroke-linecap="round" fill="none" d="
M 161.45 370.65
Q 161.45 373.75 159.2 375.9 157 378.05 153.8 378.05 150.6 378.05 148.35 375.9 146.1 373.7 146.1 370.65 146.1 367.6 148.35 365.4 150.6 363.25 153.8 363.25 157 363.25 159.2 365.4 161.45 367.55 161.45 370.65 Z"/>
</defs>

<g id="setting" transform="matrix( 1, 0, 0, 1, 0,0) ">
<g id="rat" transform="matrix( 1, 0, 0, 1, 598.55,246.55) ">
<g transform="matrix( 1, 0, 0, 1, 0,0) ">
<use xlink:href="#rat_0_Layer0_0_FILL"/>
</g>
</g>

<g id="sun" transform="matrix( 0.5890350341796875, 0, 0, 0.5890350341796875, 294.55,40.55) ">
<g transform="matrix( 1, 0, 0, 1, 0,0) ">
<use xlink:href="#sun_0_Layer2_0_FILL"/>
</g>

<g transform="matrix( 1, 0, 0, 1, 0,0) ">
<use xlink:href="#sun_0_Layer1_0_FILL"/>
</g>

<g transform="matrix( 1, 0, 0, 1, 0,0) ">
<use xlink:href="#sun_0_Layer0_0_FILL"/>
</g>
</g>

<g id="house" transform="matrix( 1, 0, 0, 1, 78.4,52.55) ">
<g transform="matrix( 1, 0, 0, 1, 0,0) ">
<use xlink:href="#house_0_Layer5_0_FILL"/>
</g>

<g transform="matrix( 0.5755462646484375, 0, 0, 0.5755462646484375, 108.85,105.3) ">
<g transform="matrix( 1, 0, 0, 1, 0,0) ">
<use xlink:href="#door_0_Layer1_0_FILL"/>
</g>

<g transform="matrix( 1, 0, 0, 1, 0,0) ">
<use xlink:href="#door_0_Layer0_0_FILL"/>
</g>
</g>

<g transform="matrix( 1, 0, 0, 1, 0,0) ">
<use xlink:href="#house_0_Layer3_0_FILL"/>
</g>

<g transform="matrix( 0.5755462646484375, 0, 0, 0.5755462646484375, 8.05,57.65) ">
<g transform="matrix( 1, 0, 0, 1, 0,0) ">
<use xlink:href="#window_top_0_Layer0_0_FILL"/>
</g>
</g>

<g transform="matrix( 0.5755462646484375, 0, 0, 0.5755462646484375, 40.15,57.65) ">
<g transform="matrix( 1, 0, 0, 1, 0,0) ">
<use xlink:href="#window_top_0_Layer0_0_FILL"/>
</g>
</g>

<g transform="matrix( 0.5755462646484375, 0, 0, 0.5755462646484375, 72.5,57.65) ">
<g transform="matrix( 1, 0, 0, 1, 0,0) ">
<use xlink:href="#window_top_0_Layer0_0_FILL"/>
</g>
</g>

<g transform="matrix( 1, 0, 0, 1, 0,0) ">
<use xlink:href="#house_0_Layer1_0_FILL"/>
</g>

<g transform="matrix( 1, 0, 0, 1, 0,0) ">
<use xlink:href="#house_0_Layer0_0_FILL"/>
</g>
</g>

<g id="possum" transform="matrix( 1, 0, 0, 1, 754.55,230.6) ">
<g transform="matrix( 1, 0, 0, 1, 0,0) ">
<use xlink:href="#possum_0_Layer0_0_FILL"/>
</g>
</g>

<g id="wisp" transform="matrix( 1, 0, 0, 1, 272.5,226.6) ">
<g transform="matrix( 1, 0, 0, 1, 0,0) ">
<use xlink:href="#wisp_0_Layer0_0_FILL"/>
</g>
</g>

<g id="seagull" transform="matrix( 0.4434814453125, 0, 0, 0.4434814453125, 551.3,64.55) ">
<g transform="matrix( 1, 0, 0, 1, 0,0) ">
<use xlink:href="#seagull_0_Layer0_0_FILL"/>
</g>
</g>

<g id="cat" transform="matrix( 1, 0, 0, 1, 638.85,191.55) ">
<g transform="matrix( 1, 0, 0, 1, 0,0) ">
<use xlink:href="#cat_0_Layer0_0_FILL"/>
</g>
</g>

<g id="racoon" transform="matrix( 1, 0, 0, 1, 698.05,228.4) ">
<g transform="matrix( 1, 0, 0, 1, 0,0) ">
<use xlink:href="#racoon_0_Layer0_0_FILL"/>
</g>
</g>

<g id="skunk" transform="matrix( 1, 0, 0, 1, 702.8,178.9) ">
<g transform="matrix( 1, 0, 0, 1, 0,0) ">
<use xlink:href="#skunk_0_Layer0_0_FILL"/>
</g>
</g>

<g id="backyard" transform="matrix( 1, 0, 0, 1, 862.6,0) ">
<g id="fence" transform="matrix( 1, 0, 0, 1, 0,0) ">
<g transform="matrix( 1, 0, 0, 1, 0,0) ">
<use xlink:href="#fence_0_Layer0_0_FILL"/>
</g>
</g>

<g id="yard" transform="matrix( 1, 0, 0, 1, 50,42.6) ">
<g transform="matrix( 1, 0, 0, 1, 0,0) ">
<use xlink:href="#yard_0_Layer0_0_FILL"/>
</g>
</g>

<g id="coop" transform="matrix( 1, 0, 0, 1, 144,255) ">
<g transform="matrix( 1, 0, 0, 1, 0,0) ">
<use xlink:href="#coop_0_Layer0_0_FILL"/>
</g>
</g>
</g>

<g id="winnie" transform="matrix( 1, 0, 0, 1, 30.5,199.6) ">
<g id="legs" transform="matrix( 1, 0, 0, 1, 3.5,38.6) ">
<g transform="matrix( 1, 0, 0, 1, 0,0) ">
<use xlink:href="#legs_0_Layer0_0_FILL"/>
</g>
</g>

<g transform="matrix( 1, 0, 0, 1, 3,11.3) ">
<g transform="matrix( 1, 0, 0, 1, 0,0) ">
<use xlink:href="#head_0_Layer0_0_FILL"/>
</g>
</g>

<g id="body" transform="matrix( 1, 0, 0, 1, 0,20.85) ">
<g transform="matrix( 1, 0, 0, 1, 0,0) ">
<use xlink:href="#body_0_Layer0_0_FILL"/>
</g>
</g>

<g id="hat" transform="matrix( 1, 0, 0, 1, 1.1,0) ">
<g transform="matrix( 1, 0, 0, 1, 0,0) ">
<use xlink:href="#hat_0_Layer0_0_FILL"/>
</g>
</g>
</g>

<g id="finishline" transform="matrix( 1, 0, 0, 1, 129.05,182.45) ">
<g transform="matrix( 1, 0, 0, 1, 0,0) ">
<use xlink:href="#finishline_0_Layer0_0_FILL"/>
</g>
</g>

<g id="startline" transform="matrix( 1, 0, 0, 1, 96.55,178.45) ">
<g transform="matrix( 1, 0, 0, 1, 0,0) ">
<use xlink:href="#startingline_0_Layer0_0_FILL"/>
</g>
</g>

<g id="mrskim" transform="matrix( 1, 0, 0, 1, 553.5,201.6) ">
<g transform="matrix( 1, 0, 0, 1, 0,0) ">
<use xlink:href="#mrskim_0_Layer0_0_FILL"/>
</g>
</g>

<g id="cop" transform="matrix( 1, 0, 0, 1, 451,255.05) ">
<g transform="matrix( 1, 0, 0, 1, 0,0) ">
<use xlink:href="#cop_0_Layer0_0_FILL"/>
</g>
</g>

<g id="hen" transform="matrix( 1, 0, 0, 1, 481,216.05) ">
<g transform="matrix( 0.24761962890625, 0, 0, 0.24761962890625, -18.85,-36.75) ">
<g transform="matrix( 0.818634033203125, 0, 0, 0.818634033203125, -203.6,-176.95) ">
<use xlink:href="#gfx_hen_0_Layer0_0_1_STROKES" transform="matrix( 1.2215423583984375, 0, 0, 1.2215423583984375, 248.7,216.15) "/>
</g>

<g transform="matrix( 0.818634033203125, 0, 0, 0.818634033203125, -203.6,-176.95) ">
<use xlink:href="#gfx_hen_0_Layer0_1_FILL"/>
</g>

<g transform="matrix( 0.818634033203125, 0, 0, 0.818634033203125, 109.25,215.1) ">
<g transform="matrix( 1, 0, 0, 1, 0,0) ">
<use filter="url(#Filter_1)" xlink:href="#chickens_ai_Layer_1__Path__40_0_Layer0_0_FILL"/>
</g>
</g>

<g transform="matrix( 0.818634033203125, 0, 0, 0.818634033203125, -203.6,-176.95) ">
<use xlink:href="#gfx_hen_0_Layer0_3_FILL"/>
</g>

<g transform="matrix( 0.818634033203125, 0, 0, 0.818634033203125, 39.85,216.15) ">
<g transform="matrix( 1, 0, 0, 1, 0,0) ">
<use filter="url(#Filter_1)" xlink:href="#chickens_ai_Layer_1__Path__38_0_Layer0_0_FILL"/>
</g>
</g>

<g transform="matrix( 0.818634033203125, 0, 0, 0.818634033203125, -203.6,-176.95) ">
<use xlink:href="#gfx_hen_0_Layer0_5_FILL"/>
</g>

<g transform="matrix( 0.818634033203125, 0, 0, 0.818634033203125, -203.6,-176.95) ">
<use xlink:href="#gfx_hen_0_Layer0_6_FILL"/>
</g>

<g transform="matrix( 0.818634033203125, 0, 0, 0.818634033203125, -203.6,-176.95) ">
<use xlink:href="#gfx_hen_0_Layer0_7_FILL"/>
</g>

<g transform="matrix( 0.818634033203125, 0, 0, 0.818634033203125, -203.6,-176.95) ">
<use xlink:href="#gfx_hen_0_Layer0_8_FILL"/>
</g>

<g transform="matrix( 0.818634033203125, 0, 0, 0.818634033203125, -203.6,-176.95) ">
<use xlink:href="#gfx_hen_0_Layer0_9_FILL"/>
</g>

<g transform="matrix( 0.818634033203125, 0, 0, 0.818634033203125, -203.6,-176.95) ">
<use xlink:href="#gfx_hen_0_Layer0_10_FILL"/>

<use xlink:href="#gfx_hen_0_Layer0_10_1_STROKES" transform="matrix( 1.2215423583984375, 0, 0, 1.2215423583984375, 248.7,216.15) "/>
</g>

<g transform="matrix( 0.818634033203125, 0, 0, 0.818634033203125, -203.6,-176.95) ">
<use xlink:href="#gfx_hen_0_Layer0_11_FILL"/>

<use xlink:href="#gfx_hen_0_Layer0_11_1_STROKES" transform="matrix( 1.2215423583984375, 0, 0, 1.2215423583984375, 248.7,216.15) "/>
</g>

<g transform="matrix( 0.818634033203125, 0, 0, 0.818634033203125, 84.55,32.5) ">
<g transform="matrix( 1, 0, 0, 1, 0,0) ">
<use filter="url(#Filter_2)" xlink:href="#chickens_ai_Layer_1__Path__30_0_Layer0_0_FILL"/>
</g>
</g>

<g transform="matrix( 0.818634033203125, 0, 0, 0.818634033203125, 85.4,40.1) ">
<g transform="matrix( 1, 0, 0, 1, 0,0) ">
<use filter="url(#Filter_2)" xlink:href="#chickens_ai_Layer_1__Path__29_0_Layer0_0_FILL"/>
</g>
</g>

<g transform="matrix( 0.818634033203125, 0, 0, 0.818634033203125, 53.05,34.75) ">
<g transform="matrix( 1, 0, 0, 1, 0,0) ">
<use filter="url(#Filter_2)" xlink:href="#chickens_ai_Layer_1__Path__28_0_Layer0_0_FILL"/>
</g>
</g>

<g transform="matrix( 0.818634033203125, 0, 0, 0.818634033203125, -203.6,-176.95) ">
<use xlink:href="#gfx_hen_0_Layer0_15_FILL"/>
</g>

<g transform="matrix( 0.818634033203125, 0, 0, 0.818634033203125, -203.6,-176.95) ">
<use xlink:href="#gfx_hen_0_Layer0_16_FILL"/>
</g>

<g transform="matrix( 0.818634033203125, 0, 0, 0.818634033203125, -203.6,-176.95) ">
<use xlink:href="#gfx_hen_0_Layer0_17_FILL"/>
</g>

<g transform="matrix( 0.818634033203125, 0, 0, 0.818634033203125, -203.6,-176.95) ">
<use xlink:href="#gfx_hen_0_Layer0_18_FILL"/>
</g>

<g transform="matrix( 0.818634033203125, 0, 0, 0.818634033203125, -203.6,-176.95) ">
<use xlink:href="#gfx_hen_0_Layer0_19_FILL"/>
</g>

<g transform="matrix( 0.818634033203125, 0, 0, 0.818634033203125, 66.9,43.05) ">
<g transform="matrix( 1, 0, 0, 1, 0,0) ">
<use filter="url(#Filter_3)" xlink:href="#chickens_ai_Layer_1__Path__22_0_Layer0_0_FILL"/>
</g>
</g>

<g transform="matrix( 0.818634033203125, 0, 0, 0.818634033203125, -203.6,-176.95) ">
<use xlink:href="#gfx_hen_0_Layer0_21_FILL"/>
</g>
</g>
</g>

<g id="chick" transform="matrix( 1, 0, 0, 1, 410.5,253.6) ">
<g transform="matrix( 0.1528167724609375, 0, 0, 0.1528167724609375, -7.45,-13.15) ">
<g transform="matrix( 1, 0, 0, 1, -82.4,-339.95) ">
<use xlink:href="#gfx_chick_0_Layer0_0_1_STROKES"/>
</g>

<g transform="matrix( 1, 0, 0, 1, -82.4,-339.95) ">
<use xlink:href="#gfx_chick_0_Layer0_1_1_STROKES"/>
</g>

<g transform="matrix( 1, 0, 0, 1, -82.4,-339.95) ">
<use xlink:href="#gfx_chick_0_Layer0_2_FILL"/>
</g>

<g transform="matrix( 1, 0, 0, 1, 73.5,144.65) ">
<g transform="matrix( 1, 0, 0, 1, 0,0) ">
<use filter="url(#Filter_1)" xlink:href="#chickens_ai_Layer_1__Path__57_0_Layer0_0_FILL"/>
</g>
</g>

<g transform="matrix( 1, 0, 0, 1, -82.4,-339.95) ">
<use xlink:href="#gfx_chick_0_Layer0_4_FILL"/>
</g>

<g transform="matrix( 1, 0, 0, 1, 29.5,144.65) ">
<g transform="matrix( 1, 0, 0, 1, 0,0) ">
<use filter="url(#Filter_1)" xlink:href="#chickens_ai_Layer_1__Path__55_0_Layer0_0_FILL"/>
</g>
</g>

<g transform="matrix( 1, 0, 0, 1, -82.4,-339.95) ">
<use xlink:href="#gfx_chick_0_Layer0_6_FILL"/>
</g>

<g transform="matrix( 1, 0, 0, 1, -82.4,-339.95) ">
<use xlink:href="#gfx_chick_0_Layer0_7_FILL"/>
</g>

<g transform="matrix( 1, 0, 0, 1, -82.4,-339.95) ">
<use xlink:href="#gfx_chick_0_Layer0_8_FILL"/>
</g>

<g transform="matrix( 1, 0, 0, 1, -82.4,-339.95) ">
<use xlink:href="#gfx_chick_0_Layer0_9_FILL"/>

<use xlink:href="#gfx_chick_0_Layer0_9_1_STROKES"/>
</g>

<g transform="matrix( 1, 0, 0, 1, -82.4,-339.95) ">
<use xlink:href="#gfx_chick_0_Layer0_10_FILL"/>

<use xlink:href="#gfx_chick_0_Layer0_10_1_STROKES"/>
</g>

<g transform="matrix( 1, 0, 0, 1, -82.4,-339.95) ">
<use xlink:href="#gfx_chick_0_Layer0_11_FILL"/>
</g>

<g transform="matrix( 1, 0, 0, 1, -82.4,-339.95) ">
<use xlink:href="#gfx_chick_0_Layer0_12_FILL"/>
</g>

<g transform="matrix( 1, 0, 0, 1, 46.45,39.05) ">
<g transform="matrix( 1, 0, 0, 1, 0,0) ">
<use filter="url(#Filter_3)" xlink:href="#chickens_ai_Layer_1__Path__47_0_Layer0_0_FILL"/>
</g>
</g>

<g transform="matrix( 1, 0, 0, 1, 70.2,25.65) ">
<g transform="matrix( 1, 0, 0, 1, 0,0) ">
<use filter="url(#Filter_2)" xlink:href="#chickens_ai_Layer_1__Path__46_0_Layer0_0_FILL"/>
</g>
</g>

<g transform="matrix( 1, 0, 0, 1, 71.2,34.05) ">
<g transform="matrix( 1, 0, 0, 1, 0,0) ">
<use filter="url(#Filter_2)" xlink:href="#chickens_ai_Layer_1__Path__45_0_Layer0_0_FILL"/>
</g>
</g>

<g transform="matrix( 1, 0, 0, 1, 33.55,28.15) ">
<g transform="matrix( 1, 0, 0, 1, 0,0) ">
<use filter="url(#Filter_2)" xlink:href="#chickens_ai_Layer_1__Path__44_0_Layer0_0_FILL"/>
</g>
</g>

<g transform="matrix( 1, 0, 0, 1, 34.6,36.55) ">
<g transform="matrix( 1, 0, 0, 1, 0,0) ">
<use filter="url(#Filter_2)" xlink:href="#chickens_ai_Layer_1__Path__43_0_Layer0_0_FILL"/>
</g>
</g>

<g transform="matrix( 1, 0, 0, 1, 6.95,45.45) ">
<g transform="matrix( 1, 0, 0, 1, 0,0) ">
<use filter="url(#Filter_4)" xlink:href="#chickens_ai_Layer_1__Path__42_0_Layer0_0_FILL"/>
</g>
</g>
</g>
</g>

<g id="actionFeedMe" transform="matrix( 1, 0, 0, 1, 374.7,507.15) ">
<g transform="matrix( 0.235107421875, 0, 0, 0.235107421875, -55.75,-353.8) ">
<g transform="matrix( 1, 0, 0, 1, 0,0) ">
<use xlink:href="#action_feed_me_0_Layer0_0_FILL"/>
</g>
</g>
</g>
</g>
</svg>
