
<svg xmlns="http://www.w3.org/2000/svg" version="1.1" xmlns:xlink="http://www.w3.org/1999/xlink" preserveAspectRatio="none" x="0px" y="0px" width="400px" height="50px" viewBox="0 0 400 50">
<defs>
<g id="hyperloopCaboose_0_Layer1_0_FILL">
<path fill="#EDECF2" stroke="none" d="
M 15.65 22.6
L 15.55 27.35 28.15 27.35 28.15 22.6 15.65 22.6
M 28.15 13.25
L 28.15 10.3 15.8 10.3 15.75 13.25 28.15 13.25
M -23.5 22.6
L -23.5 27.35 14.6 27.35 14.75 27.2 14.85 22.6 -23.5 22.6
M -23.5 10.3
L -23.5 13.25 15.05 13.25 14.95 10.3 -23.5 10.3 Z"/>

<path fill="#919090" stroke="none" d="
M 28.15 29.05
L 28.15 29 23.45 29 21.35 32 26.75 32 28.15 29.05
M -17.15 29
L -19.55 32 -13.45 32 -11.75 29 -17.15 29
M -6.45 31
L -5.35 29 -10.65 29 -11.75 31 -6.45 31
M -1.4 29
L -3.05 29 -4.9 32.4 4.85 32.4 6.35 29.6 8.6 29.6 9.4 28.2 -0.85 28 -1.4 29 Z"/>

<path fill="#5F5F5F" stroke="none" d="
M 13.75 36.6
L 13.55 36.45 11.5 40 11.85 40 13.75 36.6
M 12.9 35.85
L 13.2 36.1 13.2 36 12.95 35.75 12.9 35.85
M 14 3.5
L 13.85 2.95 11.9 1.45 10 0 9.5 0 13.6 3.35 15.4 10.05 15.25 27.45 10.15 33.4 12.7 35.7 12.75 35.6 11.95 34.9 10.45 33.5 10.75 33.1 15.55 27.55 15.55 27.35 15.65 22.6 15.75 13.25 15.8 10.3 15.75 10.3 14 3.5
M 13.4 3.65
Q 13.35 3.6 13.35 3.5
L 13.35 3.45 8.85 0 8.2 0 10.15 1.45 12.95 3.5 14.95 10.25 14.95 10.3 15.05 13.25 14.85 22.6 14.75 27.2 14.6 27.35 14.65 27.35 13.1 29.25 8.95 33.1 11 34.8 12.55 36.05 13.05 36.45 11 40 11.25 40 13.25 36.3 13.1 36.25 9.85 33.45 15.1 27.3 15.1 10.6
Q 15.1 10.45 15.1 10.25
L 15.1 10.2 13.4 3.65 Z"/>

<path fill="#E7FBF8" stroke="none" d="
M 12.75 35.6
L 12.95 35.75 13.2 36 17.9 36
Q 18.5 36 19.05 36
L 28.15 36 28.15 34.8 19.05 34.8
Q 18.5 34.85 17.9 34.85
L 11.95 34.9 12.75 35.6
M -23.5 34.8
L -23.5 36 7.75 36
Q 9.15 36 10.6 36.05
L 12.55 36.05 11 34.8 -23.5 34.8 Z"/>

<path fill="#666666" stroke="none" d="
M 13.2 36
L 13.2 36.1 13.55 36.45 13.75 36.6 11.85 40 28.15 40 28.15 36 19.05 36
Q 18.5 36 17.9 36
L 13.2 36
M -23.5 36
L -23.5 40 11 40 13.05 36.45 12.55 36.05 10.6 36.05
Q 9.15 36 7.75 36
L -23.5 36 Z"/>

<path fill="#CCD4D3" stroke="none" d="
M 10.75 33.1
L 10.45 33.5 11.95 34.9 17.9 34.85
Q 18.5 34.85 19.05 34.8
L 28.15 34.8 28.15 33.1 10.75 33.1
M -23.5 33.1
L -23.5 34.8 11 34.8 8.95 33.1 -23.5 33.1 Z"/>

<path fill="#9B9B9B" stroke="none" d="
M 15.55 27.35
L 15.55 27.55 10.75 33.1 28.15 33.1 28.15 29.05 26.75 32 21.35 32 23.45 29 28.15 29 28.15 27.35 15.55 27.35
M 28.15 3.5
L 28.15 1.45 13.5 1.45 12.65 1.45 11.9 1.45 13.85 2.95 14 3.5 28.15 3.5
M -23.5 27.35
L -23.5 33.1 8.95 33.1 13.1 29.25 14.65 27.35 14.6 27.35 -23.5 27.35
M -3.05 29
L -1.4 29 -0.85 28 9.4 28.2 8.6 29.6 6.35 29.6 4.85 32.4 -4.9 32.4 -3.05 29
M -5.35 29
L -6.45 31 -11.75 31 -10.65 29 -5.35 29
M -19.55 32
L -17.15 29 -11.75 29 -13.45 32 -19.55 32
M -23.5 1.45
L -23.5 3.5 12.95 3.5 10.15 1.45 -23.5 1.45 Z"/>

<path fill="#333333" stroke="none" d="
M 13.35 3.5
Q 13.35 3.6 13.4 3.65
L 15.1 10.2 15.1 10.25
Q 15.1 10.45 15.1 10.6
L 15.1 27.3 9.85 33.45 13.1 36.25 13.25 36.3 11.25 40 11.5 40 13.55 36.45 13.2 36.1 12.9 35.85 12.95 35.75 12.75 35.6 12.7 35.7 10.15 33.4 15.25 27.45 15.4 10.05 13.6 3.35 9.5 0 8.85 0 13.35 3.45 13.35 3.5 Z"/>

<path fill="#B3B3B3" stroke="none" d="
M 12.65 0
L 12.65 1.45 13.5 1.45 12.65 0 Z"/>

<path fill="#AEAEAE" stroke="none" d="
M 11.9 1.45
L 12.65 1.45 12.65 0 10 0 11.9 1.45
M 28.15 1.45
L 28.15 0 12.65 0 13.5 1.45 28.15 1.45
M -23.5 0
L -23.5 1.45 10.15 1.45 8.2 0 -23.5 0 Z"/>

<path fill="#EDFFFC" stroke="none" d="
M 28.15 22.6
L 28.15 13.25 15.75 13.25 15.65 22.6 28.15 22.6
M -23.5 13.25
L -23.5 22.6 14.85 22.6 15.05 13.25 -23.5 13.25
M 0.7 15.4
L 6.05 16.15 6.05 14.25 11.85 16.3 11.85 18.25 13.2 18.45 12.45 21.8 6.15 21.8 6.05 20.75 1.5 20.1 1.4 20.1 0.7 15.4 Z"/>

<path fill="#DBD9D9" stroke="none" d="
M 24 6.25
L 24.55 7.05 23.3 7.25 20.75 4.8 18.6 7.2 21.85 9.6 28.15 9.6 28.15 6.65 26.1 4.85 24 6.25
M 13.95 9.8
L 12.65 5.55 9.55 4.5 8.6 6.4 9.95 7.2 9.4 8.45 5.7 6.55 4.35 8.55 6.85 9.8 13.95 9.8
M -11.25 9.6
L -11.65 6.8 -14.15 4.85 -16.55 6.25 -15.9 7.05 -17.35 7.25 -20.2 4.8 -22.7 7.2 -19.05 9.6 -11.25 9.6 Z"/>

<path fill="#C6C6C6" stroke="none" d="
M 24.55 7.05
L 24 6.25 26.1 4.85 28.15 6.65 28.15 3.5 14 3.5 15.75 10.3 15.8 10.3 28.15 10.3 28.15 9.6 21.85 9.6 18.6 7.2 20.75 4.8 23.3 7.25 24.55 7.05
M -23.5 3.5
L -23.5 10.3 14.95 10.3 14.95 10.25 12.95 3.5 -23.5 3.5
M -11.65 6.8
L -11.25 9.6 -19.05 9.6 -22.7 7.2 -20.2 4.8 -17.35 7.25 -15.9 7.05 -16.55 6.25 -14.15 4.85 -11.65 6.8
M 12.65 5.55
L 13.95 9.8 6.85 9.8 4.35 8.55 5.7 6.55 9.4 8.45 9.95 7.2 8.6 6.4 9.55 4.5 12.65 5.55 Z"/>

<path fill="#404040" stroke="none" d="
M -23.5 40
L -23.5 40.4 7.85 40.5 7.85 40.45 28.2 40.45 28.2 40 28.15 40 11.85 40 11.5 40 11.25 40 11 40 -23.5 40 Z"/>

<path fill="#F4FCFB" stroke="none" d="
M 6.05 16.15
L 0.7 15.4 1.4 20.1 1.5 20.1 6.05 20.75 6.15 21.8 12.45 21.8 13.2 18.45 11.85 18.25 11.85 16.3 6.05 14.25 6.05 16.15 Z"/>
</g>

<g id="hyperloopCaboose_0_Layer0_0_FILL">
<path fill="#5E5E5E" stroke="none" d="
M -75.65 33.1
L -80.15 31.7 -87.6 32.6 -94.7 30.25 -95.25 30.25 -101.6 30.35 -102.95 30.4 -104.7 30.9 -113.55 32.1 -123.45 31.7 -128.4 30.05 -131.9 29.55 -134.2 28.5 -133.65 31.25 -126.35 34.7 -123.5 33.9 -116.7 36.5 -116.7 36.85 -103.8 37.5 -95.2 34.75 -95.15 34.1 -89.4 35.2 -75.65 33.1 Z"/>

<path fill="#444444" stroke="none" d="
M -73.8 36.25
L -73.8 36 -79.85 36 -80.35 35.7 -80.7 35.45 -81.45 34.95
Q -78.5 34 -75.65 33.1
L -89.4 35.2 -95.15 34.1 -95.2 34.75 -103.8 37.5 -116.7 36.85 -116.7 36.5 -123.5 33.9 -126.35 34.7 -133.65 31.25 -133.5 31.95 -133.6 32.25 -124.6 39.3 -122.8 39.75 -95.45 39.85
Q -95.15 39.7 -94.75 39.6
L -86.35 38.35 -85.05 39.4 -80.8 37.6 -77.65 38.25 -73.8 36.25
M -86.1 36.5
Q -85.85 36.4 -85.55 36.3 -85.45 36.25 -85.35 36.25
L -86.1 36.5 Z"/>

<path fill="#666666" stroke="none" d="
M -85.55 36.3
Q -85.85 36.4 -86.1 36.5
L -85.35 36.25
Q -85.45 36.25 -85.55 36.3
M -23.4 40
L -23.4 36 -73.8 36 -73.8 36.25 -77.65 38.25 -80.8 37.6 -85.05 39.4 -86.35 38.35 -94.75 39.6
Q -95.15 39.7 -95.45 39.85
L -81.65 39.85 -80.7 40 -23.4 40 Z"/>

<path fill="#E7FBF8" stroke="none" d="
M -23.4 36
L -23.4 34.75 -64.7 34.75 -80.35 35.7 -79.85 36 -73.8 36 -23.4 36 Z"/>

<path fill="#CCD4D3" stroke="none" d="
M -23.4 34.75
L -23.4 33.15 -58.45 33.15 -63.85 33.15 -80.7 35.45 -80.35 35.7 -64.7 34.75 -23.4 34.75 Z"/>

<path fill="#404040" stroke="none" d="
M -23.4 40.4
L -23.4 40 -80.7 40 -81.65 39.85 -95.45 39.85 -122.8 39.75 -120.2 40.4 -23.4 40.4 Z"/>

<path fill="#9B9B9B" stroke="none" d="
M -23.4 27.45
Q -28.2 27.7 -34.15 28.55 -45.8 30.05 -58.45 33.15
L -23.4 33.15 -23.4 27.45
M -23.4 3.45
L -23.4 1.55
Q -28.55 1.85 -35 2.75 -46.4 4.25 -58.7 7.2
L -58.75 7.2
Q -69.1 9.7 -80.1 13.25
L -80.15 13.3
Q -86.75 15.4 -93.6 17.9 -98.15 19.55 -102.8 21.4
L -105 22.05 -113.3 23.15 -121.3 23.65 -124.55 22.7
Q -128.35 23 -131.1 23.1 -131.15 23.1 -131.25 23.1
L -131.6 23.85 -128.15 24.35 -125.35 23.95 -120.2 25.5 -118.55 25.65 -104.7 23.9 -102.55 23.25
Q -99.3 22 -96.15 20.8 -91.85 19.2 -87.65 17.7 -83.75 16.35 -79.95 15.15 -79.8 15.1 -79.7 15.05 -79.2 14.9 -78.75 14.75 -78.7 14.75 -78.65 14.75 -77.1 14.2 -75.5 13.75 -74.5 13.45 -73.45 13.15 -72.2 12.75 -70.9 12.4 -67.45 11.35 -64.1 10.5 -61.3 9.75 -58.6 9.1 -58.4 9.05 -58.15 9 -54.55 8.1 -51 7.4 -50.2 7.25 -49.4 7.1 -47.7 6.7 -46 6.4 -40.35 5.35 -34.9 4.65 -34.8 4.6 -34.75 4.6 -28.45 3.7 -23.4 3.45 Z"/>

<path fill="#EDECF2" stroke="none" d="
M -34.3 23.8
Q -34.45 23.85 -34.6 23.85 -48.65 25.7 -64.1 29.8 -66.85 30.5 -69.55 31.3 -71.55 31.85 -73.55 32.5 -74.25 32.65 -74.9 32.9 -75.3 33 -75.65 33.1 -78.5 34 -81.45 34.95
L -80.7 35.45 -63.85 33.15 -58.45 33.15
Q -45.8 30.05 -34.15 28.55 -28.2 27.7 -23.4 27.45
L -23.4 22.7
Q -28.3 22.95 -34.3 23.8
M -33.85 11.5
Q -33.95 11.5 -34.05 11.55 -39.7 12.25 -45.65 13.4 -48.7 13.95 -51.9 14.65 -52.6 14.8 -53.3 15 -55.5 15.45 -57.75 16 -68.05 18.5 -79.05 22.05 -79.45 22.15 -79.8 22.3 -90.4 25.7 -101.6 30.35
L -95.25 30.25
Q -87.25 27.25 -79.6 24.8 -79.15 24.65 -78.8 24.55 -77.7 24.2 -76.55 23.85
L -76.5 23.85
Q -67.15 20.9 -58.25 18.75 -46.2 15.8 -35 14.35 -34.8 14.35 -34.55 14.3 -34.45 14.25 -34.35 14.25 -28.3 13.4 -23.4 13.15
L -23.4 10.4
Q -28.1 10.7 -33.85 11.5 Z"/>

<path fill="#ECFFFC" stroke="none" d="
M -34.55 14.3
Q -34.8 14.35 -35 14.35 -46.2 15.8 -58.25 18.75 -67.15 20.9 -76.5 23.85
L -76.55 23.85
Q -77.7 24.2 -78.8 24.55 -79.15 24.65 -79.6 24.8 -87.25 27.25 -95.25 30.25
L -94.7 30.25 -87.6 32.6 -80.15 31.7 -75.65 33.1
Q -75.3 33 -74.9 32.9 -74.25 32.65 -73.55 32.5 -71.55 31.85 -69.55 31.3 -66.85 30.5 -64.1 29.8 -48.65 25.7 -34.6 23.85 -34.45 23.85 -34.3 23.8 -28.3 22.95 -23.4 22.7
L -23.4 13.15
Q -28.3 13.4 -34.35 14.25 -34.45 14.25 -34.55 14.3
M -131 24.45
L -131.4 24.35 -131 24.5 -131 24.45 Z"/>

<path fill="#AEAEAE" stroke="none" d="
M -35 1
Q -35.05 1 -35.1 1 -61.9 4.55 -93.8 16.25 -98.3 17.85 -102.8 19.65
L -105 20.3 -114.3 21.55
Q -120.2 22.3 -124.55 22.7
L -121.3 23.65 -113.3 23.15 -105 22.05 -102.8 21.4
Q -98.15 19.55 -93.6 17.9 -86.75 15.4 -80.15 13.3
L -80.1 13.25
Q -69.1 9.7 -58.75 7.2
L -58.7 7.2
Q -46.4 4.25 -35 2.75 -28.55 1.85 -23.4 1.55
L -23.4 -0.2
Q -28.55 0.1 -35 1 Z"/>

<path fill="#C6C6C6" stroke="none" d="
M -23.4 10.4
L -23.4 3.45
Q -28.45 3.7 -34.75 4.6 -34.8 4.6 -34.9 4.65 -40.35 5.35 -46 6.4 -47.7 6.7 -49.4 7.1 -50.2 7.25 -51 7.4 -54.55 8.1 -58.15 9 -58.4 9.05 -58.6 9.1 -61.3 9.75 -64.1 10.5 -67.45 11.35 -70.9 12.4 -72.2 12.75 -73.45 13.15 -74.5 13.45 -75.5 13.75 -77.1 14.2 -78.65 14.75 -78.7 14.75 -78.75 14.75 -79.2 14.9 -79.7 15.05 -79.8 15.1 -79.95 15.15 -83.75 16.35 -87.65 17.7 -91.85 19.2 -96.15 20.8 -99.3 22 -102.55 23.25
L -104.7 23.9 -118.55 25.65 -120.2 25.5 -125.35 23.95 -128.15 24.35 -131.6 23.85 -134.2 28.5 -131.9 29.55 -128.4 30.05 -123.45 31.7 -113.55 32.1 -104.7 30.9 -102.95 30.4 -101.6 30.35
Q -90.4 25.7 -79.8 22.3 -79.45 22.15 -79.05 22.05 -68.05 18.5 -57.75 16 -55.5 15.45 -53.3 15 -52.6 14.8 -51.9 14.65 -48.7 13.95 -45.65 13.4 -39.7 12.25 -34.05 11.55 -33.95 11.5 -33.85 11.5 -28.1 10.7 -23.4 10.4
M -26.3 8
L -27.9 9.4 -31.3 9.05 -33.4 5.9 -31.35 5.6 -26.3 8
M -36.45 7
L -37.05 6.5 -34.9 6.15 -33.55 8.9 -38.25 9.45 -39.95 10.9 -44.95 10.55 -43.95 7.75 -43.85 7.75 -40.65 8.35 -36.45 7
M -48.3 12
L -50 9.3 -48.65 8.45 -47 11.4 -48.3 12
M -59.2 10.6
L -58.7 11.35 -58.25 11.1 -56.6 13.9 -60.85 15.25 -61.4 14.1 -63.75 14.65 -63 11.9 -59.2 10.6
M -56.85 9.85
L -55.15 9.35 -53.85 13.35 -55.25 14.15 -56.85 9.85
M -53.25 10.95
L -51.75 10.45 -50.9 12.45 -52.3 13.25 -53.25 10.95
M -75.65 14.6
L -71.05 13.4 -71.8 15.65 -74.4 16.45 -74.95 18.15 -76.65 18.55 -75.65 14.6
M -79.05 15.5
L -79.6 17.2 -82.8 18.3 -83.6 21.05 -87 22.2 -86.55 20.9 -88.45 21.65 -87.15 17.9 -79.05 15.5
M -69.65 17.15
L -68.4 12.45 -64.3 11.5 -65.8 15.95 -67.4 15.6 -67.45 15.7 -67.75 16.9 -69.65 17.15
M -89.45 20.3
L -90.85 24.05 -93.15 24.2 -94.35 25.65 -97.15 25.15 -96.4 22.3 -89.45 20.3
M -106.35 25.95
L -104.15 25.45 -106.1 29 -110.65 29.75 -111.8 29.15 -116.9 30 -118.3 29 -117.95 27.2 -113.35 26.75 -112.15 25.35 -106.35 25.95
M -103.05 27.25
L -102.05 25 -98.9 24.3 -100.45 27.1 -103.05 27.25
M -119.25 28.05
L -121.1 27.95 -122.05 29.15 -124 28.9 -124.5 29.6 -124.55 29.75 -127.1 27.65 -129.45 28.35 -132.45 26.3 -131.4 24.35 -131 24.45 -131 24.5 -127.45 25.4 -124.9 25 -124.15 25.95 -118.95 26.85 -119.25 28.05
M -130.2 28.4
L -130.9 28.8 -131.5 28.5 -131.8 28.75 -133.1 28.1
Q -133.2 28.05 -133.3 28.05
L -133.4 28 -132.8 26.85 -130.55 28.1 -130.25 28.15 -130.2 28.4 Z"/>

<path fill="#D5D5D5" stroke="none" d="
M -130.9 28.8
L -130.2 28.4 -130.25 28.15 -130.55 28.1 -132.8 26.85 -133.4 28 -133.3 28.05
Q -133.2 28.05 -133.1 28.1
L -131.8 28.75 -131.5 28.5 -130.9 28.8
M -121.1 27.95
L -119.25 28.05 -118.95 26.85 -124.15 25.95 -124.9 25 -127.45 25.4 -131 24.5 -131.4 24.35 -132.45 26.3 -129.45 28.35 -127.1 27.65 -124.55 29.75 -124.5 29.6 -124 28.9 -122.05 29.15 -121.1 27.95
M -102.05 25
L -103.05 27.25 -100.45 27.1 -98.9 24.3 -102.05 25
M -104.15 25.45
L -106.35 25.95 -112.15 25.35 -113.35 26.75 -117.95 27.2 -118.3 29 -116.9 30 -111.8 29.15 -110.65 29.75 -106.1 29 -104.15 25.45
M -90.85 24.05
L -89.45 20.3 -96.4 22.3 -97.15 25.15 -94.35 25.65 -93.15 24.2 -90.85 24.05
M -68.4 12.45
L -69.65 17.15 -67.75 16.9 -67.45 15.7 -67.4 15.6 -65.8 15.95 -64.3 11.5 -68.4 12.45
M -79.6 17.2
L -79.05 15.5 -87.15 17.9 -88.45 21.65 -86.55 20.9 -87 22.2 -83.6 21.05 -82.8 18.3 -79.6 17.2
M -71.05 13.4
L -75.65 14.6 -76.65 18.55 -74.95 18.15 -74.4 16.45 -71.8 15.65 -71.05 13.4
M -51.75 10.45
L -53.25 10.95 -52.3 13.25 -50.9 12.45 -51.75 10.45
M -55.15 9.35
L -56.85 9.85 -55.25 14.15 -53.85 13.35 -55.15 9.35
M -58.7 11.35
L -59.2 10.6 -63 11.9 -63.75 14.65 -61.4 14.1 -60.85 15.25 -56.6 13.9 -58.25 11.1 -58.7 11.35
M -50 9.3
L -48.3 12 -47 11.4 -48.65 8.45 -50 9.3
M -37.05 6.5
L -36.45 7 -40.65 8.35 -43.85 7.75 -43.95 7.75 -44.95 10.55 -39.95 10.9 -38.25 9.45 -33.55 8.9 -34.9 6.15 -37.05 6.5
M -27.9 9.4
L -26.3 8 -31.35 5.6 -33.4 5.9 -31.3 9.05 -27.9 9.4
M -5.7 5
L -7.3 5.1 -6.45 7.35 -4.95 6.45 -5.7 5
M -3.3 5.8
L -2.15 8.05 0.1 7.55 -0.7 5.3 -3.3 5.8 Z"/>
</g>

<g id="hyperloopCabin_0_Layer0_0_FILL">
<path fill="#5F5F5F" stroke="none" d="
M 66.5 3.3
L 66.6 3.5 69.8 10.05 69.5 27.45 60.35 33.35 64.95 35.65 65 35.6 63.4 34.8 62.15 34.15 61.4 33.8 60.9 33.5 60.8 33.5 60.85 33.45 64.55 31.05 65.85 30.2 69.95 27.5 70 27.5 70 27.35 70.15 22.6 70.4 13.25 70.45 10.3 70.4 10.3 67.2 3.5 67 2.95 63.45 1.45 60 0 59.15 0 66.5 3.3
M 65.25 35.8
L 65.75 36.05 65.8 36.1 65.8 36.05 65.85 36 65.35 35.75 65.25 35.8
M 66.8 36.6
L 66.45 36.4 62.75 40 63.4 40 66.8 36.6
M 66.1 3.5
L 66.1 3.45 66.1 3.4 58.05 0 56.75 0 60.3 1.45 65.35 3.5 68.9 10.2 68.95 10.3 68.9 10.3 69.1 13.25 69.15 13.9 68.75 22.6 68.65 27.2 68.35 27.35 68.4 27.35 65.6 29.25 58.2 33.1 61.9 34.8 64.15 35.85 65.45 36.4 61.9 40 62.25 40 65.9 36.25 65.65 36.25 59.75 33.4 69.25 27.3 69.3 10.55
Q 69.25 10.45234375 69.25 10.25
L 69.3 10.15 66.2 3.6
Q 66.12890625 3.5865234375 66.1 3.5 Z"/>

<path fill="#EDECF2" stroke="none" d="
M 90.9 13.25
L 90.9 10.3 70.45 10.3 70.4 13.25 90.9 13.25
M 68.35 27.35
L 68.65 27.2 68.75 22.6 0 22.6 0 27.35 68.35 27.35
M 69.1 13.25
L 68.9 10.3 0 10.3 0 13.25 69.1 13.25
M 90.9 27.35
L 90.9 22.6 70.15 22.6 70 27.35 90.9 27.35 Z"/>

<path fill="#C6C6C6" stroke="none" d="
M 90.9 10.3
L 90.9 3.5 67.2 3.5 70.4 10.3 70.45 10.3 90.9 10.3
M 86.85 4.9
L 88.4 4.9 89.25 5.75 87.3 5.75 86.85 4.9
M 87.4 9.5
L 82.25 9.5 80.25 7.5 85.4 7.5 87.4 9.5
M 79.4 9
L 72.35 9 70.35 6.05 72.5 6.25 71.35 4.75 76.15 4.75 79.4 9
M 68.9 10.3
L 68.95 10.3 68.9 10.2 65.35 3.5 0 3.5 0 10.3 68.9 10.3
M 64.8 5.55
L 67.15 9.8 54.35 9.8 49.9 8.55 52.3 6.55 58.95 8.4 60 7.2 57.6 6.4 59.35 4.5 64.8 5.55
M 21.25 6.8
L 21.9 9.6 8 9.6 1.4 7.2 5.85 4.8 11.05 7.25 13.55 7.05 12.45 6.25 16.75 4.8 21.25 6.8 Z"/>

<path fill="#DBD9D9" stroke="none" d="
M 72.35 9
L 79.4 9 76.15 4.75 71.35 4.75 72.5 6.25 70.35 6.05 72.35 9
M 82.25 9.5
L 87.4 9.5 85.4 7.5 80.25 7.5 82.25 9.5
M 88.4 4.9
L 86.85 4.9 87.3 5.75 89.25 5.75 88.4 4.9
M 21.9 9.6
L 21.25 6.8 16.75 4.8 12.45 6.25 13.55 7.05 11.05 7.25 5.85 4.8 1.4 7.2 8 9.6 21.9 9.6
M 67.15 9.8
L 64.8 5.55 59.35 4.5 57.6 6.4 60 7.2 58.95 8.4 52.3 6.55 49.9 8.55 54.35 9.8 67.15 9.8 Z"/>

<path fill="#5D5D5D" stroke="none" d="
M 64.65 31.1
L 64.9 31.05 64.55 31.05 60.85 33.45 60.8 33.5 60.9 33.5 61.4 33.8 61.5 33.8 60.95 33.5 61.45 33.15 64.65 31.1
M 81.5 33.7
L 81.9 33.8 90.9 33.8 90.9 31.05 64.9 31.05 64.9 31.05 81.5 33.7 Z"/>

<path fill="#333333" stroke="none" d="
M 66.1 3.45
L 66.1 3.5
Q 66.12890625 3.5865234375 66.2 3.6
L 69.3 10.15 69.25 10.25
Q 69.25 10.45234375 69.3 10.55
L 69.25 27.3 59.75 33.4 65.65 36.25 65.9 36.25 62.25 40 62.75 40 66.45 36.4 65.8 36.1 65.75 36.05 65.25 35.8 65.35 35.75 65 35.6 64.95 35.65 60.35 33.35 69.5 27.45 69.8 10.05 66.6 3.5 66.5 3.3 59.15 0 58.05 0 66.1 3.4 66.1 3.4 66.1 3.45
M 69.25 27.5
L 69.25 27.35 69.3 27.35 69.25 27.5 Z"/>

<path fill="#9B9B9B" stroke="none" d="
M 69.25 27.35
L 69.25 27.5 69.3 27.35 69.25 27.35
M 64.9 31.05
L 64.9 31.05 64.65 31.1 61.45 33.15 81.5 33.7 64.9 31.05
M 90.9 36
L 90.9 33.8 81.9 33.8 66.4 36 90.9 36
M 61.5 33.8
L 61.4 33.8 62.15 34.15 61.5 33.8
M 65.35 3.5
L 60.3 1.45 0 1.45 0 3.5 65.35 3.5
M 68.4 27.35
L 68.35 27.35 0 27.35 0 33.1 58.2 33.1 65.6 29.25 68.4 27.35
M 40.6 28
L 59 28.2 57.6 29.6 53.6 29.6 50.8 32.4 33.25 32.4 36.6 29 39.6 29 40.6 28
M 7.1 32
L 11.3 29 21 29 18 32 7.1 32
M 21 31
L 23 29 32.6 29 30.6 31 21 31
M 90.9 30.25
L 90.9 27.35 70 27.35 70 27.5 69.95 27.5 65.85 30.2 88.2 30.25 88.2 30.25 90.9 30.25 Z"/>

<path fill="#4E4E4E" stroke="none" d="
M 90.9 30.25
L 88.2 30.25 88.2 30.25 65.85 30.2 64.55 31.05 64.9 31.05 90.9 31.05 90.9 30.25 Z"/>

<path fill="#E7FBF8" stroke="none" d="
M 65 35.6
L 65.35 35.75 65.85 36 66.4 36 81.9 33.8 63.4 34.8 65 35.6
M 64 36
L 64.15 35.85 61.9 34.8 0 34.8 0 36 64 36 Z"/>

<path fill="#666666" stroke="none" d="
M 90.9 40
L 90.9 36 66.4 36 65.85 36 65.8 36.05 65.8 36.1 66.45 36.4 66.8 36.6 63.4 40 90.9 40
M 64.15 35.85
L 64 36 0 36 0 40 61.9 40 65.45 36.4 64.15 35.85 Z"/>

<path fill="#CCD4D3" stroke="none" d="
M 81.9 33.8
L 81.5 33.7 61.45 33.15 60.95 33.5 61.5 33.8 62.15 34.15 63.4 34.8 81.9 33.8
M 61.9 34.8
L 58.2 33.1 0 33.1 0 34.8 61.9 34.8 Z"/>

<path fill="#404040" stroke="none" d="
M 88.2 40.55
L 88.2 40.6 90.9 40.6 90.9 40 63.4 40 62.75 40 62.25 40 61.9 40 0 40 0 40.4 88.2 40.55 Z"/>

<path fill="#919090" stroke="none" d="
M 23 29
L 21 31 30.6 31 32.6 29 23 29
M 11.3 29
L 7.1 32 18 32 21 29 11.3 29
M 59 28.2
L 40.6 28 39.6 29 36.6 29 33.25 32.4 50.8 32.4 53.6 29.6 57.6 29.6 59 28.2 Z"/>

<path fill="#AEAEAE" stroke="none" d="
M 60.3 1.45
L 56.75 0 0 0 0 1.45 60.3 1.45
M 64.85 1.45
L 64.85 0 60 0 63.45 1.45 64.85 1.45
M 90.9 1.45
L 90.9 0 64.85 0 66.35 1.45 90.9 1.45 Z"/>

<path fill="#EDFFFC" stroke="none" d="
M 68.75 22.6
L 69.15 13.9 69.1 13.25 0 13.25 0 22.6 68.75 22.6
M 63.35 16.25
L 63.4 16.25 63.4 18.25 65.8 18.4 64.45 21.8 53.15 21.8 52.95 20.7 44.8 20.05 44.7 20.05 43.4 15.4 53 16.15 53 14.25 63.35 16.25
M 90.9 22.6
L 90.9 13.25 70.4 13.25 70.15 22.6 90.9 22.6 Z"/>

<path fill="#F4FCFB" stroke="none" d="
M 63.4 16.25
L 63.35 16.25 53 14.25 53 16.15 43.4 15.4 44.7 20.05 44.8 20.05 52.95 20.7 53.15 21.8 64.45 21.8 65.8 18.4 63.4 18.25 63.4 16.25 Z"/>

<path fill="#B3B3B3" stroke="none" d="
M 64.85 0
L 64.85 1.45 66.35 1.45 64.85 0 Z"/>

<path fill="#CDCDCD" stroke="none" d="
M 66.1 3.4
L 66.1 3.45 66.1 3.4 66.1 3.4
M 90.9 3.5
L 90.9 1.45 66.35 1.45 64.85 1.45 63.45 1.45 67 2.95 67.2 3.5 90.9 3.5 Z"/>
</g>

<g id="hyperloopEngine_0_Layer0_0_FILL">
<path fill="#5D5D5D" stroke="none" d="
M 136.6 49.25
L 135.65 49.25 134.5 49.25 47.85 49.25 46.7 49.25 44.6 49.25 39.3 48.45 32.4 46.05 20 43.2 11.8 40 14 41.4 14.25 41.55 20 43.8 20 43.85 32.4 46.65 39.3 49.05 44.6 49.85 134.5 49.85
Q 134.39375 49.846875 134.3 49.8
L 138.4 49.8 138.4 49.75
Q 138.22109375 49.432421875 137.95 49.2 137.7724609375 49.052734375 137.55 48.9 135.8751953125 47.4962890625 133 45.25 128.85 41.95 122.35 36.95 117.4 33.15 111.15 28.4 106.3 24.7 102.2 21.6 100.65 20.45 99.2 19.35 89.15 11.8 84.45 8.6 83.95 8.25 83.55 7.95 83.45 7.9 83.4 7.85 82.3 7.1 81.6 6.7 80.55 6.05 78.55 5.45 75.15 4.4 69.15 3.45 65.05 2.8 59.7 2.2 59.3029296875 2.14921875 58.9 2.1
L 58.85 2.2
Q 64.1908203125 2.845703125 68.3 3.5 74.3189453125 4.4583984375 77.7 5.5 79.6771484375 6.1107421875 80.75 6.75 81.4546875 7.1685546875 82.5 7.9 82.601953125 7.95 82.65 8 83.1123046875 8.28671875 83.6 8.6 88.312109375 11.8556640625 98.35 19.4 99.7916015625 20.480859375 101.35 21.65 105.441015625 24.7412109375 110.3 28.45 116.569140625 33.223828125 121.45 37 128.0130859375 42.0185546875 132.15 45.25 135.334765625 47.7859375 137.1 49.25
L 136.6 49.25
M 20 34.85
L 20 34.9
Q 23 35 26.05 35.15 27.6 35.1 29.15 35.1
L 31.25 32.15 20 31.85 20 31.8 5.35 31.15 4.2 34
Q 12.0791015625 34.3611328125 20 34.85
M 86.85 39
L 86.95 39
Q 101.1 40.2 111.75 41.55 115.5 42 118.85 42.5
L 102.3 36.2 83.7 33.5 32.4 32.15 30.35 35.15
Q 31 35.15 31.8 35.2 35.875 35.425 39.95 35.7
L 48.15 36.15
Q 53.9 36.5 59.7 36.9 65.25 37.25 70.45 37.65 75.3 38 79.95 38.4 80 38.4 80.1 38.4 83 38.65 85.8 38.9 86.35 38.95 86.85 39
M 3.5 33.95
L 4.65 31.15 0 30.9 0 33.8
Q 0.675390625 33.851953125 1.35 33.85 1.425 33.878515625 1.5 33.85 2.5009765625 33.929296875 3.5 33.95 Z"/>

<path fill="#AEAEAE" stroke="none" d="
M 58.85 2.2
Q 56.5177734375 1.9615234375 53.95 1.7 48.6544921875 1.148828125 43.55 0.7 38.5875 0.375 33.6 0.05 33.171484375 0.0228515625 32.75 0
L 30.5 0
Q 29.4 0 28.3 0
L 0 0 0 1.45 11.8 1.45 11.8 1.5
Q 15.8474609375 1.739453125 20 2 37.5 2.65 56.1 3.7
L 54.85 3.5 42.1 1.7 58.85 2.2 Z"/>

<path fill="#54ADC4" stroke="none" d="
M 130.2 44.4
Q 127.9 43.4 125.7 42.4
L 133.7 47.9 133.95 48.1 136.6 49.25 137.1 49.25
Q 135.334765625 47.7859375 132.15 45.25 131.173828125 44.8296875 130.2 44.4
M 135.65 49.25
L 136.6 49.25 134.5 48.45 135.65 49.25 Z"/>

<path fill="#82D6EB" stroke="none" d="
M 58.85 2.2
L 42.1 1.7 54.85 3.5 68.3 3.5
Q 64.1908203125 2.845703125 58.85 2.2
M 74.95 7.35
L 75.15 7.45
Q 78.887890625 7.6662109375 82.5 7.9 81.4546875 7.1685546875 80.75 6.75 79.6771484375 6.1107421875 77.7 5.5
L 69.35 5.5 68.65 5.5 74.95 7.35 Z"/>

<path fill="#C8F4FF" stroke="none" d="
M 66.7 5.15
L 69.35 5.5 77.7 5.5
Q 74.3189453125 4.4583984375 68.3 3.5
L 54.85 3.5 56.1 3.7 66.7 5.15
M 83.6 8.6
Q 83.1123046875 8.28671875 82.65 8
L 75.4 7.65 76.25 8.25 83.6 8.6 Z"/>

<path fill="#3AD8FF" stroke="none" d="
M 121.45 37
Q 116.569140625 33.223828125 110.3 28.45 105.441015625 24.7412109375 101.35 21.65
L 95.65 21.65 117.9 37 121.45 37 Z"/>

<path fill="#80E6FF" stroke="none" d="
M 92.4 19.4
L 98.35 19.4
Q 88.312109375 11.8556640625 83.6 8.6
L 76.25 8.25 92.4 19.4 Z"/>

<path fill="#A4EDFF" stroke="none" d="
M 92.4 19.4
L 95.65 21.65 101.35 21.65
Q 99.7916015625 20.480859375 98.35 19.4
L 92.4 19.4 Z"/>

<path fill="#76CDE3" stroke="none" d="
M 125.7 42.4
Q 127.9 43.4 130.2 44.4 131.173828125 44.8296875 132.15 45.25 128.0130859375 42.0185546875 121.45 37
L 117.9 37 125.7 42.4 Z"/>

<path fill="#D5D5D5" stroke="none" d="
M 135.65 49.25
L 134.5 48.45 118.85 42.5
Q 115.5 42 111.75 41.55 101.1 40.2 86.95 39
L 86.85 39
Q 86.35 38.95 85.8 38.9 83 38.65 80.1 38.4 80 38.4 79.95 38.4 75.3 38 70.45 37.65 65.25 37.25 59.7 36.9 53.9 36.5 48.15 36.15
L 39.95 35.7
Q 35.07421875 35.51796875 30.25 35.3
L 27.75 38.85
Q 29.75 38.95 31.8 39.1 45.7 39.85 59.7 40.8 65.25 41.15 70.45 41.55 75.3 41.9 79.95 42.3 80 42.3 80.1 42.3 83 42.55 85.8 42.8 100.65 44.05 111.75 45.45 118.25 46.25 123.55 47.1 129.95 48.15 134.5 49.25
L 135.65 49.25 Z"/>

<path fill="#C6C6C6" stroke="none" d="
M 132.5 47.45
Q 133.05 47.65 133.7 47.9
L 125.7 42.4 117.9 37 95.65 21.65 92.4 19.4 76.25 8.25 75.4 7.65 72.85 7.3
Q 71.4 7.2 69.95 7.1 62.0171875 6.626171875 54.25 6.2 45.080859375 5.7376953125 36.15 5.35 32.816796875 5.2001953125 29.5 5.05 24.72265625 4.8673828125 20 4.7
L 20 4.65
Q 16.0146484375 4.424609375 12.1 4.2 11.9625 4.2083984375 11.8 4.2
L 11.8 3.5 0 3.5 0 10.3 11.8 10.3 11.8 10.25
Q 15.64609375 10.921875 20 12.2
L 20 12.25
Q 25.7 13.25 32.05 14.65 51 18.8 74.7 26.5 79.4 28.05 84.35 29.7 84.55 29.75 84.8 29.85 84.9 29.85 84.95 29.9 85.75 30.15 86.5 30.45 86.6 30.45 86.65 30.5
L 86.75 30.5
Q 91.6 32.15 96.55 33.9
L 102.8 34.6 132.15 47.3
Q 132.3328125 47.383203125 132.5 47.45
M 62.5 8.25
L 62.55 8.35 65.3 14.9 58.2 14.55 56.6 8.45 62.5 8.25
M 88 28.75
L 85.8 25.15 90.55 24.15 92.15 28.3 88 28.75
M 97.15 27.25
L 98.9 30.25 96 30.45 95.25 27.45 97 27.3 97.15 27.25
M 6.3 5.45
L 7.9 6.05 4.1 6.5 2.35 5.65 6.3 5.45
M 30.1 11.4
L 20.9 7.8 27.05 6.15 33.65 7.85 30.1 11.4
M 69.9 16.8
L 68.35 14.15 75.85 12.8 81.15 22.4 74 23.95 72.3 21 64.8 21 61.8 17.1 69.9 16.8
M 54.4 7.65
L 56.05 18.8 43.25 14.45 44.4 10.8 40 10.3 42.5 6.85 54.4 7.65
M 14.05 5.65
L 14.25 5.55 17.8 7.25 14.8 8.05 11.55 6.55 14.05 5.65 Z"/>

<path fill="#D4D4D4" stroke="none" d="
M 14.25 5.55
L 14.05 5.65 11.55 6.55 14.8 8.05 17.8 7.25 14.25 5.55
M 56.05 18.8
L 54.4 7.65 42.5 6.85 40 10.3 44.4 10.8 43.25 14.45 56.05 18.8
M 68.35 14.15
L 69.9 16.8 61.8 17.1 64.8 21 72.3 21 74 23.95 81.15 22.4 75.85 12.8 68.35 14.15 Z"/>

<path fill="#DBD9D9" stroke="none" d="
M 20.9 7.8
L 30.1 11.4 33.65 7.85 27.05 6.15 20.9 7.8
M 7.9 6.05
L 6.3 5.45 2.35 5.65 4.1 6.5 7.9 6.05
M 98.9 30.25
L 97.15 27.25 97 27.3 95.25 27.45 96 30.45 98.9 30.25
M 85.8 25.15
L 88 28.75 92.15 28.3 90.55 24.15 85.8 25.15
M 62.55 8.35
L 62.5 8.25 56.6 8.45 58.2 14.55 65.3 14.9 62.55 8.35 Z"/>

<path fill="#EDECF2" stroke="none" d="
M 132.15 47.3
L 133.95 48.1 133.7 47.9
Q 133.05 47.65 132.5 47.45 132.3328125 47.383203125 132.15 47.3
M 84.8 29.85
Q 84.55 29.75 84.35 29.7 79.4 28.05 74.7 26.5 51 18.8 32.05 14.65 25.7 13.25 20 12.25
L 20 12.2
Q 15.64609375 10.921875 11.8 10.25
L 11.8 10.3 0 10.3 0 13.25 11.8 13.25 11.8 13.25
Q 15.6494140625 13.9763671875 20 15.3 28.2 16.75 37.5 19 53.4 22.85 72.4 28.95 73 29.15 73.7 29.35 74.95 29.75 76.35 30.2 79.5 31.25 82.85 32.35
L 96.55 33.9
Q 91.6 32.15 86.75 30.5
L 86.65 30.5
Q 86.6 30.45 86.5 30.45 85.75 30.15 84.95 29.9 84.9 29.85 84.8 29.85
M 59.1 31.9
Q 50.75 30.05 43.15 28.55 30.65 26.1 20 24.65 15.635546875 23.6318359375 11.8 23.1
L 11.8 22.6 0 22.6 0 27.35 11.8 27.35 11.8 27.4
Q 12.56640625 27.5099609375 13.35 27.65 16.5083984375 28.1630859375 20 28.95
L 20 29
Q 26.25 29.85 33.15 31.05 34.7 31.3 36.2 31.6
L 59.1 31.9 Z"/>

<path fill="#4E4E4E" stroke="none" d="
M 133.95 48.1
L 132.15 47.3 102.8 34.6 96.55 33.9 82.85 32.35 80.95 32.15 59.1 31.9 36.2 31.6 20 31.15 20 31.1 5.65 30.4 5.55 30.65
Q 5.2 30.6 4.85 30.6
L 4.95 30.4 0 30.15 -0.15 30.15 -0.15 30.9 0 30.9 4.65 31.15 4.8 30.75
Q 5.15 30.8 5.5 30.8
L 5.35 31.15 20 31.8 20 31.85 31.25 32.15 32.4 32.15 83.7 33.5 102.3 36.2 118.85 42.5 134.5 48.45 136.6 49.25 133.95 48.1 Z"/>

<path fill="#CDCDCD" stroke="none" d="
M 72.85 7.3
Q 73.95 7.35 75.05 7.45
L 74.95 7.35 68.65 5.5 66.7 5.15 56.1 3.7
Q 37.5 2.65 20 2 15.8474609375 1.739453125 11.8 1.5
L 11.8 1.45 0 1.45 0 3.5 11.8 3.5 11.8 4.2
Q 11.9625 4.2083984375 12.1 4.2 16.0146484375 4.424609375 20 4.65
L 20 4.7
Q 24.72265625 4.8673828125 29.5 5.05 32.816796875 5.2001953125 36.15 5.35 45.080859375 5.7376953125 54.25 6.2 62.0171875 6.626171875 69.95 7.1 71.4 7.2 72.85 7.3 Z"/>

<path fill="#B5B5B5" stroke="none" d="
M 11.8 36
L 11.8 36.1 17 36.4 20 37.45 20 37.5 26.05 38.8
Q 26.3 38.8 26.55 38.8
L 29.05 35.25
Q 29.65 35.3 30.25 35.3 35.07421875 35.51796875 39.95 35.7 35.875 35.425 31.8 35.2 31 35.15 30.35 35.15 29.75 35.1 29.15 35.1 27.6 35.1 26.05 35.15 23 35 20 34.9
L 20 34.85
Q 12.0791015625 34.3611328125 4.2 34
L 3.8 35
Q 3.85 35 3.95 35
L 5.5 36 11.8 36 Z"/>

<path fill="#9B9B9B" stroke="none" d="
M 20 29
L 20 28.95
Q 16.5083984375 28.1630859375 13.35 27.65 12.56640625 27.5099609375 11.8 27.4
L 11.8 27.35 0 27.35 0 30.15 4.95 30.4 4.85 30.6
Q 5.2 30.6 5.55 30.65
L 5.65 30.4 20 31.1 20 31.15 36.2 31.6
Q 34.7 31.3 33.15 31.05 26.25 29.85 20 29
M 1.5 33.85
Q 1.425 33.878515625 1.35 33.85 0.675390625 33.851953125 0 33.8
L 0 36 4 36 2.95 35.35 3.5 33.95
Q 2.5009765625 33.929296875 1.5 33.85 Z"/>

<path fill="#D7D7D7" stroke="none" d="
M 44.6 49.25
L 46.7 49.25 44.15 46.55 44.25 46.45 25.9 39.85 26.55 38.8
Q 26.3 38.8 26.05 38.8
L 20 37.5 20 37.45 17 36.4 11.8 36.1 11.8 36 5.5 36 11.8 40 20 43.2 32.4 46.05 39.3 48.45 44.6 49.25 Z"/>

<path fill="#ECFFFC" stroke="none" d="
M 43.15 28.55
Q 50.75 30.05 59.1 31.9
L 80.95 32.15 82.85 32.35
Q 79.5 31.25 76.35 30.2 74.95 29.75 73.7 29.35 73 29.15 72.4 28.95 53.4 22.85 37.5 19 28.2 16.75 20 15.3 15.6494140625 13.9763671875 11.8 13.25
L 11.8 22.6 11.8 23.1
Q 15.635546875 23.6318359375 20 24.65 30.65 26.1 43.15 28.55 Z"/>

<path fill="#666666" stroke="none" d="
M 27.6 39.5
L 27.35 39.4 27.35 39.5
Q 27.4 39.5 27.6 39.5
M 4 36
L 0 36 0 40 10.5 40 4 36 Z"/>

<path fill="#323232" stroke="none" d="
M 32.4 32.15
L 31.25 32.15 29.15 35.1
Q 29.75 35.1 30.35 35.15
L 32.4 32.15 Z"/>

<path fill="#8A8A8A" stroke="none" d="
M 46.7 49.25
L 47.85 49.25 45.7 46.4 45.8 46.3 27.6 39.5
Q 27.4 39.5 27.35 39.5
L 27.35 39.4 27.75 38.85 30.25 35.3
Q 29.65 35.3 29.05 35.25
L 26.55 38.8 25.9 39.85 44.25 46.45 44.15 46.55 46.7 49.25 Z"/>

<path fill="#EDEDED" stroke="none" d="
M 134.5 49.25
Q 129.95 48.15 123.55 47.1 118.25 46.25 111.75 45.45 100.65 44.05 85.8 42.8 83 42.55 80.1 42.3 80 42.3 79.95 42.3 75.3 41.9 70.45 41.55 65.25 41.15 59.7 40.8 45.7 39.85 31.8 39.1 29.75 38.95 27.75 38.85
L 27.35 39.4 27.6 39.5 45.8 46.3 45.7 46.4 47.85 49.25 134.5 49.25 Z"/>

<path fill="#6D6D6D" stroke="none" d="
M 4.65 31.15
L 3.5 33.95 2.95 35.35 4 36 10.5 40 11.5 40.6 12 40.9 14 41.4 11.8 40 5.5 36 3.95 35
Q 3.85 35 3.8 35
L 4.2 34 5.35 31.15 5.5 30.8
Q 5.15 30.8 4.8 30.75
L 4.65 31.15 Z"/>

<path fill="#EDFFFC" stroke="none" d="
M 0 13.25
L 0 22.6 11.8 22.6 11.8 13.25 11.8 13.25 0 13.25 Z"/>

<path fill="#404040" stroke="none" d="
M 0 40
L 0 40.6 11.5 40.6 10.5 40 0 40 Z"/>
</g>
</defs>

<g id="hyperloopCaboose" transform="matrix( 1, 0, 0, 1, 135.55,0) ">
<g transform="matrix( 1, 0, 0, 1, 0,0) ">
<use xlink:href="#hyperloopCaboose_0_Layer1_0_FILL"/>
</g>

<g transform="matrix( 1, 0, 0, 1, 0,0) ">
<use xlink:href="#hyperloopCaboose_0_Layer0_0_FILL"/>
</g>
</g>

<g id="hyperloopCabin" transform="matrix( 1, 0, 0, 1, 163.55,0) ">
<g transform="matrix( 1, 0, 0, 1, 0,0) ">
<use xlink:href="#hyperloopCabin_0_Layer0_0_FILL"/>
</g>
</g>

<g id="hyperloopEngine" transform="matrix( 1, 0, 0, 1, 254.05,0) ">
<g transform="matrix( 1, 0, 0, 1, 0,0) ">
<use xlink:href="#hyperloopEngine_0_Layer0_0_FILL"/>
</g>
</g>
</svg>
