
<svg xmlns="http://www.w3.org/2000/svg" version="1.1" xmlns:xlink="http://www.w3.org/1999/xlink" preserveAspectRatio="none" x="0px" y="0px" width="400px" height="400px" viewBox="0 0 400 400">
<defs>
<filter id="Filter_1" x="-20%" y="-20%" width="140%" height="140%" color-interpolation-filters="sRGB">
<feColorMatrix in="SourceGraphic" type="matrix" values="1 0 0 0 0 0 1 0 0 0 0 0 1 0 0 0 0 0 0 0" result="result1"/>
</filter>

<g id="Layer0_0_FILL">
<path fill="#008A00" stroke="none" d="
M -91.75 42.5
Q -92.85 42.8 -93.3 43 -94.2 43.5 -95 44.75 -94.55 45.2 -93.7 45.65
L -93 46
Q -91.45 45.4 -91 44
L -91.75 42.5 Z"/>
</g>

<g id="ring_0_Layer0_0_FILL">
<path fill="#D8E5B2" stroke="none" d="
M 155.8 26.75
Q 129.1 0 91.25 0 53.45 0 26.7 26.75 0 53.45 0 91.3 0 129.1 26.7 155.85 53.45 182.55 91.25 182.55 129.1 182.55 155.8 155.85 182.55 129.1 182.55 91.3 182.55 53.45 155.8 26.75 Z"/>
</g>

<g id="iconHolder_0_Layer0_0_FILL">
<path fill="#D8E5B2" stroke="none" d="
M 69 34.5
Q 69 20.2 58.9 10.1 48.8 0 34.5 0 20.2 0 10.1 10.1 0 20.2 0 34.5 0 48.8 10.1 58.9 20.2 69 34.5 69 48.8 69 58.9 58.9 69 48.8 69 34.5 Z"/>
</g>

<g id="iconAxe_0_Layer0_0_FILL">
<path fill="#666666" stroke="none" d="
M 3.8 37.5
Q 3.2 35.5 2.45 33.55 -0.75 25.2 -4.4 25.2 -4.75 25.2 -4.85 25 -4.9 24.75 -5.3 24.75 -5.65 24.75 -5.85 24.55 -6 24.35 -6.4 24.35 -6.55 24.35 -7.8 23.65 -9.25 22.9 -9.8 22.7
L -9.85 22.25
Q -16.55 23.3 -21.05 23.3 -21.4 23.3 -25.25 23 -29.5 22.7 -32.35 22.7 -32.9 28.4 -32.9 28.65 -32.9 29.1 -33.4 33.5 -33.95 37.85 -33.95 39.95 -33.95 40.5 -34.55 49.95 -35.15 59.4 -35.15 61.8 -35.15 62.25 -36.65 72.65 -36.65 73.4 -36.05 75.65
L -36.35 76.95
Q -30.15 82 -28.6 83.2 -26.1 85.15 -25.4 85.4
L -24.55 85.3 -24.5 85.8
Q -23.4 85.65 -21.7 85.7 -20.05 85.8 -19.7 85.8 -19.15 85.8 -18.35 85.8 -17.6 85.75 -16.6 85.7 -15.1 85.6 -14.2 85.4 -13.65 85.3 -13.35 85.15
L -13.45 83.75
Q -13.4 83.75 -13.35 83.75 -13.2 83.7 -13.15 83.7 -7.55 83.7 -1.3 73.35 5.5 62.1 5.5 49.2 5.5 43.35 3.8 37.5 Z"/>

<path fill="#999999" stroke="none" d="
M 43.95 48.6
Q 43.95 46.3 41.55 43.55 39.55 41.25 39.1 41.25 35.35 42.65 34 42.65 31.9 42.35 29.65 41.75 25.15 40.5 24.55 38.85 21.65 39.75 21.1 39.75 21 39.75 19.85 36.25 18.65 32.7 17.95 32.7 8.5 35.3 4.6 37.25
L 3.8 37.5
Q 5.5 43.35 5.5 49.2 5.5 62.1 -1.3 73.35 -7.55 83.7 -13.15 83.7 -13.2 83.7 -13.35 83.75 -13.4 83.75 -13.45 83.75
L -13.35 85.15
Q -13.3 85.15 -13.25 85.15 17.5 87.8 30.55 94.1 35.2 96.35 38.95 99.75 40.95 101.55 44.6 105.05 50.05 100.3 55.9 88.9 56 88.7 56.1 88.5 56.15 88.45 56.15 88.4 64.05 72.7 64.05 57.3 64.05 56.35 64 55.2 63.95 55.05 63.95 54.95
L 54.6 55.5
Q 54.6 55.95 50.35 56.25 47.2 56.45 44.8 56.8
L 43.05 57.15
Q 43 56.9 42.95 56.8
L 42.85 56.75
Q 42.85 55.95 43.4 52.75 43.95 49.6 43.95 48.6 Z"/>

<path fill="#CCCCCC" stroke="none" d="
M 53.5 4.95
Q 53.35 5.05 51.85 5.35 50.7 5.6 50.7 5.85 37.85 10.25 22.5 14.6 2.55 20.25 -9.85 22.25
L -7.8 23.65
Q -6.55 24.35 -6.4 24.35 -6 24.35 -5.85 24.55 -5.65 24.75 -5.3 24.75 -4.9 24.75 -4.85 25 -4.75 25.2 -4.4 25.2 -0.75 25.2 2.45 33.55 3.2 35.5 3.8 37.5
L 4.6 37.25
Q 8.5 35.3 17.95 32.7 18.65 32.7 19.85 36.25 21 39.75 21.1 39.75 21.65 39.75 24.55 38.85 25.15 40.5 29.65 41.75 31.9 42.35 34 42.65 35.35 42.65 39.1 41.25 39.55 41.25 41.55 43.55 43.95 46.3 43.95 48.6 43.95 49.6 43.4 52.75 42.85 55.95 42.85 56.75
L 42.95 56.8
Q 43 56.9 43.05 57.15
L 44.8 56.8
Q 47.2 56.45 50.35 56.25 54.6 55.95 54.6 55.5
L 63.95 54.75
Q 63.1 41.45 54.1 5.25
L 53.5 4.95 Z"/>
</g>

<g id="actionCheck_0_Layer0_0_FILL">
<path fill="#000000" fill-opacity="0.9686274509803922" stroke="none" d="
M 43.05 7.45
Q 43.45 7 43.5 6.4 43.45 5.75 43.05 5.35
L 38.15 0.45 38.2 0.45
Q 37.75 0 37.1 0 36.5 0 36.1 0.45
L 11.6 24.95 6.75 20.1
Q 6.3 19.65 5.7 19.65 5.1 19.65 4.65 20.1
L 4.7 20.1 0.45 24.35 0.45 24.3
Q 0 24.75 0 25.4 0 25.95 0.45 26.4
L 11.2 37.15
Q 11.6 37.6 12.25 37.6 12.85 37.6 13.3 37.15
L 13.25 37.15 43.05 7.45 Z"/>
</g>

<g id="actionDrag_mc_0_Layer0_0_FILL">
<path fill="#000000" fill-opacity="0.9686274509803922" stroke="none" d="
M 40.5 18.3
L 40.5 23 27 23 27 10.1 31.2 10.1
Q 31.6 10.1 31.9 9.75 32.2 9.5 32.2 9.05 32.2 8.6 31.9 8.3
L 25.5 1.85
Q 25.2 1.6 24.75 1.6 24.3 1.6 24.05 1.85
L 17.6 8.3
Q 17.3 8.6 17.3 9.05 17.3 9.5 17.6 9.75 17.85 10.1 18.3 10.1
L 23 10.1 23 23 10.25 23 10.25 18.3
Q 10.25 17.85 9.9 17.6 9.65 17.3 9.2 17.3 8.75 17.3 8.45 17.6
L 2 24.05
Q 1.75 24.3 1.75 24.75 1.75 25.2 2 25.5
L 8.45 31.9
Q 8.75 32.2 9.2 32.2 9.65 32.2 9.9 31.9 10.25 31.6 10.25 31.2
L 10.25 27 23 27 23 40.35 18.3 40.35
Q 17.85 40.35 17.6 40.7 17.3 40.95 17.3 41.4 17.3 41.85 17.6 42.15
L 24.05 48.6
Q 24.3 48.85 24.75 48.85 25.2 48.85 25.5 48.6
L 31.9 42.15
Q 32.2 41.85 32.2 41.4 32.2 40.95 31.9 40.7 31.6 40.35 31.2 40.35
L 27 40.35 27 27 40.5 27 40.5 31.2
Q 40.5 31.6 40.85 31.9 41.1 32.2 41.55 32.2 42 32.2 42.3 31.9
L 48.75 25.5
Q 49 25.2 49 24.75 49 24.3 48.75 24.05
L 42.3 17.6
Q 42 17.3 41.55 17.3 41.1 17.3 40.85 17.6 40.5 17.85 40.5 18.3 Z"/>
</g>

<g id="iconEye_0_Layer0_0_FILL">
<path fill="#FFFFFF" stroke="none" d="
M 38.9 4.7
Q 32.25 0 22.8 0 13.35 0 6.65 4.7 0 9.45 0 16.15 0 22.85 6.65 27.6 9.45 29.6 12.75 30.75 17.3 32.35 22.8 32.35 32.25 32.35 38.9 27.6 45.6 22.85 45.6 16.15 45.6 9.45 38.9 4.7
M 28.4 10
L 28.35 9.95
Q 32.2626953125 13.5541015625 32.25 18.65 32.266796875 23.960546875 28.05 27.7 23.9833984375 31.3423828125 18.25 31.35 15.38203125 31.3521484375 12.9 30.45
L 12.85 30.45
Q 10.415625 29.5646484375 8.35 27.7 4.0775390625 23.96171875 4.1 18.65 4.0869140625 13.3337890625 8.35 9.6
L 8.35 9.6
Q 12.411328125 5.95625 18.25 5.95 23.984375 5.9525390625 28.05 9.6 28.0748046875 9.664453125 28.1 9.7 28.25 9.85 28.4 10 Z"/>

<path fill="#333333" fill-opacity="0.9686274509803922" stroke="none" d="
M 28.35 9.95
L 28.4 10
Q 28.25 9.85 28.1 9.7 28.0748046875 9.664453125 28.05 9.6 23.984375 5.9525390625 18.25 5.95 12.411328125 5.95625 8.35 9.6
L 8.35 9.6
Q 4.0869140625 13.3337890625 4.1 18.65 4.0775390625 23.96171875 8.35 27.7 10.415625 29.5646484375 12.85 30.45
L 12.9 30.45
Q 15.38203125 31.3521484375 18.25 31.35 23.9833984375 31.3423828125 28.05 27.7 32.266796875 23.960546875 32.25 18.65 32.2626953125 13.5541015625 28.35 9.95
M 26.05 11.85
L 26 11.8
Q 26.15 11.95 26.3 12.1 26.3142578125 12.1240234375 26.3 12.15 29.2375 14.8458984375 29.25 18.65 29.233203125 22.639453125 26.05 25.45 22.81640625 28.3576171875 18.25 28.35 15.9177734375 28.3478515625 13.9 27.6
L 13.9 27.65
Q 11.9841796875 26.9353515625 10.35 25.45 7.1224609375 22.6380859375 7.1 18.65 7.112890625 14.6662109375 10.3 11.85
L 10.35 11.85
Q 13.5884765625 8.9435546875 18.25 8.95 22.8154296875 8.947265625 26.05 11.85 Z"/>

<path fill="#666666" fill-opacity="0.9686274509803922" stroke="none" d="
M 26 11.8
L 26.05 11.85
Q 22.8154296875 8.947265625 18.25 8.95 13.5884765625 8.9435546875 10.35 11.85
L 10.3 11.85
Q 7.112890625 14.6662109375 7.1 18.65 7.1224609375 22.6380859375 10.35 25.45 11.9841796875 26.9353515625 13.9 27.65
L 13.9 27.6
Q 15.9177734375 28.3478515625 18.25 28.35 22.81640625 28.3576171875 26.05 25.45 29.233203125 22.639453125 29.25 18.65 29.2375 14.8458984375 26.3 12.15 26.3142578125 12.1240234375 26.3 12.1 26.15 11.95 26 11.8
M 25.1 16.15
Q 25.1 17.4 24.2 18.25 23.35 19.15 22.1 19.15 20.85 19.15 19.95 18.25 19.1 17.4 19.1 16.15 19.1 14.9 19.95 14 20.85 13.15 22.1 13.15 23.35 13.15 24.2 14 25.1 14.9 25.1 16.15
M 24.2 20.75
Q 24.75 21.3 24.75 22 24.75 22.75 24.2 23.25 23.7 23.75 23 23.75 22.25 23.75 21.75 23.25 21.25 22.75 21.25 22 21.25 21.3 21.75 20.75 22.25 20.25 23 20.25 23.7 20.25 24.2 20.75 Z"/>

<path fill="#999999" fill-opacity="0.9686274509803922" stroke="none" d="
M 24.75 22
Q 24.75 21.3 24.2 20.75 23.7 20.25 23 20.25 22.25 20.25 21.75 20.75 21.25 21.3 21.25 22 21.25 22.75 21.75 23.25 22.25 23.75 23 23.75 23.7 23.75 24.2 23.25 24.75 22.75 24.75 22
M 24.2 18.25
Q 25.1 17.4 25.1 16.15 25.1 14.9 24.2 14 23.35 13.15 22.1 13.15 20.85 13.15 19.95 14 19.1 14.9 19.1 16.15 19.1 17.4 19.95 18.25 20.85 19.15 22.1 19.15 23.35 19.15 24.2 18.25 Z"/>
</g>

<g id="tree_0_Layer4_0_FILL">
<path fill="#000000" fill-opacity="0.00392156862745098" stroke="none" d="
M 105.65 50.75
L 105.65 50.7
Q 99.528125 44.5888671875 91 44.6 82.3091796875 44.6033203125 76.25 50.75
L 76.25 50.7
Q 72.4880859375 54.5171875 71.05 59.25 63.6220703125 59.8671875 58.25 65.3
L 58.2 65.35
Q 52.1578125 71.3779296875 52.15 80.05 52.1509765625 83.6986328125 53.25 86.95 47.5513671875 92.8677734375 47.55 101.2 47.557421875 107.499609375 50.95 112.6 50.4568359375 114.720703125 50.45 117.05 50.4498046875 124.123046875 54.65 129.55 53.85625 131.351171875 53.85 133.5 53.84609375 137.5353515625 56.65 140.35
L 56.65 140.35
Q 59.56015625 143.2994140625 63.7 143.3 63.933203125 143.301171875 64.15 143.3 65.4853515625 145.5791015625 67.5 147.6 73.6716796875 153.7609375 82.2 153.75 82.4265625 153.75 82.6 153.75 83.62109375 154.023828125 84.65 154.25 85.08046875 154.7087890625 85.6 155.1 89.464453125 159.0560546875 94.95 159.05 100.4884765625 159.0560546875 104.35 155.05
L 104.35 155.05
Q 104.898046875 154.54609375 105.35 154 108.0267578125 154.700390625 111.05 154.7 119.5640625 154.701953125 125.7 148.65
L 125.7 148.65
Q 126.2166015625 148.183203125 126.65 147.7 127.2466796875 147.7482421875 127.9 147.75 131.619140625 147.743359375 134.25 145.15
L 134.25 145.15 134.3 145.1
Q 135.2255859375 144.1548828125 135.8 143.05 143.4021484375 142.4728515625 148.85 137.05
L 148.85 137.05
Q 155.00703125 130.93203125 155 122.3 154.983203125 115.92890625 151.65 110.95 152.0998046875 108.8189453125 152.1 106.5 152.096484375 97.8091796875 145.95 91.75
L 145.95 91.75
Q 144.77265625 90.5806640625 143.45 89.6 143.4591796875 89.4083984375 143.4 89.15
L 143.4 89.3 143.35 88.9
Q 141.26875 78.0955078125 132.95 69.7 123.6369140625 60.2017578125 110.75 58.85 109.2634765625 54.3912109375 105.65 50.75 Z"/>
</g>

<g id="mc_border_0_Layer0_0_FILL">
<path fill="#000000" fill-opacity="0.00392156862745098" stroke="none" d="
M -8.7 178.4
L -1.65 178.4 -1.35 178.7 26.6 178.7 26.95 178.4 52.3 178.4 52.3 178.35 59.4 178.35 72.45 191.4 85.5 178.35 103.35 178.35 103.35 178.4 154.65 178.4
Q 162.208984375 178.4 162.2 170.9
L 162.2 1.95
Q 162.208984375 -5.55 154.65 -5.55
L -8.7 -5.55
Q -16.2 -5.55 -16.2 1.95
L -16.2 170.9
Q -16.2 178.4 -8.7 178.4 Z"/>
</g>

<g id="mc_trunk_0_Layer2_0_FILL">
<path fill="#333333" fill-opacity="0.4470588235294118" stroke="none" d="
M 44.4 38.95
L 44.4 38.9
Q 42.45 38.45 31.75 37.75 21.6 37.05 17.4 37 9.4 36.85 5.55 36.3 5.2599609375 36.2318359375 5 36.15 4.9224609375 36.7 4.2 36.7 2.4685546875 36.5787109375 1.05 36.45 0.908203125 36.6673828125 0.5 36.95
L -0.3 36.95
Q -0.584375 37.3458984375 -2 37.3 -2.4212890625 37.42421875 -3.55 37.65
L -9.3 37.65
Q -9.7099609375 37.5869140625 -12.7 37.3 -12.5859375 37.58203125 -12.35 37.7 -11.25 38.35 -6.85 38.95 -6.25 39 -2.3 39.85 0.95 40.55 3.1 40.55 11.090234375 40.3123046875 17.45 40.2 21.8373046875 40.15 25.45 40.15 29.05 40.15 44.4 38.95 Z"/>
</g>

<g id="mc_trunk_0_Layer1_0_FILL">
<path fill="#663300" stroke="none" d="
M 16.2 30.9
Q 16.3443359375 32.965625 16.75 35.4 16.991796875 36.7126953125 17.2 38 17.21328125 37.82265625 17.25 37.65 17.3 37.144921875 17.3 36.55 17.3 36.4470703125 16.2 30.9
M 16.05 -0.25
L 9.5 -0.2
Q 9.489453125 0.1171875 9.45 0.4 9.365234375 3.578125 9.25 6 9.5359375 6.2849609375 9.65 6.45 9.65 7 9.9 8.05 10.15 9.05 10.15 9.45 10.15 9.7 10 13.25
L 8.85 13.25
Q 5.25 13.3 3.85 10.3 3.5 9.6 1.75 6.95 0.262890625 4.7689453125 -0.25 3.15 -0.7125 3.234765625 -1.3 3.3
L -1.45 3.55
Q -0.35 7.25 2 13.1 3.15 15.95 3.15 19.15 3.15 20.93203125 2.6 24.85 2.65 25.2431640625 2.65 25.95 2.5669921875 29.35703125 2.1 30.85
L 2.1 32.6
Q 1.4412109375 34.4822265625 0.55 35.4 0.3978515625 35.8443359375 -0.45 36.45 -1 36.85 -2 37.5 -2.2 37.65 -2.6 38.65 -2.617578125 38.6939453125 -2.65 38.7
L 8.65 39.15 8.65 37.95
Q 9.2 37.8 10.55 37.8 11.4 37.8 11.4 37.4
L 10.15 34.95
Q 10.15 34.7 11.5 34.15 12.8 33.6 12.8 32.8 12.8 32.7 11.35 29.1 9.85 25.35 9.6 24.95 10.3 24.8 10.8 24.15 11.4 23.3 11.4 22 11.4 21.4 11.25 20.95 11.1 20.5 11.1 19.6 11.1 19.5 11.75 19.15 12.55 18.7 12.9 18.35 12.99140625 18.2501953125 13.05 18.15 13.4666015625 17.7001953125 13.55 17.45 13.65 17.25 13.9 16.2 13.91796875 15.93046875 13.95 15.7
L 15.35 15.8
Q 15.4328125 15.6966796875 15.5 15.55
L 15.9 13.9
Q 17.3216796875 13.6427734375 17.6 13.55 18.04296875 13.3634765625 19.05 13.05
L 18.2 10.25
Q 17.665625 10.382421875 17.1 10.45
L 16.75 10.45
Q 16.4318359375 10.396484375 16.2 9.95 15.9005859375 9.8525390625 15.8 9.45 15.793359375 9.376171875 15.8 9.3 15.65 9.056640625 15.65 8.9 15.65 8.6115234375 15.7 8.4 15.55 7.543359375 15.55 7.5 15.55 7.2544921875 15.65 7 15.666015625 3.6361328125 16.05 0.9
L 16.05 -0.25 Z"/>

<path fill="#7C4200" stroke="none" d="
M 9.45 0.4
L 8.65 0.45
Q 8.55 0.85 8.6 6.6 8.636328125 9.3275390625 7.55 10.8 5.7 10.4 4.35 6.6 3 2.9 2.3 2.9 1.55 2.9 1.45 2.95 1.37578125 2.95 1.25 3
L 1.25 2.95
Q 1.020703125 3.0140625 0.65 3.05 0.45625 3.0921875 0.2 3.1 -0.0115234375 3.147265625 -0.25 3.15 0.262890625 4.7689453125 1.75 6.95 3.5 9.6 3.85 10.3 5.25 13.3 8.85 13.25
L 10 13.25
Q 10.15 9.7 10.15 9.45 10.15 9.05 9.9 8.05 9.65 7 9.65 6.45 9.5359375 6.2849609375 9.25 6 9.365234375 3.578125 9.45 0.4 Z"/>

<path fill="#4E3300" stroke="none" d="
M 24.8 5.2
Q 22.95 7.65 22.55 8.05 20.8044921875 9.7123046875 18.2 10.25
L 19.05 13.05
Q 18.04296875 13.3634765625 17.6 13.55 17.3216796875 13.6427734375 15.9 13.9
L 15.5 15.55
Q 15.532421875 15.6107421875 15.55 15.65 15.4490234375 15.7392578125 15.35 15.8
L 13.95 15.7
Q 13.91796875 15.93046875 13.9 16.2 13.65 17.25 13.55 17.45 13.4666015625 17.7001953125 13.05 18.15 12.99140625 18.2501953125 12.9 18.35 12.55 18.7 11.75 19.15 11.1 19.5 11.1 19.6 11.1 20.5 11.25 20.95 11.4 21.4 11.4 22 11.4 23.3 10.8 24.15 10.3 24.8 9.6 24.95 9.85 25.35 11.35 29.1 12.8 32.7 12.8 32.8 12.8 33.6 11.5 34.15 10.15 34.7 10.15 34.95
L 11.4 37.4
Q 11.4 37.8 10.55 37.8 9.2 37.8 8.65 37.95
L 8.65 39.15 10.85 39.25
Q 11.15 39.4 11.65 39.4 12.05 39.45 12.2 39.55
L 16.25 39.55
Q 16.77890625 39.3232421875 17.2 39.25 17.2314453125 39.193359375 17.25 39.1
L 17.2 38.1
Q 17.2 38.0517578125 17.2 38 16.991796875 36.7126953125 16.75 35.4 16.3443359375 32.965625 16.2 30.9 16.1 29.68984375 16.1 28.6 16.1 27.25 17 24.25 17.85 21.3 17.85 21.25
L 17.6 18.7
Q 17.6 18.1 18.05 17.5 18.2861328125 17.2232421875 18.65 16.9 19.1330078125 16.2888671875 20.15 15.35 21.95 13.75 22.65 13.45 24.3 12.65 25.5 11.45 25.95 10.95 27.3 9.25 28.3 7.85 29.3 4.9 29.4244140625 4.44375 29.85 3.25 29.8896484375 2.8083984375 29.9 2.35
L 27.35 2.35
Q 26.45 3.05 24.8 5.2
M 14.15 20.45
Q 14.1080078125 20.3939453125 14.05 20.3 14.16953125 20.2142578125 14.3 20.1 14.2203125 20.27421875 14.15 20.45 Z"/>
</g>

<g id="mc_trunk_0_Layer0_0_FILL">
<path fill="#006600" stroke="none" d="
M -5.75 38.5
Q -5.642578125 38.5826171875 -5.55 38.6 -5.1287109375 38.467578125 -4.6 38.4 -5.5 38.15 -5.9 38.15 -6.1970703125 38.165625 -6.5 38.2 -6.059765625 38.394140625 -5.75 38.5
M -1.6 38.35
L -1.6 38.35 -1.6 38.35 -1.6 38.35
M -2.1 38.35
L -2.05 38.4 -2.05 38.35 -2.1 38.35
M 25.7 39.15
Q 26.1888671875 39.1345703125 26.7 39.1 23.65 39.15 22.1 39.1 22.0375 39.095703125 21.95 39.1 21.86484375 39.1603515625 21.65 39.2 22.1876953125 39.2154296875 22.85 39.2
L 22.95 39.2
Q 23.1345703125 39.2 23.3 39.2 23.821875 39.2 24.25 39.25
L 24.4 39.25
Q 25.2666015625 39.1423828125 25.7 39.15
M 20.15 38.85
Q 20.05859375 38.907421875 19.95 38.95 20.104296875 39.045703125 20.25 39.1 20.5892578125 39.0802734375 21.05 39 20.5640625 38.935546875 20.15 38.85
M 15.15 38.15
L 15.15 37.95 15 38.2 15.15 38.2 15.15 38.15
M 18.35 38.4
Q 18.2 38.25 18.05 38.15 17.6 37.7 17.4 37.4 17.05 37.7 17.05 38 17.026171875 38.071875 16.85 38.1 16.852734375 38.23125 16.8 38.35 17.2609375 38.43125 17.35 38.55 17.3916015625 38.5916015625 17.4 38.65 18.1560546875 38.6923828125 18.55 38.85
L 18.55 38.85
Q 18.609375 38.782421875 18.75 38.4
L 18.7 38.4
Q 18.6 38.3 18.5 38.25 18.45 38.3 18.35 38.4
M -0.05 38.5
L -0.2 38.5
Q -0.08125 38.558203125 0.05 38.65 0.0193359375 38.590625 -0.05 38.5
M 2.05 38.6
Q 1.8 38.3 1.8 38.15 1.85 38.15 1.95 38.1 2.2 38.1 2.55 38.5 2.365234375 37.5765625 2.6 37.4
L 2.45 37.3
Q 2.35 37.3 1.95 37.75 1.6 38.2 1.35 38.2 0.8 38.2 0 37.8
L 0 38
Q 0.3330078125 38.38046875 0.3 38.7 0.9369140625 38.7734375 1.55 38.8 1.729296875 38.7166015625 2.05 38.6
M 3.15 37.8
Q 3.0560546875 37.7619140625 2.95 37.7
L 2.75 37.55
Q 2.9255859375 37.816796875 3 38.3 3.076953125 38.484375 3.2 38.65
L 3.15 37.8
M 7.15 37.55
Q 6.5 37.85 6.1 37.85
L 4.6 37.65
Q 3.85 38.05 3.8 38.05 3.7140625 38.05 3.55 38 3.6169921875 38.0771484375 3.65 38.15 3.85 38.7 3.6 38.9
L 3.6 38.95
Q 5.744921875 39.065234375 7.75 39.1 8.6376953125 38.75 10.3 38.75
L 10.55 38.8
Q 10.3951171875 38.9548828125 10 39.1
L 12 39.1
Q 12.5427734375 39.069140625 13.15 39 13.25078125 38.8728515625 13.65 38.85 14.221875 38.724609375 14.5 38.65 14.5951171875 38.6189453125 14.7 38.55 14.65 38.487890625 14.65 38.35 14.65 38.15 14.85 37.85 15.05 37.55 15.2 37.55 15.4587890625 37.55 15.5 37.85
L 15.65 37.9
Q 15.65 38.02421875 15.6 38.15
L 16.25 38.1
Q 14.8333984375 37.24609375 14.2 37.1 14.05 38.1 13.7 38.1 13.15 37.85 12.9 37.75
L 12.8 38.1
Q 12.75 38.25 12.3 38.25 11.25 38.1 10.95 38.05
L 10.45 38 9.25 38.3 7.15 37.55 Z"/>

<path fill="#007400" stroke="none" d="
M -0.5 38.45
Q -0.51171875 38.4267578125 -0.55 38.4 -0.561328125 38.4 -0.6 38.4 -0.9 38.4 -1.75 37.85 -1.8 37.85 -1.95 38 -2.05 38.1 -2.05 38.2 -2.05 38.30390625 -2.05 38.35
L -2.05 38.4 -2.1 38.35 -2.9 37.8 -3.05 37.8 -3.15 37.9
Q -3.10859375 38.1626953125 -3.05 38.35 -2.5595703125 38.4103515625 -2.1 38.5 -1.9904296875 38.4271484375 -1.8 38.4 -1.7296875 38.3859375 -1.6 38.35
L -1.6 38.35 -1.6 38.35
Q -1.254296875 38.3810546875 -0.6 38.45
L -0.5 38.45
M 25.2 40
Q 25.248046875 40.001953125 25.3 40 25.345703125 40.0916015625 25.35 39.9
L 25.2 40
M 26.2 39.3
Q 26.089453125 39.189453125 25.7 39.15 25.2666015625 39.1423828125 24.4 39.25
L 24.25 39.25
Q 24.998046875 39.316015625 25.55 39.5 25.7578125 39.4224609375 25.95 39.45
L 25.65 39.65 27 39.65
Q 27.05 39.55 27.05 39.5 27.05 39.35 27 39.35
L 26.9 39.35 26.2 39.3
M 17.4 38.65
Q 17.3876953125 38.7537109375 17.3 38.9 17.9490234375 38.9 18.55 38.85 18.1560546875 38.6923828125 17.4 38.65
M 18.55 38.85
Q 18.734375 38.8220703125 18.9 38.8
L 18.9 38.85
Q 19.24921875 38.7978515625 19.6 38.75
L 19.6 38.7
Q 19.121875 38.58984375 18.75 38.4 18.609375 38.782421875 18.55 38.85
M 0.05 38.7
L 0.05 38.65
Q -0.08125 38.558203125 -0.2 38.5
L -0.2 38.65 0.05 38.7
M 10 39.1
Q 9.5802734375 39.2828125 8.8 39.45 7.3 39.75 7.05 39.9
L 6.9 39.8
Q 7.14375 39.3734375 7.75 39.1 5.744921875 39.065234375 3.6 38.95 3.7376953125 39.0349609375 3.9 39.1 6.3556640625 39.2 6.45 39.2
L 6.5 39.35
Q 6.5 39.5 6.45 39.5
L 4.15 39.5
Q 4.1224609375 39.5 4.05 39.5
L 3.9 39.5
Q 3.8599609375 39.48671875 3.8 39.45
L 3.3 39.4 3.3 39.3
Q 2.31328125 39.05 1.55 39.05 1.4 39.05 1.4 39
L 1.4 38.95
Q 1.4416015625 38.8875 1.55 38.8 0.9369140625 38.7734375 0.3 38.7
L 0.3 38.75 1.65 39.45 1.65 39.55
Q 1.55 39.65 1.35 39.65 1.15 39.65 0.25 39.3 -0.8 38.8 -1 38.75
L -1.25 38.75
Q -0.5912109375 38.96328125 0.1 39.3
L 0.15 39.5
Q 0.05 39.6 -0.05 39.6 -0.3328125 39.6 -1.6 39.2
L -2.75 39.2
Q -4.5 38.95 -4.8 38.95
L -4.95 38.85 -4.95 38.65
Q -4.95 38.5 -4.9 38.55 -4.85 38.65 -4.8 38.65
L -3.4 38.7
Q -3.68984375 38.6662109375 -3.95 38.65
L -4 38.55 -4 38.5
Q -4.29140625 38.48125 -4.6 38.4 -5.1287109375 38.467578125 -5.55 38.6 -5.642578125 38.5826171875 -5.75 38.5 -6.059765625 38.394140625 -6.5 38.2 -6.915234375 38.026171875 -7.45 37.8 -7.9 37.55 -8.3 37.55 -8.45 38.25 -9.75 38.25 -10.15 38.25 -13.35 37.5 -13.5375 37.5 -13.85 37.75 -12.7283203125 38.1197265625 -11.6 38.25
L -11.6 38.45 -11.95 38.5
Q -12.25 38.5 -13.05 38.2 -13.5412109375 38.0158203125 -14.25 37.95 -14.51796875 38.05 -14.9 38.05 -14.81015625 38.1697265625 -14.7 38.25 -15.2654296875 38.2 -16 38.2
L -16 38.4 -15.05 38.95 -14.4 38.95
Q -14.588671875 39.0349609375 -14.75 39.25
L -14.6 39.35
Q -6.75 39.6 -6.5 39.6 -5.776953125 39.6 -5.4 39.55 -5.262890625 39.590625 -5.15 39.65 -4.15 40.15 -3.3 40.15
L -2.4 40.05
Q 0.2447265625 40.28203125 5.5 40.75
L 8.25 40.75
Q 8.6115234375 40.75 8.9 40.75 9.98359375 40.75 10.05 40.75
L 14.5 40.75
Q 15.55 40.65 17.15 40.6
L 17.3 40.5
Q 18.25 40.45 18.75 40.35
L 21.3 40.35
Q 22.4951171875 40.1201171875 24.85 40 24.9771484375 39.8783203125 25.2 39.7 24.5609375 39.6 23.3 39.6 21.85 39.65 21.8 39.65 21.65 39.65 21.55 39.55 21.7607421875 39.2552734375 22.85 39.2 22.1876953125 39.2154296875 21.65 39.2 21.56328125 39.2650390625 21.45 39.3 20.75 39.5 19.95 39.5 19.8 39.5 19.7 39.4
L 19.7 39.2
Q 19.8630859375 39.2 20.25 39.1 20.104296875 39.045703125 19.95 38.95 19.371484375 39.225390625 18.25 39.35
L 17.3 39.35
Q 17.255859375 39.35 17.25 39.2 16.8109375 39.1849609375 16.7 39
L 16.65 39
Q 16.662890625 39.051171875 16.65 39.1
L 16.6 39.2 16.35 39.2
Q 16.3150390625 39.2443359375 16.25 39.3 15.9 39.6 15.75 39.6 15.6 39.6 15.5 39.45 15.4 39.25 15.35 39.25
L 14.95 39.25
Q 14.906640625 39.3677734375 14.85 39.5 14.7 39.45 14.7 39.25
L 14.05 39.25
Q 14.0130859375 39.323828125 14 39.2
L 13.95 39.2
Q 13.3 39.55 13.25 39.55 13.1 39.5 12.75 39.5 12.55 39.5 12.45 39.4
L 12.45 39.2
Q 13.05 39.25 13.15 39.05
L 13.15 39
Q 12.5427734375 39.069140625 12 39.1
L 10 39.1
M 9.9 39.8
Q 9.9 39.6 10.1 39.6 10.4 39.5 11.55 39.5
L 11.65 39.5
Q 11.7 39.5 11.7 39.65 11.7 39.7 11.65 39.8 10.2 39.8 10.15 39.9 10.1 40.05 10.05 40.05 9.9 40 9.9 39.8
M -12.45 38.9
Q -12.45 38.95 -12.6 38.95 -12.85 38.95 -13.35 38.8 -13.9 38.7 -14.5 38.65
L -14.55 38.35 -14.1 38.35
Q -13 38.35 -12.45 38.75
L -12.45 38.9
M -11.6 39.2
Q -11.65 39.2 -11.65 39.05 -11.65 38.9 -11.5 38.9
L -9.55 38.85 -9.55 38.8 -7.35 38.8
Q -5.25 39.2 -5.15 39.25
L -5.15 39.4 -5.55 39.45
Q -5.8 39.45 -6.5 39.25 -7.01484375 39.0916015625 -8.55 39.1 -8.5578125 39.12890625 -8.6 39.15
L -8.8 39.2 -11.6 39.2
M -13.85 38.85
Q -13.776953125 38.8759765625 -13.7 38.9
L -14.05 38.9
Q -13.94140625 38.871875 -13.85 38.85 Z"/>

<path fill="#008A00" stroke="none" d="
M -11.95 38.5
L -11.6 38.45 -11.6 38.25
Q -12.7283203125 38.1197265625 -13.85 37.75 -14.0283203125 37.709375 -14.2 37.65
L -15.2 37.65
Q -15.35 37.75 -15.35 37.85
L -15.2 37.95
Q -14.67890625 37.9306640625 -14.25 37.95 -13.5412109375 38.0158203125 -13.05 38.2 -12.25 38.5 -11.95 38.5
M 25.35 39.9
L 25.65 39.65 25.95 39.45
Q 25.7578125 39.4224609375 25.55 39.5 24.998046875 39.316015625 24.25 39.25 23.821875 39.2 23.3 39.2 23.1345703125 39.2 22.95 39.2
L 22.85 39.2
Q 21.7607421875 39.2552734375 21.55 39.55 21.65 39.65 21.8 39.65 21.85 39.65 23.3 39.6 24.5609375 39.6 25.2 39.7 24.9771484375 39.8783203125 24.85 40
L 24.85 40.05 25 40.15 25.2 40 25.35 39.9
M 19.7 39.2
L 19.7 39.4
Q 19.8 39.5 19.95 39.5 20.75 39.5 21.45 39.3 21.56328125 39.2650390625 21.65 39.2 21.86484375 39.1603515625 21.95 39.1 22.1 39.015625 22.1 38.95
L 22.05 38.8
Q 21.4802734375 38.916796875 21.05 39 20.5892578125 39.0802734375 20.25 39.1 19.8630859375 39.2 19.7 39.2
M 18.9 38.8
Q 18.734375 38.8220703125 18.55 38.85
L 18.55 38.85
Q 17.9490234375 38.9 17.3 38.9 17.3876953125 38.7537109375 17.4 38.65 17.3916015625 38.5916015625 17.35 38.55 17.2609375 38.43125 16.8 38.35 16.852734375 38.23125 16.85 38.1 16.9 37.869140625 16.9 37.7 16.9 37.5 16.75 37.4 16.6 37.5 16.55 37.75 16.45 38 16.35 38.1
L 16.25 38.1 15.6 38.15
Q 15.65 38.02421875 15.65 37.9
L 15.5 37.85
Q 15.4587890625 37.55 15.2 37.55 15.05 37.55 14.85 37.85 14.65 38.15 14.65 38.35 14.65 38.487890625 14.7 38.55 14.5951171875 38.6189453125 14.5 38.65 14.221875 38.724609375 13.65 38.85 13.25078125 38.8728515625 13.15 39
L 13.15 39.05
Q 13.05 39.25 12.45 39.2
L 12.45 39.4
Q 12.55 39.5 12.75 39.5 13.1 39.5 13.25 39.55 13.3 39.55 13.95 39.2
L 14 39.2
Q 14.0130859375 39.323828125 14.05 39.25
L 14.7 39.25
Q 14.7 39.45 14.85 39.5 14.906640625 39.3677734375 14.95 39.25
L 15.35 39.25
Q 15.4 39.25 15.5 39.45 15.6 39.6 15.75 39.6 15.9 39.6 16.25 39.3 16.3150390625 39.2443359375 16.35 39.2
L 16.6 39.2 16.65 39.1
Q 16.662890625 39.051171875 16.65 39
L 16.7 39
Q 16.8109375 39.1849609375 17.25 39.2 17.255859375 39.35 17.3 39.35
L 18.25 39.35
Q 19.371484375 39.225390625 19.95 38.95 20.05859375 38.907421875 20.15 38.85 20.348046875 38.740234375 20.45 38.6 20.0314453125 38.6697265625 19.65 38.75 19.63203125 38.73359375 19.6 38.7
L 19.6 38.75
Q 19.24921875 38.7978515625 18.9 38.85
L 18.9 38.8
M 15.15 37.95
L 15.15 38.15 15.15 38.2 15 38.2 15.15 37.95
M 0.15 39.5
L 0.1 39.3
Q -0.5912109375 38.96328125 -1.25 38.75
L -1 38.75
Q -0.8 38.8 0.25 39.3 1.15 39.65 1.35 39.65 1.55 39.65 1.65 39.55
L 1.65 39.45 0.3 38.75 0.3 38.7
Q 0.3330078125 38.38046875 0 38 -0.45 37.6 -0.65 37.4
L -0.75 37.4
Q -0.8 37.4 -0.8 37.55 -0.8 37.83828125 -0.55 38.4 -0.51171875 38.4267578125 -0.5 38.45
L -0.6 38.45
Q -1.254296875 38.3810546875 -1.6 38.35
L -1.6 38.35
Q -1.7296875 38.3859375 -1.8 38.4 -1.9904296875 38.4271484375 -2.1 38.5 -2.5595703125 38.4103515625 -3.05 38.35 -3.263671875 38.35 -3.5 38.35
L -4 38.35 -4 38.5 -4 38.55 -3.95 38.65
Q -3.68984375 38.6662109375 -3.4 38.7
L -4.8 38.65
Q -4.85 38.65 -4.9 38.55 -4.95 38.5 -4.95 38.65
L -4.95 38.85 -4.8 38.95
Q -4.5 38.95 -2.75 39.2
L -1.6 39.2
Q -0.3328125 39.6 -0.05 39.6 0.05 39.6 0.15 39.5
M 0.05 38.65
L 0.05 38.7 -0.2 38.65 -0.2 38.5 -0.2 38.35
Q -0.11640625 38.43359375 -0.05 38.5 0.0193359375 38.590625 0.05 38.65
M 6.45 39.5
Q 6.5 39.5 6.5 39.35
L 6.45 39.2
Q 6.3556640625 39.2 3.9 39.1 3.7376953125 39.0349609375 3.6 38.95
L 3.6 38.9
Q 3.85 38.7 3.65 38.15 3.6169921875 38.0771484375 3.55 38 3.38671875 37.5736328125 3.3 37.4 3.15 37.5 3.15 37.8
L 3.15 37.8 3.2 38.65
Q 3.076953125 38.484375 3 38.3 2.9255859375 37.816796875 2.75 37.55 2.7140625 37.4640625 2.65 37.4
L 2.6 37.4
Q 2.365234375 37.5765625 2.55 38.5 2.2 38.1 1.95 38.1 1.85 38.15 1.8 38.15 1.8 38.3 2.05 38.6 1.729296875 38.7166015625 1.55 38.8 1.4416015625 38.8875 1.4 38.95
L 1.4 39
Q 1.4 39.05 1.55 39.05 2.31328125 39.05 3.3 39.3
L 3.3 39.4 3.8 39.45
Q 3.8599609375 39.48671875 3.9 39.5
L 4.05 39.5
Q 4.1224609375 39.5 4.15 39.5
L 6.45 39.5
M 8.8 39.45
Q 9.5802734375 39.2828125 10 39.1 10.3951171875 38.9548828125 10.55 38.8
L 10.3 38.75
Q 8.6376953125 38.75 7.75 39.1 7.14375 39.3734375 6.9 39.8
L 7.05 39.9
Q 7.3 39.75 8.8 39.45
M -11.65 39.05
Q -11.65 39.2 -11.6 39.2
L -8.8 39.2 -8.6 39.15
Q -8.5578125 39.12890625 -8.55 39.1 -7.01484375 39.0916015625 -6.5 39.25 -5.8 39.45 -5.55 39.45
L -5.15 39.4 -5.15 39.25
Q -5.25 39.2 -7.35 38.8
L -9.55 38.8 -9.55 38.85 -11.5 38.9
Q -11.65 38.9 -11.65 39.05
M -12.6 38.95
Q -12.45 38.95 -12.45 38.9
L -12.45 38.75
Q -13 38.35 -14.1 38.35
L -14.55 38.35 -14.5 38.65
Q -13.9 38.7 -13.35 38.8 -12.85 38.95 -12.6 38.95
M 10.1 39.6
Q 9.9 39.6 9.9 39.8 9.9 40 10.05 40.05 10.1 40.05 10.15 39.9 10.2 39.8 11.65 39.8 11.7 39.7 11.7 39.65 11.7 39.5 11.65 39.5
L 11.55 39.5
Q 10.4 39.5 10.1 39.6 Z"/>
</g>

<g id="mc_leaves_0_Layer0_0_FILL">
<path fill="#66A735" stroke="none" d="
M 59.1 16.9
L 59.1 16.95
Q 59.1 17.0234375 59.1 17.05
L 59.1 17.1
Q 59.2025390625 16.957421875 59.5 16.95 59.410546875 16.94921875 59.3 16.95 59.1982421875 16.9361328125 59.1 16.9 Z"/>

<path fill="#008201" stroke="none" d="
M 67.75 3.95
Q 68 3.8 68.4 3.8 78.3 5.25 79.1 5.6 80.1869140625 6.0416015625 82.6 6.4 76.0830078125 0 66.8 0 58.25 0 52 5.5 51.23828125 5.6072265625 50.5 5.75 51.9208984375 6.2 52.35 6.2 54.7 6.2 57.1 5 59.5 3.8 59.7 3.8 59.75 3.8 61.35 4.55 63.1 5.3 63.6 5.3 63.7 5.3 64.5 4.85 65.6 4.3 67.2 4.1 67.45 4.1 67.75 3.95
M 89.1 18.5
Q 88.857421875 17.1255859375 88.45 15.8 85.743359375 15.407421875 83.3 14.25 79.45 12.45 78.35 12.45 74.6 15.45 74.45 15.45 73.95 15.45 72.15 14.25 71.73359375 13.964453125 71.4 13.75 64.946875 17.09921875 61.25 17.05 60.164453125 16.7470703125 59.6 16.7 59.125390625 16.7029296875 59.1 16.9 59.1982421875 16.9361328125 59.3 16.95 59.410546875 16.94921875 59.5 16.95 59.2025390625 16.957421875 59.1 17.1
L 59.1 17.05
Q 59.1 17.0234375 59.1 16.95
L 59.1 16.9
Q 57.4763671875 16.75234375 56.2 15.3 55.8513671875 14.8892578125 55.5 14.55 54.4513671875 13.65 53.4 13.65 48 14.25 47.25 14.25 44.15 14.25 41.7 11.25 42.7162109375 11.25 43.75 9.95 43.8623046875 9.8642578125 43.95 9.75 44.73515625 8.703125 44.9 7.9 45 7.6396484375 45 7.4
L 47.65 7.4
Q 47.237890625 6.9689453125 46.85 6.55 39.25859375 8.6830078125 32.9 13.8 29.8970703125 14.48359375 27.25 15.95 27.058984375 18.011328125 26.1 19.25 25.5 20 24.9 20.55 24.9 22 25.3 22.3 26.35 23.05 30.9 22.95 30.9 24.9 29.4 28.65 29.4 29.55 31.6 30.5 33.5 31.35 34.5 31.35 36.65 36.15 36.9 36.45 37.55 37.35 39.45 37.35 40 37.35 42.2 36.15 44.4 35 45 34.35 48.5 38.25 48.95 38.65 49.95 39.45 52.05 39.45 52.75 39.45 55.75 38.1 58.75 36.75 59.7 36.75 62.55 36.75 63.9 35.85 65.3 34.95 66 34.95 66.2 34.95 69.25 36.15 72.35 37.35 73.1 37.35 73.55 37.35 77.15 34.95 79.1 34.95 83.75 37.05 84.85 37.05 85.95 33.6 87.25 29.65 90.8 28.05 92.9796875 27.08125 94.45 25.45 94.3953125 25.4458984375 94.35 25.45 92.15 21.75 89.1 18.5 Z"/>

<path fill="#009002" stroke="none" d="
M 76.7 10.35
Q 75.35 9.6 74.9 7.7 67.8 11.25 65.25 11.25 62.3 11.25 59.5 10.4 56.65 9.5 55.2 9.5 53.4 9.5 51.6 8.85 50.02265625 8.3013671875 49.35 7.4
L 47.65 7.4 45 7.4
Q 45 7.6396484375 44.9 7.9 44.73515625 8.703125 43.95 9.75 43.8623046875 9.8642578125 43.75 9.95 42.7162109375 11.25 41.7 11.25 44.15 14.25 47.25 14.25 48 14.25 53.4 13.65 54.4513671875 13.65 55.5 14.55 55.8513671875 14.8892578125 56.2 15.3 57.4763671875 16.75234375 59.1 16.9 59.125390625 16.7029296875 59.6 16.7 60.164453125 16.7470703125 61.25 17.05 64.946875 17.09921875 71.4 13.75 71.506640625 13.698828125 71.6 13.65 71.9 13.55 74.85 13.5 77.85 13 78.8 10.35
L 78.8 8.6
Q 78.2 8.55 77.9 8.65 77.35 8.9 77.3 10.05 77.45 10.35 76.7 10.35 Z"/>

<path fill="#005802" stroke="none" d="
M 98.25 88.8
Q 97.6 88.15 96.9 87.45 95.45 86.1 94.85 86.1 94.4 86.1 94 86.4 93.35 87.05 92.6 87.6 88.35 90.9 85.25 91.8 85 91.4 84.5 90.7 83.5 89.3 82.1 87.9 81.55 88.7 79 90.95 76.3 93.3 75.8 93.3 74.9 93.5 73.75 92.8 71.45 91.4 70.2 87 69.85 87 67.15 88.95 65.85 89.95 64.5 90.9 63.65 89.8 62.8 88.65 61.1 86.4 60.6 86.4 57.4 87.6 57.3 87.6 57.25 87.6 56.05 86.15 54.85 84.65 54.75 84.65 47.2 87.9 47.1 87.9 44.85 86.15 44.4 84.9 43.75 84.95 42.45 86.45 41.15 87.9 40.2 87.9 39.85 85.25 38.75 84.6 38.35 84.35 37.05 84.35
L 32.4 85.5
Q 32.15 85.5 30.35 84.2 28.55 82.85 27.45 82.85
L 20.75 86.4
Q 20.65 86.4 16.7 83.75 11.85 87.9 11.75 87.9 11.65 87.9 6.95 83.75 6.325 84.03125 5.85 84.2 6.2171875 84.6171875 6.6 85 13.25 91.65 22.65 91.65 27.9 91.65 32.3 89.6 38.5 94.95 46.9 94.95 51.25 94.95 55 93.55 61.35 99.35 70.1 99.35 76.6 99.35 81.85 96.15 89.2 101.55 98.8 101.55 110.95 101.55 119.5 92.95 127.226171875 85.2689453125 127.95 74.6 125.0603515625 77.75 124.35 77.75 122.6 77.75 122.1 78.95 121.55 80.15 119.1 80.15 117 78.95 116.55 78.95 116 79.8 115.2 80.9 113.6 83.1 112.35 84.35 110.85 82.85 110.25 82.85 105.9 85.8 104.85 85.8 103.15 85.8 101.6 87.3 100.05 88.8 98.25 88.8 Z"/>

<path fill="#006E00" stroke="none" d="
M 110.25 30.85
Q 109.35078125 32.9048828125 107.5 34.35 104.1 37 100.95 35.55 103.85 38.05 108.1 39.75 109.65 40.35 109.65 43.95 109.65 48.35 107.55 51.6 104.8 55.85 100.05 53.55 100.05 53.7 99.85 56.65 99.3 59.55 97.8 59.55 95.7 58.35 95.45 58.35 93.7 60.5 91.7 62.65 87.75 66.95 85.4 66.95
L 79.55 65.75
Q 78.25 65.75 76.55 67.05 74.45 68.9 73.15 69.95 67.95 74.15 61.35 74.15 57 74.15 55.45 71.3 53.85 68.45 50.55 68.45 50.35 68.45 48.55 70.4 46.45 72.35 44.4 72.35 41.1 72.35 39.75 70.95 37.85 68.3 35.7 65.75 34.2 65.75 32.9 66.8 32.25 67.35 31.8 67.85 30.25 67.85 28.45 65.15 26.7 62.45 25.95 62.45 25.1 62.45 23.05 64.1 21.05 65.75 18.35 65.75 12.7396484375 65.75 9 50.85 7.7685546875 51.8314453125 6.6 53 0 59.6 0 69 0 77.8546875 5.85 84.2 6.325 84.03125 6.95 83.75 11.65 87.9 11.75 87.9 11.85 87.9 16.7 83.75 20.65 86.4 20.75 86.4
L 27.45 82.85
Q 28.55 82.85 30.35 84.2 32.15 85.5 32.4 85.5
L 37.05 84.35
Q 38.35 84.35 38.75 84.6 39.85 85.25 40.2 87.9 41.15 87.9 42.45 86.45 43.75 84.95 44.4 84.9 44.85 86.15 47.1 87.9 47.2 87.9 54.75 84.65 54.85 84.65 56.05 86.15 57.25 87.6 57.3 87.6 57.4 87.6 60.6 86.4 61.1 86.4 62.8 88.65 63.65 89.8 64.5 90.9 65.85 89.95 67.15 88.95 69.85 87 70.2 87 71.45 91.4 73.75 92.8 74.9 93.5 75.8 93.3 76.3 93.3 79 90.95 81.55 88.7 82.1 87.9 83.5 89.3 84.5 90.7 85 91.4 85.25 91.8 88.35 90.9 92.6 87.6 93.35 87.05 94 86.4 94.4 86.1 94.85 86.1 95.45 86.1 96.9 87.45 97.6 88.15 98.25 88.8 100.05 88.8 101.6 87.3 103.15 85.8 104.85 85.8 105.9 85.8 110.25 82.85 110.85 82.85 112.35 84.35 113.6 83.1 115.2 80.9 116 79.8 116.55 78.95 117 78.95 119.1 80.15 121.55 80.15 122.1 78.95 122.6 77.75 124.35 77.75 125.0603515625 77.75 127.95 74.6 128.05 73.4705078125 128.05 72.3 128.05 60.15 119.5 51.6 118.8 50.9 118.05 50.25 118.15 49.15 118.15 48 118.15 38.65 111.5 32 110.893359375 31.393359375 110.25 30.85 Z"/>

<path fill="#007402" stroke="none" d="
M 94.45 25.45
Q 92.9796875 27.08125 90.8 28.05 87.25 29.65 85.95 33.6 84.85 37.05 83.75 37.05 79.1 34.95 77.15 34.95 73.55 37.35 73.1 37.35 72.35 37.35 69.25 36.15 66.2 34.95 66 34.95 65.3 34.95 63.9 35.85 62.55 36.75 59.7 36.75 58.75 36.75 55.75 38.1 52.75 39.45 52.05 39.45 49.95 39.45 48.95 38.65 48.5 38.25 45 34.35 44.4 35 42.2 36.15 40 37.35 39.45 37.35 37.55 37.35 36.9 36.45 36.65 36.15 34.5 31.35 33.5 31.35 31.6 30.5 29.4 29.55 29.4 28.65 30.9 24.9 30.9 22.95 26.35 23.05 25.3 22.3 24.9 22 24.9 20.55 25.5 20 26.1 19.25 27.058984375 18.011328125 27.25 15.95 24.4794921875 17.4705078125 22.1 19.85 15.45 26.5 15.45 35.9 15.45 40.65 17.15 44.65 17.1 45.55 17.1 46.4 17.1 46.7 17.1 47.05 12.698828125 48.05703125 9 50.85 12.7396484375 65.75 18.35 65.75 21.05 65.75 23.05 64.1 25.1 62.45 25.95 62.45 26.7 62.45 28.45 65.15 30.25 67.85 31.8 67.85 32.25 67.35 32.9 66.8 34.2 65.75 35.7 65.75 37.85 68.3 39.75 70.95 41.1 72.35 44.4 72.35 46.45 72.35 48.55 70.4 50.35 68.45 50.55 68.45 53.85 68.45 55.45 71.3 57 74.15 61.35 74.15 67.95 74.15 73.15 69.95 74.45 68.9 76.55 67.05 78.25 65.75 79.55 65.75
L 85.4 66.95
Q 87.75 66.95 91.7 62.65 93.7 60.5 95.45 58.35 95.7 58.35 97.8 59.55 99.3 59.55 99.85 56.65 100.05 53.7 100.05 53.55 104.8 55.85 107.55 51.6 109.65 48.35 109.65 43.95 109.65 40.35 108.1 39.75 103.85 38.05 100.95 35.55 104.1 37 107.5 34.35 109.35078125 32.9048828125 110.25 30.85 104.0359375 25.4 95.5 25.4 94.9494140625 25.4 94.45 25.45 Z"/>

<path fill="#009B00" stroke="none" d="
M 82.8 6.6
Q 82.71796875 6.51796875 82.6 6.4 80.1869140625 6.0416015625 79.1 5.6 78.3 5.25 68.4 3.8 68 3.8 67.75 3.95 67.45 4.1 67.2 4.1 65.6 4.3 64.5 4.85 63.7 5.3 63.6 5.3 63.1 5.3 61.35 4.55 59.75 3.8 59.7 3.8 59.5 3.8 57.1 5 54.7 6.2 52.35 6.2 51.9208984375 6.2 50.5 5.75 48.6447265625 6.074609375 46.85 6.55 47.237890625 6.9689453125 47.65 7.4
L 49.35 7.4
Q 50.02265625 8.3013671875 51.6 8.85 53.4 9.5 55.2 9.5 56.65 9.5 59.5 10.4 62.3 11.25 65.25 11.25 67.8 11.25 74.9 7.7 75.35 9.6 76.7 10.35 77.45 10.35 77.3 10.05 77.35 8.9 77.9 8.65 78.2 8.55 78.8 8.6
L 78.8 10.35
Q 77.85 13 74.85 13.5 71.9 13.55 71.6 13.65 71.506640625 13.698828125 71.4 13.75 71.73359375 13.964453125 72.15 14.25 73.95 15.45 74.45 15.45 74.6 15.45 78.35 12.45 79.45 12.45 83.3 14.25 85.743359375 15.407421875 88.45 15.8 86.869140625 10.669140625 82.8 6.6 Z"/>
</g>

<g id="apple_0_Layer0_0_FILL">
<path fill="#660000" stroke="none" d="
M 53.6 27.45
Q 52.7 27.75 51.85 28.05 50.2 28.6 48.55 29.25 45.2 30.6 41.65 31.25 33.3 32.75 26.8 29.4 25.2 28.6 23.6 27.9 18.4 25.55 13.7 27.65 12.7 28.1 11.65 28.2 7.7 28.6 3.75 28.15 3.35 28.1 3 28.05 2.95 28.8 2.85 29.6 2.35 33.65 4.75 36.55 9.3 42.1 14.55 45.8 16.7 47.35 19.75 47 23.7 46.6 27.7 46.85 30.75 47.05 33 44.95 35.9 42.25 39.7 42.75 45.9 43.6 48.3 37.85 49.2 35.6 50.65 33.55 52.65 30.7 53.6 27.45 Z"/>

<path fill="#AE0000" stroke="none" d="
M 51.95 9.85
Q 50.65 7.1 48.8 4.55 47.25 2.5 45.35 1.1 44.7 0.6 43.75 0.35 42.7 0.1 41.65 0.05 36.6 -0.3 31.85 1.1 30.2 1.6 28.8 2.7 27.4 3.8 24.7 3.6
L 23.7 4.6
Q 14.3 3.1 4.8 4.45 3.7 4.6 3 5.8 1.25 8.75 0.5 11.95 4.75 13.2 7.95 17.4 9.25 19.15 11.5 18.15 12.7 17.6 13.85 16.8 15.8 15.45 18.05 14.25 20.2 13.1 22.65 12.4 23.7 12.1 24.75 11.65 27 10.75 28 10.05 28.7 9.6 29.6 9.85 34.3 11.25 37.05 13.15 37.7 13.6 38.7 13.75 46.35 14.75 51.95 9.85 Z"/>

<path fill="#890000" stroke="none" d="
M 54.15 17.55
Q 53.6 13.5 51.95 9.85 46.35 14.75 38.7 13.75 37.7 13.6 37.05 13.15 34.3 11.25 29.6 9.85 28.7 9.6 28 10.05 27 10.75 24.75 11.65 23.7 12.1 22.65 12.4 20.2 13.1 18.05 14.25 15.8 15.45 13.85 16.8 12.7 17.6 11.5 18.15 9.25 19.15 7.95 17.4 4.75 13.2 0.5 11.95 -0.4 16 0.4 20.45 0.7 22.1 1.85 23.5 3.15 25.05 3 28.05 3.35 28.1 3.75 28.15 7.7 28.6 11.65 28.2 12.7 28.1 13.7 27.65 18.4 25.55 23.6 27.9 25.2 28.6 26.8 29.4 33.3 32.75 41.65 31.25 45.2 30.6 48.55 29.25 50.2 28.6 51.85 28.05 52.7 27.75 53.6 27.45 54.9 22.85 54.15 17.55 Z"/>
</g>

<path id="ring_0_Layer0_0_1_STROKES" stroke="#000000" stroke-width="6" stroke-linejoin="round" stroke-linecap="round" fill="none" d="
M 182.55 91.3
Q 182.55 129.1 155.8 155.85 129.1 182.55 91.25 182.55 53.45 182.55 26.7 155.85 0 129.1 0 91.3 0 53.45 26.7 26.75 53.45 0 91.25 0 129.1 0 155.8 26.75 182.55 53.45 182.55 91.3 Z"/>

<path id="iconHolder_0_Layer0_0_1_STROKES" stroke="#000000" stroke-width="4" stroke-linejoin="round" stroke-linecap="round" fill="none" d="
M 69 34.5
Q 69 48.8 58.9 58.9 48.8 69 34.5 69 20.2 69 10.1 58.9 0 48.8 0 34.5 0 20.2 10.1 10.1 20.2 0 34.5 0 48.8 0 58.9 10.1 69 20.2 69 34.5 Z"/>

<path id="iconAxe_0_Layer0_0_1_STROKES" stroke="#000000" stroke-width="4" stroke-linejoin="round" stroke-linecap="round" fill="none" d="
M -36.35 76.95
Q -30.15 82 -28.6 83.2 -26.1 85.15 -25.4 85.4"/>

<path id="iconAxe_0_Layer0_0_2_STROKES" stroke="#000000" stroke-width="6" stroke-linejoin="round" stroke-linecap="round" fill="none" d="
M -9.85 22.25
Q 2.55 20.25 22.5 14.6 37.85 10.25 50.7 5.85 50.7 5.6 51.85 5.35 53.35 5.05 53.5 4.95
M 54.1 5.25
Q 63.1 41.45 63.95 54.75 63.95 54.85 63.95 54.95 63.95 55.05 64 55.2 64.05 56.35 64.05 57.3 64.05 72.7 56.15 88.4 56.15 88.45 56.1 88.5 56 88.7 55.9 88.9 50.05 100.3 44.6 105.05 44.2 105.35 43.8 105.65
M -9.85 22.25
Q -16.55 23.3 -21.05 23.3 -21.4 23.3 -25.25 23 -29.5 22.7 -32.35 22.7 -32.9 28.4 -32.9 28.65 -32.9 29.1 -33.4 33.5 -33.95 37.85 -33.95 39.95 -33.95 40.5 -34.55 49.95 -35.15 59.4 -35.15 61.8 -35.15 62.25 -36.65 72.65 -36.65 73.4 -36.05 75.65
M -24.5 85.8
Q -23.4 85.65 -21.7 85.7 -20.05 85.8 -19.7 85.8 -19.15 85.8 -18.35 85.8 -17.6 85.75 -16.6 85.7 -15.1 85.6 -14.2 85.4 -13.65 85.3 -13.35 85.15 -13.3 85.15 -13.25 85.15 17.5 87.8 30.55 94.1 35.2 96.35 38.95 99.75 40.95 101.55 44.6 105.05"/>

<path id="iconEye_0_Layer0_0_1_STROKES" stroke="#000000" stroke-width="3" stroke-linejoin="round" stroke-linecap="round" fill="none" d="
M 45.6 16.15
Q 45.6 22.85 38.9 27.6 32.25 32.35 22.8 32.35 17.3 32.35 12.75 30.75 9.45 29.6 6.65 27.6 0 22.85 0 16.15 0 9.45 6.65 4.7 13.35 0 22.8 0 32.25 0 38.9 4.7 45.6 9.45 45.6 16.15 Z"/>
</defs>

<g transform="matrix( 1, 0, 0, 1, 0,0) ">
<use xlink:href="#Layer0_0_FILL"/>
</g>

<g id="tree" transform="matrix( 1, 0, 0, 1, 101.05,99.5) ">
<g transform="matrix( 1, 0, 0, 1, 9.65,12.15) ">
<g transform="matrix( 1, 0, 0, 1, 0,0) ">
<use xlink:href="#ring_0_Layer0_0_FILL"/>

<use xlink:href="#ring_0_Layer0_0_1_STROKES"/>
</g>
</g>

<g id="actionAxe" transform="matrix( 1, 0, 0, 1, -12.5,137.95) ">
<g transform="matrix( 1, 0, 0, 1, 0,0) ">
<g transform="matrix( 1, 0, 0, 1, 0,0) ">
<g transform="matrix( 1, 0, 0, 1, 0,0) ">
<use xlink:href="#iconHolder_0_Layer0_0_FILL"/>

<use xlink:href="#iconHolder_0_Layer0_0_1_STROKES"/>
</g>
</g>

<g transform="matrix( 0.422943115234375, 0.12890625, -0.12890625, 0.422943115234375, 33.9,10) ">
<g transform="matrix( 1, 0, 0, 1, 0,0) ">
<use xlink:href="#iconAxe_0_Layer0_0_FILL"/>

<use xlink:href="#iconAxe_0_Layer0_0_1_STROKES"/>

<use xlink:href="#iconAxe_0_Layer0_0_2_STROKES"/>
</g>
</g>
</g>
</g>

<g id="actionAdd" transform="matrix( 1, 0, 0, 1, -12.5,-11.55) ">
<g transform="matrix( 1, 0, 0, 1, 0,0) ">
<g transform="matrix( 1, 0, 0, 1, 0,0) ">
<use xlink:href="#iconHolder_0_Layer0_0_FILL"/>

<use xlink:href="#iconHolder_0_Layer0_0_1_STROKES"/>
</g>
</g>

<g transform="matrix( 1, 0, 0, 1, 13.8,16.75) ">
<g transform="matrix( 1, 0, 0, 1, 0,0) ">
<use xlink:href="#actionCheck_0_Layer0_0_FILL"/>
</g>
</g>
</g>

<g id="actionDrag" transform="matrix( 1, 0, 0, 1, 141.5,137.4) ">
<g transform="matrix( 1, 0, 0, 1, 0,0) ">
<g transform="matrix( 1, 0, 0, 1, 0,0) ">
<use xlink:href="#iconHolder_0_Layer0_0_FILL"/>

<use xlink:href="#iconHolder_0_Layer0_0_1_STROKES"/>
</g>
</g>

<g transform="matrix( 1, 0, 0, 1, 9.65,9.75) ">
<use xlink:href="#actionDrag_mc_0_Layer0_0_FILL"/>
</g>
</g>

<g id="actionEye" transform="matrix( 1, 0, 0, 1, 140.45,-11.05) ">
<g transform="matrix( 1, 0, 0, 1, 0,0) ">
<g transform="matrix( 1, 0, 0, 1, 0,0) ">
<g transform="matrix( 1, 0, 0, 1, 0,0) ">
<use xlink:href="#iconHolder_0_Layer0_0_FILL"/>

<use xlink:href="#iconHolder_0_Layer0_0_1_STROKES"/>
</g>
</g>

<g transform="matrix( 1, 0, 0, 1, 10.65,19.35) ">
<g transform="matrix( 1, 0, 0, 1, 0,0) ">
<use xlink:href="#iconEye_0_Layer0_0_FILL"/>

<use xlink:href="#iconEye_0_Layer0_0_1_STROKES"/>
</g>
</g>
</g>
</g>

<g transform="matrix( 1, 0, 0, 1, 0,0) ">
<use xlink:href="#tree_0_Layer4_0_FILL"/>
</g>

<g id="border" transform="matrix( 0.635101318359375, 0, 0, 0.635101318359375, 53.1,42.3) ">
<g transform="matrix( 1, 0, 0, 1, 0,0) ">
<use filter="url(#Filter_1)" xlink:href="#mc_border_0_Layer0_0_FILL"/>
</g>
</g>

<g id="trunk" transform="matrix( 0.880859375, 0, 0, 0.880859375, 88.85,120.65) ">
<g transform="matrix( 1, 0, 0, 1, 0,0) ">
<use xlink:href="#mc_trunk_0_Layer2_0_FILL"/>
</g>

<g transform="matrix( 1, 0, 0, 1, 0,0) ">
<use xlink:href="#mc_trunk_0_Layer1_0_FILL"/>
</g>

<g transform="matrix( 1, 0, 0, 1, 0,0) ">
<use xlink:href="#mc_trunk_0_Layer0_0_FILL"/>
</g>
</g>

<g id="leaves" transform="matrix( 0.880859375, 0, 0, 0.880859375, 46.65,42.1) ">
<g transform="matrix( 1, 0, 0, 1, 0,0) ">
<use xlink:href="#mc_leaves_0_Layer0_0_FILL"/>
</g>
</g>

<g transform="matrix( 0.79815673828125, 0, 0, 0.79815673828125, 51.2,84.95) ">
<g transform="matrix( 0.396453857421875, 0, 0, 0.396453857421875, 23.3,-19.05) ">
<g transform="matrix( 1, 0, 0, 1, 0,0) ">
<use xlink:href="#apple_0_Layer0_0_FILL"/>
</g>
</g>

<g transform="matrix( 0.396453857421875, 0, 0, 0.396453857421875, 58.45,-32.15) ">
<g transform="matrix( 1, 0, 0, 1, 0,0) ">
<use xlink:href="#apple_0_Layer0_0_FILL"/>
</g>
</g>

<g transform="matrix( 0.396453857421875, 0, 0, 0.396453857421875, 85.75,23.75) ">
<g transform="matrix( 1, 0, 0, 1, 0,0) ">
<use xlink:href="#apple_0_Layer0_0_FILL"/>
</g>
</g>

<g transform="matrix( 0.396453857421875, 0, 0, 0.396453857421875, 16.85,15.65) ">
<g transform="matrix( 1, 0, 0, 1, 0,0) ">
<use xlink:href="#apple_0_Layer0_0_FILL"/>
</g>
</g>

<g transform="matrix( 0.396453857421875, 0, 0, 0.396453857421875, 88.65,-13.5) ">
<g transform="matrix( 1, 0, 0, 1, 0,0) ">
<use xlink:href="#apple_0_Layer0_0_FILL"/>
</g>
</g>
</g>
</g>
</svg>
