
<svg xmlns="http://www.w3.org/2000/svg" version="1.1" xmlns:xlink="http://www.w3.org/1999/xlink" preserveAspectRatio="none" x="0px" y="0px" width="230px" height="230px" viewBox="0 0 230 230">
<defs>
<filter id="Filter_1" x="-20%" y="-20%" width="140%" height="140%" color-interpolation-filters="sRGB">
<feColorMatrix in="SourceGraphic" type="matrix" values="1 0 0 0 0 0 1 0 0 0 0 0 1 0 0 0 0 0 0 0" result="result1"/>
</filter>

<g id="Layer0_0_FILL">
<path fill="#008A00" stroke="none" d="
M -91.75 42.5
Q -92.85 42.8 -93.3 43 -94.2 43.5 -95 44.75 -94.55 45.2 -93.7 45.65
L -93 46
Q -91.45 45.4 -91 44
L -91.75 42.5 Z"/>
</g>

<g id="ring_0_Layer0_0_FILL">
<path fill="#D8E5B2" fill-opacity="0.16862745098039217" stroke="none" d="
M 155.8 26.75
Q 129.1 0 91.25 0 53.45 0 26.7 26.75 0 53.45 0 91.3 0 129.1 26.7 155.85 53.45 182.55 91.25 182.55 129.1 182.55 155.8 155.85 182.55 129.1 182.55 91.3 182.55 53.45 155.8 26.75 Z"/>
</g>

<g id="iconHolder_0_Layer0_0_FILL">
<path fill="#D8E5B2" stroke="none" d="
M 59.45 -1.45
L 8.45 -1.45
Q 4.45 -1.45 4.45 2.55
L 4.45 8.5
Q -0.5 8.5251953125 -0.5 13.5
L -0.5 51.25
Q -0.5 56.2248046875 4.45 56.25
L 4.45 63.05
Q 4.45 67.05 8.45 67.05
L 22.75 67.05
Q 28.2169921875 69 34.5 69 40.7830078125 69 46.25 67.05
L 59.45 67.05
Q 63.45 67.05 63.45 63.05
L 63.45 56.2
Q 67.75 55.88671875 67.75 51.25
L 67.75 13.5
Q 67.75 8.86328125 63.45 8.5
L 63.45 2.55
Q 63.45 -1.45 59.45 -1.45 Z"/>
</g>

<g id="iconAxe_0_Layer0_0_FILL">
<path fill="#FFFFFF" stroke="none" d="
M -48.95 33.1
Q -49.677734375 31.90859375 -50.2 30.8 -51.4 31.1 -52.1 31.35 -52.3 31.4 -52.4 31.45 -52.85 31.55 -53.2 32.05 -53.6 32.4 -53.85 33.3 -53.95 33.45 -54 33.65 -54.15 33.95 -54.35 34.45 -54.5 34.55 -54.5 34.65
L -54.45 34.95
Q -54.2330078125 34.9138671875 -53.3 35.9
L -52.9 35.65
Q -51.1208984375 34.5037109375 -48.95 33.1
M -50.75 39.6
Q -50.7 39.65 -50.65 39.7 -49.95 40.65 -49.15 41.4 -42.3 47.9 -41.6 48.75 -40 50.6 -35.45 54 -30.3 57.8 -28.7 57.5
L -28.7 57.5
Q -33.5263671875 53.4783203125 -37.55 49.7 -45.35 42.3 -47.7 37.3 -48.7 37.55 -49.3 37.75 -49.45 37.8 -49.55 37.85 -49.9 37.9 -50.2 38.35 -50.55 38.65 -50.75 39.35 -50.780078125 39.440234375 -50.8 39.5 -50.7802734375 39.5654296875 -50.75 39.6 Z"/>

<path fill="#000000" stroke="none" d="
M 8 26.3
Q 5.7 24 0.95 18.05 -3.85 12 -8.15 6 -8.55 5.5 -8.9 4.95 -10.45 7.6 -15.3 11.5
L -16.35 12.3
Q -16.5 12.45 -16.8 12.6
L -18.45 10.4
Q -20.35 8.55 -21.6 6.4 -24.5 7.5 -27.7 9.6 -32.7 12.9 -35.2 16.95
L -35.35 17.4
Q -34.9 17.7 -34.75 17.8 -34.4 18.2 -31.05 21.55
L -30.85 21.8
Q -41.96328125 28.688671875 -48.95 33.1 -51.1208984375 34.5037109375 -52.9 35.65
L -53.3 35.9 -59.35 39.95
Q -57.6 42.8 -56.45 44 -55.9 44.55 -55.6 44.95 -55.5 44.95 -55.4 45.05 -54.55 45.95 -54.45 46.1
L -54.1 46.55
Q -52.2 46.1 -51.25 46.55 -50.95 46.7 -50.8 46.9 -52.1 48.7 -52.2 49.45 -52.3 49.8 -52.15 50
L -52.55 50.4
Q -47.6 58 -37.95 64.4 -29.35 70.15 -25.7 69.75 -26.25 68.45 -26.35 67.8 -26.65 66.3 -25.65 64.65
L -23.85 64.7 -23.55 64.9
Q -22.5 63.7 -21.65 62.55 -21.6 62.45 -21.5 62.45 -14.55 53.4 -13.35 51.95 -13.3 51.9 -9.2 47.55 -3.9 53 8.15 67.05 21.25 82.4 27.85 89.05 34.2 95.45 43.05 104.75 47.4 109.1 49.35 110.3 55.55 108.35 58.6 102.35 60.85 97.8 60.95 92.25
L 60.4 92.05
Q 55.4 88.45 42.65 78.55 39.9 76.4 22.1 56.45 4.6 36.95 1.9 33.1
L 1.85 32.85
Q 2.6 32.15 3.3 31.6 3.55 31.35 3.7 31.15
L 8.15 26.45
Q 8.05 26.35 8 26.3
M -50.8 39.5
Q -50.780078125 39.440234375 -50.75 39.35 -50.55 38.65 -50.2 38.35 -49.9 37.9 -49.55 37.85 -49.45 37.8 -49.3 37.75 -48.7 37.55 -47.7 37.3 -45.35 42.3 -37.55 49.7 -33.5263671875 53.4783203125 -28.7 57.5 -28.5921875 57.5736328125 -28.5 57.65 -28.35 57.65 -28.2 57.65 -28.4 58 -28.65 58.35 -29 58.85 -29.3 59.1 -29.6 59.35 -29.9 59.4 -31.25 59.65 -35.5 56.5 -39.25 53.7 -40.6 52.15 -41.15 51.45 -46.85 46.1 -47.5 45.45 -48.1 44.65 -48.15 44.65 -48.15 44.6 -49.05 43.6 -49.6 42.3 -51 40.7 -51.25 40.75
L -51.25 40.5
Q -51.25 40.4 -51.15 40.3 -51 39.9 -50.85 39.65 -50.830078125 39.590234375 -50.8 39.5 Z"/>
</g>

<g id="actionCheck_0_Layer0_0_FILL">
<path fill="#000000" fill-opacity="0.9686274509803922" stroke="none" d="
M 43.05 7.45
Q 43.45 7 43.5 6.4 43.45 5.75 43.05 5.35
L 38.15 0.45 38.2 0.45
Q 37.75 0 37.1 0 36.5 0 36.1 0.45
L 11.6 24.95 6.75 20.1
Q 6.3 19.65 5.7 19.65 5.1 19.65 4.65 20.1
L 4.7 20.1 0.45 24.35 0.45 24.3
Q 0 24.75 0 25.4 0 25.95 0.45 26.4
L 11.2 37.15
Q 11.6 37.6 12.25 37.6 12.85 37.6 13.3 37.15
L 13.25 37.15 43.05 7.45 Z"/>
</g>

<g id="actionDrag_mc_0_Layer0_0_FILL">
<path fill="#000000" fill-opacity="0.9686274509803922" stroke="none" d="
M 42.55 17.05
Q 42.55 16.6 42.2 16.25
L 35.1 9.1
Q 34.8 8.85 34.3 8.85 33.8 8.85 33.55 9.1
L 26.4 16.25
Q 26.05 16.6 26.05 17.05 26.05 17.6 26.4 17.85 26.65 18.25 27.15 18.25
L 32.35 18.25 32.35 32.5 18.25 32.5 18.25 27.3
Q 18.25 26.8 17.9 26.5 17.6 26.2 17.1 26.2 16.6 26.2 16.25 26.5
L 9.15 33.65
Q 8.9 33.95 8.9 34.45 8.9 34.95 9.15 35.25
L 16.25 42.35
Q 16.6 42.7 17.1 42.7 17.6 42.7 17.9 42.35 18.25 42 18.25 41.55
L 18.25 36.95 32.35 36.95 32.35 51.7 27.15 51.7
Q 26.65 51.7 26.4 52.05 26.05 52.35 26.05 52.85 26.05 53.35 26.4 53.7
L 33.55 60.8
Q 33.8 61.1 34.3 61.1 34.8 61.1 35.1 60.8
L 42.2 53.7
Q 42.55 53.35 42.55 52.85 42.55 52.35 42.2 52.05 41.85 51.7 41.4 51.7
L 36.8 51.7 36.8 36.95 51.75 36.95 51.75 41.55
Q 51.75 42 52.1 42.35 52.4 42.7 52.9 42.7 53.35 42.7 53.7 42.35
L 60.85 35.25
Q 61.1 34.95 61.1 34.45 61.1 33.95 60.85 33.65
L 53.7 26.5
Q 53.35 26.2 52.9 26.2 52.4 26.2 52.1 26.5 51.75 26.8 51.75 27.3
L 51.75 32.5 36.8 32.5 36.8 18.25 41.4 18.25
Q 41.85 18.25 42.2 17.85 42.55 17.6 42.55 17.05 Z"/>
</g>

<g id="iconEye_0_Layer0_0_FILL">
<path fill="#000000" stroke="none" d="
M 53.3 12.15
Q 53.45 12.15 53.55 12.05 53.65 11.9 53.65 11.75
L 53.65 9.05
Q 53.65 8.85 53.6 8.8 53.45 8.7 53.35 8.65 52.6 8.5 50 7.9 47.05 7.4 43.85 7.4 36.8 7.4 33.8 7.7 33.7 7.7 33.55 7.7 31.75 7.9 29.15 8.4 28.35 8.55 27.5 8.8
L 24.45 8.8
Q 23.45 8.8 23.15 8.75 22.55 8.7 21.75 8.55
L 21.8 8.6 21.5 8.55 21.45 8.5
Q 18.4 7.85 16.4 7.65
L 16.35 7.65
Q 16.25 7.65 16.15 7.65
L 16.1 7.65
Q 13.1 7.35 6.1 7.35 2.85 7.35 -0.05 7.85
L -0.1 7.85
Q -2.65 8.4 -3.45 8.55 -3.55 8.6 -3.65 8.7 -3.75 8.8 -3.75 8.95
L -3.75 11.7
Q -3.75 11.85 -3.65 11.95 -3.55 12.05 -3.4 12.1 -2.4 12.4 -2.2 12.8 -2.2 12.85 -2.2 12.9
L -2.3 13.95 -2.3 14.1
Q -1.8 17.3 -0.95 19.65
L -0.95 19.6
Q -0.8 20.3 -0.4 21.15
L -0.35 21.15 -0.35 21.2
Q 0.15 22.35 0.9 23.85 1.7 25.5 5.25 26.1 7.65 26.55 10 26.35 10.2 26.35 10.45 26.3 10.95 26.35 11.8 26.4
L 11.85 26.4
Q 12.35 26.45 12.7 26.5
L 12.75 26.5
Q 13.1 26.5 13.25 26.5 16.25 26.5 17.8 25.75
L 17.85 25.75
Q 19.55 24.95 20.9 22.85
L 20.9 22.8
Q 21.75 21.3 22.3 18.25 22.3 18.2 22.3 18.15 22.3 18 22.35 17.85 22.8 15.1 23.35 13.4 23.45 13.15 23.5 12.95 23.9 12.4 24.8 12.4 25.65 12.4 26.1 12.6 26.15 12.65 26.35 12.75 27.1 14.6 27.6 17.95 27.6 18.1 27.65 18.3 27.65 18.35 27.7 18.4 28.2 21.4 29.1 22.85 30.35 25.05 32.15 25.8 33.75 26.55 36.7 26.55 36.8 26.55 37.15 26.55
L 37.2 26.55
Q 37.55 26.55 38.1 26.5 39 26.4 39.5 26.4 39.75 26.4 39.95 26.4 42.35 26.6 44.7 26.2 48.25 25.55 49.05 23.95 49.75 22.45 50.25 21.35 50.35 21.2 50.35 21.1 50.75 20.3 50.95 19.7
L 50.95 19.65
Q 51.75 17.35 52.25 14.15 52.25 14.1 52.25 14.05 52.15 13.05 52.05 13.05 52.1 12.95 52.15 12.9 52.35 12.45 53.3 12.15
M 48.2 19.15
Q 48.05 19.7 47.9 20.2 47.4 21.6 46.35 22.2 45.85 22.5 44.65 22.9 43.25 23.35 42.15 23.5 41.7 23.5 39.1 23.5 37.15 23.5 36.85 23.7
L 36.8 23.7
Q 33.4 23.6 31.55 21.7 30.2 20.25 29.8 17.95 29.7 17.1 29.7 16.2 29.7 15.5 29.85 14.7 30 13.9 30 13.4 31 11.9 32.85 11.4 33.3 11.25 33.95 11.15 35.95 10.85 39.6 10.85 44.5 10.85 46.05 11.25 48.35 11.9 48.95 14.2 48.65 15.95 48.2 19.15
M 17.05 11.35
L 17.1 11.35
Q 18.9 11.85 19.95 13.3 19.95 13.35 19.95 13.4 19.95 13.9 20.1 14.6 20.25 15.45 20.25 16.1 20.25 17 20.15 17.85 19.8 20.15 18.4 21.65 16.55 23.5 13.2 23.65 13.15 23.6 13.1 23.6 12.75 23.5 10.85 23.45 8.2 23.45 7.8 23.4 6.65 23.25 5.3 22.85 4.05 22.45 3.55 22.15 2.55 21.55 2.1 20.15 1.9 19.65 1.75 19.05
L 1.75 19.1
Q 1.25 15.95 1 14.1 1.6 11.8 3.95 11.2 5.45 10.75 10.35 10.75 14 10.75 16 11.1 16.65 11.2 17.05 11.35 Z"/>
</g>

<g id="tree_0_Layer4_0_FILL">
<path fill="#000000" fill-opacity="0.00392156862745098" stroke="none" d="
M 105.65 50.75
L 105.65 50.7
Q 99.528125 44.5888671875 91 44.6 82.3091796875 44.6033203125 76.25 50.75
L 76.25 50.7
Q 72.4880859375 54.5171875 71.05 59.25 63.6220703125 59.8671875 58.25 65.3
L 58.2 65.35
Q 52.1578125 71.3779296875 52.15 80.05 52.1509765625 83.6986328125 53.25 86.95 47.5513671875 92.8677734375 47.55 101.2 47.557421875 107.499609375 50.95 112.6 50.4568359375 114.720703125 50.45 117.05 50.4498046875 124.123046875 54.65 129.55 53.85625 131.351171875 53.85 133.5 53.84609375 137.5353515625 56.65 140.35
L 56.65 140.35
Q 59.56015625 143.2994140625 63.7 143.3 63.933203125 143.301171875 64.15 143.3 65.4853515625 145.5791015625 67.5 147.6 73.6716796875 153.7609375 82.2 153.75 82.4265625 153.75 82.6 153.75 83.62109375 154.023828125 84.65 154.25 85.08046875 154.7087890625 85.6 155.1 89.464453125 159.0560546875 94.95 159.05 100.4884765625 159.0560546875 104.35 155.05
L 104.35 155.05
Q 104.898046875 154.54609375 105.35 154 108.0267578125 154.700390625 111.05 154.7 119.5640625 154.701953125 125.7 148.65
L 125.7 148.65
Q 126.2166015625 148.183203125 126.65 147.7 127.2466796875 147.7482421875 127.9 147.75 131.619140625 147.743359375 134.25 145.15
L 134.25 145.15 134.3 145.1
Q 135.2255859375 144.1548828125 135.8 143.05 143.4021484375 142.4728515625 148.85 137.05
L 148.85 137.05
Q 155.00703125 130.93203125 155 122.3 154.983203125 115.92890625 151.65 110.95 152.0998046875 108.8189453125 152.1 106.5 152.096484375 97.8091796875 145.95 91.75
L 145.95 91.75
Q 144.77265625 90.5806640625 143.45 89.6 143.4591796875 89.4083984375 143.4 89.15
L 143.4 89.3 143.35 88.9
Q 141.26875 78.0955078125 132.95 69.7 123.6369140625 60.2017578125 110.75 58.85 109.2634765625 54.3912109375 105.65 50.75 Z"/>
</g>

<g id="mc_border_0_Layer0_0_FILL">
<path fill="#000000" fill-opacity="0.00392156862745098" stroke="none" d="
M -1.65 178.4
L -1.35 178.7 26.6 178.7 26.95 178.4 52.3 178.4 52.3 178.35 59.4 178.35 72.45 191.4 85.5 178.35 103.35 178.35 103.35 178.4 154.65 178.4
Q 162.208984375 178.4 162.2 170.9
L 162.2 1.95
Q 162.208984375 -5.55 154.65 -5.55
L -8.7 -5.55
Q -16.2 -5.55 -16.2 1.95
L -16.2 170.9
Q -16.2 178.4 -8.7 178.4
L -1.65 178.4 Z"/>
</g>

<g id="tree_oak_0_Layer1_0_FILL">
<path fill="#008A00" stroke="none" d="
M 30.95 128.55
Q 30.75 128.45 30.6 128.4
L 29.6 128.4
Q 29.45 128.5 29.45 128.6
L 29.6 128.7
Q 30.1 128.7 30.55 128.75 31.25 128.75 31.75 128.95 32.55 129.25 32.85 129.25
L 33.2 129.2 33.2 129
Q 32.05 128.85 30.95 128.55
M 37.95 129.7
Q 37.4 129.65 36.9 129.55
L 35.25 129.55 35.25 129.65 33.3 129.65
Q 33.15 129.65 33.15 129.8 33.15 129.95 33.2 129.95
L 36 129.95 36.2 129.9
Q 36.25 129.9 36.3 129.85 37.8 129.85 38.3 130 39 130.2 39.25 130.2
L 39.65 130.15 39.65 130
Q 38.3 129.75 37.95 129.7
M 32.2 129.7
Q 32.35 129.7 32.35 129.65
L 32.35 129.5
Q 31.8 129.1 30.7 129.1
L 30.25 129.1 30.3 129.4
Q 30.9 129.45 31.45 129.55 31.95 129.7 32.2 129.7 Z"/>

<path fill="#007400" stroke="none" d="
M 36.5 128.3
Q 36.5 128.35 36.5 128.4
L 37.05 128.4
Q 36.75 128.3 36.5 128.3
M 42.4 130.85
Q 43.35 130.9 44.7 131.05 43.65 130.85 42.5 130.6 40.75 130.2 39.65 130
L 39.65 130.15 39.25 130.2
Q 39 130.2 38.3 130 37.8 129.85 36.3 129.85 36.25 129.9 36.2 129.9
L 36 129.95 33.2 129.95
Q 33.15 129.95 33.15 129.8 33.15 129.65 33.3 129.65
L 35.25 129.65 35.25 129.55 36.9 129.55
Q 33.6 129.05 32.55 128.5
L 32.5 128.5
Q 32.026171875 128.3939453125 31.45 128.25 31.25 128.25 30.95 128.55 32.05 128.85 33.2 129
L 33.2 129.2 32.85 129.25
Q 32.55 129.25 31.75 128.95 31.25 128.75 30.55 128.75 30.3 128.8 29.9 128.8 30 128.9 30.1 129.05 29.55 128.95 28.8 128.95
L 28.8 129.15 29.75 129.7 30.4 129.7
Q 30.2 129.8 30.05 130
L 30.2 130.1
Q 38.05 130.35 38.3 130.35 39 130.35 39.45 130.3 39.55 130.35 39.65 130.4 40.65 130.9 41.5 130.9
L 42.4 130.85
M 30.75 129.65
Q 30.85 129.6 30.95 129.6 30.996875 129.646875 31.1 129.65
L 30.75 129.65
M 32.35 129.65
Q 32.35 129.7 32.2 129.7 31.95 129.7 31.45 129.55 30.9 129.45 30.3 129.4
L 30.25 129.1 30.7 129.1
Q 31.8 129.1 32.35 129.5
L 32.35 129.65
M 53.05 131.5
Q 53.4 131.5 53.7 131.5 54.8 131.5 54.85 131.5
L 59.3 131.5
Q 60.35 131.4 61.95 131.35
L 62.1 131.25
Q 63.05 131.2 63.55 131.1
L 66.1 131.1
Q 66.7 131 67.55 130.9 65.05 130.95 62.3 131 55.95 131.05 48 131.3 49.1 131.4 50.3 131.5
L 53.05 131.5 Z"/>

<path fill="#663300" stroke="none" d="
M 61.55 126.15
Q 61.7 126.95 61.85 127.75 61.95 127.75 62.1 127.75 62.1 127.55 62.1 127.3 62.1 127.2 61 121.7 61.15 123.7 61.55 126.15
M 44.55 93.95
Q 44.1 94 43.5 94.05
L 43.35 94.3
Q 44.45 98 46.8 103.85 47.95 106.7 47.95 109.9 47.95 111.7 47.4 115.6 47.45 116 47.45 116.7 47.35 120.1 46.9 121.65
L 46.9 123.35
Q 46.25 125.25 45.35 126.2 45.2 126.6 44.35 127.2 43.9 127.55 43.1 128.1 44.25 128.05 44.55 127.7
L 45.3 127.7
Q 45.7 127.4 45.85 127.25 47.25 127.35 49 127.45 49.7 127.45 49.8 126.95 50.05 127 50.35 127.05 52.5 127.35 55.9 127.55
L 54.95 125.7
Q 54.95 125.45 56.3 124.9 57.6 124.35 57.6 123.55 57.6 123.45 56.15 119.85 54.65 116.1 54.4 115.7 55.1 115.55 55.6 114.9 56.2 114.05 56.2 112.75 56.2 112.15 56.05 111.7 55.9 111.25 55.9 110.35 55.9 110.25 56.55 109.9 57.35 109.45 57.7 109.1 57.8 109 57.9 108.9 58.25 108.45 58.35 108.2 58.45 108 58.7 106.95 58.7 106.7 58.75 106.45
L 60.15 106.6
Q 60.25 106.45 60.35 106.35
L 60.75 104.65
Q 62.1 104.4 62.4 104.3 62.85 104.1 63.85 103.85
L 63 101.05
Q 62.45 101.15 61.9 101.2
L 61.55 101.2
Q 61.25 101.15 61 100.75 60.7 100.6 60.6 100.2 60.6 100.15 60.6 100.05 60.45 99.8 60.45 99.65 60.45 99.35 60.5 99.2 60.35 98.3 60.35 98.25 60.35 98 60.45 97.8 60.45 94.4 60.85 91.65
L 60.85 90.5 54.3 90.6
Q 54.3 90.85 54.3 91.15 54.15 94.35 54.1 96.8 54.35 97.05 54.45 97.2 54.45 97.75 54.7 98.8 54.95 99.8 54.95 100.2 54.95 100.45 54.8 104
L 53.65 104
Q 50.05 104.05 48.65 101.05 48.3 100.35 46.55 97.7 45.05 95.5 44.55 93.95 Z"/>

<path fill="#005801" stroke="none" d="
M 50.35 127.05
Q 50.05 127 49.8 126.95 49.7 127.45 49 127.45 47.25 127.35 45.85 127.25 45.7 127.4 45.3 127.7
L 44.55 127.7
Q 44.25 128.05 43.1 128.1 42.95 128.1 42.85 128.1 42.4 128.15 41.25 128.4
L 37.05 128.4 36.5 128.4 35.5 128.4
Q 35.1 128.35 32.1 128.1 32.2 128.35 32.45 128.45 32.4798828125 128.4798828125 32.5 128.5
L 32.55 128.5
Q 33.6 129.05 36.9 129.55 37.4 129.65 37.95 129.7 38.3 129.75 39.65 130 40.75 130.2 42.5 130.6 43.65 130.85 44.7 131.05 46.5 131.3 47.9 131.3 47.95 131.3 48 131.3 55.95 131.05 62.3 131 65.05 130.95 67.55 130.9 68.7 130.9 69.8 130.9 70 130.9 70.25 130.9 73.85 130.9 89.2 129.7
L 89.2 129.65
Q 87.25 129.2 76.55 128.5 66.4 127.8 62.2 127.75 62.15 127.75 62.1 127.75 61.95 127.75 61.85 127.75 58.5 127.65 55.9 127.55 52.5 127.35 50.35 127.05 Z"/>

<path fill="#4E3300" stroke="none" d="
M 69.6 95.95
Q 67.75 98.4 67.35 98.8 65.6 100.45 63 101.05
L 63.85 103.85
Q 62.85 104.1 62.4 104.3 62.1 104.4 60.75 104.65
L 60.35 106.35 60.35 106.4
Q 60.25 106.5 60.15 106.6
L 58.75 106.45
Q 58.7 106.7 58.7 106.95 58.45 108 58.35 108.2 58.25 108.45 57.9 108.9 57.8 109 57.7 109.1 57.35 109.45 56.55 109.9 55.9 110.25 55.9 110.35 55.9 111.25 56.05 111.7 56.2 112.15 56.2 112.75 56.2 114.05 55.6 114.9 55.1 115.55 54.4 115.7 54.65 116.1 56.15 119.85 57.6 123.45 57.6 123.55 57.6 124.35 56.3 124.9 54.95 125.45 54.95 125.7
L 55.9 127.55
Q 58.5 127.65 61.85 127.75 61.7 126.95 61.55 126.15 61.15 123.7 61 121.7 60.9 120.45 60.9 119.35 60.9 118 61.8 115 62.65 112.05 62.65 112
L 62.4 109.45
Q 62.4 108.85 62.85 108.3 63.1 107.95 63.45 107.7 63.95 107.05 64.95 106.1 66.75 104.5 67.45 104.2 69.1 103.4 70.3 102.2 70.75 101.7 72.1 100 73.1 98.6 74.1 95.65 74.2 95.2 74.65 94.05 74.7 93.55 74.7 93.1
L 72.15 93.1
Q 71.25 93.8 69.6 95.95
M 58.95 111.2
Q 58.9 111.15 58.85 111.1 58.95 110.95 59.1 110.85 59 111 58.95 111.2 Z"/>

<path fill="#7C4200" stroke="none" d="
M 45 93.9
Q 44.8 93.9 44.55 93.95 45.05 95.5 46.55 97.7 48.3 100.35 48.65 101.05 50.05 104.05 53.65 104
L 54.8 104
Q 54.95 100.45 54.95 100.2 54.95 99.8 54.7 98.8 54.45 97.75 54.45 97.2 54.35 97.05 54.1 96.8 54.15 94.35 54.3 91.15
L 53.45 91.2
Q 53.35 91.6 53.4 97.35 53.45 100.1 52.35 101.6 50.5 101.15 49.15 97.35 47.8 93.65 47.1 93.65 46.35 93.65 46.25 93.7 46.2 93.7 46.05 93.75 45.8 93.75 45.5 93.85 45.25 93.85 45 93.9 Z"/>
</g>

<g id="tree_oak_0_Layer0_0_FILL">
<path fill="#66A735" stroke="none" d="
M 59.1 16.9
L 59.1 16.95
Q 59.1 17.0234375 59.1 17.05
L 59.1 17.1
Q 59.2025390625 16.957421875 59.5 16.95 59.410546875 16.94921875 59.3 16.95 59.1982421875 16.9361328125 59.1 16.9 Z"/>

<path fill="#008201" stroke="none" d="
M 67.75 3.95
Q 68 3.8 68.4 3.8 78.3 5.25 79.1 5.6 80.1869140625 6.0416015625 82.6 6.4 76.0830078125 0 66.8 0 58.25 0 52 5.5 51.23828125 5.6072265625 50.5 5.75 51.9208984375 6.2 52.35 6.2 54.7 6.2 57.1 5 59.5 3.8 59.7 3.8 59.75 3.8 61.35 4.55 63.1 5.3 63.6 5.3 63.7 5.3 64.5 4.85 65.6 4.3 67.2 4.1 67.45 4.1 67.75 3.95
M 89.1 18.5
Q 88.857421875 17.1255859375 88.45 15.8 85.743359375 15.407421875 83.3 14.25 79.45 12.45 78.35 12.45 74.6 15.45 74.45 15.45 73.95 15.45 72.15 14.25 71.73359375 13.964453125 71.4 13.75 64.946875 17.09921875 61.25 17.05 60.164453125 16.7470703125 59.6 16.7 59.125390625 16.7029296875 59.1 16.9 59.1982421875 16.9361328125 59.3 16.95 59.410546875 16.94921875 59.5 16.95 59.2025390625 16.957421875 59.1 17.1
L 59.1 17.05
Q 59.1 17.0234375 59.1 16.95
L 59.1 16.9
Q 57.4763671875 16.75234375 56.2 15.3 55.8513671875 14.8892578125 55.5 14.55 54.4513671875 13.65 53.4 13.65 48 14.25 47.25 14.25 44.15 14.25 41.7 11.25 42.7162109375 11.25 43.75 9.95 43.8623046875 9.8642578125 43.95 9.75 44.73515625 8.703125 44.9 7.9 45 7.6396484375 45 7.4
L 47.65 7.4
Q 47.237890625 6.9689453125 46.85 6.55 39.25859375 8.6830078125 32.9 13.8 29.8970703125 14.48359375 27.25 15.95 27.058984375 18.011328125 26.1 19.25 25.5 20 24.9 20.55 24.9 22 25.3 22.3 26.35 23.05 30.9 22.95 30.9 24.9 29.4 28.65 29.4 29.55 31.6 30.5 33.5 31.35 34.5 31.35 36.65 36.15 36.9 36.45 37.55 37.35 39.45 37.35 40 37.35 42.2 36.15 44.4 35 45 34.35 48.5 38.25 48.95 38.65 49.95 39.45 52.05 39.45 52.75 39.45 55.75 38.1 58.75 36.75 59.7 36.75 62.55 36.75 63.9 35.85 65.3 34.95 66 34.95 66.2 34.95 69.25 36.15 72.35 37.35 73.1 37.35 73.55 37.35 77.15 34.95 79.1 34.95 83.75 37.05 84.85 37.05 85.95 33.6 87.25 29.65 90.8 28.05 92.9796875 27.08125 94.45 25.45 94.3953125 25.4458984375 94.35 25.45 92.15 21.75 89.1 18.5 Z"/>

<path fill="#009002" stroke="none" d="
M 76.7 10.35
Q 75.35 9.6 74.9 7.7 67.8 11.25 65.25 11.25 62.3 11.25 59.5 10.4 56.65 9.5 55.2 9.5 53.4 9.5 51.6 8.85 50.02265625 8.3013671875 49.35 7.4
L 47.65 7.4 45 7.4
Q 45 7.6396484375 44.9 7.9 44.73515625 8.703125 43.95 9.75 43.8623046875 9.8642578125 43.75 9.95 42.7162109375 11.25 41.7 11.25 44.15 14.25 47.25 14.25 48 14.25 53.4 13.65 54.4513671875 13.65 55.5 14.55 55.8513671875 14.8892578125 56.2 15.3 57.4763671875 16.75234375 59.1 16.9 59.125390625 16.7029296875 59.6 16.7 60.164453125 16.7470703125 61.25 17.05 64.946875 17.09921875 71.4 13.75 71.506640625 13.698828125 71.6 13.65 71.9 13.55 74.85 13.5 77.85 13 78.8 10.35
L 78.8 8.6
Q 78.2 8.55 77.9 8.65 77.35 8.9 77.3 10.05 77.45 10.35 76.7 10.35 Z"/>

<path fill="#005802" stroke="none" d="
M 98.25 88.8
Q 97.6 88.15 96.9 87.45 95.45 86.1 94.85 86.1 94.4 86.1 94 86.4 93.35 87.05 92.6 87.6 88.35 90.9 85.25 91.8 85 91.4 84.5 90.7 83.5 89.3 82.1 87.9 81.55 88.7 79 90.95 76.3 93.3 75.8 93.3 74.9 93.5 73.75 92.8 71.45 91.4 70.2 87 69.85 87 67.15 88.95 65.85 89.95 64.5 90.9 63.65 89.8 62.8 88.65 61.1 86.4 60.6 86.4 57.4 87.6 57.3 87.6 57.25 87.6 56.05 86.15 54.85 84.65 54.75 84.65 47.2 87.9 47.1 87.9 44.85 86.15 44.4 84.9 43.75 84.95 42.45 86.45 41.15 87.9 40.2 87.9 39.85 85.25 38.75 84.6 38.35 84.35 37.05 84.35
L 32.4 85.5
Q 32.15 85.5 30.35 84.2 28.55 82.85 27.45 82.85
L 20.75 86.4
Q 20.65 86.4 16.7 83.75 11.85 87.9 11.75 87.9 11.65 87.9 6.95 83.75 6.325 84.03125 5.85 84.2 6.2171875 84.6171875 6.6 85 13.25 91.65 22.65 91.65 27.9 91.65 32.3 89.6 38.5 94.95 46.9 94.95 51.25 94.95 55 93.55 61.35 99.35 70.1 99.35 76.6 99.35 81.85 96.15 89.2 101.55 98.8 101.55 110.95 101.55 119.5 92.95 127.226171875 85.2689453125 127.95 74.6 125.0603515625 77.75 124.35 77.75 122.6 77.75 122.1 78.95 121.55 80.15 119.1 80.15 117 78.95 116.55 78.95 116 79.8 115.2 80.9 113.6 83.1 112.35 84.35 110.85 82.85 110.25 82.85 105.9 85.8 104.85 85.8 103.15 85.8 101.6 87.3 100.05 88.8 98.25 88.8 Z"/>

<path fill="#006E00" stroke="none" d="
M 118.15 48
Q 118.15 38.65 111.5 32 110.893359375 31.393359375 110.25 30.85 109.35078125 32.9048828125 107.5 34.35 104.1 37 100.95 35.55 103.85 38.05 108.1 39.75 109.65 40.35 109.65 43.95 109.65 48.35 107.55 51.6 104.8 55.85 100.05 53.55 100.05 53.7 99.85 56.65 99.3 59.55 97.8 59.55 95.7 58.35 95.45 58.35 93.7 60.5 91.7 62.65 87.75 66.95 85.4 66.95
L 79.55 65.75
Q 78.25 65.75 76.55 67.05 74.45 68.9 73.15 69.95 67.95 74.15 61.35 74.15 57 74.15 55.45 71.3 53.85 68.45 50.55 68.45 50.35 68.45 48.55 70.4 46.45 72.35 44.4 72.35 41.1 72.35 39.75 70.95 37.85 68.3 35.7 65.75 34.2 65.75 32.9 66.8 32.25 67.35 31.8 67.85 30.25 67.85 28.45 65.15 26.7 62.45 25.95 62.45 25.1 62.45 23.05 64.1 21.05 65.75 18.35 65.75 12.7396484375 65.75 9 50.85 7.7685546875 51.8314453125 6.6 53 0 59.6 0 69 0 77.8546875 5.85 84.2 6.325 84.03125 6.95 83.75 11.65 87.9 11.75 87.9 11.85 87.9 16.7 83.75 20.65 86.4 20.75 86.4
L 27.45 82.85
Q 28.55 82.85 30.35 84.2 32.15 85.5 32.4 85.5
L 37.05 84.35
Q 38.35 84.35 38.75 84.6 39.85 85.25 40.2 87.9 41.15 87.9 42.45 86.45 43.75 84.95 44.4 84.9 44.85 86.15 47.1 87.9 47.2 87.9 54.75 84.65 54.85 84.65 56.05 86.15 57.25 87.6 57.3 87.6 57.4 87.6 60.6 86.4 61.1 86.4 62.8 88.65 63.65 89.8 64.5 90.9 65.85 89.95 67.15 88.95 69.85 87 70.2 87 71.45 91.4 73.75 92.8 74.9 93.5 75.8 93.3 76.3 93.3 79 90.95 81.55 88.7 82.1 87.9 83.5 89.3 84.5 90.7 85 91.4 85.25 91.8 88.35 90.9 92.6 87.6 93.35 87.05 94 86.4 94.4 86.1 94.85 86.1 95.45 86.1 96.9 87.45 97.6 88.15 98.25 88.8 100.05 88.8 101.6 87.3 103.15 85.8 104.85 85.8 105.9 85.8 110.25 82.85 110.85 82.85 112.35 84.35 113.6 83.1 115.2 80.9 116 79.8 116.55 78.95 117 78.95 119.1 80.15 121.55 80.15 122.1 78.95 122.6 77.75 124.35 77.75 125.0603515625 77.75 127.95 74.6 128.05 73.4705078125 128.05 72.3 128.05 60.15 119.5 51.6 118.8 50.9 118.05 50.25 118.15 49.15 118.15 48 Z"/>

<path fill="#007402" stroke="none" d="
M 95.5 25.4
Q 94.9494140625 25.4 94.45 25.45 92.9796875 27.08125 90.8 28.05 87.25 29.65 85.95 33.6 84.85 37.05 83.75 37.05 79.1 34.95 77.15 34.95 73.55 37.35 73.1 37.35 72.35 37.35 69.25 36.15 66.2 34.95 66 34.95 65.3 34.95 63.9 35.85 62.55 36.75 59.7 36.75 58.75 36.75 55.75 38.1 52.75 39.45 52.05 39.45 49.95 39.45 48.95 38.65 48.5 38.25 45 34.35 44.4 35 42.2 36.15 40 37.35 39.45 37.35 37.55 37.35 36.9 36.45 36.65 36.15 34.5 31.35 33.5 31.35 31.6 30.5 29.4 29.55 29.4 28.65 30.9 24.9 30.9 22.95 26.35 23.05 25.3 22.3 24.9 22 24.9 20.55 25.5 20 26.1 19.25 27.058984375 18.011328125 27.25 15.95 24.4794921875 17.4705078125 22.1 19.85 15.45 26.5 15.45 35.9 15.45 40.65 17.15 44.65 17.1 45.55 17.1 46.4 17.1 46.7 17.1 47.05 12.698828125 48.05703125 9 50.85 12.7396484375 65.75 18.35 65.75 21.05 65.75 23.05 64.1 25.1 62.45 25.95 62.45 26.7 62.45 28.45 65.15 30.25 67.85 31.8 67.85 32.25 67.35 32.9 66.8 34.2 65.75 35.7 65.75 37.85 68.3 39.75 70.95 41.1 72.35 44.4 72.35 46.45 72.35 48.55 70.4 50.35 68.45 50.55 68.45 53.85 68.45 55.45 71.3 57 74.15 61.35 74.15 67.95 74.15 73.15 69.95 74.45 68.9 76.55 67.05 78.25 65.75 79.55 65.75
L 85.4 66.95
Q 87.75 66.95 91.7 62.65 93.7 60.5 95.45 58.35 95.7 58.35 97.8 59.55 99.3 59.55 99.85 56.65 100.05 53.7 100.05 53.55 104.8 55.85 107.55 51.6 109.65 48.35 109.65 43.95 109.65 40.35 108.1 39.75 103.85 38.05 100.95 35.55 104.1 37 107.5 34.35 109.35078125 32.9048828125 110.25 30.85 104.0359375 25.4 95.5 25.4 Z"/>

<path fill="#009B00" stroke="none" d="
M 82.8 6.6
Q 82.71796875 6.51796875 82.6 6.4 80.1869140625 6.0416015625 79.1 5.6 78.3 5.25 68.4 3.8 68 3.8 67.75 3.95 67.45 4.1 67.2 4.1 65.6 4.3 64.5 4.85 63.7 5.3 63.6 5.3 63.1 5.3 61.35 4.55 59.75 3.8 59.7 3.8 59.5 3.8 57.1 5 54.7 6.2 52.35 6.2 51.9208984375 6.2 50.5 5.75 48.6447265625 6.074609375 46.85 6.55 47.237890625 6.9689453125 47.65 7.4
L 49.35 7.4
Q 50.02265625 8.3013671875 51.6 8.85 53.4 9.5 55.2 9.5 56.65 9.5 59.5 10.4 62.3 11.25 65.25 11.25 67.8 11.25 74.9 7.7 75.35 9.6 76.7 10.35 77.45 10.35 77.3 10.05 77.35 8.9 77.9 8.65 78.2 8.55 78.8 8.6
L 78.8 10.35
Q 77.85 13 74.85 13.5 71.9 13.55 71.6 13.65 71.506640625 13.698828125 71.4 13.75 71.73359375 13.964453125 72.15 14.25 73.95 15.45 74.45 15.45 74.6 15.45 78.35 12.45 79.45 12.45 83.3 14.25 85.743359375 15.407421875 88.45 15.8 86.869140625 10.669140625 82.8 6.6 Z"/>
</g>

<g id="apple_0_Layer0_0_FILL">
<path fill="#660000" stroke="none" d="
M 53.6 27.45
Q 52.7 27.75 51.85 28.05 50.2 28.6 48.55 29.25 45.2 30.6 41.65 31.25 33.3 32.75 26.8 29.4 25.2 28.6 23.6 27.9 18.4 25.55 13.7 27.65 12.7 28.1 11.65 28.2 7.7 28.6 3.75 28.15 3.35 28.1 3 28.05 2.95 28.8 2.85 29.6 2.35 33.65 4.75 36.55 9.3 42.1 14.55 45.8 16.7 47.35 19.75 47 23.7 46.6 27.7 46.85 30.75 47.05 33 44.95 35.9 42.25 39.7 42.75 45.9 43.6 48.3 37.85 49.2 35.6 50.65 33.55 52.65 30.7 53.6 27.45 Z"/>

<path fill="#AE0000" stroke="none" d="
M 51.95 9.85
Q 50.65 7.1 48.8 4.55 47.25 2.5 45.35 1.1 44.7 0.6 43.75 0.35 42.7 0.1 41.65 0.05 36.6 -0.3 31.85 1.1 30.2 1.6 28.8 2.7 27.4 3.8 24.7 3.6
L 23.7 4.6
Q 14.3 3.1 4.8 4.45 3.7 4.6 3 5.8 1.25 8.75 0.5 11.95 4.75 13.2 7.95 17.4 9.25 19.15 11.5 18.15 12.7 17.6 13.85 16.8 15.8 15.45 18.05 14.25 20.2 13.1 22.65 12.4 23.7 12.1 24.75 11.65 27 10.75 28 10.05 28.7 9.6 29.6 9.85 34.3 11.25 37.05 13.15 37.7 13.6 38.7 13.75 46.35 14.75 51.95 9.85 Z"/>

<path fill="#890000" stroke="none" d="
M 54.15 17.55
Q 53.6 13.5 51.95 9.85 46.35 14.75 38.7 13.75 37.7 13.6 37.05 13.15 34.3 11.25 29.6 9.85 28.7 9.6 28 10.05 27 10.75 24.75 11.65 23.7 12.1 22.65 12.4 20.2 13.1 18.05 14.25 15.8 15.45 13.85 16.8 12.7 17.6 11.5 18.15 9.25 19.15 7.95 17.4 4.75 13.2 0.5 11.95 -0.4 16 0.4 20.45 0.7 22.1 1.85 23.5 3.15 25.05 3 28.05 3.35 28.1 3.75 28.15 7.7 28.6 11.65 28.2 12.7 28.1 13.7 27.65 18.4 25.55 23.6 27.9 25.2 28.6 26.8 29.4 33.3 32.75 41.65 31.25 45.2 30.6 48.55 29.25 50.2 28.6 51.85 28.05 52.7 27.75 53.6 27.45 54.9 22.85 54.15 17.55 Z"/>
</g>

<path id="iconHolder_0_Layer0_0_1_STROKES" stroke="#D8E5B2" stroke-width="2" stroke-linejoin="round" stroke-linecap="round" fill="none" d="
M 0.85 5.05
L 0.85 -0.7
Q 0.85 -5.15 5.3 -5.15
L 62.1 -5.15
Q 66.55 -5.15 66.55 -0.7
L 66.55 5.05
M 66.55 59.55
L 66.55 66.65
Q 66.55 71.1 62.1 71.1
L 5.3 71.1
Q 0.85 71.1 0.85 66.65
L 0.85 59.55"/>
</defs>

<g transform="matrix( 1, 0, 0, 1, 0,0) ">
<use xlink:href="#Layer0_0_FILL"/>
</g>

<g id="tree" transform="matrix( 0.996673583984375, 0, 0, 0.996673583984375, 17.05,19.5) ">
<g transform="matrix( 1, 0, 0, 1, 9.65,12.15) ">
<g transform="matrix( 1, 0, 0, 1, 0,0) ">
<use xlink:href="#ring_0_Layer0_0_FILL"/>
</g>
</g>

<g id="actionAxe" transform="matrix( 1, 0, 0, 1, -12.5,137.95) ">
<g transform="matrix( 1, 0, 0, 1, 0,0) ">
<g transform="matrix( 1, 0, 0, 1, 0,0) ">
<g transform="matrix( 1, 0, 0, 1, 0,0) ">
<use xlink:href="#iconHolder_0_Layer0_0_FILL"/>

<use xlink:href="#iconHolder_0_Layer0_0_1_STROKES"/>
</g>
</g>
</g>

<g transform="matrix( 0.4797210693359375, 0.14617919921875, -0.14617919921875, 0.4797210693359375, 40.55,4.2) ">
<g transform="matrix( 1, 0, 0, 1, 0,0) ">
<use xlink:href="#iconAxe_0_Layer0_0_FILL"/>
</g>
</g>
</g>

<g id="actionAdd" transform="matrix( 1, 0, 0, 1, -12.5,-11.55) ">
<g transform="matrix( 1, 0, 0, 1, 0,0) ">
<g transform="matrix( 1, 0, 0, 1, 0,0) ">
<use xlink:href="#iconHolder_0_Layer0_0_FILL"/>

<use xlink:href="#iconHolder_0_Layer0_0_1_STROKES"/>
</g>
</g>

<g transform="matrix( 0.95770263671875, 0, 0, 0.95770263671875, 11.75,14.5) ">
<g transform="matrix( 1, 0, 0, 1, 0,0) ">
<use xlink:href="#actionCheck_0_Layer0_0_FILL"/>
</g>
</g>
</g>

<g id="actionDrag" transform="matrix( 1, 0, 0, 1, 141.5,137.4) ">
<g transform="matrix( 1, 0, 0, 1, 0,0) ">
<g transform="matrix( 1, 0, 0, 1, 0,0) ">
<use xlink:href="#iconHolder_0_Layer0_0_FILL"/>

<use xlink:href="#iconHolder_0_Layer0_0_1_STROKES"/>
</g>
</g>

<g transform="matrix( 1, 0, 0, 1, 0,0) ">
<use xlink:href="#actionDrag_mc_0_Layer0_0_FILL"/>
</g>
</g>

<g id="actionEye" transform="matrix( 1, 0, 0, 1, 140.45,-11.05) ">
<g transform="matrix( 1, 0, 0, 1, 0,0) ">
<g transform="matrix( 1, 0, 0, 1, 0,0) ">
<use xlink:href="#iconHolder_0_Layer0_0_FILL"/>

<use xlink:href="#iconHolder_0_Layer0_0_1_STROKES"/>
</g>
</g>

<g transform="matrix( 1, 0, 0, 1, 0,0) ">
<g transform="matrix( 1.063446044921875, 0, 0, 1.063446044921875, 6.7,17.35) ">
<g transform="matrix( 1, 0, 0, 1, 0,0) ">
<use xlink:href="#iconEye_0_Layer0_0_FILL"/>
</g>
</g>
</g>
</g>

<g transform="matrix( 1, 0, 0, 1, 0,0) ">
<use xlink:href="#tree_0_Layer4_0_FILL"/>
</g>

<g id="border" transform="matrix( 0.635101318359375, 0, 0, 0.635101318359375, 53.1,42.3) ">
<g transform="matrix( 1, 0, 0, 1, 0,0) ">
<use filter="url(#Filter_1)" xlink:href="#mc_border_0_Layer0_0_FILL"/>
</g>
</g>

<g id="tree_FL" transform="matrix( 1, 0, 0, 1, 42,39.25) ">
<g transform="matrix( 1, 0, 0, 1, 0,0) ">
<use xlink:href="#tree_oak_0_Layer1_0_FILL"/>
</g>

<g transform="matrix( 1, 0, 0, 1, 0,0) ">
<use xlink:href="#tree_oak_0_Layer0_0_FILL"/>
</g>
</g>

<g transform="matrix( 0.79815673828125, 0, 0, 0.79815673828125, 51.2,84.95) ">
<g transform="matrix( 0.396453857421875, 0, 0, 0.396453857421875, 23.3,-19.05) ">
<g transform="matrix( 1, 0, 0, 1, 0,0) ">
<use xlink:href="#apple_0_Layer0_0_FILL"/>
</g>
</g>

<g transform="matrix( 0.396453857421875, 0, 0, 0.396453857421875, 58.45,-32.15) ">
<g transform="matrix( 1, 0, 0, 1, 0,0) ">
<use xlink:href="#apple_0_Layer0_0_FILL"/>
</g>
</g>

<g transform="matrix( 0.396453857421875, 0, 0, 0.396453857421875, 85.75,23.75) ">
<g transform="matrix( 1, 0, 0, 1, 0,0) ">
<use xlink:href="#apple_0_Layer0_0_FILL"/>
</g>
</g>

<g transform="matrix( 0.396453857421875, 0, 0, 0.396453857421875, 16.85,15.65) ">
<g transform="matrix( 1, 0, 0, 1, 0,0) ">
<use xlink:href="#apple_0_Layer0_0_FILL"/>
</g>
</g>

<g transform="matrix( 0.396453857421875, 0, 0, 0.396453857421875, 88.65,-13.5) ">
<g transform="matrix( 1, 0, 0, 1, 0,0) ">
<use xlink:href="#apple_0_Layer0_0_FILL"/>
</g>
</g>
</g>
</g>
</svg>
