
<svg xmlns="http://www.w3.org/2000/svg" version="1.1" xmlns:xlink="http://www.w3.org/1999/xlink" preserveAspectRatio="none" x="0px" y="0px" width="150px" height="150px" viewBox="0 0 150 150">
<defs>
<g id="unknowntree_0_Layer2_0_FILL">
<path fill="#442403" stroke="none" d="
M 38.6 67
Q 38.35 66.65 37.65 66.6 37.4 66.6 37.15 66.55 36.65 66.45 36.15 66.35 35.9 66.35 35.65 66.2 35.8 67.6 36.05 68.95 36.15 69.7 35.15 69.6 35.05 69.6 35 69.7 34.75 70.95 35.6 71.25 35.8 71.35 35.85 71.45 36.3 72.35 37.05 73.1 37.15 73.2 37.2 73.45 37.278515625 73.6462890625 37.4 73.75 37.3046875 74.262890625 37.25 74.7 37.2 75.4 37.55 75.8 37.65 75.95 37.65 76.2 37.7 76.75 37.2 76.9 37.05 76.95 36.95 77.2 36.75 77.75 37.15 77.8 38.1 78 37.9 78.95 37.75 79.55 37.5 80.25 37.4 80.45 37.4 80.7 37.35 81.4 37.55 81.75 37.65 81.95 37.7 82.2 37.85 83.6 37.35 84.65 37.3 84.85 37.15 84.95 36.7 85.25 37 86.2 37.05 86.35 37.1 86.45 37.35 86.9 37.65 86.95 37.4294921875 87.280859375 36.85 87.25 36.6515625 87.2896484375 36.4 87.25 36 87.15 35.9 87.65
L 35.9 87.65 35.85 87.65
Q 35.8109375 87.7 35.65 87.7 35.1 86.9 34.9 85.95 34.85 85.65 34.45 85.35 34.3 85.2 34.1 85 33.35 83.95 32.6 83.3 32.1 82.9 31.4 82.85 31.2064453125 82.85 31.05 82.7
L 30.5 82.7 30.45 85.8
Q 30.7 83.95 30.75 82.75
L 30.75 82.75
Q 31.36875 83.1736328125 33.8 87.55 34.253515625 88.3921875 34.8 89.1 34.8966796875 89.2248046875 35 89.35 36.47109375 91.19921875 38.55 92.1
L 38.55 76.05
Q 38.6 75.65 39.15 75.4 39.65 75.65 39.8 76.05
L 39.8 92.25
Q 40 92.55 40.05 93 40.1 93.35 40.1 93.8 40.1 94.130078125 40.05 94.45 39.915625 95.7716796875 39.15 96.9
L 39.15 97.1
Q 39.8 97.35 40.1 97.85 40.046484375 98.170703125 39.75 98.3 39.545703125 98.45 39.15 98.45
L 39.15 120.9
Q 39.25 121.05 39.3 121.15
L 44.45 121.4
Q 44.45 121.35 44.45 121.2 43.95 121.2 43.65 119.55 43.2 118.8 43.2 118.3 43.2 117.9 43.4 117.75 43.3 116.5 43.2 114.95 44.15 105.95 44.15 104.25 44.15 103.12109375 43.55 98.65 43.5662109375 98.5259765625 43.55 98.4 43.366015625 96.840234375 43.1 94.9
L 43.1 94.85
Q 42.9 93.6 42.8 92.55 42.2798828125 89.3373046875 42.05 88.05 42.0484375 87.8755859375 42 87.7
L 41.95 87.25
Q 41.95 87.2 41.95 87.05
L 43.2 87.05 43.2 87.15
Q 43.2484375 87.3666015625 43.3 87.85 43.48515625 89.0962890625 43.95 92.35 44.15 93.5 44.35 94.9 44.36171875 94.9892578125 44.35 95.05 44.469921875 95.8298828125 44.55 96.5 44.6806640625 97.53671875 44.8 98.4 45.4 103.30234375 45.4 104.4 45.4 106.480078125 44.85 111.35 44.6943359375 113.06875 44.45 115.1 44.45 116.05 44.8 118.3 45.6 119.35 45.7 121.05 45.7 121.2 45.7 121.4
L 45.7 122.6
Q 45.6 123.1 44.95 123.1 42.89296875 122.7634765625 39.8 122.55 38.758984375 122.500390625 37.6 122.45 37 122.2 37 121.2 37.3 119.55 37.3 118.4 37.5 118.4 37.9 118.1
L 37.9 97.6
Q 36.484375 95.99140625 33.8 91.55 33.6083984375 91.2560546875 33.4 90.9 32.079296875 88.6859375 30.45 85.8
L 30.4 87.45
Q 30.5287109375 87.5572265625 30.6 87.7 30.75 87.85 30.85 87.95 31.35 88.3 31.5 88.8 31.55 88.9 31.6 88.95 31.7 89 31.7 89.05 31.75 89.2 31.75 89.3 31.8 89.45 31.85 89.55 31.95 89.65 31.95 89.7 32.1 90 32.1 90.45 32.1 91.019140625 32.05 91.6 32.2998046875 91.819140625 32.55 92.05 32.9 92.35 33.25 92.6 33.6 92.9 33.5 93.7 33.4 94.7 33.85 95.25 34.15 95.6 34.5 95.85 34.65 95.95 34.9 96 35.15 96.1 35.35 96.25 35.7 96.5 35.75 97.2 35.8 97.35 35.85 97.5 36.05 97.95 36.35 98.25 36.7 98.5 36.75 99.2 36.8 99.35 36.9 99.45 37.128515625 99.6212890625 37.2 99.85 37.3095703125 100.2236328125 37 100.75 36.9 100.95 36.85 101.2 36.35 102.95 36.85 104.7 36.9 104.95 36.9 105.2 36.8 106.2 36.7 107.2 36.65 107.7 36.85 108 37.25 108.75 37.25 109.7 37.3 109.85 37.35 110 37.75 110.85 37.7 112.2 37.65 113.5 37.5 114.7 37.4 115.35 37.4 115.95 37.4 116.95 37.15 117.9 37.15 117.95 36.9 118 35.65 118.4 35.9 119.95 36.1 120.9 35.6 121.1 35.4 121.2 35.15 121.25 34 121.55 33.45 122.35 33.4 122.45 33.3 122.6 33.15 122.7 33.1 122.95 33.05 123.1 32.9 123.2 32.8 123.35 32.65 123.45 33.85 123.55 34.65 122.9 34.95 122.65 35.65 122.7 36.5 122.8 37.05 123.35 37.15 123.45 37.4 123.5 38.2 123.65 38.5 123.25 38.8 122.85 39.65 123.05 39.8 123.1 39.9 123.1 40.4 123.2 40.85 123.35 41.05 123.45 41.2 123.65 41.4 123.85 41.65 123.85 43.25 123.95 44.9 123.95 45.75 123.95 46.65 123.85 46.8 123.85 46.9 123.7 46.95 123 46.75 122.65 46.65 122.45 46.65 122.2 46.68046875 121.408203125 46.55 120.8 46.45625 120.4126953125 46.3 120.1 46.15 119.85 46.2 119.45 46.3 118.9 46.1 118.75 45.9 118.6 45.9 118.2 45.95 117.5 45.75 117.15 45.65 116.95 45.65 116.7 45.8 114.6 45.5 112.7 45.4 112.1 45.5 111.45 45.7 109.85 46.25 108.4 46.4 108.1 46.45 107.7 46.8 105.3 46.7 102.7 46.65 101.3 46.5 99.95 46.4 99.35 46.3 98.7 46.3 98.6 46.15 98.45 45.4041015625 97.45546875 45.25 96.35 45.173828125 95.7908203125 45.25 95.2 45.323828125 94.6158203125 45.55 94 45.65 93.7 45.8 93.4 45.9 93.2 45.95 92.95 46.05 91.85 45.6 90.95 45.25 90.35 45.35 89.2 45.383203125 88.60078125 45.45 88 45.4666015625 87.7341796875 45.5 87.45 45.55 87.35 45.6 87.15 46.05 86.25 46.6 85.4 47.05 84.7 46.9 83.7 46.7 82.75 47.2 82.55 47.85 82.2 48.65 82.1 48.8 82.1 48.9 81.95 49.15 81.7 49.55 81.5 49.9 81.35 50.05 80.9 50.15 80.7 50.25 80.5 50.3 80.35 50.3 80.2 50.4 79.7 50.3 79.2 50.3 79.1 50.1 79 49.4 78.7 48.65 78.45 49.7 76.85 50.9 75.95 51.55 75.4 51.5 74.45 51.5 73.55 51.65 72.7
L 51.2 73.05
Q 51.05 73.2 50.95 73.45 50.7 74.25 49.7 74 49.55 73.95 49.4 73.7 49.15 72.95 47.9 73.25 47.127734375 73.3994140625 46.55 73.2 46.026171875 72.9771484375 45.7 72.4 45.35 71.75 45 71.35 44.35 70.75 43.65 70.55 43.3 70.45 42.9 70.5 41.7 70.75 41.1 70 39.75 68.3 38.6 67
M 45.25 75.8
Q 45.38515625 75.8712890625 45.5 75.9
L 44.55 76.05
Q 44.7 75.9 45.1 75.7 45.18515625 75.7638671875 45.25 75.8 Z"/>

<path fill="#663300" stroke="none" d="
M 45.5 75.9
Q 45.38515625 75.8712890625 45.25 75.8 45.18515625 75.7638671875 45.1 75.7 44.7 75.9 44.55 76.05
L 45.5 75.9
M 39.8 76.05
Q 39.65 75.65 39.15 75.4 38.6 75.65 38.55 76.05
L 38.55 92.1
Q 36.47109375 91.19921875 35 89.35 34.8966796875 89.2248046875 34.8 89.1 34.253515625 88.3921875 33.8 87.55 31.36875 83.1736328125 30.75 82.75
L 30.75 82.75
Q 30.7 83.95 30.45 85.8 32.079296875 88.6859375 33.4 90.9 33.6083984375 91.2560546875 33.8 91.55 36.484375 95.99140625 37.9 97.6
L 37.9 118.1
Q 37.5 118.4 37.3 118.4 37.3 119.55 37 121.2 37 122.2 37.6 122.45 38.758984375 122.500390625 39.8 122.55 42.89296875 122.7634765625 44.95 123.1 45.6 123.1 45.7 122.6
L 45.7 121.4
Q 45.7 121.2 45.7 121.05 45.6 119.35 44.8 118.3 44.45 116.05 44.45 115.1 44.6943359375 113.06875 44.85 111.35 45.4 106.480078125 45.4 104.4 45.4 103.30234375 44.8 98.4 44.6806640625 97.53671875 44.55 96.5 44.469921875 95.8298828125 44.35 95.05 44.36171875 94.9892578125 44.35 94.9 44.15 93.5 43.95 92.35 43.48515625 89.0962890625 43.3 87.85 43.2484375 87.3666015625 43.2 87.15
L 43.2 87.05 41.95 87.05
Q 41.95 87.2 41.95 87.25
L 42 87.7
Q 42.0484375 87.8755859375 42.05 88.05 42.2798828125 89.3373046875 42.8 92.55 42.9 93.6 43.1 94.85
L 43.1 94.9
Q 43.366015625 96.840234375 43.55 98.4 43.5662109375 98.5259765625 43.55 98.65 44.15 103.12109375 44.15 104.25 44.15 105.95 43.2 114.95 43.3 116.5 43.4 117.75 43.2 117.9 43.2 118.3 43.2 118.8 43.65 119.55 43.95 121.2 44.45 121.2 44.45 121.35 44.45 121.4
L 39.3 121.15
Q 39.25 121.05 39.15 120.9
L 39.15 98.45
Q 39.545703125 98.45 39.75 98.3 40.046484375 98.170703125 40.1 97.85 39.8 97.35 39.15 97.1
L 39.15 96.9
Q 39.915625 95.7716796875 40.05 94.45 40.1 94.130078125 40.1 93.8 40.1 93.35 40.05 93 40 92.55 39.8 92.25
L 39.8 76.05
M 35.7 91.9
Q 35.75 91.9 37 92.55 37.85 93 38.35 93.1 38.55 93.15 38.75 93.15 38.8 93.15 38.85 93.15 39.25 93.8 38.9 94.65 38.85 94.85 38.8 95.05 38.8 94.4 37.65 94 36.6 93.55 36.05 92.85 35.55 92.3 35.7 91.9 Z"/>

<path fill="#522B03" stroke="none" d="
M 37 92.55
Q 35.75 91.9 35.7 91.9 35.55 92.3 36.05 92.85 36.6 93.55 37.65 94 38.8 94.4 38.8 95.05 38.85 94.85 38.9 94.65 39.25 93.8 38.85 93.15 38.8 93.15 38.75 93.15 38.55 93.15 38.35 93.1 37.85 93 37 92.55 Z"/>
</g>

<g id="unknowntree_0_Layer1_0_FILL">
<path fill="#066B08" stroke="none" d="
M 62.6 79.55
Q 62.6642578125 79.616796875 62.7 79.7 63.2 80.8 64.15 80.95 64.9 81.05 65.4 80.45 65.4326171875 80.401171875 65.45 80.35 64.83125 80.1583984375 64.35 79.5 64.15 79.2 63.9 79.2 63.262890625 79.263671875 62.6 79.55
M 66.95 75.65
Q 66.9236328125 75.638671875 66.9 75.6 66.9267578125 75.6482421875 66.95 75.65
L 66.95 75.65
M 77.3 76.95
Q 77.3 76.768359375 77.35 76.55 76.465234375 76.3767578125 75.65 75.85 75.648046875 76.0171875 75.6 76.2 75.55 76.45 75.35 76.6 74.05 77.75 72.15 77.4 71.6 77.3 71.7 77.7 72 79.4 70.4 79.3 69.6 79.2 68.85 78.8 68.65 78.7 68.5 78.8 67.9333984375 79.3193359375 67.45 79.85 68.297265625 80.547265625 69.05 81.3 69.3 81.6 69.65 81.7 70.4 81.9 71.15 81.9 71.55 81.9 71.6 81.2 71.65 80.85 71.65 80.45 72.9 81.15 74.3 80.75 74.55 80.7 74.6 80.2 74.65 79.6 74.5 79 74.4 78.6 74.15 78.2 75.15 78.7 76.35 78.4 76.65 78.35 76.95 78 77.35 77.55 77.3 76.95
M 56.3 80.25
Q 56.15 80.1 56.1 79.9 55.7158203125 78.939453125 54.95 78.45 54.9310546875 78.4810546875 54.9 78.45 54.4048828125 78.3576171875 54.05 78.05 53.35 77.4 52.4 76.9 52.283984375 76.8337890625 52.15 76.75 51.9009765625 76.666796875 51.6 76.6 51.2 76.5 51.05 76.9 50.9 77.35 50.85 77.75 50.7 78.7 49.65 78.4 49.4 78.35 49.3 78.15 48.8451171875 76.9955078125 47.85 76.6 48.62578125 77.8859375 47.8 79.4 47.45 80.15 46.65 80.1 46.4 80.1 46.25 79.85 45.8 79.2 45.65 79.7 45.549609375 79.800390625 45.45 79.9 45.662109375 80.3044921875 45.95 80.65 46.45 81.15 47.4 81.2 47.95 81.2 48.3 81.75 48.55 82.2 48.65 82.7 48.95 83.85 49.9 83.9 50.55 83.95 51.1 84.15 51.9 84.45 52.6 85 53.55 85.7 54.65 85.7
L 54.75 85.5
Q 55.1 84.85 54.9 83.95 55.9 85 57.6 85.75 57.8 85.85 57.9 85.85 59.45 86.2 59.2 84.45 59.15 84 58.9 83.7 61 84.85 63.35 84.45 63.55 84.45 63.55 84.2 63.7 83.1 63.15 82.7 63.05 82.6 62.9 82.45 62.45 82.15 62.65 81.2 62.85 80.1 61.65 80.35 61.15 80.45 60.9 80.7 60.9228515625 80.50625 60.9 80.3 60.0689453125 80.44765625 59.75 79.4 59.55 78.8 58.95 79.05 58.55 79.2 58.4 79.55 58.1 80.25 57.4 80.45 56.6 80.65 56.3 80.25
M 66.95 75.65
L 66.95 75.7
Q 67.05 75.95 67.15 76.2 67.12890625 75.8826171875 66.95 75.65 Z"/>

<path fill="#086B08" stroke="none" d="
M 54.95 78.45
Q 54.931640625 78.4677734375 54.9 78.45
L 54.9 78.45
Q 54.9310546875 78.4810546875 54.95 78.45
M 87.55 48.25
Q 87.65 48.7 87.7 49.2 87.8 50.15 87.1 50.65 86.9 50.85 86.65 50.8 85.85 50.8 85.65 51.2 87.4 52.7 86.65 54.7 86.55 54.95 86.35 55 85.4 55.2 84.4 55.2 85.1 56.1 85.2 57.2 85.4 59.65 82.9 59.25 82.65 59.2 82.65 59.25 82.4 60.05 82.4 60.95 82.4 61.35 82.3 61.65 81.75 63.05 79.9 62.7
L 79.1 61.45
Q 77.4529296875 62.2234375 76.35 63.15 76.3 63.15 76.3 63.2 76.15 63.35 76 63.5 75.95 63.5 75.9 63.55 75.7 63.75 75.55 63.95 75.2 64.35 75.15 64.7 75.1 64.8 75.1 64.9
L 75.1 64.95
Q 75.1 65.6 75.6 66 75.05 66.55 73.45 66.8 71.5 67.2 71 67.3
L 70.8 67.35
Q 70.05 67.55 69.6 67.9 68.2 69 69.35 71.5
L 60.6 71.6
Q 60.35 71.65 60.25 71.7 60.1 71.75 60.1 72.15 60.1 72.3 60.8 73
L 57.1 73.1 56.25 71.4
Q 55.15 71.8 53.55 71.7 51.526171875 71.3544921875 50.55 71.25
L 50.55 71.25
Q 50.05 71.2 49.85 71.2 45.85 72.6 45 72.6 43.85 72.6 43.2 72.15 42.8 71.75 42.75 71.7 37.85 70.45 35.65 69.45 32 67.8 31.35 65.5
L 24.45 60.7
Q 24.25 60.85 23.85 60.85 23.45 60.85 23.2 60.7 22.9 60.55 22.75 60.2 22.6 59.6 22.6 59.55
L 22.65 58.75 16.4 56.5
Q 16.35 56.55 16.15 56.6 15.95 56.6 15.65 56.6
L 14.75 56.5 13.25 56.6
Q 13.25 56.8 13.15 56.9 13 57.05 12.75 57.1
L 12.25 56.85 5 55.45
Q 5 56 4.7 56.15 4.25 56.45 2.75 56.5
L 2.75 56.95 -1.35 56.95
Q -1.7 56.95 -2.1 57 -2.45 57.1 -2.85 57.1 -4.05 57.15 -4.3 58.2 -4.35 58.45 -4.25 58.65 -3.4 60.65 -2.6 62.2 -2.6 62.35 -2.65 62.35 -2.85 62.45 -3.1 62.5 -3.55 62.65 -3.4 63.45 -3.35 64.05 -2.95 64.55 -2.65 64.9 -1.85 64.75 -1.6 64.7 -1.4 64.6 -1.05 64.4 -0.35 64.45 -0.35 64.95 -0.25 65.45 0.2 67.5 2.15 68.45 1.9 68.45 1.65 68.4 1 68.3 0.9 68.7 0.6 70.3 1.9 71 2.05 71.1 2.15 71.1 2.8 71.2 3.4 71.2 3.4513671875 71.2 3.5 71.2 3.4 70.25 3.7 69.5 3.8 69.35 3.9 69.3 4.3 69.2 4.65 69.15 5.95 68.9 6.3 70 6.65 71 7.15 71.45 7.15 71.1 7.15 70.7 7.15 70.45 7.25 70.25 7.4 69.95 7.7 69.85 8.15 69.7 8.65 69.65 9.55 69.55 9.65 70.2 9.9 71.45 10.7 72.4 10.9 72.7 11.2 72.75 11.4 72.85 11.45 72.65 11.4939453125 72.5345703125 11.55 72.4 11.9875 71.6494140625 13.1 72.05 14.1 72.35 14.65 72.95 14.75 71.9 15.2 71 15.2115234375 70.9771484375 15.2 70.95 15.4201171875 70.59140625 15.75 70.45 15.821484375 70.4248046875 15.9 70.4 15.83828125 69.53203125 16.9 69.65 17.4 69.7 17.8 69.9 18.4439453125 70.2623046875 19.1 70.55 19.098046875 70.4248046875 19.15 70.2 19.3 69.6 19.85 69.15 20.75 68.3 21.55 69.25 22.1 69.9 22.9 69.95 23.15 69.95 23.3 69.85 23.4 69.7 23.5 69.5 23.65 69.2 23.85 68.9 24.05 68.7 24.25 68.6 26.25 67.6 27.6 69.25 27.9 69.6 28.25 69.7 28.9 69.95 29.65 69.85 29.9 69.85 29.9 69.65 30 69.05 30.65 69.2 30.8 69.35 30.8 69.45 31.1 71.1 30.4 72.45 30.3 72.7 30.1 72.85 29.4279296875 73.47734375 29 73.05 29.068359375 73.155078125 29.1 73.25 29.3 73.6 29.5 73.85 30.0439453125 74.477734375 30 75.35 30.9123046875 75.3638671875 31.7 76.25 31.7759765625 76.3427734375 31.85 76.45
L 28.45 76.45
Q 26.6625 76.208203125 25.15 75.2 25.05 75.45 25 75.7 25 76.75 24.65 77.7 24.55 77.95 24.4 77.95 22.9 78.05 21.85 76.75 21.65 76.45 21.35 76.35 20.4 75.95 20.25 76.7 20.15 77.1 20.05 77.4 19.9 77.85 19.7 78.25 19.5580078125 78.5341796875 19.25 78.45
L 19.5 79.7
Q 20.2736328125 79.5978515625 20.65 80.2 20.8 80.45 20.95 80.65 22.15 81.8 23.45 80.75 23.65 80.6 23.75 80.4 24.1 79.55 24.65 79.2 24.9 79.45 25.05 79.75 25.45 80.5 25.9 80.65 26.15 80.7 26.3 80.6 26.95 80 27.6 79.65 27.8 79.6 27.85 79.6 28.5892578125 79.8310546875 29.05 80.55 29.112109375 80.6353515625 29.15 80.7 29.4 80.7 29.4 80.65 29.55 80.2 29.85 79.9 30.05 79.7 30.25 79.6 31.65 78.75 32.9 79.75 33.15 79.95 33.45 80.1 33.65 80.2 33.85 80.1 34.4 79.75 35.15 79.2 35.3 79.1 35.4 79.1 35.55 79.1 35.65 79.15 36.85 79.75 37.7 79.3 37.767578125 79.2662109375 37.8 79.25 37.73515625 79.25 37.65 79.25 36.05 79.15 35.85 77.7 35.743359375 77.059765625 35.95 76.55 35.275 76.5400390625 35.1 75.7 34.941796875 74.8861328125 35.25 74.45 35.1974609375 74.4255859375 35.15 74.4 34.2 73.85 33.65 73.5 33.4 73.35 33.35 73.15 33.15 72.6 33.25 71.95 33.3 71.7 33.45 71.65 33.95 71.45 34.45 71.6 34.65 71.7 34.75 71.8 35.25 72.45 35.4 71.95 35.4 71.85 35.4 71.7 35.4 71.45 35.45 71.45 36.45 71.2 37.4 71.75 37.55 71.85 37.7 71.9 38.65 72.3 39.1 73.2 40 75 41.15 75.95 41.2 75.1 41.6 74.45 41.8 74.2 41.85 74.2 42.75 74.3 43.7 75.1 44.55 75.8 44.9 75.2 45.05 74.95 45.15 74.7 45.85 73.5 47.1 74.5 47.8 75.1 47.8 75.95 47.8 76.251953125 47.5 76.15 47.5931640625 76.254296875 47.7 76.4 47.782421875 76.5111328125 47.85 76.6 48.8451171875 76.9955078125 49.3 78.15 49.4 78.35 49.65 78.4 50.7 78.7 50.85 77.75 50.9 77.35 51.05 76.9 51.2 76.5 51.6 76.6 51.9009765625 76.666796875 52.15 76.75 52.2263671875 76.5658203125 52.4 76.45 52.8 76.6 53.1 76.8 53.7 77.2 54.4 77.35 55.6 77.65 55.45 76.45 55.25 74.75 56.6 75.55 57.7 76.25 58.95 76.6 59.65 76.85 60.4 77 61.1 77.15 61.15 76.7 61.15 75.8 61.05 74.95 61 74.4 61.4 74.45 63.05 74.5 64.65 75 65.4 75.2 66.15 75.3 66.4423828125 75.34609375 66.65 75.45 66.740234375 75.508203125 66.8 75.55
L 66.85 75.6
Q 66.8748046875 75.614453125 66.9 75.6 66.9236328125 75.638671875 66.95 75.65 68.387890625 76.4693359375 70.15 76.65 70.9 76.7 71.65 76.65 72.1 76.6 72.1 75.95 72.1322265625 75.1416015625 72.25 74.35 72.2765625 74.23046875 72.3 74.1
L 72.25 74.05
Q 72.216015625 74.025390625 72.1 74 72.0314453125 73.95 71.9 73.95 71.8 73.95 71.7 73.9 71.65 73.85 71.65 73.7 71.85 73.15 72.4 72.9 72.55 72.85 72.55 72.7 72.8 71.95 73.4 71.2 73.65 70.95 73.95 70.85 75.3 70.4 76.05 71.5
L 76.4 71.95
Q 76.25 71.3 76.9 71.4 77.3 71.45 77.45 71.65 78.15 72.35 78.05 73.45 78.05 73.85 77.8 74.15 77.65 74.35 77.5 74.55 76.75 75.75 75.4 74.95 75.7634765625 75.1921875 75.65 75.85 76.465234375 76.3767578125 77.35 76.55 77.3703125 76.5935546875 77.4 76.6 78.8 76.9 79.3 75.4 79.45 75 79.85 74.65 79.9 74.6 79.9 74.45 80.65 76.05 82.4 75.85 82.55 75.85 82.6 75.7 83.1 74.85 83.4 73.95 83.8 73.7 84.15 74.2 85.1 75.45 86.65 75.35 87.65 75.35 88.65 75.5 90.5 75.85 90.6 74.2 90.65 73.45 90.65 72.7 91.2 73 91.9 72.95 92.3 72.95 92.5 72.75 93.0279296875 72.366015625 93.35 71.75 93.898828125 72.0744140625 94.45 72.35 94.9 72.6 95.2 72.25 95.8 71.75 96.1 71.15 96.5 70.3 96.4 69.2 96.4 68.95 96.3 68.75
L 96.25 68.7
Q 97.697265625 68.8802734375 98.85 68.4 99.05 68.35 99.05 68.2 99.15 67.2 99.15 66.2 99.15 65.85 99.05 65.45 99.05 65.35 98.9 65.2 99.75 65.2 100.45 65.6 100.65 65.7 100.9 65.75 101.65 65.8 101.5 64.95 101.4 64.35 101.6 63.8 101.65 63.7 101.9 63.7 102.9 63.7 102.6 62.45 102.4966796875 61.9337890625 102.2 61.65 102.7353515625 61.897265625 103.05 61.15 103.15 60.95 103.2 60.7 103.346875 59.2013671875 102.85 58.35 102.1953125 58.2822265625 101.9 57.95 102.0462890625 57.7671875 102.15 57.55 102.9232421875 56.2671875 101.65 54.95 101.4 54.7 101.1 54.65 99.9 54.45 98.65 54.45 99.8 53.05 98.15 51.95 97.65 51.6 97.1 51.5 95.5 51.2 93.9 51.2 94.6134765625 49.7310546875 93.4 48.8 93.1970703125 48.610546875 92.9 48.45 92.4 48.2 91.9 48.2 91.05 48.15 90.15 48.25 89.1 48.4 88.85 47.75 88.8 47.6 88.65 47.55 87.8546875 47.371484375 87.15 47.45 87.4318359375 47.816796875 87.55 48.25
M 13.75 60.6
Q 14.25 59.9 14.75 59.6 14.85 59.65 14.95 59.7 15.05 59.75 15.15 59.75 15.25 59.8 15.25 60.05 15.25 60.1 15.25 60.2
L 15.25 60.5
Q 15.2 60.6 15.15 60.65 15.1 60.7 15 60.75 14.8 60.85 14.5 60.85 14.1 60.85 14 60.8 13.9 60.7 13.75 60.6
M 17.75 62.95
L 17.75 63.05 17.65 63.45
Q 17.75 63.5 17.75 63.55
L 17.7 63.6
Q 17.55 63.6 17.25 63.6 16.9 63.6 16.85 63.55 16.8 63.4 16.75 63.35 16.75 62.95 16.9 62.7
L 16.9 62.65
Q 16.95 62.55 17 62.55 17.1 62.4 17.25 62.35 17.5 62.45 17.65 62.6 17.75 62.75 17.75 62.95
M 18.45 64.9
Q 18.6 64.75 18.7 64.65 18.75 64.6 18.8 64.6
L 18.85 64.55
Q 18.95 64.45 19 64.45 19.05 64.4 19.1 64.35 19.35 64.5 19.5 64.7 19.6 64.95 19.6 65.25
L 19.55 66
Q 19.5 66 19.5 66.05 19.05 66.1 18.25 66.1 18.2 66.1 18.15 66.05 18 66 18 65.65 18 65.4 18.45 64.9
M 93 60
Q 93.35 59.55 93.9 59.55 95.6 59.45 97.1 60 97.3 60.1 97.4 60.1 98.15 60.1 97.95 60.95 97.9 61.35 97.8 61.65 97.65 62.1 97.45 62.5 97.3 62.85 97 63.05 96.55 63.5 96.45 63.95 96.4 64.2 96.3 64.4 96.15 64.7 96 65 95.5 65.9 93.9 65.75 93.55 65.7 93.2 65.8 92.8 65.9 92.6 66.7 92.55 67.1 92.3 67.4 92 67.85 91.4 67.8 90.4 67.75 89.4 67.9 89.15 67.95 88.95 67.85 88.55 67.7 88.3 67.35 87.95 66.75 87.2 67.05 85.9 67.6 84.65 66.95 84.4 66.85 84.3 66.65 84.15 66.35 84.15 65.95 84.15 65.6 84.3 65.25 84.45 64.95 84.9 64.75 85.15 64.7 85.3 64.8 85.7 65.1 86.4 65.2 86.65 65.2 86.8 65.1 87.4 64.6 87.9 63.45 88.05 63.2 88.15 63.2 90.2 63.4 92.15 64.2 92.15 63.6 92.15 62.95 92.15 62.6 92.35 62.4 92.3736328125 62.3763671875 92.4 62.35 92.37109375 60.9193359375 93 60
M 36.6 76.45
Q 36.65 76.45 36.65 76.2 36.6 75.65 36.15 76.2 36.0201171875 76.3732421875 35.95 76.55 36.225 76.5849609375 36.6 76.45 Z"/>

<path fill="#19791A" stroke="none" d="
M 73.4 71.2
Q 72.8 71.95 72.55 72.7 72.55 72.85 72.4 72.9 71.85 73.15 71.65 73.7 71.65 73.85 71.7 73.9 71.8 73.95 71.9 73.95 72.0314453125 73.95 72.1 74 72.216015625 74.025390625 72.25 74.05
L 72.3 74.1
Q 72.2765625 74.23046875 72.25 74.35 72.1322265625 75.1416015625 72.1 75.95 72.1 76.6 71.65 76.65 70.9 76.7 70.15 76.65 68.387890625 76.4693359375 66.95 75.65
L 66.95 75.65
Q 67.12890625 75.8826171875 67.15 76.2 67.05 75.95 66.95 75.7
L 66.95 75.65
Q 66.9267578125 75.6482421875 66.9 75.6 66.8748046875 75.614453125 66.85 75.6
L 66.8 75.55
Q 66.740234375 75.508203125 66.65 75.45 66.4423828125 75.34609375 66.15 75.3 65.4 75.2 64.65 75 63.05 74.5 61.4 74.45 61 74.4 61.05 74.95 61.15 75.8 61.15 76.7 61.1 77.15 60.4 77 59.65 76.85 58.95 76.6 57.7 76.25 56.6 75.55 55.25 74.75 55.45 76.45 55.6 77.65 54.4 77.35 53.7 77.2 53.1 76.8 52.8 76.6 52.4 76.45 52.2263671875 76.5658203125 52.15 76.75 52.283984375 76.8337890625 52.4 76.9 53.35 77.4 54.05 78.05 54.4048828125 78.3576171875 54.9 78.45
L 54.9 78.45
Q 54.931640625 78.4677734375 54.95 78.45 55.7158203125 78.939453125 56.1 79.9 56.15 80.1 56.3 80.25 56.6 80.65 57.4 80.45 58.1 80.25 58.4 79.55 58.55 79.2 58.95 79.05 59.55 78.8 59.75 79.4 60.0689453125 80.44765625 60.9 80.3 60.9421875 79.7869140625 60.75 79.45 60.7626953125 79.423046875 60.75 79.4 60.6572265625 79.214453125 60.7 78.95 61.4396484375 79.1423828125 62.15 79.25 62.25859375 79.2841796875 62.35 79.3 62.50234375 79.3380859375 62.6 79.55 63.262890625 79.263671875 63.9 79.2 64.15 79.2 64.35 79.5 64.83125 80.1583984375 65.45 80.35 65.948828125 79.6935546875 66.65 79.6 67.05 79.6 67.35 79.8 67.4033203125 79.84140625 67.45 79.85 67.9333984375 79.3193359375 68.5 78.8 68.65 78.7 68.85 78.8 69.6 79.2 70.4 79.3 72 79.4 71.7 77.7 71.6 77.3 72.15 77.4 74.05 77.75 75.35 76.6 75.55 76.45 75.6 76.2 75.648046875 76.0171875 75.65 75.85 75.7634765625 75.1921875 75.4 74.95 76.75 75.75 77.5 74.55 77.65 74.35 77.8 74.15 78.05 73.85 78.05 73.45 78.15 72.35 77.45 71.65 77.3 71.45 76.9 71.4 76.25 71.3 76.4 71.95
L 76.05 71.5
Q 75.3 70.4 73.95 70.85 73.65 70.95 73.4 71.2
M 93.9 59.55
Q 93.35 59.55 93 60 92.37109375 60.9193359375 92.4 62.35 92.3736328125 62.3763671875 92.35 62.4 92.15 62.6 92.15 62.95 92.15 63.6 92.15 64.2 90.2 63.4 88.15 63.2 88.05 63.2 87.9 63.45 87.4 64.6 86.8 65.1 86.65 65.2 86.4 65.2 85.7 65.1 85.3 64.8 85.15 64.7 84.9 64.75 84.45 64.95 84.3 65.25 84.15 65.6 84.15 65.95 84.15 66.35 84.3 66.65 84.4 66.85 84.65 66.95 85.9 67.6 87.2 67.05 87.95 66.75 88.3 67.35 88.55 67.7 88.95 67.85 89.15 67.95 89.4 67.9 90.4 67.75 91.4 67.8 92 67.85 92.3 67.4 92.55 67.1 92.6 66.7 92.8 65.9 93.2 65.8 93.55 65.7 93.9 65.75 95.5 65.9 96 65 96.15 64.7 96.3 64.4 96.4 64.2 96.45 63.95 96.55 63.5 97 63.05 97.3 62.85 97.45 62.5 97.65 62.1 97.8 61.65 97.9 61.35 97.95 60.95 98.15 60.1 97.4 60.1 97.3 60.1 97.1 60 95.6 59.45 93.9 59.55
M 33.35 73.15
Q 33.4 73.35 33.65 73.5 34.2 73.85 35.15 74.4 35.1974609375 74.4255859375 35.25 74.45 34.941796875 74.8861328125 35.1 75.7 35.275 76.5400390625 35.95 76.55 36.0201171875 76.3732421875 36.15 76.2 36.6 75.65 36.65 76.2 36.65 76.45 36.6 76.45 36.225 76.5849609375 35.95 76.55 35.743359375 77.059765625 35.85 77.7 36.05 79.15 37.65 79.25 37.73515625 79.25 37.8 79.25 38.3681640625 79.1525390625 38.5 78.45 38.55 78.35 38.65 78.2 38.9 78.55 39.3 79.05 39.55 79.35 39.85 79.5 40.15 79.7 40.45 79.8 40.55 79.85 40.65 79.8 41.5173828125 79.6630859375 41.4 78.85 41.6412109375 79.9404296875 42.9 80.5 43.65 80.85 44.45 81.1 45.45 81.5 45.3 80.7 45.2625 80.250390625 45.45 79.9 45.549609375 79.800390625 45.65 79.7 45.8 79.2 46.25 79.85 46.4 80.1 46.65 80.1 47.45 80.15 47.8 79.4 48.62578125 77.8859375 47.85 76.6 47.782421875 76.5111328125 47.7 76.4 47.5931640625 76.254296875 47.5 76.15 47.8 76.251953125 47.8 75.95 47.8 75.1 47.1 74.5 45.85 73.5 45.15 74.7 45.05 74.95 44.9 75.2 44.55 75.8 43.7 75.1 42.75 74.3 41.85 74.2 41.8 74.2 41.6 74.45 41.2 75.1 41.15 75.95 40 75 39.1 73.2 38.65 72.3 37.7 71.9 37.55 71.85 37.4 71.75 36.45 71.2 35.45 71.45 35.4 71.45 35.4 71.7 35.4 71.85 35.4 71.95 35.25 72.45 34.75 71.8 34.65 71.7 34.45 71.6 33.95 71.45 33.45 71.65 33.3 71.7 33.25 71.95 33.15 72.6 33.35 73.15 Z"/>

<path fill="#003300" stroke="none" d="
M 18.7 64.65
Q 18.6 64.75 18.45 64.9 18 65.4 18 65.65 18 66 18.15 66.05 18.2 66.1 18.25 66.1 19.05 66.1 19.5 66.05 19.5 66 19.55 66
L 19.6 65.25
Q 19.6 64.95 19.5 64.7 19.35 64.5 19.1 64.35 19.05 64.4 19 64.45 18.95 64.45 18.85 64.55
L 18.8 64.6
Q 18.75 64.6 18.7 64.65
M 17.75 63.05
L 17.75 62.95
Q 17.75 62.75 17.65 62.6 17.5 62.45 17.25 62.35 17.1 62.4 17 62.55 16.95 62.55 16.9 62.65
L 16.9 62.7
Q 16.75 62.95 16.75 63.35 16.8 63.4 16.85 63.55 16.9 63.6 17.25 63.6 17.55 63.6 17.7 63.6
L 17.75 63.55
Q 17.75 63.5 17.65 63.45
L 17.75 63.05
M 14.75 59.6
Q 14.25 59.9 13.75 60.6 13.9 60.7 14 60.8 14.1 60.85 14.5 60.85 14.8 60.85 15 60.75 15.1 60.7 15.15 60.65 15.2 60.6 15.25 60.5
L 15.25 60.2
Q 15.25 60.1 15.25 60.05 15.25 59.8 15.15 59.75 15.05 59.75 14.95 59.7 14.85 59.65 14.75 59.6
M 15.65 56.6
Q 15.95 56.6 16.15 56.6 16.35 56.55 16.4 56.5 16.5 56.2 16.5 55.9 16.5 55.3 16.15 55 15.65 54.65 14.75 55
L 14.75 56.5 15.65 56.6
M 23.85 59.4
Q 23.3 58.75 22.65 58.75
L 22.6 59.55
Q 22.6 59.6 22.75 60.2 22.9 60.55 23.2 60.7 23.45 60.85 23.85 60.85 24.25 60.85 24.45 60.7 24.55 60.65 24.6 60.45 24.15 59.75 23.85 59.4
M 72.85 16.35
Q 72.35 16.45 72.35 17.2 72.35 17.25 72.35 17.8 72.45 18.35 73.1 18.35 73.75 18.35 73.55 18.15
L 73.6 17.45
Q 73.6 17 73.55 16.9 73.45 16.5 72.85 16.35
M 73.6 14
Q 73.8 14.3 73.95 14.45 74.1 14.6 74.25 14.6 74.65 14.6 74.75 14.45 74.8 14.4 74.85 14.1 74.85 13.95 74.55 13.55 74.25 13.25 73.85 12.85 73.75 12.85 73.6 12.9 73.35 13 73.35 13.35 73.35 13.55 73.6 14
M 70.95 10.1
Q 71.2 10.05 71.3 9.75
L 71.35 9.85
Q 71.35 9.75 71.35 9.45 71.35 9.05 71.2 9 71 8.95 70.85 8.85 70.6 8.9 70.5 9.15 70.35 9.4 70.35 9.85
L 70.85 10.1
Q 70.9 10.1 70.95 10.1
M 88.45 26.6
Q 88.3220703125 26.671484375 88.2 26.75 87.9955078125 26.9033203125 87.8 27.05
L 87.8 27.05
Q 88.237109375 27.1591796875 88.65 27.1 88.5798828125 26.81484375 88.45 26.6
M 61.3 3.6
Q 61.0353515625 3.81796875 60.8 4.05 61.2734375 4.35 61.75 4.35 62.3322265625 4.35 63.75 2.95 62.9537109375 3.026171875 62.15 3.2 61.65 3.35 61.3 3.6
M 84.85 38.45
Q 84.85 38.5 84.85 38.6
L 85.35 38.85
Q 85.7 38.85 85.8 38.5
L 85.85 38.6
Q 85.85 38.5 85.85 38.2 85.85 38.15 85.85 38.1 85.85 37.8 85.7 37.75 85.5 37.7 85.35 37.6 85.1 37.65 85 37.9 84.9 38 84.9 38.2 84.85 38.3 84.85 38.45
M 26.35 13.25
Q 26.35 13.29375 26.35 13.35 26.35 13.8 26.4 14.15 26.65 14.15 27.1 14.35 27.2 14.4 27.35 14.45 27.3369140625 14.1751953125 27.3 13.9 27.1685546875 13.745703125 26.95 13.6 26.657421875 13.419921875 26.35 13.25
M 82.9 37.65
L 82.85 37.6
Q 82.35 37.85 82.35 38.35
L 82.5 38.45 82.55 38.45 82.85 38.6 83.35 38.35
Q 83.3 37.85 82.95 37.65
L 82.9 37.65
M 84.6 35.1
L 85.1 34.85
Q 85.1 34.6 85 34.45 84.85 34.2 84.6 34.1 84.1 34.35 84.1 34.85
L 84.6 35.1
M 59.5 0.2
Q 59.42109375 0.497265625 59.2 0.75 59.15 0.85 59.15 0.95 59.7697265625 0.8259765625 60.2 1.05 59.8671875 0.49375 59.5 0.2
M 86.4 48.1
Q 86.868359375 47.832421875 87 47.45 85.75546875 47.7044921875 84.9 48.9 85.476171875 48.5619140625 86.4 48.1
M 87 46.7
Q 86.9 46.65 86.8 46.6 86.6833984375 46.5853515625 86.55 46.55 86.81484375 46.9103515625 87.05 47.25 87.0658203125 47.2703125 87.05 47.3 87.1 47.198046875 87.1 47.1 87.1 46.85 87 46.7
M 85.85 45.6
Q 85.8 45.7 85.9 45.75 86.05 45.85 86.15 45.95 86.2763671875 46.132421875 86.4 46.3 86.5607421875 46.208203125 86.75 46.1
L 86.8 46.1 86.75 45.95 86.75 45.85 86.05 45.85
Q 86.05 45.75 85.85 45.6
M 68.1 65.6
Q 67.85 65.75 67.75 65.95 67.6 66.1 67.6 66.35
L 68.1 66.6
Q 68.3 66.6 68.55 66.45 68.8 66.3 68.85 66.1 68.65 65.75 68.65 65.6
L 68.1 65.6
M 70.35 63.05
Q 70.35 63.09609375 70.35 63.15
L 70.35 63.2
Q 70.35 63.45 70.4 63.45
L 70.55 63.5 71.1 63.6
Q 71.75 63.6 71.85 63.35 71.8 62.9 71.75 62.65 71.65 62.3 71.4 61.9 71.35 61.9 71.35 61.85 71.3 61.85 71.3 61.9 71.25 61.95 71.2 62
L 71.15 62.05
Q 70.35 62.75 70.35 63.05
M 75.35 61.35
Q 75.3 61.35 75.3 61.4 75.05 61.55 74.95 61.75 74.85 61.9 74.85 62.1
L 75.35 62.35
Q 75.45 62.3 75.5 62.3
L 75.55 62.3
Q 75.8 62.1 75.85 61.85 75.75 61.55 75.35 61.35
M 73.35 60.15
L 73.35 60.1
Q 73.25 59.8 72.85 59.6 72.35 59.85 72.35 60.35
L 72.85 60.6
Q 72.95 60.55 73.05 60.5 73.15 60.45 73.25 60.35 73.35 60.25 73.35 60.15
M 85.35 40.6
Q 84.85 40.85 84.85 41.35
L 85.35 41.6 85.85 41.35
Q 85.8 40.8 85.35 40.6
M 31.85 76.45
Q 31.7759765625 76.3427734375 31.7 76.25 30.9123046875 75.3638671875 30 75.35
L 30 75.35
Q 29.5 75.35 28.95 76 28.684375 76.2896484375 28.45 76.45
L 31.85 76.45
M 12.75 57.1
Q 13 57.05 13.15 56.9 13.25 56.8 13.25 56.6 13.25 56.3 12.75 56.1 12.5 56.25 12.4 56.45 12.25 56.65 12.25 56.85
L 12.75 57.1 Z"/>

<path fill="#0A7B0A" stroke="none" d="
M 22.9 69.95
Q 22.1 69.9 21.55 69.25 20.75 68.3 19.85 69.15 19.3 69.6 19.15 70.2 19.098046875 70.4248046875 19.1 70.55 18.4439453125 70.2623046875 17.8 69.9 17.4 69.7 16.9 69.65 15.83828125 69.53203125 15.9 70.4 15.821484375 70.4248046875 15.75 70.45 15.4201171875 70.59140625 15.2 70.95 15.2115234375 70.9771484375 15.2 71 14.75 71.9 14.65 72.95 14.1 72.35 13.1 72.05 11.9875 71.6494140625 11.55 72.4 11.4939453125 72.5345703125 11.45 72.65 11.4 72.85 11.2 72.75 10.9 72.7 10.7 72.4 9.9 71.45 9.65 70.2 9.55 69.55 8.65 69.65 8.15 69.7 7.7 69.85 7.4 69.95 7.25 70.25 7.15 70.45 7.15 70.7 7.15 71.1 7.15 71.45 6.65 71 6.3 70 5.95 68.9 4.65 69.15 4.3 69.2 3.9 69.3 3.8 69.35 3.7 69.5 3.4 70.25 3.5 71.2 4.3 71.228515625 4.3 71.7 4.1619140625 71.762109375 4 71.8 3.5205078125 72.0955078125 3.05 72.4 2.8 72.6 2.75 72.95 2.65 73.95 2.65 74.95 1.25 74.55 -0.1 74.45 -0.35 74.45 -0.55 74.75 -1.25 75.65 -1.1 76.95 -1.75 77.05 -2.25 76.75 -2.7 76.45 -3.35 76.45 -3.7 76.45 -4 76.6 -4.2 76.7 -4.3 76.95 -4.7 78.5 -3.7 79.55 -3.6 79.7 -3.55 79.95 -3.1 81.5 -1.6 81.85 -1.1 81.95 -0.75 81.75 -0.45 81.6 -0.25 81.3 -0.1 81.1 0.15 80.95 1.1 80.7 1.5 81.55 1.9 82.45 2.65 83.2 3.15 83.65 3.7 83.85 4.2 84.05 4.4 83.45 4.65 82.6 5.3 82.8 5.9 82.95 6.4 83.45 7.65 84.9 9.4 84.85 9.55 84.85 9.65 84.7 10.45 84.15 10.5 82.95 10.55 82.6 10.65 82.2 11.2 82.75 11.7 83.65 12.2 84.55 12.85 83.9 13.05 83.7 13.15 83.45 13.3 83.2 13.4 82.95 13.95 83.15 14.4 83.75 14.9 84.45 15.6 85 17.05 86.05 18.25 84.8 18.65 84.45 18.95 84 19.25 83.45 19.4 82.95 20.45 84.15 22.15 84.4 24.15 84.7 24.15 82.7 24.85 83.1 25.45 83.9 25.95 84.65 26.85 84.3 27.05 84.2 27.15 83.95 27.8 82.9 27.65 81.45 27.8 81.45 27.9 81.5 28.15 81.6 28.4 81.65 28.65 81.7 28.9 81.7 29.0216796875 81.140234375 29.05 80.55 28.5892578125 79.8310546875 27.85 79.6 27.8 79.6 27.6 79.65 26.95 80 26.3 80.6 26.15 80.7 25.9 80.65 25.45 80.5 25.05 79.75 24.9 79.45 24.65 79.2 24.1 79.55 23.75 80.4 23.65 80.6 23.45 80.75 22.15 81.8 20.95 80.65 20.8 80.45 20.65 80.2 20.2736328125 79.5978515625 19.5 79.7
L 19.25 78.45
Q 19.5580078125 78.5341796875 19.7 78.25 19.9 77.85 20.05 77.4 20.15 77.1 20.25 76.7 20.4 75.95 21.35 76.35 21.65 76.45 21.85 76.75 22.9 78.05 24.4 77.95 24.55 77.95 24.65 77.7 25 76.75 25 75.7 25.05 75.45 25.15 75.2 26.6625 76.208203125 28.45 76.45 28.684375 76.2896484375 28.95 76 29.5 75.35 30 75.35
L 30 75.35
Q 30.0439453125 74.477734375 29.5 73.85 29.3 73.6 29.1 73.25 29.068359375 73.155078125 29 73.05 29.4279296875 73.47734375 30.1 72.85 30.3 72.7 30.4 72.45 31.1 71.1 30.8 69.45 30.8 69.35 30.65 69.2 30 69.05 29.9 69.65 29.9 69.85 29.65 69.85 28.9 69.95 28.25 69.7 27.9 69.6 27.6 69.25 26.25 67.6 24.25 68.6 24.05 68.7 23.85 68.9 23.65 69.2 23.5 69.5 23.4 69.7 23.3 69.85 23.15 69.95 22.9 69.95
M 55.65 -0.8
Q 54.9 -0.4 54.15 -0.05 53.15 0.45 52.75 -0.1 52.55 -0.4 52.3 -0.7 52.15 -0.9 51.9 -0.95 50.85 -0.95 50 -0.2 48.9 0.75 47.4 0.5 47.15 0.45 46.95 0.35 46.621484375 0.1111328125 46.4 0.2 46.4 0.45859375 46.4 0.7 46.4 1.19375 46.4 1.7 46.396875 1.59375 46.35 1.5 46 1.05 46.15 0.45 46.25078125 0.2486328125 46.4 0.2 46.4 0.0740234375 46.4 -0.05 46.3 -0.05 46.15 0 45.9 0.1 45.65 0.1 44.4 0.2 43.9 1.2 43.9 0.95 43.9 0.7 43.9 0.2 43.65 0.05 43.15 -0.3 42.4 -0.25 40.15 -0.05 39.15 1.7 39.15 1.2 39.15 0.7 39.15 0.6 39.15 0.45 38.25 0.7 37.4 1 36.9 1.2 36.65 1.6 36.15 2.45 35.65 2.95 35.8 2.35 35.4 1.95 35.3 1.85 35.2 1.85 33.5 2.3 32.35 3.65 32.05 4.1 31.9 4.5 31.8 5 31.4 4.95 29.95 4.85 28.9 5.95 28.65 6.2 28.6 6.5 28.4041015625 7.1859375 28.4 7.9 28.396875 7.7 28.35 7.7 27.1 7.4 25.9 7.95 25.65 8.1 25.6 8.25 25.3 9.2 25.65 9.7 25.4 9.6 25.15 9.55 24.88671875 9.497265625 24.6 9.45 24.610546875 9.4017578125 24.6 9.35 24.5265625 9.3888671875 24.45 9.4 23.9408203125 9.7513671875 23.4 10.4 23.1654296875 10.762890625 22.9 11.2 22.4884765625 11.849609375 22.15 12.3 21.2630859375 12.168359375 20.4 12 19.75 11.9 19.15 12.15 18.53984375 12.434765625 18 12.75 17.8369140625 12.6873046875 17.65 12.65 15.85 12.4 14.45 13.25 13.9 13.6 13.8 14.2 13.8 14.426171875 13.75 14.6 13.743359375 14.798046875 13.7 14.95 13.65 15.1 13.65 15.2 13.5515625 15.078125 13.45 14.95 13.0046875 15.336328125 12.4 15.4 11.9 15.45 11.65 15.25 11.05 14.8 10.95 14.2 10.93203125 14.11015625 10.9 14.05 10.5671875 14.0666015625 10.2 14.15 9.9 14.2 9.7 14.5 9.55 14.7 9.45 14.95 9.35 15.4 8.65 15.25 6.65 14.7 4.7 15.05 4.55 15.1 4.5 15.45 4.35 16.95 4.2 18.45 4.15 18.7 4.05 18.85 3.9 18.95 3.65 18.9 2.1 18.75 1.35 19.9 0.8 20.8 0.6 21.7 0.45 22.6 0.9 23.2 0 23.2 -0.85 23.2 -0.95 23.2 -1.1 23.45 -2.243359375 25.784375 -1 27.75 -1.1373046875 27.6810546875 -1.45 27.9 -1.85 28.2 -2.15 28.65 -3.05 30.05 -2.55 31.6 -2.45 31.85 -2.1 31.95 -1.7583984375 32.07421875 -1.55 32.2 -1.5771484375 32.27109375 -1.6 32.35 -1.6275390625 32.3880859375 -1.65 32.45 -1.85 33.05 -2 33.95 -2.25 35.8 -0.6 36.7 -0.35 36.85 -0.1 36.85
L 0.05 36.85
Q 0.15 36.95 0.15 37.2 0.15 38.8798828125 1.3 39.65 1.7568359375 39.93828125 2.35 40.1
L 3.55 40.25
Q 3.5283203125 40.419921875 3.5 40.6
L 3.5 40.65
Q 3.5263671875 41.521875 4.4 42.25 5.25 43 5.25 43.1
L 5.25 43.5 5.1 43.6 2.25 43.6 1.15 43.1 -2.2 45.9
Q -2.6 45.7 -2.85 45.7 -2.95 45.7 -3.1 45.7 -3.2 45.7 -3.35 45.7 -3.35 45.95 -3.3 46.2 -3.25 46.45 -3.15 46.7 -2.85 48.4 -1.85 49.45 -2.35 49.45 -2.85 49.55 -2.95 49.6 -3 49.7 -3.3 50.65 -2.9 51 -1.55 52.45 -0.6 53.45 -1.2 53.45 -1.85 53.45 -2.1 53.45 -2.1 53.5 -2.6 55.7 -1.35 56.95
L 2.75 56.95 2.75 56.5
Q 4.25 56.45 4.7 56.15 5 56 5 55.45
L 12.25 56.85
Q 12.25 56.65 12.4 56.45 12.5 56.25 12.75 56.1 13.25 56.3 13.25 56.6
L 14.75 56.5 14.75 55
Q 15.65 54.65 16.15 55 16.5 55.3 16.5 55.9 16.5 56.2 16.4 56.5
L 22.65 58.75
Q 23.3 58.75 23.85 59.4 24.15 59.75 24.6 60.45 24.55 60.65 24.45 60.7
L 31.35 65.5
Q 32 67.8 35.65 69.45 37.85 70.45 42.75 71.7 42.8 71.75 43.2 72.15 43.85 72.6 45 72.6 45.85 72.6 49.85 71.2 50.05 71.2 50.55 71.25
L 50.55 71.25
Q 51.526171875 71.3544921875 53.55 71.7 55.15 71.8 56.25 71.4
L 57.1 73.1 60.8 73
Q 60.1 72.3 60.1 72.15 60.1 71.75 60.25 71.7 60.35 71.65 60.6 71.6
L 69.35 71.5
Q 68.2 69 69.6 67.9 70.05 67.55 70.8 67.35
L 71 67.3
Q 71.5 67.2 73.45 66.8 75.05 66.55 75.6 66 75.1 65.6 75.1 64.95
L 75.1 64.9
Q 75.1 64.8 75.15 64.7 75.2 64.35 75.55 63.95 75.7 63.75 75.9 63.55 75.95 63.5 76 63.5 76.15 63.35 76.3 63.2 76.3 63.15 76.35 63.15 77.4529296875 62.2234375 79.1 61.45
L 79.9 62.7
Q 81.75 63.05 82.3 61.65 82.4 61.35 82.4 60.95 82.4 60.05 82.65 59.25 82.65 59.2 82.9 59.25 85.4 59.65 85.2 57.2 85.1 56.1 84.4 55.2 85.4 55.2 86.35 55 86.55 54.95 86.65 54.7 87.4 52.7 85.65 51.2 85.85 50.8 86.65 50.8 86.9 50.85 87.1 50.65 87.8 50.15 87.7 49.2 87.65 48.7 87.55 48.25 87.4318359375 47.816796875 87.15 47.45 87.8546875 47.371484375 88.65 47.55 88.8 47.6 88.85 47.75 89.1 48.4 90.15 48.25 91.05 48.15 91.9 48.2 92.4 48.2 92.9 48.45 93.1970703125 48.610546875 93.4 48.8 94.9068359375 48.1455078125 96.25 47.25 96.55 47.1 96.75 46.75 97.1 46.2 96.8 45.5 96.65 45.1 96.4 44.7 96.3 44.45 96.15 44.2 96.2 43.75 96.9 43.8 97.15 43.85 97.4 43.65 98.7 42.8 98.45 41.2 98.4 40.85 98.2 40.6 97.9 40.2 97.4 39.9 97.3 39.85 97.15 39.7 97.0625 39.721875 97 39.7
L 97.45 39.55
Q 97.85 39.35 98.05 38.75 98.15 38.35 98.35 37.95 98.9 36.95 98.9 35.7 98.9 35.1 98.75 34.5 98.65 34.1 98.5 33.65 98.4 33.35 98.5 32.95 98.6 32.4 98.8 32.1 98.9 31.95 98.9 31.7 98.95 31.15 98.45 31 98.15 30.95 97.85 30.85 97.55 30.7 97.15 30.7 96.9 30.7 96.65 30.7 97.15 29.95 97.55 29.15 97.65 28.95 97.7 28.7 97.95 27.4 96.85 27.05 96.65 26.95 96.4 26.95 95.2 26.85 95.05 25.95 95.05 25.85 94.9 25.75 94.3150390625 25.402734375 93.65 25.3
L 93.8 23
Q 93.6 22.4 93.15 22.2 93.3 22.1 93.4 21.95 93.8 21.7 94.15 21.4 95.35 20.45 95.2 18.95 95.15 18.6 94.95 18.3 94.35 17.4 93.15 17.35 91.9 17.25 91.4 16.7 91.85 16.65 92.1 16.2 93.05 14.4 91.35 14.05 90.1 13.8 89.4 13.45 89.55 13.35 89.65 13.2 89.9 12.85 90.25 12.55 91.25 11.8 91.25 10.7 91.3 9.7 90.65 9.5 89.65 9.2 88.65 8.9 88.4 8.85 88.15 8.7 88.3 8.45 88.45 8.25 89.4 7.3 89.2 5.95 89.15 5.7 89.1 5.7 86.9 5.15 84.65 5.2 85.35 4.4 85.05 2.95 85.05 2.7 84.9 2.7 82.5 2.45 80.15 2.55 78.9 2.6 77.7 2.9 77.4 2.95 77.15 3.2 77.5 2.55 77.4 1.7 77.4 1.35 77.4 0.95 77.05 0.95 76.65 1 76.05 1.1 75.45 1.3 74.6 1.6 74.15 1.95 74.3 1.3 73.9 1.15 72 0.55 70.2 1.55 69.7607421875 1.8203125 69.65 2.25 69.333203125 2.15546875 69.1 2 68.4890625 1.58203125 67.85 1.7 67.549609375 1.3427734375 67.3 0.75 67.1 0.25 66.65 0.3 66.55 0.35 66.4 0.45
L 66.15 0.7
Q 66.1 0 65.85 -0.55 65.4 -1.55 65.4 -1.3 65.3 -1.3 65.25 -1.25 65.15 -1.05 65.1 -0.8 65.05 -0.65 65 -0.55 64.85 0.35 63.95 0.75 63.8 0.85 63.65 0.8 62.9 0.75 62.6 0.25 62.3 -0.3 62.15 -0.85 61.9 -1.7 61.15 -1.8 61.05 -1.65 61 -1.55 60.7 -0.35 59.9 0.2 59.8037109375 -0.0248046875 59.6 -0.3 59.5251953125 -0.4068359375 59.4 -0.55 59 -0.95 58.45 -0.7 58.05 -0.55 57.8 -0.2 57.35 0.5 56.65 0.45 56.55 0.35 56.5 0.2 56.4 -0.15 56.35 -0.55 56.3 -0.8 56.15 -1.05 55.9 -0.9 55.65 -0.8
M 84.85 41.35
Q 84.85 40.85 85.35 40.6 85.8 40.8 85.85 41.35
L 85.35 41.6 84.85 41.35
M 37.85 69.45
Q 37.6 69.35 36.15 68 36.6 67.7 36.75 66.95 36.85 66.2 36.85 65.95 37.55 65.7 38.45 65.05 39 64.7 40.05 64.7 40.15 64.7 40.85 65.3 41.75 65.85 42.75 65.85 46.25 65.85 48.5 63.2 48.9 63.4 50.95 64.25 53.15 65.1 53.35 65.1
L 54.65 65.1
Q 54.6 64.35 54.7 63.9 54.85 63.1 55.85 63.1 56.2 63.1 56.35 63.35 56.5 63.6 56.6 63.6 58.25 63.75 60.35 64.1 61.75 64.1 63.9 62.25
L 64 62.2
Q 63.7859375 62.4732421875 63.55 62.7
L 63.55 62.75
Q 61.55625 65.3125 60.65 66.4 59 68.4 56.15 70.25 51.3 70.6 50.65 70.6 50.35 70.6 50.25 70.35 50.2 70.1 49.85 70.1 49.25 70.1 48 70.85 46.75 71.6 45.65 71.6 43.7 71.6 43.4 71.3 43.35 70.85 42.85 70.6 39 70.05 37.85 69.45
M 73.35 60.1
L 73.35 60.15
Q 73.35 60.25 73.25 60.35 73.15 60.45 73.05 60.5 72.95 60.55 72.85 60.6
L 72.35 60.35
Q 72.35 59.85 72.85 59.6 73.25 59.8 73.35 60.1
M 75.3 61.4
Q 75.3 61.35 75.35 61.35 75.75 61.55 75.85 61.85 75.8 62.1 75.55 62.3
L 75.5 62.3
Q 75.45 62.3 75.35 62.35
L 74.85 62.1
Q 74.85 61.9 74.95 61.75 75.05 61.55 75.3 61.4
M 70.35 63.15
Q 70.35 63.09609375 70.35 63.05 70.35 62.75 71.15 62.05
L 71.2 62
Q 71.25 61.95 71.3 61.9 71.3 61.85 71.35 61.85 71.35 61.9 71.4 61.9 71.65 62.3 71.75 62.65 71.8 62.9 71.85 63.35 71.75 63.6 71.1 63.6
L 70.55 63.5 70.4 63.45
Q 70.35 63.45 70.35 63.2
L 70.35 63.15
M 67.75 65.95
Q 67.85 65.75 68.1 65.6
L 68.65 65.6
Q 68.65 65.75 68.85 66.1 68.8 66.3 68.55 66.45 68.3 66.6 68.1 66.6
L 67.6 66.35
Q 67.6 66.1 67.75 65.95
M 85.9 45.75
Q 85.8 45.7 85.85 45.6 86.05 45.75 86.05 45.85
L 86.75 45.85 86.75 45.95 86.8 46.1 86.75 46.1
Q 86.5607421875 46.208203125 86.4 46.3 86.4884765625 46.4453125 86.55 46.55 86.6833984375 46.5853515625 86.8 46.6 86.9 46.65 87 46.7 87.1 46.85 87.1 47.1 87.1 47.198046875 87.05 47.3 87.0658203125 47.2703125 87.05 47.25 86.81484375 46.9103515625 86.55 46.55 86.4884765625 46.4453125 86.4 46.3 86.2763671875 46.132421875 86.15 45.95 86.05 45.85 85.9 45.75
M 87 47.45
Q 86.868359375 47.832421875 86.4 48.1 85.476171875 48.5619140625 84.9 48.9 85.75546875 47.7044921875 87 47.45
M 43.05 5.45
Q 43.26171875 5.457421875 43.45 5.45 43.3875 5.5251953125 43.3 5.6 43.2056640625 5.6 43.05 5.45
M 28.15 9.2
Q 28.2505859375 9.3005859375 28.3 9.4 28.019140625 9.771484375 27.7 10 27.805859375 9.8568359375 27.9 9.7
L 28.15 9.2
M 59.2 0.75
Q 59.42109375 0.497265625 59.5 0.2 59.8671875 0.49375 60.2 1.05 59.7697265625 0.8259765625 59.15 0.95 59.15 0.85 59.2 0.75
M 82.05 14.7
Q 82.2 16.05 84.85 16.4 84.85 18.8 85.1 20.5
L 85.7 20.6
Q 85.75 20.7 85.8 20.85
L 86.05 20.85 86.85 21.5
Q 87.134375 21.480078125 87.4 21.45 87.384375 20.832421875 87.3 20.2 87.1 19.05 87.9 18.9 89.05 18.7 89.45 19.45 89.55 19.6 89.55 19.7 89.65 20.2 89.75 20.7 89.8 20.85 89.8 20.95 89.8458984375 21.591796875 90.3 21.75 90.354296875 21.7875 90.4 21.8 91.4 22.05 92.2 22.65 92.4 22.85 92.5 23.05 93.2 24.2 92.7 25.45 92.55 25.85 92.25 26 91.85 26.3 91.35 26.05 91.15 25.95 91.05 26.1 90.9 26.2 90.8 26.4 90.3 27.6 88.4 27.5 87.9681640625 27.4712890625 87.7 27.3 87.676171875 27.27109375 87.65 27.25 87.490625 27.1314453125 87.4 26.95 87.1 27.15 86.9 27.7 86.75 28.2 85.9 28 85.55 27.95 85.2 27.85 83.95 27.4 82.65 26.95 82.75 27.65 82.4 28.2 82.3 28.45 82.1 28.45 79.25 28.85 76.65 27.45 76.05 27.1 75.35 26.75 75.0607421875 26.634375 74.95 26.7 74.85 26.78125 74.85 26.95 74.75 27.9 73.9 28.15 73.65 28.2 73.45 28.1 72.75 27.8 72.15 27.2 72.05 27.45 72 27.7 72 28.7 71.15 28.7 70.8 28.7 70.45 28.55 68.85 27.8 67.15 27.7 66.9 27.7 66.85 27.8 66.4 28.5 65.9 29.2 65.8 29.35 65.7 29.5 65.2 30.7 63.95 29.9 63.1 29.4 62.9 29.95 62.6 30.75 62.3 31.65 62.273046875 31.7373046875 62.25 31.8 62.61484375 32.1857421875 63.05 32.5 63.15 32.6 63.35 32.4 63.65 32.1 63.9 31.7 64.05 31.45 64.15 31.2 64.75 31.8 65.2 32.9 65.4 33.35 65.65 33.7 66.4 34.65 67.1 33.65 67.95 32.5 68.4 31.2 68.85 32.05 69.5 33.15 70.05 34.1 71.15 33.9 71.7 33.75 72 33 72.15 32.6 72.35 32.2 72.4 32.1 72.4 31.95 72.7603515625 32.146484375 73.1 32.4 73.92578125 31.6 74 31.6 74.55 31.6 75.9 33 76.078125 33.178125 76.25 33.3 76.507421875 32.9826171875 76.6 32.45 76.65 32.2 76.65 31.95 77.25 32 77.65 32.5 78.05 32.95 78.6 33.3 79.0578125 33.5861328125 79.55 33.75 79.972265625 33.914453125 80.4 34 81.4 34.2 81.3 33.2 81.3 32.95 81.3 32.7 81.4 32.2 81.4 31.7 81.9 32 82.5 32.6 83.95 34.25 86.1 33.75 86.3 33.7 86.4 33.45 86.921484375 32.3203125 86.5 31.25 86.908203125 31.8775390625 87.85 31.55 88.05 31.45 88.05 31.2 88.1201171875 30.56875 88.15 29.95
L 88.15 30 88.8 31.35
Q 88.8 31.5 88.3 32.35 87.8 33.25 87.8 33.5 87.8 33.85 88.15 33.9 88.7 34.05 89.25 34.85 89.25 35.1 88.8 36.3 88.65 36.55 88.55 36.85 88.55 37.25 88.65 37.3 88.55 37.4 88.55 37.6 88.55 37.75 88.55 37.85
L 85.85 38.1
Q 85.85 38.15 85.85 38.2 85.85 38.5 85.85 38.6
L 85.8 38.5
Q 85.7 38.85 85.35 38.85
L 84.85 38.6
Q 84.85 38.5 84.85 38.45 84.85 38.3 84.9 38.2 84.9 38 85 37.9 85.1 37.65 85.35 37.6
L 84.6 35.1 84.1 34.85 82 36.5 82.85 37.6 82.9 37.65 82.95 37.65
Q 83.3 37.85 83.35 38.35
L 82.85 38.6 82.55 38.45 82.5 38.45 81.7 40.15 81.7 40.2
Q 82 40.45 82.1 41 82.1 41.3 81.85 41.9 81.6 42.45 81.6 42.75 81.6 43.6 82.25 44.5 82.85 45.4 82.85 45.7 82.85 46.15 82.4 46.9 81.9 47.65 81 48.65 79.05 50.85 77.85 50.85 77 50.85 76.55 50.55
L 75.75 50 75.2 49.1
Q 75.1 49.15 75 49.25 74.75 49.5 74.65 49.85 74.6 50.05 74.6 51.1 74.55 51.8 73.9 52.35 73.1 52.85 72.85 53.15 72.625 53.45 71.8 53.9 71.766015625 53.9185546875 71.7 53.9 71.2677734375 54.185546875 70.6 54.45 70.61015625 54.48203125 70.6 54.5 70.121875 54.7091796875 69.55 54.95 69.3001953125 55.0546875 69.05 55.15 67.69140625 55.6880859375 66.35 56 64.8892578125 56.4060546875 63.45 56.55 62.85 56.6 62.25 56.6 61.5 55.85 60.6 55.85 58.55 55.85 58.15 56.35 58.05 57 57.8 57.35 56.8 55.85 56.35 55.3 55.6 54.4 53.25 54.6 52.05 54.7 51.3 53.4 51 52.85 50.5 51.25 51.65 51.1 51.65 50.4 51.7 49.5 52.15 49.25 52.25 49.3 53.45 50.85 54.5 52.1 55.1 52.1 55.75 52.1 55.85 51.85 56.15 49.15 56.35 48.35
L 57.1 47.55
Q 57.05 47.5 57.05 47.45 56.55 46.65 56.05 46.6
L 56 46.6
Q 55.55 46.75 55.35 46.75
L 54.5 43.35
Q 54.75 43.35 55.4 43.1
L 55.25 42.1
Q 54.4 42.35 53.75 42.35 53.01953125 42.35 52.15 41.6 51.99765625 41.490625 51.85 41.35 50.8 40.35 50.6 40.35 50.308984375 40.35 50.05 40.45 49.9935546875 40.5228515625 49.9 40.55 49.5869140625 40.7998046875 49.35 41.3 49.2984375 41.4087890625 49.25 41.5 48.837109375 42.25 48.35 42.25 47.80390625 42.25 47.65 42 47.6 41.922265625 47.6 41.8 47.6240234375 41.583984375 47.45 41.45 47.266015625 41.35 46.85 41.35 46.572265625 41.35 46.1 41.65 45.618359375 41.98125 44.95 42.6 43.65 43.85 41.85 43.85 41.45 43.85 40.55 42.85 39.6 41.85 39.1 41.85
L 31.8 45.75
Q 29.6 45.75 26 43.55 23.7330078125 41.99140625 23.05 41.55 22.9435546875 41.46875 22.85 41.4
L 22.75 41.35
Q 22.7078125 41.35 22.65 41.35 22.3697265625 41.3681640625 22.15 41.5 21.948046875 41.673046875 21.15 41.85
L 21.1 41.85
Q 20.5876953125 41.97734375 19.75 42.1 19.478125 41.840625 19.2 41.55 18.4275390625 40.753515625 17.75 39.85 16.75 38.5 16 37.75 15.7810546875 37.5310546875 15.65 36.75 15.6 36.1453125 15.6 35.15 15.6 35.021875 15.55 34.9 15.517578125 34.494921875 15.25 34.15 14.6625 33.437890625 13 33.15 13.15 32.95 14.1 31.6 14.151953125 31.5248046875 14.2 31.45 15 30.265234375 15 29.7 15 29.3 14.9 29.25 14.85 29.25 14.8 29.25 14.8970703125 28.546875 14.95 28.05 15 27.5091796875 15 27.2 15 26.05 14.8 25.75 14.35 25 12.5 24.25 14.15 23.9 15.6 22.7 16.8 21.65 16.85 21.1 17.7 22.35 18.15 22.35 18.1998046875 22.35 18.25 22.35 18.3498046875 22.3333984375 18.45 22.3 18.55 22.25 18.7 22.15 18.85 22 19 21.75 19.35 21.2 19.35 20.45 18.8 17.75 18.8 17.15 18.8 16.2328125 20.05 15.05 20.4451171875 14.6611328125 20.95 14.25 21.0314453125 14.2021484375 21.1 14.15 22.42578125 13.130078125 23.15 12.4 23.5419921875 12.06875 23.75 11.8 23.96796875 11.5375 24.05 11.35 24.05 11.6 24.6 12.55 25.1 13.5 25.1 13.85 25.1 14.15 24.85 14.7 24.6 15.2 24.6 15.55 24.6 15.95 24.75 16 24.85 16.05 25.1 16.1 25.9 15.55 26.2 15 26 14.8 26 14.65 26 14.2 26.35 14.15
L 26.4 14.15
Q 26.35 13.8 26.35 13.35 26.35 13.29375 26.35 13.25 26.27578125 13.1943359375 26.2 13.15 26.0671875 12.647265625 25.8 12.3 25.387109375 11.783984375 25.05 11 25.45390625 11.099609375 25.9 11.05 26.3646484375 11.012890625 26.75 10.8 26.36328125 11.6001953125 26.35 13.25 26.657421875 13.419921875 26.95 13.6 27.1685546875 13.745703125 27.3 13.9 27.3 13.24296875 27.3 12.8 27.3 11.55 28 11.15 28.6 11.5 29.35 11.35 29.402734375 10.9283203125 29.6 10.35 29.8189453125 9.812109375 30.15 9.15 30.7 7.9 30.6 7.35 30.9 7.55 31.6 8.55 31.72890625 8.721875 31.85 8.85 32.264453125 9.35 32.5 9.35 32.95 9.35 34.8 6.85 35.1517578125 6.3919921875 35.45 6 35.8921875 7.8857421875 38.4 7.7 38.8 7.7 39.05 7.55 40.1 6.85 40.4 5.7 40.95 6.25 41.2 6 41.5130859375 5.731640625 41.85 5.6 42.9015625 7.1 43.1 7.1 43.2 7.1 43.45 6.9 43.898828125 6.608984375 44.7 5.85 44.793359375 5.9306640625 44.85 6 45.85 7.25 45.9 8.95 48.25 7.7 50.9 7.25 51.15 7.2 51.15 7.25 51.25 8.2 51.9 8.95 52.05 9.1 52.1 9.05 54.1 8.3 55.65 6.7 56.05 6.35 56.45 6.05 56.65 5.95 56.7 6.05 56.95 6.6 57.4 6.65 58.05 6.7 58.65 6.7 59.2626953125 6.67890625 59.8 6.45 59.645703125 6.2806640625 59.45 6.1 59.15 5.85 59.25 5.65 59.671875 4.80625 60.55 3.85 60.695703125 3.9755859375 60.8 4.05 61.0353515625 3.81796875 61.3 3.6 61.65 3.35 62.15 3.2 62.9537109375 3.026171875 63.75 2.95 63.79296875 2.9380859375 63.8 2.9 63.966796875 2.783203125 64.1 2.65 64.1 2.798046875 64.1 2.9
L 64.1 2.95
Q 64.1193359375 4.08359375 64.25 4.65 64.2763671875 4.7498046875 64.3 4.85 64.7822265625 6.35 66.1 6.35 66.9 6.35 67.7 6.05 68.25 5.75 68.85 5.3 69.42734375 4.8462890625 70.2 4.2 70.32734375 4.08984375 70.45 3.95 70.5025390625 3.9404296875 70.55 3.9 70.6 3.95 71.85 5.1
L 73.6 5.1
Q 74 5 75.05 4.5
L 75.1 4.65
Q 75.6 5.9 76.45 9.65 76.75 10.45 77.2 11.05 77.6 11.65 78.15 12.05 78.35 12.2 78.6 12.35 78.7 12.4 78.8 12.5 79.6 12.85 80.6 12.85 81.45 12.85 82.1 12.4 82.4 13.1 82.05 14.7
M 71.6 46.05
Q 71.65 46.15 71.7 46.25 71.85 46.5 72.15 46.6
L 71.6 46.05
M 70.3 26.1
Q 71.0078125 26.3359375 71.35 25.5 70.6568359375 25.7021484375 70.3 26.1
M 66.4 26.9
Q 66.419921875 26.820703125 66.45 26.75 66.423046875 26.723046875 66.4 26.7 65.933203125 26.233203125 65.3 26.65 65.7185546875 26.8076171875 66.15 26.9 66.4 26.95 66.4 26.9
M 60.15 26.95
Q 60.4576171875 27.2189453125 60.7 27.35 60.525 27.064453125 60.4 26.7 60.25390625 26.7974609375 60.15 26.95 Z"/>

<path fill="#009900" stroke="none" d="
M 14.65 32.9
Q 14.4 32.7 14.35 32.4 14.2716796875 31.9298828125 14.2 31.45 14.151953125 31.5248046875 14.1 31.6 13.15 32.95 13 33.15 14.6625 33.437890625 15.25 34.15 15.1662109375 33.3251953125 14.65 32.9
M 18.25 22.35
Q 18.1998046875 22.35 18.15 22.35 17.7 22.35 16.85 21.1 16.8 21.65 15.6 22.7 14.15 23.9 12.5 24.25 14.35 25 14.8 25.75 15 26.05 15 27.2 15 27.5091796875 14.95 28.05 15.2615234375 28.0056640625 15.55 28.15 18.2 29.65 20.15 32.45 20.65 33.2 21.35 33.65 21.592578125 33.8279296875 21.8 33.85 21.994921875 33.7927734375 22.05 33.65 22.1390625 33.58125 22.2 33.5 22.442578125 33.2748046875 22.7 33.15 23.246484375 32.8845703125 23.9 32.95 24.15 32.95 24.3 33.05 24.9 33.45 25.4 33.95 25.55 33.95 25.55 33.9 25.6392578125 33.6322265625 25.7 33.3 25.7392578125 33.2875 25.75 33.25 25.9 32.85 26.25 32.6 27.1 31.95 28.4 32.25 28.65 32.35 28.9 32.4 29.85 32.6 30.7 33.1 30.9 33.2 31.05 33.1 31.3 32.95 31.45 32.75 31.7513671875 32.42109375 32.1 32.2 25.72890625 28.909765625 22.75 25.6 22.05 27.15 21.5 27.35 19.85 25.9 20 25.15 19.8 25.35 19.65 25.45 19.4 25.6 19 25.6
L 18.5 25.5 18.25 25.35 18.25 22.35
M 60.65 39.6
Q 59.44609375 39.23125 58.2 38.8 57.9 38.7 57.65 38.7 57.4 38.7 57.2 38.65 53.45 38.05 52.75 41 52.65 41.45 52.5 41.5 52.313671875 41.5642578125 52.15 41.6 53.01953125 42.35 53.75 42.35 54.4 42.35 55.25 42.1 56.05 41.85 57 41.35 59 40.3 59.85 40.25 60.1541015625 40.03828125 60.65 39.6
M 42.5 42.2
Q 42.15 42.45 41.75 42.25 40.35 41.55 39.15 40.95 38.65 40.7 38.15 40.7 37.3 40.75 36.55 41.9 35.55 43.5 34.05 42.65 33.65 42.45 33.4 42.2 32.0568359375 40.7572265625 31.65 38.95
L 31.6 38.95
Q 30.583984375 38.491015625 29.6 37.9 29.448046875 37.816015625 29.3 37.7 28.322265625 37.136328125 27.4 36.45 26.85 37.7 26.1 39.4 25.9 39.85 25.55 39.9 25.05 40.05 24.4 40 24.15 39.95 24.05 40.1 23.8 40.35 23.55 40.65 23.3 41.1 23.05 41.55 23.7330078125 41.99140625 26 43.55 29.6 45.75 31.8 45.75
L 39.1 41.85
Q 39.6 41.85 40.55 42.85 41.45 43.85 41.85 43.85 43.65 43.85 44.95 42.6 45.618359375 41.98125 46.1 41.65 44.599609375 40.899609375 43.65 39.95 43.9 40.9 43.25 41.55 42.9 41.95 42.5 42.2
M 48.35 42.25
Q 48.837109375 42.25 49.25 41.5 48.64453125 41.975390625 47.65 42 47.80390625 42.25 48.35 42.25
M 49.9 40.55
Q 49.9935546875 40.5228515625 50.05 40.45 50.0556640625 40.2720703125 50.05 40 50.016796875 40.3158203125 49.9 40.55
M 62.75 37.65
Q 62.4572265625 37.6421875 62.15 37.55 61.9 37.45 61.65 37.45 61.8044921875 38.15625 61.7 38.65 62.2078125 38.213671875 62.75 37.65
M 84.85 16.4
Q 82.2 16.05 82.05 14.7 82.4 13.1 82.1 12.4 81.45 12.85 80.6 12.85 79.6 12.85 78.8 12.5 78.7 12.4 78.6 12.35 78.35 12.2 78.15 12.05 77.6 11.65 77.2 11.05 76.75 10.45 76.45 9.65 75.6 5.9 75.1 4.65
L 75.05 4.5
Q 74 5 73.6 5.1
L 71.85 5.1
Q 70.6 3.95 70.55 3.9 70.5025390625 3.9404296875 70.45 3.95 70.32734375 4.08984375 70.2 4.2 69.42734375 4.8462890625 68.85 5.3 68.25 5.75 67.7 6.05 66.9 6.35 66.1 6.35 64.7822265625 6.35 64.3 4.85 64.2763671875 4.7498046875 64.25 4.65 64.1193359375 4.08359375 64.1 2.95 63.928515625 2.9775390625 63.75 2.95 62.3322265625 4.35 61.75 4.35 61.2734375 4.35 60.8 4.05 60.695703125 3.9755859375 60.55 3.85 59.671875 4.80625 59.25 5.65 59.15 5.85 59.45 6.1 59.645703125 6.2806640625 59.8 6.45
L 59.8 6.45
Q 59.8078125 6.8287109375 59.85 7.2 59.9 7.45 59.95 7.45 60.1685546875 7.5076171875 60.4 7.55 60.434765625 7.915234375 60.15 8.2 58.8 9.4 57.15 9.4 56.85 9.4 56.65 8.95 56.55 8.6 56.4 8.2 56.55 9.7 55.35 10.65 54.8 11.1 54.1 11.35 52.45 12.1 50.65 12.1 49.9 12.1 50 12.95 50.05 13.35 49.8 13.6 49.55 13.95 49.15 14.2 48.35 14.8 47.85 14.25 47.55 13.95 47.15 13.7 46.2826171875 15.6234375 44.45 16.15 44.6296875 16.4154296875 44.85 16.7 45.9 18.1 46.4 18.1 48.05 18.1 49.1 17.35 50.15 16.6 51 16.6 51.55 16.6 52.45 17.7 53.35 18.75 53.8 18.75 54 18.75 54.8 18.05 55.65 17.35 56.1 17.35 56.65 17.35 56.95 17.7 57.15 17.9 57.75 18.6
L 62.15 18.6
Q 63.3 18.35 68.75 16.6 69.35 16.6 69.3 16.75
L 69.35 17.4
Q 69.35 18.25 68.15 18.8 66.5 19.45 65.9 20.15 64.95 22.05 64.4 22.3 64 22.5 58.6 22.5 57.4 22.5 53.65 26.2 49.85 29.85 48.1 29.85 46.55 29.85 45.75 29.15 45.2 28.4 45.05 28.25 44.3 29.6 43.65 30.6 42.35 32.6 40.85 32.6 40.3 32.6 39.8 32.2 39.15 31.65 39.05 31.6 38.9 32 38.8 32.4 38.7 32.6 38.1 32.6 37.2 32.6 36 31.75 34.85 30.95 34.05 29.9 33.966015625 30.2357421875 33.7 31 33.558984375 31.39765625 33.35 31.9 33.83203125 31.9060546875 34.35 32.05 37 32.8 39.7 34.15 40.05 34.35 40.35 34.25 42.25 33.8 44.15 33.4 44.9 33.3 45.4 33.7 45.95 34.2 46.65 34.1 46.9 34.1 47.15 34.1 48.35 34.15 49.2 33.5 49.4 33.35 49.55 33.15 50.1 32.5 50.9 32.75 51.6 33 52.1 33.5 52.4 33.85 52.7 33.85 53.2234375 33.9373046875 53.4 34.3 54.622265625 34.5548828125 55.25 35.9 55.65 36.7 56.35 37.2 56.65 37.45 57.15 37.45 57.65 34 60.65 35.45 62.5193359375 36.3126953125 63.1 37.35 63.8880859375 36.5994140625 64.85 35.65 65.1 35.35 65.35 35.1 66.05 35.1 66.3 35.5 66.4 35.75 66.6 36.1
L 67.5 34.7
Q 68.2 33.6 68.85 33.6 69.75 33.6 70.25 34.85 70.95 34.6 72.45 33.05 72.8251953125 32.6748046875 73.1 32.4 72.7603515625 32.146484375 72.4 31.95 72.4 32.1 72.35 32.2 72.15 32.6 72 33 71.7 33.75 71.15 33.9 70.05 34.1 69.5 33.15 68.85 32.05 68.4 31.2 67.95 32.5 67.1 33.65 66.4 34.65 65.65 33.7 65.4 33.35 65.2 32.9 64.75 31.8 64.15 31.2 64.05 31.45 63.9 31.7 63.65 32.1 63.35 32.4 63.15 32.6 63.05 32.5 62.61484375 32.1857421875 62.25 31.8 61.8357421875 31.390625 61.5 30.9 61.3 30.6 61.05 30.35 60.9 30.2 60.7 30.1 60.4 29.95 60.35 29.65 60.15 28.8 60.05 27.95 59.982421875 27.30859375 60.15 26.95 60.25390625 26.7974609375 60.4 26.7 60.525 27.064453125 60.7 27.35 61.395703125 28.4083984375 62.9 28.25 63.15 28.2 63.3 28.1 64.25 27.45 65.2 26.75 65.246484375 26.7134765625 65.3 26.65 65.933203125 26.233203125 66.4 26.7 66.423046875 26.723046875 66.45 26.75 66.677734375 26.9591796875 66.95 27.05 67.4 27.2 67.9 27.3 69.6 27.55 70.1 26.45 70.1806640625 26.26171875 70.3 26.1 70.6568359375 25.7021484375 71.35 25.5 71.40234375 25.373046875 71.45 25.2 71.65 24.55 72.4 24.65 72.8 24.7 73.05 24.85 73.55 25.1 74.15 24.9 74.6 24.75 74.95 24 75.3 23.35 75.8 23.2 77.5 22.75 79.15 23.7 79.65 23.95 79.95 23.8 80.95 23.35 81.9 22.2 82.15 21.95 82.4 21.95 83.5 22.05 84.65 22.7 85.2 23.1 85.85 22.85 86.25 22.75 86.45 21.95 86.55 21.6 86.7 21.55 86.78359375 21.5337890625 86.85 21.5
L 86.05 20.85 85.8 20.85
Q 85.75 20.7 85.7 20.6
L 85.1 20.5
Q 84.85 18.8 84.85 16.4
M 71.3 9.75
Q 71.2 10.05 70.95 10.1 70.9 10.1 70.85 10.1
L 70.35 9.85
Q 70.35 9.4 70.5 9.15 70.6 8.9 70.85 8.85 71 8.95 71.2 9 71.35 9.05 71.35 9.45 71.35 9.75 71.35 9.85
L 71.3 9.75
M 73.95 14.45
Q 73.8 14.3 73.6 14 73.35 13.55 73.35 13.35 73.35 13 73.6 12.9 73.75 12.85 73.85 12.85 74.25 13.25 74.55 13.55 74.85 13.95 74.85 14.1 74.8 14.4 74.75 14.45 74.65 14.6 74.25 14.6 74.1 14.6 73.95 14.45
M 72.35 17.2
Q 72.35 16.45 72.85 16.35 73.45 16.5 73.55 16.9 73.6 17 73.6 17.45
L 73.55 18.15
Q 73.75 18.35 73.1 18.35 72.45 18.35 72.35 17.8 72.35 17.25 72.35 17.2
M 19.95 41.05
Q 19.5568359375 41.201171875 19.2 41.55 19.478125 41.840625 19.75 42.1 20.5876953125 41.97734375 21.1 41.85 20.9435546875 41.637109375 20.8 41.35 20.55 40.8 19.95 41.05
M 31.85 18.1
Q 31.4869140625 17.72734375 31.05 17.4 31.2998046875 17.762109375 31.55 18.1 31.7021484375 18.1 31.85 18.1
M 40.25 15.85
Q 40.25 15.7740234375 40.25 15.7 40.3 15.6 40.15 15.45 39.6 16.1 38.65 16.4 36.25 17 33.9 17.05 33.8 17.1 33.6 17 33.2 16.9 33.15 16.45 32.8462890625 17.3177734375 32.55 18.1 33.721484375 18.1404296875 34.05 18.25 35.012109375 18.25 40.25 15.85
M 79.55 33.75
Q 79.0578125 33.5861328125 78.6 33.3 78.05 32.95 77.65 32.5 77.25 32 76.65 31.95 76.65 32.2 76.6 32.45 76.507421875 32.9826171875 76.25 33.3 77.3291015625 34.35 77.85 34.35 78 34.35 78.2 34.35 78.935546875 34.2486328125 79.55 33.75
M 27.65 14.6
Q 27.573046875 14.217578125 27.3 13.9 27.3369140625 14.1751953125 27.35 14.45 27.5173828125 14.5287109375 27.65 14.6
M 64.1 2.9
Q 64.1 2.798046875 64.1 2.65 63.966796875 2.783203125 63.8 2.9 63.79296875 2.9380859375 63.75 2.95 63.928515625 2.9775390625 64.1 2.95
L 64.1 2.9 Z"/>

<path fill="#1E881E" stroke="none" d="
M 88.15 30
L 88.15 29.95
Q 88.1201171875 30.56875 88.05 31.2 88.05 31.45 87.85 31.55 86.908203125 31.8775390625 86.5 31.25 86.921484375 32.3203125 86.4 33.45 86.3 33.7 86.1 33.75 83.95 34.25 82.5 32.6 81.9 32 81.4 31.7 81.4 32.2 81.3 32.7 81.3 32.95 81.3 33.2 81.4 34.2 80.4 34 79.972265625 33.914453125 79.55 33.75 78.935546875 34.2486328125 78.2 34.35 78 34.35 77.85 34.35 77.3291015625 34.35 76.25 33.3 76.078125 33.178125 75.9 33 74.55 31.6 74 31.6 73.92578125 31.6 73.1 32.4 72.8251953125 32.6748046875 72.45 33.05 70.95 34.6 70.25 34.85 69.75 33.6 68.85 33.6 68.2 33.6 67.5 34.7
L 66.6 36.1
Q 66.4 35.75 66.3 35.5 66.05 35.1 65.35 35.1 65.1 35.35 64.85 35.65 63.8880859375 36.5994140625 63.1 37.35 62.5193359375 36.3126953125 60.65 35.45 57.65 34 57.15 37.45 56.65 37.45 56.35 37.2 55.65 36.7 55.25 35.9 54.622265625 34.5548828125 53.4 34.3 53.2234375 33.9373046875 52.7 33.85 52.4 33.85 52.1 33.5 51.6 33 50.9 32.75 50.1 32.5 49.55 33.15 49.4 33.35 49.2 33.5 48.35 34.15 47.15 34.1 46.9 34.1 46.65 34.1 45.95 34.2 45.4 33.7 44.9 33.3 44.15 33.4 42.25 33.8 40.35 34.25 40.05 34.35 39.7 34.15 37 32.8 34.35 32.05 33.83203125 31.9060546875 33.35 31.9 33.2681640625 32.184765625 33.15 32.5 33.5 32.6 32.85 32.6 32.472265625 32.409765625 32.1 32.2 31.7513671875 32.42109375 31.45 32.75 31.3 32.95 31.05 33.1 30.9 33.2 30.7 33.1 29.85 32.6 28.9 32.4 28.65 32.35 28.4 32.25 27.1 31.95 26.25 32.6 25.9 32.85 25.75 33.25 25.7392578125 33.2875 25.7 33.3 25.6392578125 33.6322265625 25.55 33.9 25.55 33.95 25.4 33.95 24.9 33.45 24.3 33.05 24.15 32.95 23.9 32.95 23.246484375 32.8845703125 22.7 33.15 22.442578125 33.2748046875 22.2 33.5 22.1390625 33.58125 22.05 33.65 21.994921875 33.7927734375 21.8 33.85 21.592578125 33.8279296875 21.35 33.65 20.65 33.2 20.15 32.45 18.2 29.65 15.55 28.15 15.2615234375 28.0056640625 14.95 28.05 14.8970703125 28.546875 14.8 29.25 14.85 29.25 14.9 29.25 15 29.3 15 29.7 15 30.265234375 14.2 31.45 14.2716796875 31.9298828125 14.35 32.4 14.4 32.7 14.65 32.9 15.1662109375 33.3251953125 15.25 34.15 15.517578125 34.494921875 15.55 34.9 15.6 35.021875 15.6 35.15 15.6 36.1453125 15.65 36.75 15.7810546875 37.5310546875 16 37.75 16.75 38.5 17.75 39.85 18.4275390625 40.753515625 19.2 41.55 19.5568359375 41.201171875 19.95 41.05 20.55 40.8 20.8 41.35 20.9435546875 41.637109375 21.1 41.85
L 21.15 41.85
Q 21.948046875 41.673046875 22.15 41.5 22.3697265625 41.3681640625 22.65 41.35 22.7078125 41.35 22.75 41.35
L 22.85 41.4
Q 22.9435546875 41.46875 23.05 41.55 23.3 41.1 23.55 40.65 23.8 40.35 24.05 40.1 24.15 39.95 24.4 40 25.05 40.05 25.55 39.9 25.9 39.85 26.1 39.4 26.85 37.7 27.4 36.45 28.322265625 37.136328125 29.3 37.7 29.448046875 37.816015625 29.6 37.9 30.583984375 38.491015625 31.6 38.95
L 31.65 38.95
Q 32.0568359375 40.7572265625 33.4 42.2 33.65 42.45 34.05 42.65 35.55 43.5 36.55 41.9 37.3 40.75 38.15 40.7 38.65 40.7 39.15 40.95 40.35 41.55 41.75 42.25 42.15 42.45 42.5 42.2 42.9 41.95 43.25 41.55 43.9 40.9 43.65 39.95 44.599609375 40.899609375 46.1 41.65 46.572265625 41.35 46.85 41.35 47.266015625 41.35 47.45 41.45 47.6240234375 41.583984375 47.6 41.8 47.6 41.922265625 47.65 42 48.64453125 41.975390625 49.25 41.5 49.2984375 41.4087890625 49.35 41.3 49.5869140625 40.7998046875 49.9 40.55 50.016796875 40.3158203125 50.05 40 50.0556640625 40.2720703125 50.05 40.45 50.308984375 40.35 50.6 40.35 50.8 40.35 51.85 41.35 51.99765625 41.490625 52.15 41.6 52.313671875 41.5642578125 52.5 41.5 52.65 41.45 52.75 41 53.45 38.05 57.2 38.65 57.4 38.7 57.65 38.7 57.9 38.7 58.2 38.8 59.44609375 39.23125 60.65 39.6 60.1541015625 40.03828125 59.85 40.25 59 40.3 57 41.35 56.05 41.85 55.25 42.1
L 55.4 43.1
Q 54.75 43.35 54.5 43.35
L 55.35 46.75
Q 55.55 46.75 56 46.6
L 56.05 46.6
Q 56.55 46.65 57.05 47.45 57.05 47.5 57.1 47.55
L 56.35 48.35
Q 56.15 49.15 55.85 51.85 55.75 52.1 55.1 52.1 54.5 52.1 53.45 50.85 52.25 49.3 52.15 49.25 51.7 49.5 51.65 50.4 51.65 51.1 50.5 51.25 51 52.85 51.3 53.4 52.05 54.7 53.25 54.6 55.6 54.4 56.35 55.3 56.8 55.85 57.8 57.35 58.05 57 58.15 56.35 58.55 55.85 60.6 55.85 61.5 55.85 62.25 56.6 62.85 56.6 63.45 56.55 64.8892578125 56.4060546875 66.35 56 67.69140625 55.6880859375 69.05 55.15 69.3001953125 55.0546875 69.55 54.95 70.121875 54.7091796875 70.6 54.5 70.61015625 54.48203125 70.6 54.45 71.2677734375 54.185546875 71.7 53.9 71.766015625 53.9185546875 71.8 53.9 72.625 53.45 72.85 53.15 73.1 52.85 73.9 52.35 74.55 51.8 74.6 51.1 74.6 50.05 74.65 49.85 74.75 49.5 75 49.25 75.1 49.15 75.2 49.1
L 75.75 50 76.55 50.55
Q 77 50.85 77.85 50.85 79.05 50.85 81 48.65 81.9 47.65 82.4 46.9 82.85 46.15 82.85 45.7 82.85 45.4 82.25 44.5 81.6 43.6 81.6 42.75 81.6 42.45 81.85 41.9 82.1 41.3 82.1 41 82 40.45 81.7 40.2
L 81.7 40.15 82.5 38.45 82.35 38.35
Q 82.35 37.85 82.85 37.6
L 82 36.5 84.1 34.85
Q 84.1 34.35 84.6 34.1 84.85 34.2 85 34.45 85.1 34.6 85.1 34.85
L 84.6 35.1 85.35 37.6
Q 85.5 37.7 85.7 37.75 85.85 37.8 85.85 38.1
L 88.55 37.85
Q 88.55 37.75 88.55 37.6 88.55 37.4 88.65 37.3 88.55 37.25 88.55 36.85 88.65 36.55 88.8 36.3 89.25 35.1 89.25 34.85 88.7 34.05 88.15 33.9 87.8 33.85 87.8 33.5 87.8 33.25 88.3 32.35 88.8 31.5 88.8 31.35
L 88.15 30
M 74.85 42.6
L 74.35 42.85
Q 74.3 42.8 74.25 42.75 74.3 42.65 74.35 42.6 74.55 42.15 74.85 41.8
L 74.85 42.6
M 71.7 46.25
Q 71.65 46.15 71.6 46.05
L 72.15 46.6
Q 71.85 46.5 71.7 46.25
M 62.15 37.55
Q 62.4572265625 37.6421875 62.75 37.65 62.2078125 38.213671875 61.7 38.65 61.8044921875 38.15625 61.65 37.45 61.9 37.45 62.15 37.55
M 36.15 68
Q 37.6 69.35 37.85 69.45 39 70.05 42.85 70.6 43.35 70.85 43.4 71.3 43.7 71.6 45.65 71.6 46.75 71.6 48 70.85 49.25 70.1 49.85 70.1 50.2 70.1 50.25 70.35 50.35 70.6 50.65 70.6 51.3 70.6 56.15 70.25 59 68.4 60.65 66.4 61.55625 65.3125 63.55 62.75
L 63.55 62.7
Q 63.7859375 62.4732421875 64 62.2
L 63.9 62.25
Q 61.75 64.1 60.35 64.1 58.25 63.75 56.6 63.6 56.5 63.6 56.35 63.35 56.2 63.1 55.85 63.1 54.85 63.1 54.7 63.9 54.6 64.35 54.65 65.1
L 53.35 65.1
Q 53.15 65.1 50.95 64.25 48.9 63.4 48.5 63.2 46.25 65.85 42.75 65.85 41.75 65.85 40.85 65.3 40.15 64.7 40.05 64.7 39 64.7 38.45 65.05 37.55 65.7 36.85 65.95 36.85 66.2 36.75 66.95 36.6 67.7 36.15 68 Z"/>

<path fill="#009800" stroke="none" d="
M 74.35 42.85
L 74.85 42.6 74.85 41.8
Q 74.55 42.15 74.35 42.6 74.3 42.65 74.25 42.75 74.3 42.8 74.35 42.85 Z"/>

<path fill="#1D881E" stroke="none" d="
M 69.3 16.75
Q 69.35 16.6 68.75 16.6 63.3 18.35 62.15 18.6
L 57.75 18.6
Q 57.15 17.9 56.95 17.7 56.65 17.35 56.1 17.35 55.65 17.35 54.8 18.05 54 18.75 53.8 18.75 53.35 18.75 52.45 17.7 51.55 16.6 51 16.6 50.15 16.6 49.1 17.35 48.05 18.1 46.4 18.1 45.9 18.1 44.85 16.7 44.6296875 16.4154296875 44.45 16.15 46.2826171875 15.6234375 47.15 13.7 47.55 13.95 47.85 14.25 48.35 14.8 49.15 14.2 49.55 13.95 49.8 13.6 50.05 13.35 50 12.95 49.9 12.1 50.65 12.1 52.45 12.1 54.1 11.35 54.8 11.1 55.35 10.65 56.55 9.7 56.4 8.2 56.55 8.6 56.65 8.95 56.85 9.4 57.15 9.4 58.8 9.4 60.15 8.2 60.434765625 7.915234375 60.4 7.55 60.1685546875 7.5076171875 59.95 7.45 59.9 7.45 59.85 7.2 59.8078125 6.8287109375 59.8 6.45
L 59.8 6.45
Q 59.2626953125 6.67890625 58.65 6.7 58.05 6.7 57.4 6.65 56.95 6.6 56.7 6.05 56.65 5.95 56.45 6.05 56.05 6.35 55.65 6.7 54.1 8.3 52.1 9.05 52.05 9.1 51.9 8.95 51.25 8.2 51.15 7.25 51.15 7.2 50.9 7.25 48.25 7.7 45.9 8.95 45.85 7.25 44.85 6 44.793359375 5.9306640625 44.7 5.85 43.898828125 6.608984375 43.45 6.9 43.2 7.1 43.1 7.1 42.9015625 7.1 41.85 5.6 41.5130859375 5.731640625 41.2 6 40.95 6.25 40.4 5.7 40.1 6.85 39.05 7.55 38.8 7.7 38.4 7.7 35.8921875 7.8857421875 35.45 6 35.1517578125 6.3919921875 34.8 6.85 32.95 9.35 32.5 9.35 32.264453125 9.35 31.85 8.85 31.72890625 8.721875 31.6 8.55 30.9 7.55 30.6 7.35 30.7 7.9 30.15 9.15 29.8189453125 9.812109375 29.6 10.35 29.402734375 10.9283203125 29.35 11.35 28.6 11.5 28 11.15 27.3 11.55 27.3 12.8 27.3 13.24296875 27.3 13.9 27.573046875 14.217578125 27.65 14.6 27.5173828125 14.5287109375 27.35 14.45 27.2 14.4 27.1 14.35 26.65 14.15 26.4 14.15
L 26.35 14.15
Q 26 14.2 26 14.65 26 14.8 26.2 15 25.9 15.55 25.1 16.1 24.85 16.05 24.75 16 24.6 15.95 24.6 15.55 24.6 15.2 24.85 14.7 25.1 14.15 25.1 13.85 25.1 13.5 24.6 12.55 23.87578125 12.4984375 23.15 12.4 22.42578125 13.130078125 21.1 14.15 21.0314453125 14.2021484375 20.95 14.25 21.4666015625 14.6666015625 21.9 15.2 21.4666015625 14.6666015625 20.95 14.25 20.4451171875 14.6611328125 20.05 15.05 18.8 16.2328125 18.8 17.15 18.8 17.75 19.35 20.45 19.35 21.2 19 21.75 18.85 22 18.7 22.15 18.55 22.25 18.45 22.3 18.3498046875 22.3333984375 18.25 22.35
L 18.25 25.35 18.5 25.5 19 25.6
Q 19.4 25.6 19.65 25.45 19.8 25.35 20 25.15 19.85 25.9 21.5 27.35 22.05 27.15 22.75 25.6 25.72890625 28.909765625 32.1 32.2 32.472265625 32.409765625 32.85 32.6 33.5 32.6 33.15 32.5 33.2681640625 32.184765625 33.35 31.9 33.558984375 31.39765625 33.7 31 33.966015625 30.2357421875 34.05 29.9 34.85 30.95 36 31.75 37.2 32.6 38.1 32.6 38.7 32.6 38.8 32.4 38.9 32 39.05 31.6 39.15 31.65 39.8 32.2 40.3 32.6 40.85 32.6 42.35 32.6 43.65 30.6 44.3 29.6 45.05 28.25 45.2 28.4 45.75 29.15 46.55 29.85 48.1 29.85 49.85 29.85 53.65 26.2 57.4 22.5 58.6 22.5 64 22.5 64.4 22.3 64.95 22.05 65.9 20.15 66.5 19.45 68.15 18.8 69.35 18.25 69.35 17.4
L 69.3 16.75
M 40.25 15.7
Q 40.25 15.7740234375 40.25 15.85 35.012109375 18.25 34.05 18.25 33.721484375 18.1404296875 32.55 18.1 32.8462890625 17.3177734375 33.15 16.45 33.2 16.9 33.6 17 33.8 17.1 33.9 17.05 36.25 17 38.65 16.4 39.6 16.1 40.15 15.45 40.3 15.6 40.25 15.7
M 31.05 17.4
Q 31.4869140625 17.72734375 31.85 18.1 31.7021484375 18.1 31.55 18.1 31.2998046875 17.762109375 31.05 17.4
M 82.4 21.95
Q 82.15 21.95 81.9 22.2 80.95 23.35 79.95 23.8 79.65 23.95 79.15 23.7 77.5 22.75 75.8 23.2 75.3 23.35 74.95 24 74.6 24.75 74.15 24.9 73.55 25.1 73.05 24.85 72.8 24.7 72.4 24.65 71.65 24.55 71.45 25.2 71.40234375 25.373046875 71.35 25.5 71.0078125 26.3359375 70.3 26.1 70.1806640625 26.26171875 70.1 26.45 69.6 27.55 67.9 27.3 67.4 27.2 66.95 27.05 66.677734375 26.9591796875 66.45 26.75 66.419921875 26.820703125 66.4 26.9 66.4 26.95 66.15 26.9 65.7185546875 26.8076171875 65.3 26.65 65.246484375 26.7134765625 65.2 26.75 64.25 27.45 63.3 28.1 63.15 28.2 62.9 28.25 61.395703125 28.4083984375 60.7 27.35 60.4576171875 27.2189453125 60.15 26.95 59.982421875 27.30859375 60.05 27.95 60.15 28.8 60.35 29.65 60.4 29.95 60.7 30.1 60.9 30.2 61.05 30.35 61.3 30.6 61.5 30.9 61.8357421875 31.390625 62.25 31.8 62.273046875 31.7373046875 62.3 31.65 62.6 30.75 62.9 29.95 63.1 29.4 63.95 29.9 65.2 30.7 65.7 29.5 65.8 29.35 65.9 29.2 66.4 28.5 66.85 27.8 66.9 27.7 67.15 27.7 68.85 27.8 70.45 28.55 70.8 28.7 71.15 28.7 72 28.7 72 27.7 72.05 27.45 72.15 27.2 72.75 27.8 73.45 28.1 73.65 28.2 73.9 28.15 74.75 27.9 74.85 26.95 74.85 26.78125 74.95 26.7 75.0607421875 26.634375 75.35 26.75 76.05 27.1 76.65 27.45 79.25 28.85 82.1 28.45 82.3 28.45 82.4 28.2 82.75 27.65 82.65 26.95 83.95 27.4 85.2 27.85 85.55 27.95 85.9 28 86.75 28.2 86.9 27.7 87.1 27.15 87.4 26.95 87.490625 27.1314453125 87.65 27.25 87.676171875 27.27109375 87.7 27.3 87.9681640625 27.4712890625 88.4 27.5 90.3 27.6 90.8 26.4 90.9 26.2 91.05 26.1 91.15 25.95 91.35 26.05 91.85 26.3 92.25 26 92.55 25.85 92.7 25.45 93.2 24.2 92.5 23.05 92.4 22.85 92.2 22.65 91.4 22.05 90.4 21.8 90.354296875 21.7875 90.3 21.75 89.8458984375 21.591796875 89.8 20.95 89.8 20.85 89.75 20.7 89.65 20.2 89.55 19.7 89.55 19.6 89.45 19.45 89.05 18.7 87.9 18.9 87.1 19.05 87.3 20.2 87.384375 20.832421875 87.4 21.45 87.134375 21.480078125 86.85 21.5 86.78359375 21.5337890625 86.7 21.55 86.55 21.6 86.45 21.95 86.25 22.75 85.85 22.85 85.2 23.1 84.65 22.7 83.5 22.05 82.4 21.95
M 88.2 26.75
Q 88.3220703125 26.671484375 88.45 26.6 88.5798828125 26.81484375 88.65 27.1 88.237109375 27.1591796875 87.8 27.05
L 87.8 27.05
Q 87.9955078125 26.9033203125 88.2 26.75
M 26.75 10.8
Q 26.3646484375 11.012890625 25.9 11.05 25.45390625 11.099609375 25.05 11 25.387109375 11.783984375 25.8 12.3 26.0671875 12.647265625 26.2 13.15 26.27578125 13.1943359375 26.35 13.25 26.36328125 11.6001953125 26.75 10.8
M 24.05 11.35
Q 23.96796875 11.5375 23.75 11.8 23.5419921875 12.06875 23.15 12.4 23.87578125 12.4984375 24.6 12.55 24.05 11.6 24.05 11.35
M 28.3 9.4
Q 28.2505859375 9.3005859375 28.15 9.2
L 27.9 9.7
Q 27.805859375 9.8568359375 27.7 10 28.019140625 9.771484375 28.3 9.4
M 43.45 5.45
Q 43.26171875 5.457421875 43.05 5.45 43.2056640625 5.6 43.3 5.6 43.3875 5.5251953125 43.45 5.45
M 13.9 -0.8
Q 13.9 -0.65 13.95 -0.55 14.15 -0.05 14.4 0.45 14.55 0.7 14.65 0.95 13.8 1.75 12.2 2.1 11.8 2.2 11.5 2.55 11.4 2.7 11.4 2.95 11.55 4.1 11.9 4.7
L 11.75 4.8
Q 11.55 4.95 11.4 5.2 10.75 6.55 11.65 7.7 11.55 7.7 11.45 7.65 11.3 7.6 11.15 7.5 11.05 7.45 10.95 7.4 10.9 7.35 10.85 7.25 10.8 7.2 10.65 7.2 10.05 9.1 10.5 11 10.55 11.1 10.35 11.15 9.35 11.5 9.75 12.65 9.9 13.1 10.25 13.35 10.55 13.6 10.8 13.85 10.8640625 13.9140625 10.9 14.05 12.4486328125 13.922265625 13.45 14.95 13.620703125 14.8275390625 13.75 14.6 13.8 14.426171875 13.8 14.2 13.9 13.6 14.45 13.25 15.85 12.4 17.65 12.65 17.8369140625 12.6873046875 18 12.75 18.53984375 12.434765625 19.15 12.15 19.75 11.9 20.4 12 21.2630859375 12.168359375 22.15 12.3 22.4884765625 11.849609375 22.9 11.2 23.1654296875 10.762890625 23.4 10.4 23.9408203125 9.7513671875 24.45 9.4 24.5265625 9.3888671875 24.6 9.35 24.610546875 9.4017578125 24.6 9.45 24.88671875 9.497265625 25.15 9.55 25.4 9.6 25.65 9.7 25.3 9.2 25.6 8.25 25.65 8.1 25.9 7.95 27.1 7.4 28.35 7.7 28.396875 7.7 28.4 7.9 28.4041015625 7.1859375 28.6 6.5 28.65 6.2 28.9 5.95 29.95 4.85 31.4 4.95 31.8 5 31.9 4.5 32.05 4.1 32.35 3.65 33.5 2.3 35.2 1.85 35.3 1.85 35.4 1.95 35.8 2.35 35.65 2.95 36.15 2.45 36.65 1.6 36.9 1.2 37.4 1 38.25 0.7 39.15 0.45 39.15 0.6 39.15 0.7 39.15 1.2 39.15 1.7 40.15 -0.05 42.4 -0.25 43.15 -0.3 43.65 0.05 43.9 0.2 43.9 0.7 43.9 0.95 43.9 1.2 44.4 0.2 45.65 0.1 45.9 0.1 46.15 0 46.3 -0.05 46.4 -0.05 46.4 0.0740234375 46.4 0.2 46.621484375 0.1111328125 46.95 0.35 47.15 0.45 47.4 0.5 48.9 0.75 50 -0.2 50.85 -0.95 51.9 -0.95 52.15 -0.9 52.3 -0.7 52.55 -0.4 52.75 -0.1 53.15 0.45 54.15 -0.05 54.9 -0.4 55.65 -0.8 55.9 -0.9 56.15 -1.05 56.3 -0.8 56.35 -0.55 56.4 -0.15 56.5 0.2 56.55 0.35 56.65 0.45 57.35 0.5 57.8 -0.2 58.05 -0.55 58.45 -0.7 59 -0.95 59.4 -0.55 59.5251953125 -0.4068359375 59.6 -0.3 59.741015625 -1.1392578125 59.65 -2.05 59.65 -2.3 59.6 -2.3 57.8 -2.55 55.9 -2.65 55.8 -2.65 55.65 -2.8 56.65 -3.85 56.85 -5.3 56.9 -5.55 56.85 -5.55 55.3 -5.95 53.9 -5.55 53.9 -5.95 53.8 -6.25 53.7 -6.75 53.75 -7.3 53.85 -8 53.15 -7.9 52.65 -7.8 52.3 -7.55 51.001171875 -6.6685546875 49.4 -6.55 49.3169921875 -6.6099609375 49.2 -6.7 48.5890625 -7.111328125 47.85 -7.45 45.85 -8.3 43.65 -7.95 42.45 -7.75 42.2 -6.55 42.15 -6.3 42.15 -6.05 41.2 -8 38.9 -8.25 36.95 -8.5 36.5 -6.75 36.4 -6.4 36.4 -6.05 35.8 -6.1 35.35 -6.55 34.8 -7.15 33.9 -7.55 33.4 -7.8 32.85 -7.95 31.65 -8.3 31.05 -7.2 30.65 -6.55 30.5 -5.8 30.4 -5.3 30.3 -4.8 30.3 -4.55 30.15 -4.3 29.55 -4.45 28.8 -4.85 28.05 -5.3 27.15 -5.5 26.55 -5.65 25.9 -5.8 25.8 -5.8 25.65 -5.8 25.65 -5.55 25.6 -5.3 25.4 -4.65 25.25 -4.05 25.15 -3.55 25.15 -3.05 25.15 -2.9 25.15 -2.8 24.35 -3.25 23.8 -3.7 23.65 -3.8 23.4 -3.8 21.55 -3.9 21.4 -2.05 21.35 -1.1 20.15 -1.3 19.275 -1.43125 18.95 -1.35 16.35 -1.55 13.95 -0.95 13.9 -0.9 13.9 -0.8
M 46.4 1.7
Q 46.4 1.19375 46.4 0.7 46.4 0.45859375 46.4 0.2 46.25078125 0.2486328125 46.15 0.45 46 1.05 46.35 1.5 46.396875 1.59375 46.4 1.7 Z"/>
</g>

<g id="unknowntree_0_Layer0_0_FILL">
<path fill="#FFDE00" stroke="none" d="
M 33.4 112
Q 33.35 112 33.25 112.05 33.2 112.1 33.15 112.15 33.15 112.2 33.15 112.25 33.1 112.2 33 112.15 33 112.1 32.95 112 32.75 112.05 32.7 112.35
L 32.65 112.35
Q 32.6 112.3 32.5 112.25 32.45 112.25 32.4 112.25 32.35 112.35 32.25 112.4 32.15 112.6 32 112.8
L 31.95 112.8
Q 31.8173828125 112.8 31.75 112.7 31.8115234375 112.8958984375 31.85 113.05 31.9 113.15 31.95 113.25 31.95 113.35 32 113.4 32.0568359375 113.4759765625 32.1 113.5 32.1423828125 113.3830078125 32.15 113.25
L 32.2 113.3
Q 32.2599609375 113.4400390625 32.3 113.6 32.4400390625 113.8298828125 32.55 114.1 32.80625 114.059375 32.9 114.2 33 114.25 33.05 114.3 33.130078125 114.4603515625 33.15 114.65 33.2353515625 114.671484375 33.3 114.65 33.45 114.65 33.55 114.6 33.5638671875 114.5953125 33.55 114.6 33.7091796875 114.55 33.8 114.55 34.05 114.5 34 114.3 34 114.2248046875 33.95 114.1 33.9248046875 114.087109375 33.9 114.05 33.85 113.95 33.8 113.9 33.6111328125 113.8685546875 33.5 113.8 33.6 113.7 33.65 113.6 33.75 113.45 33.9 113.3
L 33.9 113.25
Q 33.9 112.92890625 33.9 112.65 33.85 112.7 33.8 112.75 33.6 112.45 33.4 112
M 28.05 114.25
Q 28.05 114.2 28.05 114.1
L 28 114.1
Q 27.95 114.15 27.9 114.15 27.85 114.25 27.75 114.3 27.75 114.2 27.75 114.1 27.75 114.05 27.75 114 27.6 114.05 27.5 114.25 27.47421875 114.22421875 27.4 114.2 27.375 114.1875 27.3 114.15 27.25 114.1 27.2 114.05 27.15 114.05 27.05 114 27.05 114.05 27.05 114.1 27 114.25 27 114.4 26.8 114.25 26.6 114.4 26.5 114.5 26.45 114.6 26.45 114.7 26.4 114.75 26.4 114.8 26.3 114.8 26.4 114.85 26.45 115 26.4853515625 115.0353515625 26.55 115.05 26.5587890625 115.087109375 26.55 115.1 26.4033203125 115.2349609375 26.25 115.35 26.25 115.4 26.2 115.4 26.2 115.45 26.2 115.5
L 26.2 115.55
Q 26.35 115.55 26.45 115.55
L 26.45 115.6
Q 26.3 115.55 26.2 115.65 26.2 115.7 26.15 115.75 26.25 115.85 26.5 115.85 26.6 115.85 26.7 115.85
L 26.75 115.9 26.75 115.9
Q 26.8380859375 115.924609375 26.9 115.95 26.984375 115.865625 27.1 115.8 27.190625 115.8 27.3 115.8 27.45 115.8 27.45 115.75 27.6 115.55 28.1 115.2 28.102734375 115.216015625 28.1 115.2 28.084375 115.1142578125 28.05 115.05 28.064453125 114.866796875 28.1 114.75 28.0728515625 114.7267578125 28.05 114.7 28.077734375 114.4724609375 28.05 114.25 Z"/>

<path fill="#669900" stroke="none" d="
M 21.55 122.85
L 21.65 122.95
Q 22.25 123.9 21.15 123.65 20.65 123.6 20.15 123.6 20.05 123.6 19.9 123.6 18.65 123.7 17.4 123.7 19.65 124.2 22.15 124.3 22.55 124.35 22.9 124.45 25.55 125.15 28.4 125.05 30.65 124.95 32.9 124.85 33.15 124.85 33.4 124.8 35.65 124.7 37.9 124.7 39.15 124.7 40.35 124.45 40.4 124.45 40.4 124.2 40.34140625 123.672265625 40.35 123.15 40.3576171875 123.0107421875 40.35 122.85 40.393359375 122.6599609375 40.4 122.45 40.5275390625 121.820703125 40.75 121.2 40.5037109375 121.47890625 40.15 121.7 39.9 121.85 39.65 121.95 39.55 121.85 39.5 121.7 39.4 120.7 39.4 119.7 39.3 119.7 39.2 119.75 39.05 119.95 38.85 120.2 38.8 120.35 38.7 120.5 38.65 120.6 38.65 120.7 38.55 120.6 38.5 120.45 38.45 119.6 38.15 118.95 37.8 119.8 37.75 120.7 37.7 121.4 37.15 121.55
L 37.1 121.55
Q 36.1671875 119.7578125 35.15 118.45 35.05 118.35 34.9 118.2 34.5 118.3 34.55 118.95 34.65 119.7 34.75 120.45 34.8 120.7 34.9 120.95 34.4615234375 119.913671875 33.3 119.4 33.1876953125 119.36640625 33.05 119.3 33.033203125 119.1265625 33 118.9 32.95859375 118.7384765625 32.9 118.55 32.944140625 118.503515625 32.95 118.45 32.97890625 118.24765625 32.85 118.2 32.8369140625 118.0478515625 32.8 117.9 32.8 117.75 32.85 117.6 32.85 117.55 32.9 117.5 32.95 117.45 32.95 117.4 33 117.25 33.2 117.1 33.3 117 33.35 116.9 33.4 116.85 33.45 116.8 33.5 116.75 33.5 116.65 33.6 116.6 33.65 116.55 33.7 116.5 33.7 116.4 33.8 116.25 33.95 116.1 34 116.05 34.05 116.05 34.15 116 34.2 115.95
L 34.25 115.95
Q 34.35 115.9 34.4 115.9 34.45 115.9 34.45 115.85 34.6 115.85 34.7 115.85 34.75 115.85 34.75 115.8 34.75 115.65 34.9 115.55
L 34.9 115.5
Q 34.9 115.3 34.7 115.3 34.575 115.3 34.45 115.3 34.255078125 115.4787109375 34.05 115.65 34.0349609375 115.6890625 34 115.7 33.67109375 116.0486328125 33.4 116.35 33 116.8 32.8 117.35 32.75 117.6 32.7 117.8 32.616796875 118.0080078125 32.55 118.2 32.5083984375 118.2455078125 32.45 118.25 32.2845703125 118.33828125 32.15 118.45 32.15 118.19765625 32.15 117.95 32.1 117.8 32.1 117.7 32.05 117.5 32.1 117.3 32.15 117.05 31.95 116.9 31.9 116.85 31.9 116.7 31.9 116.4302734375 31.9 116.15 31.9294921875 116.1 31.95 116.05 32.05 115.9 32.15 115.7 32.5 115.35 32.65 114.95 32.677734375 114.866796875 32.7 114.8 32.76015625 114.8 32.8 114.8
L 32.95 114.8
Q 32.95 115.09296875 33.2 115.05 33.24296875 115.0662109375 33.3 115.05 33.3 115 33.3 114.95 33.25 114.9 33.2 114.8 33.1900390625 114.7404296875 33.15 114.65 33.130078125 114.4603515625 33.05 114.3 33 114.25 32.9 114.2 32.80625 114.059375 32.55 114.1 32.4400390625 113.8298828125 32.3 113.6 32.2599609375 113.4400390625 32.2 113.3
L 32.15 113.25
Q 32.1423828125 113.3830078125 32.1 113.5 32.10859375 113.7173828125 32.1 113.9 32.1166015625 114.015625 32.1 114.1
L 32.15 114.1
Q 32.27265625 114.17578125 32.35 114.2
L 32.35 114.25
Q 32.3 114.35 32.25 114.35 32.064453125 114.4427734375 32.1 114.75 32.0935546875 114.7564453125 32.05 114.8 31.5837890625 115.2662109375 31.6 115.95 31.5966796875 115.9994140625 31.6 116.05 31.6 116.2 31.6 116.3 31.5890625 116.4203125 31.55 116.55 31.566796875 116.6998046875 31.55 116.85 31.533984375 117.03203125 31.45 117.2 31.4 117.35 31.35 117.45 31.3197265625 117.6318359375 31.3 117.8 31.040234375 117.48125 30.65 117.3 30.53359375 117.241796875 30.4 117.2 30.4 117.415625 30.4 117.6 30.4 117.715625 30.4 117.8 30.4 118.2 30.35 118.55 30.32890625 118.7689453125 30.3 119 30.2951171875 119.3982421875 30.3 119.8 30.2921875 120.08671875 30.3 120.35
L 30.3 120.4
Q 30.310546875 120.8357421875 30.35 121.25 30.4572265625 121.396484375 30.5 121.6 30.5181640625 121.639453125 30.5 121.65 30.474609375 121.678125 30.4 121.65
L 30.4 121.7
Q 30.35 122.1 30.3 122.45 30.3 122.6 30.25 122.6 30.1708984375 122.6263671875 30.1 122.65 30.1998046875 123.119921875 30.65 123.45 28.85 123.2 27.4 122.2 27.35 122.15 27.3 122.1 27.136328125 122.1130859375 26.95 122.1 26.9 122.4029296875 26.9 122.7 26.9 123.1 26.9 123.45 26.65 123.45 26.45 123.35 25.9185546875 123.154296875 25.55 122.8 25.5537109375 122.8037109375 25.5 122.75 25.491015625 122.741015625 25.45 122.7 25.4017578125 122.63515625 25.35 122.55 25.340234375 122.547265625 25.3 122.5 25.224609375 122.3703125 25.15 122.2
L 25.05 122.2
Q 25.05 122.45 25.1 122.7 25.1158203125 122.7791015625 25.1 122.85 25.15 123.0291015625 25.15 123.2 25.2 123.6 24.65 123.45 23.1302734375 123.035546875 21.75 122.85 21.664453125 122.8619140625 21.55 122.85
M 28.65 114.2
Q 28.6 114.2 28.55 114.2 28.3966796875 114.3533203125 28.25 114.5 28.198828125 114.551171875 28.15 114.6
L 28.15 114.65
Q 28.2 114.9125 28.2 115.2 28.18515625 115.4375 28.1 115.6 28.133203125 115.41953125 28.1 115.2 27.6 115.55 27.45 115.75 27.45 115.8 27.3 115.8 27.190625 115.8 27.1 115.8 26.984375 115.865625 26.9 115.95 26.85 116 26.85 116.05 26.75 116.4 26.9 116.55 27.15 117.05 27.65 117.2 27.8 117.25 27.9 117.3 28.05 117.35 28.4 117.3 28.475 117.525 28.6 117.65 28.75390625 117.8423828125 28.85 118.1 28.9154296875 118.2078125 28.95 118.3 29 118.45 29.05 118.55 29.1451171875 118.835546875 29.25 119.1
L 29.25 119.15
Q 29.29296875 119.239453125 29.3 119.3 29.331640625 119.3728515625 29.35 119.4
L 29.35 119.45
Q 29.4212890625 119.6318359375 29.45 119.8 29.4841796875 119.82421875 29.5 119.85 29.5546875 120.018359375 29.6 120.2 29.6 120.25 29.6 120.3 29.608984375 120.336328125 29.6 120.35 29.621484375 120.4115234375 29.6 120.45 29.666796875 120.5583984375 29.7 120.65 29.747265625 120.7341796875 29.8 120.8 29.85 120.95 29.95 121 30.05 121.05 30.15 121.1 30.0716796875 120.7669921875 30 120.4 29.99375 120.4001953125 30 120.35 29.9158203125 120.09140625 29.85 119.8 29.789453125 119.5861328125 29.7 119.35 29.7306640625 119.3486328125 29.7 119.3 29.70703125 119.258984375 29.7 119.2 29.6294921875 118.9572265625 29.55 118.7 29.5048828125 118.507421875 29.45 118.3 29.4 118.1 29.35 117.95 29.35 117.9078125 29.3 117.8
L 29.3 117.8
Q 29.05 117.55 29 117.05 29 116.95 28.95 116.8 28.873046875 116.61171875 28.8 116.4 28.8125 116.375 28.85 116.3 28.85 116.25 28.85 116.2 28.75 115.85 28.8 115.3 28.9 114.7 28.65 114.2
M 25.15 120.95
Q 25.1107421875 121.18203125 25.2 121.45 25.3 121.7 25.55 121.75 25.5998046875 121.75 25.65 121.75 25.6998046875 121.7623046875 25.75 121.75 25.8001953125 121.7919921875 25.85 121.8 25.8748046875 121.833203125 25.9 121.85
L 25.9 121.85
Q 26.0005859375 121.8935546875 26.05 121.9 26.103125 121.9349609375 26.1 121.95 26.1876953125 121.9677734375 26.25 121.95 26.274609375 121.9828125 26.3 122
L 26.3 122
Q 26.3921875 122.01484375 26.45 122
L 26.45 122
Q 26.72890625 122.092578125 26.95 122.1 26.9849609375 122.0529296875 27 122 27.05 121.95 27.15 121.95 27.225 122.025 27.3 122.1 27.72265625 122.0443359375 28.15 121.85 28.3 121.8 28.4 121.8 28.8 121.7 28.95 122 29.05 122.2 29.15 122.3 29.4 122.45 29.5 122.65 29.55 122.7 29.65 122.7 29.8708984375 122.7 30.1 122.65 30.0201171875 122.3298828125 30.1 121.95 30.15 121.7 30.2 121.7 30.24140625 121.6943359375 30.25 121.7 30.08046875 121.57734375 29.9 121.45 29.28359375 121.024609375 28.75 120.5 29.30625 120.7703125 29.8 121.1 29.7783203125 121.0349609375 29.75 120.95 29.75 120.85 29.7 120.7
L 29.7 120.65
Q 29.547265625 120.5236328125 29.4 120.45 29.35 120.425 29.3 120.35 29.25 120.325 29.2 120.25 29.074609375 120.0619140625 28.85 119.9
L 28.8 119.9 28.8 119.9
Q 28.74296875 119.8771484375 28.65 119.85 28.611328125 119.8205078125 28.55 119.8 28.459765625 119.7638671875 28.35 119.7
L 28.35 119.7
Q 28.32578125 119.690625 28.3 119.65 28.2234375 119.6171875 28.15 119.55 28.12421875 119.52421875 28.1 119.5 28.0119140625 119.4560546875 27.85 119.4
L 27.85 119.4
Q 27.65 119.3 27.4 119.2 27.3517578125 119.185546875 27.3 119.15 26.9 119.0884765625 26.9 119.45 27 119.5 27.05 119.55 27.17421875 119.59140625 27.3 119.7 27.3658203125 119.72421875 27.4 119.75 27.43515625 119.77109375 27.45 119.8
L 27.55 119.85
Q 27.6083984375 119.8673828125 27.65 119.85
L 27.65 119.9
Q 27.7875 119.955078125 27.9 120 27.948046875 120 27.95 120
L 28 120 28.05 120.05
Q 28.09296875 120.071484375 28.1 120.1 28.2060546875 120.1328125 28.25 120.15 28.3240234375 120.2029296875 28.35 120.2
L 28.45 120.3
Q 28.5109375 120.3337890625 28.55 120.35 28.609765625 120.409765625 28.65 120.45
L 28.7 120.5 28.65 120.45
Q 28.523046875 120.4447265625 28.4 120.4
L 28.35 120.35 28.25 120.35 27.85 120.65 28.2 120.35
Q 28.1603515625 120.33515625 28.1 120.3 27.990625 120.295703125 27.85 120.25 27.8427734375 120.2599609375 27.8 120.25 27.7326171875 120.23671875 27.65 120.2 27.4494140625 120.2064453125 27.2 120.2 27.0201171875 120.187109375 26.8 120.2 26.5943359375 120.229296875 26.35 120.25 26.21484375 120.279296875 26.05 120.3 25.8 120.3 25.55 120.35 25.5 120.4 25.4 120.45 25.1787109375 120.6712890625 25.15 120.95
M 61.4 122.2
Q 61.15 122.2 61.05 122.1 60.8 121.85 60.6 121.5 60.4 121.1 60.05 120.8 59.9 120.7 59.75 120.8 58.9 121.5 57.9 121.65 57.65 121.7 57.6 121.6 57.3 120.95 56.9 120.7 56.8 120.95 56.7 121.2 56.4 122.2 55.65 122.45 55.35 122.3 55.2 121.7 55.15 121.6 55.15 121.45 55.05 121.45 55 121.45 54.9 122.1 54.9 122.7 54.775 122.7 54.65 122.7 54.4 122.7 54.2 122.6 53.65 122.45 53.65 121.7 53.55 121.7 53.45 121.75 53.469140625 121.60390625 53.5 121.45 53.55 121.2 53.6 120.95 53.85 119.85 53.4 119.45 53.1 120.05 52.85 120.65 52.6 121.15 52.15 121.2 52.15 120.95 52.1 120.7 52.05 120.35 52.05 119.95 52.05 119.4 51.65 119.45 51.35 119.65 51.25 120.2 51.15 120.7 50.9 120.95 50.923828125 120.7990234375 50.9 120.65 50.925390625 120.625 50.9 120.6 50.941796875 120.304296875 50.85 120 50.9568359375 119.8896484375 51.05 119.75 51.15 119.65 51.2 119.5 51.25 119.45 51.3 119.35 51.35 119.3 51.4 119.25 51.45 119.15 51.5 119.05 51.5 119 51.5 118.9 51.65 118.5 52.05 118.35 52.45 118.25 52.75 118.1 52.65 118 52.5 117.9 52.25 117.75 52.05 117.85 51.95 117.95 51.85 118.05 51.6552734375 118.2447265625 51.4 118.3
L 51.4 118.25
Q 51.45 118.2 51.45 118.15 51.5 118.1 51.5 118 51.5 117.7 51.65 117.6 51.6994140625 117.5505859375 51.7 117.5 51.95 117.25 52.25 117.25 52.3 117.3 52.3 117.25 52.4 117.2 52.5 117.15 52.45 117.05 52.25 117.1 52.05 117.15 52 117.05
L 52 117
Q 52.05 116.85 52.25 116.85 52.3 116.9 52.3 116.85 52.35 116.85 52.4 116.8 52.45 116.8 52.5 116.75 52.55 116.7 52.55 116.65 52.6 116.65 52.65 116.6 52.7134765625 116.6 52.75 116.55
L 52.75 116.55 52.7 116.55
Q 52.734375 116.5328125 52.75 116.5 52.8 116.4716796875 52.8 116.4
L 52.8 116.35
Q 52.85 116.1 52.65 116.15 52.5 116.15 52.4 116.15 52.3 116.1 52.15 116.1 51.95 116.05 51.95 116.25 51.95 116.3 51.95 116.35 51.9 116.45 51.85 116.5 51.85 116.55 51.8 116.55 51.8 116.6 51.8 116.65 51.8 116.703125 51.8 116.75 51.7958984375 116.952734375 51.65 117.05
L 51.6 117.1
Q 51.5 117.3 51.4 117.4 51.35 117.5 51.25 117.55 51.25 117.6 51.25 117.65 51.2 117.8 51.15 117.9 51.1 118 51.05 118.1 51 118.3 51 118.55 51 118.75 50.9 118.9 50.85 119 50.8 119.1 50.75 119.25 50.7 119.35 50.69140625 119.37578125 50.65 119.4 50.6443359375 119.3240234375 50.6 119.25 50.1 118.4 49.9 117.45 49.9 117.6 49.9 117.7 50.25 119.35 50 121.3 49.8533203125 121.0720703125 49.65 120.95 49.65 121.1 49.6 121.15 49.15 121.6 49.05 122.2
L 48.9 122.2
Q 48.45 122.1 48.35 121.45 48.3 121.1 48.3 120.7 48.35 120 47.9 119.95 47.8 120.45 47.65 120.95 47.55 121.45 47.55 121.95 47.55 122.5 47.15 122.45 46.85 121.55 46.2 120.65 45.95 120.25 45.65 120.2
L 45.55 120.2
Q 45.595703125 121.616796875 45 122.95 44.96015625 123.075390625 44.9 123.4 46.7564453125 123.45 48.65 123.45 53.1736328125 123.45 57.65 123.35 58.767578125 123.002734375 59.9 122.9 60.5333984375 122.8671875 61.15 122.85 61.3 122.85 61.4 122.8 64.55 122.65 67.65 122.2 64.55 122.2 61.4 122.2 Z"/>

<path fill="#FFAF02" stroke="none" d="
M 35.65 115.6
Q 35.7 115.45 35.55 115.4 35.5 115.4 35.5 115.35
L 35.5 115.3
Q 35.65 115.05 35.7 114.85 35.4 114.9 35.3 114.75 35.25 114.7 35.25 114.6 35.25 114.5 35.25 114.35
L 35.2 114.35
Q 35.2 114.5 35.15 114.6 35.05 114.6 34.95 114.55 34.9 114.5 34.8 114.5 34.7 114.6 34.55 114.65 34.40234375 114.69921875 34.4 114.6 34.4 114.7509765625 34.4 114.85 34.4 114.95 34.25 114.95
L 34.2 115
Q 34.2 115.05 34.15 115.05 34.1 115.1 34 115.1 33.8748046875 115.08203125 33.75 115.05
L 33.75 115.1
Q 33.75 115.2 33.75 115.3
L 33.7 115.25
Q 33.6205078125 115.25 33.6 115.3
L 33.6 115.35
Q 33.6 115.4 33.55 115.4 33.55 115.45 33.55 115.5 33.760546875 115.675390625 34 115.7 34.0349609375 115.6890625 34.05 115.65
L 34.1 115.6 34.1 115.55
Q 34.2 115.3 34.4 115.3 34.425 115.3 34.45 115.3 34.575 115.3 34.7 115.3 34.9 115.3 34.9 115.5
L 34.9 115.55
Q 34.75 115.65 34.75 115.8 34.75 115.85 34.7 115.85 34.6 115.85 34.45 115.85 34.5 116.05 34.6 116.25 34.6 116.3 34.65 116.35
L 34.7 116.4
Q 34.8 116.15 35 116.05
L 35.05 116.05
Q 35.1 116.05 35.15 116.05 35.15 115.85 35.2 115.65
L 35.25 115.65
Q 35.5 115.7 35.65 115.6
M 52.35 114.85
Q 52.3 114.95 52.3 115 52.2 115.2 52.15 115.4 52.1 115.45 52.05 115.5 52.05 115.4 52 115.25
L 52 115.1
Q 51.85 115.1 51.75 115.35 51.7 115.45 51.65 115.45 51.5 115.45 51.5 115.55 51.2 115.55 50.95 115.6 51 115.65 51.05 115.65 51.15 115.75 51.25 115.8 51.5 115.9 51.65 116.1 51.6 116.15 51.55 116.15 51.45 116.25 51.3 116.35 51.35 116.35 51.4 116.35 51.6 116.35 51.95 116.25 51.95 116.05 52.15 116.1 52.3 116.1 52.4 116.15 52.5 116.15 52.65 116.15 52.85 116.1 52.8 116.35
L 52.8 116.4
Q 52.8 116.4716796875 52.75 116.5 52.86875 116.5 53 116.5 53.15 116.5 53.15 116.45 53.199609375 116.152734375 53.55 116.15 53.4453125 116.1484375 53.3 116.1
L 53.3 116.05
Q 53.35 116.05 53.4 116 53.55 115.95 53.5 115.8 53.5 115.75 53.55 115.65 53.65 115.45 53.65 115.25 53.5 115.2 53.4 115.3 53.3 115.35 53.15 115.35 53.1 115.4 53.05 115.3 53 115.25 53 115.1 52.9 115.2 52.75 115.25 52.65 115.35 52.6 115.4 52.5671875 115.465625 52.55 115.5 52.5931640625 115.2330078125 52.5 115 52.45 114.95 52.4 114.85
L 52.35 114.85 Z"/>
</g>

<g id="Layer0_0_FILL">
<path fill="#663300" stroke="none" d="
M 72.25 95.85
Q 72.05 95.8 71.9 95.7 71.6 95.85 71.45 95.95
L 72.25 95.85 Z"/>

<path fill="#000000" stroke="none" d="
M 66.65 95.95
L 66.65 96.3 66.65 108.85
Q 64.25 107.8 62.85 105.2 60.85 101.6 60.4 101.35 60.35 102.3 60.15 103.8 64.35 111.25 66.15 113.25
L 66.15 129.7
Q 65.8 129.95 65.65 129.95 65.65 130.85 65.4 132.2 65.4 133 65.9 133.2 69.6 133.35 71.8 133.7 72.3 133.7 72.4 133.3
L 72.4 132.35
Q 72.4 132.2 72.4 132.05 72.3 130.7 71.65 129.85 71.4 128.05 71.4 127.3 72.15 120.95 72.15 118.7 72.15 117.55 71.3 111.1 71.15 109.95 71 109.05 70.4 104.85 70.4 104.8 70.4 104.25 70.9 103.15 71.45 101.9 71.6 100.95 72.65 97.5 72.65 96.75 72.65 96.5 72.65 96.4 72.6 96.25 72.5 96.15 72.45 96.1 72.4 96.1 72.35 95.9 72.25 95.85
L 71.45 95.95 71.3 96
Q 71.15 96.1 70.9 96.45 69.7 96.35 69.3 96.1 69.25 96.05 69.2 96.05 68.8 95.5 68.1 95.2 67.9 95.8 67.65 96.15
L 67.65 95.95
Q 67.55 95.65 67.15 95.45 66.7 95.65 66.65 95.95
M 64.35 108.7
Q 64.4 108.7 65.4 109.2 66.1 109.55 66.5 109.65 66.65 109.7 66.8 109.7 66.85 109.7 66.9 109.7 67.2 110.2 66.95 110.9 66.9 111.05 66.85 111.2 66.85 110.7 65.95 110.35 65.1 110 64.65 109.45 64.25 109 64.35 108.7 Z"/>

<path fill="#522B03" stroke="none" d="
M 65.4 109.2
Q 64.4 108.7 64.35 108.7 64.25 109 64.65 109.45 65.1 110 65.95 110.35 66.85 110.7 66.85 111.2 66.9 111.05 66.95 110.9 67.2 110.2 66.9 109.7 66.85 109.7 66.8 109.7 66.65 109.7 66.5 109.65 66.1 109.55 65.4 109.2 Z"/>

<path fill="#00FFFF" stroke="none" d="
M 106.5 24.2
Q 104.95 19.7 104.8 19.7 104.4 19.7 104.2 20.15 103.95 20.65 103.3 20.85
L 101.7 20.85
Q 101.5 20.75 101.1 20.15 100.8 19.7 100.15 19.7 100.05 19.7 98.3 20.9 97.1 21.7 96.45 22 96.1 22.1 95.9 22.1 95 22.1 94.8 20.15 94.6 18.2 93.8 18.2 93.25 18.2 92.65 19.15 92.05 20.1 91.3 20.1 90.9 20.1 89.8 18 88.8 16.2 87.7 17.2 87.45 17.45 85.6 19.55 84.2 21.1 83.8 21.1 83.25 21.1 82.7 20.3 82.1 19.45 81.55 19.45 80.8 19.45 79.95 21 79.05 22.6 78.65 22.75 78.2 22.25 77.55 21.1 76.9 19.95 76.4 19.45 76.3 19.5 72.85 22.45 72.55 22.45 71.75 21.1 70.9 19.7 70.3 19.7 70.05 19.7 69.5 20.15 68.95 20.75 68.65 20.95 68.2 20.3 67.95 20 67.5 19.45 66.65 19.45 66.15 19.45 64.45 21.85 62.75 24.25 62.2 24.25 62.05 24.25 61.3 23.6 60.55 22.95 59.9 22.95 59.55 22.95 59.4 23.05
L 59.2 23.1
Q 58.35 26.4 56.9 27.05 55.9 27.5 55.9 30.2 55.9 30.65 55.95 31
L 55.9 31
Q 55.85 29.8 55.35 29.15 54.55 28.15 54.15 26.2 53.3 26.65 52.45 28.05 51.5 29.55 50.95 29.95 48.35 31.75 48 32.15 47.3 32.85 47.3 34 47.3 34.3 47.6 35.55 47.9 36.75 47.9 37.1 47.9 37.7 47.8 37.7
L 47.45 37.7
Q 47.25 37.5 46.85 36.65 46.5 35.85 46.3 35.7
L 45.8 36.05
Q 45.95 36.6 45.45 37.55 45 38.3 44.55 38.7 43 40 41.6 40.2 40.8 40.35 40.8 40.9 40.8 42 42.2 42.7 43.55 43.4 43.55 44.1 43.55 44.7 43.2 45.2 43.1 45.35 43 45.5 42.85 45.35 42.7 45.2 40.6 43.45 39.85 44.7 39.45 47.05 39.3 47.6
L 37.3 47.7 36.95 47.85
Q 36.8 48 36.8 48.4 36.8 48.8 36.85 48.8
L 37.05 48.85 35.05 48.95
Q 34.55 49.65 34.55 51.1 34.55 52.35 35.3 54.35 34.95 54.25 33.05 53.45 32.3 54.05 32.1 55.45 32.05 55.95 32.05 57.5 32.05 57.65 32.2 58.3 32.4 59.1 32.55 59.35 31.75 59.4 31.15 58.95 30.5 58.45 30.05 58.45 29.7 58.45 29.65 58.6
L 29.55 58.7 29.55 59.95
Q 30.75 62.7 32.45 65.9
L 33.8 68.55
Q 33.8 68.9 33.8 68.95 33.75 69.05 33.7 68.85 33.1 69.25 32.45 69.55 32.05 69.75 32.05 70.25 32.05 70.65 32.25 71.1 32.4 71.35 32.8 72.1 31.7 72.15 31.4 73.05 31.3 73.4 31.3 74.3 31.3 75.95 31.6 76.85 32.1 78.35 33.55 79.2
L 31.8 79.3
Q 31.65 79.35 31.45 79.55 31.3 79.75 31.3 79.85 32.1 81.15 32.95 81.7 34.65 82.8 38.05 82.8 38.25 82.8 38.45 82.8 38.6 82.8 38.75 82.8 38.45 83.05 38.15 83.3 37.9 83.45 37.7 83.6 37.05 84.2 37.05 85.4 37.05 86.65 37.35 86.95 38.05 87.85 41.05 88.3 41.0271484375 88.3994140625 41 88.5 40.9458984375 89.05703125 41.2 89.65 41.5 90.4 42.3 90.95
L 45.45 91.1
Q 46.45 93.1 48.2 93.45
L 48.85 93.35
Q 48.9 92.7 49.2 91.85 49.55 91.05 49.85 90.7 50 90.85 50.95 92.2 52.1 93.45 53.3 93.45 53.95 93.45 54.6 93.1 55.2 92.7 55.4 92.7 55.5 92.8 56.3 93.65 57.2 94.45 57.8 94.45 58.45 94.45 58.7 94.1 59.15 93.55 59.55 93.3 59.95 93.55 61.4 95.2 62.6 96.3 63.75 96.15 65.3 96 66.65 96.3
L 66.65 95.95
Q 66.7 95.65 67.15 95.45 67.55 95.65 67.65 95.95
L 67.65 96.15
Q 67.9 95.8 68.1 95.2 68.8 95.5 69.2 96.05 69.25 96.05 69.3 96.1 69.7 96.35 70.9 96.45 71.15 96.1 71.3 96
L 71.45 95.95
Q 71.6 95.85 71.9 95.7 72.05 95.8 72.25 95.85 72.35 95.9 72.4 96.1 72.45 96.1 72.5 96.15 72.6 96.25 72.65 96.4 72.9 96.3 72.95 96.15 73.2240234375 95.641015625 73.35 95.5
L 73.4 95.45
Q 73.43359375 95.4751953125 73.45 95.5 75.4419921875 96.95 77.9 96.95 78.899609375 96.95 79.65 95.5 79.7115234375 95.426953125 79.75 95.35 80.2 94.5 80.45 93.6 83.6 93.75 85.6 92.7 87.15 91.9 87.15 91.05 87.15 91 87.15 90.95
L 90.4 90.95
Q 91.65 90.85 92 90.55 92.15 90.4 92.15 90 92.15 89.7 92.15 89.6
L 99.4 89.45
Q 99.7275390625 89.2861328125 99.8 88.5 99.81875 88.2755859375 99.8 88 99.8158203125 87.7681640625 99.8 87.5 99.8 86.9 100.05 86.5 100.4 85.85 101.4 85.6 106.4 84.45 106.4 82.45
L 105.65 81.7
Q 105.7 81.65 105.75 81.65 105.8 81.55 105.95 81.45 106.55 81 108.2 79.8 110.3 78.2 110.65 77.55
L 110.6 77.3
Q 109.9 76.45 109.45 76.45 109.15 76.4 109.15 76.3 109.15 76.2240234375 109.45 75.75 109.7326171875 75.288671875 110.3 74.45 111.4 72.75 111.4 72.7 110.85 72.1 110.45 71.7
L 111.4 71.7
Q 111.7912109375 71.790234375 112.35 71.5 112.7119140625 71.3083984375 113.15 70.95 114.15 70.1 114.15 69.55 114.15 69.15 114 69.1 113.8 69.05 113.65 68.95
L 112.05 68.85 112.35 68.7
Q 112.75 68.4 113.9 67.7 114.9 67.1 114.9 66.55 114.9 66.15 114.75 66 114.5 65.9 114.4 65.8 114.95 65.45 115.95 64.95 116.65 64.55 116.65 63.95 116.65 63.7 116.55 63.55 116.45 63.5 116.35 63.45 115.95 63.4 115.7 63.35 115.95 63.15 116.3 62.95
L 116.35 62.95 116.3 62.8 116.3 62.7 116.65 62.7
Q 116.9 62.7 117.5 61.9 118.1 61.15 118.1 60.85 118.1 60.7 118.75 60.2 119.35 59.7 119.35 59.45 119.35 58.85 118.85 58.3 119.25 57.95 119.55 57.75
L 119.95 57.9
Q 119.95 57.85 119.95 57.8 120.1 57.2 120.4 56.65 120.85 55.75 120.85 55.1 120.85 54.3 120.35 53.95
L 119.35 53.95
Q 119.35 53.8 119.4 53.6 119.45 53.25 119.6 52.8 119.85 52.05 119.85 51.75 119.85 51.1 119.8 51 119.65 50.5 118.85 50.2 119.25 49.65 119.35 48.8 119.35 48.75 119.35 47.6 119.35 46.5 119.35 46.4 119.25 45.5 118.85 45.2
L 118.35 45.45
Q 118.35 43.7 117.85 43.3 117.3 43.25 117.3 43.2 117.3 42.35 117.95 41.8 118.6 41.25 118.6 40.6 118.6 40.1 118.55 40.05 118.45 39.85 118.15 39.75 117.95 39.65 117.65 39.6 117.75 39.55 117.8 39.5 118.4 38.95 118.55 38.55 118.6 38.45 118.6 37.6
L 118.55 36.6
Q 117.7 36.5 116.6 36.65 116.1 36.7 115.8 36.8 115.35 36 115.4 34.5 115.4 32.8 114.9 32.2
L 113.3 32.1
Q 112.6 31.3 112.65 29.7 112.7 28 112.15 27.2 112.1 27.2 111.5 28 111.05 28.6 109.9 28.7 109.65 28.7 109.4 28.7 109.1 28.7 108.8 28.45 107.8 27.6 106.5 24.2
M 117.1 37.7
L 117.6 37.6 117.6 37.75
Q 117.45 38.3 117 38.85
L 115.6 37.7 117.1 37.7
M 41.55 46.65
L 40.75 47.6
Q 40.55 46.4 40.55 45.95 41.05 46.35 41.55 46.65 Z"/>
</g>

<path id="unknowntree_0_Layer1_0_1_STROKES" stroke="#FF00FF" stroke-width="1" stroke-linejoin="round" stroke-linecap="round" fill="none" d="
M 63.75 2.975
Q 63.928515625 2.9775390625 64.1 2.975
M 26.35 13.25
Q 26.27578125 13.1943359375 26.2 13.15
M 86.575 46.575
Q 86.4884765625 46.4453125 86.4 46.325
M 24.6 12.55
Q 23.87578125 12.4984375 23.175 12.425
M 21.9 15.2
Q 21.4666015625 14.6666015625 20.975 14.25"/>
</defs>

<g id="skinUnknown" transform="matrix( 1, 0, 0, 1, 0,0) ">
<g transform="matrix( 1, 0, 0, 1, 29.85,16.55) ">
<g transform="matrix( 1, 0, 0, 1, 0,0) ">
<use xlink:href="#unknowntree_0_Layer2_0_FILL"/>
</g>

<g transform="matrix( 1, 0, 0, 1, 0,0) ">
<use xlink:href="#unknowntree_0_Layer1_0_FILL"/>

<use xlink:href="#unknowntree_0_Layer1_0_1_STROKES"/>
</g>

<g transform="matrix( 1, 0, 0, 1, 0,0) ">
<use xlink:href="#unknowntree_0_Layer0_0_FILL"/>
</g>
</g>
</g>

<g transform="matrix( 1, 0, 0, 1, 0,0) ">
<use xlink:href="#Layer0_0_FILL"/>
</g>
</svg>
