
<svg xmlns="http://www.w3.org/2000/svg" version="1.1" xmlns:xlink="http://www.w3.org/1999/xlink" preserveAspectRatio="none" x="0px" y="0px" width="150px" height="150px" viewBox="0 0 150 150">
<defs>
<g id="skinFIlm_0_Layer2_0_FILL">
<path fill="#844C14" stroke="none" d="
M 56.35 64.75
Q 56.3 64.75 56.1 64.9 55.8 65 55.3 65.4 55.1 65.5 55 65.65 54.35 66.05 54.35 66.2 54.35 66.5 54.5 66.45 54.85 66.5 55.55 65.9 56.3 65.2 56.5 65
L 56.35 64.75
M 47.75 69.55
Q 47.65 69.75 47.6 69.9 47.2 70.75 47.2 72.05 47.2 72.9 47.2 74.5
L 47.2 75.45 47.35 75.45 47.65 75.45 47.75 75.35
Q 48.1 72.9 48.1 69.85 48.1 69.65 47.75 69.55
M 46.15 67.35
L 46.2 67.1
Q 45.65 66.8 45.3 66.6 45.05 66.5 44.85 66.4 44.4 66.15 43.9 66.2 43.75 66.15 43.55 66.2
L 43.55 66.45
Q 43.8 66.55 44.65 67 45.55 67.45 46.15 67.35
M 47.95 64.3
Q 47.9 64.2 47.85 64.15 47.75 64.15 47.75 64.05 47.45 64.65 47.05 66.75 46.95 66.8 46.95 66.85
L 46.95 67 46.95 67.7 47.45 67.7 47.6 67.55 47.6 67.5 48 65.45 48.1 64.8
Q 48 64.5 47.95 64.3
M 47.75 59.1
Q 47.5 59.3 47.5 60.15 47.5 60.45 47.85 63.65
L 47.9 63.65 48.25 63.65 48.4 63.5 48.4 62.2
Q 48.25 61.75 48.15 60.6
L 48.15 60.55
Q 48 59.6 47.75 59.1
M 51.3 40.25
Q 51.298828125 40.2 51.25 40.2 51.2 40.1 51 40 50.65 40.4 50.65 41.9 50.65 43 50.75 43.6 50.75 43.7 50.75 43.75
L 51 43.75 51.2 43.55 51.3 40.25
M 52.25 47.7
Q 52.25 47.85 52.3 47.9 52.45 48.6 52.75 48.6 53.05 48.6 53 48.55
L 53.05 48.45 53.05 47.35
Q 52.95 46.75 52.45 46.55
L 52.25 46.55
Q 52.2 46.75 52.2 46.8 52.2 46.85 52.25 47.7
M 48 49.1
Q 47.9 48.65 47.75 48.45 46.983203125 50.1275390625 46.9 53
L 46.9 53.9
Q 46.909375 54.20625 47.05 54.3
L 47.4 54.25 47.45 54.2
Q 48.1 50.25 48.1 49.55 48 49.3 48 49.1
M 48.5 40.7
L 48.25 40.45 48.2 40.4 47.9 40.55 47.9 44.8 47.9 45.5 48.1 45.5 48.15 45.5 48.15 46.5 48.15 46.9 48.25 47.05 48.4 47.05 48.6 47 48.7 46.85 48.7 45.6
Q 48.6 45.4 48.5 45.35
L 48.5 41.9 48.5 41.45 48.5 40.7
M 49.7 35.95
L 49.7 36.1 49.7 39.6 49.8 39.7 50.15 39.65 50.25 39.5 50.4 37.3 50.3 36.05 49.7 35.95
M 49.1 37.05
Q 48.95 37.05 48.85 36.95
L 48.85 37.05 48.45 37.3 48.45 38.35 48.85 38.35 49 38.15 49.15 37.3
Q 49.15 37.1 49.1 37.05 Z"/>

<path fill="#442302" stroke="none" d="
M 48.15 72.85
Q 48.15 72.9 48.15 72.95 47.95 74.75 47.9 75.75
L 47.9 82.6 47.85 82.55
Q 47.5 82.35 47.25 82.5 47.5 82.95 46.95 83.85 46.35 84.85 46.35 85.15 46.55 85.25 46.8 85.25 47.4 84.4 47.75 83.85
L 48.1 83.85
Q 48.25 83.2 48.4 80.75 48.5 78.6 48.5 77.9 48.5 74 48.2 72.8
L 48.15 72.85
M 46.4 58.15
Q 46.35 58.3 46.35 58.4 46.35 58.6 46.65 59.7 46.85 60.35 47.1 61.3 47.15 61.55 47.25 61.75
L 47.15 61.75
Q 47.1 61.9 47.05 62.25 46.95 62.6 46.9 63
L 46.9 63.1
Q 46.8 63.7 46.65 64.75 46.55 65.5 46.45 66.15 46.3 67.6 46.3 68.2 46.3 68.35 46.4 68.5
L 46.8 68.45
Q 46.9 67.7 46.95 67
L 46.95 66.85
Q 46.95 66.8 47.05 66.75 47.35 63.9 47.5 62.75 47.7 63.65 47.85 64.15 47.9 64.2 47.95 64.3 47.9 64 47.9 63.65
L 47.85 63.65
Q 47.5 60.45 47.5 60.15 46.95 58.6 46.65 57.75 46.45 57.85 46.4 58.15
M 41.7 54
Q 41.6 54.05 41.6 54.2 41.6 54.4724609375 42.25 54.85 42.5875 55.0767578125 43.05 55.3 43.65 55.6 44.1 55.85 44.9 56.25 45.1 56.35 45.15 56.45 45.45 56.7 45.6 56.8 45.8 57 46.15 57.25 46.65 57.75 47.1 58.15 47.65 58.65
L 47.75 58.55
Q 47.5 57.3 45.35 56 43.7376953125 55.001953125 42.85 54.4 42.0208984375 53.896484375 41.85 53.75 41.75 53.9 41.7 54
M 62.05 64.15
Q 63.45 64.05 64.05 63.45 63.95 63.2 63.75 63.15 62.7 63.1 61.5 63.35 59.9 63.6 59 63.65 59 64 59.15 64.15
L 60.45 64.15 60.65 64.15
Q 60.75 64.15 62.05 64.15
M 34.55 60.6
Q 34.55 60.7 34.6 60.85
L 34.95 60.8 35.05 60.3
Q 35.05 58.8 34.55 58.5 34.2 58.65 34.2 59.3 34.2 59.35 34.2 59.45 34.3 59.95 34.55 60.6
M 50.15 42.8
Q 50.05 42.55 49.95 42.5 49.45 43.35 49.45 46.35 49.5 47.25 49.35 48.45 49.25 49.15 49.1 50.45
L 49.1 52.3 49.45 52.3 49.65 52.15
Q 49.55 50.65 49.9 48.05 50.2 45.9 50.25 44.7 50.05 44.55 50.05 44.3 50.05 43.7 50.15 42.8
M 52.85 35.95
Q 52.85 35.8 52.55 35.65 52 36.4 51.7 37.85 51.5 38.7 51.3 40.2
L 51.3 40.25 51.2 43.55 51 43.75
Q 50.95 44.3 50.95 45
L 50.95 46.4 51.3 46.4 51.5 46.25
Q 51.5 44.35 52.2 40.2 52.85 36.05 52.85 35.95
M 50 85.45
Q 49.65 85.15 48.85 85.15 48.9 85.35 49.25 85.65 49.55 85.9 49.65 85.9 49.95 85.9 50.05 85.6
L 50 85.45
M 47.2 84.95
Q 47.4 85.15 47.75 85.15 48.5 84.6 48.5 84.35 48.5 84.1 48.2 83.95 47.65 84.3 47.2 84.95
M 53.35 82.85
Q 53.35 82.3 53.2 82 52.8 82.25 52.8 82.85 52.8 83.15 53.1 85.1
L 53.55 85.1 53.7 84.95 53.7 84.15
Q 53.35 83.55 53.35 82.85
M 53.45 71.4
L 53.5 72.1 53.8 72.2
Q 53.95 72.2 54.1 72.05 54.3 71.1 54.3 69.25 54.3 68.2 54 68 53.45 68.5 53.45 71.4
M 51.3 66.75
L 51 66.95
Q 51.25 67.5 51.25 68.6 51.25 70.05 50.3 77.65
L 50.3 79.5 50.8 79.5 50.9 79.35
Q 51.8 71.95 51.8 68.5 51.8 67.1 51.3 66.75
M 53.05 68.8
Q 52.95 70.15 52.45 71.2 52.3 72.65 52.1 74.9 51.55 81 51.55 82.85
L 51.65 83.95
Q 51.4 83.35 51.2 82.65 50.9 80.75 50.55 79.95 50.3 80 50.3 80.35
L 50.65 83.2
Q 51.2 86 52.55 86 52.8 86 52.85 85.85
L 52.75 85.6
Q 52.1 85.05 51.75 84.15
L 52.1 84.15 52.25 83.9
Q 52.1 82.1 52.6 76.2 53.2 70.55 53.2 70.1 53.2 69.3 53.05 68.8
M 58.15 64.4
Q 58.15 64.2 57.85 64.05 57.3 64.4 55.9 65.7 54.35 67.25 54.35 67.85 54.35 68.2 54.5 68.3
L 54.85 68.25
Q 55.1 67.55 56.65 66 58.15 64.55 58.15 64.4
M 40.75 66.6
Q 41 67.25 42.2 67.5 42.8 67.7 43.65 67.8 45.65 69.1 45.8 69.1 46.05 69.1 46.2 68.9 45.65 67.95 43.85 67.25 42.25 66.6 40.75 66.6
M 49.35 62.5
L 49.1 62.7 49.1 73.75
Q 48.75 75.75 48.75 81.25 48.75 83.6 48.9 84.65
L 49.25 84.6 49.35 84.55 49.35 78.25
Q 49.4041015625 77.3765625 49.45 76.5 49.65 72.50859375 49.65 68.45 49.65 64.05 49.35 62.5
M 49.35 57.85
L 49.1 58 49.1 59.6 49.5 59.6 49.65 59.45 49.65 58.15
Q 49.5 57.9 49.35 57.85
M 53.6 49.4
Q 54.1703125 48.9958984375 54.8 48.7 55.5130859375 48.3599609375 56.3 48.15
L 56.15 47.95
Q 55.3384765625 47.7876953125 54.5 48.15 53.784375 48.4345703125 53.05 49.1 51.65 50.35 51.65 51.15 51.65 51.45 51.8 51.4
L 52.1 51.35
Q 52.5 50.25 53.6 49.4
M 51.2 47.15
Q 51.05 46.9 50.9 46.85 50.3 47.25 50.45 48.55 50.5 49.15 50.65 50.35
L 50.7 50.25
Q 51 50.95 51 53.55
L 50.95 56.55 51 64.55 51.55 64.5 51.65 63.15
Q 51.65 62.85 51.65 62.6
L 51.8 62.4
Q 51.8 61.15 52.1 59.65 52.45 58.25 52.45 57.5 52.45 57.05 52.1 56.95 51.75 57.25 51.5 58.35
L 51.5 56.5
Q 51.3 55.05 51.2 54.4
L 51.2 47.15
M 52.45 45.35
L 52.1 45.05
Q 51.85 45.25 51.85 46.55 51.85 47.5 52 47.95
L 52.3 47.9
Q 52.25 47.85 52.25 47.7 52.2 46.85 52.2 46.8 52.2 46.75 52.25 46.55
L 52.45 46.55 52.45 45.35
M 48.15 46.9
L 48.15 46.5 48.1 46.3
Q 48.1 47.6 48 49.1 48 49.3 48.1 49.55 48.1 50.25 47.45 54.2 47.4 54.8 47.25 55.5
L 47.25 55.55
Q 47.35 56.25 47.45 56.5
L 47.75 56.45 47.9 56.3
Q 48.4 49.55 48.4 47.05
L 48.25 47.05 48.15 46.9 Z"/>

<path fill="#6F3C09" stroke="none" d="
M 47.9 67.35
L 47.6 67.5 47.6 67.55 47.6 69.9
Q 47.65 69.75 47.75 69.55 48.1 69.65 48.1 69.85 48.1 72.9 47.75 75.35
L 47.65 75.45 47.35 75.45 47.2 76.15 47.2 76.7 47.6 76.7 47.85 76.5
Q 47.85 76.25 47.9 75.75 47.95 74.75 48.15 72.95 48.15 72.9 48.15 72.85 48.2 72.05 48.2 70.5 48.2 68.2 47.9 67.35
M 48.5 60.85
Q 48.4 60.6 48.2 60.55
L 48.15 60.55 48.15 60.6
Q 48.25 61.75 48.4 62.2
L 48.4 63.5 48.25 63.65 47.9 63.65
Q 47.9 64 47.95 64.3 48 64.5 48.1 64.8
L 48 65.45
Q 48 65.8 48.1 66
L 48.4 65.95 48.5 65.8 48.5 60.85
M 51.65 36.95
Q 51.65 35.65 51.3 35.35
L 51.05 35.35 51.05 35.4
Q 51 36.7 50.5 39.95 50.25 41.65 50.15 42.8 50.05 43.7 50.05 44.3 50.05 44.55 50.25 44.7
L 50.55 44.6
Q 50.65 44.1 50.75 43.6 50.65 43 50.65 41.9 50.65 40.4 51 40 51.2 40.1 51.25 40.2 51.65 37.55 51.65 36.95
M 53.05 68
Q 53.05 67.8 52.75 67.7 51.95 68.1 51.95 71.05 51.95 71.35 52.1 71.3
L 52.45 71.2
Q 52.95 70.15 53.05 68.8 53.05 68.45 53.05 68
M 50.55 65.5
L 50.3 65.65 50.3 70.4
Q 49.75 71.4 49.75 74.6 49.75 74.9 49.95 74.85
L 50.3 74.75
Q 50.75 72.6 50.8 71.3 50.9 70.6 50.9 68.2 50.9 66.25 50.55 65.5
M 50.05 76.7
Q 49.95 76.45 49.75 76.4
L 49.45 76.5 49.45 80.6 49.9 80.6 50.05 80.45 50.05 76.7
M 50.7 50.25
L 50.65 50.35 50.4 50.45 50.4 56.6 50.3 56.75 50.3 59.3 50.8 59.3 50.9 59.15 50.95 56.55 51 53.55
Q 51 50.95 50.7 50.25
M 46.9 53.9
L 46.9 55.55 47.25 55.55 47.25 55.5
Q 47.4 54.8 47.45 54.2
L 47.4 54.25 47.05 54.3
Q 46.909375 54.20625 46.9 53.9
M 48.1 46.3
L 48.1 46.25
Q 48.1 45.8 48.1 45.5
L 47.9 45.5 47.9 44.8
Q 47.85 44.7 47.75 44.7 47.25 45.3 47.25 48.4 47.25 49.3 46.9 52.25
L 46.9 53
Q 46.983203125 50.1275390625 47.75 48.45 47.9 48.65 48 49.1 48.1 47.6 48.1 46.3
M 48.75 41.65
Q 48.75 41.5 48.75 41.4
L 48.5 41.45 48.5 41.9 48.7 41.8
Q 48.7484375 41.703125 48.75 41.65
M 49.65 35.95
Q 49.55 36.05 49.55 36.1 49.65 36.6 49.65 37.35
L 49.35 42.85 49.25 42.95 48.9 43
Q 48.9 43.1 48.85 43.2
L 48.85 45 49.25 45 49.45 44.75
Q 49.7 41.5 49.8 39.7
L 49.7 39.6 49.7 36.1
Q 49.698828125 36.0478515625 49.65 35.95
M 48.85 37.05
Q 48.7 36.35 48.4 35.95 47.9 36.65 47.9 37.95 47.85 38.65 47.9 40.15
L 47.9 40.55 48.2 40.4 48.25 40.45
Q 48.45 39.95 48.45 39 48.45 38.65 48.45 38.35
L 48.45 37.3 48.85 37.05 Z"/>

<path fill="#663300" stroke="none" d="
M 47.75 64.05
Q 47.75 64.15 47.85 64.15 47.7 63.65 47.5 62.75 47.35 63.9 47.05 66.75 47.45 64.65 47.75 64.05
M 47.1 61.3
Q 46.85 60.35 46.65 59.7 46.65 59.85 46.65 59.9
L 46.95 62.25 47.05 62.25
Q 47.1 61.9 47.15 61.75
L 47.25 61.75
Q 47.15 61.55 47.1 61.3
M 46.35 58.4
Q 46.35 58.3 46.4 58.15 46.45 57.85 46.65 57.75 46.15 57.25 45.8 57 45.9 57.3 46.1 57.75 46.2 58.1 46.35 58.4
M 45.1 56.35
Q 44.9 56.25 44.1 55.85 44.65 56.2 45.3 56.7 45.4 56.7 45.45 56.7 45.15 56.45 45.1 56.35
M 57.15 27.85
L 58.15 27.85 58.55 28.1 61.25 28.1 61.8 27.75 61.95 27.9 62.5 27.9
Q 62.9 27.85 63.15 27.75
L 63.2 27.75
Q 63.6 27.65 64.75 27.1 64.75 27.2 64.85 27.15
L 66.05 27.15 66.15 27
Q 68.1 26.95 68.35 26.9 70.2 26.9 71.25 26.95 71.65 26.95 71.9 27 72 27.1 72 26.95
L 74.15 26.95
Q 74.5 26.75 75.05 26.65 75.5 26.5 75.55 26.4
L 75.25 26.1 74.95 26.2 65.5 26.65
Q 66.1 26.2 66.25 26.1
L 65.95 25.8
Q 65.55 25.8 64.35 26.4 63.4 26.9 63.15 27.35 62.7 27.2 62.4 27.25 62.45 27.2 62.55 27.1 62.8 26.75 62.8 26.65 62.8 26.45 62.5 26.35 61.9 27.15 61.9 27.2
L 61.9 27.25
Q 61.8 27.25 61.7 27.25
L 58.9 27.5 57.65 27.25
Q 56.7458984375 27.25 56.1 27.45 55.974609375 27.5376953125 55.85 27.6 55.8 27.45 55.55 27.35 55.4 27.4 55.25 27.65 54.9 28 54.4 28.7 54.25 28.95 54.05 29.2 54.1 28.95 54.25 28.65 54.6 27.4 54.6 26.95 54.6 26.75 54.3 26.65 53.75 27.35 53.45 28.1 52.75 28.25 52.8 29 52.85 30.65 52.8 30.7
L 52.8 31.3
Q 52.5 31.8 52.5 32.05 52.5 32.3 52.6 32.45
L 52.7 32.45 52.6 33.6
Q 52.35 33.25 52.3 33.2 52 34.05 51.3 35.35 51.65 35.65 51.65 36.95 51.65 37.55 51.25 40.2 51.298828125 40.2 51.3 40.25
L 51.3 40.2
Q 51.5 38.7 51.7 37.85 52 36.4 52.55 35.65 52.85 35.8 52.85 35.95 52.85 36.05 52.2 40.2 51.5 44.35 51.5 46.25
L 51.3 46.4 50.95 46.4 50.95 45
Q 50.95 44.3 51 43.75
L 50.75 43.75
Q 50.75 43.7 50.75 43.6 50.65 44.1 50.55 44.6
L 50.25 44.7
Q 50.2 45.9 49.9 48.05 49.55 50.65 49.65 52.15
L 49.45 52.3 49.1 52.3 49.1 50.45
Q 49.25 49.15 49.35 48.45 49.5 47.25 49.45 46.35 49.45 43.35 49.95 42.5 50.05 42.55 50.15 42.8 50.25 41.65 50.5 39.95 51 36.7 51.05 35.4
L 50.95 35.35
Q 51.3 33.35 51.3 32.5 51.3 32.2 50.75 31.95 50.15 33.75 50.3 34.75 49.75 34.6 49.75 33.75
L 50.05 31.5
Q 50.05 31.1 49.75 30.7 49.2 31.7 48.85 34.05 48.7 34.8 48.1 35.85 48 35.95 47.95 36.1 47.75 34.8 47.15 33.85
L 47.15 29.2 47.2 29.15 47.25 28.8
Q 47.25 28.7419921875 47.25 28.65 47.2208984375 28.4548828125 47.15 28.1
L 47.15 27.95
Q 47.1 27.75 47.05 26.75 47.05 26.1 46.65 25.8 46.4 25.9 46.35 26.75 46.3 26.85 46.3 26.95 46.3 27.45 46.35 28 46.4 29 46.6 29.25
L 46.6 36.3
Q 46.65 36.35 47.05 36.95 47.05 37.35 47.1 37.8 47.15 38.1 47.15 38.45 46.95 38.2 46.65 37.9 46.6 37.95 46.15 38.15 45.7 37.95 45.15 37.9 44.8 37.6 44.65 37.55 44.25 37.45 43.8 37.45 43.3 37.4 43.1 37.45 43.296875 37.5484375 43.35 37.55 43.099609375 37.55 43 37.55 42.9015625 37.55 42.9 37.6
L 42.9 37.55
Q 42.75 37.55 42.55 37.55 41.25 36.65 40.5 36.15 39.938671875 35.825 39.6 35.5 39.37265625 35.275 39.25 35.05 39.45 34.9 39.5 34.75 39.25 34.35 39.2 34.25
L 39.2 34.15 39 34
Q 39.05 33.9 39.05 33.85 39.05 33.75 38.75 33.55 38.7 33.55 38.5 33.75 38.25 33.9 38.25 34.1
L 38.5 34.5 37.7 34.5
Q 37.5 34.4 37.4 34.35 35.85 33.75 35.45 33.55
L 34.6 33.6
Q 34.45 33.75 34.45 33.85
L 34.9 34.3 34.55 34.35 33.9 34.1 29.55 34 29.1 33.55 29 33.6
Q 28.85 33.65 28.85 33.85 28.85 34.15 29.3 34.6
L 33.9 34.65 34.3 34.9
Q 35.45 34.9 36.5 35.25 37.6 35.55 38.5 35.55 38.8 35.55 39.05 35.5 39.2 35.8 39.45 36.15 40.125 37.1 40.8 37.6 41.4771484375 38.0658203125 42.15 38.15 42.2005859375 38.1466796875 42.25 38.15 42.258203125 38.191015625 42.25 38.2 42.308203125 38.408203125 42.35 38.45 43.15 38.45 43.65 38.5 44.4 38.65 45.6 38.75
L 45.65 38.75
Q 46.55 39.6 47.05 41.65 47.15 42.05 47.25 42.45
L 47.2 45.5
Q 46.95 46.5 46.45 47.9 46.3 48.4 46.3 49.55 46.3 50.4 46.35 51.85
L 46.3 51.85
Q 46.3 52.7 46.1 54.15 45.40234375 53.78828125 44.2 53.4 43.1220703125 53.0365234375 41.6 52.65 40.25 52.25 39.2 52 37.6 51.35 36.6 51 36.65 50.95 36.7 50.9 36.45 50.45 36.25 50.35
L 35.3 50.25
Q 35.1798828125 50.169921875 34.8 49.75 34.709375 49.669140625 34.6 49.55 34.45 49.35 34.35 49.3 34.6 48.05 34.55 47.55 34.6 47.15 34.6 46.85 34.7 46.8 34.8 46.75
L 34.9 46.65 35.05 46.55
Q 35.05 46.35 34.95 46.25 35.3 46.05 35.65 45.85 36.45 45.5 36.95 45.2
L 38.25 45.2 38.4 45.05
Q 39.7 45 39.9 44.95 40 44.85 40 44.75
L 39.7 44.45 38.25 44.45
Q 38.25 44.5 37.5 44.6
L 37.35 44.45
Q 36.45 44.6 35.15 45 34.55 45.2 34.2 45.35 33.55 45.4 33.1 45.2 32.55 44.85 32.25 44.75
L 32.1 44.8
Q 32 44.85 32 45.05 31.15 44.85 30.05 44.75
L 27.45 44.7
Q 27.3 44.75 27.4 45.05 27.65 45.1 28.45 45.55 28.95 45.8 31.65 46
L 32.25 46.4 33 46.5
Q 33.3 47 33.2 48.9 33.2 49.0263671875 33.2 49.1
L 33.2 49.15
Q 32.85 49.1 32.25 49.1 32.05 48.95 31.55 48.45 31.25 48.1 30.8 48.15 31.05 48.55 31.1 48.9 31.25 49.3 31.9 49.65 32.85 49.8 33.55 50.25 33.85 50.9 34.55 51.35 35.5306640625 52.0541015625 36.8 52.55 38.109375 53.076953125 39.7 53.4 40.25 53.45 41.7 54 41.75 53.9 41.85 53.75 42.0208984375 53.896484375 42.85 54.4 43.7376953125 55.001953125 45.35 56 47.5 57.3 47.75 58.55
L 47.65 58.65
Q 47.1 58.15 46.65 57.75 46.95 58.6 47.5 60.15 47.5 59.3 47.75 59.1 48 59.6 48.15 60.55
L 48.2 60.55
Q 48.4 60.6 48.5 60.85
L 48.5 65.8 48.4 65.95 48.1 66
Q 48 65.8 48 65.45
L 47.6 67.5 47.9 67.35
Q 48.2 68.2 48.2 70.5 48.2 72.05 48.15 72.85
L 48.2 72.8
Q 48.5 74 48.5 77.9 48.5 78.6 48.4 80.75 48.25 83.2 48.1 83.85
L 47.75 83.85
Q 47.4 84.4 46.8 85.25 46.55 85.25 46.35 85.15 46.35 84.85 46.95 83.85 47.5 82.95 47.25 82.5 47.5 82.35 47.85 82.55
L 47.9 82.6 47.9 75.75
Q 47.85 76.25 47.85 76.5
L 47.6 76.7 47.2 76.7 47.2 76.15 47.35 75.45 47.2 75.45 47.2 74.5
Q 47.2 72.9 47.2 72.05 47.2 70.75 47.6 69.9
L 47.6 67.55 47.45 67.7 46.95 67.7 46.95 67
Q 46.9 67.7 46.8 68.45
L 46.4 68.5
Q 46.3 68.35 46.3 68.2 46.3 67.6 46.45 66.15 46.15 66.6 45.95 66.6 45.6 66.6 45.3 66.6 45.65 66.8 46.2 67.1
L 46.15 67.35
Q 45.55 67.45 44.65 67 43.8 66.55 43.55 66.45
L 43.55 66.2
Q 43.75 66.15 43.9 66.2 43.35 66 43.05 66 42.35 65.75 41.35 66.15 41.3 66.15 41.3 66.2 40 65.95 38.75 65.5 36.45 64.5 35.7 64.4 35.45 63.95 35.45 63.5
L 35.6 63.6
Q 35.65 63.5 35.4 63.1
L 35.45 59.7
Q 35.45 59.1 35.4 58.65 36.1 58.35 37 58.15 38.15 57.9 38.8 58.05
L 38.9 57.75 38.8 57.5
Q 38.5 57.4 37.95 57.35 37.5 57.35 37.4 57.4 37.2015625 57.49921875 37.2 57.55
L 37.2 57.4
Q 35.75 57.4 35.15 57.65 35.1 57.55 35.05 57.4 34.95 57.55 34.9 57.8
L 34.85 57.8
Q 34.6 57.9 34.55 58.15 33.7 58.4 33.55 58.3 33.4 58.1 33.3 58.05
L 29.1 58.05
Q 27 58.1 25.85 57.65 25.4 57.5 25.2 57.9 26.65 58.85 29.1 58.65
L 32.3 58.65
Q 32.55 58.9 33.4 59.25 33.9 59.35 34.2 59.45 34.2 59.35 34.2 59.3 34.2 58.65 34.55 58.5 35.05 58.8 35.05 60.3
L 34.95 60.8 34.6 60.85
Q 34.55 60.7 34.55 60.6 34.45 61.15 34.45 61.85 34.45 62.35 34.6 62.75 34.8 63.25 34.85 63.65 34.9 63.9 35.15 64.95 35.2 65.4 36.25 65.75 36.9 65.95 37.9 66.2 38.05 66.25 39.15 66.75 40.25 67.3 41.3 67.45 42.9 67.7 43.8 68.25 44.5 68.6 44.95 68.7 46.9 70 46.9 71.55
L 46.9 72.3
Q 46.8 72.65 46.8 73.2 46.8 73.9 46.9 74.5 46.9 75 46.9 75.45
L 46.9 75.6
Q 46.6 79.05 46.6 80.9 46.45 81.65 46.1 82.9 45.7 84.45 45.65 85.1
L 45.6 85.1
Q 45.2 85.1 45.15 85.25 45.15 85.35 45.1 85.6 45.65 85.6 47.1 86 48.4 86.4 51.8 86.4 53.05 86.4 54.4 85.4 54.6 85.45 54.75 85.45 54.85 85.45 55.35 85.1
L 55.25 84.85
Q 55 84.8 54.8 84.7 54.75 84.65 54.6 84.6 54.2 84.3 53.95 83.65 53.6 82.55 53.35 82.3
L 53.35 79.8
Q 53.3 79.6 53.2 79.55
L 53.2 74.65
Q 53.25 74.6 53.3 74.5 53.45 74.45 53.5 74.35 53.5 74.25 53.5 74.2 53.95 73.5 54.2 72.65 54.25 72.2 54.4 69.75 54.4 69.6 54.5 69.55 54.5 69.3 54.6 69.1 54.75 68.75 55.1 68.3
L 56 67.2
Q 56.25 66.55 57.3 65.55 58.35 64.5 58.85 64.5 59.15 64.5 60.45 64.15
L 59.15 64.15
Q 59 64 59 63.65 59.9 63.6 61.5 63.35 62.7 63.1 63.75 63.15 63.95 63.2 64.05 63.45 64.3 63.4 64.55 63.4 65.05 62.85 65.85 59.9 66.1 58.9 66.3 58.25 66.6 58.15 66.75 58.05 66.75 57.6 67.35 57 67.75 56.6 68.4 55.95
L 68.3 55.75
Q 67.75 55.6 67.1 56.1 66.65 56.1 66.5 56.35 66.35 56.25 66.25 56.2 65.3 57.05 64.95 59.65 64.75 60.6 64.35 61.55 63.95 62.5 62.8 62.4 61.9 62.35 61.45 62.85 61.3 62.6 61.15 62.5 58.1 62.65 57.15 63.7 56.55 64.45 56.1 64.9 56.3 64.75 56.35 64.75
L 56.5 65
Q 56.3 65.2 55.55 65.9 54.85 66.5 54.5 66.45 54.35 66.5 54.35 66.2 54.35 66.05 55 65.65 53.95 66.05 53.45 66.95 53.3 67.2 53.2 67.5
L 53.2 64.75 53.35 64.4
Q 53.25 64.15 53.05 64.05
L 53.05 63.1
Q 52.8 62.45 52.85 60.8 52.85 59.25 52.6 58.55
L 53.1 58.5 53.2 58.4 53.2 57.6
Q 53.05 56.45 52.85 55.85
L 52.85 54.6 53.05 54.55
Q 53.3 53.7 55.35 52.25 56.3 51.65 56.9 51.2 56.9 51.25 56.95 51.2 58.05 51.25 59.25 50.75 60.5 50.35 62.7 50.45
L 63.15 50 62.8 49.7
Q 60.7 49.8 59.5 50.15 58.65 50.4 57.8 50.5 57.95 50.35 58.05 50.25
L 57.9 50
Q 56.8892578125 50.47421875 56.05 50.9 53.600390625 52.2369140625 52.85 53.25
L 52.85 50.6 53 50.6
Q 53.05 50.45 53.2 50.25
L 53.3 50.2
Q 53.764453125 49.5498046875 54.95 48.95 56.3201171875 48.2890625 58.65 47.7 61.2 47.15 67.65 45.9 67.8 45.85 67.9 45.85
L 71.4 45.8
Q 71.75 45.8 72.15 45.6 72.15 45.75 72.2 45.8
L 72.5 45.75
Q 72.95 44.8 73.05 44.55 73.2 44.55 73.3 44.55 76.55 44.55 77.75 44.2 78.35 43.95 78.85 43.45
L 78.75 43.2
Q 78.25 43.05 77.9 43.35 77.5 43.75 76.55 43.75 73.65 43.75 72.95 44 72.9 44.05 72.9 44.1 72.85 44.05 72.75 44.05 72.2 44.35 72.15 44.7 72.15 44.75 72.15 44.85
L 71.25 45.2 67.65 45.3
Q 66.5 45.55 57.65 46.75 55.1916015625 47.048046875 54.1 47.4 53.716796875 47.559765625 53.5 47.7 53.2 46.3 52.75 45.05 52.55 44.6 52.55 43.2 52.55 42.15 52.85 39.75 53.2 37.35 53.2 36.35 53.2 35.95 53.1 35.75 53.3 35.1 53.55 33.3
L 53.6 33.3 53.7 33.25
Q 53.95 31.95 54.8 29.95 55.25 28.95 55.5 28.45 55.5 28.5 55.55 28.5 55.75 28.5 57.15 27.85
M 48.85 36.95
Q 48.95 37.05 49.1 37.05 49.2 36.15 49.35 35.35 49.45 35.6 49.55 36.1 49.55 36.05 49.65 35.95 49.698828125 36.0478515625 49.7 36.1
L 49.7 35.95 50.3 36.05 50.4 37.3 50.25 39.5 50.15 39.65 49.8 39.7
Q 49.7 41.5 49.45 44.75
L 49.25 45 48.85 45 48.85 43.2
Q 48.9 43.1 48.9 43 48.75 42.75 48.75 42.3 48.75 41.9517578125 48.75 41.65 48.7484375 41.703125 48.7 41.8
L 48.5 41.9 48.5 45.35
Q 48.6 45.4 48.7 45.6
L 48.7 46.85 48.6 47 48.4 47.05
Q 48.4 49.55 47.9 56.3
L 47.75 56.45 47.45 56.5
Q 47.35 56.25 47.25 55.55
L 46.9 55.55 46.9 53.9 46.9 53 46.9 52.25
Q 47.25 49.3 47.25 48.4 47.25 45.3 47.75 44.7 47.85 44.7 47.9 44.8
L 47.9 40.55 47.9 40.15
Q 47.85 38.65 47.9 37.95 47.9 36.65 48.4 35.95 48.7 36.35 48.85 37.05
L 48.85 36.95
M 52.1 45.05
L 52.45 45.35 52.45 46.55
Q 52.95 46.75 53.05 47.35
L 53.05 48.45 53 48.55
Q 53.05 48.6 52.75 48.6 52.45 48.6 52.3 47.9
L 52 47.95
Q 51.85 47.5 51.85 46.55 51.85 45.25 52.1 45.05
M 50.9 46.85
Q 51.05 46.9 51.2 47.15
L 51.2 54.4
Q 51.3 55.05 51.5 56.5
L 51.5 58.35
Q 51.75 57.25 52.1 56.95 52.45 57.05 52.45 57.5 52.45 58.25 52.1 59.65 51.8 61.15 51.8 62.4
L 51.65 62.6
Q 51.65 62.85 51.65 63.15
L 51.55 64.5 51 64.55 50.95 56.55 50.9 59.15 50.8 59.3 50.3 59.3 50.3 56.75 50.4 56.6 50.4 50.45 50.65 50.35
Q 50.5 49.15 50.45 48.55 50.3 47.25 50.9 46.85
M 54.8 48.7
Q 54.1703125 48.9958984375 53.6 49.4 52.5 50.25 52.1 51.35
L 51.8 51.4
Q 51.65 51.45 51.65 51.15 51.65 50.35 53.05 49.1 53.784375 48.4345703125 54.5 48.15 55.3384765625 47.7876953125 56.15 47.95
L 56.3 48.15
Q 55.5130859375 48.3599609375 54.8 48.7
M 49.1 58
L 49.35 57.85
Q 49.5 57.9 49.65 58.15
L 49.65 59.45 49.5 59.6 49.1 59.6 49.1 58
M 49.1 62.7
L 49.35 62.5
Q 49.65 64.05 49.65 68.45 49.65 72.50859375 49.45 76.5
L 49.75 76.4
Q 49.95 76.45 50.05 76.7
L 50.05 80.45 49.9 80.6 49.45 80.6 49.45 76.5
Q 49.4041015625 77.3765625 49.35 78.25
L 49.35 84.55 49.25 84.6 48.9 84.65
Q 48.75 83.6 48.75 81.25 48.75 75.75 49.1 73.75
L 49.1 62.7
M 50.3 65.65
L 50.55 65.5
Q 50.9 66.25 50.9 68.2 50.9 70.6 50.8 71.3 50.75 72.6 50.3 74.75
L 49.95 74.85
Q 49.75 74.9 49.75 74.6 49.75 71.4 50.3 70.4
L 50.3 65.65
M 42.2 67.5
Q 41 67.25 40.75 66.6 42.25 66.6 43.85 67.25 45.65 67.95 46.2 68.9 46.05 69.1 45.8 69.1 45.65 69.1 43.65 67.8 42.8 67.7 42.2 67.5
M 57.85 64.05
Q 58.15 64.2 58.15 64.4 58.15 64.55 56.65 66 55.1 67.55 54.85 68.25
L 54.5 68.3
Q 54.35 68.2 54.35 67.85 54.35 67.25 55.9 65.7 57.3 64.4 57.85 64.05
M 52.75 67.7
Q 53.05 67.8 53.05 68 53.05 68.45 53.05 68.8 53.2 69.3 53.2 70.1 53.2 70.55 52.6 76.2 52.1 82.1 52.25 83.9
L 52.1 84.15 51.75 84.15
Q 52.1 85.05 52.75 85.6
L 52.85 85.85
Q 52.8 86 52.55 86 51.2 86 50.65 83.2
L 50.3 80.35
Q 50.3 80 50.55 79.95 50.9 80.75 51.2 82.65 51.4 83.35 51.65 83.95
L 51.55 82.85
Q 51.55 81 52.1 74.9 52.3 72.65 52.45 71.2
L 52.1 71.3
Q 51.95 71.35 51.95 71.05 51.95 68.1 52.75 67.7
M 51 66.95
L 51.3 66.75
Q 51.8 67.1 51.8 68.5 51.8 71.95 50.9 79.35
L 50.8 79.5 50.3 79.5 50.3 77.65
Q 51.25 70.05 51.25 68.6 51.25 67.5 51 66.95
M 53.5 72.1
L 53.45 71.4
Q 53.45 68.5 54 68 54.3 68.2 54.3 69.25 54.3 71.1 54.1 72.05 53.95 72.2 53.8 72.2
L 53.5 72.1
M 53.2 71.7
Q 53.2 71.65 53.25 71.6 53.203125 71.6935546875 53.2 71.8
L 53.2 71.7
M 53.2 82
Q 53.35 82.3 53.35 82.85 53.35 83.55 53.7 84.15
L 53.7 84.95 53.55 85.1 53.1 85.1
Q 52.8 83.15 52.8 82.85 52.8 82.25 53.2 82
M 47.75 85.15
Q 47.4 85.15 47.2 84.95 47.65 84.3 48.2 83.95 48.5 84.1 48.5 84.35 48.5 84.6 47.75 85.15
M 48.85 85.15
Q 49.65 85.15 50 85.45
L 50.05 85.6
Q 49.95 85.9 49.65 85.9 49.55 85.9 49.25 85.65 48.9 85.35 48.85 85.15
M 48.1 46.25
L 48.1 46.3 48.15 46.5 48.15 45.5 48.1 45.5
Q 48.1 45.8 48.1 46.25 Z"/>

<path fill="#72400E" stroke="none" d="
M 49.55 36.1
Q 49.45 35.6 49.35 35.35 49.2 36.15 49.1 37.05 49.15 37.1 49.15 37.3
L 49 38.15 48.85 38.35 48.45 38.35
Q 48.45 38.65 48.45 39 48.45 39.95 48.25 40.45
L 48.5 40.7 48.5 41.45 48.75 41.4
Q 48.75 41.5 48.75 41.65 48.75 41.9517578125 48.75 42.3 48.75 42.75 48.9 43
L 49.25 42.95 49.35 42.85 49.65 37.35
Q 49.65 36.6 49.55 36.1 Z"/>
</g>

<g id="skinFIlm_0_Layer1_0_FILL">
<path fill="#666600" stroke="none" d="
M 26.15 58.35
L 26.15 58.4 27.05 58.4 27 58.3 26.15 58.35
M 20.55 58.75
Q 20.8 58.75 20.8 58.65
L 20.05 58.6
Q 19.9 58.6 19.85 58.65 20.15 58.75 20.55 58.75
M 39.2 57.9
Q 39.5 57.85 39.95 57.75 38.55 57.8 37.65 58.1 37.6 58.1 37.5 58.15 38.25 58.05 39.2 57.9
M 36.95 55.6
L 36.6 55.3 34.55 55.3
Q 32.05 55.35 30.85 55.7 29.7 56.05 29.2 56.05
L 29.1 56.05 29.25 56.35 29.05 56.55 28.05 56.55
Q 27.95 56.6 27.95 56.3 27.95 56.2 28 56.1
L 25.75 56.1 25.5 55.95 24.7 56 24.45 56.25
Q 23.3 56.35 23.15 56.5 22.9 56.6 22.15 56.7 22.05 56.75 22.05 56.45 22.05 56.3 22.15 56.2
L 21 56.25 19.6 55.85 13.1 55.85
Q 13.4 56.1 13.9 56.55 14.15 56.75 14.3 57.05 15 57.3 17.95 57.35 18.05 57.35 19.05 57.65 20.05 58 20.35 58
L 21.7 57.9
Q 21.7 57.8 21.95 57.65 24.2 57.6 24.2 57.3
L 26.15 57.3
Q 26.2 57.25 26.3 57.4 26.45 57.55 26.95 57.35 26.95 57.5 27.05 57.65
L 27.9 57.65
Q 27.95 57.75 28 57.85 28 58 28.2 58
L 30.5 57.65 31.75 57.65 32.05 58
Q 33.65 57.9 34.55 58.05 34.85 58.05 35.65 58
L 35.95 57.65 37.6 57.6
Q 39.25 56.3 40.3 56.5 41 56.6 42.65 57 42.65 57.05 42.75 57.15 42.8 57.15 42.85 57.15 44 57.1 44.25 57.05 44.35 57 44.35 56.85
L 44.05 56.55
Q 42.75 56.5 42.6 56.5
L 39 56.45 37.8 55.6 37.65 55.6 37.8 55.8
Q 37.35 56.1 36.25 56.3 36.15 56.5 35.95 56.55
L 35.05 56.55
Q 34.6 56.7 34.35 56.85
L 33.15 56.85
Q 33.1 56.75 32.75 56.6 32.6 56.55 32.55 56.55
L 30.7 56.55 30.5 56.45
Q 30.5 55.85 31.1 55.75
L 35.75 55.8 36 56.05
Q 36.7 55.85 37.25 55.6
L 36.95 55.6
M 16.45 56.45
Q 16.45 56.25 16.7 56.1
L 19.8 56.1
Q 20.05 56.3 20.75 56.75 20.6 57 20.1 57
L 17.95 56.85
Q 17.8 56.75 16.55 56.7 16.45 56.75 16.45 56.45
M 32.85 45.05
Q 32.6 45 32.35 44.95 31.9 44.8 30.8 45.05
L 32.85 45.05
M 28.35 44.3
Q 28.6 44.5 28.6 44.7 28.6 45.1802734375 28 45.2
L 28.75 45.2 28.85 45.05 29.75 45.05
Q 29.5 44.6 29.3 44.5 29.2 44.35 28.35 44.3
M 25.5 40.35
Q 25.7 40.4 25.85 40.55
L 29 40.5
Q 29.55 40.35 30.05 40.25 29.85 40.15 29.8 40
L 26.65 40
Q 26.15 40.25 25.5 40.35
M 19.15 44.25
Q 20.05 44.45 17.55 44.2 17.8 44.3 17.85 44.45 17.95 44.7 18.55 44.7
L 20.6 44.35 22.3 45.2 23.45 45.2 23.6 45.05
Q 24.4 45.05 25 45 24.9 44.85 24.9 44.8
L 22.45 44.75 22.35 44.3 19.15 44.25
M 14 43.05
L 13.85 43.1 14.1 43.1
Q 14 43.096875 14 43.05
M 44 44.05
Q 43.85 44.05 43.75 44.05 39.95 44.6 38.9 44.85
L 39.15 45.1
Q 42.05 44.6 44 44.05
M 46.2 43
Q 46.2 43.05 46.3 43.1 46.45 43 46.65 42.85
L 45.95 42.45 46.05 42.4
Q 46.15 42.3 46.45 42 46.85 41.65 46.85 41.55 46.7 41.3 46.7 41.25 44.95 41.55 44.65 41 44.3 40.35 44.15 40.35
L 42.05 40.65
Q 41.7 40.65 41.55 40.35 41.45 39.9 41.25 39.75 41 40.2 39.7 40.25 37.25 40.35 34.85 40.5
L 33.9 40.5
Q 33.95 40.5015625 33.95 40.55
L 34.1 40.8
Q 33.9 41 33.6 41 33.15 40.75 32.85 40.75 32.15 41 31.15 41 30.8 40.9 30.5 40.9
L 28.95 41.15 25.6 41.15 25.2 40.9 25.2 40.4
Q 24.9 40.4 24.5 40.4 23.55 40 22.4 40
L 19.65 40.25
Q 19.1 40.25 17.6 39.75 16.3 39.4 16.2 39.45
L 16.2 40.5
Q 13.4 40.65 13.15 40.8 12.2 41.15 12 41.15 11.4 41.15 10.3 40.4
L 9.4 40.45 9.05 40.9
Q 9.05 41.05 9.1 41.2
L 9.95 41.2
Q 10.9 41.8 14.25 41.8 14.3 41.8 14.95 41.5 15.15 41.55 15.3 42 15.5 42.4 15.8 42.45
L 17.45 42.4
Q 17.75 42.5 17.75 42.75 17.75 42.95 17.55 43.1 17.35 43.35 17 43.3
L 16.7 43.35 18.2 43.3
Q 18.75 43.3 18.85 43.35 19.1 43.6 19.25 43.7
L 22.6 43.7 22.85 43.85
Q 23.15 43.75 23.75 43.7 24.4 43.6 24.9 43.35
L 27.25 43.35
Q 27.9 43.75 28.45 43.5 29 43.3 29.55 43.85 31.15 43.8 31.4 43.7
L 32.55 43.7
Q 32.9 43.95 32.8 44.1 34.3 44.1 34.4 44.25 34.55 44.3 34.55 44.5
L 36.4 44.5
Q 37.65 44.1 39 43.55 40.1 43.25 42 43
L 46.2 43
M 41.5 41.9
Q 41.75 42.05 41.8 42.05 42.1 42.05 42.5 41.8 42.8 41.8 43.55 42.05 43.75 42.15 43.85 42.4 43.4 42.75 42.6 42.75 41.85 42.7 41.7 42.7
L 36.95 42.75 36.85 42.85 35.65 42.85
Q 35.45 42.75 35.45 42.65
L 33.15 42.7
Q 33 42.75 33 42.45
L 33 42.25 33.15 42.2 40.6 41.75
Q 41.3 41.7 41.5 41.9
M 19.9 40.8
L 19.9 40.9 17.75 40.9 16.8 40.35
Q 18.2 40.35 19.25 40.65 19.75 40.75 19.9 40.8
M 19.8 41.15
Q 19.8 41.2 19.9 41.45 19.9 41.5 19.9 41.55 20.85 41.65 21.1 41.7 21.35 41.8 21.4 41.8
L 23.65 41.5 25.1 41.5 25.4 41.8
Q 27.4 41.75 27.9 41.5
L 28.8 41.5 28.95 41.8
Q 28.45 42.4 27.05 42.4
L 21.7 42.45 21 42.55
Q 20.55 42.55 19.4 42.25 19.15 42.2 19.05 42.15
L 19 42.15
Q 18 42.25 17.8 42.25 17.7 42.15 17.7 41.9 17.7 41.5 18.55 41.25 19.25 41.05 19.8 41.15
M 29.5 42.2
L 30.1 42.05 31.4 42.15 31.75 42.45 31.55 42.7 29.6 42.7 29.5 42.2
M 26.3 33.8
Q 25.95 33.8 25.6 34
L 26.45 34
Q 26.5 33.8 26.3 33.8
M 21.15 33.8
L 21.1 33.6 20.1 33.6 21.15 33.8
M 21.85 33.85
L 22.55 34
Q 22.85 34 23.15 33.9
L 21.85 33.85
M 19.65 33.5
L 19.3 33.1 19.05 33.1
Q 19.35 33.25 19.55 33.5
L 19.65 33.5
M 14 32.3
L 14 32.35
Q 14.5 32.55 15.5 32.75 15.55 32.75 15.7 32.8 15.65 32.6 15.5 32.35 14.55 32.2 14.25 32.2 14.1 32.2 14 32.3
M 21 31.85
Q 21.45 31.8 21.45 31.75
L 21.1 31.8 21 31.85
M 18.5 29.7
L 19 29.7
Q 18.840625 29.6953125 18.75 29.65 18.6 29.65 18.5 29.7
M 16.4 30.25
Q 16 30.05 15.55 30.05 15.2 30.05 15.05 30.3
L 16.15 30.3 16.4 30.25
M 41.3 34.1
L 41.3 34.05 40.3 34
Q 40.1 33.85 40.1 33.75
L 39.2 33.75
Q 38.65 34 35.95 34.05 36.7 34.1 37.8 34.25 38.8 34.3 39.3 34.05
L 41.3 34.1
M 41.95 29
Q 41.5 28.9 41.2 28.95 40.8 29 40.45 28.9 39.7 28.25 39.2 28.65 38.5 29.2 38.2 29.2 38.05 29.2 37.95 29.05 37.8 28.9 37.65 28.9 34.65 28.9 34.35 29 33.65 29.25 32 29.4
L 31.75 29.2
Q 30.5 29.15 29.45 29.15 28.6 29.4 28.3 29.4 28.15 29.4 28.15 29.3
L 28.2 29.2
Q 27.8 29.05 25.1 29.2 25.1 29.05 25 29 24.95 28.9 24.75 28.9 24.2 28.9 23.45 29.45 22.7 29.95 20.35 29.95 20.25 29.95 19.6 29.8
L 19.8 30
Q 19.25 30.45 18.8 30.65 18.2 30.9 16.75 30.9 15.95 30.9 14.7 30.75 14.55 30.65 14.55 30.45 11.3 30.7 10.55 30.75 10.55 30.95 10.65 31.1 11.2 31.05 11.85 31.45 13.25 31.5 14.65 31.55
L 14.9 31.75
Q 16.85 31.85 17.3 31.85 17.45 31.85 17.6 32.1 18.7 31.85 20.5 31.3 22.1 30.95 23.45 30.95 23.75 30.95 24.45 31.2 25.1 31.45 25.2 31.55 26.9 32.05 28 31.55
L 28.3 31.85 27.9 32.3 26.5 32.3
Q 26.15 32.05 24.9 32.05 24.25 32.05 23.85 32.25 23.45 32.45 23.35 32.45
L 20.75 32.5
Q 21.1 32.75 21 32.95 22.55 32.7 23.35 32.95 23.75 33.1 23.9 33.3 25.15 33.3 27.05 32.75
L 27.65 32.8 27.7 33.1
Q 27.7 33.55 27.05 33.65
L 28.2 33.75 28.25 33.8 28.8 33.65
Q 29.1 33.65 28.85 33.85 29 34 29.8 34 30.45 34 31 33.8 31.25 33.85 31.5 33.85 31.6 33.75 31.75 33.65 32.15 33.55 32.35 33.45
L 38.25 33.25 38.55 33.1 42 33.1 42.25 33.35 43.4 33.35
Q 43.5 33.3 44.25 32.8 44.5 32.6 44.9 32.6 45.05 32.6 45.85 32.35 46.4 32.35 46.45 32.3 46.6 32.25 46.65 32.25 46.65 31.55 46.2 31.35 45.1 31.35 44.5 31.25
L 44.5 31.1
Q 44.5 30.8 44.8 30.4 45.1 29.9 45.1 29.75 44.3 28.9 44.05 28.9
L 43.1 29.5
Q 42.45 29.15 41.95 29
M 41.05 29.4
L 40.85 29.65 39.7 29.65 39.2 29.4
Q 39.2 29.05 39.25 29.05 39.45 28.95 40.75 29.05
L 41.05 29.4
M 41.95 30.65
Q 41.95 30.45 42.2 30.3
L 43.25 30.3 43.55 30.65 43.35 30.9 42.05 30.9
Q 41.95 30.95 41.95 30.65
M 44.05 32.1
Q 44.25 32.2 44.35 32.45
L 44.15 32.6 41.1 32.6
Q 41 32.7 41 32.35 41 32.25 41.05 32.1
L 44.05 32.1
M 40.95 31.25
Q 40.8 31.5 40.6 31.5
L 36.95 31.55 36.85 31.7 35.95 31.7
Q 35.75 31.55 35.75 31.3
L 36.65 31.05
Q 36.65 30.8 36.9 30.65
L 38.2 30.75
Q 38.2 30.7 38.2 30.65 38.2 30.45 38.45 30.3
L 40 30.3 40.3 30.65 40.1 30.9 39.8 30.9 40.6 30.95 40.95 31.25
M 32.6 29.9
Q 32.6 29.75 32.65 29.65
L 33.45 29.65
Q 33.8 29.55 34.55 29.65
L 34.85 29.65
Q 35.05 29.7 35.15 29.95
L 34.95 30.15 32.75 30.15
Q 32.6 30.2 32.6 29.9
M 34.9 30.65
L 35.05 30.9
Q 34.85 31.05 34.05 31.2
L 31.6 31.2
Q 31.35 31 31.35 30.7 31.5 30.55 33.15 30.55 34.7 30.55 34.9 30.65
M 31.1 31.25
L 31.4 31.55 30.8 32 29.3 32
Q 28.95 31.8 28.85 31.6 28.85 31.35 28.85 31.25 29.2 31.25 29.3 31.5 29.6 31.6 31.1 31.25
M 26.75 29.7
L 27 29.9 28.5 29.95
Q 28.7 30 28.8 30.25 28.6 30.45 28.5 30.45 25.35 30.55 25 30.55 24.65 30.55 24.4 30.3 24.15 30 24.2 29.65
L 26.75 29.7
M 34.1 25.85
Q 35.05 26.1 35.4 26.1 36 26.1 36.65 25.85
L 34.1 25.85
M 20.8 24.65
Q 21.9 24.7 22.05 24.3
L 19.75 23.75 19 24.05 19.05 24.2
Q 19.3 24.35 20.3 24.6 20.35 24.6 20.5 24.65 20.6 24.65 20.8 24.65
M 41.1 26.2
L 41 25.95 38.75 25.9
Q 39.55 26.05 41.1 26.2
M 54.05 24
L 53.3 23.6
Q 53.55 23.5 54.05 23.3 54.4 23.1 54.6 22.85 53.7 22.5 52.35 22.85 49.75 23.6 46.95 23.9
L 39.45 24.1
Q 38.5 24 37.5 23.5
L 30.3 23.5
Q 27.7 23.1 27.65 23.1 24 24 22.7 24.2 23.1 24.3 23.45 24.4
L 28.45 24.35 28.95 24.1 29.25 24.4
Q 29 24.85 28.3 24.95
L 23.6 25.05 23.45 25.15 21.55 25.15
Q 21.7 25.3 21.95 25.45
L 27 25.6 27 25.55
Q 27 25.4 27.15 25.3
L 38.45 25.05 38.7 25.3 42.2 25.35
Q 42.5 25.55 42.5 25.7
L 42 26.2 41.2 26.2
Q 41.465625 26.20625 41.7 26.3 43.05 26.45 44.15 26.65 44.4 25.95 44.85 26.3
L 44.95 26.5
Q 44.85 26.65 44.8 26.7 45.8 26.85 46.6 26.9 46.7 27 47.45 27 48.2 27 52.75 25.8 53.25 25.65 55.75 25.4 58.05 25.05 58.35 24.1
L 58.2 23.8 57.4 23.8
Q 57.15 23.9 54.05 24
M 53.8 25.45
L 53.55 25.4 52.6 25.3 52.5 24.8
Q 52.6 24.65 53 24.65
L 54.05 24.85
Q 54.6 24.6 55.65 24.65 55.85 24.7 56 24.95 55.85 25.1 55.5 25.15 55.5 25.2 55.55 25.3 55.35 25.45 54.75 25.45
L 54.2 25.45
Q 54 25.45 53.8 25.45
M 52.55 25.35
Q 52.35 25.45 52.2 25.45 51.3 25.6 49.65 25.9
L 47.6 26.2 46.2 26.1
Q 46.05 26.15 46.05 25.85
L 46.05 25.65 46.2 25.6
Q 46.35 25.55 51.4 24.65 51.4 24.7 51.5 24.95 51.5 25.15 51.3 25.15
L 51.15 25.2 52.05 25.05
Q 52.35 25.05 52.45 25.15
L 52.55 25.35
M 17.7 20.85
Q 17.2 20.85 16.75 21 17.2 21.05 17.75 21.2 17.7 21.05 17.7 20.85
M 35.7 23
L 36.6 22.8
Q 36.2 22.8 35.95 22.8
L 34.35 22.75
Q 34.95 22.85 35.7 23
M 54.9 21.3
Q 55.05 21.25 55.35 21.1
L 55 21.1
Q 53.55 21.45 52 21.85
L 53.45 22.05
Q 54 22.05 54.35 21.8 54.55 21.6 54.9 21.3
M 41.5 22.75
L 45.15 22.85
Q 45.3 23 46.3 23 46.15 22.85 45.95 22.65 45.95 22.5 46.4 22.25
L 42.65 22.15
Q 42.55 22.05 42.55 21.7
L 50.7 21.25
Q 50.8 21.3 51 21.5
L 51.7 21.5
Q 51.25 21.45 51.25 21.2 51.25 21.05 51.4 20.95 52.75 20.8 52.75 20.7
L 54.4 20.7 54.6 20.6
Q 55.8 20.5 55.9 20.35
L 56.6 20.5
Q 56.6 20.45 56.6 20.35 56.5 20.2 56.5 20.05
L 55.65 20.05
Q 53.35 20.45 53.2 20.2 52.75 19.75 49.45 19.75 48.35 20.05 48 20.05 47.1 20.05 46.1 20.1
L 46.35 20.35 46.15 20.6 43.3 20.6
Q 43.15 20.7 43.15 20.35 43.15 20.3 43.25 20.25 40.1 20.35 36.4 20.8
L 35.15 20.8
Q 34.7 20.35 34.1 20.05
L 22.2 19.85
Q 21.8 19.55 21.15 19.35
L 15.15 19.35
Q 14.2 19.7 14.1 19.7 13.85 19.6 13.1 19.8 13.1 20.05 13.25 20.2 13.4 20.2 13.5 20.25 13.6 20.1 13.7 20.05
L 14.95 20.05 15.15 20.25
Q 16.95 20 17.5 20.05
L 17.55 20.25
Q 17.8 20.2 18.1 20.2
L 18.05 20 18.35 19.75
Q 19.65 19.6 20.1 19.45
L 20.4 19.75 19.85 20.2 20.6 20.35 20.75 20.6
Q 20.65 20.7 20.5 20.75
L 22.7 20.95
Q 22.9 21 23.05 21.25
L 22.85 21.45 18.75 21.45
Q 19.1 21.5 19.55 21.6
L 19.75 21.85
Q 20.05 22.05 20.5 22.05 21.05 22.05 22.2 21.5
L 24.25 21.5
Q 24.25 21.75 24.45 21.85
L 26.05 21.9
Q 26.2 22.05 26.95 22.05 27.75 22.05 27.8 21.9 29 21.9 29.1 22.05 29.85 22.05 31.85 22.35
L 31.65 22.15
Q 31.65 21.7 32.05 21.55
L 33 21.55
Q 33.05 21.6 34.6 21.7 36 21.8 36.25 22.1 37.9 22.05 38.3 21.9 38.65 21.9 38.75 22.05
L 38.9 22.25
Q 38.45 22.6 38 22.75
L 38.7 22.75 38.95 23 40.45 23
Q 40.7 22.75 41.5 22.75
M 49.65 20.5
L 49.45 20.35
Q 49.5 19.8 49.9 19.8 50.2 19.8 51.2 20.2
L 51.3 20.35
Q 51.2 20.6 50.75 20.6 50 20.45 49.65 20.5
M 24.45 20.6
Q 24.15 20.6 23.95 20.5 23.95 20.05 24.1 20 24.2 19.95 27.25 20.05
L 27.55 20.35 27.4 20.6 24.45 20.6
M 23.65 21.3
Q 23.6 21 23.65 20.95 23.7 20.95 25.25 20.95
L 27.45 21
Q 27.45 21.1 27.55 21.35
L 27.5 21.7 27 21.75 26.5 21.5
Q 23.85 21.45 23.65 21.3
M 28.95 21.35
Q 30.2 21.2 30.3 21.05 30.45 21.05 32.05 21
L 32.35 21.3
Q 32.1 21.25 30.9 21.85
L 29.45 21.85 28.95 21.35
M 37.35 15
Q 37.7 14.35 38.05 14.15 36.45 13.95 35.3 14.6
L 34.6 14.6 34.45 14.45 34.45 14.35
Q 33.55 14.4 31.65 14.4 32.1 14.65 32.4 14.9 33.65 14.9 34.15 15.1 34.65 15.25 35.4 15.35
L 37.35 15
M 38.8 13.8
Q 38.55 13.7 38.2 13.6 37.45 13.35 37.35 13.2
L 31.3 13.2
Q 32.15 13.55 32.35 13.85 33.55 13.8 34.45 13.85
L 34.45 13.8 38.8 13.8
M 56.85 14.1
L 56.6 13.85 55.65 13.85
Q 55.15 14.1 54.35 14.15 54.3 14.1 54.25 14.05 54.2 14.1 54.05 14.15 54.0111328125 14.1888671875 53.85 14.2 54.3162109375 14.184375 56.85 14.1
M 44.95 15.2
Q 44.75 15.15 44.6 15.1
L 40.85 15.1
Q 40.55 15.1 40.2 15.4 39.8 15.75 38.5 15.7
L 38.4 15.85 36.65 15.85
Q 36.7 15.9 36.75 15.95
L 38.9 15.95 39 15.9 42.35 15.85
Q 42.25 15.7 42.25 15.35
L 44.95 15.2
M 47.45 15.1
L 47.95 15
Q 49.15 14.7 51.5 14.7 51.5 14.75 51.65 15 51.65 15.35 51.2 15.35 47.95 15.6 47.25 15.85
L 45.9 15.85
Q 46.9 15.9 48.75 15.95 52.95 15.95 56 14.65 55.9 14.6 55.85 14.6 55 14.4 54.4 14.7
L 53.85 14.7 53.75 14.6 53.75 14.2
Q 53.25 14.3 52.05 14.3 50.55 14.3 50.4 14.15 50.5 13.7 50.9 13.55
L 53.3 13.55
Q 53.2 13.45 53.05 13.45
L 48.7 13.45
Q 48.2 13.55 47.95 13.65
L 42.35 13.8
Q 42.65 13.8 43.55 13.85
L 43.85 14.15 43.65 14.4 42.2 14.4
Q 41.95 14.2 41.95 13.9 42.0396484375 13.8103515625 42.25 13.8
L 39.3 13.85
Q 39.4 13.9 39.45 13.95 39.5 14.1 39.45 14.15
L 40.6 14.15 40.95 14.45 44.35 14.45
Q 45.65 14.65 47.35 14.75
L 47.45 15.1
M 28.25 16.35
Q 28.45 16.4 28.6 16.45 28.55 16.4 28.55 16.25
L 28.05 16.25
Q 28.153125 16.253125 28.25 16.35
M 47.45 17.25
Q 47.75 17.45 47.75 17.65 47.75 17.9 47.45 18 43.9 18.2 42.55 18.45
L 50.25 18.65
Q 51.25 18.45 51.65 18.15 51.7 18.05 51.75 18
L 50.45 18 50.3 17.75 48.7 17.8
Q 48.5 17.7 48.5 17.55
L 50.3 17.25
Q 50.3 17.2 50.3 17.15 50.3 17 50.4 16.9
L 50.55 16.9
Q 49.15 16.75 48.85 16.65
L 44.6 16.65 44.35 16.6 34.55 16.5
Q 34.15 16.35 33.85 16.35
L 33.7 16.35
Q 33.2 16.6 32 16.85 30.6 17.05 29.5 17.05 27.25 16.6 26.8 16.6 26.7 16.65 26.7 16.35
L 26.7 16.25 25.2 16.25 20.85 16.25
Q 20.8 16.25 20.8 16.35
L 20.85 16.35
Q 21.35 16.65 22.05 16.5 22.7 16.4 23.15 16.85
L 25.7 16.9
Q 26 17 26 17.4 25.9 17.65 25.6 17.7
L 25.45 17.45
Q 22.45 17.4 22.35 17.25 22.05 17.25 21.7 17.25 22.3 17.5 23.15 17.8 25.9 18.75 28.05 18.75 31.25 18.65 32 18.55
L 26.8 18.3
Q 26.7 18.2 26.7 17.8 32.3 17.55 32.55 17.55 32.9 17.8 32.8 18 36.85 17.9 37.1 17.9
L 37.2 18.15
Q 36.2 18.45 34.65 18.5
L 34.4 18.55
Q 35.3 18.55 35.35 18.65 37.15 18.7 38.25 18.5 37.9 18.3 37.6 18
L 37.6 17.65
Q 38.5 17.95 39.65 17.7 40.55 17.5 40.75 17.75
L 40.8 17.75
Q 42.55 17.7 42.55 17.5
L 47.2 17.4 47.45 17.25
M 36.1 17.5
L 35.9 17.7 34.9 17.7
Q 34.8 17.55 34.8 17.4
L 34.85 16.95
Q 35.5 16.95 36.1 17.5
M 75.05 19.8
L 75.05 19.85
Q 76.35 19.6 77.5 19.2 78.55 18.8 79.5 18.4 78.65 18.55 77.2 18.9 76.45 19 75.85 19.15 76 19.25 76.05 19.35 75.75 19.7 75.05 19.8
M 68.05 19.75
Q 68.1 19.8 68.3 19.85
L 70.85 20.2
Q 72.5 20.2 73.95 20
L 74 19.95
Q 73.9 19.95 73.75 19.95 71.75 19.85 71.2 19.85 70.05 19.85 69.9 19.75
L 68.05 19.75
M 65.85 18.45
Q 66.4 18.15 68.1 18.2
L 68.35 18.4 69.05 18.4
Q 68.95 18.3 68.95 18.2 68.95 18 69.2 17.9
L 69.55 18.2
Q 69.45 18.3 69.4 18.4
L 69.65 18.4 70.05 18.25 77.1 18.2
Q 79.1 17.9 79.85 17.9
L 79.8 17.8 78.8 17.9
Q 79 17.55 79 17.45 78.9 17.25 78.4 17.25 77.6 17.5 77.25 17.55 77.3 17.5 77.25 17.4 77.1 17.25 77 17.2 76.75 17.2 73.9 17.45
L 73.55 17.25
Q 68.6 17.8 67.25 18 65.25 18.25 65.25 18.8 65.25 19.15 65.35 19.05
L 67 19.15 67.15 19.05 71.7 19.05
Q 72.7 18.95 73.65 18.8
L 70.1 18.8
Q 69.9 18.9 68.15 18.95 66.5 19.05 66.15 19.05 65.7 19.05 65.55 18.95 65.7 18.55 65.85 18.45
M 66.4 16.6
Q 66.6 16.65 66.75 16.9 66.55 17.05 66.4 17.05
L 63.05 17.15
Q 62.7 17.3 62.2 17.4 62.45 17.45 62.65 17.5 63 17.5 63.3 17.4 63.55 17.2 65.95 17.2
L 66.3 17.25 66.4 17.5
Q 66.3 17.65 66.1 17.8 67.75 17.5 68.1 17.05
L 67.5 16.65
Q 66.6 16.7 66.05 16.4 65.6 16.1 65.5 16
L 64.25 16
Q 63.7 16.15 63.55 16.15 63.5 16.1 63.25 16
L 58.35 16
Q 55.6 16.25 55.1 16.35 54.4 16.45 54.4 16.9 54.4 17.05 54.6 17.2 55.35 17.25 57.55 17.45 57.55 17.55 57.6 17.75 58.15 17.65 59.4 17.5 59.2 17.5 59 17.5
L 59 17.25 56.15 17.2
Q 56 17.05 56 16.9 56 16.6 56.3 16.6
L 58.65 16.6
Q 58.9 16.5 59.6 16.6
L 66.4 16.6
M 66 56.7
L 66.85 56.7
Q 67 56.7 67.3 56.6 66.4 56.6 66 56.7
M 61 56.35
L 62.3 56.25
Q 62.2 56.2 62.15 56.1
L 60.6 56.1
Q 60.25 56.1 59.9 56.25 60.5 56.35 61 56.35
M 91.6 56.25
Q 91.4 56.3 91.35 56.3 90.9 56.45 90.4 56.7 91.1 56.5 91.6 56.25
M 92.55 55.2
Q 92.85 55.2 93.2 55.2 93.6892578125 55.1439453125 94.1 55.1 94.25 55.2 94.4 55.35 94.95 55.1 95.75 54.7
L 95.45 54.4 93.45 54.4
Q 92.35 54.85 88.6 54.85 87.95 54.6 87.8 54.6 85.05 54.3 84.75 54.3 84.1 54.3 83.95 54.5 83.85 54.7 80.95 54.7 80.6 54.7 79.4 54.55 78.05 54.45 77.9 54.4 73.4 54.05 73.05 54.05
L 70.7 54.4
Q 70.65 54.4 70.15 54.05 68 53.95 67.4 54.15 66.8 54.4 65.95 54.4 65.75 54.4 65.7 54.55 65.55 54.8 65.45 54.8 59.45 55.25 58.8 55.3 58.6 55.35 58.55 55.55 58.9 55.35 59.35 55.3 60.2 55.2 62.7 55.2 62.95 55.2 63.15 55.35 63.3 55.5 63.75 56
L 66.15 56
Q 67.65 55.85 68.15 55.7 68.6 55.5 69.4 55.5
L 72.1 55.8
Q 72.75 55.8 72.9 55.7 73.15 55.6 73.55 55.6 72.1 55.55 71.25 55.3 71.1 55.3 70.9 54.7 71.2 54.6 74.8 54.85
L 75.05 55.1
Q 75.7 55.05 77.3 55.1 77.5 55.2 77.6 55.45
L 77.55 55.5
Q 77.8 55.5 78.05 55.5
L 78.3 55.7
Q 78.85 55.55 79.25 55.5 79.25 55.45 79.25 55.35 79.25 55.25 79.4 55.05 79.6 54.95 79.6 54.85
L 81.05 54.85 81.35 55.2
Q 80.8 55.75 80.4 55.75 80.45 55.8 80.45 55.95
L 82.35 55.75
Q 82.35 55.55 82.6 55.45
L 84.6 55.45
Q 84.7 55.5 84.8 55.6 84.9 55.75 84.8 55.8
L 87.6 56
Q 88.35 56 90.4 55.6 92.0251953125 55.352734375 93.2 55.2
L 92.55 55.25 92.55 55.2
M 87.35 54.8
Q 87.55 54.85 87.7 55.1 87.5 55.3 86.8 55.3 85.75 55.3 85.45 55
L 85.45 54.55
Q 85.65 54.5 87.35 54.8
M 71.6 44.55
L 72.45 44.45 70.7 44.5
Q 70.9 44.55 71.6 44.55
M 74.05 44.35
Q 74.2322265625 44.3044921875 74.45 44.3
L 74.15 44.3 74.05 44.35
M 65.45 40.75
L 65.25 40.5 65.25 40.35
Q 64.75 40.35 64.35 40.35 64.25 40.35 64.05 40.4
L 64.25 40.55
Q 64.05 40.7 63.6 40.8
L 65.45 40.75
M 65.95 40.45
L 65.95 40.35
Q 65.8 40.35 65.7 40.35 65.8 40.45 65.95 40.45
M 70.05 40.15
Q 70.4 40.1 70.75 40 70.2 40.1 69.65 40.1 68.8 40.15 68 40.2 67.85 40.35 67.5 40.45 68.7 40.35 70.05 40.15
M 88 43.5
Q 87.956640625 43.5 87.65 43.45 87.7248046875 43.4748046875 87.75 43.5 87.8 43.55 87.85 43.6 87.95 43.55 88 43.5
M 84.9 43.05
Q 84.75 43.1 84.6 43.2
L 85.05 43.2 84.9 43.05
M 66.55 44
L 66.55 44.05 66.85 44 66.55 44
M 91.1 39.4
Q 91 39.65 90.65 39.7
L 89.1 39.75
Q 90.35 39.85 90.5 39.95
L 90.8 40.25
Q 90.65 40.5 90 40.5 88.6 40.25 86.5 40.2 86.4 40.25 86.4 39.95 86.4 39.85 86.5 39.75
L 86.25 39.75 83.45 39.1 79.15 39.1 77.55 39.35
Q 76.5 39.35 74.45 39.65 73.0787109375 39.8458984375 71.9 39.95
L 72 40.2
Q 71.6 40.65 69.9 40.75 69.15 40.8 68.6 40.9 68.05 41.3 66 41.45 65.55 41.45 63.45 41.45 61.8 41.45 60.75 41.4 60.7 41.4 60.65 41.45
L 59.25 41.45
Q 59.1 41.5 59.1 41.2
L 59.1 41.15
Q 58.9 41.05 58.8 41 58.55 41.2 57.9 41.25 55.35 41.45 54.65 41.75 54.5 41.9 54.4 42.15 55.25 42.05 57.9 42.15
L 58.05 42.45
Q 57.8 42.65 57.65 42.65 57.35 42.65 56.7 42.65 56.25 42.65 56 42.85
L 55.9 42.85 55.75 43
Q 54.8 43.55 54.75 43.8 54.9 43.95 55.1 43.95 56.35 43.85 57.05 43.75
L 56.55 43.5 56.55 43.1
Q 57.6 43 58.9 42.7 59 42.65 59.6 43
L 59.35 43.2
Q 59.9 43.35 61.55 43.35
L 61.9 43.7
Q 61.8 43.75 61.75 43.8 61.95 43.75 62.05 43.75
L 64.2 43.75
Q 64.1 43.6 64.05 43.6
L 64.35 43.35 67.65 43.35
Q 68.05 43.55 70.9 43.6 71 43.7 71.2 43.85
L 75.95 43.6
Q 76.75 43.55 77.35 43.35 77.7 43.35 78.35 43.7
L 79.8 43.5 79.55 43.35
Q 79.85 42.95 80.9 42.7 81.55 42.55 82.4 42.45
L 84.95 42.45
Q 84.95 42.5 84.95 42.55 85.65 42.25 87.05 42.5 88.1 42.7 89.75 43.05 90 43.25 90.85 43.3
L 91 43.6
Q 90.9 43.7 90.85 43.75
L 92.35 43.75
Q 94.1 43.6 96 43 97.15 42.65 97.65 42.5 97.55 42.45 97.55 42.3 97.55 41.45 99.05 41.75 99.25 41.8 99.35 42.05 99.05 42.3 98.65 42.45
L 99.45 42.45 99.5 41.95 99.45 41.3
Q 97.75 41.55 97.15 41.2 96.75 40.65 96.4 40.4
L 94.4 40.35
Q 93.55 40.35 92.65 39.75 91.8 39.15 91.65 39.15 91.3 39.15 91.1 39.4
M 88.95 41.45
Q 89.1 41.5 89.25 41.75 89.05 41.95 87.35 42.05
L 85.7 42.05
Q 85.5 42.15 85.5 41.8
L 85.5 41.65 85.7 41.55 88.95 41.45
M 81.45 41.15
L 83.35 41.2 83.65 41.5
Q 83.5 41.75 82.5 41.75 81.2 41.75 80.85 41.5
L 80.85 41.2 81.45 41.15
M 91.9 43
L 91.4 42.5
Q 92.4 42.4 94.1 42 95.2 41.7 95.75 41.8
L 96.1 42.15
Q 95.45 42.75 94.95 42.75 93.8 42.8 92.95 43
L 91.9 43
M 91.5 41.15
Q 91.35 41 91.35 40.65 91.5 40.65 93.8 40.55
L 93.9 40.8 93.85 41.15 91.5 41.15
M 59.25 42.25
Q 59.15 42.15 58.55 42.15
L 58.4 41.7
Q 59.2 41.25 59.7 41.95 59.6 42.25 59.25 42.25
M 66.4 41.8
Q 66.35 42 66 42.15 65.6 42.3 65.6 42.45 65.6 43 61.9 43 61.45 43 61.25 42.85 62.25 42.2 63.4 42 64.05 41.8 66.1 41.5
L 66.4 41.8
M 67.8 42.3
Q 67.8 42.05 68 42.05
L 73.4 42
Q 75 41.45 76.8 41.4 77.8 41.4 79.15 41.45
L 79.3 41.75
Q 79.1 41.95 77.45 42.3 75.4 42.75 74.95 42.85
L 73.25 42.85
Q 73.05 42.75 73.05 42.65
L 69.45 42.65 69.35 42.7 68 42.7
Q 67.8 42.55 67.8 42.3
M 58.95 38.95
L 58.85 38.95 58.7 38.7 56.65 38.5
Q 56.6 38.45 56.6 38.35 56 38.35 55 38.4 54.9 38.5 54.35 38.5 54.35 38.65 54.35 38.85 54.65 39.25 56.35 39.25 57.85 39.25 58.95 38.95
M 81.6 36.15
Q 82.15 35.95 82.9 35.25
L 82.75 35
Q 82.5 34.9 80.65 35.35 78.75 35.75 77.55 36.05
L 68.4 36.15
Q 66.1 36.65 65.2 36.55
L 64.85 36.2 64.05 36.2
Q 61.8 36.4 60.6 36.85 59.4 37.3 58.05 37.4
L 54.5 37.55
Q 54.4 37.65 54.4 37.85 55.1 37.65 56.8 37.8
L 57.05 38.05 60 38.1
Q 60.1 38.15 60.15 38.25 60.15 38.4 60.35 38.4 60.75 38.4 61.4 38.15 61.7 38.05 62.2 37.8
L 62.5 38.1 65.6 38.1
Q 65.95 38.25 65.95 38.45 65.95 38.7 65.6 38.85
L 64.25 38.85 64.1 38.7 61.75 38.65 61.65 38.6 61.15 38.85 63.75 38.95
Q 63.95 38.95 65.3 39.1 66.75 39.1 67.75 38.6
L 71.4 38.5
Q 71.5 38.5 71.65 38.5 71.1 38.35 70.9 38.15 70.9 37.95 71.15 37.85 70.85 37.85 70.7 37.9
L 68.9 37.9
Q 68.8 37.95 68.8 37.9
L 66.6 37.9
Q 66.5 37.95 66.5 37.65 66.5 37.55 66.55 37.4
L 68.6 37.4
Q 68.65 37.4 68.7 37.45
L 68.9 37.4
Q 70.05 37.3 74.8 36.85
L 75.15 37.15
Q 74.75 37.6 74.5 37.7 72.5 37.7 71.5 37.85 72.65 37.9 72.9 38.15 73.2 38.4 73.5 38.4 73.95 38.4 74.55 38.15
L 74.55 38.1 74.65 38.1
Q 76.75 38.05 77.55 37.8 77.75 37.7 78.85 37.15
L 78.75 36.95 77.85 36.85 77.9 36.8 78.15 36.65
Q 78.8 36.45 79.8 36.4 80.85 36.35 81.6 36.15
M 76.95 37.1
L 77.5 37.05 77.2 37.1 77.1 37.1
Q 77.3 37.15 77.45 37.4
L 77.25 37.6 75.6 37.6
Q 75.3 37.3 75.2 36.9
L 76.95 37.1
M 57.65 34.35
L 57.4 34.5 60.35 34.5 61.1 34.35 57.65 34.35
M 93.9 33.1
L 93.6 32.8 90.4 32.8
Q 90.3 32.75 89.85 32.5
L 87.6 32.5 91.6 31.5 91.5 31.25 90.9 31.2
Q 89.55 31.2 88.3 31.7
L 84.6 31.7
Q 84.65 31.45 84.6 31.3 84.45 31.2 83.75 31.2
L 81.3 31.45 81.05 31.25 76.45 31.25 75.85 31.2 73.7 31.45
Q 72.65 31.45 72.25 31.3 71.75 31.2 70.9 30.65 69.65 30.7 67.1 31.1 66.25 31.25 65.6 31.35
L 65.8 31.55
Q 65.7 31.8 64.95 31.8 64.25 31.8 64.05 31.7 64.05 31.6 64.1 31.55 63.55 31.25 63.25 31.25 62.95 31.35 62.8 31.35 62.8 31.6 63.05 31.8
L 62.5 32
Q 61.1 32.05 59.1 32.7
L 61.25 32.5 61.55 32.8 61.75 32.8 62.05 33.1
Q 61.95 33.35 60.6 33.35 59.25 33.35 59.1 33.25
L 58.2 33.25
Q 58.15 33.2 58.15 33 56.35 33.65 56.05 34.05
L 56.85 34
Q 56.85 33.85 57.1 33.75
L 61.25 33.75 61.55 33.9 65.75 33.85 66.5 33.65
Q 66.05 33.55 65.7 33.55 65.55 33.6 65.55 33.3 65.55 33.2 65.75 33 65.95 32.85 65.95 32.8
L 68.7 32.8 69.05 33.1
Q 68.85 33.3 68.7 33.45 67.85 34.3 67.55 34.1 67.4 34.05 67.35 34.05 67.15 34.05 66.9 34.1 65.2 34.6 63.4 34.6 63.15 34.6 62.45 34.6 62.5 34.85 62.55 34.9
L 65.45 34.9
Q 65.85 34.8 68.25 34.25
L 69.65 34.25 68.35 34.15
Q 68.6 33.75 69.2 33.45
L 73.25 33.45 73.7 33.75 76.8 33.75 77.05 34 77.45 34 77.45 33.85 77.6 33.8 79.35 33.65 80.7 33.75 80.85 34.05
Q 80.85 34.15 80.35 34.25 80.65 34.3 80.9 34.4 81.1 34.55 82.35 34.6
L 82.3 34.55
Q 82.05 34.35 81.4 34.35 81.65 33.45 83.5 33.65 84.95 33.85 85.5 34.1 86.9 34.05 89.1 33.75
L 89.25 34
Q 88.85 34.35 87.6 34.4 86.3 34.5 86 34.6 88.55 34.5 91 34 93.4 33.5 93.9 33.1
M 84.4 32.45
Q 84.35 32.45 84.15 32.45 84.35 32.5 84.45 32.75
L 84.25 32.95 77.3 32.95
Q 77 32.8 76.8 32.75 76.5 32.6 75.25 32.5
L 73.45 32.45
Q 73.3 32.45 73.3 32.1
L 73.3 31.95
Q 73.4 31.95 73.45 31.95
L 77.1 31.85 77.45 31.8 84.15 31.85 84.4 32.1
Q 84.45 32 84.6 31.85 85.65 31.75 85.95 31.85 86.05 31.95 86.5 32.2
L 86.65 32.45
Q 86.45 32.6 86.15 32.6
L 84.45 32.35
Q 84.45 32.45 84.4 32.45
M 85.75 33
L 86 32.8 87.85 32.8 88.6 33.45 88.45 33.65 86.3 33.65
Q 85.9 33.25 85.75 33
M 71.75 31.85
Q 71.9 31.85 72.65 32.2
L 72.75 32.45 72.6 32.6 71.6 32.6
Q 71.45 32.5 71.45 32 71.7 31.8 71.75 31.85
M 64.85 32.1
Q 65.05 32.2 65.2 32.45
L 65 32.6 63.2 32.6
Q 63.05 32.7 63.05 32.35 63.05 32.25 63.15 32.1
L 64.85 32.1
M 70.2 31.7
Q 70.2 31.75 70.3 31.8
L 69.35 32
Q 68.6 32 68.4 31.85
L 68.45 31.8 67 31.85 66.8 31.75
Q 67.5 31.55 68 31.45 68.4 31.3 70.85 31.25 70.9 31.3 72.2 31.55
L 70.2 31.7
M 71.7 23.75
L 71.7 23.8
Q 72.1 23.85 72.5 24 72.95 24.1 73.65 23.9
L 72.95 23.9
Q 72.75 23.8 72.75 23.5
L 71.7 23.75
M 83.2 21.9
Q 84.1 21.75 84.25 21.55
L 84.15 21.3 83.4 21.25 80.55 21.5
Q 80.4 21.5 79.5 21.3 78.55 21.05 78.35 21
L 73.75 20.95
Q 74 20.55 73.55 20.3
L 64.5 21 61.5 20.85 61.25 20.7 60.35 20.7
Q 59.25 21 58.65 21.05 58.4 21.35 58.2 21.85
L 57.05 21.9
Q 56.8 21.9 56.3 21.6
L 55.3 21.7 55.3 22.85 55.4 23
Q 55.75 23.05 58.05 23.6 58.15 23.6 58.3 23.65
L 58.15 23.55
Q 58.15 23.35 58.45 23.15
L 59.25 23.15 59.5 23.35
Q 61.4 23.3 61.8 23.5 62 23.6 62.05 23.8
L 61.9 24.05 60.7 24.05
Q 62.4 24.2 64.25 24.2 64.8 24.2 66 24.15 65.95 24.05 65.95 24
L 65.95 23.8 66.1 23.75
Q 67.3 23.55 68.1 23.25 68.8310546875 23.0349609375 71.3 23
L 70.45 23
Q 70.35 22.85 70.3 22.8
L 66.8 22.65
Q 66.65 22.8 66.55 22.8
L 66.05 22.85 67.05 22.85 67.35 23.15
Q 67.25 23.4 66.25 23.4 65.35 23.4 63.95 23.3 63.4 22.9 63.4 22.6
L 59.45 22.5
Q 59.35 22.4 59.35 22.1 59.35 22 59.4 21.85
L 63.75 21.85
Q 63.85 21.9 64.05 22.1 66.9 22.15 67.15 22.25
L 70.6 22.25
Q 71.15 22.05 73.25 22.25
L 77 22.15
Q 77.5 22 78.3 22.1 78.9 22.15 79.8 21.6
L 82.9 21.6 83.2 21.9 Z"/>

<path fill="#838317" stroke="none" d="
M 28 56.1
Q 27.95 56.2 27.95 56.3 27.95 56.6 28.05 56.55
L 29.05 56.55 29.25 56.35 29.1 56.05 28 56.05 28 56.1
M 24.75 55.5
L 24.45 55.5
Q 22.8 55.85 22.6 55.95 22.3 56.05 22.15 56.2 22.05 56.3 22.05 56.45 22.05 56.75 22.15 56.7 22.9 56.6 23.15 56.5 23.3 56.35 24.45 56.25
L 24.7 56 24.9 55.8
Q 24.75 55.6 24.75 55.5
M 16.4 30.25
L 16.15 30.3 15.05 30.3 14.55 30.25
Q 14.55 30.3 14.55 30.45 14.55 30.65 14.7 30.75 15.95 30.9 16.75 30.9 18.2 30.9 18.8 30.65 19.25 30.45 19.8 30
L 19.6 29.8 19.5 29.7 19 29.7 18.5 29.7 18.35 29.7 16.4 30.25
M 27 29.9
L 26.75 29.7 24.2 29.65
Q 24.15 30 24.4 30.3 24.65 30.55 25 30.55 25.35 30.55 28.5 30.45 28.6 30.45 28.8 30.25 28.7 30 28.5 29.95
L 27 29.9
M 35.05 30.9
L 34.9 30.65
Q 34.7 30.55 33.15 30.55 31.5 30.55 31.35 30.7 31.35 31 31.6 31.2
L 34.05 31.2
Q 34.85 31.05 35.05 30.9
M 32.65 29.65
Q 32.6 29.75 32.6 29.9 32.6 30.2 32.75 30.15
L 34.95 30.15 35.15 29.95
Q 35.05 29.7 34.85 29.65
L 34.55 29.65
Q 33.8 29.55 33.45 29.65
L 32.65 29.65
M 38.2 30.75
Q 38.2 30.95 38.3 30.9
L 39.8 30.9 40.1 30.9 40.3 30.65 40 30.3 38.45 30.3
Q 38.2 30.45 38.2 30.65 38.2 30.7 38.2 30.75
M 42.2 30.3
Q 41.95 30.45 41.95 30.65 41.95 30.95 42.05 30.9
L 43.35 30.9 43.55 30.65 43.25 30.3 42.2 30.3
M 40.85 29.65
L 41.05 29.4 40.75 29.05
Q 39.45 28.95 39.25 29.05 39.2 29.05 39.2 29.4
L 39.7 29.65 40.85 29.65
M 23.95 20.5
Q 24.15 20.6 24.45 20.6
L 27.4 20.6 27.55 20.35 27.25 20.05
Q 24.2 19.95 24.1 20 23.95 20.05 23.95 20.5
M 49.45 20.35
L 49.65 20.5
Q 50 20.45 50.75 20.6 51.2 20.6 51.3 20.35
L 51.2 20.2
Q 50.2 19.8 49.9 19.8 49.5 19.8 49.45 20.35
M 43.4 20.05
Q 43.3 20.1 43.25 20.25 43.15 20.3 43.15 20.35 43.15 20.7 43.3 20.6
L 46.15 20.6 46.35 20.35 46.1 20.1 46.05 20.05 43.4 20.05
M 43.85 14.15
L 43.55 13.85
Q 42.65 13.8 42.35 13.8
L 42.25 13.8
Q 42.0396484375 13.8103515625 41.95 13.9 41.95 14.2 42.2 14.4
L 43.65 14.4 43.85 14.15
M 28.05 16.25
L 28.55 16.25
Q 28.55 16.4 28.6 16.45 28.6 16.5 28.7 16.6 30.2 16.65 30.8 16.75 31.25 16.75 31.4 16.6
L 31.3 16.25
Q 31.1 16.25 30.75 16.2 30.25 16.1 29.35 15.85 29.3 15.85 29.25 15.85
L 29.1 15.7 25.4 15.7
Q 25.15 15.85 25.15 16 25.15 16.2 25.2 16.25
L 26.7 16.25 28.05 16.25
M 35.9 17.7
L 36.1 17.5
Q 35.5 16.95 34.85 16.95
L 34.8 17.4
Q 34.8 17.55 34.9 17.7
L 35.9 17.7
M 68.95 18.2
Q 68.95 18.3 69.05 18.4 69.05 18.5 69.1 18.45 69.3 18.45 69.4 18.4 69.45 18.3 69.55 18.2
L 69.2 17.9
Q 68.95 18 68.95 18.2
M 58.65 16.6
Q 58.54375 16.603125 58.45 16.65 58.55 16.85 58.45 16.95 58.65 17.05 59.1 17.05 59.5 17.05 59.7 16.9
L 59.6 16.6
Q 58.9 16.5 58.65 16.6
M 87.7 55.1
Q 87.55 54.85 87.35 54.8 85.65 54.5 85.45 54.55
L 85.45 55
Q 85.75 55.3 86.8 55.3 87.5 55.3 87.7 55.1
M 61 40.7
L 62.3 40.9 63.6 40.8
Q 64.05 40.7 64.25 40.55
L 64.05 40.4 63.95 40.25
Q 63.7 40.45 62.75 40.5 61.9 40.55 61 40.7
M 68 40.2
Q 67.85 39.95 67.65 39.9
L 66.1 39.9 65.85 39.95 65.95 40.35 65.95 40.45
Q 66.65 40.45 67.5 40.45 67.85 40.35 68 40.2
M 59.1 41.2
Q 59.1 41.5 59.25 41.45
L 60.65 41.45
Q 60.7 41.4 60.75 41.4 59.65 41.3 59.1 41.15
L 59.1 41.2
M 90.5 39.95
Q 90.35 39.85 89.1 39.75 88.2 39.65 86.65 39.65 86.5 39.7 86.5 39.75 86.4 39.85 86.4 39.95 86.4 40.25 86.5 40.2 88.6 40.25 90 40.5 90.65 40.5 90.8 40.25
L 90.5 39.95
M 91.35 40.65
Q 91.35 41 91.5 41.15
L 93.85 41.15 93.9 40.8 93.8 40.55
Q 91.5 40.65 91.35 40.65
M 65.6 31.35
L 65.5 31.25 64.35 31.25
Q 64.2 31.35 64.1 31.55 64.05 31.6 64.05 31.7 64.25 31.8 64.95 31.8 65.7 31.8 65.8 31.55
L 65.6 31.35
M 58.15 33
Q 58.15 33.2 58.2 33.25
L 59.1 33.25 60.95 33.25 61.55 32.8 61.25 32.5 59.1 32.7 58.1 32.75
Q 58.1 32.85 58.15 33
M 70.2 31.7
Q 70.1 31.55 69.95 31.5 68.55 31.45 68.4 31.55 68.45 31.7 68.45 31.8
L 68.4 31.85
Q 68.6 32 69.35 32
L 70.3 31.8
Q 70.2 31.75 70.2 31.7
M 65.2 32.45
Q 65.05 32.2 64.85 32.1
L 63.15 32.1
Q 63.05 32.25 63.05 32.35 63.05 32.7 63.2 32.6
L 65 32.6 65.2 32.45
M 72.65 32.2
Q 71.9 31.85 71.75 31.85 71.7 31.8 71.45 32 71.45 32.5 71.6 32.6
L 72.6 32.6 72.75 32.45 72.65 32.2 Z"/>

<path fill="#4D4D00" stroke="none" d="
M 33.55 58.6
Q 33.65 58.75 34.6 58.75 35.75 58.75 37.5 58.15 37.6 58.1 37.65 58.1 38.55 57.8 39.95 57.75 41.2 57.6 42.75 57.6
L 42.8 57.3
Q 42.75 57.25 42.75 57.15 42.65 57.05 42.65 57 41 56.6 40.3 56.5 39.25 56.3 37.6 57.6
L 35.95 57.65 35.65 58
Q 34.85 58.05 34.55 58.05 33.65 57.9 32.05 58
L 31.75 57.65 30.5 57.65 28.2 58
Q 28 58 28 57.85 27.95 57.75 27.9 57.65
L 27.05 57.65
Q 26.95 57.5 26.95 57.35 26.45 57.55 26.3 57.4 26.2 57.25 26.15 57.3
L 24.2 57.3
Q 24.2 57.6 21.95 57.65 21.7 57.8 21.7 57.9
L 20.35 58
Q 20.05 58 19.05 57.65 18.05 57.35 17.95 57.35 15 57.3 14.3 57.05 14.15 56.75 13.9 56.55 13.4 56.1 13.1 55.85 12.75 55.6 12.6 55.55 11.95 55.3 10.85 56.1 11.55 57.15 12 56.7 12.65 56.1 13.35 57 13.65 57.35 14.7 57.8 17.85 57.75 18.6 58.35 19.1 58.75 19.85 58.65 19.9 58.6 20.05 58.6
L 20.8 58.65 22.15 58.75
Q 25.15 58.75 25.35 58.75 25.95 58.65 26.15 58.4
L 26.15 58.35 27 58.3 27.05 58.4 27.15 58.55 29.35 58.55
Q 29.45 58.5 33.55 58.6
M 37.65 55.6
L 37.5 55.5
Q 37.4 55.55 37.25 55.6 36.7 55.85 36 56.05
L 35.75 55.8 31.1 55.75
Q 30.5 55.85 30.5 56.45
L 30.7 56.55 32.55 56.55
Q 32.6 56.55 32.75 56.6 33.1 56.75 33.15 56.85
L 34.35 56.85
Q 34.6 56.7 35.05 56.55
L 35.95 56.55
Q 36.15 56.5 36.25 56.3 37.35 56.1 37.8 55.8
L 37.65 55.6
M 16.7 56.1
Q 16.45 56.25 16.45 56.45 16.45 56.75 16.55 56.7 17.8 56.75 17.95 56.85
L 20.1 57
Q 20.6 57 20.75 56.75 20.05 56.3 19.8 56.1
L 16.7 56.1
M 78.85 38.05
L 78.75 37.8
Q 77.55 37.9 76.2 38.05
L 76.1 38.4
Q 76.1 38.7 76.25 38.65 76.85 38.7 77.8 38.45 78.6 38.2 78.85 38.05
M 25.85 40.55
Q 25.7 40.4 25.5 40.35 25.4 40.25 25.2 40.25
L 25.2 40.4 25.2 40.9 25.6 41.15 28.95 41.15 30.5 40.9
Q 30.8 40.9 31.15 41 32.15 41 32.85 40.75 33.15 40.75 33.6 41 33.9 41 34.1 40.8
L 33.95 40.55
Q 33.95 40.5015625 33.9 40.5 33.6 40.2 32.8 40.2
L 32.25 40.35
Q 31.75 40.15 31.4 40.1 31.35 40 31.3 40 30.85 39.9 30.7 39.85 30.05 39.65 29.8 40 29.85 40.15 30.05 40.25 29.55 40.35 29 40.5
L 25.85 40.55
M 46.3 43.1
Q 46.2 43.05 46.2 43
L 42 43
Q 40.1 43.25 39 43.55 37.65 44.1 36.4 44.5
L 34.55 44.5
Q 34.55 44.3 34.4 44.25 34.3 44.1 32.8 44.1 32.9 43.95 32.55 43.7
L 31.4 43.7
Q 31.15 43.8 29.55 43.85 29 43.3 28.45 43.5 27.9 43.75 27.25 43.35
L 24.9 43.35
Q 24.4 43.6 23.75 43.7 23.15 43.75 22.85 43.85
L 22.6 43.7 19.25 43.7
Q 19.1 43.6 18.85 43.35 18.75 43.3 18.2 43.3
L 16.7 43.35 17 43.3
Q 17.35 43.35 17.55 43.1 17.75 42.95 17.75 42.75 17.75 42.5 17.45 42.4
L 15.8 42.45
Q 15.5 42.4 15.3 42 15.15 41.55 14.95 41.5 14.3 41.8 14.25 41.8 10.9 41.8 9.95 41.2
L 9.1 41.2 8.1 41.2
Q 7.9 41.2 7.65 41.45 7.4 41.65 7.4 41.9 7.4 42.15 7.55 42.25
L 9.25 42.25
Q 9.3 42.25 9.35 42.15 9.4 42 9.6 42 9.9 42 10.4 42.3
L 9.05 42.4 9.05 42.75 9.7 43.2 13.7 43.2 13.85 43.1 14 43.05
Q 14 43.096875 14.1 43.1 14.2 43.55 14.5 43.8 16.4 44.05 17.55 44.2 20.05 44.45 19.15 44.25
L 22.35 44.3 22.45 44.75 24.9 44.8
Q 24.9 44.85 25 45
L 25.1 45.05
Q 26.05 45.05 27.75 45.2 27.8 45.2 27.9 45.2
L 28 45.2
Q 28.6 45.1802734375 28.6 44.7 28.6 44.5 28.35 44.3 29.2 44.35 29.3 44.5 29.5 44.6 29.75 45.05
L 30.8 45.05
Q 31.9 44.8 32.35 44.95 32.6 45 32.85 45.05 33.55 45.2 34.35 45.25 34.3 45.4 34.4 45.65
L 37.65 45.65
Q 37.75 45.65 38.3 45.55 38.95 45.5 39.2 45.25
L 39.15 45.1 38.9 44.85
Q 39.95 44.6 43.75 44.05 43.85 44.05 44 44.05 46.35 43.7 46.35 43.3 46.3 43.2 46.3 43.1
M 30.1 42.05
L 29.5 42.2 29.6 42.7 31.55 42.7 31.75 42.45 31.4 42.15 30.1 42.05
M 19.9 41.45
Q 19.8 41.2 19.8 41.15 19.25 41.05 18.55 41.25 17.7 41.5 17.7 41.9 17.7 42.15 17.8 42.25 18 42.25 19 42.15
L 19.05 42.15
Q 19.15 42.2 19.4 42.25 20.55 42.55 21 42.55
L 21.7 42.45 27.05 42.4
Q 28.45 42.4 28.95 41.8
L 28.8 41.5 27.9 41.5
Q 27.4 41.75 25.4 41.8
L 25.1 41.5 23.65 41.5 21.4 41.8
Q 21.35 41.8 21.1 41.7 20.85 41.65 19.9 41.55 19.9 41.5 19.9 41.45
M 41.8 42.05
Q 41.75 42.05 41.5 41.9 41.3 41.7 40.6 41.75
L 33.15 42.2 33 42.25 33 42.45
Q 33 42.75 33.15 42.7
L 35.45 42.65
Q 35.45 42.75 35.65 42.85
L 36.85 42.85 36.95 42.75 41.7 42.7
Q 41.85 42.7 42.6 42.75 43.4 42.75 43.85 42.4 43.75 42.15 43.55 42.05 42.8 41.8 42.5 41.8 42.1 42.05 41.8 42.05
M 14.9 31.75
L 14.65 31.55
Q 13.25 31.5 11.85 31.45 11.2 31.05 10.65 31.1 10.15 31.1 9.65 31.55 9.85 31.85 10.1 32.1 10.1 32.45 9.95 32.6
L 13.9 32.45
Q 13.95 32.45 14 32.35
L 14 32.3
Q 14.1 32.2 14.25 32.2 14.55 32.2 15.5 32.35 15.65 32.6 15.7 32.8
L 15.75 32.95 19.05 33.1 19.3 33.1 19.65 33.5 19.65 33.55 20.1 33.6 21.1 33.6 21.15 33.8 21.25 33.85 21.85 33.85 23.15 33.9 24.25 33.9 24.25 34.15 25 34.15
Q 25.25 34.05 25.6 34 25.95 33.8 26.3 33.8 26.5 33.8 26.45 34 26.4 34.0015625 26.4 34.05 26.45 34.3 27.7 34.3 28.35 34.3 28.5 34.05
L 28.25 33.8 28.2 33.75 27.05 33.65
Q 27.7 33.55 27.7 33.1
L 27.65 32.8 27.05 32.75
Q 25.15 33.3 23.9 33.3 23.75 33.1 23.35 32.95 22.55 32.7 21 32.95 21.1 32.75 20.75 32.5
L 23.35 32.45
Q 23.45 32.45 23.85 32.25 24.25 32.05 24.9 32.05 26.15 32.05 26.5 32.3
L 27.9 32.3 28.3 31.85 28 31.55
Q 26.9 32.05 25.2 31.55 25.1 31.45 24.45 31.2 23.75 30.95 23.45 30.95 22.1 30.95 20.5 31.3 18.7 31.85 17.6 32.1 17.45 31.85 17.3 31.85 16.85 31.85 14.9 31.75
M 21.45 31.75
Q 21.45 31.8 21 31.85
L 21.1 31.8 21.45 31.75
M 45.2 33.35
Q 45.3 33.3 45.35 33.3
L 45.4 33.3
Q 45.8642578125 33.19296875 46.15 33.05 48.2 32.35 50.4 31.85 50.25 31.7 50.25 31.55
L 49.95 31.55
Q 49.35 31.1 47.35 31.95 47.05 32.05 46.65 32.25 46.6 32.25 46.45 32.3 46.4 32.35 45.85 32.35 45.05 32.6 44.9 32.6 44.5 32.6 44.25 32.8 43.5 33.3 43.4 33.35
L 42.25 33.35 42 33.1 38.55 33.1 38.25 33.25 32.35 33.45
Q 32.15 33.55 31.75 33.65 31.6 33.75 31.5 33.85 31.25 34.05 31.05 34.35 31.15 34.5 31.6 34.5 31.9 34.5 32.15 34.35
L 35.65 34.3
Q 35.85 34.3 35.95 34.05 38.65 34 39.2 33.75
L 40.1 33.75
Q 40.1 33.85 40.3 34
L 41.3 34.05 41.3 34.1 41.45 34.3 42.6 34.3
Q 43.85 33.8 45.2 33.35
M 31.4 31.55
L 31.1 31.25
Q 29.6 31.6 29.3 31.5 29.2 31.25 28.85 31.25 28.85 31.35 28.85 31.6 28.95 31.8 29.3 32
L 30.8 32 31.4 31.55
M 40.6 31.5
Q 40.8 31.5 40.95 31.25
L 40.6 30.95 39.8 30.9 38.3 30.9
Q 38.2 30.95 38.2 30.75
L 36.9 30.65
Q 36.65 30.8 36.65 31.05
L 35.75 31.3
Q 35.75 31.55 35.95 31.7
L 36.85 31.7 36.95 31.55 40.6 31.5
M 44.35 32.45
Q 44.25 32.2 44.05 32.1
L 41.05 32.1
Q 41 32.25 41 32.35 41 32.7 41.1 32.6
L 44.15 32.6 44.35 32.45
M 22.7 24.2
Q 22.35 24.1 22.05 24.15 22.05 24.2 22.05 24.3 21.9 24.7 20.8 24.65 20.6 24.65 20.5 24.65 19.05 24.6 18.95 24.65 18.95 25.05 19.05 25.15
L 21.55 25.15 23.45 25.15 23.6 25.05 28.3 24.95
Q 29 24.85 29.25 24.4
L 28.95 24.1 28.45 24.35 23.45 24.4
Q 23.1 24.3 22.7 24.2
M 42.5 25.7
Q 42.5 25.55 42.2 25.35
L 38.7 25.3 38.45 25.05 27.15 25.3
Q 27 25.4 27 25.55
L 27 25.6
Q 27.05 25.85 28.2 26.05 28.45 26.05 30.5 26.2 30.8 26.2 30.8 25.9
L 34.1 25.85 36.65 25.85 38.75 25.9 41 25.95 41.1 26.2 41.2 26.2 42 26.2 42.5 25.7
M 44.95 26.5
L 44.85 26.3
Q 44.4 25.95 44.15 26.65 44.1 26.65 44.1 26.7
L 44.35 26.85
Q 44.55 26.85 44.8 26.7 44.85 26.65 44.95 26.5
M 52.2 25.45
Q 52.35 25.45 52.55 25.35
L 52.45 25.15
Q 52.35 25.05 52.05 25.05
L 51.15 25.2 51.3 25.15
Q 51.5 25.15 51.5 24.95 51.4 24.7 51.4 24.65 46.35 25.55 46.2 25.6
L 46.05 25.65 46.05 25.85
Q 46.05 26.15 46.2 26.1
L 47.6 26.2 49.65 25.9
Q 51.3 25.6 52.2 25.45
M 53.55 25.4
L 53.8 25.45
Q 54 25.45 54.2 25.45
L 54.75 25.45
Q 55.35 25.45 55.55 25.3 55.5 25.2 55.5 25.15 55.85 25.1 56 24.95 55.85 24.7 55.65 24.65 54.6 24.6 54.05 24.85
L 53 24.65
Q 52.6 24.65 52.5 24.8
L 52.6 25.3 53.55 25.4
M 31.85 22.35
L 32.25 22.65 34.35 22.75 35.95 22.8
Q 36.2 22.8 36.6 22.8 36.95 22.8 37.4 22.85 37.7 22.85 38 22.75 38.45 22.6 38.9 22.25
L 38.75 22.05
Q 38.65 21.9 38.3 21.9 37.9 22.05 36.25 22.1 36 21.8 34.6 21.7 33.05 21.6 33 21.55
L 32.05 21.55
Q 31.65 21.7 31.65 22.15
L 31.85 22.35
M 22.85 21.45
L 23.05 21.25
Q 22.9 21 22.7 20.95
L 20.5 20.75
Q 20.65 20.7 20.75 20.6
L 20.6 20.35 19.85 20.2 20.4 19.75 20.1 19.45
Q 19.65 19.6 18.35 19.75
L 18.05 20 18.1 20.2
Q 17.8 20.2 17.55 20.25
L 17.5 20.05
Q 16.95 20 15.15 20.25
L 14.95 20.05 13.7 20.05
Q 13.6 20.1 13.5 20.25 13.4 20.35 13.4 20.5 13.5 20.55 13.65 20.6 12.95 20.8 12.15 21.05 12.15 21.3 12.35 21.45
L 15.05 21.45
Q 15.5 21.35 16.3 21.1 16.5 21.05 16.75 21 17.2 20.85 17.7 20.85 17.7 21.05 17.75 21.2 17.75 21.35 17.8 21.45
L 18.75 21.45 22.85 21.45
M 42.55 21.7
Q 42.55 22.05 42.65 22.15
L 46.4 22.25
Q 45.95 22.5 45.95 22.65 46.15 22.85 46.3 23 46.35 23.1 46.3 23.15
L 46.55 23.3 47.6 23.3
Q 48.35 23.05 49 22.8 49.55 22.65 49.95 22.5 51 22.15 52 21.85 53.55 21.45 55 21.1
L 55.35 21.1 56 21.1
Q 56.6 20.45 56.9 20.7
L 56.8 20.5 56.6 20.5 55.9 20.35
Q 55.8 20.5 54.6 20.6
L 54.4 20.7 52.75 20.7
Q 52.75 20.8 51.4 20.95 51.25 21.05 51.25 21.2 51.25 21.45 51.7 21.5
L 51 21.5
Q 50.8 21.3 50.7 21.25
L 42.55 21.7
M 30.3 21.05
Q 30.2 21.2 28.95 21.35
L 29.45 21.85 30.9 21.85
Q 32.1 21.25 32.35 21.3
L 32.05 21
Q 30.45 21.05 30.3 21.05
M 23.65 20.95
Q 23.6 21 23.65 21.3 23.85 21.45 26.5 21.5
L 27 21.75 27.5 21.7 27.55 21.35
Q 27.45 21.1 27.45 21
L 25.25 20.95
Q 23.7 20.95 23.65 20.95
M 56 14.65
Q 56.7 14.75 57.2 14.4 57.1 14.15 56.9 14.1
L 56.85 14.1
Q 54.3162109375 14.184375 53.85 14.2 54.0111328125 14.1888671875 54.05 14.15 54.2 14.1 54.25 14.05 54.3 13.95 54.3 13.85
L 54 13.55 53.3 13.55 50.9 13.55
Q 50.5 13.7 50.4 14.15 50.55 14.3 52.05 14.3 53.25 14.3 53.75 14.2
L 53.75 14.6 53.85 14.7 54.4 14.7
Q 55 14.4 55.85 14.6 55.9 14.6 56 14.65
M 47.95 15
L 47.45 15.1 47.35 14.75
Q 45.65 14.65 44.35 14.45
L 40.95 14.45 40.6 14.15 39.45 14.15
Q 39.5 14.1 39.45 13.95 39.4 13.9 39.3 13.85 39.25 13.8 39.2 13.8
L 38.8 13.8 34.45 13.8 34.45 13.85
Q 33.55 13.8 32.35 13.85 32.15 13.55 31.3 13.2 31.15 13.2 31.1 13.15 30.1 12.85 29.85 12.85
L 29.25 12.9
Q 29.3 13.4 30 13.8 30.35 14.05 31.15 14.4 31.4 14.4 31.65 14.4 33.55 14.4 34.45 14.35
L 34.45 14.45 34.6 14.6 35.3 14.6
Q 36.45 13.95 38.05 14.15 37.7 14.35 37.35 15
L 35.4 15.35
Q 35.4 15.7 35.5 15.85
L 36.65 15.85 38.4 15.85 38.5 15.7
Q 39.8 15.75 40.2 15.4 40.55 15.1 40.85 15.1
L 44.6 15.1
Q 44.75 15.15 44.95 15.2
L 42.25 15.35
Q 42.25 15.7 42.35 15.85
L 45.9 15.85 47.25 15.85
Q 47.95 15.6 51.2 15.35 51.65 15.35 51.65 15 51.5 14.75 51.5 14.7 49.15 14.7 47.95 15
M 26.7 17.8
Q 26.7 18.2 26.8 18.3
L 32 18.55 33.55 18.65 34.4 18.55 34.65 18.5
Q 36.2 18.45 37.2 18.15
L 37.1 17.9
Q 36.85 17.9 32.8 18 32.9 17.8 32.55 17.55 32.3 17.55 26.7 17.8
M 26 17.4
Q 26 17 25.7 16.9
L 23.15 16.85
Q 22.7 16.4 22.05 16.5 21.35 16.65 20.85 16.35
L 20.8 16.35 19.8 16.35
Q 19.55 16.45 19.55 16.75 19.85 16.85 20.55 17.05 21.1 17.25 21.7 17.25 22.05 17.25 22.35 17.25 22.45 17.4 25.45 17.45
L 25.6 17.7
Q 25.9 17.65 26 17.4
M 50.55 16.9
L 50.4 16.9
Q 50.3 17 50.3 17.15 50.3 17.2 50.3 17.25
L 48.5 17.55
Q 48.5 17.7 48.7 17.8
L 50.3 17.75 50.45 18 51.75 18 51.95 18 52.45 17.55
Q 52.3 17.45 52.25 17.4
L 53.8 17.4 54 17.2
Q 53.85 16.95 53.7 16.9
L 50.55 16.9
M 47.75 17.65
Q 47.75 17.45 47.45 17.25
L 47.2 17.4 42.55 17.5
Q 42.55 17.7 40.8 17.75
L 40.75 17.75
Q 40.55 17.5 39.65 17.7 38.5 17.95 37.6 17.65
L 37.6 18
Q 37.9 18.3 38.25 18.5 38.3 18.5 38.45 18.55 38.9 18.75 39.05 18.95
L 40.55 18.95
Q 41.35 18.8 42.25 18.5 42.35 18.5 42.55 18.45 43.9 18.2 47.45 18 47.75 17.9 47.75 17.65
M 68.1 18.2
Q 66.4 18.15 65.85 18.45 65.7 18.55 65.55 18.95 65.7 19.05 66.15 19.05 66.5 19.05 68.15 18.95 69.9 18.9 70.1 18.8
L 73.65 18.8
Q 72.7 18.95 71.7 19.05
L 67.15 19.05 67 19.15 66.85 19.15 66.85 19.45 67.35 19.7 68.05 19.75 69.9 19.75
Q 70.05 19.85 71.2 19.85 71.75 19.85 73.75 19.95 73.9 19.95 74 19.95
L 73.95 20 73.95 20.05
Q 73.95 20.35 74.05 20.3 75.05 20.3 75.15 20.05
L 75.05 19.85 75.05 19.8
Q 75.75 19.7 76.05 19.35 76 19.25 75.85 19.15 76.45 19 77.2 18.9 78.65 18.55 79.5 18.4 80.05 18.2 80.2 18.15
L 80.1 17.9
Q 80 17.9 79.85 17.9 79.1 17.9 77.1 18.2
L 70.05 18.25 69.65 18.4 69.4 18.4
Q 69.3 18.45 69.1 18.45 69.05 18.5 69.05 18.4
L 68.35 18.4 68.1 18.2
M 66.75 16.9
Q 66.6 16.65 66.4 16.6
L 59.6 16.6 59.7 16.9
Q 59.5 17.05 59.1 17.05 58.65 17.05 58.45 16.95 58.55 16.85 58.45 16.65 58.54375 16.603125 58.65 16.6
L 56.3 16.6
Q 56 16.6 56 16.9 56 17.05 56.15 17.2
L 59 17.25 59 17.5
Q 59.2 17.5 59.4 17.5 58.15 17.65 57.6 17.75 57.3 17.75 57.15 17.8 56.7 17.95 56.6 18.3
L 56.8 18.45 57.35 18.45 57.45 18.4 61.45 18.3
Q 62.15 17.95 63.75 18.4 65 18.7 66.1 17.8 66.3 17.65 66.4 17.5
L 66.3 17.25 65.95 17.2
Q 63.55 17.2 63.3 17.4 63 17.5 62.65 17.5 62.45 17.45 62.2 17.4 62.7 17.3 63.05 17.15
L 66.4 17.05
Q 66.55 17.05 66.75 16.9
M 94.4 55.45
L 94.4 55.35
Q 94.25 55.2 94.1 55.1 93.6892578125 55.1439453125 93.2 55.2 92.0251953125 55.352734375 90.4 55.6 88.35 56 87.6 56
L 84.8 55.8
Q 84.9 55.75 84.8 55.6 84.7 55.5 84.6 55.45
L 82.6 55.45
Q 82.35 55.55 82.35 55.75
L 80.45 55.95
Q 80.45 55.8 80.4 55.75 80.8 55.75 81.35 55.2
L 81.05 54.85 79.6 54.85
Q 79.6 54.95 79.4 55.05 79.25 55.25 79.25 55.35 79.25 55.45 79.25 55.5 78.85 55.55 78.3 55.7
L 78.05 55.5
Q 77.8 55.5 77.55 55.5
L 77.6 55.45
Q 77.5 55.2 77.3 55.1 75.7 55.05 75.05 55.1
L 74.8 54.85
Q 71.2 54.6 70.9 54.7 71.1 55.3 71.25 55.3 72.1 55.55 73.55 55.6 73.15 55.6 72.9 55.7 72.75 55.8 72.1 55.8
L 69.4 55.5
Q 68.6 55.5 68.15 55.7 67.65 55.85 66.15 56
L 63.75 56
Q 63.3 55.5 63.15 55.35 62.95 55.2 62.7 55.2 60.2 55.2 59.35 55.3 58.9 55.35 58.55 55.55 57.6 55.85 57.15 56.55 57.3 56.7 57.8 56.7 58.45 56.7 59.15 56.45 59.5 56.3 59.9 56.25 60.25 56.1 60.6 56.1
L 62.15 56.1
Q 62.2 56.2 62.3 56.25 62.55 56.35 63.15 56.45 63 56.8 63.2 57 64.05 57.05 64.6 57.15 65 57.15 65.75 56.75 65.85 56.7 66 56.7 66.4 56.6 67.3 56.6 67.5 56.6 67.65 56.6 69.1 56.6 69.8 56.3
L 78.3 56.3 78.4 56.55 81.6 56.55 81.7 56.45
Q 83.25 56.5 83.45 56.35 83.5 56.35 83.65 56.1 83.65 56.35 84.9 56.45 84.9 56.75 85.05 56.85
L 88.55 56.95 88.55 57.15 89.35 57.15
Q 89.9 56.85 90.4 56.7 90.9 56.45 91.35 56.3 91.4 56.3 91.6 56.25 92.05 56.2 92.9 56 94.1 55.7 94.4 55.45
M 58.8 41
Q 58.9 41.05 59.1 41.15 59.65 41.3 60.75 41.4 61.8 41.45 63.45 41.45 65.55 41.45 66 41.45 68.05 41.3 68.6 40.9 69.15 40.8 69.9 40.75 71.6 40.65 72 40.2
L 71.9 39.95 71.85 39.95
Q 71.25 39.95 70.75 40 70.4 40.1 70.05 40.15 68.7 40.35 67.5 40.45 66.65 40.45 65.95 40.45 65.8 40.45 65.7 40.35 65.6 40.2 65.45 40.2
L 65.25 40.25 65.25 40.35 65.25 40.5 65.45 40.75 63.6 40.8 62.3 40.9 61 40.7 59.6 40.5 58.85 40.5
Q 58.8 40.55 58.8 41
M 55.9 42.85
L 56 42.85
Q 56.25 42.65 56.7 42.65 57.35 42.65 57.65 42.65 57.8 42.65 58.05 42.45
L 57.9 42.15
Q 55.25 42.05 54.4 42.15 54.3 42.15 54.25 42.15 53.45 42.25 53.45 42.65 53.45 42.95 53.55 42.85
L 55.9 42.85
M 97.7 42.55
Q 98.2 42.55 98.65 42.45 99.05 42.3 99.35 42.05 99.25 41.8 99.05 41.75 97.55 41.45 97.55 42.3 97.55 42.45 97.65 42.5 97.65 42.65 97.7 42.55
M 90.85 43.3
Q 90 43.25 89.75 43.05 88.1 42.7 87.05 42.5 85.65 42.25 84.95 42.55 84.95 42.5 84.95 42.45
L 82.4 42.45
Q 81.55 42.55 80.9 42.7 79.85 42.95 79.55 43.35
L 79.8 43.5 78.35 43.7
Q 77.7 43.35 77.35 43.35 76.75 43.55 75.95 43.6
L 71.2 43.85
Q 71 43.7 70.9 43.6 68.05 43.55 67.65 43.35
L 64.35 43.35 64.05 43.6
Q 64.1 43.6 64.2 43.75
L 62.05 43.75
Q 61.95 43.75 61.75 43.8 61.8 43.75 61.9 43.7
L 61.55 43.35
Q 59.9 43.35 59.35 43.2
L 59.6 43
Q 59 42.65 58.9 42.7 57.6 43 56.55 43.1
L 56.55 43.5 57.05 43.75 57.15 43.8
Q 56.5 43.95 55.85 44.05
L 55.65 44.1 55.65 44.3
Q 55.65 44.6 55.85 44.55
L 60.95 44.55 62.15 44.3 65.95 44.25
Q 65.95 44.45 66.1 44.55
L 69.15 44.55 69.3 44.5 70.7 44.5 72.45 44.45 73.9 44.45 74.05 44.35 74.15 44.3 74.45 44.3 74.95 44.3
Q 74.95 44.45 75.15 44.55
L 76.2 44.55
Q 77.45 44.3 82.05 43.7 83.85 43.5 84.6 43.2 84.75 43.1 84.9 43.05
L 85.05 43.2
Q 86.95 43.35 87.6 43.45 87.6494140625 43.45 87.65 43.45 87.956640625 43.5 88 43.5 87.95 43.55 87.85 43.6 87.6 43.75 87.6 43.85 87.6 44.2 87.75 44.1
L 88.45 44.1
Q 89.25 43.7 89.8 44.1 90.15 44.45 90.85 43.75 90.9 43.7 91 43.6
L 90.85 43.3
M 58.1 44
L 58.1 43.95 58.4 43.95 58.4 44
Q 58.3 44 58.1 44
M 66.55 44.05
L 66.15 44.2
Q 66.15 44.05 66.25 44
L 66.55 44 66.85 44 66.55 44.05
M 68 42.05
Q 67.8 42.05 67.8 42.3 67.8 42.55 68 42.7
L 69.35 42.7 69.45 42.65 73.05 42.65
Q 73.05 42.75 73.25 42.85
L 74.95 42.85
Q 75.4 42.75 77.45 42.3 79.1 41.95 79.3 41.75
L 79.15 41.45
Q 77.8 41.4 76.8 41.4 75 41.45 73.4 42
L 68 42.05
M 66 42.15
Q 66.35 42 66.4 41.8
L 66.1 41.5
Q 64.05 41.8 63.4 42 62.25 42.2 61.25 42.85 61.45 43 61.9 43 65.6 43 65.6 42.45 65.6 42.3 66 42.15
M 58.55 42.15
Q 59.15 42.15 59.25 42.25 59.6 42.25 59.7 41.95 59.2 41.25 58.4 41.7
L 58.55 42.15
M 91.4 42.5
L 91.9 43 92.95 43
Q 93.8 42.8 94.95 42.75 95.45 42.75 96.1 42.15
L 95.75 41.8
Q 95.2 41.7 94.1 42 92.4 42.4 91.4 42.5
M 83.35 41.2
L 81.45 41.15 80.85 41.2 80.85 41.5
Q 81.2 41.75 82.5 41.75 83.5 41.75 83.65 41.5
L 83.35 41.2
M 89.25 41.75
Q 89.1 41.5 88.95 41.45
L 85.7 41.55 85.5 41.65 85.5 41.8
Q 85.5 42.15 85.7 42.05
L 87.35 42.05
Q 89.05 41.95 89.25 41.75
M 68.9 37.9
L 70.7 37.9
Q 70.85 37.85 71.15 37.85 70.9 37.95 70.9 38.15 71.1 38.35 71.65 38.5 71.85 38.6 72 38.65 73 38.95 73.7 38.95 74.3 38.95 74.55 38.75 74.75 38.65 74.95 38.4
L 74.65 38.1 74.55 38.1 74.55 38.15
Q 73.95 38.4 73.5 38.4 73.2 38.4 72.9 38.15 72.65 37.9 71.5 37.85 72.5 37.7 74.5 37.7 74.75 37.6 75.15 37.15
L 74.8 36.85
Q 70.05 37.3 68.9 37.4
L 68.7 37.45
Q 68.65 37.4 68.6 37.4
L 66.55 37.4
Q 66.5 37.55 66.5 37.65 66.5 37.95 66.6 37.9
L 68.8 37.9
Q 68.8 37.95 68.9 37.9
M 60.15 38.25
Q 60.1 38.15 60 38.1
L 57.05 38.05 56.8 37.8
Q 55.1 37.65 54.4 37.85 54.3 37.85 54.2 37.9 53.95 38.05 53.75 38.4 53.85 38.5 54.35 38.5 54.9 38.5 55 38.4 56 38.35 56.6 38.35 56.6 38.45 56.65 38.5
L 58.7 38.7 58.85 38.95 58.95 38.95 60.75 38.95 61.15 38.85 61.65 38.6 61.75 38.65 64.1 38.7 64.25 38.85 65.6 38.85
Q 65.95 38.7 65.95 38.45 65.95 38.25 65.6 38.1
L 62.5 38.1 62.2 37.8
Q 61.7 38.05 61.4 38.15 60.75 38.4 60.35 38.4 60.15 38.4 60.15 38.25
M 77.1 37.1
L 76.95 37.1 75.2 36.9
Q 75.3 37.3 75.6 37.6
L 77.25 37.6 77.45 37.4
Q 77.3 37.15 77.1 37.1
M 80.7 33.75
L 79.35 33.65 77.6 33.8 77.45 33.85 77.45 34 77.45 34.05
Q 77.45 34.35 77.6 34.3 79.6 34.3 80.35 34.25 80.85 34.15 80.85 34.05
L 80.7 33.75
M 72.7 34.3
Q 72.9 34.3 74.75 34.5 76.7 34.55 77.1 34.05
L 77.05 34 76.8 33.75 73.7 33.75 73.25 33.45 69.2 33.45
Q 68.6 33.75 68.35 34.15
L 69.65 34.25 72.7 34.3
M 59.1 33.25
Q 59.25 33.35 60.6 33.35 61.95 33.35 62.05 33.1
L 61.75 32.8 61.55 32.8 60.95 33.25 59.1 33.25
M 55.3 34.1
Q 55.3 34.5 55.4 34.6
L 57.1 34.6 57.4 34.5 57.65 34.35 61.1 34.35 61.2 34.35
Q 61.25 34.4 62.2 34.55 62.3 34.55 62.45 34.6 63.15 34.6 63.4 34.6 65.2 34.6 66.9 34.1 67.15 34.05 67.35 34.05 67.4 34.05 67.55 34.1 67.85 34.3 68.7 33.45 68.85 33.3 69.05 33.1
L 68.7 32.8 65.95 32.8
Q 65.95 32.85 65.75 33 65.55 33.2 65.55 33.3 65.55 33.6 65.7 33.55 66.05 33.55 66.5 33.65
L 65.75 33.85 61.55 33.9 61.25 33.75 57.1 33.75
Q 56.85 33.85 56.85 34
L 56.05 34.05 55.3 34.1
M 81.4 34.35
Q 82.05 34.35 82.3 34.55
L 82.35 34.6
Q 82.6 34.8 83.65 34.8 84.6 34.8 85.2 34.6
L 86 34.6
Q 86.3 34.5 87.6 34.4 88.85 34.35 89.25 34
L 89.1 33.75
Q 86.9 34.05 85.5 34.1 84.95 33.85 83.5 33.65 81.65 33.45 81.4 34.35
M 86 32.8
L 85.75 33
Q 85.9 33.25 86.3 33.65
L 88.45 33.65 88.6 33.45 87.85 32.8 86 32.8
M 84.15 32.45
Q 84.35 32.45 84.4 32.45 84.45 32.45 84.45 32.35
L 86.15 32.6
Q 86.45 32.6 86.65 32.45
L 86.5 32.2
Q 86.05 31.95 85.95 31.85 85.65 31.75 84.6 31.85 84.45 32 84.4 32.1
L 84.15 31.85 77.45 31.8 77.1 31.85 73.45 31.95
Q 73.4 31.95 73.3 31.95
L 73.3 32.1
Q 73.3 32.45 73.45 32.45
L 75.25 32.5
Q 76.5 32.6 76.8 32.75 77 32.8 77.3 32.95
L 84.25 32.95 84.45 32.75
Q 84.35 32.5 84.15 32.45
M 61.9 24.05
L 62.05 23.8
Q 62 23.6 61.8 23.5 61.4 23.3 59.5 23.35
L 59.25 23.15 58.45 23.15
Q 58.15 23.35 58.15 23.55
L 58.3 23.65 58.65 24.05 60.7 24.05 61.9 24.05
M 82.2 22.5
Q 82.85 22.35 83.2 21.9
L 82.9 21.6 79.8 21.6
Q 78.9 22.15 78.3 22.1 77.5 22 77 22.15
L 73.25 22.25
Q 71.15 22.05 70.6 22.25
L 67.15 22.25
Q 66.9 22.15 64.05 22.1 63.85 21.9 63.75 21.85
L 59.4 21.85
Q 59.35 22 59.35 22.1 59.35 22.4 59.45 22.5
L 63.4 22.6
Q 63.4 22.9 63.95 23.3 65.35 23.4 66.25 23.4 67.25 23.4 67.35 23.15
L 67.05 22.85 66.05 22.85 66.55 22.8
Q 66.65 22.8 66.8 22.65
L 70.3 22.8
Q 70.35 22.85 70.45 23
L 71.3 23
Q 68.8310546875 23.0349609375 68.1 23.25 67.3 23.55 66.1 23.75
L 65.95 23.8 65.95 24
Q 65.95 24.05 66 24.15 66 24.3 66.1 24.2
L 67.5 24.2 67.6 24.1 68.95 24.1 68.95 24.35 71.4 24.2
Q 71.7 24.1 71.7 23.85
L 71.7 23.8 71.7 23.75 72.75 23.5
Q 72.75 23.8 72.95 23.9
L 73.65 23.9 74.65 23.9
Q 74.7 23.85 76.1 23.6 77.45 23.35 77.75 22.85
L 80.85 22.65
Q 81.45 22.6 82.2 22.5 Z"/>

<path fill="#606007" stroke="none" d="
M 26.7 16.35
Q 26.7 16.65 26.8 16.6 27.25 16.6 29.5 17.05 30.6 17.05 32 16.85 33.2 16.6 33.7 16.35
L 33.8 16.25 33.65 16
Q 33.05 15.75 30.9 16.15
L 30.75 16.2
Q 31.1 16.25 31.3 16.25
L 31.4 16.6
Q 31.25 16.75 30.8 16.75 30.2 16.65 28.7 16.6 28.6 16.5 28.6 16.45 28.45 16.4 28.25 16.35 28.153125 16.253125 28.05 16.25
L 26.7 16.25 26.7 16.35 Z"/>
</g>

<g id="skinFIlm_0_Layer0_0_FILL">
<path fill="#336600" stroke="none" d="
M 62.75 85.55
Q 62.9013671875 85.792578125 63.2 85.75 63.7 85.7 64.2 85.7 64.55 85.65 64.85 85.5 63.8173828125 85.5 62.75 85.55
M 55.6 84.7
Q 55.6 84.45 55.45 84.2 55.25 83.8 55 83.7 54.95 83.95 54.9 84.2 54.85 84.45 54.8 84.7 54.8 84.8 54.7 84.85 54.35 84.55 54.15 84.2 54.15 84.15 54.05 84.05 54 84.05 53.95 84.05 53.8072265625 84.8595703125 54.15 85.65 54.1810546875 85.7095703125 54.2 85.75 55.0103515625 85.7380859375 55.85 85.7 56 85.7 56.15 85.75 56.7 85.9 57.3 85.95 57.748828125 85.959765625 58.2 85.95 58.898828125 85.984765625 59.6 86 60.75 86.025 61.9 86.05 62.85 86.05 63.7 85.85 62.55 85.85 61.4 85.85 61.25 85.85 61.2 85.8 61.370703125 85.7650390625 61.55 85.75 61.85 85.7 62.2 85.65 62.4 85.6 62.55 85.6 62.6673828125 85.58984375 62.75 85.55 62.7646484375 85.5439453125 62.75 85.5 62.65 85 62.4 84.85 62.3 84.95 62.2 85.05 62.15 85.2 62 85.25 61.1 85.55 60.6 84.85 60.5 84.95 60.45 85.05 60.4 85.2 60.35 85.3 60.35 85.35 60.25 85.35 60.2 85 60.05 84.7 60 84.65 59.9 84.55 59.55 84.5 59.4 84.85 59.35 85 59.25 85 58.75 85.05 58.45 84.55 58.4 84.45 58.3 84.45 57.9923828125 84.45 57.8 84.65 57.7271484375 84.6013671875 57.65 84.55 57.5 84.65 57.35 84.75 57.25 84.9 57.15 85.1 57.1 85.3 57 85.5 56.8 84.95 56.5 84.35 56.4 84.05 56.15 84.05 56.05 84.3 56.05 84.55 56 84.8 55.95 85.05 55.95 85.1 55.85 85.1 55.75 85.1 55.7 85 55.65 84.9 55.6 84.7
M 36.05 85.3
L 36.1 85.5
Q 36.15 85.85 36.4 86 36.5 86.1 36.55 86.15 36.3 86.15 36.05 86.15 36.1 86.5 36.7 86.4 37.25 86.35 37.85 86.35 37.65 86.65 37.05 86.55 36.25 86.45 35.55 86.65 37.2 87 39 86.85 39.4 86.85 39.8 86.75 39.9 86.75 40 86.7 40.3 86.65 40.65 86.65 42.15 86.65 43.6 86.8 43.85 86.85 44.1 86.95 44.5 87.15 44.55 86.85 44.55234375 86.825 44.55 86.8 44.8 86.85 45.05 86.85 46 86.85 46.85 86.7 47.15 86.65 47.5 86.6 48 86.5 48.5 86.5 48.2 86.3 48.1 86
L 48.1 85.95
Q 48.075 85.9 48.05 85.85 48 84.9 47.5 84.35 47.45 84.55 47.45 84.7 47.45 85.15 47 85.1 46.8 85.1 46.8 84.85 46.7 84.15 46.35 83.7 46.35 83.8 46.3 83.9 46.3 84 46.25 84.05 46.2 84.3 46.2 84.55
L 46.2 84.85
Q 46.05 84.85 46 84.8 45.8 84.4 45.55 84.2 45.45 84.15 45.4 84.05 45.1416015625 83.7177734375 44.85 83.5 44.9166015625 83.599609375 44.95 83.7 45 83.8 45 83.9 45.0466796875 84.9716796875 45.05 86 44.25 85.5 43.7 84.75 43.6 84.65 43.4 84.5 43.35 84.45 43.25 84.35 43.398046875 84.5720703125 43.6 84.85 43.6720703125 84.94609375 43.75 85.05 43.8017578125 85.136328125 43.85 85.25 43.2 85.1 42.75 84.85 42.6 84.8 42.45 84.7 42.45 84.9 42.5 85.05
L 42.55 85.1
Q 42.575 85.2 42.6 85.3
L 42.6 85.35
Q 42.5802734375 85.448828125 42.55 85.5 42.3986328125 85.308984375 42.1 85.1 41.85 84.9 41.6 84.85 41.55 84.85 41.5 84.85 41.4 85.4 41.6 85.85 40.98203125 85.655859375 40.3 85.5 40.2421875 85.5158203125 40.15 85.5 40.110546875 85.697265625 40.1 85.85 38.1865234375 85.0515625 36.05 85.3
M 44.1 85.95
Q 44.08125 85.9126953125 44.05 85.85 44.1662109375 85.930078125 44.25 86 44.15 86 44.1 85.95 Z"/>
</g>

<g id="filmTrunk_0_Layer0_0_FILL">
<path fill="#000000" stroke="none" d="
M 52 22.5
L 52 16 39.5 16 39.5 0 32.5 0 32.5 31.5 24 31.5 24 48.5 0 48.5 0 58 24 58 24 61 4.5 61 4.5 69 24 69 24 103.5 9 103.5 9 122 28 122 28 115 39.5 115 39.5 85 68.5 85 68.5 74.5 39.5 74.5 39.5 22.5 52 22.5 Z"/>
</g>

<g id="filmLeaves_0_Layer0_0_FILL">
<path fill="#01CCCC" stroke="none" d="
M 23 90.5
Q 18 90.5 18 95.5
L 18 102.5
Q 18 107.5 23 107.5
L 72 107.5
Q 77 107.5 77 102.5
L 77 95.5
Q 77 90.5 72 90.5
L 23 90.5
M 68 48.5
Q 68 43.5 63 43.5
L 8.5 43.5
Q 3.5 43.5 3.5 48.5
L 3.5 55.5
Q 3.5 60.5 8.5 60.5
L 63 60.5
Q 68 60.5 68 55.5
L 68 48.5
M 43.5 39
Q 48.5 39 48.5 34
L 48.5 29
Q 48.5 24 43.5 24
L 15.5 24
Q 10.5 24 10.5 29
L 10.5 34
Q 10.5 39 15.5 39
L 43.5 39
M 104.5 53.5
Q 99.5 53.5 99.5 58.5
L 99.5 65
Q 99.5 70 104.5 70
L 139.5 70
Q 144.5 70 144.5 65
L 144.5 58.5
Q 144.5 53.5 139.5 53.5
L 104.5 53.5
M 95 89
Q 90 89 90 94
L 90 99.5
Q 90 104.5 95 104.5
L 138 104.5
Q 143 104.5 143 99.5
L 143 94
Q 143 89 138 89
L 95 89
M 92 84
Q 97 84 97 79
L 97 70.5
Q 97 65.5 92 65.5
L 5 65.5
Q 0 65.5 0 70.5
L 0 79
Q 0 84 5 84
L 92 84
M 97.5 15.95
Q 96.05 14.5 94 14.5
L 56 14.5
Q 53.95 14.5 52.45 15.95 51 17.45 51 19.5
L 51 24
Q 51 26.05 52.45 27.5 53.95 29 56 29
L 94 29
Q 96.05 29 97.5 27.5 99 26.05 99 24
L 99 19.5
Q 99 17.45 97.5 15.95
M 85 1.45
Q 83.55 0 81.5 0
L 65 0
Q 62.95 0 61.45 1.45 60 2.95 60 5
L 60 6.5
Q 60 8.55 61.45 10 62.95 11.5 65 11.5
L 81.5 11.5
Q 83.55 11.5 85 10 86.5 8.55 86.5 6.5
L 86.5 5
Q 86.5 2.95 85 1.45
M 130 48
Q 135 48 135 43
L 135 36.5
Q 135 31.5 130 31.5
L 82 31.5
Q 77 31.5 77 36.5
L 77 43
Q 77 48 82 48
L 130 48 Z"/>
</g>
</defs>

<g id="skinFilm" transform="matrix( 1.5291900634765625, 0, 0, 1.5291900634765625, -5.9,1.2) ">
<g transform="matrix( 1, 0, 0, 1, 0,0) ">
<use xlink:href="#skinFIlm_0_Layer2_0_FILL"/>
</g>

<g transform="matrix( 1, 0, 0, 1, 0,0) ">
<use xlink:href="#skinFIlm_0_Layer1_0_FILL"/>
</g>

<g transform="matrix( 1, 0, 0, 1, 0,0) ">
<use xlink:href="#skinFIlm_0_Layer0_0_FILL"/>
</g>
</g>

<g id="iconFilm" transform="matrix( 1, 0, 0, 1, 10.45,13) ">
<g id="filmTrunk" transform="matrix( 1, 0, 0, 1, 31.55,11.5) ">
<g transform="matrix( 1, 0, 0, 1, 0,0) ">
<use xlink:href="#filmTrunk_0_Layer0_0_FILL"/>
</g>
</g>

<g id="filmLeaves" transform="matrix( 1, 0, 0, 1, -8.45,-11) ">
<g transform="matrix( 1, 0, 0, 1, 0,0) ">
<use xlink:href="#filmLeaves_0_Layer0_0_FILL"/>
</g>
</g>
</g>
</svg>
