
<svg xmlns="http://www.w3.org/2000/svg" version="1.1" xmlns:xlink="http://www.w3.org/1999/xlink" preserveAspectRatio="none" x="0px" y="0px" width="2200px" height="600px" viewBox="0 0 2200 600">
<defs>
<g id="woodblock_0_Layer0_0_FILL">
<path fill="#5D4014" stroke="none" d="
M 202.05 266.1
Q 198.45 266.1 195.05 265.65
L 195.05 317.15 196.1 317.15
Q 200.3 314.8 205.05 312.65
L 205.05 266.05
Q 203.55 266.1 202.05 266.1
M 99.05 269
Q 96.6 269.15 94.05 269.15 91.5 269.15 89.05 269
L 89.05 357.45 89.05 360.15 99.05 360.15 99.05 357.85 99.05 269
M 329.1 253.1
Q 327.65 253.15 326.15 253.15 323.6 253.15 321.1 253
L 321.1 305.1
Q 325.35 305.65 329.1 305.95
L 329.1 286.55 329.1 273.7 329.1 253.1
M 478.15 197.15
Q 473 197 468.15 196.1
L 468.15 215.2 468.15 227.2 468.15 272.15 477.05 272.15
Q 477.6 272.15 478.15 272.1
L 478.15 197.15
M 644.05 166.5
Q 637.6 165.4 632.05 162.15
L 632.05 235.85
Q 638.1 236.8 644.05 237.5
L 644.05 166.5
M 804.75 237.4
L 802.7 237.85
Q 801.9 238 801.35 238.55
L 782.4 256.55 782.2 256.75 675.05 257.75 674.65 257.55 647.65 244.05
Q 647.2 243.8 646.7 243.8 646.3 243.75 645.95 243.75 628.4 241.7 609.95 237.8
L 609.95 237.85
Q 594.25 234.5 582.9 236.05 580.55 236.35 578.4 236.85 568.3 239.2 563.1 245.85 560.45 248.95 555.85 250.2 552.75 251 548.85 251 545.5 251 541.95 250.45
L 540 250.05 538.95 249.8
Q 538 249.6 537.15 250.05 536.25 250.5 535.8 251.35 526.55 269.95 520.25 272.7 520 272.75 519.8 272.85 518.5 273.15 514.15 273.1 511.7 273.1 509.5 273.55 507.2 274.05 505.2 275.05
L 505.15 275.05
Q 504.85 275.2 504.45 275.35 496.4 278.05 449.9 279 421.75 279.55 415.25 279.8 402.55 280.3 397.7 281.3 395.95 281.65 395.2 282.05
L 395.15 282.05
Q 392.35 283.45 389.55 286.5 389.5 286.5 389.45 286.55 386.65 289.8 384.6 291.85 376.15 299.9 358.3 308 355.3 309.35 351.95 310.25 344 312.4 333.9 312.15 322.8 311.9 306.5 308.55
L 306.55 308.6
Q 288.4 304.5 280.6 303 266.65 300.4 259.95 301.8 258.4 302.1 256.9 302.4
L 255.9 302.6
Q 249.8 303.9 244.15 305.35 236.25 307.3 229.15 309.55 220.85 312.05 213.6 314.95 210.9 316.05 208.3 317.15 179.1 329.9 169.95 347.3 164.35 357.2 146.75 361.3 136.45 363.7 122.1 364.15
L 122.05 364.15
Q 111.85 364.45 92.9 363.6 77.35 362.95 74.7 363.9
L 74.65 363.9
Q 68.6 365.6 42.5 363.4 32.95 362.6 24.05 361.65 14.2 361.3 4.5 361.05
L 4.5 366.85
Q 14.2 367.15 24.05 367.5 32.75 368.4 42 369.2 69.9 371.5 76.35 369.45 78.8 368.85 92.65 369.4 111.9 370.25 122.25 369.95 165.6 368.65 175.05 350.05 184.5 332.75 215.75 320.35 234.85 312.75 261.1 307.5 267.1 306.4 279.55 308.7 287.3 310.2 305.3 314.25
L 305.35 314.25
Q 322.2 317.7 333.75 317.95 349.65 318.3 360.7 313.3 379.75 304.7 388.65 296 390.85 293.8 393.85 290.35 395.8 288.25 397.75 287.25 400.25 286.2 415.5 285.6 422 285.35 450 284.8 501.1 283.8 507.75 280.25 510.6 278.85 514.1 278.9 519.75 278.95 521.4 278.45 529.4 276.6 540 255.95
L 540.95 256.15
Q 541 256.15 541.05 256.2 545.1 256.8 548.85 256.8 561.95 256.8 567.6 249.5
L 567.65 249.45
Q 572.8 243.2 583.65 241.8 594.15 240.4 608.75 243.5 627.6 247.45 645.5 249.5
L 673.05 263.25
Q 673.7 263.55 674.4 263.55
L 783.4 262.55
Q 784.5 262.55 785.35 261.75
L 804.8 243.3 838.05 235.5
Q 838.5 235.35 838.9 235.1
L 857.9 223.1 881.95 209.65 904 212.55
Q 904.55 212.6 905.1 212.45
L 923.1 207.7 943.2 216.35
Q 944.3 216.8 945.45 216.35 946.15 216.05 946.6 215.5
L 946.6 211.8
Q 946.15 211.25 945.5 211
L 944.5 210.6 924.5 202
Q 923.85 201.75 923.25 201.75 922.9 201.75 922.6 201.85
L 904.2 206.7 881.75 203.8 881.7 203.8
Q 880.75 203.65 879.95 204.15
L 854.95 218.15
Q 854.85 218.15 854.8 218.2
L 836.35 229.9 836.25 229.95 804.75 237.4 Z"/>

<path fill="#71511F" stroke="none" d="
M 4.5 360.85
L 4.5 361.05
Q 14.2 361.3 24.05 361.65 32.95 362.6 42.5 363.4 68.6 365.6 74.65 363.9
L 74.7 363.9
Q 77.35 362.95 92.9 363.6 111.85 364.45 122.05 364.15
L 122.1 364.15
Q 136.45 363.7 146.75 361.3 136.25 363.55 122.25 363.95 111.9 364.25 92.65 363.4 78.8 362.85 76.35 363.45 69.9 365.5 42 363.2 32.75 362.4 24.05 361.5 14.2 361.15 4.5 360.85
M 548.85 251
Q 552.75 251 555.85 250.2 552.65 250.8 548.85 250.8 545.1 250.8 541.05 250.2 541 250.15 540.95 250.15
L 540 249.95
Q 540 250 540 250.05
L 541.95 250.45
Q 545.5 251 548.85 251
M 519.8 272.85
Q 520 272.75 520.25 272.7 518.25 272.95 514.1 272.9 511.6 272.85 509.5 273.55 511.7 273.1 514.15 273.1 518.5 273.15 519.8 272.85
M 609.95 237.85
L 609.95 237.8
Q 628.4 241.7 645.95 243.75
L 645.5 243.5
Q 627.6 241.45 608.75 237.5 594.15 234.4 583.65 235.8 580.85 236.15 578.4 236.85 580.55 236.35 582.9 236.05 594.25 234.5 609.95 237.85
M 351.95 310.25
Q 343.8 312.15 333.75 311.95 322.2 311.7 305.35 308.25
L 305.3 308.25
Q 287.3 304.2 279.55 302.7 267.1 300.4 261.1 301.5 258.95 301.95 256.9 302.4 258.4 302.1 259.95 301.8 266.65 300.4 280.6 303 288.4 304.5 306.55 308.6
L 306.5 308.55
Q 322.8 311.9 333.9 312.15 344 312.4 351.95 310.25
M 415.25 279.8
Q 421.75 279.55 449.9 279 496.4 278.05 504.45 275.35 492.8 277.95 450 278.8 422 279.35 415.5 279.6 400.25 280.2 397.75 281.25 397.7 281.25 397.7 281.3 402.55 280.3 415.25 279.8
M 923.25 201.75
L 923.1 201.7 905.1 206.45
Q 904.55 206.6 904 206.55
L 881.95 203.65 881.7 203.8 881.75 203.8 904.2 206.7 922.6 201.85
Q 922.9 201.75 923.25 201.75
M 782.2 256.75
L 782.4 256.55 674.65 257.55 675.05 257.75 782.2 256.75
M 784.9 278.6
Q 786 278.6 786.85 277.8
L 806.3 259.35 839.55 251.55
Q 840 251.4 840.4 251.15
L 859.4 239.15 883.45 225.7 905.5 228.6
Q 906.05 228.65 906.6 228.5
L 924.6 223.75 944.7 232.4
Q 945.8 232.85 946.95 232.4 947.65 232.1 948.1 231.55
L 948.1 210.95
Q 948.35 210.6 948.55 210.25 949 209.15 948.55 208.05 948.35 207.6 948.1 207.25 947.65 206.7 947 206.45
L 946.6 206.25 946.6 209.5
Q 946.15 210.05 945.45 210.35 944.95 210.55 944.5 210.6
L 945.5 211
Q 946.15 211.25 946.6 211.8
L 946.6 215.5
Q 946.15 216.05 945.45 216.35 944.3 216.8 943.2 216.35
L 923.1 207.7 905.1 212.45
Q 904.55 212.6 904 212.55
L 881.95 209.65 857.9 223.1 838.9 235.1
Q 838.5 235.35 838.05 235.5
L 804.8 243.3 785.35 261.75
Q 784.5 262.55 783.4 262.55
L 674.4 263.55
Q 673.7 263.55 673.05 263.25
L 645.5 249.5
Q 627.6 247.45 608.75 243.5 594.15 240.4 583.65 241.8 572.8 243.2 567.65 249.45
L 567.6 249.5
Q 561.95 256.8 548.85 256.8 545.1 256.8 541.05 256.2 541 256.15 540.95 256.15
L 540 255.95
Q 529.4 276.6 521.4 278.45 519.75 278.95 514.1 278.9 510.6 278.85 507.75 280.25 501.1 283.8 450 284.8 422 285.35 415.5 285.6 400.25 286.2 397.75 287.25 395.8 288.25 393.85 290.35 390.85 293.8 388.65 296 379.75 304.7 360.7 313.3 349.65 318.3 333.75 317.95 322.2 317.7 305.35 314.25
L 305.3 314.25
Q 287.3 310.2 279.55 308.7 267.1 306.4 261.1 307.5 234.85 312.75 215.75 320.35 184.5 332.75 175.05 350.05 165.6 368.65 122.25 369.95 111.9 370.25 92.65 369.4 78.8 368.85 76.35 369.45 69.9 371.5 42 369.2 32.75 368.4 24.05 367.5 14.2 367.15 4.5 366.85
L 4.5 382.75
Q 14.15 383.05 24.05 383.35 33.45 384.4 43.5 385.25 71.4 387.55 77.85 385.5 80.3 384.9 94.15 385.45 113.4 386.3 123.75 386 167.1 384.7 176.55 366.1 186 348.8 217.25 336.4 236.35 328.8 262.6 323.55 268.6 322.45 281.05 324.75 288.8 326.25 306.8 330.3
L 306.85 330.3
Q 323.7 333.75 335.25 334 351.15 334.35 362.2 329.35 381.25 320.75 390.15 312.05 392.35 309.85 395.35 306.4 397.3 304.3 399.25 303.3 401.75 302.25 417 301.65 423.5 301.4 451.5 300.85 502.6 299.85 509.25 296.3 512.1 294.9 515.6 294.95 521.25 295 522.9 294.5 530.9 292.65 541.5 272
L 542.45 272.2
Q 542.5 272.2 542.55 272.25 546.55 272.85 550.35 272.85 563.45 272.85 569.1 265.55
L 569.15 265.5
Q 574.3 259.25 585.15 257.85 595.65 256.45 610.25 259.55 629.1 263.5 647 265.55
L 674.55 279.3
Q 675.2 279.6 675.9 279.6
L 784.9 278.6
M 804.8 237.3
L 804.75 237.4 836.25 229.95 836.35 229.9 804.8 237.3 Z"/>

<path fill="#5D4013" stroke="none" d="
M 329.1 273.7
L 329.1 286.55 345.1 276.4 345.1 265.95 329.1 273.7
M 468.15 227.2
L 468.15 215.2 452.1 199.15 452.1 211.15 468.15 227.2
M 606.05 163.1
Q 604.6 163.15 603.1 163.15 601.05 163.15 599.05 163
L 599.05 230.05
Q 602.45 230.45 606.05 231.1
L 606.05 163.1
M 717.1 151.05
Q 711.4 150.85 706.1 149.8 705.65 150.85 705.1 151.85
L 705.1 251.5 717.1 251.35 717.1 151.05
M 863.1 143.05
Q 859.55 142.85 856.1 142.4
L 856.1 211.5 863.1 207.6 863.1 143.05 Z"/>

<path fill="#5B2F21" stroke="none" d="
M 924.5 196
Q 923.55 195.6 922.6 195.85
L 904.2 200.7 881.75 197.8
Q 880.75 197.65 879.95 198.15
L 863.1 207.6 856.1 211.5 854.95 212.15
Q 854.85 212.15 854.8 212.2
L 836.25 223.95 802.7 231.85
Q 801.9 232 801.35 232.55
L 782.2 250.75 717.1 251.35 705.1 251.5 675.05 251.75 647.65 238.05
Q 647.2 237.8 646.7 237.8 645.4 237.65 644.05 237.5 638.1 236.8 632.05 235.85 621.15 234.2 609.95 231.8
L 609.95 231.85
Q 607.95 231.45 606.05 231.1 602.45 230.45 599.05 230.05 590.1 229.05 582.9 230.05 569.4 231.8 563.1 239.85 558.7 245 548.85 245 545.5 245 541.95 244.45
L 538.95 243.8
Q 538 243.6 537.15 244.05 536.25 244.5 535.8 245.35 526.2 264.6 519.8 266.85 518.5 267.15 514.15 267.1 509.2 267.05 505.2 269.05
L 505.15 269.05
Q 500.95 271 478.15 272.1 477.6 272.15 477.05 272.15 472.9 272.35 468.15 272.5 459.9 272.8 449.9 273 421.75 273.55 415.25 273.8 397.95 274.5 395.2 276.05
L 395.15 276.05
Q 392.35 277.45 389.55 280.5 389.5 280.5 389.45 280.55 386.65 283.8 384.6 285.85 376.15 293.9 358.3 302 348.25 306.5 333.9 306.15 331.6 306.1 329.1 305.95 325.35 305.65 321.1 305.1 314.4 304.2 306.5 302.55
L 306.55 302.6
Q 288.4 298.5 280.6 297 266.65 294.4 259.95 295.8 233.15 301.15 213.6 308.95 209.1 310.75 205.05 312.65 200.3 314.8 196.1 317.15 195.6 317.45 195.05 317.75 176.85 328.2 169.95 341.3 161.05 356.95 122.1 358.15
L 122.05 358.15
Q 113.55 358.4 99.05 357.85
L 99.05 360.15 89.05 360.15 89.05 357.45
Q 77 357.05 74.7 357.9
L 74.65 357.9
Q 68.6 359.6 42.5 357.4 32.95 356.6 24.05 355.65 14.2 355.3 4.5 355.05
L 4.5 360.85
Q 14.2 361.15 24.05 361.5 32.75 362.4 42 363.2 69.9 365.5 76.35 363.45 78.8 362.85 92.65 363.4 111.9 364.25 122.25 363.95 136.25 363.55 146.75 361.3 164.35 357.2 169.95 347.3 179.1 329.9 208.3 317.15 210.9 316.05 213.6 314.95 220.85 312.05 229.15 309.55 236.25 307.3 244.15 305.35 249.8 303.9 255.9 302.6
L 256.9 302.4
Q 258.95 301.95 261.1 301.5 267.1 300.4 279.55 302.7 287.3 304.2 305.3 308.25
L 305.35 308.25
Q 322.2 311.7 333.75 311.95 343.8 312.15 351.95 310.25 355.3 309.35 358.3 308 376.15 299.9 384.6 291.85 386.65 289.8 389.45 286.55 389.5 286.5 389.55 286.5 392.35 283.45 395.15 282.05
L 395.2 282.05
Q 395.95 281.65 397.7 281.3 397.7 281.25 397.75 281.25 400.25 280.2 415.5 279.6 422 279.35 450 278.8 492.8 277.95 504.45 275.35 504.85 275.2 505.15 275.05
L 505.2 275.05
Q 507.2 274.05 509.5 273.55 511.6 272.85 514.1 272.9 518.25 272.95 520.25 272.7 526.55 269.95 535.8 251.35 536.25 250.5 537.15 250.05 538 249.6 538.95 249.8
L 540 250.05
Q 540 250 540 249.95
L 540.95 250.15
Q 541 250.15 541.05 250.2 545.1 250.8 548.85 250.8 552.65 250.8 555.85 250.2 560.45 248.95 563.1 245.85 568.3 239.2 578.4 236.85 580.85 236.15 583.65 235.8 594.15 234.4 608.75 237.5 627.6 241.45 645.5 243.5
L 645.95 243.75
Q 646.3 243.75 646.7 243.8 647.2 243.8 647.65 244.05
L 674.65 257.55 782.4 256.55 801.35 238.55
Q 801.9 238 802.7 237.85
L 804.75 237.4 804.8 237.3 836.35 229.9 854.8 218.2
Q 854.85 218.15 854.95 218.15
L 879.95 204.15
Q 880.75 203.65 881.7 203.8
L 881.95 203.65 904 206.55
Q 904.55 206.6 905.1 206.45
L 923.1 201.7 923.25 201.75
Q 923.85 201.75 924.5 202
L 944.5 210.6
Q 944.95 210.55 945.45 210.35 946.15 210.05 946.6 209.5
L 946.6 206.25 946.6 205.8
Q 946.15 205.25 945.5 205
L 924.5 196 Z"/>

<path fill="#798D44" stroke="none" d="
M 938.2 71.55
Q 938.2 41.9 917.25 20.95 896.3 0 866.65 0 837 0 816.05 20.95 795.1 41.9 795.1 71.55 795.1 74.9 795.4 78.1 791.45 78.15 787.95 79.15 786.65 53.55 768.1 35 748.2 15.1 720.05 15.1 691.9 15.1 671.95 35 664.65 42.3 660.05 50.75 659 49.5 657.8 48.3 648.6 39.1 635.55 39.1 622.5 39.1 613.25 48.3 605.3 56.25 604.25 67.05 603.65 67.05 603.1 67.05 590.05 67.05 579.55 73.1 577.5 60.15 567.75 50.4 555.45 38.1 538.1 38.1 520.75 38.1 508.45 50.4 497.25 61.6 496.25 77.05 488.6 75.05 480.15 75.05 459.5 75.05 443.8 86.95 436 83.05 426.65 83.05 410.7 83.05 399.4 94.35 388.1 105.65 388.1 121.6 388.1 125.35 388.75 128.9 384.85 128.05 380.65 128.05 367.85 128.05 358.25 135.7 344 127.05 326.15 127.05 300.05 127.05 281.55 145.5 273 154.1 268.4 164.35 255.85 165.45 246.6 174.7 242.5 178.8 240 183.55 238.75 182.1 237.4 180.75 222.75 166.1 202.05 166.1 181.35 166.1 166.7 180.75 163.4 184.05 160.9 187.65 157.15 167.95 142.15 152.95 122.25 133.05 94.05 133.05 66.55 133.05 46.9 152 42.1 150.05 36.55 150.05 25.15 150.05 17.05 158.1 9 166.2 9 177.6 9 189 17.05 197.05 17.3 197.3 17.5 197.5 14.3 199.65 11.4 202.55 0 214 0 230.15 0 246.3 11.4 257.7 22.85 269.15 39 269.15 52.2 269.15 62.25 261.5 74.5 268.05 89.05 269 91.5 269.15 94.05 269.15 96.6 269.15 99.05 269 105.05 268.6 110.65 267.3 110.95 267.6 111.25 267.9 120.5 277.15 133.55 277.15 146.6 277.15 155.8 267.9 163.65 260.1 164.85 249.5 165.75 250.5 166.7 251.45 178.8 263.55 195.05 265.65 198.45 266.1 202.05 266.1 203.55 266.1 205.05 266.05 223.8 265.05 237.4 251.45 247.25 241.6 250.5 229 259.8 236.15 272.05 236.15 277.2 236.15 281.8 234.9 298.4 251.35 321.1 253 323.6 253.15 326.15 253.15 327.65 253.15 329.1 253.1 353.3 252.1 370.7 234.65 385.45 219.95 388.45 200.4 398.65 198.3 406.5 190.45 417.2 179.75 417.2 164.6 417.2 161.7 416.8 159 420.15 159.8 423.8 160.05 428.25 170.55 436.95 179.25 450.45 192.75 468.15 196.1 473 197 478.15 197.15 479.15 197.15 480.15 197.15 492.2 197.15 502.6 193.1 510.4 200.1 521.15 200.1 532.75 200.1 540.9 191.9 549.05 183.7 549.05 172.1 549.05 168.45 548.25 165.1 549.15 165.15 550.1 165.15 562.55 165.15 571.35 156.35 572.8 154.9 574 153.4 580.85 158.75 588.95 161.15 593.75 162.6 599.05 163 601.05 163.15 603.1 163.15 604.6 163.15 606.05 163.1 613.5 162.65 620.05 160.2 623.05 159.1 625.85 157.55 628.8 160.2 632.05 162.15 637.6 165.4 644.05 166.5 647.45 167.1 651.05 167.1 666.8 167.1 677.9 155.95 678.5 155.35 679.1 154.75 679.35 155.05 679.7 155.4 684.4 160.1 691.05 160.1 697.7 160.1 702.35 155.4 704 153.75 705.1 151.85 705.65 150.85 706.1 149.8 711.4 150.85 717.1 151.05 718.55 151.1 720.05 151.1 748.2 151.1 768.1 131.15 772.4 126.85 775.75 122.2 776.3 122.8 776.85 123.35 784.6 131.1 795.6 131.1 806.6 131.1 814.35 123.35 815.1 122.6 815.75 121.85 815.9 122 816.05 122.15 833.15 139.25 856.1 142.4 859.55 142.85 863.1 143.05 864.85 143.1 866.65 143.1 896.3 143.1 917.25 122.15 938.2 101.2 938.2 71.55 Z"/>
</g>

<g id="campfire_0_Layer1_0_FILL">
<path fill="#333333" stroke="none" d="
M 33 79.85
L 33 80.35 41.5 80.35 41.5 71.95 33 71.95 33 74.85 33 79.85
M 8 71.95
L 0 71.95 0 79.85 8 79.85 8 74.85 8 71.95 Z"/>

<path fill="#5B2F21" stroke="none" d="
M 22 79.85
L 33 79.85 33 74.85 22 74.85 22 79.85
M 8 79.85
L 20 79.85 20 74.85 8 74.85 8 79.85 Z"/>

<path fill="#009999" stroke="none" d="
M 78.45 10.35
Q 78.45 8.3 80.5 6.35
L 79.45 5.45
Q 77.95 7 76.5 9.05 73.6 13.15 71.25 18.65 70.5 20.5 69.95 22
L 69.95 22.05
Q 69.7 22.75 69.5 23.35
L 71.5 57.35
Q 71.35 57.5 75.45 57.85 74.45 46.85 74.45 43.6 74.45 37.9 76.45 34.35 78 31.55 79.7 31.4 79.8 31.35 79.95 31.35 80.25 31.35 80.55 31.4
L 81.5 23.3
Q 80.55 23.2 79.4 23
L 80.9 13.1
Q 80.05 12.85 79.45 12.35 78.45 11.5 78.45 10.35
M 101.3 17.65
L 101.45 17.65 101.45 17.55
Q 101.35 17.55 101.3 17.65 Z"/>

<path fill="#007171" stroke="none" d="
M 86.7 35.55
Q 85.2 32.2 81.8 31.55 81.2 31.4 80.55 31.4 80.25 31.35 79.95 31.35 79.8 31.35 79.7 31.4 78 31.55 76.45 34.35 74.45 37.9 74.45 43.6 74.45 46.85 75.45 57.85 79.25 58.1 86.8 58.55 89.1 58.7 91.45 58.8
L 91.45 58.35
Q 89.7 54.6 88.45 44.35 87.65 37.65 86.7 35.55
M 101.45 17.55
L 101.45 17.65 101.45 17.85
Q 110.95 21.75 119.55 32.25 122.45 35.75 124.5 38.9
L 116 18.85
Q 115.75 17 113.25 13.9 112.5 13 111.65 12.1 107.6 13.45 104.55 15.35 104.15 15.55 101.45 17.55 Z"/>

<path fill="#018989" stroke="none" d="
M 101.45 11.35
L 101.45 8.35
Q 100.6 7.45 95.25 5.55 93.95 5.1 92.85 4.7 91.7 4.3 90.75 4 89.25 3.85 87.7 3.85 83.15 3.85 80.5 6.35 78.45 8.3 78.45 10.35 78.45 11.5 79.45 12.35 80.05 12.85 80.9 13.1 81.7 13.35 82.7 13.35 84.65 13.35 91.3 12.35 97.75 11.4 101.25 11.35 101.35 11.35 101.45 11.35 Z"/>

<path fill="#189191" stroke="none" d="
M 125.55 41.45
L 124.5 38.9
Q 122.45 35.75 119.55 32.25 110.95 21.75 101.45 17.85
L 101.45 17.65 101.3 17.65
Q 101.35 17.55 101.45 17.55 104.15 15.55 104.55 15.35 107.6 13.45 111.65 12.1 106.6 6.9 97 1.85 87.55 -3.15 79.55 5.35 79.5 5.35 79.45 5.45
L 80.5 6.35
Q 83.15 3.85 87.7 3.85 89.25 3.85 90.75 4 91.7 4.3 92.85 4.7 93.95 5.1 95.25 5.55 100.6 7.45 101.45 8.35
L 101.45 11.35
Q 101.35 11.35 101.25 11.35 97.75 11.4 91.3 12.35 84.65 13.35 82.7 13.35 81.7 13.35 80.9 13.1
L 79.4 23
Q 80.55 23.2 81.5 23.3
L 80.55 31.4
Q 81.2 31.4 81.8 31.55 85.2 32.2 86.7 35.55 87.65 37.65 88.45 44.35 89.7 54.6 91.45 58.35
L 91.45 58.8
Q 95.7 59.05 100 59.25
L 125.55 41.45 Z"/>
</g>

<g id="fire_0_Layer0_0_FILL">
<path fill="#333333" stroke="none" d="
M 8 65.5
L 0 65.5 0 69.1 8 69.1 8 65.5
M 33 65.5
L 33 69.1 41.5 69.1 41.5 65.5 33 65.5
M 12 17
L 6 17 6 27 12 27 12 17
M 19.5 12.5
L 15.5 12.5 15.5 20 19.5 20 19.5 12.5 Z"/>

<path fill="#FF3300" stroke="none" d="
M 8.5 59
L 4.5 59 4.5 62.5 8.5 62.5 8.5 59
M 22 68
L 22 62 20 62 20 68 22 68
M 25 51.5
L 25 58 28 58 28 51.5 25 51.5
M 26 28.5
L 22.5 28.5 22.5 36 26 36 26 28.5
M 12.5 34
L 8.5 34 8.5 39.5 12.5 39.5 12.5 34
M 13.5 51.5
L 13.5 51 9.5 51 9.5 56 13.5 56 13.5 51.5
M 9 48.5
L 5.5 48.5 5.5 53.5 9 53.5 9 48.5 Z"/>

<path fill="#FF0000" stroke="none" d="
M 17 59.5
L 14 59.5 14 64.5 17 64.5 17 59.5
M 21.5 49
L 17.5 49 17.5 57.5 21.5 57.5 21.5 49
M 24 46
L 26.5 46 26.5 40 24 40 24 46
M 14 51
L 13.5 51 13.5 51.5 14 51.5 14 51
M 14.5 29
L 14 29 14 41 11.5 41 11.5 47.5 14 47.5 14 44 14.5 44 14.5 47.5 15.5 47.5 15.5 44 18 44 18 34.5 14.5 34.5 14.5 29 Z"/>

<path fill="#666666" stroke="none" d="
M 30.5 37
L 30.5 34 28.5 34 28.5 37 30.5 37
M 8 34.5
L 8 31.5 6 31.5 6 34.5 8 34.5
M 13.5 6
L 9.5 6 9.5 12.5 13.5 12.5 13.5 6
M 19 0
L 15.5 0 15.5 6 19 6 19 0
M 24 8.5
L 21.5 8.5 21.5 13.5 24 13.5 24 8.5
M 28.5 15
L 23.5 15 23.5 23.5 28.5 23.5 28.5 15 Z"/>

<path fill="#CC0000" stroke="none" d="
M 19 39
L 19 45.5 23 45.5 23 39 19 39
M 14.5 48
L 13.5 48 13.5 51 14 51 14.5 51 14.5 48
M 14.5 26
L 14.5 29 14.5 34.5 18 34.5 19.5 34.5 19.5 26 14.5 26 Z"/>
</g>

<g id="hiker_mc_0_Layer0_0_FILL">
<path fill="#432715" stroke="none" d="
M 9.95 20.25
L 9.95 21 9.95 26.5 15.95 26.5 17.2 26.5 17.2 24.25 17.2 20.25 9.95 20.25
M 15.2 -1.5
L 9.45 -1.5 9.45 1 6.2 1 6.2 5.75 9.2 5.75 10.45 5.75 10.45 8 14.2 8 14.2 5.75 15.45 5.75 18.2 5.75 18.2 1 15.2 1 15.2 -1.5 Z"/>

<path fill="#5B2F21" stroke="none" d="
M 4.95 24
L 4.95 24.25 7.95 24.25 7.95 36.5 15.95 36.5 15.95 26.5 9.95 26.5 9.95 21 8.2 21 8.2 24 4.95 24
M 9.2 10.5
L 8.7 10.5 8.2 10.5 8.2 11.75 9.2 11.75 9.2 10.5
M 15.45 10.5
L 15.45 11.75 15.45 13.5 8.2 13.5 8.2 19.5 9.95 19.5 9.95 20.25 17.2 20.25 17.2 24.25 18.7 24.25 18.7 10.5 15.45 10.5 Z"/>

<path fill="#006666" stroke="none" d="
M 8.2 10.5
L 8.2 8.75 0.95 8.75 0.95 24 4.95 24 8.2 24 8.2 21 9.95 21 9.95 20.25 9.95 19.5 8.2 19.5 8.2 13.5 15.45 13.5 15.45 11.75 9.2 11.75 8.2 11.75 8.2 10.5 Z"/>

<path fill="#CCCCCC" stroke="none" d="
M 9.2 10.2
Q 8.945703125 10.3421875 8.7 10.5
L 9.2 10.5 9.2 10.2 Z"/>

<path fill="#E1B5DF" stroke="none" d="
M 14.2 8
L 10.45 8 10.45 5.75 9.2 5.75 9.2 10.2 9.2 10.5 9.2 11.75 15.45 11.75 15.45 10.5 15.45 5.75 14.2 5.75 14.2 8 Z"/>
</g>

<path id="path_0_Layer0_0_1_STROKES" stroke="#2F1A0D" stroke-width="5.8" stroke-linejoin="round" stroke-linecap="round" fill="none" d="
M 0 159
Q 12.25 160.5 25.75 161.65 52.75 163.9 59 162 61.55 161.25 76.25 161.85 95.4 162.7 105.65 162.4 146.8 161.15 156 144 165.7 125.9 198.15 113 217.5 105.3 244 100 250.35 98.75 263.55 101.2 271.35 102.7 289.4 106.75 306 110.15 317.3 110.4 332.45 110.75 343 106 361.45 97.65 370.1 89.25 372.25 87.15 375.15 83.8 377.55 81.2 379.95 80 382.6 78.7 398.85 78.05 405.35 77.8 433.45 77.25 483.45 76.25 489.95 73 493.4 71.3 497.6 71.35 502.65 71.4 504.1 71 511.5 68.9 521.95 48
L 525.05 48.65
Q 528.85 49.25 532.45 49.25 543.95 49.25 548.95 43 554.7 35.85 566.85 34.25 577.8 32.8 592.95 36 611.95 40 629.95 42
L 657.95 56 766.95 55 786.95 36 820.95 28 839.95 16 864.95 2 887.95 5 906.95 0 927.95 9"/>

<path id="fire_0_Layer0_0_1_STROKES" stroke="#2F1A0D" stroke-width="1" stroke-linejoin="round" stroke-linecap="round" fill="none" d="
M 14 51
L 14 51.5 13.5 51.5"/>
</defs>

<g id="camp" transform="matrix( 1, 0, 0, 1, 0,0) ">
<g id="bg" transform="matrix( 1, 0, 0, 1, 0,0) ">
<g id="path" transform="matrix( 1, 0, 0, 1, 11,272.05) ">
<g transform="matrix( 1, 0, 0, 1, 0,0) ">
<use xlink:href="#path_0_Layer0_0_1_STROKES"/>
</g>
</g>

<g id="woods" transform="matrix( 1, 0, 0, 1, -6,73) ">
<g transform="matrix( 1, 0, 0, 1, 0,0) ">
<g transform="matrix( 1, 0, 0, 1, 0,0) ">
<use xlink:href="#woodblock_0_Layer0_0_FILL"/>
</g>
</g>

<g transform="matrix( 1, 0, 0, 1, 939,-151.2) ">
<g transform="matrix( 1, 0, 0, 1, 0,0) ">
<use xlink:href="#woodblock_0_Layer0_0_FILL"/>
</g>
</g>

<g id="campfire" transform="matrix( 1, 0, 0, 1, 730.45,176.15) ">
<g transform="matrix( 1, 0, 0, 1, 0,0) ">
<use xlink:href="#campfire_0_Layer1_0_FILL"/>
</g>

<g id="fire" transform="matrix( 1, 0, 0, 1, 0,2.85) ">
<g transform="matrix( 1, 0, 0, 1, 0,0) ">
<use xlink:href="#fire_0_Layer0_0_FILL"/>

<use xlink:href="#fire_0_Layer0_0_1_STROKES"/>
</g>
</g>
</g>
</g>
</g>

<g id="hiker" transform="matrix( 1, 0, 0, 1, 0,393.1) ">
<g transform="matrix( 1, 0, 0, 1, 0,0) ">
<use xlink:href="#hiker_mc_0_Layer0_0_FILL"/>
</g>
</g>
</g>
</svg>
