
<svg xmlns="http://www.w3.org/2000/svg" version="1.1" xmlns:xlink="http://www.w3.org/1999/xlink" preserveAspectRatio="none" x="0px" y="0px" width="1000px" height="600px" viewBox="0 0 1000 600">
<defs>
<filter id="Filter_1" x="-20%" y="-20%" width="140%" height="140%" color-interpolation-filters="sRGB">
<feColorMatrix in="SourceGraphic" type="matrix" values="1 0 0 0 0 0 1 0 0 0 0 0 1 0 0 0 0 0 0 0" result="result1"/>
</filter>

<g id="dom_tree_3_0_Layer4_0_FILL">
<path fill="#000000" fill-opacity="0.12941176470588237" stroke="none" d="
M 58 138
Q 62.4 138 74.15 136.7 84.9 135.5 87 135 90.8 134.15 100.85 134 109 133.1 109 128 109 126.65 107.5 124 106 121.35 106 118 110.6 116.85 117.2 117.05 120.85 117.15 127.15 117.45 132.05 117.35 134.3 115.45 137 113.2 137 107.5 137 105.534765625 136 104.3 117.8849609375 104.436328125 105.75 101.8 98.2 99.95 94 99.25 86.85 98 78 98 67.6 98 60 101.15 53.25 104.9 51 106 51.45 107.1 53.45 109.55 54.7 111.05 55 115 46.4 115.3 39.1 117.2 29 119.9 29 124.5 29 127.9 40.05 133 50.95 138 58 138 Z"/>
</g>

<g id="dom_tree_3_0_Layer3_0_FILL">
<path fill="#003300" stroke="none" d="
M 89.05 121.4
L 88.4 121.5
Q 90.4435546875 122 91.85 122 91.9 122 93.2 121.35 94.8 120.8 96.6 121.5
L 96.75 121.5 96.7 121.45
Q 95.172265625 120.75 94.5 120.75 93.45 120.75 89.05 121.4
M 81.65 118.6
Q 81.5458984375 118.7294921875 81.4 118.85 79.9 120.15 79.65 120.75 80.6185546875 120.75 82.7 120.65 82.1353515625 119.530078125 81.65 118.6
M 99.25 100.8
Q 98.1787109375 100.885546875 98 101.1 97.4779296875 101.903125 95.4 102.85 95.169921875 104.653515625 93.85 106.7 93.2724609375 107.5443359375 92.85 108.4 92.2828125 109.55 92.1 110.45 92.1861328125 110.2498046875 92.25 110.05 92.66796875 109.248046875 93.25 108.35
L 95 105.65
Q 95 105.555859375 95 105.45 94.9904296875 105.3064453125 94.95 105.15 95.4810546875 103.7861328125 97.25 103.1 97.5001953125 103.039453125 97.7 102.95 98.153515625 101.5283203125 99.3 100.8
L 99.25 100.8
M 91.25 92.25
Q 91.496875 92.0927734375 92.15 91.85 92.0669921875 91.357421875 92 90.9 91.9595703125 90.6001953125 91.9 90.3 91.718359375 89.7576171875 91.55 89.5 91.0734375 90.5138671875 90.75 91.1 91.0078125 91.7658203125 91.25 92.25 Z"/>

<path fill="#094032" stroke="none" d="
M 84 73.75
L 81.25 73.75
Q 80.4 74.6 80.25 74.9 80 75.35 80 76.35 80 80.35 81.1 81.9 81.7294921875 82.8685546875 83.6 84.15 87 88.4638671875 87 91.75 87 92.45 86.4 93.15 86.2513671875 93.321484375 86.1 93.45 85.75 93.980078125 85.75 94.25 85.75 95.05 86.15 96 86.4599609375 96.8857421875 86.5 97.55 86.5 97.6642578125 86.5 97.75 86.5 98.65 85.65 99.35 84.75 100.05 84.75 101 84.75 101.3 85 102.05 85.25 102.8 85.25 103.1 85.25 103.30546875 84.5 103.95 83.786328125 104.6298828125 82.4 105.7 81.294140625 106.5580078125 80.6 107.5 79.5 109.1130859375 79.5 111 79.5 114 79.75 114.7 79.826171875 114.9283203125 81.65 118.6 82.1353515625 119.530078125 82.7 120.65 82.852734375 120.9576171875 83 121.25 83.4 121.5 83.65 121.8 83.9 122 84.9 122
L 88.4 121.5 89.05 121.4
Q 93.45 120.75 94.5 120.75 95.172265625 120.75 96.7 121.45 97.1296875 121.6595703125 97.6 121.9 99.8 123 101.5 123 103 123 103.25 122.75 103.05 121.25 99.65 120.3 95.45 119.05 94.5 118.25 93.75 117.6 92.8 114.55 92.12421875 112.3537109375 92 111.5 92 111.3587890625 92 111.25 92 110.8755859375 92.1 110.45 92.2828125 109.55 92.85 108.4 93.2724609375 107.5443359375 93.85 106.7 95.169921875 104.653515625 95.4 102.85 97.4779296875 101.903125 98 101.1 98.1787109375 100.885546875 99.25 100.8 100.0484375 99.7166015625 100.65 98.1 101.3 96.45 103.5 94.75 105.55 93.2 105.8 91.35 106.2 88.35 106.25 88.25
L 106.25 85.75
Q 106.7337890625 84.1533203125 106.75 81.65 106.406640625 81.048046875 104.9 78.35 104.39921875 77.4208984375 103.75 76.25
L 100.75 76.25
Q 102.15 78.9 102.4 80.85 102.47578125 81.41875 102.5 84 102.603125 84.373828125 102.5 84.7 102.20390625 85.73359375 100.2 86.55 97.1 87.75 96.75 88.75 96 90.8 94.4 91.2 92.9673828125 91.5857421875 92.15 91.85 91.496875 92.0927734375 91.25 92.25 91.0078125 91.7658203125 90.75 91.1 90.584765625 90.516015625 90.4 89.8 90 88.25 89.5 87.25 87.95 87.3 86.55 84.4 86.3833984375 84.0669921875 86.2 83.75 84.55 80.1 84.15 77.6 84 76.65 84 73.75
M 93 96.85
Q 93 94.3 94.45 93.8 96.55 93.1 97.75 90.75 98.1 90.1 101.35 88.15 102.13125 87.68828125 102.5 87 102.487890625 88.7068359375 102.45 89.2 102.257421875 91.3654296875 101.55 92.85 96.59296875 97.3580078125 94.75 99.95 94.5546875 99.642578125 94.25 99.35 93 98.15 93 96.85
M 82.15 108.65
Q 82.6236328125 107.82421875 83.5 108.25 83.6203125 108.3119140625 83.7 108.35 84.8326171875 109.03046875 85.1 110.1 85.25 110.528515625 85.25 111 85.25 111.9 84.75 112.75 84.15 113.75 83.25 113.75 82.3 113.75 82 113.25 81.8333984375 112.9501953125 81.75 112.25 81.77890625 112.2009765625 81.75 112.1 81.7517578125 111.8630859375 81.75 111.55 81.75 111.5251953125 81.75 111.5 81.75 109.4533203125 82.15 108.65 Z"/>

<path fill="#105710" stroke="none" d="
M 85.1 110.1
Q 85.05 110.55 84.9 111 84.35 112.55 83.35 112.55 82.2962890625 112.55 81.75 112.25 81.8333984375 112.9501953125 82 113.25 82.3 113.75 83.25 113.75 84.15 113.75 84.75 112.75 85.25 111.9 85.25 111 85.25 110.528515625 85.1 110.1 Z"/>

<path fill="#011101" stroke="none" d="
M 83.5 108.25
Q 82.6236328125 107.82421875 82.15 108.65 81.75 109.4533203125 81.75 111.5 81.75 111.5251953125 81.75 111.55 81.7517578125 111.8630859375 81.75 112.1 81.77890625 112.2009765625 81.75 112.25 82.2962890625 112.55 83.35 112.55 84.35 112.55 84.9 111 85.05 110.55 85.1 110.1 84.8326171875 109.03046875 83.7 108.35 83.6203125 108.3119140625 83.5 108.25 Z"/>
</g>

<g id="dom_tree_3_0_Layer2_0_FILL">
<path fill="#43C3A2" stroke="none" d="
M 125.6 48.5
Q 125 47.35 121.5 48 121.8 46.55 121.8 46.2 121.6 44.75 119.5 44.75 119.05 44.75 117.55 45.25 116.05 45.75 115.75 45.75 115.55 44.5 115.45 44.35 115.35 44.25 114.4 44.25 112.65 45.25 111.25 45.25 111.05 44.5 110.9 44.4 110.75 44.25 109.15 44.25 108 44.25 107.05 44.65 106.3 44.95 104.75 46 103.8 44.75 102.15 44.75 100.85 44.75 100.65 44.85 100.4189453125 44.988671875 99 46.5 98.9720703125 45.8349609375 98.9 45.15 98.75 44.4 98.75 44.25 98.55 44.25 95.6 43.15 92.7 42 91.5 42
L 91.5 42.75
Q 91.5 43 91.25 43 91.2 40.75 89.8 40.2 89.35 40 87.5 40 85.75 40 85.45 40.1 84.7 40.35 84.5 41.5 84.15 41.5 82.45 40.75
L 80.75 40
Q 80.35 40 79.9 40.45 79.4 41 79.25 41.75 76.7 41.4 75.5 41.35 73.5 41.3 74 43.25
L 71 43.25
Q 71 43.75 70.75 45.25
L 67.75 45.25 67.75 47 66.5 47
Q 65 46.5 64.75 46.5
L 64.75 48.5 61 48.5 61 50.75 61.5 50.75
Q 60 51.05 60 52.75 60 53.5 60.5 54 58.55 55.3 58.1 55.75 57.5 56.4 57.5 57.5 57.5 57.8 57.75 58.3 58 58.75 58 59 56 59.6 56 61.25 56 61.55 56.15 61.75 56.3 62 57 62.5 56 63.35 55.75 63.6 55.25 64.2 55.25 64.85 55.25 65.5 55.75 66 56.25 66.45 56.25 67 56.25 68.55 57.75 69 57.75 69.6 57.4 70.25 57 70.9 57 71.25 57 71.65 57.1 71.7 57.2 71.8 57.5 72 57.05 72.45 56.75 73.5 57.25 73.5 58.5 73.75 57.75 75 57.75 75.5 57.75 75.5470703125 59.25 77.25 59 79.35 59.4 79.5 59.75 79.65 59.75 80.1 59.75 80.75 59.7 80.75 59.4 80.7 59 81 59.65 82.15 60.5 82.6 61.3 83 61.75 82.5 61.75 83.9 62.25 84.75 62.75 84.8 63.25 84.25 63.7 83.75 64.5 84 64.512109375 84.12890625 64.5 84.25 64.649609375 85.0150390625 65.15 85.4 65.7 85.75 68 86.75 67.9 88.6 68.25 89.05 68.75 89.75 71 90 71.05 91.65 72 92.1 72.3 92.25 73.5 92.25 74.15 92.25 76.25 91.75 76.8 91.75 77.25 92.4 77.7 93 78.5 93 79.35 93 79.55 92.95 79.8826171875 92.8548828125 81.55 92.05 82.0056640625 92.243359375 82.65 92.45 82.85390625 92.3 83 92.3 83.65 92.3 84.4 92.8 85.15 93.25 85.65 93.25 85.7 93.25 87.15 91.6 88.6 89.95 88.9 89.85 89.7068359375 89.61015625 90.2 88.9 90.5966796875 89.2591796875 91.3 89.9 92.5837890625 90.9982421875 94.8 92.9 95.153125 93.2025390625 95.5 93.5
L 97.75 93.5 99.25 92.4
Q 101 94.35 101.45 94.75 103.4 96.5 105.25 96.5 106.85 96.5 108 95.45 108.378125 95.103515625 108.7 94.75 109.9228515625 95.5 110 95.5 110.3 95.5 110.4 95.45 110.6 95.25 110.75 94.5 113.45 95.75 113.9 95.75 114.8 95.75 115.8 94.9 116.3 94.45 116.75 94 117.4 94 120.25 94.5 122.35 94.5 123.2 93.4 124.7 91.45 125 91.25 126.3 90.3 126.4 89 126.25 87.5 126.25 86.85 126.25 86.55 127.9 85.05 129.5 83.5 129.5 82.5 129.5 82.1 129.4 81.75
L 129.25 81.5
Q 129 81.5 128.75 81 128.6 81 128.5 81.35 128.45 81.55 128.25 82.25 128 80.3 127.55 78.65 127.2486328125 77.528515625 126.8 76.75 128.5 76.7068359375 128.5 75 128.5 74.693359375 128.45 74.5 129.587890625 74.75 130.25 74.75 133.5 74.75 133.5 73.25 133.5 72.75 133 71.25 134.05 71.2 134.7 70.25 135.25 69.5 135.25 68.75 135.25 68.1 134.5 67.35 133.75 66.6 133.75 66 133.75 65.75 134.15 65.25 134.5 64.8 134.5 64 134.5 62.9 133.75 62.45 133 62 133 61.6 133 61.5 133.5 61 134 60.5 134 60.1 134 59.15 133.4 58.35 132.55 57.25 130.75 56.75 130.9 56.65 131.1 56.5 131.25 56.35 131.25 56 131.25 54.45 130.65 54.15 130.25 53.9 128.25 54 128.6 52.9 128.25 50.75
L 125.75 50.75
Q 125.95 49.15 125.6 48.5
M 103.7 63.9
Q 103.6576171875 63.87890625 103.6 63.85
L 103.55 63.6
Q 103.6568359375 63.7650390625 103.7 63.9 Z"/>
</g>

<g id="Mask_dom_tree_3_0_1_MASK_0_FILL">
<path fill="#FFFFFF" stroke="none" d="
M 125.6 48.5
Q 125 47.35 121.5 48 121.8 46.55 121.8 46.2 121.6 44.75 119.5 44.75 119.05 44.75 117.55 45.25 116.05 45.75 115.75 45.75 115.55 44.5 115.45 44.35 115.35 44.25 114.4 44.25 112.65 45.25 111.25 45.25 111.05 44.5 110.9 44.4 110.75 44.25 109.15 44.25 108 44.25 107.05 44.65 106.3 44.95 104.75 46 103.8 44.75 102.15 44.75 100.85 44.75 100.65 44.85 100.4189453125 44.988671875 99 46.5 98.9720703125 45.8349609375 98.9 45.15 98.75 44.4 98.75 44.25 98.55 44.25 95.6 43.15 92.7 42 91.5 42
L 91.5 42.75
Q 91.5 43 91.25 43 91.2 40.75 89.8 40.2 89.35 40 87.5 40 85.75 40 85.45 40.1 84.7 40.35 84.5 41.5 84.15 41.5 82.45 40.75
L 80.75 40
Q 80.35 40 79.9 40.45 79.4 41 79.25 41.75 76.7 41.4 75.5 41.35 73.5 41.3 74 43.25
L 71 43.25
Q 71 43.75 70.75 45.25
L 67.75 45.25 67.75 47 66.5 47
Q 65 46.5 64.75 46.5
L 64.75 48.5 61 48.5 61 50.75 61.5 50.75
Q 60 51.05 60 52.75 60 53.5 60.5 54 58.55 55.3 58.1 55.75 57.5 56.4 57.5 57.5 57.5 57.8 57.75 58.3 58 58.75 58 59 56 59.6 56 61.25 56 61.55 56.15 61.75 56.3 62 57 62.5 56 63.35 55.75 63.6 55.25 64.2 55.25 64.85 55.25 65.5 55.75 66 56.25 66.45 56.25 67 56.25 68.55 57.75 69 57.75 69.6 57.4 70.25 57 70.9 57 71.25 57 71.65 57.1 71.7 57.2 71.8 57.5 72 57.05 72.45 56.75 73.5 57.25 73.5 58.5 73.75 57.75 75 57.75 75.5 57.75 75.5470703125 59.25 77.25 59 79.35 59.4 79.5 59.75 79.65 59.75 80.1 59.75 80.75 59.7 80.75 59.4 80.7 59 81 59.65 82.15 60.5 82.6 61.3 83 61.75 82.5 61.75 83.9 62.25 84.75 62.75 84.8 63.25 84.25 63.7 83.75 64.5 84 64.512109375 84.12890625 64.5 84.25 64.649609375 85.0150390625 65.15 85.4 65.7 85.75 68 86.75 67.9 88.6 68.25 89.05 68.75 89.75 71 90 71.05 91.65 72 92.1 72.3 92.25 73.5 92.25 74.15 92.25 76.25 91.75 76.8 91.75 77.25 92.4 77.7 93 78.5 93 79.35 93 79.55 92.95 79.8826171875 92.8548828125 81.55 92.05 82.0056640625 92.243359375 82.65 92.45 82.85390625 92.3 83 92.3 83.65 92.3 84.4 92.8 85.15 93.25 85.65 93.25 85.7 93.25 87.15 91.6 88.6 89.95 88.9 89.85 89.7068359375 89.61015625 90.2 88.9 90.5966796875 89.2591796875 91.3 89.9 92.5837890625 90.9982421875 94.8 92.9 95.153125 93.2025390625 95.5 93.5
L 97.75 93.5 99.25 92.4
Q 101 94.35 101.45 94.75 103.4 96.5 105.25 96.5 106.85 96.5 108 95.45 108.378125 95.103515625 108.7 94.75 109.9228515625 95.5 110 95.5 110.3 95.5 110.4 95.45 110.6 95.25 110.75 94.5 113.45 95.75 113.9 95.75 114.8 95.75 115.8 94.9 116.3 94.45 116.75 94 117.4 94 120.25 94.5 122.35 94.5 123.2 93.4 124.7 91.45 125 91.25 126.3 90.3 126.4 89 126.25 87.5 126.25 86.85 126.25 86.55 127.9 85.05 129.5 83.5 129.5 82.5 129.5 82.1 129.4 81.75
L 129.25 81.5
Q 129 81.5 128.75 81 128.6 81 128.5 81.35 128.45 81.55 128.25 82.25 128 80.3 127.55 78.65 127.2486328125 77.528515625 126.8 76.75 128.5 76.7068359375 128.5 75 128.5 74.693359375 128.45 74.5 129.587890625 74.75 130.25 74.75 133.5 74.75 133.5 73.25 133.5 72.75 133 71.25 134.05 71.2 134.7 70.25 135.25 69.5 135.25 68.75 135.25 68.1 134.5 67.35 133.75 66.6 133.75 66 133.75 65.75 134.15 65.25 134.5 64.8 134.5 64 134.5 62.9 133.75 62.45 133 62 133 61.6 133 61.5 133.5 61 134 60.5 134 60.1 134 59.15 133.4 58.35 132.55 57.25 130.75 56.75 130.9 56.65 131.1 56.5 131.25 56.35 131.25 56 131.25 54.45 130.65 54.15 130.25 53.9 128.25 54 128.6 52.9 128.25 50.75
L 125.75 50.75
Q 125.95 49.15 125.6 48.5
M 103.7 63.9
Q 103.6576171875 63.87890625 103.6 63.85
L 103.55 63.6
Q 103.6568359375 63.7650390625 103.7 63.9 Z"/>
</g>

<g id="dom_tree_3_0_Layer1_0_FILL">
<path fill="#25826A" stroke="none" d="
M 151.35 102.3
L 152.2 100.9 152.2 98.55 150.3 101.7 151.35 102.3
M 72.5 81.2
L 73.6 81.8 82.1 67.75 80.8 67.45 72.5 81.2
M 53.25 75.55
L 52.2 74.9 42.55 90.8 43.6 91.45 53.25 75.55
M 59.85 74.9
L 58.6 74.6 49.65 89.35 50.7 90 59.85 74.9
M 51 64.8
L 49.7 64.5 40.75 79.3 41.85 79.9 51 64.8
M 58.7 69.9
L 57.4 69.6 48.75 83.95 49.8 84.6 58.7 69.9
M 49.6 55.95
L 48.3 55.65 43.45 63.65 44.7 63.95 49.6 55.95
M 59.7 57.5
L 58.4 57.2 50.1 70.9 50.25 71 42.5 83.75 43.6 84.4 53.2 68.5 53.05 68.4 59.7 57.5
M 56.9 58.55
L 55.65 58.25 46.75 72.9 47.85 73.55 56.9 58.55
M 52.35 55.35
L 51.1 55.05 46.2 63.1 47.45 63.4 52.35 55.35
M 71.7 73
L 70.65 72.4 61.05 88.3 62.1 88.9 71.7 73
M 75.35 63.7
L 74.1 63.4 65.4 77.7 66.5 78.4 75.35 63.7
M 76.6 68.65
L 75.3 68.35 66.35 83.1 67.45 83.7 76.6 68.65
M 63.65 71.9
L 62.4 71.6 53.45 86.35 54.6 87 63.65 71.9
M 69.95 69.3
L 68.85 68.65 59.25 84.55 60.35 85.15 69.95 69.3
M 61.1 71.15
L 62.15 71.8 71.75 55.9 70.7 55.25 61.1 71.15
M 63.5 58.35
L 62.2 58.05 53.2 72.9 54.25 73.5 63.5 58.35
M 69.55 52.2
L 68.25 51.9 59.35 66.7 60.45 67.3 69.55 52.2
M 62.8 55.95
L 61.55 55.65 56.3 64.35 56.45 64.45 48.25 77.9 49.35 78.55 58.4 63.6 58.2 63.55 62.8 55.95
M 77 51
L 75.7 50.7 66.85 65.35 67.95 65.95 77 51
M 34.8 92.55
L 35.85 93.2 45.5 77.3 44.45 76.7 34.8 92.55
M 34.6 85.5
L 35.7 86.1 44.85 71 43.6 70.7 34.6 85.5
M 31.5 83.45
L 32.55 84.1 41.1 70.1 39.8 69.8 31.5 83.45
M 31.6 75.25
L 32.65 75.85 41.8 60.8 40.5 60.5 31.6 75.25
M 37.7 76.95
L 38.75 77.55 44.2 68.55 42.95 68.25 37.7 76.95
M 16.45 63.45
L 14.95 63.45 9.55 72.4 10.65 73 16.45 63.45
M 17.2 63.45
L 15.75 65.8 16.8 66.5 18.7 63.45 17.2 63.45
M 0.55 72.2
L 0 73.1 1.1 73.7 2 72.2 0.55 72.2
M 9.45 64.45
L 9.45 65.15 10.2 65.55 11.5 63.45 10.05 63.45 9.45 64.45
M 19.85 53.55
L 19.2 53.4 19.2 54.65 19.85 53.55
M 19.35 50.45
L 19.2 50.45 19.2 50.7 19.35 50.45
M 31.35 64.45
L 30.25 63.8 20.65 79.7 21.75 80.3 31.35 64.45
M 36.15 71.6
L 37.45 71.9 42.3 63.9 41.05 63.6 36.15 71.6
M 38 63.8
L 36.7 63.5 27.75 78.25 28.85 78.85 38 63.8
M 33.1 68.15
L 32.05 67.55 22.45 83.45 23.5 84.05 33.1 68.15
M 20.6 72.65
L 21.65 73.3 31.3 57.4 30.2 56.75 20.6 72.65
M 23.6 66.25
L 22.5 65.6 12.9 81.45 14 82.15 23.6 66.25
M 22.95 59.85
L 21.65 59.55 12.7 74.4 13.75 75 22.95 59.85
M 22.3 57.5
L 21 57.2 19.2 60.15 19.2 62.6 22.3 57.5
M 29.05 53.75
L 27.75 53.45 18.85 68.2 19.9 68.8 29.05 53.75
M 36.75 58.85
L 35.5 58.55 26.8 72.85 27.9 73.55 36.75 58.85
M 36.45 52.5
L 35.15 52.2 26.35 66.85 27.4 67.45 36.45 52.5
M 25.6 37.15
L 20.75 45.25 22 45.55 26.9 37.45 25.6 37.15
M 26.2 42.6
L 24.9 42.3 19.95 50.35 21.25 50.65 26.2 42.6
M 35 47.5
L 33.7 47.2 24.9 61.8 25.95 62.4 35 47.5
M 19.2 43.7
L 19.2 46.15 23.6 38.9 22.3 38.6 19.2 43.7
M 75.5 45.95
L 74.25 45.65 65.35 60.3 66.45 60.9 75.5 45.95
M 70.45 33.3
L 69.15 33 64.2 41.05 65.5 41.35 70.45 33.3
M 67.85 29.6
L 66.55 29.3 61.65 37.35 62.95 37.65 67.85 29.6
M 65 35.95
L 66.25 36.25 71.15 28.15 69.85 27.85 65 35.95
M 53.05 37.8
L 52 37.15 42.4 53.05 43.45 53.7 53.05 37.8
M 48.15 47.25
L 49.25 47.85 58.3 32.9 57 32.6 48.15 47.25
M 152.2 97.3
L 152.2 94.95 145 106.85 146.1 107.45 152.2 97.3
M 153.1 89.2
L 153.9 87.9 152.85 87.25 143.2 103.15 144.3 103.75 152.2 90.7 152.2 89.2 153.1 89.2
M 160.5 87.2
L 159.25 86.9 157.85 89.2 159.3 89.2 160.5 87.2
M 149.4 96.3
L 150.45 96.95 152.2 94.05 152.2 91.7 149.4 96.3
M 146.15 89.65
L 145.1 89 135.45 104.9 136.5 105.55 146.15 89.65
M 159.35 82.25
L 158.1 81.95 153.7 89.2 155.15 89.2 159.35 82.25
M 133.05 90.7
L 135.45 86.7 136.35 82.8 131.95 90.05 133.05 90.7
M 135.25 97.85
L 136.3 98.45 145.55 83.3 144.25 83 135.25 97.85
M 134.1 92.4
L 135.05 88.45 126.05 103.35 127.1 103.95 134.1 92.4
M 132.15 95.85
L 133.2 96.45 141.75 82.45 140.45 82.15 132.15 95.85
M 122.7 94.25
L 123.75 94.9 132.3 80.85 131.05 80.55 122.7 94.25
M 127.15 83.75
L 125.9 83.45 121 91.55 122.25 91.85 127.15 83.75
M 135.45 79.3
L 134.15 79 128.9 87.7 130 88.3 135.45 79.3
M 131.65 66.4
L 132.75 67 141.85 51.9 140.55 51.6 131.65 66.4
M 136.4 64.4
L 135.35 63.75 125.7 79.65 126.75 80.3 136.4 64.4
M 122.4 70.6
L 123.45 71.2 132 57.2 130.7 56.9 122.4 70.6
M 135.8 58.05
L 134.5 57.75 125.5 72.6 126.3 73.05 122.35 79.55 123.65 79.85 128.5 71.8 127.55 71.6 135.8 58.05
M 135.1 55.65
L 133.85 55.35 128.6 64.05 129.65 64.65 135.1 55.65
M 150.75 61.95
L 149.5 61.65 140.55 76.45 141.6 77.05 150.75 61.95
M 157.55 66
L 156.25 65.7 151 74.3 152.05 75 157.55 66
M 156.8 70.7
L 158.2 68.35 156.9 68.05 151.45 77.15 150.3 76.85 141.4 91.65 142.5 92.25 148.1 83 148.6 83.3 147.4 85.25 148.5 85.85 157.55 70.9 156.8 70.7
M 154.4 67.45
L 153.1 67.15 144.8 80.9 143.6 80.6 138.35 89.3 139.4 89.9 144.85 80.95 145.9 81.5 154.4 67.45
M 148.95 69.85
L 150.2 70.15 155.1 62.05 153.85 61.75 148.95 69.85
M 144.15 62.65
L 143.1 62 133.45 77.9 134.55 78.5 144.15 62.65
M 145.9 66.3
L 144.85 65.7 135.3 81.55 134.85 81.45 125.8 96.25 126.85 96.9 135.95 82 136.35 82.2 145.9 66.3
M 144.05 55.6
L 143 54.95 133.4 70.85 134.45 71.5 144.05 55.6
M 149.6 57
L 148.35 56.7 139.65 71.05 140.7 71.7 149.6 57
M 149.3 50.7
L 148 50.4 139.15 65.05 140.25 65.65 149.3 50.7
M 156 53.75
L 157.25 54.05 162.15 45.95 160.85 45.65 156 53.75
M 154.6 58.95
L 153.3 58.65 144.4 73.45 145.45 74.05 154.6 58.95
M 161.45 51.1
L 160.15 50.8 155.2 58.85 156.5 59.15 161.45 51.1
M 112.6 98.15
L 113.65 98.8 122.8 83.7 121.55 83.4 112.6 98.15
M 111.7 92.75
L 112.75 93.4 121.65 78.7 120.35 78.4 111.7 92.75
M 118 88.05
L 116.9 87.4 107.3 103.3 108.4 103.9 118 88.05
M 116.4 95.15
L 117.55 95.8 126.6 80.7 125.35 80.4 116.4 95.15
M 107.15 77.35
L 105.9 77.05 100.65 85.75 101.7 86.35 107.15 77.35
M 108.45 86.1
L 107.4 85.5 97.75 101.35 98.8 102 108.45 86.1
M 116.15 77.3
L 115.05 76.7 105.45 92.55 106.55 93.2 116.15 77.3
M 116.2 84.35
L 115.15 83.7 105.5 99.6 106.55 100.25 116.2 84.35
M 97.55 94.3
L 98.65 94.9 107.8 79.8 106.55 79.5 97.55 94.3
M 94.45 92.25
L 95.5 92.9 104.05 78.9 102.75 78.6 94.45 92.25
M 86.55 75.05
L 85.45 74.4 75.85 90.25 76.95 90.95 86.55 75.05
M 96.05 76.95
L 95 76.35 85.4 92.25 86.45 92.85 96.05 76.95
M 92 62.55
L 90.7 62.25 81.8 77 82.85 77.6 92 62.55
M 94.3 73.25
L 93.2 72.6 83.6 88.5 84.7 89.1 94.3 73.25
M 100.95 72.6
L 99.65 72.3 90.7 87.05 91.8 87.65 100.95 72.6
M 94.25 66.2
L 93.15 65.55 83.55 81.45 84.6 82.1 94.25 66.2
M 99.7 67.65
L 98.45 67.35 89.75 81.65 90.85 82.35 99.7 67.65
M 85.25 66.3
L 83.95 66 78.7 74.6 79.75 75.3 85.25 66.3
M 85.9 68.65
L 84.6 68.35 75.65 83.2 76.7 83.8 85.9 68.65
M 82.8 62.35
L 81.55 62.05 76.65 70.15 77.9 70.45 82.8 62.35
M 89.15 51.4
L 87.85 51.1 82.9 59.15 84.2 59.45 89.15 51.4
M 99.4 61.3
L 98.1 61 89.3 75.65 90.35 76.25 99.4 61.3
M 97.95 56.3
L 96.65 56 87.85 70.6 88.9 71.2 97.95 56.3
M 113.95 73.6
L 112.65 73.3 103.7 88.1 104.8 88.7 113.95 73.6
M 121.35 72.4
L 120.05 72.1 111.2 86.7 112.3 87.35 121.35 72.4
M 119.85 67.35
L 118.6 67.05 109.7 81.7 110.8 82.35 119.85 67.35
M 106.4 72.45
L 107.65 72.75 112.55 64.75 111.25 64.45 106.4 72.45
M 109.15 71.9
L 110.4 72.2 115.3 64.15 114.05 63.85 109.15 71.9
M 104.75 69.6
L 103.45 69.3 94.55 84.05 95.6 84.65 104.75 69.6
M 105.25 72.7
L 104 72.4 99.1 80.4 100.4 80.7 105.25 72.7
M 112.55 39.3
L 111.5 38.65 101.9 54.55 102.95 55.2 112.55 39.3
M 86.55 47.7
L 85.25 47.4 80.35 55.45 81.65 55.75 86.55 47.7
M 89.85 46.25
L 88.55 45.95 83.7 54.05 84.95 54.35 89.85 46.25
M 147.8 45.65
L 146.55 45.35 137.65 60 138.75 60.6 147.8 45.65
M 158.85 47.4
L 157.55 47.1 152.65 55.15 153.95 55.45 158.85 47.4
M 129.05 47.15
L 127.75 46.85 118.9 61.5 120 62.1 129.05 47.15
M 130.65 29.65
L 129.35 29.35 124.5 37.45 125.75 37.75 130.65 29.65
M 127.35 31.1
L 126.05 30.8 121.15 38.85 122.45 39.15 127.35 31.1
M 129.95 34.8
L 128.65 34.5 123.7 42.55 125 42.85 129.95 34.8
M 173.85 87.45
L 172.75 87.2 171.55 89.2 174.2 89.2 174.2 86.85 173.85 87.45
M 174.2 82.15
L 174.2 79.7 168.45 89.2 169.9 89.2 174.2 82.15
M 174.2 77.95
L 174.2 75.55 171.4 80.1 172.7 80.4 174.2 77.95
M 174.2 83.4
L 172.95 85.45 174 86.05 174.2 85.75 174.2 83.4
M 173.25 72.3
L 171.95 72 163 86.75 163.6 87.05 162.3 89.2 163.7 89.2 164.85 87.3 164.25 87.15 165.95 84.35 166.25 84.4 171.2 76.35 170.85 76.3 173.25 72.3
M 174.2 74
L 174.2 71.6 166.85 83.75 167.9 84.35 174.2 74
M 166.55 65.9
L 165.45 65.25 159 75.95 158.25 75.8 158.85 74.75 157.75 74.1 153.7 80.8 152.75 80.2 143.15 96.1 144.2 96.75 148.3 90.05 149.25 90.65 149.35 90.55 150 90.9 155.9 81.2 156.9 81.8 166.55 65.9
M 166.6 72.95
L 165.5 72.3 155.9 88.2 157 88.8 166.6 72.95
M 171.9 71.2
L 170.6 70.9 167.45 76.15 167.3 76.05 159.35 89.2 161.35 89.2 164.35 84.2 163.85 84.1 166.8 79.25 167 79.3 171.9 71.2
M 164.3 62.25
L 163 61.95 154.1 76.7 155.15 77.3 164.3 62.25
M 167.5 72.4
L 167.3 72.35 162.4 80.4 162.6 80.45 162.05 81.35 163.15 82.05 172 67.35 170.75 67.05 167.5 72.4
M 171.7 61
L 170.4 60.7 161.6 75.35 162.65 75.95 171.7 61
M 170.25 56
L 168.95 55.7 160.15 70.3 161.2 70.9 170.25 56 Z"/>
</g>

<g id="dom_tree_1_0_Layer4_0_FILL">
<path fill="#000000" fill-opacity="0.12941176470588237" stroke="none" d="
M 58 138
Q 62.4 138 74.15 136.7 84.9 135.5 87 135 90.8 134.15 100.85 134 109 133.1 109 128 109 126.65 107.5 124 106 121.35 106 118 110.6 116.85 117.2 117.05 120.85 117.15 127.15 117.45 132.05 117.35 134.3 115.45 137 113.2 137 107.5 137 105.534765625 136 104.3 117.8849609375 104.436328125 105.75 101.8 98.2 99.95 94 99.25 86.85 98 78 98 67.6 98 60 101.15 53.25 104.9 51 106 51.45 107.1 53.45 109.55 54.7 111.05 55 115 46.4 115.3 39.1 117.2 29 119.9 29 124.5 29 127.9 40.05 133 50.95 138 58 138 Z"/>
</g>

<g id="dom_tree_1_0_Layer3_0_FILL">
<path fill="#094032" stroke="none" d="
M 85.85 93.5
Q 84.55 93.5 83.3 91.7 81.7 89.45 80.55 88.8 80.8 89.4 80.3 90.15 79.85 90.9 79.45 90.9 78.65 90.9 74.25 88.6 69.55 86.15 67.8 85.8
L 67.65 85.8
Q 67.75 85.9 69.1 88.1 69.660546875 89.0232421875 70.1 89.3 70.171484375 89.4123046875 70.35 89.6 71.0421875 90.309375 73.35 92.1 75.6 93.9 75.6 94.5 75.6 94.9 75.4 95.65 75.15 96.4 75.15 96.75 75.15 97.75 77.6 98.45 80.8 99.35 82.65 101.25 83.56640625 102.262890625 84.3 103.6 84.3234375 103.6505859375 84.35 103.7 85.1 105.1 85.1 105.9 85.1 107 84.35 107.8 83.9 108.25 82.85 109.15 81 111.2 82.25 116.55 82.55 117.9 81.4 118.85 79.9 120.15 79.65 120.75 81.05 120.75 84.8 120.6 85.2 120.6 87.7 121.3 90.2 122 91.85 122 91.9 122 93.2 121.35 94.8 120.8 96.6 121.5
L 96.75 121.5
Q 96 120.7 94.3 120.1 92.85 119.55 92.25 118.5 92 118.05 91.75 115.45 91.5 113.25 91.5 112.8 91.5 111.05 93.25 108.35
L 95 105.65
Q 95 105.4025390625 94.95 105.15 95.55 103.6 97.8 102.95 98.1 102.9 105.15 101.6
L 105 101.6
Q 103.95 101.6 102.15 101.2 100.35 100.8 100.3 100.8 98.25 100.8 98 101.1 97.3591796875 102.0859375 94.4 103.3 93.8462890625 102.191796875 92.65 101.25 91.4791015625 100.328125 90.9 99.55 90.3 98.826953125 90.3 98.25 92.75 96.1 92.75 94.85 92.23359375 92.43125 92 90.9 91.9595703125 90.6001953125 91.9 90.3 91.718359375 89.7576171875 91.55 89.5 90.530078125 91.669921875 90.35 91.85
L 89.1 93.9
Q 88.95 93.85 88.4 93.5 88.1951171875 93.340625 87.95 93.25 87.676953125 93.15 87.35 93.15 87.1 93.15 86.6 93.35 86.15 93.5 85.85 93.5 Z"/>
</g>

<g id="dom_tree_1_0_Layer2_0_FILL">
<path fill="#43C3A2" stroke="none" d="
M 89.75 40.15
Q 89.95 39.4 89.65 39.1 89.05 38.5 86.1 39.15 86.05 38.85 85.95 38.75 85.85 38.5 84.9 38.5 81.95 38.5 80 37.75 79.517578125 37.569140625 79.05 37.4 79.25 36.9984375 79.25 36.3 79.25 35.8 79 35.3 78.45 34.25 77.05 34.25 76.7 34.25 76.3 34.4 75.9 34.5 75.8 34.5 75.75 34.05 75.4 33.65 75.1 33.25 74.8 33.25 71.05 33.25 70.3 33.65 69.95 34.2 69.35 34.6 69.05 34.45 68.7 34.1 68.4 33.8 68.3 33.75
L 66.55 33.75
Q 66.35 34 66.15 34.5 66.05 34.85 66.05 34.95 66.05 35.5158203125 66.1 35.9 64.2693359375 34.45703125 62.9 34.9 62.2087890625 35.155859375 61.85 35.65 61.7083984375 35.9072265625 61.6 36.2 61.3013671875 36.29375 61 36.45 59.3 37.35 58.95 37.35 55.70390625 37.35 54.5 38.7 53.16171875 38.5037109375 52.9 38.7 52.95 39.35 52.75 39.65 51.75 39 51.35 39 50.9 39.1 50.75 39.1 50.75 40.25 50.5 40.6 47.4 40.15 47.1 41.2 46.45 43.35 46.15 43.6 45.0267578125 44.559375 44.4 45.45
L 44.25 45.25 43 45.25
Q 42.55 46.55 43 47 42.8 47.25 41.75 47.8 40.75 48.5 40.75 49.6 40.75 50.25 41.25 50.75
L 41.25 51.25
Q 40.25 51.5 39.75 51.5
L 39.75 53
Q 40.05 53.65 40.35 54.1 40.5 54.35 40.5 54.85 40.5 55.1 39.4 57.15 38.4 58.9 39 60.5 38.65 60.9 37.35 61.4 36.25 62 36.25 63.1 36.25 63.45 36.5 63.85 36.75 64.3 36.75 64.6 36.75 64.7 36.4 65.2 36 65.7 36 66.25 36 66.95 36.75 67.7 37.15 68.05 37.75 68.5 37.55 68.6 36.5 68.95 35.5 69.4 35.5 70.25 35.5 70.8 35.55 70.85 35.6 71 36 71.25 35.75 71.55 35.05 72.15 34.5 72.75 34.5 73.6 34.5 74.25 35 74.75 34.05 75.5 33.95 75.65 33.75 76 33.75 76.85 33.75 78.8111328125 35.3 78.95 35.4697265625 79.5052734375 35.75 80.1 35.2 81.6 35.55 82.05 36 82.6 36 82.75
L 35.25 84.25
Q 35.25 85.55 36.3 86.2 37.2 86.8 38.25 86.5 38.25 86.75 38.15 87.05 38 87.4 38 87.75 38 89.4 41.75 89.75 41 91.05 42.2 91.45 43.1 91.75 44 91.5 44.45 92.3 45.3 92.95 46.1 93.5 46.6 93.5 47.3 93.5 47.75 92 48.6 92.55 49.95 93.05 51.1 93.5 51.35 93.5 51.7 93.5 51.75 93.4 51.75 93.25 52 93.25
L 52 92
Q 54.2 93.75 56 93.75
L 56 92.5
Q 57.15 93.5 57.9 93.5 58.35 93.5 58.4 93.45 58.6 93.35 58.5 92.75 58.85 92.75 59.95 93.25 61.05 93.75 61.25 93.75
L 61.25 91.75
Q 62.11484375 91.715234375 62.25 91.4 62.4 91 62.5 91 63.1 91 64.05 91.5 65.05 92 66.05 92 67.25 92 68.5 91.25
L 70.45 91.25
Q 70.65546875 91.55546875 71.1 92 72.15 93 73.45 93 73.9 93 74.95 93.5 75.95 94 76.3 94 76.9 94 77.25 93.15 77.55 92.3 78.35 92.3 78.4 92.3 79.7 93.05 81.05 93.75 81.4 93.75 81.6 93.75 82.15 93.05 82.7 92.3 83 92.3 83.65 92.3 84.4 92.8 85.15 93.25 85.65 93.25 85.7 93.25 87.15 91.6 88.6 89.95 88.9 89.85 89.7068359375 89.61015625 90.2 88.9 91.2775390625 89.875390625 94.8 92.9 95.153125 93.2025390625 95.5 93.5
L 97.75 93.5 99.25 92.4
Q 101 94.35 101.45 94.75 103.4 96.5 105.25 96.5 106.85 96.5 108 95.45 108.6 94.9 109.1 94.35 111.05 94.35 111.65 94.6 111.7 93.95 112.5 92.1 117.2 91.65 118.1 89.95 118.15 89.85 118.25 87.25 118.3 86.45 118.6 85.75 118.95 85.1 119.55 84.55 120.75 83.45 120.75 81.8 120.75 81.45 120.4 80.3 120 79.2 120 79.15 120.75 76.95 120.75 76.55 120.75 75.65 120.05 75 119.808984375 74.823828125 119.55 74.65 119.636328125 74.5955078125 119.7 74.55 120.25 74 120.25 73.15 120.25 71.75 119 70.6 117.75 69.45 117.75 69 118.1 67.35 118.1 66.5 118.15 65 116.6 63.8 117.1 63.45 117.25 62.95 117.25 62.85 117.25 62.2 117.25 61.1 117.2 60.9 117.1 60.05 116.5 59.75
L 115 59.65
Q 115.15 59 114.85 58.35 114.45 57.5 113.5 57
L 111.5 57
Q 111.2541015625 57.02890625 110.75 56.95 110.80703125 56.8572265625 110.85 56.75 111 56.4 111 55.5 111 55.1 110.5 54.25 110 53.4 110 53.25 110 53.1 110.4 52.3 110.429296875 52.237109375 110.45 52.15 110.4927734375 52.098046875 110.5 52 110.75 51.50078125 110.75 51.3 110.75 50.35 109.95 48.55 109.1 46.55 109 45.85
L 106.5 45.75
Q 106.5 44.8 105.5 44.25
L 104 44.1
Q 104 43.4 103.5 43.25
L 101.75 43.25
Q 101.15 43.75 100.5 44.3 100.1900390625 44.58515625 99.95 44.8
L 99.9 44.8
Q 99.15 44.35 99 43.5 99.25 42.4 98.85 42 98.15 41.3 94.25 41.4 94.25 40.55 93.75 40.25
L 89.75 40.15
M 103.7 63.9
Q 103.6576171875 63.87890625 103.6 63.85
L 103.55 63.6
Q 103.6568359375 63.7650390625 103.7 63.9 Z"/>
</g>

<g id="Mask_dom_tree_1_0_1_MASK_0_FILL">
<path fill="#FFFFFF" stroke="none" d="
M 89.75 40.15
Q 89.95 39.4 89.65 39.1 89.05 38.5 86.1 39.15 86.05 38.85 85.95 38.75 85.85 38.5 84.9 38.5 81.95 38.5 80 37.75 79.517578125 37.569140625 79.05 37.4 79.25 36.9984375 79.25 36.3 79.25 35.8 79 35.3 78.45 34.25 77.05 34.25 76.7 34.25 76.3 34.4 75.9 34.5 75.8 34.5 75.75 34.05 75.4 33.65 75.1 33.25 74.8 33.25 71.05 33.25 70.3 33.65 69.95 34.2 69.35 34.6 69.05 34.45 68.7 34.1 68.4 33.8 68.3 33.75
L 66.55 33.75
Q 66.35 34 66.15 34.5 66.05 34.85 66.05 34.95 66.05 35.5158203125 66.1 35.9 64.2693359375 34.45703125 62.9 34.9 62.2087890625 35.155859375 61.85 35.65 61.7083984375 35.9072265625 61.6 36.2 61.3013671875 36.29375 61 36.45 59.3 37.35 58.95 37.35 55.70390625 37.35 54.5 38.7 53.16171875 38.5037109375 52.9 38.7 52.95 39.35 52.75 39.65 51.75 39 51.35 39 50.9 39.1 50.75 39.1 50.75 40.25 50.5 40.6 47.4 40.15 47.1 41.2 46.45 43.35 46.15 43.6 45.0267578125 44.559375 44.4 45.45
L 44.25 45.25 43 45.25
Q 42.55 46.55 43 47 42.8 47.25 41.75 47.8 40.75 48.5 40.75 49.6 40.75 50.25 41.25 50.75
L 41.25 51.25
Q 40.25 51.5 39.75 51.5
L 39.75 53
Q 40.05 53.65 40.35 54.1 40.5 54.35 40.5 54.85 40.5 55.1 39.4 57.15 38.4 58.9 39 60.5 38.65 60.9 37.35 61.4 36.25 62 36.25 63.1 36.25 63.45 36.5 63.85 36.75 64.3 36.75 64.6 36.75 64.7 36.4 65.2 36 65.7 36 66.25 36 66.95 36.75 67.7 37.15 68.05 37.75 68.5 37.55 68.6 36.5 68.95 35.5 69.4 35.5 70.25 35.5 70.8 35.55 70.85 35.6 71 36 71.25 35.75 71.55 35.05 72.15 34.5 72.75 34.5 73.6 34.5 74.25 35 74.75 34.05 75.5 33.95 75.65 33.75 76 33.75 76.85 33.75 78.8111328125 35.3 78.95 35.4697265625 79.5052734375 35.75 80.1 35.2 81.6 35.55 82.05 36 82.6 36 82.75
L 35.25 84.25
Q 35.25 85.55 36.3 86.2 37.2 86.8 38.25 86.5 38.25 86.75 38.15 87.05 38 87.4 38 87.75 38 89.4 41.75 89.75 41 91.05 42.2 91.45 43.1 91.75 44 91.5 44.45 92.3 45.3 92.95 46.1 93.5 46.6 93.5 47.3 93.5 47.75 92 48.6 92.55 49.95 93.05 51.1 93.5 51.35 93.5 51.7 93.5 51.75 93.4 51.75 93.25 52 93.25
L 52 92
Q 54.2 93.75 56 93.75
L 56 92.5
Q 57.15 93.5 57.9 93.5 58.35 93.5 58.4 93.45 58.6 93.35 58.5 92.75 58.85 92.75 59.95 93.25 61.05 93.75 61.25 93.75
L 61.25 91.75
Q 62.11484375 91.715234375 62.25 91.4 62.4 91 62.5 91 63.1 91 64.05 91.5 65.05 92 66.05 92 67.25 92 68.5 91.25
L 70.45 91.25
Q 70.65546875 91.55546875 71.1 92 72.15 93 73.45 93 73.9 93 74.95 93.5 75.95 94 76.3 94 76.9 94 77.25 93.15 77.55 92.3 78.35 92.3 78.4 92.3 79.7 93.05 81.05 93.75 81.4 93.75 81.6 93.75 82.15 93.05 82.7 92.3 83 92.3 83.65 92.3 84.4 92.8 85.15 93.25 85.65 93.25 85.7 93.25 87.15 91.6 88.6 89.95 88.9 89.85 89.7068359375 89.61015625 90.2 88.9 91.2775390625 89.875390625 94.8 92.9 95.153125 93.2025390625 95.5 93.5
L 97.75 93.5 99.25 92.4
Q 101 94.35 101.45 94.75 103.4 96.5 105.25 96.5 106.85 96.5 108 95.45 108.6 94.9 109.1 94.35 111.05 94.35 111.65 94.6 111.7 93.95 112.5 92.1 117.2 91.65 118.1 89.95 118.15 89.85 118.25 87.25 118.3 86.45 118.6 85.75 118.95 85.1 119.55 84.55 120.75 83.45 120.75 81.8 120.75 81.45 120.4 80.3 120 79.2 120 79.15 120.75 76.95 120.75 76.55 120.75 75.65 120.05 75 119.808984375 74.823828125 119.55 74.65 119.636328125 74.5955078125 119.7 74.55 120.25 74 120.25 73.15 120.25 71.75 119 70.6 117.75 69.45 117.75 69 118.1 67.35 118.1 66.5 118.15 65 116.6 63.8 117.1 63.45 117.25 62.95 117.25 62.85 117.25 62.2 117.25 61.1 117.2 60.9 117.1 60.05 116.5 59.75
L 115 59.65
Q 115.15 59 114.85 58.35 114.45 57.5 113.5 57
L 111.5 57
Q 111.2541015625 57.02890625 110.75 56.95 110.80703125 56.8572265625 110.85 56.75 111 56.4 111 55.5 111 55.1 110.5 54.25 110 53.4 110 53.25 110 53.1 110.4 52.3 110.429296875 52.237109375 110.45 52.15 110.4927734375 52.098046875 110.5 52 110.75 51.50078125 110.75 51.3 110.75 50.35 109.95 48.55 109.1 46.55 109 45.85
L 106.5 45.75
Q 106.5 44.8 105.5 44.25
L 104 44.1
Q 104 43.4 103.5 43.25
L 101.75 43.25
Q 101.15 43.75 100.5 44.3 100.1900390625 44.58515625 99.95 44.8
L 99.9 44.8
Q 99.15 44.35 99 43.5 99.25 42.4 98.85 42 98.15 41.3 94.25 41.4 94.25 40.55 93.75 40.25
L 89.75 40.15
M 103.7 63.9
Q 103.6576171875 63.87890625 103.6 63.85
L 103.55 63.6
Q 103.6568359375 63.7650390625 103.7 63.9 Z"/>
</g>

<g id="dom_tree_1_0_Layer1_0_FILL">
<path fill="#25826A" stroke="none" d="
M 151.35 102.3
L 152.2 100.9 152.2 98.55 150.3 101.7 151.35 102.3
M 72.5 81.2
L 73.6 81.8 82.1 67.75 80.8 67.45 72.5 81.2
M 59.85 74.9
L 58.6 74.6 49.65 89.35 50.7 90 59.85 74.9
M 53.25 75.55
L 52.2 74.9 42.55 90.8 43.6 91.45 53.25 75.55
M 51 64.8
L 49.7 64.5 40.75 79.3 41.85 79.9 51 64.8
M 58.7 69.9
L 57.4 69.6 48.75 83.95 49.8 84.6 58.7 69.9
M 49.6 55.95
L 48.3 55.65 43.45 63.65 44.7 63.95 49.6 55.95
M 52.35 55.35
L 51.1 55.05 46.2 63.1 47.45 63.4 52.35 55.35
M 56.9 58.55
L 55.65 58.25 46.75 72.9 47.85 73.55 56.9 58.55
M 59.7 57.5
L 58.4 57.2 50.1 70.9 50.25 71 42.5 83.75 43.6 84.4 53.2 68.5 53.05 68.4 59.7 57.5
M 71.7 73
L 70.65 72.4 61.05 88.3 62.1 88.9 71.7 73
M 76.6 68.65
L 75.3 68.35 66.35 83.1 67.45 83.7 76.6 68.65
M 75.35 63.7
L 74.1 63.4 65.4 77.7 66.5 78.4 75.35 63.7
M 61.1 71.15
L 62.15 71.8 71.75 55.9 70.7 55.25 61.1 71.15
M 69.95 69.3
L 68.85 68.65 59.25 84.55 60.35 85.15 69.95 69.3
M 63.65 71.9
L 62.4 71.6 53.45 86.35 54.6 87 63.65 71.9
M 63.5 58.35
L 62.2 58.05 53.2 72.9 54.25 73.5 63.5 58.35
M 69.55 52.2
L 68.25 51.9 59.35 66.7 60.45 67.3 69.55 52.2
M 62.8 55.95
L 61.55 55.65 56.3 64.35 56.45 64.45 48.25 77.9 49.35 78.55 58.4 63.6 58.2 63.55 62.8 55.95
M 77 51
L 75.7 50.7 66.85 65.35 67.95 65.95 77 51
M 37.7 76.95
L 38.75 77.55 44.2 68.55 42.95 68.25 37.7 76.95
M 31.6 75.25
L 32.65 75.85 41.8 60.8 40.5 60.5 31.6 75.25
M 31.5 83.45
L 32.55 84.1 41.1 70.1 39.8 69.8 31.5 83.45
M 34.6 85.5
L 35.7 86.1 44.85 71 43.6 70.7 34.6 85.5
M 34.8 92.55
L 35.85 93.2 45.5 77.3 44.45 76.7 34.8 92.55
M 17.2 63.45
L 15.75 65.8 16.8 66.5 18.7 63.45 17.2 63.45
M 16.45 63.45
L 14.95 63.45 9.55 72.4 10.65 73 16.45 63.45
M 9.45 64.45
L 9.45 65.15 10.2 65.55 11.5 63.45 10.05 63.45 9.45 64.45
M 0.55 72.2
L 0 73.1 1.1 73.7 2 72.2 0.55 72.2
M 19.85 53.55
L 19.2 53.4 19.2 54.65 19.85 53.55
M 19.35 50.45
L 19.2 50.45 19.2 50.7 19.35 50.45
M 31.35 64.45
L 30.25 63.8 20.65 79.7 21.75 80.3 31.35 64.45
M 33.1 68.15
L 32.05 67.55 22.45 83.45 23.5 84.05 33.1 68.15
M 38 63.8
L 36.7 63.5 27.75 78.25 28.85 78.85 38 63.8
M 36.15 71.6
L 37.45 71.9 42.3 63.9 41.05 63.6 36.15 71.6
M 23.6 66.25
L 22.5 65.6 12.9 81.45 14 82.15 23.6 66.25
M 20.6 72.65
L 21.65 73.3 31.3 57.4 30.2 56.75 20.6 72.65
M 29.05 53.75
L 27.75 53.45 18.85 68.2 19.9 68.8 29.05 53.75
M 22.3 57.5
L 21 57.2 19.2 60.15 19.2 62.6 22.3 57.5
M 22.95 59.85
L 21.65 59.55 12.7 74.4 13.75 75 22.95 59.85
M 36.45 52.5
L 35.15 52.2 26.35 66.85 27.4 67.45 36.45 52.5
M 36.75 58.85
L 35.5 58.55 26.8 72.85 27.9 73.55 36.75 58.85
M 35 47.5
L 33.7 47.2 24.9 61.8 25.95 62.4 35 47.5
M 25.6 37.15
L 20.75 45.25 22 45.55 26.9 37.45 25.6 37.15
M 26.2 42.6
L 24.9 42.3 19.95 50.35 21.25 50.65 26.2 42.6
M 19.2 43.7
L 19.2 46.15 23.6 38.9 22.3 38.6 19.2 43.7
M 75.5 45.95
L 74.25 45.65 65.35 60.3 66.45 60.9 75.5 45.95
M 69.85 27.85
L 65 35.95 66.25 36.25 71.15 28.15 69.85 27.85
M 70.45 33.3
L 69.15 33 64.2 41.05 65.5 41.35 70.45 33.3
M 67.85 29.6
L 66.55 29.3 61.65 37.35 62.95 37.65 67.85 29.6
M 53.05 37.8
L 52 37.15 42.4 53.05 43.45 53.7 53.05 37.8
M 48.15 47.25
L 49.25 47.85 58.3 32.9 57 32.6 48.15 47.25
M 152.2 97.3
L 152.2 94.95 145 106.85 146.1 107.45 152.2 97.3
M 153.1 89.2
L 153.9 87.9 152.85 87.25 143.2 103.15 144.3 103.75 152.2 90.7 152.2 89.2 153.1 89.2
M 160.5 87.2
L 159.25 86.9 157.85 89.2 159.3 89.2 160.5 87.2
M 146.15 89.65
L 145.1 89 135.45 104.9 136.5 105.55 146.15 89.65
M 149.4 96.3
L 150.45 96.95 152.2 94.05 152.2 91.7 149.4 96.3
M 159.35 82.25
L 158.1 81.95 153.7 89.2 155.15 89.2 159.35 82.25
M 132.15 95.85
L 133.2 96.45 141.75 82.45 140.45 82.15 132.15 95.85
M 134.1 92.4
L 135.05 88.45 126.05 103.35 127.1 103.95 134.1 92.4
M 135.25 97.85
L 136.3 98.45 145.55 83.3 144.25 83 135.25 97.85
M 133.05 90.7
L 135.45 86.7 136.35 82.8 131.95 90.05 133.05 90.7
M 122.7 94.25
L 123.75 94.9 132.3 80.85 131.05 80.55 122.7 94.25
M 127.15 83.75
L 125.9 83.45 121 91.55 122.25 91.85 127.15 83.75
M 135.45 79.3
L 134.15 79 128.9 87.7 130 88.3 135.45 79.3
M 136.4 64.4
L 135.35 63.75 125.7 79.65 126.75 80.3 136.4 64.4
M 131.65 66.4
L 132.75 67 141.85 51.9 140.55 51.6 131.65 66.4
M 122.4 70.6
L 123.45 71.2 132 57.2 130.7 56.9 122.4 70.6
M 135.1 55.65
L 133.85 55.35 128.6 64.05 129.65 64.65 135.1 55.65
M 135.8 58.05
L 134.5 57.75 125.5 72.6 126.3 73.05 122.35 79.55 123.65 79.85 128.5 71.8 127.55 71.6 135.8 58.05
M 150.75 61.95
L 149.5 61.65 140.55 76.45 141.6 77.05 150.75 61.95
M 154.4 67.45
L 153.1 67.15 144.8 80.9 143.6 80.6 138.35 89.3 139.4 89.9 144.85 80.95 145.9 81.5 154.4 67.45
M 156.8 70.7
L 158.2 68.35 156.9 68.05 151.45 77.15 150.3 76.85 141.4 91.65 142.5 92.25 148.1 83 148.6 83.3 147.4 85.25 148.5 85.85 157.55 70.9 156.8 70.7
M 157.55 66
L 156.25 65.7 151 74.3 152.05 75 157.55 66
M 145.9 66.3
L 144.85 65.7 135.3 81.55 134.85 81.45 125.8 96.25 126.85 96.9 135.95 82 136.35 82.2 145.9 66.3
M 144.15 62.65
L 143.1 62 133.45 77.9 134.55 78.5 144.15 62.65
M 148.95 69.85
L 150.2 70.15 155.1 62.05 153.85 61.75 148.95 69.85
M 149.3 50.7
L 148 50.4 139.15 65.05 140.25 65.65 149.3 50.7
M 149.6 57
L 148.35 56.7 139.65 71.05 140.7 71.7 149.6 57
M 144.05 55.6
L 143 54.95 133.4 70.85 134.45 71.5 144.05 55.6
M 160.15 50.8
L 155.2 58.85 156.5 59.15 161.45 51.1 160.15 50.8
M 156 53.75
L 157.25 54.05 162.15 45.95 160.85 45.65 156 53.75
M 154.6 58.95
L 153.3 58.65 144.4 73.45 145.45 74.05 154.6 58.95
M 116.4 95.15
L 117.55 95.8 126.6 80.7 125.35 80.4 116.4 95.15
M 118 88.05
L 116.9 87.4 107.3 103.3 108.4 103.9 118 88.05
M 111.7 92.75
L 112.75 93.4 121.65 78.7 120.35 78.4 111.7 92.75
M 112.6 98.15
L 113.65 98.8 122.8 83.7 121.55 83.4 112.6 98.15
M 108.45 86.1
L 107.4 85.5 97.75 101.35 98.8 102 108.45 86.1
M 107.15 77.35
L 105.9 77.05 100.65 85.75 101.7 86.35 107.15 77.35
M 116.15 77.3
L 115.05 76.7 105.45 92.55 106.55 93.2 116.15 77.3
M 116.2 84.35
L 115.15 83.7 105.5 99.6 106.55 100.25 116.2 84.35
M 94.45 92.25
L 95.5 92.9 104.05 78.9 102.75 78.6 94.45 92.25
M 97.55 94.3
L 98.65 94.9 107.8 79.8 106.55 79.5 97.55 94.3
M 86.55 75.05
L 85.45 74.4 75.85 90.25 76.95 90.95 86.55 75.05
M 96.05 76.95
L 95 76.35 85.4 92.25 86.45 92.85 96.05 76.95
M 92 62.55
L 90.7 62.25 81.8 77 82.85 77.6 92 62.55
M 99.7 67.65
L 98.45 67.35 89.75 81.65 90.85 82.35 99.7 67.65
M 94.25 66.2
L 93.15 65.55 83.55 81.45 84.6 82.1 94.25 66.2
M 100.95 72.6
L 99.65 72.3 90.7 87.05 91.8 87.65 100.95 72.6
M 94.3 73.25
L 93.2 72.6 83.6 88.5 84.7 89.1 94.3 73.25
M 82.8 62.35
L 81.55 62.05 76.65 70.15 77.9 70.45 82.8 62.35
M 85.9 68.65
L 84.6 68.35 75.65 83.2 76.7 83.8 85.9 68.65
M 85.25 66.3
L 83.95 66 78.7 74.6 79.75 75.3 85.25 66.3
M 89.15 51.4
L 87.85 51.1 82.9 59.15 84.2 59.45 89.15 51.4
M 99.4 61.3
L 98.1 61 89.3 75.65 90.35 76.25 99.4 61.3
M 97.95 56.3
L 96.65 56 87.85 70.6 88.9 71.2 97.95 56.3
M 119.85 67.35
L 118.6 67.05 109.7 81.7 110.8 82.35 119.85 67.35
M 121.35 72.4
L 120.05 72.1 111.2 86.7 112.3 87.35 121.35 72.4
M 113.95 73.6
L 112.65 73.3 103.7 88.1 104.8 88.7 113.95 73.6
M 105.25 72.7
L 104 72.4 99.1 80.4 100.4 80.7 105.25 72.7
M 104.75 69.6
L 103.45 69.3 94.55 84.05 95.6 84.65 104.75 69.6
M 109.15 71.9
L 110.4 72.2 115.3 64.15 114.05 63.85 109.15 71.9
M 106.4 72.45
L 107.65 72.75 112.55 64.75 111.25 64.45 106.4 72.45
M 89.85 46.25
L 88.55 45.95 83.7 54.05 84.95 54.35 89.85 46.25
M 86.55 47.7
L 85.25 47.4 80.35 55.45 81.65 55.75 86.55 47.7
M 112.55 39.3
L 111.5 38.65 101.9 54.55 102.95 55.2 112.55 39.3
M 158.85 47.4
L 157.55 47.1 152.65 55.15 153.95 55.45 158.85 47.4
M 147.8 45.65
L 146.55 45.35 137.65 60 138.75 60.6 147.8 45.65
M 129.05 47.15
L 127.75 46.85 118.9 61.5 120 62.1 129.05 47.15
M 129.95 34.8
L 128.65 34.5 123.7 42.55 125 42.85 129.95 34.8
M 127.35 31.1
L 126.05 30.8 121.15 38.85 122.45 39.15 127.35 31.1
M 130.65 29.65
L 129.35 29.35 124.5 37.45 125.75 37.75 130.65 29.65
M 173.85 87.45
L 172.75 87.2 171.55 89.2 174.2 89.2 174.2 86.85 173.85 87.45
M 174.2 83.4
L 172.95 85.45 174 86.05 174.2 85.75 174.2 83.4
M 174.2 77.95
L 174.2 75.55 171.4 80.1 172.7 80.4 174.2 77.95
M 174.2 82.15
L 174.2 79.7 168.45 89.2 169.9 89.2 174.2 82.15
M 173.25 72.3
L 171.95 72 163 86.75 163.6 87.05 162.3 89.2 163.7 89.2 164.85 87.3 164.25 87.15 165.95 84.35 166.25 84.4 171.2 76.35 170.85 76.3 173.25 72.3
M 174.2 74
L 174.2 71.6 166.85 83.75 167.9 84.35 174.2 74
M 166.55 65.9
L 165.45 65.25 159 75.95 158.25 75.8 158.85 74.75 157.75 74.1 153.7 80.8 152.75 80.2 143.15 96.1 144.2 96.75 148.3 90.05 149.25 90.65 149.35 90.55 150 90.9 155.9 81.2 156.9 81.8 166.55 65.9
M 166.6 72.95
L 165.5 72.3 155.9 88.2 157 88.8 166.6 72.95
M 171.9 71.2
L 170.6 70.9 167.45 76.15 167.3 76.05 159.35 89.2 161.35 89.2 164.35 84.2 163.85 84.1 166.8 79.25 167 79.3 171.9 71.2
M 164.3 62.25
L 163 61.95 154.1 76.7 155.15 77.3 164.3 62.25
M 167.5 72.4
L 167.3 72.35 162.4 80.4 162.6 80.45 162.05 81.35 163.15 82.05 172 67.35 170.75 67.05 167.5 72.4
M 170.25 56
L 168.95 55.7 160.15 70.3 161.2 70.9 170.25 56
M 171.7 61
L 170.4 60.7 161.6 75.35 162.65 75.95 171.7 61 Z"/>
</g>

<g id="dom_tree_2_0_Layer4_0_FILL">
<path fill="#000000" fill-opacity="0.12941176470588237" stroke="none" d="
M 58 138
Q 62.4 138 74.15 136.7 84.9 135.5 87 135 90.8 134.15 100.85 134 109 133.1 109 128 109 126.65 107.5 124 106 121.35 106 118 110.6 116.85 117.2 117.05 120.85 117.15 127.15 117.45 132.05 117.35 134.3 115.45 137 113.2 137 107.5 137 105.534765625 136 104.3 117.8849609375 104.436328125 105.75 101.8 98.2 99.95 94 99.25 86.85 98 78 98 67.6 98 60 101.15 53.25 104.9 51 106 51.45 107.1 53.45 109.55 54.7 111.05 55 115 46.4 115.3 39.1 117.2 29 119.9 29 124.5 29 127.9 40.05 133 50.95 138 58 138 Z"/>
</g>

<g id="dom_tree_2_0_Layer3_0_FILL">
<path fill="#0A4032" stroke="none" d="
M 87.95 93.7
Q 87.55 93.65 86.5 92.5 85.6 91.45 84.2 91.7
L 84.2 88.2 83.95 88.2
Q 83.95 88.85 82.75 90.35 81.5 91.95 80.6 91.95 74.8 88.45 74.2 85.95
L 73.95 85.95 73.95 89.2
Q 75.3 90.55 75.45 91.7
L 70.2 91.7
Q 69.85 91.35 68.7 90.6 67.6 89.85 67.2 89.45 67.2 89.7 66.95 89.7
L 66.95 92.2
Q 68.1 93.3 73.95 95.3 78.45 96.8 78.45 99.6 78.45 101.05 76.65 102.45 74.1 104.4 73.2 105.7 72.6 106.6 71.7 108.9 70.9 110.85 69.35 113.2 68.35 113.5 66.65 114.3 64.25 115.45 63.2 115.75 65.2 116.25 66.45 116.25 67.3 116.25 69.55 115.75 71.8 115.25 73.2 115.25 74.3 115.25 75.35 116.25 75.55 116.25 76.8 115.9 78.05 115.5 79.2 115.5 82.6 115.5 84.7 117 86.95 118.6 88.7 118.75
L 88.7 117.5
Q 86.25 116.3 86.15 116.2 85.95 115.95 85.95 114 85.95 111.2 88.15 109.7 92.5 106.75 93.95 105.2 95.2 103.9 96.5 100.05 97.45 97.25 97.65 95.75 97.7 95.4 97.7 95.15 98.85 94 102.35 90.85 105.65 87.9 104.95 85.7 103.45 85.7 101.45 85.2
L 100.2 85.2
Q 99.95 86.3 96.45 90.2 94.55 92.35 93.25 93.5 93.1 93.45 92.95 93.45 89.7 93.85 87.95 93.7 Z"/>
</g>

<g id="dom_tree_2_0_Layer2_0_FILL">
<path fill="#43C3A2" stroke="none" d="
M 163.15 61.75
Q 163.15 61.2 162.45 60.9 161.3 60.4 160.4 59.5 161.65 58.25 161.65 57.25 161.65 56.15 160.15 55 160.65 54.5 160.65 53.9
L 160.65 53.4
Q 160.55 53.2 159.9 53 161.55 52.15 161.8 51.55 161.9 51.3 161.9 49.25 161.9 48.1 161.7 47.5 161.45 46.75 160.65 46
L 161.4 45.25
Q 160.9 43.9 160.6 43.3 159.9 41.95 156.15 41
L 156.15 38.5
Q 153.5 38.5 151.65 37.9 149.8 37.25 149.55 37.25 148.35 37.25 147.4 38.5 146.15 36.35 145.65 35.9 145.05 35.25 143.9 35.25 143.5 35.25 143.45 35.4 143.4 35.45 143.4 35.75
L 143.15 35.75
Q 143.15 35.25 143.4 34.5
L 143.4 32.6 143 32.6
Q 143.65 32.25 144.65 31.75 144.55 31.35 144.95 30.65 145.4 29.9 145.4 29.25 145.4 29.1 144.9 28.15 144.4 27.25 144.4 26
L 142.9 26
Q 143.4 24.95 142.5 24.3 142.2 24.1 140.9 23.45 140 20.7 139.45 18.05 139.1 16 139.05 16 139 15.05 138.9 14.15 138.7 12.25 137.05 12.25 134.9 12.75 134.4 12.75 134 10.8 133.7 10.45 133.55 10.25 132.65 10.25 132.05 10.25 131.15 10.8 130.15 11.45 129.65 11.75 129.4 10.85 128.9 10.6 128.45 10.5 128.4 10.5 125.6 12 125.05 12 124.95 12 124.45 11.65 123.95 11.25 123.65 11.25 123.55 11.25 123 11.8 122.4 12.45 122.15 13 121.05 11.8 120.75 11.55 120.4 11.25 119.9 11.25 119.2 11.25 119.1 11.45 118.8 11.95 118.4 12.25 118.4 11 118.1 10.35 117.6 9.5 116.4 9.5 116.15 9.5 115.65 10 115.2 10.5 115.15 10.5 115 9.7 113.95 8.45 112.7 7 111.65 7 110.25 7.65 109.9 7.75 108.4 5.25 107.8 5.25 105.8 6.25 105.15 6.25 105.15 5.9 104.55 4.8 103.9 3.7 103.9 3 101.65 3.5 101.05 3.5 100.35 3.5 99.9 2.55 99.4 1.45 98.9 1.25 98.75 1.5 98.15 2.1 97.4 2.75 96.9 3 96.7 2.45 95.95 1.5 95.15 0.5 94.9 0.5 93.3 1.55 92.65 2.25 92.25 1.35 91.9 0.9 91.5 0.45 91.15 0
L 89.9 0
Q 89.9 1.65 89 3.3 87.95 5.25 86.4 5.25 86.15 5.25 85.7 4.75 85.25 4.25 84.15 4.25 84.1 4.25 83.3 5 82.55 5.75 81.4 5.75
L 81.05 5.1
Q 80.85 5 79.65 5 78.4 5 77.65 5.6 77.35 5.85 77.05 6.25 76.7 6.65 76.4 7.25 76.3 7.15 76.25 7.05 75.5 6.25 74.9 6.25 74.4 6.25 73.4 7.4 72.4 8.5 72.15 8.5 71.85 8.5 71.35 8.25 70.85 8 70.55 8 69.65 8 68.8 8.65 67.65 9.5 67.15 11.25 65.9 10 65.3 10 64.65 10 64.05 10.55 63.35 11.15 63.4 12 62 11.15 60.45 12.7 58.9 14.25 58.9 16.5
L 58.65 16.5
Q 56.9 14.75 55.9 14.75 55.55 14.75 51.85 17.75 49.95 16 49.75 16 49.3 16 48.65 16.65 47.65 17.55 47.35 19.25
L 47.1 19.25
Q 46.9 18.7 46.6 18.55 46.5 18.5 46.1 18.5 44.5 18.5 44.85 22.25
L 44.1 22.5 41.85 22.5
Q 41.85 23 41.6 24.15 41.6 25 42.1 25.5
L 40.6 25.5
Q 40.2 26.75 40.6 28
L 39.35 28
Q 38.9 27.45 38.25 27.3 37.95 27.25 37.25 27.25 36.75 27.25 36.1 27.95 35.05 29.05 35.1 31.25 34.15 31.25 33.2 31.8 31.75 32.65 32.35 34.25 31.4 34.3 30.6 34.8 29.6 35.5 29.6 36.65 29.6 36.75 30 37.1 30.5 37.5 30.85 37.5
L 30.85 37.75
Q 29.9 37.7 29.35 37.85 28.35 38.05 28.35 39.15 28.35 40 30.1 41.75 30.1 41.8 29.2 42.95 28.45 43.9 28.85 45 26.6 45 25.6 45.25
L 25.6 47
Q 26 47.75 26.35 47.75 25.75 48.2 25.45 48.55 24.85 49.1 24.85 49.65 24.85 50.85 25.75 51.3 26.6 51.75 26.6 52.15 26.6 52.65 25.85 53.35 25.1 54.1 25.1 55 25.1 55.4 25.25 55.5
L 25.6 55.5
Q 24.35 56.65 24.35 57.5 24.35 58.7 24.45 58.95 24.65 59.55 25.6 59.5 25.6 59.55 24.6 60.85 23.6 62.1 23.6 62.9 23.6 64.25 25.35 66 24.8 66.55 23.7 66.85 23.1 67 23.1 68.25 23.1 68.95 23.6 69.75 20.85 70 19.85 70.25
L 19.6 70.25
Q 20 70.95 20.85 71.5 19.6 73 19.6 73.5 19.6 74.05 21.2 75
L 16.85 75
Q 16.85 75.1 16.35 75.85 15.85 76.65 15.85 77 15.85 78 18.25 78.25 19.35 78.25 20.35 77.75
L 20.6 77.75
Q 20.2 79.2 20.5 79.7 20.85 80.25 22.35 80.25 23.8 80.25 23.9 80.2 24.05 80.1 24.6 79 24.55 80.55 25.2 80.9 25.4 81 26.5 81 28.05 81 28.6 80 29.8 81.2 30.05 81.35 30.35 81.5 31.6 81.5 32.85 81.5 32.85 81.25
L 32.85 81
Q 33.1 82.5 34.1 82.5 35.8 82.5 36.15 81.95 36.7 80.95 37.6 80.5 37.7 81.45 37.65 82.45 37.8 83 39.1 83 40.5 83 41.05 82.5 41.4 82.2 41.55 81.7 41.35 83.25 43.85 83.25 44.7 83.25 45.05 82.7 45.25 82.35 45.6 81.5 45.95 81 47.55 80.6 48.8 80.25 49.35 80.25 49.35 81.25 49.1 81.5
L 49.1 82.75 51.6 82.75 52.35 82
Q 52.35 82.5 52.1 84.5 52.6 84.5 54.25 84.75 54.65 84.75 55.35 84 55 85.6 55.7 86.4 56.25 87 57.3 87 58 87 58.2 86.75 58.95 85.7 59.15 85.5 59.4 86.65 60.05 87.25 60.55 87.75 61.15 87.75 61.9 87.75 63.4 87.25 63.45 90 65.55 90 66.6 90 66.95 89.45 67.15 89.2 67.4 88 67.35 88.85 68 89.45 68.6 90 69.3 90 70.15 90 70.35 89.45 70.45 88.65 70.65 88 70.8 88.1 71.4 88.9 71.85 89.5 72.65 89.5 73.1 89.5 73.95 87.95 74.4 87.15 74.9 86 75.15 86 75.15 85.75 75.65 86.8 77.8 88.2 80.15 89.75 81.8 89.75 82 89.75 82.9 88.5 83.4 88.85 84.45 89.5 85.3 90 85.8 90 86.6 90 86.7 89.95 87.1 89.8 87.15 89 87.95 91 90.9 91 91.9 91 92.1 90.5 92.35 89.75 92.4 89.75 92.9 90.25 93.3 90.95 93.55 91.3 93.9 92 94.3 92 95.3 91.45 96.25 90.9 96.65 90.5 98.7 93.5 100.4 93.5 101.2 93.5 102.65 92
L 102.9 92
Q 102.5 93 103.25 93.7 103.8 94.25 104.4 94.25 104.85 94.25 105.35 93.6 106.4 92.25 106.65 92 107.3 92.8 107.9 93.85 108.6 94.5 110.65 94.5 111.15 94.5 111.5 94.35 111.9 94.2 111.9 94 112.15 94 112.15 93.75 112.8 95.8 112.85 95.85 113 96 114.55 96 115.75 96 117.65 94.25 117.7 94.25 118.3 94.85 119.3 95.55 121.15 96
L 122.65 96
Q 123.2 95.15 123.45 94.55 123.9 93.5 123.9 92.25 124.1 92.25 125.75 92.9 127.4 93.5 127.8 93.5 128.9 93.5 129 92.7 128.9 91.7 128.9 91.25
L 130.9 91.25
Q 133.9 91.75 135.8 91.75 136.65 91.75 136.85 90.3 136.9 89.85 136.9 88.25 137.6 89.5 138 89.7 138.2 89.75 139.65 89.75 139.65 89.8 139.7 89.9 139.8 90.05 140.25 90.25 141 90.55 141.7 90.35 143.85 89.85 144.4 85.25
L 148.15 85.25
Q 148.4 84.25 148.4 83.75 149.25 83.75 151.3 84.4 153.4 85 153.9 85
L 153.9 83
Q 155.85 82.85 157.5 83 158.15 82.9 158.15 80.9 158.15 79.75 157.4 78.75 157.9 78.75 159.05 79 160.15 79 160.15 76.75 160.15 76.2 159.9 75.5 159.4 74.35 158.4 73.5 159.3 73.1 159.85 72.9 159.9 72.85 159.9 72.15 159.9 70.9 158.55 70 157.45 69.25 156.65 69.25
L 156.65 69
Q 157.7 69.35 158.35 68.7 158.6 68.4 159.15 67.25
L 159.15 64.25 158.4 64.25
Q 159.5 64.05 161.6 63.85 163.15 63.5 163.15 61.75 Z"/>
</g>

<g id="Mask_dom_tree_2_0_1_MASK_0_FILL">
<path fill="#FFFFFF" stroke="none" d="
M 163.15 61.75
Q 163.15 61.2 162.45 60.9 161.3 60.4 160.4 59.5 161.65 58.25 161.65 57.25 161.65 56.15 160.15 55 160.65 54.5 160.65 53.9
L 160.65 53.4
Q 160.55 53.2 159.9 53 161.55 52.15 161.8 51.55 161.9 51.3 161.9 49.25 161.9 48.1 161.7 47.5 161.45 46.75 160.65 46
L 161.4 45.25
Q 160.9 43.9 160.6 43.3 159.9 41.95 156.15 41
L 156.15 38.5
Q 153.5 38.5 151.65 37.9 149.8 37.25 149.55 37.25 148.35 37.25 147.4 38.5 146.15 36.35 145.65 35.9 145.05 35.25 143.9 35.25 143.5 35.25 143.45 35.4 143.4 35.45 143.4 35.75
L 143.15 35.75
Q 143.15 35.25 143.4 34.5
L 143.4 32.6 143 32.6
Q 143.65 32.25 144.65 31.75 144.55 31.35 144.95 30.65 145.4 29.9 145.4 29.25 145.4 29.1 144.9 28.15 144.4 27.25 144.4 26
L 142.9 26
Q 143.4 24.95 142.5 24.3 142.2 24.1 140.9 23.45 140 20.7 139.45 18.05 139.1 16 139.05 16 139 15.05 138.9 14.15 138.7 12.25 137.05 12.25 134.9 12.75 134.4 12.75 134 10.8 133.7 10.45 133.55 10.25 132.65 10.25 132.05 10.25 131.15 10.8 130.15 11.45 129.65 11.75 129.4 10.85 128.9 10.6 128.45 10.5 128.4 10.5 125.6 12 125.05 12 124.95 12 124.45 11.65 123.95 11.25 123.65 11.25 123.55 11.25 123 11.8 122.4 12.45 122.15 13 121.05 11.8 120.75 11.55 120.4 11.25 119.9 11.25 119.2 11.25 119.1 11.45 118.8 11.95 118.4 12.25 118.4 11 118.1 10.35 117.6 9.5 116.4 9.5 116.15 9.5 115.65 10 115.2 10.5 115.15 10.5 115 9.7 113.95 8.45 112.7 7 111.65 7 110.25 7.65 109.9 7.75 108.4 5.25 107.8 5.25 105.8 6.25 105.15 6.25 105.15 5.9 104.55 4.8 103.9 3.7 103.9 3 101.65 3.5 101.05 3.5 100.35 3.5 99.9 2.55 99.4 1.45 98.9 1.25 98.75 1.5 98.15 2.1 97.4 2.75 96.9 3 96.7 2.45 95.95 1.5 95.15 0.5 94.9 0.5 93.3 1.55 92.65 2.25 92.25 1.35 91.9 0.9 91.5 0.45 91.15 0
L 89.9 0
Q 89.9 1.65 89 3.3 87.95 5.25 86.4 5.25 86.15 5.25 85.7 4.75 85.25 4.25 84.15 4.25 84.1 4.25 83.3 5 82.55 5.75 81.4 5.75
L 81.05 5.1
Q 80.85 5 79.65 5 78.4 5 77.65 5.6 77.35 5.85 77.05 6.25 76.7 6.65 76.4 7.25 76.3 7.15 76.25 7.05 75.5 6.25 74.9 6.25 74.4 6.25 73.4 7.4 72.4 8.5 72.15 8.5 71.85 8.5 71.35 8.25 70.85 8 70.55 8 69.65 8 68.8 8.65 67.65 9.5 67.15 11.25 65.9 10 65.3 10 64.65 10 64.05 10.55 63.35 11.15 63.4 12 62 11.15 60.45 12.7 58.9 14.25 58.9 16.5
L 58.65 16.5
Q 56.9 14.75 55.9 14.75 55.55 14.75 51.85 17.75 49.95 16 49.75 16 49.3 16 48.65 16.65 47.65 17.55 47.35 19.25
L 47.1 19.25
Q 46.9 18.7 46.6 18.55 46.5 18.5 46.1 18.5 44.5 18.5 44.85 22.25
L 44.1 22.5 41.85 22.5
Q 41.85 23 41.6 24.15 41.6 25 42.1 25.5
L 40.6 25.5
Q 40.2 26.75 40.6 28
L 39.35 28
Q 38.9 27.45 38.25 27.3 37.95 27.25 37.25 27.25 36.75 27.25 36.1 27.95 35.05 29.05 35.1 31.25 34.15 31.25 33.2 31.8 31.75 32.65 32.35 34.25 31.4 34.3 30.6 34.8 29.6 35.5 29.6 36.65 29.6 36.75 30 37.1 30.5 37.5 30.85 37.5
L 30.85 37.75
Q 29.9 37.7 29.35 37.85 28.35 38.05 28.35 39.15 28.35 40 30.1 41.75 30.1 41.8 29.2 42.95 28.45 43.9 28.85 45 26.6 45 25.6 45.25
L 25.6 47
Q 26 47.75 26.35 47.75 25.75 48.2 25.45 48.55 24.85 49.1 24.85 49.65 24.85 50.85 25.75 51.3 26.6 51.75 26.6 52.15 26.6 52.65 25.85 53.35 25.1 54.1 25.1 55 25.1 55.4 25.25 55.5
L 25.6 55.5
Q 24.35 56.65 24.35 57.5 24.35 58.7 24.45 58.95 24.65 59.55 25.6 59.5 25.6 59.55 24.6 60.85 23.6 62.1 23.6 62.9 23.6 64.25 25.35 66 24.8 66.55 23.7 66.85 23.1 67 23.1 68.25 23.1 68.95 23.6 69.75 20.85 70 19.85 70.25
L 19.6 70.25
Q 20 70.95 20.85 71.5 19.6 73 19.6 73.5 19.6 74.05 21.2 75
L 16.85 75
Q 16.85 75.1 16.35 75.85 15.85 76.65 15.85 77 15.85 78 18.25 78.25 19.35 78.25 20.35 77.75
L 20.6 77.75
Q 20.2 79.2 20.5 79.7 20.85 80.25 22.35 80.25 23.8 80.25 23.9 80.2 24.05 80.1 24.6 79 24.55 80.55 25.2 80.9 25.4 81 26.5 81 28.05 81 28.6 80 29.8 81.2 30.05 81.35 30.35 81.5 31.6 81.5 32.85 81.5 32.85 81.25
L 32.85 81
Q 33.1 82.5 34.1 82.5 35.8 82.5 36.15 81.95 36.7 80.95 37.6 80.5 37.7 81.45 37.65 82.45 37.8 83 39.1 83 40.5 83 41.05 82.5 41.4 82.2 41.55 81.7 41.35 83.25 43.85 83.25 44.7 83.25 45.05 82.7 45.25 82.35 45.6 81.5 45.95 81 47.55 80.6 48.8 80.25 49.35 80.25 49.35 81.25 49.1 81.5
L 49.1 82.75 51.6 82.75 52.35 82
Q 52.35 82.5 52.1 84.5 52.6 84.5 54.25 84.75 54.65 84.75 55.35 84 55 85.6 55.7 86.4 56.25 87 57.3 87 58 87 58.2 86.75 58.95 85.7 59.15 85.5 59.4 86.65 60.05 87.25 60.55 87.75 61.15 87.75 61.9 87.75 63.4 87.25 63.45 90 65.55 90 66.6 90 66.95 89.45 67.15 89.2 67.4 88 67.35 88.85 68 89.45 68.6 90 69.3 90 70.15 90 70.35 89.45 70.45 88.65 70.65 88 70.8 88.1 71.4 88.9 71.85 89.5 72.65 89.5 73.1 89.5 73.95 87.95 74.4 87.15 74.9 86 75.15 86 75.15 85.75 75.65 86.8 77.8 88.2 80.15 89.75 81.8 89.75 82 89.75 82.9 88.5 83.4 88.85 84.45 89.5 85.3 90 85.8 90 86.6 90 86.7 89.95 87.1 89.8 87.15 89 87.95 91 90.9 91 91.9 91 92.1 90.5 92.35 89.75 92.4 89.75 92.9 90.25 93.3 90.95 93.55 91.3 93.9 92 94.3 92 95.3 91.45 96.25 90.9 96.65 90.5 98.7 93.5 100.4 93.5 101.2 93.5 102.65 92
L 102.9 92
Q 102.5 93 103.25 93.7 103.8 94.25 104.4 94.25 104.85 94.25 105.35 93.6 106.4 92.25 106.65 92 107.3 92.8 107.9 93.85 108.6 94.5 110.65 94.5 111.15 94.5 111.5 94.35 111.9 94.2 111.9 94 112.15 94 112.15 93.75 112.8 95.8 112.85 95.85 113 96 114.55 96 115.75 96 117.65 94.25 117.7 94.25 118.3 94.85 119.3 95.55 121.15 96
L 122.65 96
Q 123.2 95.15 123.45 94.55 123.9 93.5 123.9 92.25 124.1 92.25 125.75 92.9 127.4 93.5 127.8 93.5 128.9 93.5 129 92.7 128.9 91.7 128.9 91.25
L 130.9 91.25
Q 133.9 91.75 135.8 91.75 136.65 91.75 136.85 90.3 136.9 89.85 136.9 88.25 137.6 89.5 138 89.7 138.2 89.75 139.65 89.75 139.65 89.8 139.7 89.9 139.8 90.05 140.25 90.25 141 90.55 141.7 90.35 143.85 89.85 144.4 85.25
L 148.15 85.25
Q 148.4 84.25 148.4 83.75 149.25 83.75 151.3 84.4 153.4 85 153.9 85
L 153.9 83
Q 155.85 82.85 157.5 83 158.15 82.9 158.15 80.9 158.15 79.75 157.4 78.75 157.9 78.75 159.05 79 160.15 79 160.15 76.75 160.15 76.2 159.9 75.5 159.4 74.35 158.4 73.5 159.3 73.1 159.85 72.9 159.9 72.85 159.9 72.15 159.9 70.9 158.55 70 157.45 69.25 156.65 69.25
L 156.65 69
Q 157.7 69.35 158.35 68.7 158.6 68.4 159.15 67.25
L 159.15 64.25 158.4 64.25
Q 159.5 64.05 161.6 63.85 163.15 63.5 163.15 61.75 Z"/>
</g>

<g id="dom_tree_2_0_Layer1_0_FILL">
<path fill="#25826A" stroke="none" d="
M 151.35 102.3
L 152.2 100.9 152.2 98.55 150.3 101.7 151.35 102.3
M 72.5 81.2
L 73.6 81.8 82.1 67.75 80.8 67.45 72.5 81.2
M 53.25 75.55
L 52.2 74.9 42.55 90.8 43.6 91.45 53.25 75.55
M 59.85 74.9
L 58.6 74.6 49.65 89.35 50.7 90 59.85 74.9
M 51 64.8
L 49.7 64.5 40.75 79.3 41.85 79.9 51 64.8
M 58.7 69.9
L 57.4 69.6 48.75 83.95 49.8 84.6 58.7 69.9
M 49.6 55.95
L 48.3 55.65 43.45 63.65 44.7 63.95 49.6 55.95
M 59.7 57.5
L 58.4 57.2 50.1 70.9 50.25 71 42.5 83.75 43.6 84.4 53.2 68.5 53.05 68.4 59.7 57.5
M 56.9 58.55
L 55.65 58.25 46.75 72.9 47.85 73.55 56.9 58.55
M 52.35 55.35
L 51.1 55.05 46.2 63.1 47.45 63.4 52.35 55.35
M 71.7 73
L 70.65 72.4 61.05 88.3 62.1 88.9 71.7 73
M 75.35 63.7
L 74.1 63.4 65.4 77.7 66.5 78.4 75.35 63.7
M 76.6 68.65
L 75.3 68.35 66.35 83.1 67.45 83.7 76.6 68.65
M 63.65 71.9
L 62.4 71.6 53.45 86.35 54.6 87 63.65 71.9
M 69.95 69.3
L 68.85 68.65 59.25 84.55 60.35 85.15 69.95 69.3
M 61.1 71.15
L 62.15 71.8 71.75 55.9 70.7 55.25 61.1 71.15
M 63.5 58.35
L 62.2 58.05 53.2 72.9 54.25 73.5 63.5 58.35
M 69.55 52.2
L 68.25 51.9 59.35 66.7 60.45 67.3 69.55 52.2
M 62.8 55.95
L 61.55 55.65 56.3 64.35 56.45 64.45 48.25 77.9 49.35 78.55 58.4 63.6 58.2 63.55 62.8 55.95
M 77 51
L 75.7 50.7 66.85 65.35 67.95 65.95 77 51
M 34.8 92.55
L 35.85 93.2 45.5 77.3 44.45 76.7 34.8 92.55
M 34.6 85.5
L 35.7 86.1 44.85 71 43.6 70.7 34.6 85.5
M 31.5 83.45
L 32.55 84.1 41.1 70.1 39.8 69.8 31.5 83.45
M 31.6 75.25
L 32.65 75.85 41.8 60.8 40.5 60.5 31.6 75.25
M 37.7 76.95
L 38.75 77.55 44.2 68.55 42.95 68.25 37.7 76.95
M 16.45 63.45
L 14.95 63.45 9.55 72.4 10.65 73 16.45 63.45
M 17.2 63.45
L 15.75 65.8 16.8 66.5 18.7 63.45 17.2 63.45
M 0.55 72.2
L 0 73.1 1.1 73.7 2 72.2 0.55 72.2
M 9.45 64.45
L 9.45 65.15 10.2 65.55 11.5 63.45 10.05 63.45 9.45 64.45
M 19.85 53.55
L 19.2 53.4 19.2 54.65 19.85 53.55
M 19.35 50.45
L 19.2 50.45 19.2 50.7 19.35 50.45
M 31.35 64.45
L 30.25 63.8 20.65 79.7 21.75 80.3 31.35 64.45
M 36.15 71.6
L 37.45 71.9 42.3 63.9 41.05 63.6 36.15 71.6
M 38 63.8
L 36.7 63.5 27.75 78.25 28.85 78.85 38 63.8
M 33.1 68.15
L 32.05 67.55 22.45 83.45 23.5 84.05 33.1 68.15
M 20.6 72.65
L 21.65 73.3 31.3 57.4 30.2 56.75 20.6 72.65
M 23.6 66.25
L 22.5 65.6 12.9 81.45 14 82.15 23.6 66.25
M 22.95 59.85
L 21.65 59.55 12.7 74.4 13.75 75 22.95 59.85
M 22.3 57.5
L 21 57.2 19.2 60.15 19.2 62.6 22.3 57.5
M 29.05 53.75
L 27.75 53.45 18.85 68.2 19.9 68.8 29.05 53.75
M 36.75 58.85
L 35.5 58.55 26.8 72.85 27.9 73.55 36.75 58.85
M 36.45 52.5
L 35.15 52.2 26.35 66.85 27.4 67.45 36.45 52.5
M 26.2 42.6
L 24.9 42.3 19.95 50.35 21.25 50.65 26.2 42.6
M 35 47.5
L 33.7 47.2 24.9 61.8 25.95 62.4 35 47.5
M 26.9 37.45
L 25.6 37.15 20.75 45.25 22 45.55 26.9 37.45
M 19.2 43.7
L 19.2 46.15 23.6 38.9 22.3 38.6 19.2 43.7
M 75.5 45.95
L 74.25 45.65 65.35 60.3 66.45 60.9 75.5 45.95
M 67.85 29.6
L 66.55 29.3 61.65 37.35 62.95 37.65 67.85 29.6
M 65 35.95
L 66.25 36.25 71.15 28.15 69.85 27.85 65 35.95
M 70.45 33.3
L 69.15 33 64.2 41.05 65.5 41.35 70.45 33.3
M 53.05 37.8
L 52 37.15 42.4 53.05 43.45 53.7 53.05 37.8
M 48.15 47.25
L 49.25 47.85 58.3 32.9 57 32.6 48.15 47.25
M 152.2 97.3
L 152.2 94.95 145 106.85 146.1 107.45 152.2 97.3
M 153.1 89.2
L 153.9 87.9 152.85 87.25 143.2 103.15 144.3 103.75 152.2 90.7 152.2 89.2 153.1 89.2
M 160.5 87.2
L 159.25 86.9 157.85 89.2 159.3 89.2 160.5 87.2
M 149.4 96.3
L 150.45 96.95 152.2 94.05 152.2 91.7 149.4 96.3
M 146.15 89.65
L 145.1 89 135.45 104.9 136.5 105.55 146.15 89.65
M 159.35 82.25
L 158.1 81.95 153.7 89.2 155.15 89.2 159.35 82.25
M 133.05 90.7
L 135.45 86.7 136.35 82.8 131.95 90.05 133.05 90.7
M 135.25 97.85
L 136.3 98.45 145.55 83.3 144.25 83 135.25 97.85
M 134.1 92.4
L 135.05 88.45 126.05 103.35 127.1 103.95 134.1 92.4
M 132.15 95.85
L 133.2 96.45 141.75 82.45 140.45 82.15 132.15 95.85
M 122.7 94.25
L 123.75 94.9 132.3 80.85 131.05 80.55 122.7 94.25
M 127.15 83.75
L 125.9 83.45 121 91.55 122.25 91.85 127.15 83.75
M 135.45 79.3
L 134.15 79 128.9 87.7 130 88.3 135.45 79.3
M 131.65 66.4
L 132.75 67 141.85 51.9 140.55 51.6 131.65 66.4
M 136.4 64.4
L 135.35 63.75 125.7 79.65 126.75 80.3 136.4 64.4
M 122.4 70.6
L 123.45 71.2 132 57.2 130.7 56.9 122.4 70.6
M 135.8 58.05
L 134.5 57.75 125.5 72.6 126.3 73.05 122.35 79.55 123.65 79.85 128.5 71.8 127.55 71.6 135.8 58.05
M 135.1 55.65
L 133.85 55.35 128.6 64.05 129.65 64.65 135.1 55.65
M 150.75 61.95
L 149.5 61.65 140.55 76.45 141.6 77.05 150.75 61.95
M 157.55 66
L 156.25 65.7 151 74.3 152.05 75 157.55 66
M 156.8 70.7
L 158.2 68.35 156.9 68.05 151.45 77.15 150.3 76.85 141.4 91.65 142.5 92.25 148.1 83 148.6 83.3 147.4 85.25 148.5 85.85 157.55 70.9 156.8 70.7
M 154.4 67.45
L 153.1 67.15 144.8 80.9 143.6 80.6 138.35 89.3 139.4 89.9 144.85 80.95 145.9 81.5 154.4 67.45
M 148.95 69.85
L 150.2 70.15 155.1 62.05 153.85 61.75 148.95 69.85
M 144.15 62.65
L 143.1 62 133.45 77.9 134.55 78.5 144.15 62.65
M 145.9 66.3
L 144.85 65.7 135.3 81.55 134.85 81.45 125.8 96.25 126.85 96.9 135.95 82 136.35 82.2 145.9 66.3
M 144.05 55.6
L 143 54.95 133.4 70.85 134.45 71.5 144.05 55.6
M 149.6 57
L 148.35 56.7 139.65 71.05 140.7 71.7 149.6 57
M 149.3 50.7
L 148 50.4 139.15 65.05 140.25 65.65 149.3 50.7
M 154.6 58.95
L 153.3 58.65 144.4 73.45 145.45 74.05 154.6 58.95
M 160.15 50.8
L 155.2 58.85 156.5 59.15 161.45 51.1 160.15 50.8
M 156 53.75
L 157.25 54.05 162.15 45.95 160.85 45.65 156 53.75
M 112.6 98.15
L 113.65 98.8 122.8 83.7 121.55 83.4 112.6 98.15
M 111.7 92.75
L 112.75 93.4 121.65 78.7 120.35 78.4 111.7 92.75
M 118 88.05
L 116.9 87.4 107.3 103.3 108.4 103.9 118 88.05
M 116.4 95.15
L 117.55 95.8 126.6 80.7 125.35 80.4 116.4 95.15
M 107.15 77.35
L 105.9 77.05 100.65 85.75 101.7 86.35 107.15 77.35
M 108.45 86.1
L 107.4 85.5 97.75 101.35 98.8 102 108.45 86.1
M 116.15 77.3
L 115.05 76.7 105.45 92.55 106.55 93.2 116.15 77.3
M 116.2 84.35
L 115.15 83.7 105.5 99.6 106.55 100.25 116.2 84.35
M 97.55 94.3
L 98.65 94.9 107.8 79.8 106.55 79.5 97.55 94.3
M 94.45 92.25
L 95.5 92.9 104.05 78.9 102.75 78.6 94.45 92.25
M 86.55 75.05
L 85.45 74.4 75.85 90.25 76.95 90.95 86.55 75.05
M 96.05 76.95
L 95 76.35 85.4 92.25 86.45 92.85 96.05 76.95
M 92 62.55
L 90.7 62.25 81.8 77 82.85 77.6 92 62.55
M 94.3 73.25
L 93.2 72.6 83.6 88.5 84.7 89.1 94.3 73.25
M 100.95 72.6
L 99.65 72.3 90.7 87.05 91.8 87.65 100.95 72.6
M 94.25 66.2
L 93.15 65.55 83.55 81.45 84.6 82.1 94.25 66.2
M 99.7 67.65
L 98.45 67.35 89.75 81.65 90.85 82.35 99.7 67.65
M 85.25 66.3
L 83.95 66 78.7 74.6 79.75 75.3 85.25 66.3
M 85.9 68.65
L 84.6 68.35 75.65 83.2 76.7 83.8 85.9 68.65
M 82.8 62.35
L 81.55 62.05 76.65 70.15 77.9 70.45 82.8 62.35
M 89.15 51.4
L 87.85 51.1 82.9 59.15 84.2 59.45 89.15 51.4
M 99.4 61.3
L 98.1 61 89.3 75.65 90.35 76.25 99.4 61.3
M 97.95 56.3
L 96.65 56 87.85 70.6 88.9 71.2 97.95 56.3
M 113.95 73.6
L 112.65 73.3 103.7 88.1 104.8 88.7 113.95 73.6
M 121.35 72.4
L 120.05 72.1 111.2 86.7 112.3 87.35 121.35 72.4
M 119.85 67.35
L 118.6 67.05 109.7 81.7 110.8 82.35 119.85 67.35
M 111.25 64.45
L 106.4 72.45 107.65 72.75 112.55 64.75 111.25 64.45
M 105.25 72.7
L 104 72.4 99.1 80.4 100.4 80.7 105.25 72.7
M 109.15 71.9
L 110.4 72.2 115.3 64.15 114.05 63.85 109.15 71.9
M 104.75 69.6
L 103.45 69.3 94.55 84.05 95.6 84.65 104.75 69.6
M 112.55 39.3
L 111.5 38.65 101.9 54.55 102.95 55.2 112.55 39.3
M 86.55 47.7
L 85.25 47.4 80.35 55.45 81.65 55.75 86.55 47.7
M 89.85 46.25
L 88.55 45.95 83.7 54.05 84.95 54.35 89.85 46.25
M 147.8 45.65
L 146.55 45.35 137.65 60 138.75 60.6 147.8 45.65
M 158.85 47.4
L 157.55 47.1 152.65 55.15 153.95 55.45 158.85 47.4
M 129.05 47.15
L 127.75 46.85 118.9 61.5 120 62.1 129.05 47.15
M 130.65 29.65
L 129.35 29.35 124.5 37.45 125.75 37.75 130.65 29.65
M 127.35 31.1
L 126.05 30.8 121.15 38.85 122.45 39.15 127.35 31.1
M 129.95 34.8
L 128.65 34.5 123.7 42.55 125 42.85 129.95 34.8
M 173.85 87.45
L 172.75 87.2 171.55 89.2 174.2 89.2 174.2 86.85 173.85 87.45
M 174.2 82.15
L 174.2 79.7 168.45 89.2 169.9 89.2 174.2 82.15
M 174.2 77.95
L 174.2 75.55 171.4 80.1 172.7 80.4 174.2 77.95
M 174.2 83.4
L 172.95 85.45 174 86.05 174.2 85.75 174.2 83.4
M 173.25 72.3
L 171.95 72 163 86.75 163.6 87.05 162.3 89.2 163.7 89.2 164.85 87.3 164.25 87.15 165.95 84.35 166.25 84.4 171.2 76.35 170.85 76.3 173.25 72.3
M 174.2 74
L 174.2 71.6 166.85 83.75 167.9 84.35 174.2 74
M 166.55 65.9
L 165.45 65.25 159 75.95 158.25 75.8 158.85 74.75 157.75 74.1 153.7 80.8 152.75 80.2 143.15 96.1 144.2 96.75 148.3 90.05 149.25 90.65 149.35 90.55 150 90.9 155.9 81.2 156.9 81.8 166.55 65.9
M 166.6 72.95
L 165.5 72.3 155.9 88.2 157 88.8 166.6 72.95
M 171.9 71.2
L 170.6 70.9 167.45 76.15 167.3 76.05 159.35 89.2 161.35 89.2 164.35 84.2 163.85 84.1 166.8 79.25 167 79.3 171.9 71.2
M 164.3 62.25
L 163 61.95 154.1 76.7 155.15 77.3 164.3 62.25
M 167.5 72.4
L 167.3 72.35 162.4 80.4 162.6 80.45 162.05 81.35 163.15 82.05 172 67.35 170.75 67.05 167.5 72.4
M 171.7 61
L 170.4 60.7 161.6 75.35 162.65 75.95 171.7 61
M 170.25 56
L 168.95 55.7 160.15 70.3 161.2 70.9 170.25 56 Z"/>
</g>

<g id="campfire_0_Layer1_0_FILL">
<path fill="#333333" stroke="none" d="
M 33 74.85
L 33 79.85 33 80.35 41.5 80.35 41.5 71.95 33 71.95 33 74.85
M 8 71.95
L 0 71.95 0 79.85 8 79.85 8 74.85 8 71.95 Z"/>

<path fill="#5B2F21" stroke="none" d="
M 33 79.85
L 33 74.85 22 74.85 22 79.85 33 79.85
M 20 74.85
L 8 74.85 8 79.85 20 79.85 20 74.85 Z"/>

<path fill="#009999" stroke="none" d="
M 79.45 5.45
Q 77.95 7 76.5 9.05 73.6 13.15 71.25 18.65 70.5 20.5 69.95 22
L 69.95 22.05
Q 69.7 22.75 69.5 23.35
L 71.5 57.35
Q 71.35 57.5 75.45 57.85 74.45 46.85 74.45 43.6 74.45 37.9 76.45 34.35 78 31.55 79.7 31.4 79.8 31.35 79.95 31.35 80.25 31.35 80.55 31.4
L 81.5 23.3
Q 80.55 23.2 79.4 23
L 80.9 13.1
Q 80.05 12.85 79.45 12.35 78.45 11.5 78.45 10.35 78.45 8.3 80.5 6.35
L 79.45 5.45
M 101.3 17.65
L 101.45 17.65 101.45 17.55
Q 101.35 17.55 101.3 17.65 Z"/>

<path fill="#007171" stroke="none" d="
M 88.45 44.35
Q 87.65 37.65 86.7 35.55 85.2 32.2 81.8 31.55 81.2 31.4 80.55 31.4 80.25 31.35 79.95 31.35 79.8 31.35 79.7 31.4 78 31.55 76.45 34.35 74.45 37.9 74.45 43.6 74.45 46.85 75.45 57.85 79.25 58.1 86.8 58.55 89.1 58.7 91.45 58.8
L 91.45 58.35
Q 89.7 54.6 88.45 44.35
M 101.45 17.55
L 101.45 17.65 101.45 17.85
Q 110.95 21.75 119.55 32.25 122.45 35.75 124.5 38.9
L 116 18.85
Q 115.75 17 113.25 13.9 112.5 13 111.65 12.1 107.6 13.45 104.55 15.35 104.15 15.55 101.45 17.55 Z"/>

<path fill="#018989" stroke="none" d="
M 101.45 11.35
L 101.45 8.35
Q 100.6 7.45 95.25 5.55 93.95 5.1 92.85 4.7 91.7 4.3 90.75 4 89.25 3.85 87.7 3.85 83.15 3.85 80.5 6.35 78.45 8.3 78.45 10.35 78.45 11.5 79.45 12.35 80.05 12.85 80.9 13.1 81.7 13.35 82.7 13.35 84.65 13.35 91.3 12.35 97.75 11.4 101.25 11.35 101.35 11.35 101.45 11.35 Z"/>

<path fill="#189191" stroke="none" d="
M 125.55 41.45
L 124.5 38.9
Q 122.45 35.75 119.55 32.25 110.95 21.75 101.45 17.85
L 101.45 17.65 101.3 17.65
Q 101.35 17.55 101.45 17.55 104.15 15.55 104.55 15.35 107.6 13.45 111.65 12.1 106.6 6.9 97 1.85 87.55 -3.15 79.55 5.35 79.5 5.35 79.45 5.45
L 80.5 6.35
Q 83.15 3.85 87.7 3.85 89.25 3.85 90.75 4 91.7 4.3 92.85 4.7 93.95 5.1 95.25 5.55 100.6 7.45 101.45 8.35
L 101.45 11.35
Q 101.35 11.35 101.25 11.35 97.75 11.4 91.3 12.35 84.65 13.35 82.7 13.35 81.7 13.35 80.9 13.1
L 79.4 23
Q 80.55 23.2 81.5 23.3
L 80.55 31.4
Q 81.2 31.4 81.8 31.55 85.2 32.2 86.7 35.55 87.65 37.65 88.45 44.35 89.7 54.6 91.45 58.35
L 91.45 58.8
Q 95.7 59.05 100 59.25
L 125.55 41.45 Z"/>
</g>

<g id="fire_0_Layer0_0_FILL">
<path fill="#333333" stroke="none" d="
M 0 65.5
L 0 69.1 8 69.1 8 65.5 0 65.5
M 33 65.5
L 33 69.1 41.5 69.1 41.5 65.5 33 65.5
M 12 17
L 6 17 6 27 12 27 12 17
M 19.5 12.5
L 15.5 12.5 15.5 20 19.5 20 19.5 12.5 Z"/>

<path fill="#FF3300" stroke="none" d="
M 8.5 59
L 4.5 59 4.5 62.5 8.5 62.5 8.5 59
M 28 51.5
L 25 51.5 25 58 28 58 28 51.5
M 22 68
L 22 62 20 62 20 68 22 68
M 26 28.5
L 22.5 28.5 22.5 36 26 36 26 28.5
M 8.5 34
L 8.5 39.5 12.5 39.5 12.5 34 8.5 34
M 13.5 51.5
L 13.5 51 9.5 51 9.5 56 13.5 56 13.5 51.5
M 9 48.5
L 5.5 48.5 5.5 53.5 9 53.5 9 48.5 Z"/>

<path fill="#FF0000" stroke="none" d="
M 17 59.5
L 14 59.5 14 64.5 17 64.5 17 59.5
M 21.5 49
L 17.5 49 17.5 57.5 21.5 57.5 21.5 49
M 24 40
L 24 46 26.5 46 26.5 40 24 40
M 13.5 51
L 13.5 51.5 14 51.5 14 51 13.5 51
M 14.5 34.5
L 14.5 29 14 29 14 41 11.5 41 11.5 47.5 14 47.5 14 44 14.5 44 14.5 47.5 15.5 47.5 15.5 44 18 44 18 34.5 14.5 34.5 Z"/>

<path fill="#666666" stroke="none" d="
M 30.5 37
L 30.5 34 28.5 34 28.5 37 30.5 37
M 6 31.5
L 6 34.5 8 34.5 8 31.5 6 31.5
M 9.5 6
L 9.5 12.5 13.5 12.5 13.5 6 9.5 6
M 19 0
L 15.5 0 15.5 6 19 6 19 0
M 24 8.5
L 21.5 8.5 21.5 13.5 24 13.5 24 8.5
M 28.5 15
L 23.5 15 23.5 23.5 28.5 23.5 28.5 15 Z"/>

<path fill="#CC0000" stroke="none" d="
M 19 39
L 19 45.5 23 45.5 23 39 19 39
M 14.5 48
L 13.5 48 13.5 51 14 51 14.5 51 14.5 48
M 14.5 29
L 14.5 34.5 18 34.5 19.5 34.5 19.5 26 14.5 26 14.5 29 Z"/>
</g>

<g id="hiker_mc_0_Layer0_0_FILL">
<path fill="#432715" stroke="none" d="
M 9.95 20.25
L 9.95 21 9.95 26.5 15.95 26.5 17.2 26.5 17.2 24.25 17.2 20.25 9.95 20.25
M 15.2 -1.5
L 9.45 -1.5 9.45 1 6.2 1 6.2 5.75 9.2 5.75 10.45 5.75 10.45 8 14.2 8 14.2 5.75 15.45 5.75 18.2 5.75 18.2 1 15.2 1 15.2 -1.5 Z"/>

<path fill="#5B2F21" stroke="none" d="
M 4.95 24
L 4.95 24.25 7.95 24.25 7.95 36.5 15.95 36.5 15.95 26.5 9.95 26.5 9.95 21 8.2 21 8.2 24 4.95 24
M 8.2 11.75
L 9.2 11.75 9.2 10.5 8.7 10.5 8.2 10.5 8.2 11.75
M 15.45 10.5
L 15.45 11.75 15.45 13.5 8.2 13.5 8.2 19.5 9.95 19.5 9.95 20.25 17.2 20.25 17.2 24.25 18.7 24.25 18.7 10.5 15.45 10.5 Z"/>

<path fill="#006666" stroke="none" d="
M 9.2 11.75
L 8.2 11.75 8.2 10.5 8.2 8.75 0.95 8.75 0.95 24 4.95 24 8.2 24 8.2 21 9.95 21 9.95 20.25 9.95 19.5 8.2 19.5 8.2 13.5 15.45 13.5 15.45 11.75 9.2 11.75 Z"/>

<path fill="#CCCCCC" stroke="none" d="
M 9.2 10.5
L 9.2 10.2
Q 8.945703125 10.3421875 8.7 10.5
L 9.2 10.5 Z"/>

<path fill="#E1B5DF" stroke="none" d="
M 14.2 8
L 10.45 8 10.45 5.75 9.2 5.75 9.2 10.2 9.2 10.5 9.2 11.75 15.45 11.75 15.45 10.5 15.45 5.75 14.2 5.75 14.2 8 Z"/>
</g>

<path id="path_0_Layer0_0_1_STROKES" stroke="#2F1A0D" stroke-width="5.8" stroke-linejoin="round" stroke-linecap="round" fill="none" d="
M 0 159
Q 12.25 160.5 25.75 161.65 52.75 163.9 59 162 61.55 161.25 76.25 161.85 95.4 162.7 105.65 162.4 146.8 161.15 156 144 165.7 125.9 198.15 113 217.5 105.3 244 100 250.35 98.75 263.55 101.2 271.35 102.7 289.4 106.75 306 110.15 317.3 110.4 332.45 110.75 343 106 361.45 97.65 370.1 89.25 372.25 87.15 375.15 83.8 377.55 81.2 379.95 80 382.6 78.7 398.85 78.05 405.35 77.8 433.45 77.25 483.45 76.25 489.95 73 493.4 71.3 497.6 71.35 502.65 71.4 504.1 71 511.5 68.9 521.95 48
L 525.05 48.65
Q 528.85 49.25 532.45 49.25 543.95 49.25 548.95 43 554.7 35.85 566.85 34.25 577.8 32.8 592.95 36 611.95 40 629.95 42
L 657.95 56 766.95 55 786.95 36 820.95 28 839.95 16 864.95 2 887.95 5 906.95 0 927.95 9"/>

<path id="fire_0_Layer0_0_1_STROKES" stroke="#2F1A0D" stroke-width="1" stroke-linejoin="round" stroke-linecap="round" fill="none" d="
M 14 51
L 14 51.5 13.5 51.5"/>
</defs>

<g id="camp" transform="matrix( 1, 0, 0, 1, 0,0) ">
<g id="bg" transform="matrix( 1, 0, 0, 1, 0,0) ">
<g id="path" transform="matrix( 1, 0, 0, 1, 11,272.05) ">
<g transform="matrix( 1, 0, 0, 1, 0,0) ">
<use filter="url(#Filter_1)" xlink:href="#path_0_Layer0_0_1_STROKES"/>
</g>
</g>

<g id="woods" transform="matrix( 1, 0, 0, 1, -6,73) ">
<g transform="matrix( 1, 0, 0, 1, 586.3,235.05) ">
<g transform="matrix( 1, 0, 0, 1, 0,0) ">
<use xlink:href="#dom_tree_3_0_Layer4_0_FILL"/>
</g>

<g transform="matrix( 1, 0, 0, 1, 0,0) ">
<use xlink:href="#dom_tree_3_0_Layer3_0_FILL"/>
</g>

<g transform="matrix( 1, 0, 0, 1, 0,0) ">
<use xlink:href="#dom_tree_3_0_Layer2_0_FILL"/>
</g>

<mask id="Mask_Mask_1">
<g transform="matrix( 1, 0, 0, 1, 0,0) ">
<use xlink:href="#Mask_dom_tree_3_0_1_MASK_0_FILL"/>
</g>
</mask>

<g mask="url(#Mask_Mask_1)">
<g transform="matrix( 1, 0, 0, 1, 0,0) ">
<use xlink:href="#dom_tree_3_0_Layer1_0_FILL"/>
</g>
</g>
</g>

<g transform="matrix( 1, 0, 0, 1, 452.3,6.35) ">
<g transform="matrix( 1, 0, 0, 1, 0,0) ">
<use xlink:href="#dom_tree_1_0_Layer4_0_FILL"/>
</g>

<g transform="matrix( 1, 0, 0, 1, 0,0) ">
<use xlink:href="#dom_tree_1_0_Layer3_0_FILL"/>
</g>

<g transform="matrix( 1, 0, 0, 1, 0,0) ">
<use xlink:href="#dom_tree_1_0_Layer2_0_FILL"/>
</g>

<mask id="Mask_Mask_2">
<g transform="matrix( 1, 0, 0, 1, 0,0) ">
<use xlink:href="#Mask_dom_tree_1_0_1_MASK_0_FILL"/>
</g>
</mask>

<g mask="url(#Mask_Mask_2)">
<g transform="matrix( 1, 0, 0, 1, 0,0) ">
<use xlink:href="#dom_tree_1_0_Layer1_0_FILL"/>
</g>
</g>
</g>

<g transform="matrix( 1, 0, 0, 1, 777.85,-11.05) ">
<g transform="matrix( 1, 0, 0, 1, 0,0) ">
<use xlink:href="#dom_tree_2_0_Layer4_0_FILL"/>
</g>

<g transform="matrix( 1, 0, 0, 1, 0,0) ">
<use xlink:href="#dom_tree_2_0_Layer3_0_FILL"/>
</g>

<g transform="matrix( 1, 0, 0, 1, 0,0) ">
<use xlink:href="#dom_tree_2_0_Layer2_0_FILL"/>
</g>

<mask id="Mask_Mask_3">
<g transform="matrix( 1, 0, 0, 1, 0,0) ">
<use xlink:href="#Mask_dom_tree_2_0_1_MASK_0_FILL"/>
</g>
</mask>

<g mask="url(#Mask_Mask_3)">
<g transform="matrix( 1, 0, 0, 1, 0,0) ">
<use xlink:href="#dom_tree_2_0_Layer1_0_FILL"/>
</g>
</g>
</g>

<g transform="matrix( 1, 0, 0, 1, 246.05,282.4) ">
<g transform="matrix( 1, 0, 0, 1, 0,0) ">
<use xlink:href="#dom_tree_1_0_Layer4_0_FILL"/>
</g>

<g transform="matrix( 1, 0, 0, 1, 0,0) ">
<use xlink:href="#dom_tree_1_0_Layer3_0_FILL"/>
</g>

<g transform="matrix( 1, 0, 0, 1, 0,0) ">
<use xlink:href="#dom_tree_1_0_Layer2_0_FILL"/>
</g>

<mask id="Mask_Mask_4">
<g transform="matrix( 1, 0, 0, 1, 0,0) ">
<use xlink:href="#Mask_dom_tree_1_0_1_MASK_0_FILL"/>
</g>
</mask>

<g mask="url(#Mask_Mask_4)">
<g transform="matrix( 1, 0, 0, 1, 0,0) ">
<use xlink:href="#dom_tree_1_0_Layer1_0_FILL"/>
</g>
</g>
</g>

<g transform="matrix( 1, 0, 0, 1, 824.2,181) ">
<g transform="matrix( 1, 0, 0, 1, 0,0) ">
<use xlink:href="#dom_tree_3_0_Layer4_0_FILL"/>
</g>

<g transform="matrix( 1, 0, 0, 1, 0,0) ">
<use xlink:href="#dom_tree_3_0_Layer3_0_FILL"/>
</g>

<g transform="matrix( 1, 0, 0, 1, 0,0) ">
<use xlink:href="#dom_tree_3_0_Layer2_0_FILL"/>
</g>

<mask id="Mask_Mask_5">
<g transform="matrix( 1, 0, 0, 1, 0,0) ">
<use xlink:href="#Mask_dom_tree_3_0_1_MASK_0_FILL"/>
</g>
</mask>

<g mask="url(#Mask_Mask_5)">
<g transform="matrix( 1, 0, 0, 1, 0,0) ">
<use xlink:href="#dom_tree_3_0_Layer1_0_FILL"/>
</g>
</g>
</g>

<g id="campfire" transform="matrix( 0.98785400390625, 0.1553802490234375, -0.1553802490234375, 0.98785400390625, 737.5,166.9) ">
<g transform="matrix( 1, 0, 0, 1, 0,0) ">
<use xlink:href="#campfire_0_Layer1_0_FILL"/>
</g>

<g id="fire" transform="matrix( 1, 0, 0, 1, 0,2.85) ">
<g transform="matrix( 1, 0, 0, 1, 0,0) ">
<use xlink:href="#fire_0_Layer0_0_FILL"/>

<use xlink:href="#fire_0_Layer0_0_1_STROKES"/>
</g>
</g>
</g>
</g>
</g>

<g id="hiker" transform="matrix( 1, 0, 0, 1, 0,393.1) ">
<g transform="matrix( 1, 0, 0, 1, 0,0) ">
<use xlink:href="#hiker_mc_0_Layer0_0_FILL"/>
</g>
</g>
</g>
</svg>
