<?xml version="1.0" encoding="utf-8"?>
<!-- Generator: Adobe Illustrator 16.0.0, SVG Export Plug-In . SVG Version: 6.00 Build 0)  -->
<!DOCTYPE svg PUBLIC "-//W3C//DTD SVG 1.1//EN" "http://www.w3.org/Graphics/SVG/1.1/DTD/svg11.dtd">
<svg version="1.1" id="sheet_1_" xmlns="http://www.w3.org/2000/svg" xmlns:xlink="http://www.w3.org/1999/xlink" x="0px" y="0px"
	 width="268px" height="73px" viewBox="0 0 268 73" enable-background="new 0 0 268 73" xml:space="preserve">
<path fill="none" d="M300-83c0,2.761-2.239,5-5,5H188c-2.761,0-5-2.239-5-5v-35c0-2.761,2.239-5,5-5h107c2.761,0,5,2.239,5,5V-83z"
	/>
<linearGradient id="SVGID_1_" gradientUnits="userSpaceOnUse" x1="1" y1="36.5" x2="267" y2="36.5">
	<stop  offset="0" style="stop-color:#FFB099"/>
	<stop  offset="0.1062" style="stop-color:#FFB9A5;stop-opacity:0.9788"/>
	<stop  offset="0.7135" style="stop-color:#FFEBE6;stop-opacity:0.8573"/>
	<stop  offset="1" style="stop-color:#FFFFFF;stop-opacity:0.8"/>
</linearGradient>
<path fill="url(#SVGID_1_)" stroke="#303030" stroke-width="2" stroke-miterlimit="10" d="M267,67c0,2.761-2.239,5-5,5H6
	c-2.761,0-5-2.239-5-5V6c0-2.761,2.239-5,5-5h256c2.761,0,5,2.239,5,5V67z"/>
</svg>
