<?xml version="1.0" ?><svg height="500" id="svg2" version="1.1" width="500" xmlns="http://www.w3.org/2000/svg" xmlns:cc="http://creativecommons.org/ns#" xmlns:dc="http://purl.org/dc/elements/1.1/" xmlns:inkscape="http://www.inkscape.org/namespaces/inkscape" xmlns:rdf="http://www.w3.org/1999/02/22-rdf-syntax-ns#" xmlns:sodipodi="http://sodipodi.sourceforge.net/DTD/sodipodi-0.dtd" xmlns:svg="http://www.w3.org/2000/svg"><defs id="defs4"/><g id="layer1" transform="translate(0,-552.36218)"><path d="M 50 0 C 22.3 0 -1.0018638e-016 22.3 0 50 L 0 450 C 0 477.7 22.3 500 50 500 L 450 500 C 477.7 500 500 477.7 500 450 L 500 50 C 500 22.3 477.7 -1.0018638e-016 450 0 L 50 0 z M 200.75 52.875 L 305.625 52.875 L 273.21875 71.9375 L 240.8125 71.9375 C 252.07142 79.0895 261.27482 88.62393 267.46875 101.5 C 273.6932 114.36995 276.09375 128.51636 276.09375 142.5 C 276.09375 154.25932 274.94342 164.74803 271.3125 173.96875 C 267.65105 183.03692 263.21683 190.32255 257.96875 195.90625 C 252.72069 201.45943 246.99806 206.36586 241.75 211.15625 C 236.50192 215.76355 232.0677 220.37251 228.40625 225.4375 C 224.74482 230.38043 222.6875 235.95124 222.6875 241.6875 C 222.6875 245.80662 223.93698 250.09594 226.5 254.0625 C 229.18505 258.02906 232.84963 261.83855 236.96875 265.5 C 241.27094 269.16145 246.21627 272.97094 251.28125 276.9375 C 256.37676 280.90407 261.46626 285.36884 266.53125 290.28125 C 271.62675 295.04113 275.75662 299.82552 279.90625 305.53125 C 284.17793 311.11496 287.84251 317.63011 290.375 325.59375 C 293.09057 333.37431 294.18815 342.25045 294.21875 351.3125 C 294.18823 376.7595 283.05575 398.65687 260.8125 418.0625 C 236.64702 438.87169 203.26699 449.53125 160.6875 449.53125 C 151.31117 449.53125 141.7874 449.21179 132.09375 447.625 C 122.55874 446.00796 113.35232 442.84524 103.5 439.03125 C 93.806334 435.36981 85.216293 431.24067 77.75 425.6875 C 70.280666 420.28686 63.453476 412.47643 58.6875 403.75 C 53.918484 395.17613 52 385.80419 52 375.125 C 52 365.45269 54.714088 354.49712 60.59375 342.75 C 65.680095 332.58951 73.299099 324.29163 83.46875 316.96875 C 93.641459 309.4933 104.91128 303.65775 117.78125 299.84375 C 130.65426 295.87719 143.20942 292.98846 154.96875 291.21875 C 166.72807 289.32701 179.13526 288.71136 191.1875 288.40625 C 181.02701 275.19455 175.9375 262.65237 175.9375 252.15625 C 175.9375 250.2645 175.63239 249.11419 175.9375 247.375 C 176.27313 245.45274 177.3868 243.87598 177.875 242.625 C 178.36319 241.34348 178.95742 238.94982 179.78125 236.875 C 180.57455 234.64763 180.38311 233.4065 180.71875 232.125 C 174.34173 232.91829 169.29722 233.0625 164.53125 233.0625 C 140.85393 233.0625 120.50432 225.77913 103.5 210.1875 C 86.654313 194.62637 77.7464 174.61239 77.75 151.09375 C 77.746959 128.8444 85.527655 109.45212 100.625 91.96875 C 115.71928 74.33281 133.84987 62.55573 155.9375 57.625 C 170.87618 54.44566 185.9822 52.879 200.75 52.875 z M 168.34375 70.03125 C 153.56374 70.03429 142.10398 75.28398 134 86.25 C 125.89601 97.21601 121.59375 111.02525 121.59375 126.28125 C 121.59375 133.7506 122.72043 140.92486 124.46875 149.1875 C 126.37576 157.45625 129.2485 165.7061 133.0625 173.96875 C 136.87651 182.2436 141.31988 190.16161 146.40625 196.84375 C 151.48953 203.34279 158.15809 208.94338 165.46875 213.0625 C 172.77639 217.18163 180.25881 218.78125 188.375 218.78125 C 203.78356 218.78125 214.91458 214.01974 221.71875 204.5 C 228.73652 194.7972 232.21875 182.24661 232.21875 166.34375 C 232.21875 156.8057 231.12182 146.4612 228.40625 135.8125 C 225.87376 125.00517 221.88044 114.38598 216.9375 104.375 C 212.17762 94.36097 205.51138 86.07682 196.9375 79.5625 C 188.5162 73.04514 178.82463 70.03525 168.34375 70.03125 z M 357.125 144.40625 L 387.625 144.40625 L 387.625 205.4375 L 448.65625 205.4375 L 448.65625 235.9375 L 387.625 235.9375 L 387.625 296.96875 L 357.125 296.96875 L 357.125 235.9375 L 296.09375 235.9375 L 296.09375 205.4375 L 357.125 205.4375 L 357.125 144.40625 z M 200.28125 302.5625 C 198.17593 302.60446 195.74903 302.71875 193.125 302.71875 C 184.55112 302.71875 176.59726 302.52731 168.34375 303.65625 C 160.0811 304.75468 151.49104 307.47562 142.59375 310.34375 C 133.6934 313.18137 125.42296 316.35775 118.75 320.8125 C 112.07396 325.26726 106.82428 331.43082 102.53125 338.90625 C 98.24126 346.38171 95.875 355.13723 95.875 364.6875 C 95.875 375.48873 98.87517 384.82868 104.4375 393.25 C 110.15545 401.82387 117.31599 408.52139 126.375 413.28125 C 135.59268 418.2242 144.95777 421.4013 154.96875 423.78125 C 164.97974 426.16118 175.33951 427.59375 185.5 427.59375 C 194.8672 427.59375 203.7662 426.79431 212.1875 424.75 C 220.76138 422.82775 229.52381 419.48969 236.96875 415.1875 C 244.44418 411.06838 249.85406 405.5067 254.15625 398.03125 C 258.61099 390.58633 260.8125 381.35168 260.8125 371.34375 C 260.8125 367.98743 260.66758 364.83319 259.84375 361.8125 C 259.23352 358.63925 258.76207 355.75125 257.96875 353.21875 C 257.17545 350.50319 255.2318 348.43137 253.1875 345.59375 C 251.26524 342.72562 249.84106 339.8605 248.4375 337.96875 C 247.156 335.89394 244.5876 333.99681 241.75 331.28125 C 238.88187 328.56568 236.64913 325.9065 235.0625 324.625 C 233.62844 323.19094 231.09894 321.59129 227.4375 318.90625 C 223.92862 316.19067 221.24655 314.13263 219.8125 313.15625 C 218.531 312.21037 216.15406 310.15381 212.1875 307.46875 C 208.37352 304.75319 206.44588 303.32898 205.5 302.71875 C 204.15747 302.55093 202.38657 302.52054 200.28125 302.5625 z " id="rect2995" style="fill:#000000;fill-opacity:1;fill-rule:nonzero" transform="translate(0,552.36218)"/></g></svg>