<?xml version="1.0" encoding="utf-8"?>
<!-- Generator: Adobe Illustrator 16.0.0, SVG Export Plug-In . SVG Version: 6.00 Build 0)  -->
<!DOCTYPE svg PUBLIC "-//W3C//DTD SVG 1.1//EN" "http://www.w3.org/Graphics/SVG/1.1/DTD/svg11.dtd">
<svg version="1.1" xmlns="http://www.w3.org/2000/svg" xmlns:xlink="http://www.w3.org/1999/xlink" x="0px" y="0px"
	 width="113.254px" height="206.652px" viewBox="0 0 113.254 206.652" enable-background="new 0 0 113.254 206.652"
	 xml:space="preserve">
<symbol  id="chickens.ai_Assets_x2F_Layer_1_x2F__x3C_Path_x3E__x5F_42" viewBox="0 -110.6 90.3 110.6">
	<path fill-rule="evenodd" clip-rule="evenodd" fill="#FDE431" d="M86.55-33.95c0.267,6.667-0.117,17.784-1.15,33.35
		c1.667-7.5,2.833-15.5,3.5-24c0.2-2.7,0.483-9.033,0.85-19c0.167-3.733,0.3-11.633,0.4-23.7c0.1-9.534,0.15-16.117,0.15-19.75
		c0-3.867-0.083-6.184-0.25-6.95c-0.2-1.033-0.9-2.15-2.1-3.35c-2.5-2.5-6.733-5.017-12.7-7.55c-8.933-3.8-18.433-5.7-28.5-5.7
		c-9.8,0-20.083,1.567-30.85,4.7c-5.367,1.566-9.767,3.133-13.2,4.7c-0.333,0.1-0.667,0.367-1,0.8c-0.7,0.867-1.05,2.133-1.05,3.8
		c0,0.767-0.1,2.85-0.3,6.25C0.117-86.95,0-84.367,0-82.6c0,12.667,0.483,24.983,1.45,36.95C2.883-27.617,5.283-12.4,8.65,0
		c-2.4-18.5-1.783-33.683,1.85-45.55c5.033-16.633,15.733-25.367,32.1-26.2l12.15-0.15l2.45,0.2c2.066,0.3,4.167,0.8,6.3,1.5
		c6.733,2.3,12.383,6.333,16.95,12.1C84.083-53.533,86.117-45.483,86.55-33.95z"/>
</symbol>
<symbol  id="chickens.ai_Assets_x2F_Layer_1_x2F__x3C_Path_x3E__x5F_43" viewBox="0 -2.35 2.7 2.35">
	<path fill-rule="evenodd" clip-rule="evenodd" fill="#FFFFFF" d="M2.7-1.15C2.7-1.483,2.567-1.767,2.3-2
		C2.033-2.233,1.717-2.35,1.35-2.35S0.667-2.233,0.4-2S0-1.483,0-1.15c0,0.333,0.133,0.6,0.4,0.8C0.667-0.117,0.983,0,1.35,0
		S2.033-0.117,2.3-0.35C2.567-0.55,2.7-0.817,2.7-1.15z"/>
</symbol>
<symbol  id="chickens.ai_Assets_x2F_Layer_1_x2F__x3C_Path_x3E__x5F_44" viewBox="0 -7.15 7.5 7.15">
	<path fill-rule="evenodd" clip-rule="evenodd" fill="#FFFFFF" d="M7.5-3.55c0-1-0.367-1.85-1.1-2.55
		C5.667-6.8,4.783-7.15,3.75-7.15S1.833-6.8,1.1-6.1C0.367-5.4,0-4.55,0-3.55c0,0.966,0.367,1.8,1.1,2.5C1.833-0.35,2.717,0,3.75,0
		S5.667-0.35,6.4-1.05C7.133-1.75,7.5-2.583,7.5-3.55z"/>
</symbol>
<symbol  id="chickens.ai_Assets_x2F_Layer_1_x2F__x3C_Path_x3E__x5F_45" viewBox="0 -2.35 2.75 2.35">
	<path fill-rule="evenodd" clip-rule="evenodd" fill="#FFFFFF" d="M2.75-1.15c0-0.333-0.133-0.617-0.4-0.85S1.767-2.35,1.4-2.35
		S0.7-2.233,0.4-2C0.133-1.767,0-1.483,0-1.15c0,0.333,0.133,0.6,0.4,0.8C0.7-0.117,1.033,0,1.4,0s0.684-0.117,0.95-0.35
		C2.617-0.55,2.75-0.817,2.75-1.15z"/>
</symbol>
<symbol  id="chickens.ai_Assets_x2F_Layer_1_x2F__x3C_Path_x3E__x5F_46" viewBox="-0.02 -7.135 7.503 7.155">
	<path fill-rule="evenodd" clip-rule="evenodd" fill="#FFFFFF" d="M7.45-3.2c0.133-0.966-0.133-1.833-0.8-2.6
		C5.983-6.567,5.133-7,4.1-7.1C3.067-7.233,2.15-6.983,1.35-6.35C0.55-5.717,0.1-4.917,0-3.95c-0.1,0.967,0.183,1.833,0.85,2.6
		C1.517-0.583,2.367-0.133,3.4,0c1.033,0.1,1.934-0.167,2.7-0.8C6.9-1.4,7.35-2.2,7.45-3.2z"/>
</symbol>
<symbol  id="chickens.ai_Assets_x2F_Layer_1_x2F__x3C_Path_x3E__x5F_47" viewBox="-0.031 -6.5 15.481 6.5">
	<path fill-rule="evenodd" clip-rule="evenodd" fill="#FFFFFF" d="M0.05-4.3C0.417-3.267,1.9-1.917,4.5-0.25
		C5.167-0.083,5.75,0,6.25,0c1.367,0,2.967-0.317,4.8-0.95c1.567-0.566,3.034-1.25,4.4-2.05c-0.567-0.967-1.534-1.75-2.9-2.35
		C10.75-6.117,8.4-6.5,5.5-6.5C1.367-6.5-0.45-5.767,0.05-4.3z"/>
</symbol>
<symbol  id="chickens.ai_Assets_x2F_Layer_1_x2F__x3C_Path_x3E__x5F_55" viewBox="0 -17.55 4.3 17.554">
	<path fill-rule="evenodd" clip-rule="evenodd" fill="#BF2932" d="M0-15.7L0.3-1.95c0,0.534,0.2,1,0.6,1.4
		C1.333-0.15,1.817,0.033,2.35,0c0.533,0,1-0.2,1.4-0.6C4.117-1,4.3-1.483,4.3-2.05l-0.35-15.5C2.45-15.75,1.133-15.133,0-15.7z"/>
</symbol>
<symbol  id="chickens.ai_Assets_x2F_Layer_1_x2F__x3C_Path_x3E__x5F_57" viewBox="-0.004 -17.55 4.304 17.554">
	<path fill-rule="evenodd" clip-rule="evenodd" fill="#BF2932" d="M4.3-15.7c-1.133,0.567-2.45-0.05-3.95-1.85L0-2.05
		C-0.033-1.517,0.15-1.033,0.55-0.6C0.95-0.2,1.417,0,1.95,0c0.533,0.033,1-0.15,1.4-0.55C3.75-0.917,3.967-1.383,4-1.95L4.3-15.7z"
		/>
</symbol>
<g id="Layer_20">
	<path fill-rule="evenodd" clip-rule="evenodd" fill="none" stroke="#333333" stroke-width="9" d="M99.123,63.35
		c-1.1-8-2.767-15.683-5-23.05c-2.8-9.399-7.9-17.166-15.3-23.3c-2.3-1.9-4.7-3.533-7.2-4.9l-3.05-1.449c0-0.2,0.067-0.4,0.2-0.601
		c0.3-0.434,0.817-0.666,1.55-0.7c1.7-0.066,3.367-0.133,5-0.199c0.7-0.034,0.917-0.184,0.65-0.45c-0.167-0.167-1.3-0.417-3.4-0.75
		c-2-0.3-3.167-0.434-3.5-0.4c-3.333,0.2-5.966,0.816-7.9,1.851c-0.6,0.333-0.95,0.517-1.05,0.55c-0.133,0.033-0.2-0.184-0.2-0.65
		c0-0.8,0.717-1.649,2.15-2.55c1.3-0.8,2.45-1.25,3.45-1.35c2.5-0.233,3.267-0.45,2.3-0.65l-2.2-0.25
		c-3.333,0-8.383,1.616-15.15,4.85c-8.767,4.2-15.367,9.434-19.8,15.7c-4.2,5.967-7.733,14.267-10.6,24.9l-0.05,0.1l-2.05,8.45
		c-0.567,2.667-1.067,5.283-1.5,7.85l-0.1,0.4l-0.5,3.1c-0.434,2.601-0.833,5.317-1.2,8.15l-0.5,4.05
		c-4.167,8.767-7.383,22.033-9.65,39.8c-0.167,1.534,0.567,3.233,2.2,5.101c1.367,1.566,2.95,2.833,4.75,3.8l-0.05,1.8
		c0,1.767,0.117,4.351,0.35,7.75c0.2,3.4,0.3,5.483,0.3,6.25c0,1.667,0.35,2.934,1.05,3.8c0.333,0.434,0.667,0.7,1,0.801l5.55,2.199
		c4.667,1.7,9.483,3.117,14.45,4.25l-0.65,27.85c-4.867,0.834-7.667,5.117-8.4,12.85c-0.1,0.934-0.133,1.418-0.1,1.451
		c0.033,0.434,0.283,0.666,0.75,0.699c0.5,0.033,0.867-0.4,1.1-1.299c0.1-0.367,0.2-1.084,0.3-2.15c0.133-0.801,0.6-1.9,1.4-3.301
		c1.3-2.133,2.917-3.516,4.85-4.15l0.75,8.951c-0.1,2.434,0.217,3.65,0.95,3.65c0.5,0.033,0.833-0.385,1-1.25
		c0.067-0.301,0.117-1,0.15-2.102l1.15-9.1c2.033,0.701,3.75,2.166,5.15,4.4c0.967,1.5,1.5,2.633,1.6,3.4
		c0.033,0.365,0.083,1.016,0.15,1.949c0.1,0.701,0.383,1.033,0.85,1s0.75-0.35,0.85-0.949c0-0.268-0.034-0.85-0.1-1.75
		c-0.6-7.033-3.4-11.1-8.4-12.201l0.65-27.099c7.133,1.399,13.816,2.1,20.05,2.1c6.667,0,13.317-0.899,19.95-2.7l0.6,27.7
		c-4.934,1.102-7.717,5.168-8.35,12.201c-0.067,0.9-0.083,1.482-0.05,1.75c0.067,0.6,0.333,0.916,0.8,0.949s0.767-0.299,0.9-1
		c0.033-0.934,0.067-1.584,0.1-1.949c0-0.635,0.517-1.768,1.55-3.4c1.434-2.199,3.15-3.666,5.15-4.4l1.2,9.1
		c0.067,1.135,0.117,1.834,0.15,2.102c0.167,0.865,0.483,1.283,0.95,1.25c0.467,0,0.767-0.467,0.9-1.4c0.067-0.4,0.1-1.15,0.1-2.25
		l0.7-8.951c1.934,0.635,3.55,2.018,4.85,4.15c0.867,1.4,1.35,2.5,1.45,3.301c0.1,1.066,0.2,1.783,0.3,2.15
		c0.2,0.898,0.55,1.332,1.05,1.299c0.466-0.033,0.733-0.266,0.8-0.699c0-0.1-0.033-0.584-0.1-1.451
		c-0.833-7.766-3.65-12.049-8.45-12.85l-0.65-28.85c4.267-1.466,8.184-3.25,11.75-5.35c2.6-1.533,4.45-2.85,5.55-3.95l1.15-1.25
		c0.567-0.733,0.917-1.616,1.05-2.649c0.1-0.733,0.15-2.434,0.15-5.101l-0.05-10.85c1.8-0.934,3.4-2.2,4.8-3.8
		c1.7-1.9,2.45-3.617,2.25-5.15c-1.867-14.9-4.5-26.816-7.9-35.75C100.49,75.483,99.923,69.017,99.123,63.35z"/>
</g>
<g id="Layer_18">
	<path fill-rule="evenodd" clip-rule="evenodd" fill="#F59331" d="M77.973,151.2c-0.034-0.533,0.15-1,0.55-1.4
		c0.367-0.399,0.833-0.6,1.4-0.6c0.533-0.033,1,0.149,1.4,0.55c0.4,0.366,0.617,0.833,0.65,1.4l0.75,34.299
		c4.8,0.801,7.617,5.084,8.45,12.85c0.067,0.867,0.1,1.352,0.1,1.451c-0.067,0.434-0.333,0.666-0.8,0.699
		c-0.5,0.033-0.85-0.4-1.05-1.299c-0.1-0.367-0.2-1.084-0.3-2.15c-0.1-0.801-0.583-1.9-1.45-3.301c-1.3-2.133-2.917-3.516-4.85-4.15
		l-0.7,8.951c0,1.1-0.033,1.85-0.1,2.25c-0.133,0.934-0.433,1.4-0.9,1.4c-0.467,0.033-0.783-0.385-0.95-1.25
		c-0.033-0.268-0.083-0.967-0.15-2.102l-1.2-9.1c-2,0.734-3.716,2.201-5.15,4.4c-1.033,1.633-1.55,2.766-1.55,3.4
		c-0.033,0.365-0.067,1.016-0.1,1.949c-0.133,0.701-0.433,1.033-0.9,1s-0.733-0.35-0.8-0.949c-0.033-0.268-0.017-0.85,0.05-1.75
		c0.633-7.033,3.417-11.1,8.35-12.201L77.973,151.2z"/>
</g>
<g id="_x3C_Path_x3E__x5F_57">
	
		<use xlink:href="#chickens.ai_Assets_x2F_Layer_1_x2F__x3C_Path_x3E__x5F_57"  width="4.304" height="17.554" x="-0.004" y="-17.55" transform="matrix(1 0 0 -1 77.9731 149.1504)" overflow="visible" opacity="0.6719" enable-background="new    "/>
</g>
<g id="Layer_16">
	<path fill-rule="evenodd" clip-rule="evenodd" fill="#F59331" d="M38.273,151.2l-0.8,34.349c4.9,1.066,7.7,5.135,8.4,12.201
		c0.066,0.9,0.1,1.482,0.1,1.75c-0.1,0.6-0.383,0.916-0.85,0.949s-0.75-0.299-0.85-1c-0.067-0.934-0.117-1.584-0.15-1.949
		c-0.1-0.768-0.633-1.9-1.6-3.4c-1.4-2.234-3.117-3.699-5.15-4.4l-1.15,9.1c-0.034,1.102-0.083,1.801-0.15,2.102
		c-0.167,0.865-0.5,1.283-1,1.25c-0.733,0-1.05-1.217-0.95-3.65l-0.75-8.951c-1.934,0.635-3.55,2.018-4.85,4.15
		c-0.8,1.4-1.267,2.5-1.4,3.301c-0.1,1.066-0.2,1.783-0.3,2.15c-0.233,0.898-0.6,1.332-1.1,1.299
		c-0.467-0.033-0.717-0.266-0.75-0.699c-0.034-0.033,0-0.518,0.1-1.451c0.733-7.732,3.534-12.016,8.4-12.85l0.8-34.299
		c0-0.534,0.2-1,0.6-1.4c0.433-0.4,0.917-0.583,1.45-0.55c0.534,0,1,0.2,1.4,0.6C38.09,150.167,38.273,150.634,38.273,151.2z"/>
</g>
<g id="_x3C_Path_x3E__x5F_55">
	
		<use xlink:href="#chickens.ai_Assets_x2F_Layer_1_x2F__x3C_Path_x3E__x5F_55"  width="4.3" height="17.554" y="-17.55" transform="matrix(1 0 0 -1 33.9731 149.1504)" overflow="visible" opacity="0.6719" enable-background="new    "/>
</g>
<g id="Layer_14">
	<path fill-rule="evenodd" clip-rule="evenodd" fill="#FDE431" d="M19.873,74.2l1.65,40.649l-3.1,8.351
		c-2.233,5.566-3.816,8.35-4.75,8.35c-1.367,0-3.233-1.066-5.6-3.2c-2.6-2.366-3.783-4.533-3.55-6.5
		c2.267-17.866,5.5-31.166,9.7-39.899c1.333-2.733,2.667-4.851,4-6.351L19.873,74.2z"/>
</g>
<g id="Layer_13">
	<path fill-rule="evenodd" clip-rule="evenodd" fill="#FDE431" d="M93.373,70.8l1.65,1.45c1.333,1.5,2.667,3.616,4,6.35
		c4.2,8.733,7.433,22.034,9.7,39.9c0.233,1.934-0.95,4.083-3.55,6.45c-2.367,2.133-4.233,3.2-5.6,3.2c-0.9,0-2.483-2.767-4.75-8.301
		l-3.1-8.35L93.373,70.8z"/>
</g>
<g id="Layer_12">
	<path fill-rule="evenodd" clip-rule="evenodd" fill="#FDF6BD" d="M60.123,9.95c0.1-0.033,0.45-0.217,1.05-0.55
		c1.934-1.034,4.567-1.65,7.9-1.851c0.333-0.033,1.5,0.101,3.5,0.4c2.1,0.333,3.233,0.583,3.4,0.75
		c0.267,0.267,0.05,0.416-0.65,0.45c-1.633,0.066-3.3,0.133-5,0.199c-0.733,0.034-1.25,0.267-1.55,0.7c-0.133,0.2-0.2,0.4-0.2,0.601
		l3.05,1.449c2.5,1.367,4.9,3,7.2,4.9c7.4,6.134,12.5,13.9,15.3,23.3c2.833,9.5,4.767,19.5,5.8,30
		c0.467,4.434,0.883,12.184,1.25,23.25c0.167,3.733,0.3,11.634,0.4,23.7c0.1,9.533,0.15,16.116,0.15,19.75
		c0,3.866-0.083,6.184-0.25,6.95c-0.2,1.033-0.9,2.149-2.1,3.35c-2.5,2.5-6.733,5.017-12.7,7.55c-8.933,3.801-18.433,5.7-28.5,5.7
		c-9.8,0-20.083-1.566-30.85-4.7c-5.367-1.566-9.767-3.133-13.2-4.699c-0.333-0.101-0.667-0.367-1-0.801
		c-0.7-0.866-1.05-2.133-1.05-3.8c0-0.767-0.1-2.85-0.3-6.25c-0.233-3.399-0.35-5.983-0.35-7.75c0-19.1,1.017-36.733,3.05-52.899
		c3.167-25.634,8.566-43.834,16.2-54.601c4.434-6.267,11.033-11.5,19.8-15.7C57.24,6.116,62.29,4.5,65.623,4.5
		c3.933,0.2,3.9,0.5-0.1,0.9c-1,0.1-2.15,0.55-3.45,1.35c-1.433,0.9-2.15,1.75-2.15,2.55C59.923,9.767,59.99,9.983,60.123,9.95z"/>
</g>
<g id="Layer_11">
	<g id="Layer_10">
		<path fill-rule="evenodd" clip-rule="evenodd" fill="#064947" d="M47.273,38.15c0,2.033-0.75,3.783-2.25,5.25
			c-1.5,1.433-3.3,2.149-5.4,2.149c-2.133,0-3.95-0.717-5.45-2.149c-1.5-1.467-2.25-3.217-2.25-5.25c0-2.034,0.75-3.784,2.25-5.25
			c1.5-1.434,3.317-2.15,5.45-2.15c2.1,0,3.9,0.717,5.4,2.15C46.523,34.366,47.273,36.116,47.273,38.15z"/>
		
			<path fill-rule="evenodd" clip-rule="evenodd" fill="none" stroke="#14918C" stroke-linecap="round" stroke-linejoin="round" stroke-miterlimit="3" d="
			M47.273,38.15c0,2.033-0.75,3.783-2.25,5.25c-1.5,1.433-3.3,2.149-5.4,2.149c-2.133,0-3.95-0.717-5.45-2.149
			c-1.5-1.467-2.25-3.217-2.25-5.25c0-2.034,0.75-3.784,2.25-5.25c1.5-1.434,3.317-2.15,5.45-2.15c2.1,0,3.9,0.717,5.4,2.15
			C46.523,34.366,47.273,36.116,47.273,38.15z"/>
	</g>
</g>
<g id="Layer_10_1_">
	<g>
		<path fill-rule="evenodd" clip-rule="evenodd" fill="#007070" d="M83.523,35.2c0,2.066-0.75,3.816-2.25,5.25
			c-1.467,1.434-3.267,2.149-5.4,2.149s-3.95-0.716-5.45-2.149c-1.5-1.467-2.25-3.217-2.25-5.25s0.75-3.783,2.25-5.25
			c1.5-1.434,3.317-2.15,5.45-2.15s3.933,0.717,5.4,2.15C82.773,31.384,83.523,33.134,83.523,35.2z"/>
		
			<path fill-rule="evenodd" clip-rule="evenodd" fill="none" stroke="#14918C" stroke-linecap="round" stroke-linejoin="round" stroke-miterlimit="3" d="
			M83.523,35.2c0,2.066-0.75,3.816-2.25,5.25c-1.467,1.434-3.267,2.149-5.4,2.149s-3.95-0.716-5.45-2.149
			c-1.5-1.467-2.25-3.217-2.25-5.25s0.75-3.783,2.25-5.25c1.5-1.434,3.317-2.15,5.45-2.15s3.933,0.717,5.4,2.15
			C82.773,31.384,83.523,33.134,83.523,35.2z"/>
	</g>
</g>
<g id="Layer_9">
	<path fill-rule="evenodd" clip-rule="evenodd" fill="#FDC130" d="M46.423,49.55c0.934-1,2.067-2,3.4-3c2.7-2,5.15-3,7.35-3
		c1.867,0,4.017,0.533,6.45,1.601c2.233,0.966,3.833,1.933,4.8,2.899c0.934,0.934,0.1,2.316-2.5,4.15
		c-2.7,1.899-5.533,2.85-8.5,2.85c-3.1,0-5.967-0.666-8.6-2C46.223,51.717,45.423,50.55,46.423,49.55z"/>
</g>
<g id="Layer_8">
	<path fill-rule="evenodd" clip-rule="evenodd" fill="#F59331" d="M57.473,55.05c-2.9,0-5.633-0.6-8.2-1.8
		c-2.533-1.2-3.567-2.316-3.1-3.35c3,0.933,6.633,1.399,10.9,1.399c2.867,0,5.317-0.35,7.35-1.05c1.333-0.467,2.684-1.184,4.05-2.15
		c0.833,0.967-0.034,2.351-2.6,4.15C63.173,54.116,60.373,55.05,57.473,55.05z"/>
</g>
<g id="_x3C_Path_x3E__x5F_47">
	
		<use xlink:href="#chickens.ai_Assets_x2F_Layer_1_x2F__x3C_Path_x3E__x5F_47"  width="15.481" height="6.5" x="-0.031" y="-6.5" transform="matrix(1 0 0 -1 50.9229 43.5498)" overflow="visible" opacity="0.5703" enable-background="new    "/>
</g>
<g id="_x3C_Path_x3E__x5F_46">
	
		<use xlink:href="#chickens.ai_Assets_x2F_Layer_1_x2F__x3C_Path_x3E__x5F_46"  width="7.503" height="7.155" x="-0.02" y="-7.135" transform="matrix(1 0 0 -1 74.6729 30.1504)" overflow="visible" opacity="0.8281" enable-background="new    "/>
</g>
<g id="_x3C_Path_x3E__x5F_45">
	
		<use xlink:href="#chickens.ai_Assets_x2F_Layer_1_x2F__x3C_Path_x3E__x5F_45"  width="2.75" height="2.35" y="-2.35" transform="matrix(1 0 0 -1 75.6729 38.5498)" overflow="visible" opacity="0.8281" enable-background="new    "/>
</g>
<g id="_x3C_Path_x3E__x5F_44">
	
		<use xlink:href="#chickens.ai_Assets_x2F_Layer_1_x2F__x3C_Path_x3E__x5F_44"  width="7.5" height="7.15" y="-7.15" transform="matrix(1 0 0 -1 38.0229 32.6504)" overflow="visible" opacity="0.8281" enable-background="new    "/>
</g>
<g id="_x3C_Path_x3E__x5F_43">
	
		<use xlink:href="#chickens.ai_Assets_x2F_Layer_1_x2F__x3C_Path_x3E__x5F_43"  width="2.7" height="2.35" y="-2.35" transform="matrix(1 0 0 -1 39.0728 41.0498)" overflow="visible" opacity="0.8281" enable-background="new    "/>
</g>
<g id="_x3C_Path_x3E__x5F_42">
	
		<use xlink:href="#chickens.ai_Assets_x2F_Layer_1_x2F__x3C_Path_x3E__x5F_42"  width="90.3" height="110.6" y="-110.6" transform="matrix(1 0 0 -1 11.4229 49.9502)" overflow="visible" opacity="0.3594" enable-background="new    "/>
</g>
</svg>
