<?xml version="1.0" encoding="utf-8"?>
<!-- Generator: Adobe Illustrator 16.0.0, SVG Export Plug-In . SVG Version: 6.00 Build 0)  -->
<!DOCTYPE svg PUBLIC "-//W3C//DTD SVG 1.1//EN" "http://www.w3.org/Graphics/SVG/1.1/DTD/svg11.dtd">
<svg version="1.1" xmlns="http://www.w3.org/2000/svg" xmlns:xlink="http://www.w3.org/1999/xlink" x="0px" y="0px"
	 width="1930.289px" height="1171.185px" viewBox="0 0 1930.289 1171.185" enable-background="new 0 0 1930.289 1171.185"
	 xml:space="preserve">
<g id="Layer_2">
	<rect x="350.627" fill="#EBEDC6" width="1579.661" height="1171.185"/>
	<g id="Layer_1" display="none">
		<g id="eNotsG.tif" display="inline">
			
				<image overflow="visible" width="740" height="861" id="Layer_0_1_" xlink:href="619820649E83C036.png"  transform="matrix(1 0 0 1 722.4409 163.6611)">
			</image>
		</g>
	</g>
</g>
<g id="Layer_4">
	<rect x="1111.644" y="54.371" fill="#BFDA95" width="742.373" height="1067.797"/>
</g>
<g id="Layer_5">
	<rect x="1098.084" y="28.897" fill="#FFFFFF" width="23.729" height="1118.644"/>
	<rect x="926.152" y="23.116" fill="#FFFFFF" width="23.729" height="1118.645"/>
	<rect x="2.119" y="214.609" fill="#FFFFFF" width="1118.644" height="23.729"/>
	<rect x="725.525" y="19.913" fill="#FFFFFF" width="23.73" height="1118.645"/>
	<rect x="526.034" y="18.015" fill="#FFFFFF" width="23.73" height="1118.645"/>
	<rect y="641.981" fill="#FFFFFF" width="1118.644" height="23.73"/>
	<rect x="0.288" y="995.592" fill="#FFFFFF" width="1118.644" height="23.73"/>
</g>
<g id="Layer_3" display="none">
	<circle display="inline" fill="#A3B87C" cx="1320.119" cy="264.405" r="166.102"/>
	<circle display="inline" fill="#A3B87C" cx="1272.661" cy="472.88" r="89.83"/>
	<circle display="inline" fill="#A3B87C" cx="1415.034" cy="420.337" r="84.746"/>
	<circle display="inline" fill="#A3B87C" cx="1317.576" cy="582.202" r="51.695"/>
	<circle display="inline" fill="#A3B87C" cx="1256.56" cy="685.592" r="34.746"/>
	<circle display="inline" fill="#A3B87C" cx="1249.78" cy="821.185" r="19.491"/>
	<circle display="inline" fill="#A3B87C" cx="1303.17" cy="889.829" r="18.644"/>
</g>
</svg>
