
<svg xmlns="http://www.w3.org/2000/svg" version="1.1" xmlns:xlink="http://www.w3.org/1999/xlink" preserveAspectRatio="none" x="0px" y="0px" width="1000px" height="1000px" viewBox="0 0 1000 1000">
<defs>
<filter id="Filter_1" x="-20%" y="-20%" width="140%" height="140%" color-interpolation-filters="sRGB">
<feColorMatrix in="SourceGraphic" type="matrix" values="1 0 0 0 0 0 1 0 0 0 0 0 1 0 0 0 0 0 0.23 0" result="result1"/>
</filter>

<g id="Layer1_0_FILL">
<path fill="#ECEEC9" stroke="none" d="
M 0 0
L 0 1000 1000 1000 1000 0 0 0 Z"/>
</g>

<g id="grass_overlay_0_Layer0_0_FILL">
<path fill="#BBD890" stroke="none" d="
M 119.05 640.1
Q 111.7 622.4 93.05 623.6 85.1 624.1 77.8 626.35 72.1 628.1 67.55 632.55 50.05 649.5 40.35 671.5 36.1 681.1 35.85 692.1 35.1 729.1 35.8 766.1 36.25 790.1 36.7 814.1 37.1 838.1 38.6 862.05 39.1 870.15 41.05 878.15 48.2 907.75 71.15 928.1 83.05 938.6 98.8 943.15 109.1 946.15 119.45 948.5 131.1 951.15 143.1 951.5 164.1 952.15 185.1 951.9 200.95 951.75 208.5 937.8 214.55 926.65 216.95 914.1 223.4 880.3 208.7 848.35 192.55 813.4 175.4 777.95 165.45 757.45 160.35 736.3 156.45 720.05 149.05 706.15 144.75 698.1 140.4 691.1 136.8 668.7 124 649.5 121.1 645.1 119.05 640.1
M 273.8 67.55
Q 270.35 61.75 266.55 56.9 245.95 36.4 217.3 31.05 206.15 28.95 195 26.65 176.35 22.8 157.25 25.3 152.1 25.95 147.35 28.4 114.7 45.2 86.6 67.35 78.25 73.95 71.9 82.55 64.15 93 60.25 105.7 54.65 124.2 41.75 138.55 35.1 145.95 28.55 153.45 21.1 161.95 13.5 170.35 7.4 177.1 4.85 185.85 -2.85 212.2 1.7 239.55 3.1 248 7.8 255.55 19.65 274.6 33.75 291.45 42.95 302.55 54.65 310.65 58.1 313 61.55 315.3 71.1 321.5 83.15 320.35 101.15 318.65 116.95 307.8 151.65 283.95 191.35 295.4 200.35 298 207.55 292.5 212.15 289 217.25 286.2 226.35 281.2 232.3 272.8 237.15 266 243.15 260 252.15 251 260.85 241.7 267.8 234.25 271.95 224.35 277.15 212 282.35 199.6 285.15 192.95 287.15 185.95 297.5 149.3 290.45 112.1 285.9 87.95 273.8 67.55 Z"/>

<path fill="#BBD591" stroke="none" d="
M 837.5 37.15
Q 828.25 33.95 819 30.65 795.1 22 771.25 16.05 735.15 6.95 697.25 5.15 693.2 4.95 689.15 4.6
L 685.2 7.95
Q 670.3 5.3 655.4 3.55 631.35 0.7 607.2 0 604.2 -0.1 601.3 0.45 590.4 2.45 581.1 9.8 552.8 32.2 529.7 60.35 517 75.75 508.95 93.85 501.1 111.45 492.4 128.6 487.15 138.95 482.65 149.75 468.55 183.8 453.9 217.45 450.15 226 445.85 234.35 429 267.2 403.7 294.5 391.15 308 379.45 322.25 357.65 348.65 336.55 375.5 325.15 390 312.8 403.75 298.1 420.1 286.55 438.95 279.1 451.05 272.5 463.75 266.1 476.05 258.55 487.7 246.85 505.7 240.55 525.9 229.7 560.75 223.2 596.45 221.1 608.1 221.1 620.1 221.1 642.1 223.45 663.85 225.1 679.1 229.75 693.9 237.15 717.5 250.8 738.3 269.6 766.9 292.6 792.55 302.1 803.1 311.6 813.65 336.55 841.35 366.65 862.8 374.15 868.15 381.75 873.25 392.15 880.15 402.85 886.65 434.4 905.8 469.3 917.75 499.6 928.1 529.75 938.5 543.2 943.15 557.3 945.6 580 949.5 603.2 948.75 621.2 948.15 639.15 947.25 657.75 946.3 675.35 940.6 695 934.2 714.9 929.05 726.25 926.15 736.9 921.4 754.15 913.75 769.9 903.1 780.25 896.15 790.65 889.25 798.25 884.15 804.95 877.85 831.75 852.75 850.8 821.9 864.5 799.7 876.1 776.55 892.6 743.6 904.2 708.4 907.25 699.1 911.95 690.5 929.45 658.6 934.35 622.25 936.3 608.1 939.8 594.15 949.5 555.75 949.35 516.05 949.25 476.75 962 439.6 965.3 430.05 967 420 973.35 382.6 963.65 345.9 961.25 337 959.05 328.05 949.7 289.9 939.8 251.85 938.3 246 936.7 240.15 926.7 203.65 914.45 168.25 912.3 161.95 909.5 155.85 901.65 138.55 893.8 119.7 892.25 115.95 890.45 112.35 889.25 109.95 887.95 107.55 877.8 89.4 870.5 70.25 869.25 66.95 867.75 63.7 858.75 44.55 837.5 37.15
M 865.9 95.85
L 865.9 95.9
Q 871.95 108.35 876 121.75 877.25 125.95 878.05 130.2 880.1 141.15 887.45 149.8 889.25 151.95 890.45 154.35 891.25 155.95 891.8 157.8 895.35 170.05 899.05 182 900.25 185.95 901.65 189.8 904.25 196.95 906.5 204.2 917.55 240.1 918.8 278 920 314.2 917.35 350 916.05 367.15 910.4 383.7 902.6 406.55 897.1 430 895.25 438.05 894 446.15 891.45 462.55 888.05 478.25 879.9 515.75 878.75 554.05 878.45 563.1 877.7 572.1 877.25 577.05 876.55 581.95 872.1 612.8 863.05 642.55 863.05 642.6 863.05 642.65 860.6 650.5 857.9 658.35 856.25 663.1 854.4 667.75 852.25 673.1 849.9 678.4 848.25 682.1 846.4 685.65 837.4 702.65 822.9 715.7 820.25 718.1 817.7 720.55 806.05 731.65 791 737.5 784.25 740.1 777.15 740.5 749.25 742.1 721.2 742.6 683 743.3 645.25 739.75 638.2 739.1 631.45 737.25 603.55 729.7 579.5 713.65 563.65 703.05 549.75 689.5 544.2 684.1 539.95 677.6 528.95 660.75 521.8 641.85 514.35 622.2 517.05 600.05 518.15 591.05 520.55 582.45 523.2 573.05 526.7 563.85 536.4 538.45 551.25 516.05 559.2 504.05 566.25 491.5 584.5 459.05 597 423.95 608.75 390.9 609.65 356 610.6 320.8 607.7 285.95 607.2 280 606.5 274.1 602.85 244.05 597.45 213.95 591.2 179.3 593.7 144 594.2 136.95 594.15 129.95 594 91.15 619.1 61.9 624.2 55.95 630.1 51.05 636.2 45.95 642.1 40.75 649.2 34.5 659.25 35.45 680.1 37.45 701 42.7 720.8 47.7 740 53.4
L 740.85 53.25
Q 740.95 53.25 741.1 53.2 742.25 52.95 743.35 52.85 751.25 51.95 759.25 51.85 786 51.5 811.45 59.4 832.55 65.95 850.75 78.65 860.85 85.7 865 94.05 865.45 94.95 865.9 95.85 Z"/>

<path fill="#96C566" stroke="none" d="
M 865.9 95.9
L 863.6 96.9 865.9 95.85
Q 865.45 94.95 865 94.05 860.85 85.7 850.75 78.65 832.55 65.95 811.45 59.4 786 51.5 759.25 51.85 751.25 51.95 743.35 52.85 742.25 52.95 741.1 53.2 740.95 53.25 740.85 53.25
L 740 53.4
Q 720.8 47.7 701 42.7 680.1 37.45 659.25 35.45 649.2 34.5 642.1 40.75 636.2 45.95 630.1 51.05 624.2 55.95 619.1 61.9 594 91.15 594.15 129.95 594.2 136.95 593.7 144 591.2 179.3 597.45 213.95 602.85 244.05 606.5 274.1 607.2 280 607.7 285.95 610.6 320.8 609.65 356 608.75 390.9 597 423.95 584.5 459.05 566.25 491.5 559.2 504.05 551.25 516.05 536.4 538.45 526.7 563.85 523.2 573.05 520.55 582.45 518.15 591.05 517.05 600.05 514.35 622.2 521.8 641.85 528.95 660.75 539.95 677.6 544.2 684.1 549.75 689.5 563.65 703.05 579.5 713.65 603.55 729.7 631.45 737.25 638.2 739.1 645.25 739.75 683 743.3 721.2 742.6 749.25 742.1 777.15 740.5 784.25 740.1 791 737.5 806.05 731.65 817.7 720.55 820.25 718.1 822.9 715.7 837.4 702.65 846.4 685.65 848.25 682.1 849.9 678.4 852.25 673.1 854.4 667.75 856.25 663.1 857.9 658.35 860.6 650.5 863.05 642.65
L 861.25 642.05 863.05 642.55
Q 872.1 612.8 876.55 581.95 877.25 577.05 877.7 572.1 878.45 563.1 878.75 554.05 879.9 515.75 888.05 478.25 891.45 462.55 894 446.15 895.25 438.05 897.1 430 902.6 406.55 910.4 383.7 916.05 367.15 917.35 350 920 314.2 918.8 278 917.55 240.1 906.5 204.2 904.25 196.95 901.65 189.8 900.25 185.95 899.05 182 895.35 170.05 891.8 157.8 891.25 155.95 890.45 154.35 889.25 151.95 887.45 149.8 880.1 141.15 878.05 130.2 877.25 125.95 876 121.75 871.95 108.35 865.9 95.9 Z"/>
</g>
</defs>

<g transform="matrix( 1, 0, 0, 1, 0,0) ">
<use xlink:href="#Layer1_0_FILL"/>
</g>

<g transform="matrix( 1, 0, 0, 1, 24.95,6.1) ">
<g transform="matrix( 1, 0, 0, 1, 0,0) ">
<use filter="url(#Filter_1)" xlink:href="#grass_overlay_0_Layer0_0_FILL"/>
</g>
</g>
</svg>
